<svg width="26" height="26" viewBox="0 0 26 26" fill="none" xmlns="http://www.w3.org/2000/svg">
<circle cx="13" cy="13" r="13" fill="white"/>
<path d="M6.42084 14.713V8.47655C6.42084 8.13001 6.7123 7.84906 7.07186 7.84906H13.5388C13.8983 7.84906 14.1898 8.13001 14.1898 8.47655V14.713C14.1898 14.8286 14.0927 14.9222 13.9728 14.9222H6.63785C6.51798 14.9222 6.42084 14.8286 6.42084 14.713ZM11.6431 16.8495C11.6431 17.5683 11.0385 18.1509 10.2929 18.1509C9.54716 18.1509 8.94261 17.5683 8.94261 16.8495C8.94261 16.1307 9.54716 15.548 10.2929 15.548C11.0385 15.548 11.6431 16.1307 11.6431 16.8495ZM10.968 16.8495C10.968 16.4901 10.6657 16.1988 10.2928 16.1988C9.91997 16.1988 9.61768 16.4901 9.61768 16.8495C9.61768 17.2089 9.91997 17.5002 10.2928 17.5002C10.6657 17.5002 10.968 17.2089 10.968 16.8495ZM9.1299 15.548H6.10424C5.9844 15.548 5.88724 15.6417 5.88724 15.7572V16.3918C5.88724 16.5073 5.9844 16.6009 6.10424 16.6009H8.52945C8.59276 16.1822 8.81206 15.8123 9.1299 15.548ZM18.7077 16.8495C18.7077 17.5683 18.1032 18.1509 17.3575 18.1509C16.6118 18.1509 16.0073 17.5683 16.0073 16.8495C16.0073 16.1307 16.6118 15.548 17.3575 15.548C18.1032 15.548 18.7077 16.1307 18.7077 16.8495ZM18.0327 16.8495C18.0327 16.4901 17.7304 16.1988 17.3575 16.1988C16.9846 16.1988 16.6824 16.4901 16.6824 16.8495C16.6824 17.2089 16.9846 17.5002 17.3575 17.5002C17.7304 17.5002 18.0327 17.2089 18.0327 16.8495ZM21.0948 15.7572V16.3918C21.0948 16.5073 20.9976 16.6009 20.8778 16.6009H19.1209C18.9952 15.7702 18.2535 15.1297 17.3576 15.1297C16.4615 15.1297 15.7197 15.7703 15.5941 16.6009H12.0563C11.9929 16.1822 11.7737 15.8123 11.4558 15.548H14.8103V9.56527C14.8103 9.33424 15.0046 9.14694 15.2443 9.14694H17.2929C17.8698 9.14694 18.4089 9.42312 18.7317 9.88391L20.0524 11.7694C20.2461 12.0459 20.3497 12.372 20.3497 12.7057V15.548H20.8778C20.9976 15.548 21.0948 15.6417 21.0948 15.7572ZM18.8934 11.8176L17.8373 10.3712C17.7966 10.3155 17.7304 10.2824 17.6598 10.2824H16.0124C15.8926 10.2824 15.7954 10.376 15.7954 10.4916V11.938C15.7954 12.0536 15.8926 12.1472 16.0124 12.1472H18.7159C18.8917 12.1472 18.9946 11.9562 18.8934 11.8176Z" fill="#EEC517"/>
</svg>
