<svg width="39" height="39" viewBox="0 0 39 39" fill="none" xmlns="http://www.w3.org/2000/svg">
<rect width="39" height="39" rx="5" fill="#5AA700"/>
<circle cx="19" cy="20" r="13" fill="white"/>
<path d="M19.0002 13.067C16.1253 13.067 13.8002 15.2371 13.8002 17.9203C13.8002 21.5603 19.0002 26.9336 19.0002 26.9336C19.0002 26.9336 24.2002 21.5603 24.2002 17.9203C24.2002 15.2371 21.8751 13.067 19.0002 13.067ZM19.0002 19.6536C17.9751 19.6536 17.1431 18.8771 17.1431 17.9203C17.1431 16.9635 17.9751 16.187 19.0002 16.187C20.0253 16.187 20.8573 16.9635 20.8573 17.9203C20.8573 18.8771 20.0253 19.6536 19.0002 19.6536Z" fill="#68AD17"/>
</svg>
