<svg width="24" height="24" viewBox="0 0 24 24" fill="none" xmlns="http://www.w3.org/2000/svg">
<circle cx="12" cy="12" r="12" fill="#55C082"/>
<path d="M18.877 15.5568L16.6531 13.4514C16.2102 13.0338 15.4766 13.0465 15.0183 13.4806L13.8979 14.5409C13.8271 14.504 13.7538 14.4654 13.6768 14.4245C12.9693 14.0534 12.0009 13.5448 10.9819 12.5795C9.95993 11.6122 9.42211 10.6942 9.02889 10.024C8.98739 9.95302 8.94764 9.88456 8.90838 9.81956L9.66032 9.10883L10.03 8.75847C10.4891 8.32379 10.5018 7.62963 10.0598 7.21081L7.83598 5.10527C7.39406 4.68704 6.6602 4.69973 6.20111 5.13441L5.57435 5.73109L5.59148 5.74719C5.38132 6.00103 5.2057 6.29379 5.07501 6.6095C4.95454 6.91002 4.87954 7.19679 4.84524 7.48415C4.5516 9.7885 5.66404 11.8945 8.68308 14.7523C12.8563 18.7023 16.2194 18.4039 16.3644 18.3894C16.6804 18.3536 16.9833 18.2822 17.291 18.169C17.6216 18.0468 17.9307 17.8808 18.1987 17.6823L18.2124 17.6938L18.8474 17.1052C19.3055 16.6706 19.3187 15.9762 18.877 15.5568Z" fill="white"/>
</svg>
