<svg width="18" height="14" viewBox="0 0 18 14" fill="none" xmlns="http://www.w3.org/2000/svg">
<path d="M10 2.26416L10.6914 1.48162C10.9493 1.17556 11.3269 1 11.7273 1H14.9697C16.075 1 16.9857 1.88712 16.9998 2.97743C17.0068 3.51796 16.8017 4.02737 16.4222 4.41177C16.0427 4.79624 15.5362 5.00799 14.996 5.00799H12.9707L7.03704 12.0469C6.77907 12.3529 6.40147 12.5285 6.00116 12.5285H5.5" stroke="#5A6872" stroke-linecap="round" stroke-linejoin="round"/>
<path d="M8.81507 3.70703L4.7577 8.52015H3.00398C2.4638 8.52015 1.95727 8.7319 1.57774 9.11636C1.19824 9.50077 0.993144 10.0101 1.00017 10.5507C1.0143 11.641 1.92499 12.5281 3.0303 12.5281H3.5187" stroke="#5A6872" stroke-linecap="round" stroke-linejoin="round"/>
</svg>
