<?xml version="1.0" encoding="UTF-8"?>
<svg width="190px" height="26px" viewBox="0 0 190 26" version="1.1" xmlns="http://www.w3.org/2000/svg" xmlns:xlink="http://www.w3.org/1999/xlink">
    <!-- Generator: Sketch 50.2 (55047) - http://www.bohemiancoding.com/sketch -->
    <title>Group 13</title>
    <desc>Created with Sketch.</desc>
    <defs></defs>
    <g id="Page-1" stroke="none" stroke-width="1" fill="none" fill-rule="evenodd">
        <g id="Login--OTP-Sent" transform="translate(-625.000000, -166.000000)">
            <g id="Group-13" transform="translate(625.000000, 166.000000)">
                <path d="M22.6257717,15.7073701 C22.627063,15.7073701 22.6283542,15.7079318 22.6296454,15.7079318 C23.1945634,15.7079318 23.6500487,15.313066 23.6600558,14.8235559 L23.6600558,14.7932248 L23.659733,14.7921015 L23.6600558,14.7921015 L23.6600558,6.27889539 C23.6442381,5.80089992 23.2036021,5.41839121 22.6532106,5.408 L1.01104176,5.408 C0.453225617,5.41839121 0.00419653349,5.8104486 0,6.2977119 L0,6.31006901 C0.000645620537,6.31175407 0.000968430805,6.31371997 0.00129124107,6.31540504 L0.000645620537,6.31624757 L0,10.5530511 L0,25.0875398 L0.00129124107,25.088944 C0.000968430805,25.0906291 0.000645620537,25.092595 0,25.09428 L0,25.1066371 C0.00419653349,25.6003598 0.464201166,26 1.03267005,26 C1.03396129,26 1.03525253,25.9994383 1.03654377,25.9994383 L1.03686658,26 L10.8038141,26 L10.8041369,25.9994383 C10.8054281,25.9994383 10.8067194,26 10.8080106,26 C11.3722829,26 11.8271226,25.6059767 11.8380982,25.11759 L11.8380982,15.7096169 L22.6244805,15.7096169 L22.6257717,15.7073701" id="Fill-3" fill="#83C8B6"></path>
                <path d="M28.9029294,10.2990893 C28.9042206,10.2990893 28.9055119,10.299651 28.9068031,10.299651 C29.4717211,10.299651 29.9272064,9.90478514 29.9372135,9.41555593 L29.9372135,9.384944 L29.9368907,9.38410147 L29.9372135,9.38410147 L29.9372135,0.870895393 C29.9213958,0.392899921 29.4807598,0.0101103625 28.9303682,0 L7.28819942,0 C6.73038328,0.0103912059 6.2813542,0.402448597 6.27715766,0.889431058 L6.27715766,0.901788167 C6.27780328,0.903754071 6.27780328,0.905439132 6.27844891,0.907405035 C6.27812609,0.907966722 6.27780328,0.908247566 6.27780328,0.908247566 L6.27715766,5.14505114 L6.27715766,19.6795398 L6.27812609,19.6801015 C6.27780328,19.6826291 6.27780328,19.6843141 6.27715766,19.68628 L6.27715766,19.6986371 C6.2813542,20.1923598 6.74103602,20.592 7.30982771,20.592 C7.31111895,20.592 7.31208738,20.5911575 7.31370144,20.5911575 L7.31402425,20.592 L17.0809717,20.592 L17.0812945,20.5911575 C17.0825858,20.5911575 17.083877,20.592 17.0851683,20.592 C17.6494406,20.592 18.1042803,20.1979767 18.1152558,19.7093092 L18.1152558,10.3016169 L28.9016381,10.3016169 L28.9029294,10.2990893" id="Fill-4" fill="#00A3DA"></path>
                <path d="M23.12945,5.408 L6.27715766,5.408 L6.27715766,19.8907856 L6.27813246,19.8913453 C6.27780753,19.8938639 6.27780753,19.8958228 6.27715766,19.8975019 L6.27715766,19.9098151 C6.28138178,20.4017815 6.74408548,20.8 7.31629138,20.8 C7.31791604,20.8 7.31889084,20.7994403 7.3205155,20.7994403 L7.32084043,20.8 L12.2432409,20.8 L12.2432409,15.6729713 L18.1930775,15.6729713 L18.1930775,10.5462225 L24.1429141,10.5462225 L24.1429141,6.27579739 C24.1269924,5.79950227 23.6834597,5.41835424 23.12945,5.408" id="Fill-5" fill="#FFFFFF"></path>
                <path d="M54.8347439,5.408 L41.9776984,5.408 C41.6872691,5.408 41.5258122,5.54915426 41.5258122,5.80362558 L41.5258122,20.4043744 C41.5258122,20.6588457 41.6872691,20.8 41.9776984,20.8 L44.8208824,20.8 C45.1113117,20.8 45.272447,20.6588457 45.272447,20.4043744 L45.272447,14.5588449 L53.9306499,14.5588449 C54.2210793,14.5588449 54.3822145,14.4171282 54.3822145,14.1632193 L54.3822145,11.8473897 C54.3822145,11.5931996 54.2210793,11.4520453 53.9306499,11.4520453 L45.272447,11.4520453 L45.272447,8.51479956 L54.8347439,8.51479956 C55.1258164,8.51479956 55.2872733,8.37364531 55.2872733,8.11917399 L55.2872733,5.80362558 C55.2872733,5.54915426 55.1258164,5.408 54.8347439,5.408" id="Fill-6" fill="#FFFFFF"></path>
                <path d="M70.5224217,13.5983211 L65.8286919,13.5983211 L65.8286919,8.51479956 L70.5224217,8.51479956 C72.5762124,8.51479956 73.7173516,9.58779686 73.7173516,11.0283014 C73.7173516,12.4685247 72.5762124,13.5983211 70.5224217,13.5983211 Z M77.4987542,11.0283014 C77.4987542,7.83714666 74.4667515,5.408 70.5224217,5.408 L62.5029659,5.408 C62.2102164,5.408 62.0472892,5.54915426 62.0472892,5.80362558 L62.0472892,20.4043744 C62.0472892,20.6588457 62.2102164,20.8 62.5029659,20.8 L65.3720415,20.8 C65.6651156,20.8 65.8286919,20.6588457 65.8286919,20.4043744 L65.8286919,16.7051206 L70.3922747,16.7051206 C70.5224217,16.7051206 70.6853488,16.7051206 70.9135117,16.6767211 L73.0980986,20.5176915 C73.2282456,20.7148013 73.4236283,20.8 73.6845714,20.8 L76.8795013,20.8 C77.1397952,20.8 77.3023978,20.6020466 77.1725754,20.4043744 L74.3693847,15.7445969 C76.2274681,14.8124726 77.4987542,13.0618224 77.4987542,11.0283014 Z" id="Fill-7" fill="#FFFFFF"></path>
                <path d="M97.8095006,17.7216 L87.763578,17.7216 L87.763578,14.3887287 L96.3559002,14.3887287 C96.6469418,14.3887287 96.8080599,14.2475744 96.8080599,13.9939467 L96.8080599,11.7340726 C96.8080599,11.4804449 96.6469418,11.3387282 96.3559002,11.3387282 L87.763578,11.3387282 L87.763578,8.45800044 L97.5509398,8.45800044 C97.8416599,8.45800044 98.0030996,8.31684618 98.0030996,8.06265605 L98.0030996,5.80362558 C98.0030996,5.54915426 97.8416599,5.408 97.5509398,5.408 L84.4688576,5.408 C84.2434209,5.408 84.017341,5.57755382 84.017341,5.80362558 L84.017341,20.4043744 C84.017341,20.6588457 84.1787807,20.8 84.4688576,20.8 L97.8095006,20.8 C98.0995775,20.8 98.2616604,20.6588457 98.2616604,20.4043744 L98.2616604,18.1169444 C98.2616604,17.8624731 98.0995775,17.7216 97.8095006,17.7216" id="Fill-8" fill="#FFFFFF"></path>
                <path d="M119.536905,5.408 L104.509337,5.408 C104.217512,5.408 104.05596,5.54915426 104.05596,5.80362558 L104.05596,8.11917399 C104.05596,8.37364531 104.217512,8.51479956 104.509337,8.51479956 L110.144958,8.51479956 L110.144958,20.4043744 C110.144958,20.6588457 110.306832,20.8 110.59769,20.8 L113.448552,20.8 C113.739411,20.8 113.901285,20.6588457 113.901285,20.4043744 L113.901285,8.51479956 L119.536905,8.51479956 C119.828731,8.51479956 119.990283,8.37364531 119.990283,8.11917399 L119.990283,5.80362558 C119.990283,5.54915426 119.828731,5.408 119.536905,5.408" id="Fill-9" fill="#FFFFFF"></path>
                <path d="M134.259861,13.5983211 L129.565581,13.5983211 L129.565581,8.51479956 L134.259861,8.51479956 C136.313284,8.51479956 137.454724,9.58779686 137.454724,11.0283014 C137.454724,12.4685247 136.313284,13.5983211 134.259861,13.5983211 Z M141.236047,11.0283014 C141.236047,7.83714666 138.204108,5.408 134.259861,5.408 L126.240574,5.408 C125.947506,5.408 125.784582,5.54915426 125.784582,5.80362558 L125.784582,20.4043744 C125.784582,20.6588457 125.947506,20.8 126.240574,20.8 L129.109589,20.8 C129.402657,20.8 129.565581,20.6588457 129.565581,20.4043744 L129.565581,16.7051206 L134.129717,16.7051206 C134.259861,16.7051206 134.422785,16.7051206 134.650943,16.6767211 L136.83516,20.5176915 C136.965304,20.7148013 137.161007,20.8 137.421945,20.8 L140.616483,20.8 C140.876771,20.8 141.040344,20.6020466 140.909551,20.4043744 L138.106744,15.7445969 C139.964463,14.8124726 141.236047,13.0618224 141.236047,11.0283014 Z" id="Fill-10" fill="#FFFFFF"></path>
                <path d="M156.824116,17.6417388 C153.664114,17.6417388 151.451302,15.69295 151.451302,13.0137473 C151.451302,10.279833 153.664114,8.35826123 156.824116,8.35826123 C159.952016,8.35826123 162.164828,10.279833 162.164828,13.0137473 C162.164828,15.69295 159.952016,17.6417388 156.824116,17.6417388 Z M156.824116,5.408 C151.831345,5.408 147.754634,8.68292049 147.754634,13.0137473 C147.754634,17.3709579 151.831345,20.592 156.824116,20.592 C161.785109,20.592 165.86182,17.3709579 165.86182,13.0137473 C165.86182,8.68292049 161.785109,5.408 156.824116,5.408 Z" id="Fill-11" fill="#FFFFFF"></path>
                <path d="M188.583084,5.408 L185.816375,5.408 C185.524085,5.408 185.361414,5.54915426 185.361414,5.80362558 L185.361414,15.9197744 L181.325415,10.9715022 L176.443006,5.6056722 C176.280335,5.46479912 176.085259,5.408 175.824726,5.408 L173.31855,5.408 C173.025936,5.408 172.863265,5.54915426 172.863265,5.80362558 L172.863265,20.4043744 C172.863265,20.6588457 173.025936,20.8 173.31855,20.8 L176.085259,20.8 C176.378197,20.8 176.540868,20.6588457 176.540868,20.4043744 L176.540868,10.2896316 L180.967343,15.7161973 L185.425899,20.6020466 C185.524085,20.7432009 185.686432,20.8 185.914561,20.8 L188.583084,20.8 C188.876346,20.8 189.039017,20.6588457 189.039017,20.4043744 L189.039017,5.80362558 C189.039017,5.54915426 188.876346,5.408 188.583084,5.408" id="Fill-12" fill="#FFFFFF"></path>
            </g>
        </g>
    </g>
</svg>