<?xml version="1.0" encoding="UTF-8"?>
<svg width="30px" height="26px" viewBox="0 0 30 26" version="1.1" xmlns="http://www.w3.org/2000/svg" xmlns:xlink="http://www.w3.org/1999/xlink">
    <!-- Generator: Sketch 49.3 (51167) - http://www.bohemiancoding.com/sketch -->
    <title>Group 13</title>
    <desc>Created with Sketch.</desc>
    <defs></defs>
    <g id="Page-1" stroke="none" stroke-width="1" fill="none" fill-rule="evenodd">
        <g id="Login" transform="translate(-334.000000, -310.000000)">
            <g id="Group-13" transform="translate(334.000000, 310.000000)">
                <path d="M22.6257717,15.7073701 C22.627063,15.7073701 22.6283542,15.7079318 22.6296454,15.7079318 C23.1945634,15.7079318 23.6500487,15.313066 23.6600558,14.8235559 L23.6600558,14.7932248 L23.659733,14.7921015 L23.6600558,14.7921015 L23.6600558,6.27889539 C23.6442381,5.80089992 23.2036021,5.41839121 22.6532106,5.408 L1.01104176,5.408 C0.453225617,5.41839121 0.00419653349,5.8104486 0,6.2977119 L0,6.31006901 C0.000645620537,6.31175407 0.000968430805,6.31371997 0.00129124107,6.31540504 L0.000645620537,6.31624757 L0,10.5530511 L0,25.0875398 L0.00129124107,25.088944 C0.000968430805,25.0906291 0.000645620537,25.092595 0,25.09428 L0,25.1066371 C0.00419653349,25.6003598 0.464201166,26 1.03267005,26 C1.03396129,26 1.03525253,25.9994383 1.03654377,25.9994383 L1.03686658,26 L10.8038141,26 L10.8041369,25.9994383 C10.8054281,25.9994383 10.8067194,26 10.8080106,26 C11.3722829,26 11.8271226,25.6059767 11.8380982,25.11759 L11.8380982,15.7096169 L22.6244805,15.7096169 L22.6257717,15.7073701" id="Fill-3" fill="#83C8B6"></path>
                <path d="M28.9029294,10.2990893 C28.9042206,10.2990893 28.9055119,10.299651 28.9068031,10.299651 C29.4717211,10.299651 29.9272064,9.90478514 29.9372135,9.41555593 L29.9372135,9.384944 L29.9368907,9.38410147 L29.9372135,9.38410147 L29.9372135,0.870895393 C29.9213958,0.392899921 29.4807598,0.0101103625 28.9303682,0 L7.28819942,0 C6.73038328,0.0103912059 6.2813542,0.402448597 6.27715766,0.889431058 L6.27715766,0.901788167 C6.27780328,0.903754071 6.27780328,0.905439132 6.27844891,0.907405035 C6.27812609,0.907966722 6.27780328,0.908247566 6.27780328,0.908247566 L6.27715766,5.14505114 L6.27715766,19.6795398 L6.27812609,19.6801015 C6.27780328,19.6826291 6.27780328,19.6843141 6.27715766,19.68628 L6.27715766,19.6986371 C6.2813542,20.1923598 6.74103602,20.592 7.30982771,20.592 C7.31111895,20.592 7.31208738,20.5911575 7.31370144,20.5911575 L7.31402425,20.592 L17.0809717,20.592 L17.0812945,20.5911575 C17.0825858,20.5911575 17.083877,20.592 17.0851683,20.592 C17.6494406,20.592 18.1042803,20.1979767 18.1152558,19.7093092 L18.1152558,10.3016169 L28.9016381,10.3016169 L28.9029294,10.2990893" id="Fill-4" fill="#00A3DA"></path>
                <path d="M23.12945,5.408 L6.27715766,5.408 L6.27715766,19.8907856 L6.27813246,19.8913453 C6.27780753,19.8938639 6.27780753,19.8958228 6.27715766,19.8975019 L6.27715766,19.9098151 C6.28138178,20.4017815 6.74408548,20.8 7.31629138,20.8 C7.31791604,20.8 7.31889084,20.7994403 7.3205155,20.7994403 L7.32084043,20.8 L12.2432409,20.8 L12.2432409,15.6729713 L18.1930775,15.6729713 L18.1930775,10.5462225 L24.1429141,10.5462225 L24.1429141,6.27579739 C24.1269924,5.79950227 23.6834597,5.41835424 23.12945,5.408" id="Fill-5" fill="#FFFFFF"></path>
            </g>
        </g>
    </g>
</svg>