<svg width="18" height="18" viewBox="0 0 18 18" fill="none" xmlns="http://www.w3.org/2000/svg">
<g clip-path="url(#clip0)">
<path d="M0.362172 1.78965L5.16161 3.20352C5.31058 3.24718 5.44897 3.32118 5.568 3.42072L7.02732 4.63647L8.25556 3.31885L6.23869 1.68009C6.18789 1.63876 6.12927 1.60787 6.06652 1.58947L0.871538 0.0597259C0.745775 0.0226561 0.610402 0.0370722 0.495211 0.0998162C0.38002 0.16256 0.294485 0.268415 0.257415 0.394315L0.0279946 1.17621C-0.0488909 1.43776 0.100624 1.71235 0.362172 1.78965Z" fill="black"/>
<path d="M7.62336 5.13198C7.68034 5.17948 7.71919 5.24525 7.73319 5.31801L9.9663 16.9248C10.0415 17.3165 10.2911 17.6525 10.6445 17.8376C10.9978 18.0226 11.4161 18.0365 11.7809 17.8755L15.1201 16.4001C15.1995 16.3651 15.2898 16.3636 15.3703 16.3961C15.4507 16.4286 15.5147 16.4922 15.5475 16.5727C15.5905 16.678 15.6737 16.762 15.7786 16.8059C15.8836 16.85 16.0017 16.8504 16.107 16.8073L17.7339 16.1398C17.9531 16.0501 18.058 15.7997 17.9682 15.5807L14.9312 8.17005C14.8852 8.05788 14.9063 7.92937 14.9858 7.8378L15.3347 7.43483C15.5129 7.22848 15.4905 6.91682 15.2846 6.73806L11.8957 3.80186C11.7963 3.71619 11.667 3.67349 11.5361 3.68324C11.4053 3.69298 11.2837 3.75422 11.198 3.85362L10.4435 4.72641C10.3288 4.85958 10.1283 4.87592 9.99363 4.76306L8.75261 3.72896L7.52148 5.04905L7.62336 5.13198ZM11.7366 16.8442C11.5289 16.9357 11.2904 16.9252 11.0914 16.816C10.8925 16.7067 10.7558 16.511 10.7214 16.2867L9.96946 11.3186C9.91194 10.9419 9.99651 10.5572 10.207 10.2395L11.0448 10.9015C11.3732 11.1577 11.6182 11.5058 11.7488 11.9015L13.1949 16.2002L11.7366 16.8442ZM11.2224 9.56731L11.7045 9.48081C12.4571 9.35011 13.193 9.78616 13.4397 10.5092L14.9823 15.0919C15.0355 15.2496 14.9596 15.4216 14.8075 15.4887L13.7871 15.9396L12.3591 11.6994C12.1891 11.1837 11.8696 10.7303 11.4413 10.3967L10.6668 9.78314C10.8369 9.67577 11.0262 9.60246 11.2243 9.56731H11.2224ZM9.47081 7.31456L9.92608 9.24274C9.9663 9.41518 9.85921 9.58777 9.68677 9.62827C9.66247 9.63417 9.63776 9.63705 9.61277 9.63692C9.4638 9.63692 9.33433 9.53449 9.30015 9.38951L8.84474 7.46147C8.81838 7.34957 8.85366 7.23219 8.93728 7.15338C9.02089 7.07471 9.1402 7.04643 9.25031 7.07951C9.36028 7.1126 9.44431 7.20184 9.47081 7.3136V7.31456ZM8.57097 5.38996C8.74286 5.34616 8.91778 5.44982 8.96171 5.62171L9.12249 6.25121C9.16628 6.42324 9.06235 6.59816 8.89046 6.64195C8.86437 6.64882 8.8376 6.65211 8.81069 6.65198C8.66406 6.65184 8.53596 6.55244 8.49971 6.41034L8.33963 5.7818C8.31821 5.69901 8.3307 5.61128 8.37423 5.53769C8.41789 5.46423 8.48887 5.4111 8.57166 5.38996H8.57097Z" fill="black"/>
<path d="M1.60771 9.79863C2.03813 9.81346 2.45551 9.64898 2.76016 9.34432C3.06482 9.0398 3.2293 8.62242 3.21434 8.19186C3.21434 7.44827 2.17419 5.79304 1.60771 5.13896C1.0415 5.79263 0.000938218 7.44786 0.000938218 8.19186C-0.014027 8.62242 0.15059 9.0398 0.455112 9.34432C0.75977 9.64898 1.17715 9.81346 1.60771 9.79863Z" fill="black"/>
</g>
<defs>
<clipPath id="clip0">
<rect width="18" height="18" fill="white"/>
</clipPath>
</defs>
</svg>
