<svg width="14" height="14" viewBox="0 0 14 14" fill="none" xmlns="http://www.w3.org/2000/svg">
<g clip-path="url(#clip0)">
<path d="M12.3548 6.55015V12.5016L10.4844 12.1554L9.65985 11.1663L6.18555 7.30388L9.13528 5.20801C10.6129 7.15833 10.6595 6.68288 10.6595 6.68288C10.6595 6.68288 11.3893 5.59323 12.3257 6.52956L12.3548 6.55015Z" fill="#CCCCCC"/>
<path d="M5.21522 6.10059L11.3487 13.9946C11.313 13.9981 11.2769 14.0001 11.2404 14.0001H1.21289L5.21522 6.10059Z" fill="#518EF8"/>
<path d="M9.13417 5.208L0.0117188 12.8858V2.77252C0.0117188 2.15695 0.510852 1.6582 1.12603 1.6582H7.77846C7.4928 2.14919 8.55199 2.46432 8.55199 3.0733C8.55199 3.68618 8.84503 4.71469 9.13417 5.208Z" fill="#28B446"/>
<path d="M12.3534 12.5019V12.8861C12.3534 13.4648 11.9121 13.9406 11.3474 13.995L6.21484 8.92997L7.45724 7.6709L10.3247 10.5003L10.483 10.6567L12.3534 12.5019Z" fill="#F2F2F2"/>
<path d="M8.81824 6.29116L7.45748 7.67016L6.21509 8.92923L1.21181 13.9997H1.12603C0.510852 13.9997 0.0117188 13.5006 0.0117188 12.8854L7.78429 5.00879C7.92984 5.25797 8.93081 5.00567 9.1342 5.2075L9.50798 5.68798C9.69039 5.88248 8.66145 6.08468 8.81824 6.29116Z" fill="#FFD837"/>
<path d="M2.92216 6.22811C1.94304 6.22811 1.14648 5.43156 1.14648 4.45243C1.14648 3.47331 1.94304 2.67676 2.92216 2.67676C3.39614 2.67676 3.84192 2.86155 4.17751 3.19711L3.7658 3.60874C3.54027 3.38316 3.24063 3.25893 2.92216 3.25893C2.26405 3.25893 1.72869 3.79432 1.72869 4.45241C1.72869 5.11049 2.26408 5.64588 2.92216 5.64588C3.47986 5.64588 3.94949 5.26137 4.07973 4.74348H2.92216V4.1613H4.69784V4.45241C4.69781 5.43156 3.90129 6.22811 2.92216 6.22811Z" fill="white"/>
<path d="M7.77915 1.65807C8.3555 0.666805 9.42945 0 10.659 0C12.4976 0 13.988 1.4904 13.988 3.32894C13.988 3.79004 13.894 4.22898 13.7248 4.62837C13.5552 5.02775 13.3099 5.38716 13.0072 5.68832C12.7549 5.95651 12.5286 6.23984 12.3252 6.52939C10.9928 8.4277 10.659 10.595 10.659 10.595C10.659 10.595 10.2965 8.24179 8.81892 6.29147C8.66213 6.085 8.4929 5.88276 8.31049 5.68832H8.31087C8.10749 5.4865 7.93052 5.25829 7.78497 5.0091C7.49581 4.51579 7.33008 3.94177 7.33008 3.32891C7.33008 2.71996 7.49348 2.14903 7.77915 1.65807Z" fill="#F14336"/>
<path d="M10.6585 1.55664C11.6369 1.55664 12.4299 2.35007 12.4299 3.32846C12.4299 4.30685 11.6369 5.09982 10.6585 5.09982C9.68015 5.09982 8.88672 4.30685 8.88672 3.32846C8.88672 2.35007 9.68018 1.55664 10.6585 1.55664Z" fill="#7E2D25"/>
</g>
<defs>
<clipPath id="clip0">
<rect width="14" height="14" fill="white"/>
</clipPath>
</defs>
</svg>
