<svg width="24" height="24" viewBox="0 0 24 24" fill="none" xmlns="http://www.w3.org/2000/svg">
<path d="M16.5 18.0659V2.49998C16.5 1.12158 15.3784 0 14 0C12.6216 0 11.5 1.12158 11.5 2.49998V18.0659C10.8618 18.7202 10.5 19.5952 10.5 20.5C10.5 22.4297 12.0703 24 14 24C15.9297 24 17.5 22.4297 17.5 20.5C17.5 19.5952 17.1382 18.7202 16.5 18.0659ZM14 22C13.1729 22 12.5 21.3271 12.5 20.5C12.5 19.849 12.9193 19.2992 13.5 19.0921V10.5C13.5 10.2236 13.7236 9.99998 14 9.99998C14.2764 9.99998 14.5 10.2236 14.5 10.5V19.0921C15.0808 19.2992 15.5 19.849 15.5 20.5C15.5 21.3271 14.8272 22 14 22Z" fill="#68B50E"/>
<path d="M10 16H7.00002C6.72364 16 6.5 16.2236 6.5 16.5C6.5 16.7764 6.72364 17 7.00002 17H10C10.2764 17 10.5 16.7764 10.5 16.5C10.5 16.2236 10.2764 16 10 16Z" fill="#68B50E"/>
<path d="M10 14H9.00002C8.72364 14 8.5 14.2237 8.5 14.5C8.5 14.7764 8.72364 15 9.00002 15H10C10.2764 15 10.5 14.7764 10.5 14.5C10.5 14.2237 10.2764 14 10 14Z" fill="#68B50E"/>
<path d="M10 12H9.00002C8.72364 12 8.5 12.2236 8.5 12.5C8.5 12.7764 8.72364 13 9.00002 13H10C10.2764 13 10.5 12.7764 10.5 12.5C10.5 12.2236 10.2764 12 10 12Z" fill="#68B50E"/>
<path d="M7.00002 11H10C10.2764 11 10.5 10.7764 10.5 10.5C10.5 10.2236 10.2764 9.99997 10 9.99997H7.00002C6.72364 9.99997 6.5 10.2236 6.5 10.5C6.5 10.7764 6.72369 11 7.00002 11Z" fill="#68B50E"/>
<path d="M7.00002 5.00002H10C10.2764 5.00002 10.5 4.77638 10.5 4.5C10.5 4.22363 10.2764 3.99998 10 3.99998H7.00002C6.72364 3.99998 6.5 4.22363 6.5 4.5C6.5 4.77638 6.72369 5.00002 7.00002 5.00002Z" fill="#68B50E"/>
<path d="M10 8.00003H9.00002C8.72364 8.00003 8.5 8.22367 8.5 8.50005C8.5 8.77642 8.72364 9.00006 9.00002 9.00006H10C10.2764 9.00006 10.5 8.77642 10.5 8.50005C10.5 8.22367 10.2764 8.00003 10 8.00003Z" fill="#68B50E"/>
<path d="M10 6H9.00002C8.72364 6 8.5 6.22364 8.5 6.50002C8.5 6.77639 8.72364 7.00003 9.00002 7.00003H10C10.2764 7.00003 10.5 6.77639 10.5 6.50002C10.5 6.22364 10.2764 6 10 6Z" fill="#68B50E"/>
</svg>
