<svg version="1.1" xmlns="http://www.w3.org/2000/svg" viewBox="-212.2 -1541.1375 9474.890849487663 2336.775"><desc>Created with Snap</desc><defs></defs><g><g transform="matrix(19.1588,0,0,19.1588,7135.4061,-1329.7314)"><g><path d="M78.4,66.5c-5.5,4.8-9.9,15.2-9.9,15.2s-6.9-11.4-12.9-15.3c-9.5-6.1-13.6-6.2-13.6-6.2V65c0,0,7.8,1.2,11.7,4.6   c8.2,7.1,14.8,18.5,14.8,18.5S74.4,75,80.1,70.5C88.1,64.3,95,65,95,65v-4.8C95,60.1,85.1,60.7,78.4,66.5z" fill="#e8715b" style=""></path><path d="M42,80c-6.4-3.6-17.8-4.3-17.8-4.3s8.7-10.1,10.5-17C37.5,47.9,36.2,44,36.2,44l-4.6,1.6c0,0,1.3,7.7-0.6,12.4   c-4.1,9.9-13,19.8-13,19.8s14.6,1.3,20.7,5.1c8.6,5.4,10.2,12,10.2,12l4.6-1.6C53.5,93.4,49.7,84.4,42,80z" fill="#e8715b" style=""></path><path d="M35.3,36.8c11.3-0.9,14.6-3.4,14.6-3.4l-3-3.8c0,0-6.9,3.7-12.1,3.4c-10.9-0.6-23.3-5.6-23.3-5.6s3.5,14,1.8,20.9   C10.9,58.2,5,61.8,5,61.8l3,3.8c0,0,7.5-6.5,9.1-15.1c1.3-7.1-1.7-18-1.7-18S28,37.4,35.3,36.8z" fill="#e8715b" style=""></path><path d="M37.4,17.8c7.3-1.1,16.7-7.4,16.7-7.4s-0.6,13.2,2.4,19.8c4.6,10.2,8,12.5,8,12.5l2.7-4c0,0-5.9-5.2-7.3-10.2   C56.9,18.2,57.7,5,57.7,5s-12.3,7.8-19.5,8.5c-10.2,1-15.6-3.3-15.6-3.3l-2.7,4.1C19.9,14.2,28.6,19.1,37.4,17.8z" fill="#e8715b" style=""></path><path d="M65,60.5c0,0,3.1-7.2,7.4-10.1c9-6.1,21.9-9.7,21.9-9.7s-11.5-8.9-14.5-15.4c-4.2-9.1-1.9-15.6-1.9-15.6l-4.8-1.2   c0,0-1.9,9.6,2.2,17.4c3.4,6.4,12.5,13.2,12.5,13.2S75,42.9,69.6,47.8c-8.3,7.6-9.4,11.5-9.4,11.5L65,60.5z" fill="#e8715b" style=""></path></g><desc>Created with Snap</desc><defs></defs></g><g><g transform="matrix(0.5,0,0,-0.5,0,0)"><path d="M190 0L190 1511L436 1511L436 964Q565 1008 699 1008Q775 1008 845 993Q916 979 985 942Q1054 905 1104 849Q1155 794 1186 705Q1218 617 1218 505Q1218 259 1069 119Q920 -20 665 -20Q514 -20 386 32L372 0L190 0ZM633 790Q534 790 436 757L436 220Q537 191 637 191Q683 191 726 198Q769 205 815 224Q862 244 896 275Q931 306 953 358Q976 411 976 479Q976 554 953 612Q930 670 895 702Q860 735 812 756Q764 777 721 783Q679 790 633 790ZM1944 1007Q2052 1007 2133 987Q2215 968 2265 936Q2315 904 2346 856Q2377 808 2388 758Q2400 709 2400 648L2400 0L2216 0L2188 65Q2055 -20 1885 -20Q1700 -20 1585 67Q1470 154 1470 273Q1470 347 1507 402Q1545 457 1606 490Q1667 523 1759 544Q1851 565 1943 573Q2036 581 2153 582L2153 616Q2153 654 2146 679Q2140 704 2118 732Q2096 760 2044 774Q1993 789 1913 789Q1801 789 1616 745L1576 734L1525 931L1560 943Q1745 1007 1944 1007ZM2153 255L2153 396L2129 396Q1927 396 1828 372Q1730 348 1730 291Q1730 255 1790 223Q1850 191 1937 191Q2060 191 2153 255ZM2780 0L2780 1511L3026 1511L3026 0L2780 0ZM3922 778Q3807 778 3662 723L3662 0L3416 0L3416 1511L3662 1511L3662 937Q3842 1006 3997 1006Q4075 1006 4137 988Q4199 971 4239 945Q4279 919 4308 878Q4337 838 4352 801Q4367 765 4375 716Q4384 667 4385 635Q4387 604 4387 562L4387 0L4143 0L4143 577Q4143 778 3922 778ZM4911 988L4940 935Q5096 1007 5273 1007Q5386 1007 5479 964L5514 948L5436 743L5397 758Q5327 785 5245 785Q5114 785 4993 738L4993 0L4747 0L4747 988L4911 988ZM6111 1007Q6219 1007 6300 987Q6382 968 6432 936Q6482 904 6513 856Q6544 808 6555 758Q6567 709 6567 648L6567 0L6383 0L6355 65Q6222 -20 6052 -20Q5867 -20 5752 67Q5637 154 5637 273Q5637 347 5674 402Q5712 457 5773 490Q5834 523 5926 544Q6018 565 6110 573Q6203 581 6320 582L6320 616Q6320 654 6313 679Q6307 704 6285 732Q6263 760 6211 774Q6160 789 6080 789Q5968 789 5783 745L5743 734L5692 931L5727 943Q5912 1007 6111 1007ZM6320 255L6320 396L6296 396Q6094 396 5995 372Q5897 348 5897 291Q5897 255 5957 223Q6017 191 6104 191Q6227 191 6320 255ZM7916 0L7447 1421L7713 1421L8040 329L8451 1421L8683 1421L9021 329L9421 1421L9687 1421L9142 0L8901 0L8559 1087L8157 0L7916 0ZM10412 1007Q10660 1007 10811 876Q10963 746 10963 512Q10963 266 10808 123Q10654 -20 10393 -20Q10145 -20 9996 114Q9848 249 9848 484Q9848 725 9999 866Q10151 1007 10412 1007ZM10396 785Q10319 785 10251 756Q10183 727 10136 662Q10090 597 10090 509Q10090 379 10180 290Q10270 202 10414 202Q10545 202 10633 279Q10721 356 10721 483Q10721 556 10692 615Q10663 675 10616 711Q10569 747 10512 766Q10455 785 10396 785ZM11437 988L11466 935Q11622 1007 11799 1007Q11912 1007 12005 964L12040 948L11962 743L11923 758Q11853 785 11771 785Q11640 785 11519 738L11519 0L11273 0L11273 988L11437 988ZM12240 0L12240 1511L12486 1511L12486 0L12240 0ZM12816 478Q12816 732 12966 870Q13117 1008 13369 1008Q13486 1008 13602 974L13602 1511L13848 1511L13848 0L13666 0L13646 46Q13501 -20 13336 -20Q13258 -20 13186 -5Q13114 11 13045 48Q12977 85 12927 140Q12877 196 12846 283Q12816 370 12816 478ZM13399 197Q13503 197 13602 232L13602 767Q13496 797 13397 797Q13352 797 13310 790Q13268 784 13220 764Q13173 745 13138 714Q13104 683 13081 628Q13058 573 13058 502Q13058 430 13080 374Q13103 318 13138 285Q13173 253 13220 232Q13268 211 13311 204Q13354 197 13399 197Z" fill="#072a55" style=""></path></g></g></g></svg>