<svg version="1.1" xmlns="http://www.w3.org/2000/svg" viewBox="-318.46400089263915 -1044.480029296875 5850.11240234375 3607.2961364746093"><desc>Created with Snap</desc><defs></defs><g><g transform="matrix(24.4722,0,0,24.4722,1370.7376,90.079)"><g><path d="M74.265,60.41c0.964,2.929,1.401,5.966,1.261,9.015c2.584-0.989,5.013-2.49,7.095-4.572c0.244-0.244,0.41-0.527,0.637-0.78   c0.018-0.341,0.105-0.659,0.105-1.004c0-2.924-0.646-5.691-1.764-8.203C79.522,57.139,77.045,59.022,74.265,60.41z" fill="#165a3f" style=""></path><path d="M54.863,81.605c2.509,1.112,5.276,1.759,8.2,1.759c0.349,0,0.664-0.085,1.004-0.103c0.253-0.227,0.541-0.393,0.781-0.637   c2.08-2.085,3.585-4.516,4.572-7.104c-3.049,0.14-6.086-0.292-9.01-1.257C59.022,77.049,57.137,79.528,54.863,81.605z" fill="#165a3f" style=""></path><path d="M40.588,74.265c-2.925,0.965-5.965,1.396-9.013,1.257c0.988,2.588,2.49,5.023,4.573,7.104   c0.242,0.244,0.528,0.41,0.779,0.637c0.339,0.018,0.661,0.103,1.003,0.103c2.926,0,5.691-0.646,8.202-1.759   C43.861,79.528,41.976,77.049,40.588,74.265z" fill="#165a3f" style=""></path><path d="M26.731,60.41c-2.781-1.388-5.26-3.271-7.337-5.545c-1.112,2.512-1.758,5.279-1.758,8.203c0,0.345,0.085,0.663,0.1,1.004   c0.229,0.253,0.395,0.536,0.639,0.78c2.082,2.082,4.515,3.583,7.098,4.572C25.333,66.376,25.767,63.339,26.731,60.41z" fill="#165a3f" style=""></path><path d="M26.731,40.592c-0.964-2.929-1.398-5.966-1.259-9.016c-2.583,0.989-5.014,2.491-7.098,4.572   c-0.244,0.245-0.41,0.528-0.639,0.781c-0.015,0.341-0.1,0.659-0.1,1.004c0,2.924,0.646,5.69,1.76,8.205   C21.471,43.863,23.95,41.979,26.731,40.592z" fill="#165a3f" style=""></path><path d="M46.132,19.397c-2.511-1.114-5.275-1.76-8.202-1.76c-0.342,0-0.664,0.084-1.003,0.102   c-0.251,0.228-0.537,0.393-0.779,0.638c-2.083,2.08-3.585,4.515-4.573,7.103c3.048-0.14,6.088,0.293,9.013,1.257   C41.976,23.952,43.861,21.475,46.132,19.397z" fill="#165a3f" style=""></path><path d="M60.41,26.736c2.924-0.964,5.961-1.396,9.01-1.257c-0.99-2.588-2.492-5.017-4.572-7.103   c-0.24-0.245-0.528-0.41-0.781-0.638c-0.34-0.018-0.659-0.102-1.004-0.102c-2.924,0-5.691,0.646-8.2,1.76   C57.137,21.475,59.022,23.952,60.41,26.736z" fill="#165a3f" style=""></path><path d="M82.621,36.148c-2.082-2.081-4.511-3.583-7.095-4.572c0.14,3.05-0.297,6.087-1.261,9.016   c2.78,1.388,5.257,3.271,7.334,5.547c1.117-2.515,1.764-5.281,1.764-8.205c0-0.345-0.088-0.663-0.105-1.004   C83.031,36.677,82.865,36.394,82.621,36.148z" fill="#165a3f" style=""></path><path d="M58.228,63.068c0-0.166-0.048-0.319-0.052-0.484c-1.061-0.21-2.09-0.498-3.099-0.834c-0.462,0.921-0.89,1.851-1.469,2.719   c0.113,0.122,0.19,0.267,0.309,0.384c1.143,1.14,2.404,2.069,3.718,2.881C57.993,66.228,58.228,64.683,58.228,63.068z" fill="#165a3f" style=""></path><path d="M43.362,67.733c1.313-0.812,2.574-1.741,3.715-2.881c0.12-0.117,0.199-0.262,0.312-0.384   c-0.581-0.868-1.008-1.798-1.471-2.719c-1.008,0.336-2.038,0.624-3.1,0.834c-0.002,0.165-0.048,0.318-0.048,0.484   C42.771,64.683,43.006,66.228,43.362,67.733z" fill="#165a3f" style=""></path><path d="M36.148,53.922c-1.139,1.14-2.068,2.4-2.88,3.717c1.503,0.355,3.051,0.59,4.663,0.59c0.166,0,0.318-0.044,0.484-0.048   c0.209-1.06,0.495-2.094,0.833-3.102c-0.918-0.463-1.848-0.886-2.716-1.471C36.411,53.726,36.269,53.805,36.148,53.922z" fill="#165a3f" style=""></path><path d="M38.415,42.821c-0.166-0.006-0.319-0.05-0.484-0.05c-1.612,0-3.159,0.236-4.663,0.591c0.812,1.318,1.739,2.578,2.88,3.717   c0.12,0.118,0.262,0.196,0.384,0.314c0.868-0.583,1.797-1.008,2.716-1.471C38.91,44.916,38.625,43.881,38.415,42.821z" fill="#165a3f" style=""></path><path d="M42.771,37.934c0,0.166,0.046,0.318,0.048,0.484c1.062,0.21,2.092,0.498,3.1,0.834c0.462-0.921,0.89-1.851,1.471-2.719   c-0.113-0.123-0.192-0.267-0.312-0.385c-1.141-1.139-2.402-2.066-3.715-2.879C43.006,34.774,42.771,36.319,42.771,37.934z" fill="#165a3f" style=""></path><path d="M57.635,33.27c-1.314,0.812-2.575,1.74-3.718,2.879c-0.118,0.118-0.195,0.262-0.309,0.385   c0.579,0.868,1.007,1.798,1.469,2.719c1.008-0.336,2.038-0.624,3.099-0.834c0.004-0.166,0.052-0.318,0.052-0.484   C58.228,36.319,57.993,34.774,57.635,33.27z" fill="#165a3f" style=""></path><path d="M63.063,42.771c-0.166,0-0.314,0.044-0.48,0.05c-0.209,1.06-0.498,2.095-0.838,3.102c0.921,0.463,1.851,0.888,2.719,1.471   c0.122-0.118,0.266-0.196,0.384-0.314c1.139-1.139,2.067-2.398,2.883-3.717C66.226,43.008,64.678,42.771,63.063,42.771z" fill="#165a3f" style=""></path><path d="M48.074,49.493c-0.035,0.676-0.035,1.339,0,2.012c0.452,0.502,0.921,0.969,1.42,1.423c0.671,0.034,1.335,0.034,2.007,0   c0.5-0.454,0.972-0.926,1.423-1.423c0.035-0.673,0.033-1.336,0-2.008c-0.451-0.502-0.921-0.969-1.42-1.423   c-0.673-0.035-1.34-0.035-2.012,0C48.995,48.528,48.524,48.995,48.074,49.493z" fill="#165a3f" style=""></path><path d="M64.464,53.608c-0.868,0.585-1.798,1.008-2.719,1.471c0.34,1.008,0.628,2.042,0.838,3.102   c0.166,0.004,0.314,0.048,0.48,0.048c1.615,0,3.163-0.234,4.668-0.59c-0.816-1.316-1.745-2.577-2.883-3.717   C64.73,53.805,64.586,53.726,64.464,53.608z" fill="#165a3f" style=""></path><path d="M72.271,55.926c2.583-1.327,4.827-3.173,6.615-5.425c-1.788-2.252-4.031-4.098-6.615-5.425   c-1.091,1.929-2.357,3.784-3.998,5.425C69.914,52.142,71.179,53.996,72.271,55.926z" fill="#165a3f" style=""></path><path d="M62.138,31.245c0.585,2.133,0.925,4.367,0.925,6.688c2.322,0,4.555,0.341,6.689,0.93c0.868-2.745,1.143-5.603,0.82-8.436   C67.74,30.104,64.879,30.375,62.138,31.245z" fill="#165a3f" style=""></path><path d="M50.498,22.11c-2.253,1.794-4.099,4.033-5.424,6.616c1.927,1.096,3.782,2.361,5.424,4.002   c1.644-1.641,3.498-2.906,5.426-4.002C54.597,26.144,52.752,23.904,50.498,22.11z" fill="#165a3f" style=""></path><path d="M37.931,37.934c0-2.321,0.34-4.556,0.927-6.688c-2.74-0.87-5.601-1.141-8.432-0.817c-0.323,2.833-0.05,5.69,0.817,8.436   C33.377,38.274,35.612,37.934,37.931,37.934z" fill="#165a3f" style=""></path><path d="M22.108,50.501c1.794,2.252,4.034,4.098,6.618,5.425c1.091-1.93,2.356-3.784,3.999-5.425   c-1.643-1.641-2.908-3.496-4.001-5.425C26.143,46.403,23.902,48.249,22.108,50.501z" fill="#165a3f" style=""></path><path d="M38.858,69.757c-0.587-2.133-0.927-4.367-0.927-6.688c-2.319,0-4.553-0.341-6.688-0.93   c-0.868,2.745-1.14,5.604-0.817,8.436C33.257,70.896,36.118,70.627,38.858,69.757z" fill="#165a3f" style=""></path><path d="M50.498,78.891c2.255-1.793,4.1-4.032,5.426-6.616c-1.929-1.095-3.782-2.36-5.426-4c-1.642,1.64-3.497,2.905-5.424,4   C46.401,74.858,48.245,77.098,50.498,78.891z" fill="#165a3f" style=""></path><path d="M63.063,63.068c0,2.321-0.34,4.556-0.925,6.688c2.741,0.87,5.602,1.139,8.435,0.817c0.323-2.832,0.048-5.695-0.82-8.436   C67.618,62.728,65.385,63.068,63.063,63.068z" fill="#165a3f" style=""></path><path d="M87.425,44.026c-0.571,2.304-1.457,4.476-2.614,6.475c1.157,1.999,2.043,4.177,2.614,6.475   C88.844,52.771,88.844,48.231,87.425,44.026z" fill="#165a3f" style=""></path><path d="M81.233,29.05c-1.981-4.041-5.244-7.301-9.286-9.282c1.249,2.063,2.147,4.268,2.745,6.541   C76.966,26.907,79.165,27.802,81.233,29.05z" fill="#165a3f" style=""></path><path d="M56.971,13.576c-4.204-1.418-8.742-1.418-12.947,0c2.3,0.571,4.473,1.453,6.473,2.614   C52.5,15.029,54.671,14.147,56.971,13.576z" fill="#165a3f" style=""></path><path d="M29.047,19.768c-4.042,1.981-7.301,5.241-9.284,9.282c2.066-1.248,4.268-2.143,6.541-2.741   C26.904,24.035,27.798,21.831,29.047,19.768z" fill="#165a3f" style=""></path><path d="M13.571,56.973c0.574-2.3,1.458-4.473,2.616-6.472c-1.159-1.999-2.04-4.171-2.616-6.472   C12.158,48.231,12.158,52.771,13.571,56.973z" fill="#165a3f" style=""></path><path d="M19.765,71.952c1.981,4.041,5.24,7.297,9.279,9.282c-1.248-2.068-2.141-4.269-2.741-6.542   C24.031,74.095,21.829,73.2,19.765,71.952z" fill="#165a3f" style=""></path><path d="M44.024,87.426c4.205,1.418,8.746,1.418,12.947,0c-2.3-0.572-4.472-1.453-6.474-2.614   C48.498,85.973,46.324,86.854,44.024,87.426z" fill="#165a3f" style=""></path><path d="M71.952,81.234c4.037-1.985,7.3-5.241,9.281-9.282c-2.068,1.248-4.267,2.143-6.541,2.74   C74.095,76.966,73.2,79.166,71.952,81.234z" fill="#165a3f" style=""></path></g><desc>Created with Snap</desc><defs></defs></g><g><g transform="matrix(1.024,0,0,-1.024,0,0)"><path d="M101 -73Q46 -73 17 -38Q-11 -3 -11 58Q-11 107 6 174Q23 242 51 315Q79 389 113 460Q148 531 184 588Q220 646 251 680Q283 714 305 714Q324 714 333 691Q342 669 343 647Q343 619 331 579Q319 539 297 494Q275 449 246 405Q217 361 183 324Q149 288 112 267Q106 255 95 222Q84 189 75 147Q66 105 66 64Q66 23 78 -5Q90 -32 119 -32Q146 -32 176 -9Q207 15 226 50Q189 70 170 106Q152 142 152 181Q152 230 178 259Q204 289 240 289Q271 289 291 265Q311 241 311 192Q311 162 303 128Q295 95 279 63Q284 62 288 61Q293 61 300 61Q335 61 359 79Q384 98 401 124Q418 150 428 171L442 153Q416 91 379 62Q342 34 290 34Q284 34 277 34Q271 35 265 36Q238 -9 197 -41Q156 -73 101 -73ZM241 79Q250 100 255 122Q260 144 260 169Q260 205 251 223Q243 241 230 241Q216 241 206 222Q196 203 196 176Q196 153 205 124Q215 96 241 79ZM129 322Q155 345 179 376Q204 408 225 443Q246 479 262 513Q279 547 289 574Q299 602 300 618Q300 621 300 622Q300 624 299 624Q290 622 269 595Q248 569 222 525Q196 482 171 429Q146 376 129 322ZM457 -47Q425 -47 401 -26Q378 -4 378 39Q378 75 394 116Q410 157 438 197Q466 237 502 270Q538 303 578 323Q619 343 659 343Q701 343 729 321Q758 300 758 265Q758 238 741 227Q724 216 699 220Q701 228 702 237Q704 247 704 256Q704 277 695 293Q686 309 660 309Q632 309 603 290Q574 271 547 240Q520 209 499 172Q478 135 466 99Q454 63 454 35Q454 1 479 1Q502 1 529 23Q557 45 585 79Q614 113 640 148Q666 184 685 211Q689 216 692 216Q697 215 708 211Q719 208 728 202Q737 196 737 186Q737 176 728 160Q719 145 708 126Q697 107 688 88Q679 69 679 51Q679 38 686 25Q694 13 711 13Q736 13 779 49Q823 86 868 169L884 153Q861 99 827 58Q794 17 757 -7Q720 -30 683 -30Q643 -30 624 -6Q605 19 603 48Q603 51 603 54Q604 58 604 61Q563 10 529 -19Q495 -47 457 -47ZM930 -30Q884 -30 865 1Q847 32 847 75Q847 124 865 190Q883 256 912 328Q942 401 977 470Q1013 540 1048 596Q1084 653 1114 686Q1145 720 1163 720Q1175 720 1183 707Q1192 694 1197 675Q1202 657 1202 642Q1202 615 1188 571Q1175 528 1150 475Q1126 423 1092 368Q1059 314 1019 264Q979 215 933 179Q929 154 925 129Q922 104 922 83Q922 46 933 28Q945 11 965 11Q991 11 1017 35Q1044 59 1068 95Q1092 132 1110 171L1131 159Q1089 72 1038 21Q987 -30 930 -30ZM948 232Q983 268 1014 312Q1045 357 1071 403Q1098 449 1118 492Q1138 536 1149 570Q1160 605 1161 625Q1161 629 1160 630Q1159 632 1159 632Q1151 632 1132 608Q1114 585 1089 545Q1065 505 1039 453Q1013 401 989 344Q965 287 948 232ZM1133 -38Q1112 -38 1102 -5Q1092 29 1092 72Q1092 119 1108 184Q1124 249 1150 321Q1176 394 1208 463Q1241 533 1275 589Q1310 646 1341 680Q1372 714 1395 714Q1415 714 1425 691Q1435 669 1435 646Q1435 618 1422 578Q1410 539 1388 494Q1366 449 1336 405Q1307 361 1273 325Q1239 289 1202 267Q1190 235 1182 203Q1174 172 1170 143Q1167 114 1167 88Q1167 81 1167 75Q1168 69 1169 63Q1176 81 1187 110Q1199 140 1215 173Q1232 206 1254 236Q1277 266 1306 284Q1335 303 1370 303Q1402 303 1420 288Q1439 274 1446 252Q1454 230 1454 207Q1454 176 1443 147Q1433 119 1422 93Q1412 68 1412 45Q1412 27 1420 19Q1428 11 1440 11Q1462 11 1491 33Q1521 55 1550 91Q1579 128 1599 172L1614 157Q1592 107 1561 66Q1531 25 1494 0Q1457 -24 1416 -24Q1379 -24 1360 -5Q1341 15 1341 44Q1341 65 1348 90Q1356 116 1363 142Q1370 169 1370 191Q1370 215 1359 225Q1349 235 1334 235Q1309 235 1289 215Q1269 195 1252 164Q1236 133 1222 98Q1208 64 1194 32Q1181 1 1166 -19Q1151 -38 1133 -38ZM1221 323Q1247 346 1272 378Q1297 411 1318 447Q1340 483 1356 517Q1372 551 1381 578Q1391 605 1392 620Q1392 622 1391 623Q1391 624 1390 624Q1384 624 1364 598Q1344 573 1317 530Q1291 487 1265 433Q1239 379 1221 323ZM1756 -26Q1720 -26 1698 -7Q1676 12 1676 44Q1676 72 1690 104Q1704 137 1718 168Q1733 200 1733 225Q1733 251 1716 266Q1700 282 1681 293Q1658 236 1631 184Q1605 132 1588 104L1575 129Q1589 155 1612 203Q1635 252 1656 313Q1646 323 1646 339Q1646 366 1662 388Q1679 410 1692 410Q1703 410 1707 397Q1712 385 1712 380Q1712 375 1707 361Q1702 348 1701 343Q1701 331 1717 320Q1734 310 1754 295Q1775 281 1791 260Q1807 240 1807 208Q1807 178 1794 148Q1781 118 1768 91Q1755 64 1755 45Q1755 29 1763 24Q1771 19 1782 19Q1806 19 1832 34Q1858 49 1882 72Q1907 95 1926 120Q1945 146 1955 167L1975 152Q1956 109 1921 68Q1886 27 1843 0Q1800 -26 1756 -26ZM1986 -47Q1954 -47 1930 -26Q1907 -4 1907 39Q1907 75 1923 116Q1939 157 1967 197Q1995 237 2031 270Q2067 303 2107 323Q2148 343 2188 343Q2230 343 2258 321Q2287 300 2287 265Q2287 238 2270 227Q2253 216 2228 220Q2230 228 2231 237Q2233 247 2233 256Q2233 277 2224 293Q2215 309 2189 309Q2161 309 2132 290Q2103 271 2076 240Q2049 209 2028 172Q2007 135 1995 99Q1983 63 1983 35Q1983 1 2008 1Q2031 1 2058 23Q2086 45 2114 79Q2143 113 2169 148Q2195 184 2214 211Q2218 216 2221 216Q2226 215 2237 211Q2248 208 2257 202Q2266 196 2266 186Q2266 176 2257 160Q2248 145 2237 126Q2226 107 2217 88Q2208 69 2208 51Q2208 38 2215 25Q2223 13 2240 13Q2265 13 2308 49Q2352 86 2397 169L2413 153Q2390 99 2356 58Q2323 17 2286 -7Q2249 -30 2212 -30Q2172 -30 2153 -6Q2134 19 2132 48Q2132 51 2132 54Q2133 58 2133 61Q2092 10 2058 -19Q2024 -47 1986 -47ZM2868 -87Q2858 -87 2842 -84Q2827 -81 2811 -73Q2795 -64 2785 -47Q2775 -29 2775 -1Q2775 27 2787 73Q2799 120 2823 195Q2840 252 2857 310Q2874 368 2885 428Q2897 489 2897 553Q2897 593 2892 622Q2888 652 2875 668Q2862 684 2836 684Q2811 684 2792 670Q2774 656 2761 633Q2749 610 2743 583Q2738 556 2738 530Q2738 490 2751 463Q2705 463 2685 485Q2665 508 2665 541Q2665 571 2680 602Q2695 634 2721 660Q2747 687 2781 703Q2816 720 2855 720Q2921 720 2954 670Q2988 621 2988 533Q2988 462 2969 385Q2950 309 2923 224Q2911 186 2897 145Q2883 105 2873 65Q2863 25 2863 -11Q2863 -30 2868 -39Q2873 -47 2888 -47Q2914 -47 2944 -24Q2975 0 3006 39Q3038 78 3066 126Q3095 175 3119 225Q3144 276 3160 321Q3176 367 3181 401Q3217 401 3235 381Q3254 362 3254 344Q3254 332 3244 305Q3234 278 3215 233Q3199 196 3182 154Q3166 112 3155 70Q3144 29 3144 -7Q3144 -27 3149 -37Q3154 -47 3170 -47Q3198 -47 3235 -19Q3272 9 3311 57Q3350 105 3387 165Q3424 226 3454 291Q3484 356 3502 419Q3520 482 3520 535Q3520 588 3502 611Q3484 634 3456 643Q3473 671 3491 683Q3510 696 3525 696Q3548 696 3571 667Q3594 639 3594 578Q3594 524 3573 454Q3553 385 3517 310Q3482 236 3436 165Q3391 94 3340 37Q3290 -20 3239 -54Q3189 -87 3144 -87Q3120 -87 3099 -78Q3079 -68 3067 -50Q3055 -31 3055 -5Q3055 8 3059 24Q3063 41 3068 59Q3019 -6 2968 -47Q2917 -87 2868 -87ZM3638 -32Q3594 -32 3577 -4Q3560 25 3560 61Q3560 93 3570 126Q3580 159 3597 188Q3614 217 3635 235Q3656 253 3678 253Q3684 253 3692 250Q3701 248 3705 244Q3694 232 3681 210Q3669 188 3658 162Q3648 137 3641 111Q3635 86 3635 65Q3635 42 3643 29Q3651 16 3669 16Q3689 16 3716 37Q3744 59 3769 90Q3738 117 3723 152Q3709 188 3709 233Q3709 258 3720 286Q3731 314 3754 333Q3777 352 3814 352Q3856 352 3872 328Q3889 305 3889 272Q3889 235 3869 188Q3850 142 3823 100Q3837 92 3854 92Q3869 92 3890 99Q3911 106 3930 122Q3950 139 3962 166L3978 154Q3957 105 3920 82Q3884 60 3850 60Q3837 60 3824 62Q3811 65 3800 70Q3766 28 3723 -2Q3681 -32 3638 -32ZM3792 120Q3817 155 3833 195Q3850 236 3850 270Q3850 295 3842 306Q3835 318 3822 318Q3802 318 3782 290Q3762 263 3762 221Q3762 197 3769 167Q3777 138 3792 120ZM4122 -26Q4086 -26 4064 -7Q4042 12 4042 44Q4042 72 4056 104Q4070 137 4084 168Q4099 200 4099 225Q4099 251 4082 266Q4066 282 4047 293Q4024 236 3997 184Q3971 132 3954 104L3941 129Q3955 155 3978 203Q4001 252 4022 313Q4012 323 4012 339Q4012 366 4028 388Q4045 410 4058 410Q4069 410 4073 397Q4078 385 4078 380Q4078 375 4073 361Q4068 348 4067 343Q4067 331 4083 320Q4100 310 4120 295Q4141 281 4157 260Q4173 240 4173 208Q4173 178 4160 148Q4147 118 4134 91Q4121 64 4121 45Q4121 29 4129 24Q4137 19 4148 19Q4172 19 4198 34Q4224 49 4248 72Q4273 95 4292 120Q4311 146 4321 167L4341 152Q4322 109 4287 68Q4252 27 4209 0Q4166 -26 4122 -26ZM4384 -30Q4338 -30 4319 1Q4301 32 4301 75Q4301 124 4319 190Q4337 256 4366 328Q4396 401 4431 470Q4467 540 4502 596Q4538 653 4568 686Q4599 720 4617 720Q4629 720 4637 707Q4646 694 4651 675Q4656 657 4656 642Q4656 615 4642 571Q4629 528 4604 475Q4580 423 4546 368Q4513 314 4473 264Q4433 215 4387 179Q4383 154 4379 129Q4376 104 4376 83Q4376 46 4387 28Q4399 11 4419 11Q4445 11 4471 35Q4498 59 4522 95Q4546 132 4564 171L4585 159Q4543 72 4492 21Q4441 -30 4384 -30ZM4402 232Q4437 268 4468 312Q4499 357 4525 403Q4552 449 4572 492Q4592 536 4603 570Q4614 605 4615 625Q4615 629 4614 630Q4613 632 4613 632Q4605 632 4586 608Q4568 585 4543 545Q4519 505 4493 453Q4467 401 4443 344Q4419 287 4402 232ZM4607 -30Q4588 -30 4569 -21Q4551 -12 4538 8Q4525 28 4525 58Q4525 91 4541 132Q4557 173 4584 214Q4612 255 4648 289Q4684 323 4724 344Q4764 365 4804 365Q4826 365 4838 357Q4851 350 4851 333Q4851 328 4849 323Q4848 318 4843 313Q4838 320 4828 322Q4819 325 4807 325Q4774 325 4744 306Q4714 288 4688 258Q4663 228 4644 193Q4626 159 4616 126Q4606 94 4606 71Q4606 51 4614 39Q4623 27 4639 27Q4666 27 4704 59Q4742 92 4781 152Q4821 213 4853 296Q4875 353 4899 412Q4923 472 4947 527Q4971 583 4994 626Q5017 669 5038 694Q5059 720 5077 720Q5087 720 5094 712Q5102 704 5102 692Q5102 676 5085 638Q5069 600 5043 547Q5017 495 4988 433Q4959 372 4933 308Q4907 244 4890 183Q4874 122 4874 69Q4874 44 4878 33Q4882 23 4895 23Q4917 23 4944 40Q4971 58 4999 91Q5027 125 5050 171L5066 158Q5045 104 5011 62Q4978 21 4939 -3Q4901 -26 4864 -26Q4825 -26 4809 -1Q4794 25 4794 57Q4794 73 4797 93Q4800 114 4805 136Q4774 88 4739 50Q4704 13 4670 -9Q4637 -30 4607 -30Z" fill="#165a3f" style=""></path></g></g></g></svg>