<svg width="24" height="24" viewBox="0 0 24 24" fill="none" xmlns="http://www.w3.org/2000/svg">
<circle cx="12" cy="12" r="12" fill="#3D70B2"/>
<path d="M17.263 5.47339H7.15769C6.46295 5.47339 5.90085 6.04181 5.90085 6.73655L5.89453 18.105L8.42085 15.5786H17.263C17.9577 15.5786 18.5261 15.0102 18.5261 14.3155V6.73655C18.5261 6.04181 17.9577 5.47339 17.263 5.47339ZM15.3682 13.0523H9.05243C8.70506 13.0523 8.42085 12.7681 8.42085 12.4208C8.42085 12.0734 8.70506 11.7892 9.05243 11.7892H15.3682C15.7156 11.7892 15.9998 12.0734 15.9998 12.4208C15.9998 12.7681 15.7156 13.0523 15.3682 13.0523ZM15.3682 11.1576H9.05243C8.70506 11.1576 8.42085 10.8734 8.42085 10.526C8.42085 10.1786 8.70506 9.89444 9.05243 9.89444H15.3682C15.7156 9.89444 15.9998 10.1786 15.9998 10.526C15.9998 10.8734 15.7156 11.1576 15.3682 11.1576ZM15.3682 9.26286H9.05243C8.70506 9.26286 8.42085 8.97865 8.42085 8.63128C8.42085 8.28391 8.70506 7.9997 9.05243 7.9997H15.3682C15.7156 7.9997 15.9998 8.28391 15.9998 8.63128C15.9998 8.97865 15.7156 9.26286 15.3682 9.26286Z" fill="white"/>
</svg>
