<?xml version="1.0" encoding="UTF-8"?>
<svg width="14px" height="17px" viewBox="0 0 14 17" version="1.1" xmlns="http://www.w3.org/2000/svg" xmlns:xlink="http://www.w3.org/1999/xlink">
    <!-- Generator: Sketch 49.2 (51160) - http://www.bohemiancoding.com/sketch -->
    <title>notifications</title>
    <desc>Created with Sketch.</desc>
    <defs></defs>
    <g id="Symbols" stroke="none" stroke-width="1" fill="none" fill-rule="evenodd">
        <g id="molecules/toolbar" transform="translate(-942.000000, -23.000000)" fill="#FFFFFF">
            <path d="M954,34.32 L955.68,36 L955.68,36.82 L942.32,36.82 L942.32,36 L944,34.32 L944,30.18 C944,28.8733268 944.326663,27.7466714 944.98,26.8 C945.64667,25.8266618 946.573327,25.1933348 947.76,24.9 L947.76,24.32 C947.76,23.9733316 947.879999,23.6766679 948.12,23.43 C948.360001,23.1833321 948.653332,23.06 949,23.06 C949.346668,23.06 949.643332,23.1833321 949.89,23.43 C950.136668,23.6766679 950.26,23.9733316 950.26,24.32 L950.26,24.9 C951.433339,25.1933348 952.35333,25.8333284 953.02,26.82 C953.673337,27.7666714 954,28.8866602 954,30.18 L954,34.32 Z M949,39.32 C948.533331,39.32 948.136668,39.1600016 947.81,38.84 C947.483332,38.5199984 947.32,38.1333356 947.32,37.68 L950.68,37.68 C950.68,38.1333356 950.513335,38.5199984 950.18,38.84 C949.846665,39.1600016 949.453336,39.32 949,39.32 Z" id="notifications"></path>
        </g>
    </g>
</svg>