<svg xmlns="http://www.w3.org/2000/svg" xmlns:xlink="http://www.w3.org/1999/xlink" version="1.1" width="21.799999999999955" height="17" style="" xml:space="preserve"><rect id="backgroundrect" width="100%" height="100%" x="0" y="0" fill="none" stroke="none" class="" style=""/>
















<g class="currentLayer" style=""><title>Layer 1</title>
	<path style="" d="M11.782450197388258,-0.8000030517578125 H4.260007463075041 C3.824969425260065,-0.8000030517578125 3.4720140360894334,-0.4315230324616639 3.4720140360894334,0.022650014577790145 v16.783881515394732 h9.09734955343389 V0.022650014577790145 C12.569363589523292,-0.4315230324616639 12.21813625611361,-0.8000030517578125 11.782450197388258,-0.8000030517578125 zM11.436839045201594,5.475207166696363 H4.606266636172094 V0.8044861387514661 h6.830788415999618 V5.475207166696363 zM16.184888255336205,17.13599867084871 c-1.8678122705988902,0 -2.999904800980384,-1.3417724080857574 -3.1072602651283723,-3.6805155415743944 c-0.044713442814151814,-0.9225530960468625 0.17669370155544048,-1.9373389509016379 0.410413243221683,-3.012786449079953 c0.17561366670485698,-0.8079950484321466 0.3590035843339143,-1.6416980051872796 0.4451903654104675,-2.499304806523437 c0.0861867810765535,-0.8600873889813583 -0.04341740099345174,-1.1525712231472778 -0.1285241472194219,-1.2506671891165733 c-0.15768508818517293,-0.18333797777709604 -0.621884066965907,-0.18333797777709604 -1.070530543898242,-0.18333797777709604 h-0.2207591234592422 v-1.1401682849212753 h0.2207591234592422 c0.6555811543041091,0 1.3995091593859388,0 1.8825007445668236,0.5606128078153265 c0.37801219770418204,0.43680893352304423 0.5056723170431366,1.1155879164370148 0.40371702714806607,2.1333053748724815 c-0.09288299715017045,0.9225530960468625 -0.28188909600226136,1.7936903754477498 -0.465063006661202,2.6343840792029942 c-0.21600697011667522,0.9960686935318979 -0.4216456056677501,1.9384664907403646 -0.3870844904490821,2.7020364695266457 c0.07927455803281985,1.7235573974788982 0.7584004720796466,2.5960477246862586 2.016641073009279,2.5960477246862586 c1.3824446087467208,0 2.083819240715565,-0.9121797295305697 2.083819240715565,-2.7106057723009753 c0,-1.487676063217099 -0.4430302957093011,-2.6458849855580153 -0.7372317890082131,-3.411935551989497 l-0.11513171507218789,-0.3082693919081059 c-0.3052178487748623,-0.8348304965938613 -0.3456111521866804,-1.5832914415411938 -0.37693216285359854,-2.717822027268831 c-0.031321010666917934,-1.1011554065013032 -0.01900861337026744,-2.278758014068333 0.27303281022747744,-3.4426046356028857 c0.29420149329891165,-1.1703863525991731 0.8992370165957186,-1.7409215109953018 1.9004293230865077,-2.6855743878812244 l0.24149579259044301,-0.22956711116492473 l0.7348557123369293,0.8443018312391722 l-0.24495190411230963,0.230694651003652 c-0.9361742084856703,0.884442249497873 -1.3634359953764539,1.2878760037945813 -1.5749068191206792,2.130373771291789 c-0.25726430140896006,1.0229041416936129 -0.26525655930327713,2.1035383231300746 -0.2384716950088095,3.119000701888085 c0.030456982786451238,1.106793105694941 0.07171431407873625,1.7001045688333654 0.3065138905955623,2.34460634065002 l0.10973154081927118,0.28955223058522894 c0.3065138905955623,0.7962686341093805 0.8143462773398665,2.1276676756788437 0.8143462773398665,3.83476299151232 C19.360406723021455,15.69613029679365 18.172584394349855,17.13599867084871 16.184888255336205,17.13599867084871 zM17.590877623825676,7.040683478785667 l-0.02786489914505113,-1.1408448088245116 c0,0 0.8467473228573673,-0.02277630474229607 1.3267148104566189,-0.02863951190367919 c0.01101635547595044,-0.2020551390999732 0.01101635547595044,-0.5177662939436809 0.01101635547595044,-0.8488119905940829 v-0.1700330076801112 c0,-1.3643232048603076 -0.20455860070049164,-1.5449550870244577 -0.4393581772173179,-1.7555795288987597 c-0.0861867810765535,-0.07531966122699889 -0.17129352730252367,-0.1542474499379259 -0.2540241968572101,-0.24873528842329273 l0.8031139148937986,-0.7707862337541381 c0.051409658887768744,0.058406563646085895 0.10735546414798765,0.1050867129694057 0.15984515788634,0.15176686229272535 c0.46657505545201833,0.4156111845549668 0.8223385352341831,0.8718138033041246 0.8223385352341831,2.6219811409769913 v0.1698074997123657 c0,0.6393150885585084 0.0010800348505833788,0.9924605660479692 -0.053785735559052146,1.2610405556328663 c-0.09396303200075373,0.46184031794279534 -0.3981008459250327,0.7274887039470015 -0.8342189185905996,0.7274887039470015 C18.749755018501617,7.009563379236781 17.59217366564637,7.040683478785667 17.590877623825676,7.040683478785667 z" id="svg_2" class="" fill="#1a1aeb" fill-opacity="1"/>
<g id="svg_3">
</g><g id="svg_4">
</g><g id="svg_5">
</g><g id="svg_6">
</g><g id="svg_7">
</g><g id="svg_8">
</g><g id="svg_9">
</g><g id="svg_10">
</g><g id="svg_11">
</g><g id="svg_12">
</g><g id="svg_13">
</g><g id="svg_14">
</g><g id="svg_15">
</g><g id="svg_16">
</g><g id="svg_17">
</g></g></svg>