<svg width="18" height="16" viewBox="0 0 18 16" fill="none" xmlns="http://www.w3.org/2000/svg">
<path d="M12.6251 3.05176e-05H10.3749C10.2655 3.05176e-05 10.1756 0.0451558 10.1052 0.135565C10.0351 0.226028 10 0.341454 10 0.482162V14.948C10 15.0887 10.0351 15.2042 10.1052 15.2944C10.1756 15.3851 10.2655 15.43 10.3749 15.43H12.6251C12.7345 15.43 12.8244 15.385 12.8945 15.2944C12.965 15.2042 13 15.0887 13 14.948V0.482162C13 0.341454 12.965 0.226028 12.8945 0.135565C12.8244 0.0451558 12.7345 3.05176e-05 12.6251 3.05176e-05Z" fill="#5AA700"/>
<path d="M17.8947 0.0903776C17.8242 0.0300759 17.7346 3.05176e-05 17.625 3.05176e-05H15.375C15.2657 3.05176e-05 15.1758 0.0300759 15.1054 0.0903776C15.0351 0.150503 15 0.227552 15 0.321276V15.1071C15 15.2009 15.0351 15.2779 15.1054 15.338C15.1758 15.3984 15.2657 15.4284 15.375 15.4284H17.625C17.7346 15.4284 17.8242 15.3984 17.8947 15.338C17.9649 15.2779 18 15.2009 18 15.1071V0.321311C18 0.227587 17.9649 0.150539 17.8947 0.0903776Z" fill="#5AA700"/>
<path d="M2.62511 3.05176e-05H0.374892C0.265458 3.05176e-05 0.175562 0.0451558 0.105206 0.135565C0.0350956 0.226028 0 0.341454 0 0.482162V14.948C0 15.0887 0.0350956 15.2042 0.105206 15.2944C0.175562 15.3851 0.265458 15.43 0.374892 15.43H2.62511C2.73454 15.43 2.82444 15.385 2.89451 15.2944C2.96503 15.2042 3 15.0887 3 14.948V0.482162C3 0.341454 2.96499 0.226028 2.89451 0.135565C2.82444 0.0451558 2.73454 3.05176e-05 2.62511 3.05176e-05Z" fill="#5AA700"/>
<path d="M7.89467 0.0903776C7.82416 0.0300759 7.73455 3.05176e-05 7.625 3.05176e-05H5.375C5.26574 3.05176e-05 5.1758 0.0300759 5.10545 0.0903776C5.03509 0.150503 5 0.227552 5 0.321276V15.1071C5 15.2009 5.03509 15.2779 5.10545 15.338C5.17584 15.3984 5.26574 15.4284 5.375 15.4284H7.625C7.73455 15.4284 7.8242 15.3984 7.89467 15.338C7.96491 15.2779 8 15.2009 8 15.1071V0.321311C8 0.227587 7.96491 0.150539 7.89467 0.0903776Z" fill="#5AA700"/>
</svg>
