<?xml version="1.0" encoding="UTF-8"?>
<svg width="16px" height="16px" viewBox="0 0 16 16" version="1.1" xmlns="http://www.w3.org/2000/svg" xmlns:xlink="http://www.w3.org/1999/xlink">
    <!-- Generator: Sketch 49.2 (51160) - http://www.bohemiancoding.com/sketch -->
    <title>search - material</title>
    <desc>Created with Sketch.</desc>
    <defs></defs>
    <g id="Page-1" stroke="none" stroke-width="1" fill="none" fill-rule="evenodd">
        <g id="Fleet-Owner--Dashboard" transform="translate(-437.000000, -87.000000)" fill="#A0A1A2">
            <path d="M442.94,96.68 C443.620003,96.68 444.246664,96.5100017 444.82,96.17 C445.393336,95.8299983 445.846665,95.3733362 446.18,94.8 C446.513335,94.2266638 446.68,93.6000034 446.68,92.92 C446.68,92.2399966 446.513335,91.6133362 446.18,91.04 C445.846665,90.4666638 445.393336,90.013335 444.82,89.68 C444.246664,89.346665 443.620003,89.18 442.94,89.18 C442.259997,89.18 441.633336,89.346665 441.06,89.68 C440.486664,90.013335 440.030002,90.4666638 439.69,91.04 C439.349998,91.6133362 439.18,92.2399966 439.18,92.92 C439.18,93.6000034 439.349998,94.2266638 439.69,94.8 C440.030002,95.3733362 440.486664,95.8299983 441.06,96.17 C441.633336,96.5100017 442.259997,96.68 442.94,96.68 Z M447.94,96.68 L452.08,100.82 L450.82,102.08 L446.68,97.92 L446.68,97.26 L446.44,97.04 C445.973331,97.4533354 445.43667,97.7699989 444.83,97.99 C444.22333,98.2100011 443.593337,98.32 442.94,98.32 C441.953328,98.32 441.043338,98.0800024 440.21,97.6 C439.376663,97.1199976 438.720002,96.4733374 438.24,95.66 C437.746664,94.8199958 437.5,93.9066716 437.5,92.92 C437.5,91.9333284 437.743331,91.0233375 438.23,90.19 C438.716669,89.3566625 439.376663,88.7000024 440.21,88.22 C441.043338,87.7399976 441.953328,87.5 442.94,87.5 C443.926672,87.5 444.839996,87.7466642 445.68,88.24 C446.493337,88.7200024 447.136664,89.3733292 447.61,90.2 C448.083336,91.0266708 448.32,91.9333284 448.32,92.92 C448.32,93.58667 448.210001,94.2233303 447.99,94.83 C447.769999,95.4366697 447.453335,95.973331 447.04,96.44 L447.26,96.68 L447.94,96.68 Z" id="search---material"></path>
        </g>
    </g>
</svg>