<?xml version="1.0" encoding="UTF-8"?>
<svg width="64px" height="64px" viewBox="0 0 64 64" version="1.1" xmlns="http://www.w3.org/2000/svg" xmlns:xlink="http://www.w3.org/1999/xlink">
    <!-- Generator: Sketch 50.2 (55047) - http://www.bohemiancoding.com/sketch -->
    <title>Group 38</title>
    <desc>Created with Sketch.</desc>
    <defs></defs>
    <g id="REVAMP-FILES" stroke="none" stroke-width="1" fill="none" fill-rule="evenodd">
        <g id="Drivers-Copy-5" transform="translate(0.000000, -63.000000)">
            <g id="Group-38" transform="translate(-1.000000, 63.000000)">
                <g id="Group-23-Copy" fill="#FFFFFF">
                    <g id="Group-19">
                        <rect id="Rectangle-26-Copy" x="0" y="0" width="65" height="64"></rect>
                    </g>
                </g>
                <g id="Group-7" transform="translate(26.000000, 21.000000)" fill-rule="nonzero">
                    <path d="M0,0 L0,8.96553394 C0.00261493143,9.28186474 0.289050555,9.52838095 0.643273255,9.52838095 C0.64394375,9.52838095 1.66061587,9.52838095 3.69328962,9.52838095 L3.69328962,6.35450604 L7.37652181,6.35450604 L7.37652181,3.1808044 L12.2978492,3.1808044 L12.2978492,0.537207908 C12.2879929,0.242358548 12.0134251,0.00640976762 11.6704667,0 L0,0 Z" id="Fill-5" fill="#C3CCCF"></path>
                    <path d="M0,3.1808044 L0,12.6798197 C0.00261493143,12.9961505 0.264824919,13 0.619047619,13 C0.619718114,13 1.64446545,13 3.69328962,13 L3.69328962,9.36665531 L3.69328962,6.35450604 L7.37652181,6.35450604 L7.37652181,3.1808044 L11.059754,3.1808044 L0,3.1808044 Z" id="Fill-5-Copy" fill="#B4C0C5"></path>
                    <path d="M1.21728329,9.96951627 L1.21728329,19.4685315 C1.21989822,19.7848623 1.50633385,20.0313785 1.86055655,20.0313785 C1.86122704,20.0313785 2.81634184,20.0452532 4.72590094,20.0730024 L4.72590094,16.1969911 L4.72590094,13.1432179 L8.44018666,13.1432179 L8.5938051,9.96951627 L12.2770373,9.96951627 L1.21728329,9.96951627 Z" id="Fill-5-Copy" fill="#B4C0C5" transform="translate(6.747160, 15.021259) rotate(-270.000000) translate(-6.747160, -15.021259) "></path>
                    <path d="M0.397674993,11.0070508 L0.397674993,22.1869066 C0.400289924,22.5032374 0.686725548,22.7497536 1.04094825,22.7497536 C1.04161874,22.7497536 2.05829087,22.7497536 4.09096462,22.7497536 L4.09096462,17.1929017 L4.09096462,14.1807525 L7.7741968,14.1807525 L7.7741968,11.0070508 L11.457429,11.0070508 L0.397674993,11.0070508 Z" id="Fill-5-Copy" fill="#B4C0C5" transform="translate(5.927552, 16.878402) scale(-1, 1) rotate(-90.000000) translate(-5.927552, -16.878402) "></path>
                </g>
                <circle id="Oval-3" fill="#29C16B" cx="19" cy="40" r="3"></circle>
            </g>
        </g>
    </g>
</svg>