<?xml version="1.0" encoding="UTF-8"?>
<svg width="61px" height="152px" viewBox="0 0 61 152" version="1.1" xmlns="http://www.w3.org/2000/svg" xmlns:xlink="http://www.w3.org/1999/xlink">
    <!-- Generator: Sketch 50.2 (55047) - http://www.bohemiancoding.com/sketch -->
    <title>Combined Shape</title>
    <desc>Created with Sketch.</desc>
    <defs>
        <filter x="-32.9%" y="-11.0%" width="180.5%" height="125.0%" filterUnits="objectBoundingBox" id="filter-1">
            <feOffset dx="3" dy="2" in="SourceAlpha" result="shadowOffsetOuter1"></feOffset>
            <feGaussianBlur stdDeviation="5" in="shadowOffsetOuter1" result="shadowBlurOuter1"></feGaussianBlur>
            <feColorMatrix values="0 0 0 0 0   0 0 0 0 0   0 0 0 0 0  0 0 0 0.2 0" type="matrix" in="shadowBlurOuter1" result="shadowMatrixOuter1"></feColorMatrix>
            <feMerge>
                <feMergeNode in="shadowMatrixOuter1"></feMergeNode>
                <feMergeNode in="SourceGraphic"></feMergeNode>
            </feMerge>
        </filter>
    </defs>
    <g id="UX-Work" stroke="none" stroke-width="1" fill="none" fill-rule="evenodd">
        <g id="Trailer-Truck" filter="url(#filter-1)" transform="translate(7.000000, 8.000000)" fill="#05CE9A">
            <path d="M10.2560644,0.882716049 C10.2324315,0.82899778 10.2085414,0.775402364 10.1843941,0.721929802 L29.5332729,0.721929802 C29.5154677,0.775485882 29.4978595,0.829081298 29.4804484,0.882716049 L33.7826144,0.882716049 C33.9471935,0.882716049 34.0988284,0.938136801 34.2198746,1.03133386 C34.9602275,1.2521087 35.5,1.93814612 35.5,2.75025415 L35.5,16.706536 C35.5,17.4121563 35.0925021,18.0226005 34.5,18.3153748 L34.5,33.2843506 L34.9497579,33.7576141 C35.3030204,34.1293392 35.5,34.6225569 35.5,35.1353667 L35.5,47.4841026 C35.5,47.4893807 35.4999791,47.4946589 35.4999373,47.4999368 C35.4911923,48.6044717 34.5887007,49.4927849 33.4841658,49.4840399 L31.6783595,49.4697427 C31.5967846,49.4895193 31.511577,49.5 31.4239216,49.5 L9.04777648,49.5 C8.80588716,49.5 8.58263881,49.4201885 8.40292869,49.2854629 L6.19115846,49.2679515 C6.1891544,49.2679357 6.18715037,49.2679168 6.18514637,49.2678949 C5.08064277,49.2558295 4.19504661,48.3506715 4.20711199,47.2461679 L4.33941341,35.1348692 C4.34712529,34.4288987 4.72647988,33.7792961 5.3375485,33.4256736 L6.19811321,32.927669 L6.19811321,19.4144554 C5.97343461,19.2932895 5.82075472,19.0557821 5.82075472,18.7826144 L5.82075472,18.2542741 C5.29017321,17.9427858 4.93396226,17.3662597 4.93396226,16.706536 L4.93396226,2.75025415 C4.93396226,2.00955336 5.38298541,1.37372755 6.02367674,1.10013167 C6.15402543,0.966028212 6.33635358,0.882716049 6.53814033,0.882716049 L10.2560644,0.882716049 Z M16.5009898,52.3006388 L16.7522714,51.9706236 L16.7522714,49.7907926 L23.9827831,49.7907926 L23.9827831,51.9706236 L24.3101745,52.3006388 L38.5,52.3006388 C39.6045695,52.3006388 40.5,53.1960693 40.5,54.3006388 L40.5,129.5 C40.5,130.604569 39.6045695,131.5 38.5,131.5 L2.5,131.5 C1.3954305,131.5 0.5,130.604569 0.5,129.5 L0.5,54.3006388 C0.5,53.1960693 1.3954305,52.3006388 2.5,52.3006388 L16.5009898,52.3006388 Z" id="Combined-Shape"></path>
        </g>
    </g>
</svg>