<svg xmlns="http://www.w3.org/2000/svg" xmlns:xlink="http://www.w3.org/1999/xlink" width="18" height="18" version="1.1" style=""><rect id="backgroundrect" width="100%" height="100%" x="0" y="0" fill="none" stroke="none" class="" style=""/>
    <!-- Generator: Sketch 50.2 (55047) - http://www.bohemiancoding.com/sketch -->
    <title>stoppage</title>
    <desc>Created with Sketch.</desc>
    <defs/>
    
<g class="currentLayer" style=""><title>Layer 1</title><g class=""><g id="REVAMP-FILES" stroke="none" stroke-width="1" fill="#1a1aeb" fill-rule="evenodd" class="" fill-opacity="1">
        <g id="Live-Tracking" fill="#1a1aeb" fill-opacity="1">
            <g id="navigation-drawer" fill="#1a1aeb" fill-opacity="1">
                <g id="nav-list-2" fill="#1a1aeb" fill-opacity="1">
                    <g id="list-item" fill="#1a1aeb" fill-opacity="1">
                        <g id="stoppage" fill="#1a1aeb" fill-opacity="1">
                            <path d="M2.5410606258507724,15.845955140656725 L2.5410606258507724,15.813846969500837 C2.5410606258507724,15.812843589136614 2.5402802188453246,15.812063182181097 2.539276838481073,15.812063182181097 L2.507168667524977,15.812063182181097 C2.5061652872107008,15.812063182181097 2.5053848802552157,15.812843589136614 2.5053848802552157,15.813846969500837 L2.5053848802552157,15.845955140656725 C2.5053848802552157,15.846958521020952 2.5061652872107008,15.847738928026413 2.507168667524977,15.847738928026413 L2.539276838481073,15.847738928026413 C2.5402802188453246,15.847738928026413 2.5410606258507724,15.846958521020952 2.5410606258507724,15.845955140656725 zM2.566033648027403,15.82990105502884 C2.566033648027403,15.853536236353547 2.546857934677372,15.872711949703575 2.5232227531029348,15.872711949703575 C2.4995875715784424,15.872711949703575 2.4804118582783636,15.853536236353547 2.4804118582783636,15.82990105502884 C2.4804118582783636,15.80626587350434 2.4995875715784424,15.787090160219257 2.5232227531029348,15.787090160219257 C2.546857934677372,15.787090160219257 2.566033648027403,15.80626587350434 2.566033648027403,15.82990105502884 z" id="stop-circle---FontAwesome" fill="#1a1aeb" fill-opacity="1"/>
                        </g>
                    </g>
                </g>
            </g>
        </g>
    </g><path fill="#ffffff" fill-opacity="1" stroke="#ffffff" stroke-opacity="1" stroke-width="1" stroke-dasharray="none" stroke-linejoin="miter" stroke-linecap="butt" stroke-dashoffset="" fill-rule="evenodd" opacity="1" marker-start="" marker-mid="" marker-end="" d="M0.5208877326949086,8.98537164151721 C0.5208877326949086,4.265273335577971 4.30486235706664,0.4419937077671794 8.9764359674021,0.4419937077671794 C13.648009577737568,0.4419937077671794 17.43198420210929,4.265273335577971 17.43198420210929,8.98537164151721 C17.43198420210929,13.705469947456455 13.648009577737568,17.528749575267234 8.9764359674021,17.528749575267234 C4.30486235706664,17.528749575267234 0.5208877326949086,13.705469947456455 0.5208877326949086,8.98537164151721 z" id="svg_1" class=""/><rect fill="#0b0bd5" stroke="#0b0bd5" stroke-dashoffset="" fill-rule="evenodd" id="svg_5" x="5.013336897833544" y="5.197813794852928" width="7.7503625234617335" height="7.751537766094737" style="color: rgb(34, 34, 34);" class="" fill-opacity="1" stroke-opacity="1"/></g></g></svg>