<svg xmlns="http://www.w3.org/2000/svg" xmlns:xlink="http://www.w3.org/1999/xlink" width="10.472723429597394" height="10.135063837027829" version="1.1" style=""><rect id="backgroundrect" width="100%" height="100%" x="0" y="0" fill="none" stroke="none" class="" style=""/>
    <!-- Generator: Sketch 50.2 (55047) - http://www.bohemiancoding.com/sketch -->
    <title>stoppage</title>
    <desc>Created with Sketch.</desc>
    <defs/>
    
<g class="currentLayer" style=""><title>Layer 1</title><g class="" id="svg_2"><g id="REVAMP-FILES" stroke="none" stroke-width="1" fill="#1a1aeb" fill-rule="evenodd" class="" fill-opacity="1">
        <g id="Live-Tracking" fill="#1a1aeb" fill-opacity="1">
            <g id="navigation-drawer" fill="#1a1aeb" fill-opacity="1">
                <g id="nav-list-2" fill="#1a1aeb" fill-opacity="1">
                    <g id="list-item" fill="#1a1aeb" fill-opacity="1">
                        <g id="stoppage" fill="#1a1aeb" fill-opacity="1">
                            <path d="M26.921818120501086,0.6375578614842325 L26.921818120501086,0.6204068256377351 C26.921818120501086,0.6198708557591956 26.921444241554802,0.6194539902951384 26.920963540086603,0.6194539902951384 L26.905581093439594,0.6194539902951384 C26.905100391995333,0.6194539902951384 26.904726513072987,0.6198708557591956 26.904726513072987,0.6204068256377351 L26.904726513072987,0.6375578614842325 C26.904726513072987,0.6380938313627738 26.905100391995333,0.6385106968535066 26.905581093439594,0.6385106968535066 L26.920963540086603,0.6385106968535066 C26.921444241554802,0.6385106968535066 26.921818120501086,0.6380938313627738 26.921818120501086,0.6375578614842325 zM26.9337822458252,0.6289823435343074 C26.9337822458252,0.6416074114701438 26.924595506788314,0.6518503912229239 26.91327231681096,0.6518503912229239 C26.901949126857545,0.6518503912229239 26.89276238784459,0.6416074114701438 26.89276238784459,0.6289823435343074 C26.89276238784459,0.6163572754917457 26.901949126857545,0.6061142957736578 26.91327231681096,0.6061142957736578 C26.924595506788314,0.6061142957736578 26.9337822458252,0.6163572754917457 26.9337822458252,0.6289823435343074 z" id="stop-circle---FontAwesome" fill="#1a1aeb" fill-opacity="1"/>
                        </g>
                    </g>
                </g>
            </g>
        </g>
    </g><path fill="#ffffff" fill-opacity="1" stroke="#ffffff" stroke-opacity="1" stroke-width="1" stroke-dasharray="none" stroke-linejoin="miter" stroke-linecap="butt" stroke-dashoffset="" fill-rule="evenodd" opacity="1" marker-start="" marker-mid="" marker-end="" d="M25.953989657484783,-3.02712029630837 C25.953989657484783,-5.548427874093694 27.76682377539899,-7.590687012099809 30.004890587638755,-7.590687012099809 C32.24295739987853,-7.590687012099809 34.055791517792734,-5.548427874093694 34.055791517792734,-3.02712029630837 C34.055791517792734,-0.5058127185230461 32.24295739987853,1.5364464194830632 30.004890587638755,1.5364464194830632 C27.76682377539899,1.5364464194830632 25.953989657484783,-0.5058127185230461 25.953989657484783,-3.02712029630837 z" id="svg_1" class=""/><rect fill="#0b0bd5" stroke="#0b0bd5" stroke-dashoffset="" fill-rule="evenodd" id="svg_5" x="28.106239318847656" y="-5.05029821395874" width="3.7130589485168457" height="4.140594005584717" style="color: rgb(34, 34, 34);" class="" fill-opacity="1" stroke-opacity="1"/></g><g class="" id="svg_3"><g id="svg_4" stroke="none" stroke-width="1" fill="#1a1aeb" fill-rule="evenodd" class="" fill-opacity="1">
        <g id="Live-Tracking" fill="#1a1aeb" fill-opacity="1">
            <g id="navigation-drawer" fill="#1a1aeb" fill-opacity="1">
                <g id="nav-list-2" fill="#1a1aeb" fill-opacity="1">
                    <g id="list-item" fill="#1a1aeb" fill-opacity="1">
                        <g id="stoppage" fill="#1a1aeb" fill-opacity="1">
                            <path d="M1.6689540798385096,8.777855851830468 L1.6689540798385096,8.761406409747261 C1.6689540798385096,8.760892364674154 1.6685234037598455,8.76049255183668 1.6679696774123622,8.76049255183668 L1.650250434678867,8.76049255183668 C1.6496967083589444,8.76049255183668 1.6492660323078623,8.760892364674154 1.6492660323078623,8.761406409747261 L1.6492660323078623,8.777855851830468 C1.6492660323078623,8.778369896903564 1.6496967083589444,8.778769709766635 1.650250434678867,8.778769709766635 L1.6679696774123622,8.778769709766635 C1.6685234037598455,8.778769709766635 1.6689540798385096,8.778369896903564 1.6689540798385096,8.777855851830468 zM1.6827357132533096,8.769631130763281 C1.6827357132533096,8.781739747739293 1.6721533876545773,8.791563720105218 1.6591100561007397,8.791563720105218 C1.6460667245744791,8.791563720105218 1.6354843990033199,8.781739747739293 1.6354843990033199,8.769631130763281 C1.6354843990033199,8.7575225136849 1.6460667245744791,8.747698541352253 1.6591100561007397,8.747698541352253 C1.6721533876545773,8.747698541352253 1.6827357132533096,8.7575225136849 1.6827357132533096,8.769631130763281 z" id="stop-circle---FontAwesome" fill="#1a1aeb" fill-opacity="1"/>
                        </g>
                    </g>
                </g>
            </g>
        </g>
    </g><path fill="#ffffff" fill-opacity="1" stroke="#ffffff" stroke-opacity="1" stroke-width="1" stroke-dasharray="none" stroke-linejoin="miter" stroke-linecap="butt" stroke-dashoffset="" fill-rule="evenodd" opacity="1" marker-start="" marker-mid="" marker-end="" d="M0.5540997361766948,5.263087901383811 C0.5540997361766948,2.8449189146272755 2.642327214418304,0.8862020353544806 5.220385829531411,0.8862020353544806 C7.798444444644522,0.8862020353544806 9.886671922886132,2.8449189146272755 9.886671922886132,5.263087901383811 C9.886671922886132,7.681256888140349 7.798444444644522,9.639973767413144 5.220385829531411,9.639973767413144 C2.642327214418304,9.639973767413144 0.5540997361766948,7.681256888140349 0.5540997361766948,5.263087901383811 z" id="svg_6" class=""/><rect fill="#0b0bd5" stroke="#0b0bd5" stroke-dashoffset="" fill-rule="evenodd" id="svg_7" x="3.0333043557443538" y="3.322671784170154" width="4.277121251483714" height="3.971215841587286" style="color: rgb(34, 34, 34);" class="" fill-opacity="1" stroke-opacity="1"/></g></g></svg>