<svg xmlns="http://www.w3.org/2000/svg" xmlns:xlink="http://www.w3.org/1999/xlink" width="18" height="18" version="1.1" style=""><rect id="backgroundrect" width="100%" height="100%" x="0" y="0" fill="none" stroke="none"/>
    <!-- Generator: Sketch 50.2 (55047) - http://www.bohemiancoding.com/sketch -->
    <title>stoppage</title>
    <desc>Created with Sketch.</desc>
    <defs/>
    
<g class="currentLayer" style=""><title>Layer 1</title><g id="REVAMP-FILES" stroke="none" stroke-width="1" fill="#1a1aeb" fill-rule="evenodd" class="" fill-opacity="1">
        <g id="Live-Tracking" fill="#1a1aeb" fill-opacity="1">
            <g id="navigation-drawer" fill="#1a1aeb" fill-opacity="1">
                <g id="nav-list-2" fill="#1a1aeb" fill-opacity="1">
                    <g id="list-item" fill="#1a1aeb" fill-opacity="1">
                        <g id="stoppage" fill="#1a1aeb" fill-opacity="1">
                            <path d="M12.413141858188254,12.320071083179869 L12.413141858188254,5.89149198317989 C12.413141858188254,5.6905988831798595 12.256891658188252,5.5343486931798225 12.05599855818825,5.5343486931798225 L5.627419498188246,5.5343486931798225 C5.426526408188252,5.5343486931798225 5.270276218188243,5.6905988831798595 5.270276218188243,5.89149198317989 L5.270276218188243,12.320071083179869 C5.270276218188243,12.520964183179899 5.426526408188252,12.67721438317983 5.627419498188246,12.67721438317983 L12.05599855818825,12.67721438317983 C12.256891658188252,12.67721438317983 12.413141858188254,12.520964183179899 12.413141858188254,12.320071083179869 zM17.41314785818824,9.105781523179871 C17.41314785818824,13.837929983179833 13.573857558188251,17.67722028317985 8.84170904818825,17.67722028317985 C4.109560548188249,17.67722028317985 0.2702702581882478,13.837929983179833 0.2702702581882478,9.105781523179871 C0.2702702581882478,4.3736330231798775 4.109560548188249,0.5343427361798377 8.84170904818825,0.5343427361798377 C13.573857558188251,0.5343427361798377 17.41314785818824,4.3736330231798775 17.41314785818824,9.105781523179871 z" id="stop-circle---FontAwesome" fill="#1a1aeb" fill-opacity="1"/>
                        </g>
                    </g>
                </g>
            </g>
        </g>
    </g></g></svg>