<svg width="10" height="18" viewBox="0 0 10 18" fill="none" xmlns="http://www.w3.org/2000/svg">
<path d="M8.375 13.5494V1.87499C8.375 0.841184 7.53382 0 6.50001 0C5.46621 0 4.62502 0.841184 4.62502 1.87499V13.5494C4.14637 14.0402 3.875 14.6964 3.875 15.375C3.875 16.8223 5.05273 18 6.50001 18C7.94729 18 9.12502 16.8223 9.12502 15.375C9.12499 14.6964 8.85365 14.0402 8.375 13.5494ZM6.50001 16.5C5.87964 16.5 5.37501 15.9954 5.37501 15.375C5.37501 14.8867 5.68945 14.4744 6.125 14.3191V7.875C6.125 7.66772 6.29273 7.49999 6.50001 7.49999C6.70729 7.49999 6.87502 7.66772 6.87502 7.875V14.3191C7.31057 14.4744 7.62501 14.8867 7.62501 15.375C7.62501 15.9954 7.12038 16.5 6.50001 16.5Z" fill="black"/>
<path d="M3.50001 12H1.25001C1.04273 12 0.875 12.1677 0.875 12.375C0.875 12.5823 1.04273 12.75 1.25001 12.75H3.50001C3.70729 12.75 3.87502 12.5823 3.87502 12.375C3.87502 12.1677 3.70729 12 3.50001 12Z" fill="black"/>
<path d="M3.5 10.5H2.75001C2.54273 10.5 2.375 10.6677 2.375 10.875C2.375 11.0823 2.54273 11.25 2.75001 11.25H3.5C3.70728 11.25 3.87501 11.0823 3.87501 10.875C3.87501 10.6677 3.70728 10.5 3.5 10.5Z" fill="black"/>
<path d="M3.5 9H2.75001C2.54273 9 2.375 9.16773 2.375 9.37501C2.375 9.58229 2.54273 9.75002 2.75001 9.75002H3.5C3.70728 9.75002 3.87501 9.58229 3.87501 9.37501C3.87501 9.16773 3.70728 9 3.5 9Z" fill="black"/>
<path d="M1.25001 8.24999H3.50001C3.70729 8.24999 3.87502 8.08226 3.87502 7.87498C3.87502 7.6677 3.70729 7.49997 3.50001 7.49997H1.25001C1.04273 7.49997 0.875 7.6677 0.875 7.87498C0.875 8.08226 1.04277 8.24999 1.25001 8.24999Z" fill="black"/>
<path d="M1.25001 3.75001H3.50001C3.70729 3.75001 3.87502 3.58228 3.87502 3.375C3.87502 3.16772 3.70729 2.99998 3.50001 2.99998H1.25001C1.04273 2.99998 0.875 3.16772 0.875 3.375C0.875 3.58228 1.04277 3.75001 1.25001 3.75001Z" fill="black"/>
<path d="M3.5 6.00003H2.75001C2.54273 6.00003 2.375 6.16776 2.375 6.37504C2.375 6.58232 2.54273 6.75005 2.75001 6.75005H3.5C3.70728 6.75005 3.87501 6.58232 3.87501 6.37504C3.87501 6.16776 3.70728 6.00003 3.5 6.00003Z" fill="black"/>
<path d="M3.5 4.5H2.75001C2.54273 4.5 2.375 4.66773 2.375 4.87501C2.375 5.08229 2.54273 5.25002 2.75001 5.25002H3.5C3.70728 5.25002 3.87501 5.08229 3.87501 4.87501C3.87501 4.66773 3.70728 4.5 3.5 4.5Z" fill="black"/>
</svg>
