<?xml version="1.0" encoding="UTF-8"?>
<svg width="16px" height="17px" viewBox="0 0 16 17" version="1.1" xmlns="http://www.w3.org/2000/svg" xmlns:xlink="http://www.w3.org/1999/xlink">
    <!-- Generator: Sketch 49.2 (51160) - http://www.bohemiancoding.com/sketch -->
    <title>traffic - material</title>
    <desc>Created with Sketch.</desc>
    <defs></defs>
    <g id="Symbols" stroke="none" stroke-width="1" fill="none" fill-rule="evenodd">
        <g id="organisms/navigation-drawer" transform="translate(-27.000000, -605.000000)" fill="#7D7D7D">
            <g id="navigation-drawer" transform="translate(0.000000, 0.500000)">
                <g id="nav-list-2" transform="translate(1.000000, 492.000000)">
                    <g id="list-item" transform="translate(25.000000, 110.000000)">
                        <g id="stoppage" transform="translate(0.000000, 2.000000)">
                            <path d="M9.00000024,6.04999977 C9.51333615,6.04999977 9.94966513,5.86666827 10.3090003,5.49999976 C10.6683354,5.13333125 10.8480003,4.69700227 10.8480003,4.19099973 C10.8480003,3.68499719 10.6646688,3.2596681 10.2980003,2.91499971 C9.93133176,2.57033131 9.49500278,2.39799969 8.98900024,2.39799969 C8.4829977,2.39799969 8.05033535,2.57033131 7.69100021,2.91499971 C7.33166507,3.2596681 7.1520002,3.68499719 7.1520002,4.19099973 C7.1520002,4.69700227 7.33166507,5.13333125 7.69100021,5.49999976 C8.05033535,5.86666827 8.48666433,6.04999977 9.00000024,6.04999977 Z M9.00000024,10.6479999 C9.51333615,10.6479999 9.94966513,10.4646684 10.3090003,10.0979999 C10.6683354,9.73133135 10.8480003,9.298669 10.8480003,8.79999983 C10.8480003,8.30133066 10.6646688,7.86866831 10.2980003,7.5019998 C9.93133176,7.1353313 9.49500278,6.95199979 8.98900024,6.95199979 C8.4829977,6.95199979 8.05033535,7.1353313 7.69100021,7.5019998 C7.33166507,7.86866831 7.1520002,8.30133066 7.1520002,8.79999983 C7.1520002,9.298669 7.33166507,9.73133135 7.69100021,10.0979999 C8.05033535,10.4646684 8.48666433,10.6479999 9.00000024,10.6479999 Z M9.00000024,15.202 C9.51333615,15.202 9.94966513,15.0260017 10.3090003,14.674 C10.6683354,14.3219982 10.8480003,13.8966691 10.8480003,13.3979999 C10.8480003,12.8993308 10.6646688,12.4666684 10.2980003,12.0999999 C9.93133176,11.7333314 9.49500278,11.5499999 8.98900024,11.5499999 C8.4829977,11.5499999 8.05033535,11.7333314 7.69100021,12.0999999 C7.33166507,12.4666684 7.1520002,12.8993308 7.1520002,13.3979999 C7.1520002,13.8966691 7.33166507,14.3219982 7.69100021,14.674 C8.05033535,15.0260017 8.48666433,15.202 9.00000024,15.202 Z M16.3480004,6.95199979 C16.3480004,7.80267073 16.0913363,8.55799653 15.5780004,9.21799984 C15.0646645,9.87800316 14.4046711,10.3106655 13.5980003,10.5159999 L13.5980003,11.5499999 L16.3480004,11.5499999 C16.3480004,12.4006708 16.0913363,13.1486634 15.5780004,13.7939999 C15.0646645,14.4393365 14.4046711,14.8646656 13.5980003,15.07 L13.5980003,16.148 C13.5980003,16.3973346 13.5063346,16.6099991 13.3230003,16.786 C13.1396661,16.9620009 12.9160016,17.05 12.6520003,17.05 L5.34800016,17.05 C5.09866557,17.05 4.87866777,16.9620009 4.68800014,16.786 C4.49733252,16.6099991 4.40200014,16.3973346 4.40200014,16.148 L4.40200014,15.07 C3.59532942,14.8646656 2.93533601,14.4393365 2.4220001,13.7939999 C1.90866418,13.1486634 1.65200008,12.4006708 1.65200008,11.5499999 L4.40200014,11.5499999 L4.40200014,10.5159999 C3.59532942,10.3106655 2.93533601,9.87800316 2.4220001,9.21799984 C1.90866418,8.55799653 1.65200008,7.80267073 1.65200008,6.95199979 L4.40200014,6.95199979 L4.40200014,5.91799977 C3.59532942,5.71266541 2.93533601,5.28733632 2.4220001,4.64199974 C1.90866418,3.99666317 1.65200008,3.24867063 1.65200008,2.39799969 L4.40200014,2.39799969 L4.40200014,1.45199967 C4.40200014,1.20266509 4.49733252,0.990000544 4.68800014,0.81399966 C4.87866777,0.637998776 5.09866557,0.549999654 5.34800016,0.549999654 L12.6520003,0.549999654 C12.9160016,0.549999654 13.1396661,0.637998776 13.3230003,0.81399966 C13.5063346,0.990000544 13.5980003,1.20266509 13.5980003,1.45199967 L13.5980003,2.39799969 L16.3480004,2.39799969 C16.3480004,3.24867063 16.0913363,3.99666317 15.5780004,4.64199974 C15.0646645,5.28733632 14.4046711,5.71266541 13.5980003,5.91799977 L13.5980003,6.95199979 L16.3480004,6.95199979 Z" id="traffic---material"></path>
                        </g>
                    </g>
                </g>
            </g>
        </g>
    </g>
</svg>