<?xml version="1.0" encoding="UTF-8"?>
<svg width="64px" height="64px" viewBox="0 0 64 64" version="1.1" xmlns="http://www.w3.org/2000/svg" xmlns:xlink="http://www.w3.org/1999/xlink">
    <!-- Generator: Sketch 50.2 (55047) - http://www.bohemiancoding.com/sketch -->
    <title>Group 37</title>
    <desc>Created with Sketch.</desc>
    <defs></defs>
    <g id="REVAMP-FILES" stroke="none" stroke-width="1" fill="none" fill-rule="evenodd">
        <g id="Drivers-Copy-4" transform="translate(0.000000, -64.000000)">
            <g id="Group-37" transform="translate(-1.000000, 64.000000)">
                <rect id="Rectangle-26" fill="#F4F4F4" x="0" y="0" width="65" height="64"></rect>
                <g id="Group-7" transform="translate(21.000000, 21.000000)" fill-rule="nonzero">
                    <path d="M11.1714286,0 L11.1714286,9.51725911 C11.1742044,9.85305641 11.4782669,10.1147429 11.8542879,10.1147429 C11.8549996,10.1147429 12.9342362,10.1147429 15.0919976,10.1147429 L15.0919976,6.74555257 L19.0018902,6.74555257 L19.0018902,3.37654621 L22.9117828,3.37654621 L22.9117828,0.570266856 C22.90132,0.25727292 22.6098556,0.00680421486 22.2457921,0 L11.1714286,0 Z" id="Fill-5" fill="#C3CCCF"></path>
                    <path d="M11.1714286,0 L11.1714286,9.51725911 C11.1742044,9.85305641 11.4782669,10.1147429 11.8542879,10.1147429 C11.8549996,10.1147429 12.9342362,10.1147429 15.0919976,10.1147429 L15.0919976,6.74555257 L19.0018902,6.74555257 L19.0018902,3.37654621 L22.9117828,3.37654621 L22.9117828,0.570266856 C22.90132,0.25727292 22.6098556,0.00680421486 22.2457921,0 L11.1714286,0 Z" id="Fill-5" fill="#C3CCCF"></path>
                    <path d="M0.147682866,0 L0.147682866,9.51725911 C0.149422658,16.3176574 0.0113720952,18.9586357 0.00065749766,19.9827226 C-0.00572312007,20.5925735 0.0330532342,20.6290286 0.173399311,20.6290286 C0.174111066,20.6290286 1.47239525,20.6290286 4.06825185,20.6290286 L4.06825185,6.74555257 L7.97814448,6.74555257 L7.97814448,3.37654621 L11.8880371,3.37654621 L11.8880371,0.570266856 C11.8775743,0.25727292 11.5861099,0.00680421486 11.2220464,0 L0.147682866,0 Z" id="Fill-5" fill="#C3CCCF" transform="translate(5.944019, 10.314514) scale(-1, 1) translate(-5.944019, -10.314514) "></path>
                    <path d="M11.1714286,3.37654621 L11.1714286,20.3714286 C11.1742044,20.7072259 11.1714286,19.7142857 11.1714286,20.6290286 C11.1714286,20.6300508 12.4782849,20.6300508 15.0919976,20.6290286 L15.0919976,6.74555257 L19.0018902,6.74555257 L19.0018902,3.37654621 L22.9117828,3.37654621 L11.1714286,3.37654621 Z" id="Fill-5-Copy" fill="#B4C0C5"></path>
                </g>
                <circle id="Oval-3" fill="#29C16B" cx="18" cy="40" r="3"></circle>
            </g>
        </g>
    </g>
</svg>