<svg width="170" height="108" viewBox="0 0 170 108" fill="none" xmlns="http://www.w3.org/2000/svg">
<circle cx="81" cy="55" r="45" fill="#EBF3FA"/>
<g filter="url(#filter0_d)">
<rect x="53.7895" y="38.9082" width="55.1935" height="32.6143" rx="3" fill="white"/>
</g>
<rect x="81.3865" y="52.2886" width="24.2517" height="2.5088" rx="1.2544" fill="#A5D3F0"/>
<rect x="98.9479" y="42.2532" width="6.69012" height="4.18133" rx="1" fill="#A5D3F0"/>
<rect x="57.9709" y="42.2532" width="30.9418" height="2.5088" rx="1" fill="#A5D3F0"/>
<rect x="81.3865" y="57.3062" width="24.2517" height="2.5088" rx="1.2544" fill="#A5D3F0"/>
<rect x="81.3865" y="62.3237" width="24.2517" height="2.5088" rx="1.2544" fill="#A5D3F0"/>
<g clip-path="url(#clip0)">
<rect width="18.3978" height="19.2341" transform="translate(57.9709 48.1072)" fill="white"/>
<path d="M67.1698 49.7798C65.9154 49.7798 64.9354 50.2415 64.2298 51.1648C63.5242 52.0882 63.1714 53.2686 63.1714 54.7059C63.1627 56.4917 63.7376 57.9072 64.8962 58.9526C65.0443 59.0919 65.0965 59.2705 65.053 59.4883L64.7524 60.1155C64.6566 60.3246 64.5151 60.4879 64.3278 60.6055C64.1405 60.7231 63.7463 60.8908 63.1452 61.1086C63.1191 61.1173 62.5681 61.2959 61.4923 61.6443C60.4165 61.9927 59.8437 62.1844 59.7741 62.2192C59.0423 62.5241 58.5632 62.8421 58.3367 63.1731C58.0928 63.7219 57.9709 65.1113 57.9709 67.3414H76.3687C76.3687 65.1113 76.2467 63.7219 76.0028 63.1731C75.7763 62.8421 75.2972 62.5241 74.5655 62.2192C74.4958 62.1844 73.923 61.9927 72.8472 61.6443C71.7714 61.2959 71.2204 61.1173 71.1943 61.1086C70.5932 60.8908 70.1991 60.7231 70.0118 60.6055C69.8245 60.4879 69.6829 60.3246 69.5871 60.1155L69.2866 59.4883C69.243 59.2705 69.2953 59.0919 69.4434 58.9526C70.6019 57.9072 71.1769 56.4917 71.1682 54.7059C71.1682 53.2686 70.8154 52.0882 70.1098 51.1648C69.4042 50.2415 68.4242 49.7798 67.1698 49.7798Z" fill="#0086DA"/>
</g>
<rect x="67" y="21.3279" width="40.6803" height="4.36759" rx="2.18379" transform="rotate(-31.6198 67 21.3279)" fill="#D5E6F4"/>
<rect x="63" y="103.328" width="40.6803" height="4.36759" rx="2.18379" transform="rotate(-31.6198 63 103.328)" fill="#D5E6F4"/>
<rect x="81" y="21.7922" width="14.8628" height="4.36759" rx="2.18379" transform="rotate(-31.6198 81 21.7922)" fill="#D5E6F4"/>
<rect x="117" y="52.7922" width="14.8628" height="4.36759" rx="2.18379" transform="rotate(-31.6198 117 52.7922)" fill="#D5E6F4"/>
<rect x="56" y="95.7922" width="14.8628" height="4.36759" rx="2.18379" transform="rotate(-31.6198 56 95.7922)" fill="#D5E6F4"/>
<circle cx="28.9881" cy="21.9881" r="6.98814" fill="#EBF3FA" fill-opacity="0.7"/>
<circle cx="142.988" cy="84.9881" r="6.98814" fill="#EBF3FA" fill-opacity="0.7"/>
<ellipse cx="10.5" cy="32" rx="10.5" ry="10" fill="#EBF3FA" fill-opacity="0.7"/>
<ellipse cx="159.5" cy="68" rx="10.5" ry="10" fill="#EBF3FA" fill-opacity="0.7"/>
<defs>
<filter id="filter0_d" x="49.7895" y="38.9082" width="63.1935" height="40.6143" filterUnits="userSpaceOnUse" color-interpolation-filters="sRGB">
<feFlood flood-opacity="0" result="BackgroundImageFix"/>
<feColorMatrix in="SourceAlpha" type="matrix" values="0 0 0 0 0 0 0 0 0 0 0 0 0 0 0 0 0 0 127 0"/>
<feOffset dy="4"/>
<feGaussianBlur stdDeviation="2"/>
<feColorMatrix type="matrix" values="0 0 0 0 0 0 0 0 0 0.52549 0 0 0 0 0.854902 0 0 0 0.3 0"/>
<feBlend mode="normal" in2="BackgroundImageFix" result="effect1_dropShadow"/>
<feBlend mode="normal" in="SourceGraphic" in2="effect1_dropShadow" result="shape"/>
</filter>
<clipPath id="clip0">
<rect width="18.3978" height="19.2341" fill="white" transform="translate(57.9709 48.1072)"/>
</clipPath>
</defs>
</svg>
