<svg width="250" height="164" viewBox="0 0 250 164" fill="none" xmlns="http://www.w3.org/2000/svg">
<g clip-path="url(#clip0)">
<path d="M163.162 71.6094C162.874 73.1189 162.529 74.6131 162.126 76.0919C162.082 76.2636 162.033 76.4328 161.984 76.6045H156.38C155.903 76.605 155.445 76.7942 155.108 77.1305C154.77 77.4669 154.58 77.9229 154.58 78.3985V94.3194C154.41 94.6346 154.237 94.9473 154.065 95.26C153.175 96.8746 152.249 98.4713 151.303 100.048C135.869 125.665 114.343 147.103 88.6256 162.467L90.1483 159.043C89.5901 159.005 89.0295 158.966 88.4714 158.928C76.3187 158.1 64.1247 157.183 52.2575 154.461C39.8424 151.613 27.6975 146.675 17.9676 138.486C8.235 130.295 1.10032 118.598 0.110076 105.942C-0.220118 101.593 0.221326 97.2194 1.41416 93.0226C3.69544 84.9443 8.68008 77.6758 15.8714 73.3752C27.1676 66.6219 41.9027 67.9982 53.811 73.6161C65.7168 79.2315 75.4082 88.5272 84.8706 97.6614C75.3169 81.3364 62.015 67.501 46.0564 57.2903C40.7684 53.9175 35.1563 50.9138 30.6604 46.544C26.1671 42.1768 22.8517 36.054 23.6466 29.8492C24.5493 22.8114 30.3338 17.4703 36.1285 13.3517C38.4433 11.7063 40.8327 10.1455 43.2967 8.71025C50.2487 4.65058 57.7693 1.5879 65.7117 0.452524C76.4704 -1.08779 88.0907 1.24959 96.3391 8.30274C105.632 16.2504 109.443 29.0675 109.081 41.3285C114.806 33.0349 123.636 26.6865 133.607 26.4174C143.96 26.1406 153.8 32.6581 158.985 41.5925C164.168 50.5242 165.099 61.473 163.162 71.6094Z" fill="#E6E6E6"/>
<path d="M97.6632 106.054C103.727 105.522 109.328 104.9 115.203 103.243C120.899 101.637 126.379 98.9492 130.433 94.5596C134.794 89.8384 137.148 83.7069 138.809 77.6032C139.735 74.2001 140.496 70.7494 141.214 67.2976C141.993 63.5524 142.685 59.7906 143.29 56.0122C144.495 48.4913 145.355 40.9261 145.871 33.3166C145.933 32.393 145.99 31.469 146.042 30.5446C146.074 29.9744 145.184 29.9763 145.152 30.5446C144.728 38.0454 143.967 45.517 142.867 52.9593C141.781 60.2713 140.392 67.5516 138.63 74.7326C137.137 80.816 135.204 86.9944 131.375 92.0585C127.785 96.8074 122.599 99.9107 117 101.766C111.302 103.654 105.295 104.408 99.3407 104.969C98.6103 105.037 98.394 105.103 97.6632 105.167C97.0971 105.217 97.0918 106.104 97.6632 106.054L97.6632 106.054Z" fill="white"/>
<path d="M1.92683 93.6766C9.57691 94.0995 17.1492 95.4291 24.4835 97.6374C31.821 99.8412 38.8721 102.9 45.4907 106.749C51.886 110.472 57.823 114.926 63.1809 120.021C68.381 124.969 73.0154 130.476 76.9996 136.44C81.002 142.419 84.3188 148.826 86.888 155.542C87.2013 156.364 87.5031 157.19 87.7933 158.021C87.9809 158.556 88.8409 158.326 88.6515 157.785C86.2478 150.927 83.0791 144.36 79.2049 138.207C75.3314 132.054 70.7855 126.347 65.6503 121.192C60.4329 115.956 54.6263 111.339 48.3458 107.431C35.1588 99.2456 20.2115 94.2939 4.7312 92.9823C3.7974 92.9044 2.86261 92.8402 1.92684 92.7899C1.35456 92.7587 1.35632 93.6455 1.92684 93.6767L1.92683 93.6766Z" fill="white"/>
<path d="M43.5361 9.74982C48.4274 11.2999 53.0638 13.5575 57.2967 16.4504C61.622 19.4265 65.5668 22.9173 69.0436 26.8456C72.7074 30.978 75.9648 35.4512 78.7708 40.2038C81.7472 45.2219 84.3328 50.4601 86.5049 55.8723C88.7415 61.4288 90.6227 67.121 92.1371 72.9145C93.6766 78.7767 94.879 84.7216 95.7386 90.7203C96.5939 96.6554 97.1115 102.634 97.2889 108.627C97.4677 114.358 97.2977 120.095 96.7798 125.805C96.3061 131.133 95.441 136.418 94.1916 141.62C93.0819 146.318 91.5181 150.897 89.5221 155.295C89.0597 156.293 88.5691 157.277 88.0503 158.247C87.7812 158.751 88.5491 159.199 88.8187 158.695C91.0246 154.495 92.7859 150.077 94.0744 145.514C95.52 140.434 96.5678 135.25 97.2085 130.009C97.9187 124.322 98.2646 118.596 98.244 112.865C98.2313 106.845 97.8716 100.83 97.1669 94.8511C96.4619 88.7972 95.4151 82.7878 94.0316 76.8513C92.6515 70.905 90.9008 65.0503 88.7896 59.3211C86.7549 53.7749 84.3187 48.3833 81.5001 43.1887C78.8157 38.2318 75.6873 33.5268 72.1531 29.1309C68.7968 24.9453 64.965 21.1615 60.7344 17.855C56.6549 14.6763 52.147 12.0852 47.3431 10.1579C46.1692 9.6923 44.9791 9.27124 43.7727 8.8947C43.2251 8.72303 42.9908 9.57886 43.5361 9.74982H43.5361Z" fill="white"/>
<path d="M96.3227 164C131.48 164 159.98 162.853 159.98 161.437C159.98 160.022 131.48 158.875 96.3227 158.875C61.1658 158.875 32.6655 160.022 32.6655 161.437C32.6655 162.853 61.1658 164 96.3227 164Z" fill="#E6E6E6"/>
<path d="M152.564 81.1638C152.533 81.3021 152.512 81.4426 152.503 81.5842L141.454 87.9356L138.769 86.395L135.906 90.1298L141.651 94.2101L154.256 84.3012C154.77 84.4907 155.33 84.5198 155.861 84.3846C156.392 84.2494 156.869 83.9563 157.229 83.5443C157.589 83.1322 157.814 82.6208 157.875 82.0779C157.936 81.5351 157.83 80.9866 157.571 80.5054C157.311 80.0242 156.911 79.6331 156.423 79.3841C155.935 79.1351 155.383 79.04 154.839 79.1115C154.296 79.183 153.787 79.4176 153.381 79.7842C152.974 80.1508 152.69 80.632 152.564 81.1638Z" fill="#FFB8B8"/>
<path d="M127.402 85.0604L136.101 91.2389L139.992 86.3778L131.536 79.6162C131.172 79.3253 130.752 79.1114 130.302 78.9878C129.853 78.8641 129.383 78.8333 128.92 78.8971C128.458 78.9609 128.014 79.118 127.615 79.3588C127.216 79.5997 126.871 79.9191 126.6 80.2976C126.073 81.0352 125.861 81.9513 126.011 82.8445C126.161 83.7377 126.662 84.5348 127.402 85.0604Z" fill="#0086DA"/>
<path d="M109.444 155.558L112.494 156.355L117.029 145.01L112.527 143.834L109.444 155.558Z" fill="#FFB8B8"/>
<path d="M117.635 160.713L108.048 158.21L109.019 154.519L114.901 156.055C115.884 156.312 116.723 156.946 117.236 157.82C117.749 158.693 117.892 159.734 117.635 160.713Z" fill="#2F2E41"/>
<path d="M136.559 157.722L139.663 157.17L139.001 144.976L134.42 145.792L136.559 157.722Z" fill="#FFB8B8"/>
<path d="M146.164 158.976L136.408 160.713L135.735 156.957L141.721 155.891C142.216 155.803 142.724 155.813 143.215 155.92C143.706 156.028 144.171 156.23 144.584 156.517C144.997 156.803 145.348 157.168 145.619 157.59C145.891 158.012 146.076 158.483 146.164 158.976Z" fill="#2F2E41"/>
<path d="M130.446 68.0475C131.211 68.233 131.833 69.0097 132.207 69.9094C132.552 70.8545 132.785 71.8362 132.903 72.8349C133.196 74.6947 133.478 76.7081 132.871 78.4307C132.159 80.4496 130.262 81.507 128.617 81.0101C126.972 80.5132 125.663 78.6479 125.216 76.5009C124.809 74.3314 125.072 72.0899 125.968 70.0719C126.436 69.0116 127.08 68.0335 127.936 67.5551C128.356 67.302 128.857 67.2168 129.337 67.3166C129.817 67.4163 130.242 67.6937 130.526 68.0928" fill="#2F2E41"/>
<path d="M134.774 101.721L140.684 154.465L135.803 156.311L126.801 120.943L114.268 153.281L108.925 153.577C108.925 153.577 116.256 103.259 121.688 102.115L134.774 101.721Z" fill="#2F2E41"/>
<path d="M129.81 74.779C133.299 74.779 136.127 71.9608 136.127 68.4842C136.127 65.0077 133.299 62.1895 129.81 62.1895C126.322 62.1895 123.493 65.0077 123.493 68.4842C123.493 71.9608 126.322 74.779 129.81 74.779Z" fill="#FFB8B8"/>
<path d="M132.522 77.4195L125.695 76.5322C125.695 76.5322 121.243 81.8559 121.54 91.0244C121.837 100.193 120.798 103.003 120.798 103.003L135.031 103.259C132.974 100.44 141.58 84.2479 132.522 77.4195Z" fill="#0086DA"/>
<path d="M136.189 104.54C136.046 104.541 135.904 104.553 135.764 104.577L127.031 95.3126L127.921 92.355L123.617 90.4326L120.946 96.9393L133.511 106.899C133.443 107.441 133.543 107.99 133.797 108.475C134.05 108.959 134.446 109.355 134.931 109.61C135.416 109.864 135.967 109.966 136.511 109.901C137.055 109.836 137.567 109.607 137.978 109.246C138.388 108.884 138.679 108.406 138.81 107.876C138.942 107.346 138.908 106.788 138.714 106.277C138.52 105.766 138.174 105.327 137.723 105.016C137.272 104.706 136.737 104.54 136.189 104.54Z" fill="#FFB8B8"/>
<path d="M126.624 81.0237L122.579 90.8765L128.218 93.5383L132.888 83.7876C133.089 83.3681 133.202 82.9122 133.22 82.4477C133.238 81.9832 133.16 81.52 132.992 81.0864C132.824 80.6527 132.569 80.2579 132.242 79.926C131.916 79.5941 131.525 79.3321 131.093 79.1561C130.676 78.9863 130.23 78.8999 129.78 78.9019C129.33 78.9039 128.885 78.9941 128.47 79.1675C128.055 79.341 127.678 79.5942 127.362 79.9126C127.045 80.2311 126.794 80.6087 126.624 81.0237Z" fill="#0086DA"/>
<path d="M128.158 74.2067C129.148 73.6377 129.253 72.2651 129.119 71.1344C128.984 70.0036 128.76 68.743 129.427 67.8185C130.223 66.715 131.822 66.693 133.185 66.657C134.549 66.621 136.209 66.2232 136.562 64.9105C136.796 64.0432 136.296 63.1124 135.58 62.568C134.863 62.0236 133.967 61.7828 133.095 61.5541C131.146 61.0423 129.133 60.5263 127.137 60.8076C125.16 61.0861 123.372 62.1292 122.161 63.7111C120.95 65.2929 120.412 67.2864 120.665 69.2601C120.988 71.7848 121.457 72.8873 121.149 74.0005C120.576 76.0739 118.106 77.4059 118.057 79.556C118.018 81.2378 119.509 82.5352 120.964 83.3891C122.117 84.0665 123.362 84.6412 124.692 84.7998C126.022 84.9583 127.453 84.6548 128.443 83.7568C129.721 82.5986 130.037 80.6637 129.671 78.9818C129.304 77.3 128.365 75.8065 127.435 74.356" fill="#2F2E41"/>
<path d="M247.685 76.0918H156.379C155.765 76.0927 155.177 76.336 154.743 76.7684C154.309 77.2008 154.065 77.7869 154.064 78.3984V136.833C154.065 137.444 154.309 138.031 154.743 138.463C155.177 138.895 155.765 139.139 156.379 139.14H247.685C248.299 139.139 248.887 138.895 249.321 138.463C249.755 138.031 249.999 137.444 250 136.833V78.3984C249.999 77.7869 249.755 77.2008 249.321 76.7684C248.887 76.336 248.299 76.0927 247.685 76.0918ZM249.486 136.833C249.485 137.309 249.295 137.765 248.958 138.101C248.62 138.437 248.163 138.626 247.685 138.627H156.379C155.902 138.626 155.444 138.437 155.107 138.101C154.769 137.765 154.579 137.309 154.579 136.833V78.3984C154.579 77.9228 154.769 77.4668 155.107 77.1304C155.444 76.7941 155.902 76.6049 156.379 76.6044H247.685C248.163 76.6049 248.62 76.7941 248.958 77.1304C249.295 77.4668 249.485 77.9228 249.486 78.3984V136.833Z" fill="#3F3D56"/>
<path d="M175.868 105.18H161.465C160.886 105.179 160.33 104.95 159.92 104.541C159.51 104.133 159.28 103.579 159.279 103.002V88.6492C159.28 88.0716 159.51 87.5179 159.92 87.1095C160.33 86.7011 160.886 86.4714 161.465 86.4707H175.868C176.448 86.4714 177.004 86.7011 177.414 87.1095C177.823 87.5179 178.054 88.0716 178.055 88.6492V103.002C178.054 103.579 177.823 104.133 177.414 104.541C177.004 104.95 176.448 105.179 175.868 105.18Z" fill="#0086DA"/>
<path d="M242.93 120.432H161.14C160.697 120.432 160.271 120.256 159.958 119.944C159.644 119.632 159.468 119.208 159.468 118.766C159.468 118.324 159.644 117.9 159.958 117.588C160.271 117.276 160.697 117.1 161.14 117.1H242.93C243.373 117.1 243.799 117.276 244.112 117.588C244.426 117.9 244.602 118.324 244.602 118.766C244.602 119.208 244.426 119.632 244.112 119.944C243.799 120.256 243.373 120.432 242.93 120.432Z" fill="#CCCCCC"/>
<path d="M242.985 112.359H161.195C160.752 112.359 160.326 112.183 160.013 111.871C159.699 111.558 159.523 111.135 159.523 110.693C159.523 110.251 159.699 109.827 160.013 109.515C160.326 109.202 160.752 109.027 161.195 109.027H242.985C243.428 109.027 243.853 109.202 244.167 109.515C244.48 109.827 244.657 110.251 244.657 110.693C244.657 111.135 244.48 111.558 244.167 111.871C243.853 112.183 243.428 112.359 242.985 112.359Z" fill="#CCCCCC"/>
<path d="M202.604 101.336H190.516C190.072 101.336 189.647 101.16 189.334 100.848C189.02 100.535 188.844 100.112 188.844 99.6698C188.844 99.228 189.02 98.8042 189.334 98.4918C189.647 98.1794 190.072 98.0039 190.516 98.0039H202.604C203.048 98.0039 203.473 98.1794 203.786 98.4918C204.1 98.8042 204.276 99.228 204.276 99.6698C204.276 100.112 204.1 100.535 203.786 100.848C203.473 101.16 203.048 101.336 202.604 101.336Z" fill="#CCCCCC"/>
<path d="M242.985 93.1365H190.516C190.072 93.1365 189.647 92.961 189.334 92.6486C189.02 92.3361 188.844 91.9124 188.844 91.4706C188.844 91.0288 189.02 90.605 189.334 90.2926C189.647 89.9802 190.072 89.8047 190.516 89.8047H242.985C243.428 89.8047 243.853 89.9802 244.167 90.2926C244.48 90.605 244.657 91.0288 244.657 91.4706C244.657 91.9124 244.48 92.3361 244.167 92.6486C243.853 92.961 243.428 93.1365 242.985 93.1365Z" fill="#CCCCCC"/>
<path d="M200.547 128.633H161.14C160.697 128.633 160.271 128.458 159.958 128.145C159.644 127.833 159.468 127.409 159.468 126.967C159.468 126.525 159.644 126.102 159.958 125.789C160.271 125.477 160.697 125.301 161.14 125.301H200.547C200.99 125.301 201.415 125.477 201.729 125.789C202.042 126.102 202.218 126.525 202.218 126.967C202.218 127.409 202.042 127.833 201.729 128.145C201.415 128.458 200.99 128.633 200.547 128.633Z" fill="#CCCCCC"/>
</g>
<defs>
<clipPath id="clip0">
<rect width="250" height="164" fill="white"/>
</clipPath>
</defs>
</svg>
