<svg width="23" height="23" viewBox="0 0 23 23" fill="none" xmlns="http://www.w3.org/2000/svg">
<path d="M22.2526 2.91019C22.3927 3.05078 22.4714 3.24119 22.4714 3.43969C22.4714 3.6382 22.3927 3.82861 22.2526 3.96919L20.6881 5.53519L17.6881 2.53519L19.2526 0.969193C19.3932 0.82859 19.584 0.749603 19.7828 0.749603C19.9817 0.749603 20.1724 0.82859 20.3131 0.969193L22.2526 2.90869V2.91019ZM19.6276 6.59419L16.6276 3.59419L6.40807 13.8152C6.32552 13.8977 6.26337 13.9984 6.22657 14.1092L5.01907 17.7302C4.99717 17.7962 4.99407 17.867 5.01009 17.9347C5.02612 18.0024 5.06066 18.0643 5.10984 18.1134C5.15901 18.1626 5.2209 18.1971 5.28858 18.2132C5.35626 18.2292 5.42706 18.2261 5.49307 18.2042L9.11407 16.9967C9.22472 16.9603 9.32538 16.8987 9.40807 16.8167L19.6276 6.59569V6.59419Z" fill="#0086DA"/>
<path fill-rule="evenodd" clip-rule="evenodd" d="M0.5 20.25C0.5 20.8467 0.737053 21.419 1.15901 21.841C1.58097 22.2629 2.15326 22.5 2.75 22.5H19.25C19.8467 22.5 20.419 22.2629 20.841 21.841C21.2629 21.419 21.5 20.8467 21.5 20.25V11.25C21.5 11.0511 21.421 10.8603 21.2803 10.7197C21.1397 10.579 20.9489 10.5 20.75 10.5C20.5511 10.5 20.3603 10.579 20.2197 10.7197C20.079 10.8603 20 11.0511 20 11.25V20.25C20 20.4489 19.921 20.6397 19.7803 20.7803C19.6397 20.921 19.4489 21 19.25 21H2.75C2.55109 21 2.36032 20.921 2.21967 20.7803C2.07902 20.6397 2 20.4489 2 20.25V3.75C2 3.55109 2.07902 3.36032 2.21967 3.21967C2.36032 3.07902 2.55109 3 2.75 3H12.5C12.6989 3 12.8897 2.92098 13.0303 2.78033C13.171 2.63968 13.25 2.44891 13.25 2.25C13.25 2.05109 13.171 1.86032 13.0303 1.71967C12.8897 1.57902 12.6989 1.5 12.5 1.5H2.75C2.15326 1.5 1.58097 1.73705 1.15901 2.15901C0.737053 2.58097 0.5 3.15326 0.5 3.75V20.25Z" fill="#0086DA"/>
</svg>
