<svg width="80" height="80" viewBox="0 0 80 80" fill="none" xmlns="http://www.w3.org/2000/svg">
<rect x="7" y="21" width="66" height="39" rx="3" stroke="white" stroke-width="0.5"/>
<rect x="40" y="37" width="29" height="3" rx="1.5" fill="#77C374"/>
<rect x="40" y="43" width="29" height="3" rx="1.5" fill="#77C374"/>
<rect x="40" y="49" width="29" height="3" rx="1.5" fill="#77C374"/>
<path d="M23 30C21.5 30 20.3281 30.5521 19.4844 31.6562C18.6406 32.7604 18.2188 34.1719 18.2188 35.8906C18.2083 38.026 18.8958 39.7188 20.2812 40.9688C20.4583 41.1354 20.5208 41.349 20.4688 41.6094L20.1094 42.3594C19.9948 42.6094 19.8255 42.8047 19.6016 42.9453C19.3776 43.0859 18.9062 43.2865 18.1875 43.5469C18.1562 43.5573 17.4974 43.7708 16.2109 44.1875C14.9245 44.6042 14.2396 44.8333 14.1562 44.875C13.2812 45.2396 12.7083 45.6198 12.4375 46.0156C12.1458 46.6719 12 48.3333 12 51H34C34 48.3333 33.8542 46.6719 33.5625 46.0156C33.2917 45.6198 32.7188 45.2396 31.8438 44.875C31.7604 44.8333 31.0755 44.6042 29.7891 44.1875C28.5026 43.7708 27.8438 43.5573 27.8125 43.5469C27.0938 43.2865 26.6224 43.0859 26.3984 42.9453C26.1745 42.8047 26.0052 42.6094 25.8906 42.3594L25.5312 41.6094C25.4792 41.349 25.5417 41.1354 25.7188 40.9688C27.1042 39.7188 27.7917 38.026 27.7812 35.8906C27.7812 34.1719 27.3594 32.7604 26.5156 31.6562C25.6719 30.5521 24.5 30 23 30Z" fill="white"/>
<rect x="54" y="30" width="15" height="4" rx="1" fill="#77C374"/>
</svg>
