<svg width="232" height="139" viewBox="0 0 232 139" fill="none" xmlns="http://www.w3.org/2000/svg">
<g clip-path="url(#clip0)">
<path d="M15.2131 101.775L13.8199 96.3094C11.3496 95.2682 8.82219 94.3663 6.24976 93.6081L6.07385 96.1481L5.36055 93.3499C2.17032 92.4438 0 92.0447 0 92.0447C0 92.0447 2.9316 103.132 9.08042 111.609L16.2451 112.861L10.6791 113.659C11.4528 114.585 12.2844 115.461 13.1688 116.283C22.1136 124.541 32.0764 128.33 35.4214 124.746C38.7664 121.162 34.2268 111.562 25.282 103.304C22.5091 100.744 19.0256 98.6895 15.5387 97.0726L15.2131 101.775Z" fill="#E6E6E6"/>
<path d="M28.4641 95.8393L30.1118 90.4445C28.5383 88.2831 26.8434 86.2117 25.0353 84.2402L23.5647 86.3241L24.4084 83.5619C22.1483 81.1462 20.4978 79.6887 20.4978 79.6887C20.4978 79.6887 17.245 90.6875 18.1032 101.105L23.586 105.86L18.4063 103.682C18.5876 104.872 18.8439 106.05 19.1739 107.208C22.5393 118.876 29.0989 127.242 33.8251 125.893C38.5513 124.544 39.6543 113.993 36.2889 102.325C35.2455 98.7078 33.3312 95.1583 31.1866 91.9815L28.4641 95.8393Z" fill="#E6E6E6"/>
<path d="M232.001 126.705H0.0214844V127.287H232.001V126.705Z" fill="#5A6872"/>
<path d="M36.6725 66.415C36.6725 66.415 34.866 88.0193 34.4781 92.6487C34.2122 95.5507 33.56 98.4047 32.5387 101.136C32.5387 101.136 31.763 102.679 31.763 104.222V123.897C31.763 123.897 30.2115 123.897 30.5994 125.44C30.9872 126.984 31.3751 129.684 31.3751 129.684H37.1933C37.1933 129.684 36.8054 128.527 37.969 128.141C39.1327 127.755 37.969 124.669 37.969 124.669L44.1751 101.522L53.4841 82.2326C53.4841 82.2326 58.9144 99.5929 60.0781 101.522C60.0781 101.522 64.3447 123.126 65.1205 125.055C65.8962 126.984 66.2841 126.984 65.8962 127.755C65.5083 128.527 65.5083 129.298 65.8962 129.684C66.2841 130.07 73.6538 129.684 73.6538 129.684L71.7144 102.293L68.2235 69.5017L50.3811 64.1007L36.6725 66.415Z" fill="#2F2E41"/>
<path d="M35.6405 126.598C35.6405 126.598 33.7011 119.654 30.5981 125.055C27.4951 130.456 27.4951 132.385 27.4951 132.385C27.4951 132.385 22.4526 139.715 29.4344 138.943C36.4162 138.171 34.8647 134.699 34.8647 134.699C34.8647 134.699 37.5799 133.156 37.5799 131.999C37.5799 130.842 35.6405 126.598 35.6405 126.598Z" fill="#2F2E41"/>
<path d="M67.0585 125.826C67.0585 125.826 68.9979 118.882 72.1009 124.283C75.2039 129.684 75.2039 131.613 75.2039 131.613C75.2039 131.613 80.2463 138.943 73.2646 138.172C66.2828 137.4 67.8343 133.928 67.8343 133.928C67.8343 133.928 65.1191 132.385 65.1191 131.227C65.1191 130.07 67.0585 125.826 67.0585 125.826Z" fill="#2F2E41"/>
<path d="M48.8292 14.3347C48.8292 14.3347 49.605 19.3499 47.2777 20.5073C44.9505 21.6646 52.3201 25.9082 54.2595 25.9082C56.1989 25.9082 59.6898 22.0504 59.6898 22.0504C59.6898 22.0504 57.7504 16.2636 58.1383 15.1063L48.8292 14.3347Z" fill="#F7A491"/>
<path d="M53.0966 18.1924C57.5952 18.1924 61.242 14.5653 61.242 10.091C61.242 5.61665 57.5952 1.9895 53.0966 1.9895C48.598 1.9895 44.9512 5.61665 44.9512 10.091C44.9512 14.5653 48.598 18.1924 53.0966 18.1924Z" fill="#F7A491"/>
<path d="M68.9981 26.6798L59.3014 20.8366C59.3014 20.8366 53.7843 27.0656 47.8155 20.1215L37.58 22.8219L39.1315 49.0553C39.1315 49.0553 36.8042 59.4714 37.58 61.4004C38.3557 63.3293 35.6406 64.1008 36.4163 64.4866C37.1921 64.8724 36.4163 67.5729 36.4163 67.5729C36.4163 67.5729 51.5436 75.2886 68.2223 69.5018L66.6708 64.4866C66.882 63.831 66.9216 63.1327 66.7858 62.4577C66.6501 61.7826 66.3435 61.1532 65.8951 60.6288C65.8951 60.6288 67.4466 58.3141 65.5072 56.3852C65.5072 56.3852 66.2829 52.9131 64.3435 51.37L63.9557 45.969L65.1193 43.2685L68.9981 26.6798Z" fill="#CFCCE0"/>
<path d="M48.9269 6.32947C48.9269 6.32947 47.9558 8.4197 51.8402 7.58361C51.8402 7.58361 53.2969 8.41971 53.2969 7.16557C53.2969 7.16557 55.2391 9.2558 55.7246 8.00166C56.2102 6.74752 57.1813 8.4197 57.1813 8.4197L58.1524 6.32947L59.1235 7.58361H62.5223C62.5223 7.58361 63.4934 -0.777321 51.8402 0.0587732C40.187 0.894868 45.9198 14.1419 45.9198 14.1419C45.9198 14.1419 46.0136 11.7641 46.9847 13.0182C47.9558 14.2724 48.9269 6.32947 48.9269 6.32947Z" fill="#2F2E41"/>
<path d="M72.4898 42.1111L72.8776 50.2126C72.8776 50.2126 74.4292 65.2581 71.3261 71.8165V75.2885C71.3261 75.2885 70.5504 84.1615 66.6716 83.7758C62.7928 83.39 67.8352 71.0449 67.8352 71.0449L67.0595 54.0704L66.2837 44.4258L72.4898 42.1111Z" fill="#F7A491"/>
<path d="M64.7331 27.0657L68.6024 26.4404C71.3896 29.104 73.2883 32.5539 74.0421 36.3245C75.2058 42.497 75.5936 43.6544 75.5936 43.6544L66.2846 45.9691L61.2422 36.3245L64.7331 27.0657Z" fill="#CFCCE0"/>
<path d="M109.283 22.6627H48.0723V52.9052H109.283V22.6627Z" fill="white"/>
<path d="M54.756 24.4815C53.1834 23.541 51.2872 23.6128 50.5664 23.6846C50.8409 24.3512 51.6646 26.0515 53.2371 26.9925C54.8135 27.9355 56.7072 27.8615 57.4269 27.7901C57.1525 27.1238 56.3288 25.4228 54.756 24.4815Z" fill="#0086DA"/>
<path d="M62.1461 43.1459H52.3174C52.0268 43.1456 51.7389 43.2022 51.4704 43.3126C51.2018 43.423 50.9577 43.585 50.7521 43.7893C50.5465 43.9935 50.3834 44.2361 50.2721 44.5031C50.1608 44.7701 50.1035 45.0563 50.1035 45.3454C50.1035 45.6344 50.1608 45.9207 50.2721 46.1877C50.3834 46.4547 50.5465 46.6973 50.7521 46.9015C50.9577 47.1058 51.2018 47.2678 51.4704 47.3782C51.7389 47.4886 52.0268 47.5452 52.3174 47.5449H62.1461C62.4367 47.5452 62.7245 47.4886 62.9931 47.3782C63.2617 47.2678 63.5058 47.1058 63.7114 46.9015C63.917 46.6973 64.0801 46.4547 64.1914 46.1877C64.3026 45.9207 64.3599 45.6344 64.3599 45.3454C64.3599 45.0563 64.3026 44.7701 64.1914 44.5031C64.0801 44.2361 63.917 43.9935 63.7114 43.7893C63.5058 43.585 63.2617 43.423 62.9931 43.3126C62.7245 43.2022 62.4367 43.1456 62.1461 43.1459Z" fill="#0086DA"/>
<path d="M106.654 19.929H51.5475C50.9064 19.929 50.2717 20.0545 49.6794 20.2985C49.0872 20.5425 48.549 20.9001 48.0958 21.351C47.6425 21.8018 47.2829 22.337 47.0376 22.9261C46.7923 23.5151 46.666 24.1465 46.666 24.7841V51.4881C46.666 52.7758 47.1803 54.0107 48.0958 54.9212C49.0112 55.8317 50.2528 56.3432 51.5475 56.3432H106.654C107.949 56.3432 109.19 55.8317 110.106 54.9212C111.021 54.0107 111.535 52.7758 111.535 51.4881V24.7841C111.535 24.1465 111.409 23.5151 111.164 22.9261C110.918 22.337 110.559 21.8018 110.106 21.351C109.652 20.9001 109.114 20.5425 108.522 20.2985C107.93 20.0545 107.295 19.929 106.654 19.929ZM50.184 23.2409C50.2929 23.2213 52.8733 22.7846 55.01 24.0633C57.1465 25.3418 57.9674 27.8141 58.0013 27.9187L58.0877 28.1853L57.8104 28.2342C57.4148 28.2956 57.0149 28.3248 56.6146 28.3215C55.3445 28.3457 54.0911 28.0315 52.9844 27.4115C50.8478 26.1332 50.027 23.6609 49.9932 23.5564L49.9068 23.2898L50.184 23.2409ZM62.1462 48.0339H52.3175C51.6007 48.0339 50.9132 47.7507 50.4063 47.2465C49.8994 46.7424 49.6146 46.0586 49.6146 45.3456C49.6146 44.6326 49.8994 43.9488 50.4063 43.4447C50.9132 42.9405 51.6007 42.6573 52.3175 42.6573H62.1462C62.863 42.6573 63.5505 42.9405 64.0574 43.4447C64.5643 43.9488 64.8491 44.6326 64.8491 45.3456C64.8491 46.0586 64.5643 46.7424 64.0574 47.2465C63.5505 47.7507 62.863 48.0339 62.1462 48.0339ZM106.867 47.5451C106.864 48.3222 106.553 49.0668 106.001 49.6163C105.448 50.1658 104.699 50.4755 103.918 50.4778H96.5466C95.7653 50.4755 95.0166 50.1658 94.4642 49.6163C93.9117 49.0668 93.6003 48.3222 93.598 47.5451V43.1461C93.6003 42.369 93.9117 41.6244 94.4642 41.0749C95.0166 40.5254 95.7653 40.2157 96.5466 40.2134H103.918C104.699 40.2157 105.448 40.5254 106.001 41.0749C106.553 41.6244 106.864 42.369 106.867 43.1461V47.5451Z" fill="#0086DA"/>
<path d="M98.8805 46.6893H95.6862C95.4581 46.6893 95.2393 46.7795 95.0781 46.9399C94.9168 47.1003 94.8262 47.3178 94.8262 47.5447C94.8262 47.7716 94.9168 47.9891 95.0781 48.1495C95.2393 48.3099 95.4581 48.4001 95.6862 48.4001H98.8805C99.1086 48.4001 99.3273 48.3099 99.4886 48.1495C99.6499 47.9891 99.7405 47.7716 99.7405 47.5447C99.7405 47.3178 99.6499 47.1003 99.4886 46.9399C99.3273 46.7795 99.1086 46.6893 98.8805 46.6893ZM98.8805 47.9113H95.6862C95.6377 47.9114 95.5897 47.902 95.5448 47.8837C95.5 47.8653 95.4593 47.8383 95.4249 47.8043C95.3906 47.7702 95.3634 47.7298 95.3448 47.6852C95.3262 47.6407 95.3166 47.5929 95.3166 47.5447C95.3166 47.4965 95.3262 47.4487 95.3448 47.4042C95.3634 47.3596 95.3906 47.3192 95.4249 47.2851C95.4593 47.2511 95.5 47.2241 95.5448 47.2057C95.5897 47.1874 95.6377 47.178 95.6862 47.1781H98.8805C98.9781 47.1784 99.0716 47.2171 99.1405 47.2858C99.2094 47.3545 99.2481 47.4476 99.2481 47.5447C99.2481 47.6418 99.2094 47.7349 99.1405 47.8036C99.0716 47.8723 98.9781 47.911 98.8805 47.9113Z" fill="#0086DA"/>
<path d="M104.777 46.6893H101.583C101.355 46.6893 101.136 46.7795 100.975 46.9399C100.813 47.1003 100.723 47.3178 100.723 47.5447C100.723 47.7716 100.813 47.9891 100.975 48.1495C101.136 48.3099 101.355 48.4001 101.583 48.4001H104.777C105.005 48.4001 105.224 48.3099 105.385 48.1495C105.546 47.9891 105.637 47.7716 105.637 47.5447C105.637 47.3178 105.546 47.1003 105.385 46.9399C105.224 46.7795 105.005 46.6893 104.777 46.6893ZM104.777 47.9113H101.583C101.534 47.9114 101.486 47.902 101.441 47.8837C101.396 47.8653 101.356 47.8383 101.321 47.8043C101.287 47.7702 101.26 47.7298 101.241 47.6852C101.223 47.6407 101.213 47.5929 101.213 47.5447C101.213 47.4965 101.223 47.4487 101.241 47.4042C101.26 47.3596 101.287 47.3192 101.321 47.2851C101.356 47.2511 101.396 47.2241 101.441 47.2057C101.486 47.1874 101.534 47.178 101.583 47.1781H104.777C104.875 47.1784 104.968 47.2171 105.037 47.2858C105.106 47.3545 105.145 47.4476 105.145 47.5447C105.145 47.6418 105.106 47.7349 105.037 47.8036C104.968 47.8723 104.875 47.911 104.777 47.9113Z" fill="#0086DA"/>
<path d="M98.8805 44.4901H95.6862C95.4581 44.4901 95.2393 44.5802 95.0781 44.7406C94.9168 44.9011 94.8262 45.1186 94.8262 45.3455C94.8262 45.5723 94.9168 45.7899 95.0781 45.9503C95.2393 46.1107 95.4581 46.2009 95.6862 46.2009H98.8805C99.1086 46.2009 99.3273 46.1107 99.4886 45.9503C99.6499 45.7899 99.7405 45.5723 99.7405 45.3455C99.7405 45.1186 99.6499 44.9011 99.4886 44.7406C99.3273 44.5802 99.1086 44.4901 98.8805 44.4901ZM98.8805 45.7121H95.6862C95.6378 45.7121 95.5899 45.7026 95.5451 45.6842C95.5004 45.6657 95.4598 45.6387 95.4256 45.6047C95.3913 45.5707 95.3642 45.5302 95.3457 45.4858C95.3271 45.4413 95.3176 45.3936 95.3176 45.3455C95.3176 45.2973 95.3271 45.2497 95.3457 45.2052C95.3642 45.1607 95.3913 45.1203 95.4256 45.0863C95.4598 45.0522 95.5004 45.0252 95.5451 45.0068C95.5899 44.9884 95.6378 44.9789 95.6862 44.9789H98.8805C98.9289 44.9789 98.9768 44.9884 99.0215 45.0068C99.0663 45.0252 99.1069 45.0522 99.1411 45.0863C99.1753 45.1203 99.2025 45.1607 99.221 45.2052C99.2395 45.2497 99.2491 45.2973 99.2491 45.3455C99.2491 45.3936 99.2395 45.4413 99.221 45.4858C99.2025 45.5302 99.1753 45.5707 99.1411 45.6047C99.1069 45.6387 99.0663 45.6657 99.0215 45.6842C98.9768 45.7026 98.9289 45.7121 98.8805 45.7121Z" fill="#0086DA"/>
<path d="M104.777 44.4901H101.583C101.355 44.4901 101.136 44.5802 100.975 44.7406C100.813 44.9011 100.723 45.1186 100.723 45.3455C100.723 45.5723 100.813 45.7899 100.975 45.9503C101.136 46.1107 101.355 46.2009 101.583 46.2009H104.777C105.005 46.2009 105.224 46.1107 105.385 45.9503C105.546 45.7899 105.637 45.5723 105.637 45.3455C105.637 45.1186 105.546 44.9011 105.385 44.7406C105.224 44.5802 105.005 44.4901 104.777 44.4901ZM104.777 45.7121H101.583C101.534 45.7121 101.486 45.7026 101.442 45.6842C101.397 45.6657 101.356 45.6387 101.322 45.6047C101.288 45.5707 101.261 45.5302 101.242 45.4858C101.224 45.4413 101.214 45.3936 101.214 45.3455C101.214 45.2973 101.224 45.2497 101.242 45.2052C101.261 45.1607 101.288 45.1203 101.322 45.0863C101.356 45.0522 101.397 45.0252 101.442 45.0068C101.486 44.9884 101.534 44.9789 101.583 44.9789H104.777C104.825 44.9789 104.873 44.9884 104.918 45.0068C104.963 45.0252 105.003 45.0522 105.038 45.0863C105.072 45.1203 105.099 45.1607 105.118 45.2052C105.136 45.2497 105.146 45.2973 105.146 45.3455C105.146 45.3936 105.136 45.4413 105.118 45.4858C105.099 45.5302 105.072 45.5707 105.038 45.6047C105.003 45.6387 104.963 45.6657 104.918 45.6842C104.873 45.7026 104.825 45.7121 104.777 45.7121Z" fill="#0086DA"/>
<path d="M98.8805 42.2904H95.6862C95.4581 42.2904 95.2393 42.3805 95.0781 42.5409C94.9168 42.7014 94.8262 42.9189 94.8262 43.1458C94.8262 43.3726 94.9168 43.5902 95.0781 43.7506C95.2393 43.911 95.4581 44.0011 95.6862 44.0011H98.8805C99.1086 44.0011 99.3273 43.911 99.4886 43.7506C99.6499 43.5902 99.7405 43.3726 99.7405 43.1458C99.7405 42.9189 99.6499 42.7014 99.4886 42.5409C99.3273 42.3805 99.1086 42.2904 98.8805 42.2904ZM98.8805 43.5124H95.6862C95.6377 43.5125 95.5897 43.5031 95.5448 43.4847C95.5 43.4664 95.4593 43.4394 95.4249 43.4053C95.3906 43.3713 95.3634 43.3308 95.3448 43.2863C95.3262 43.2417 95.3166 43.194 95.3166 43.1458C95.3166 43.0976 95.3262 43.0498 95.3448 43.0053C95.3634 42.9607 95.3906 42.9203 95.4249 42.8862C95.4593 42.8522 95.5 42.8252 95.5448 42.8068C95.5897 42.7884 95.6377 42.7791 95.6862 42.7792H98.8805C98.9781 42.7794 99.0716 42.8182 99.1405 42.8869C99.2094 42.9556 99.2481 43.0487 99.2481 43.1458C99.2481 43.2428 99.2094 43.3359 99.1405 43.4046C99.0716 43.4734 98.9781 43.5121 98.8805 43.5124Z" fill="#0086DA"/>
<path d="M104.777 42.2904H101.583C101.355 42.2904 101.136 42.3805 100.975 42.5409C100.813 42.7014 100.723 42.9189 100.723 43.1458C100.723 43.3726 100.813 43.5902 100.975 43.7506C101.136 43.911 101.355 44.0011 101.583 44.0011H104.777C105.005 44.0011 105.224 43.911 105.385 43.7506C105.546 43.5902 105.637 43.3726 105.637 43.1458C105.637 42.9189 105.546 42.7014 105.385 42.5409C105.224 42.3805 105.005 42.2904 104.777 42.2904ZM104.777 43.5124H101.583C101.534 43.5125 101.486 43.5031 101.441 43.4847C101.396 43.4664 101.356 43.4394 101.321 43.4053C101.287 43.3713 101.26 43.3308 101.241 43.2863C101.223 43.2417 101.213 43.194 101.213 43.1458C101.213 43.0976 101.223 43.0498 101.241 43.0053C101.26 42.9607 101.287 42.9203 101.321 42.8862C101.356 42.8522 101.396 42.8252 101.441 42.8068C101.486 42.7884 101.534 42.7791 101.583 42.7792H104.777C104.875 42.7794 104.968 42.8182 105.037 42.8869C105.106 42.9556 105.145 43.0487 105.145 43.1458C105.145 43.2428 105.106 43.3359 105.037 43.4046C104.968 43.4734 104.875 43.5121 104.777 43.5124Z" fill="#0086DA"/>
<path d="M31.7629 37.4817C31.7629 37.4817 28.272 52.1414 32.5386 52.1414C36.8053 52.1414 46.8901 35.5527 46.8901 35.5527C46.8901 35.5527 57.3628 30.1518 53.0961 28.2228C48.8295 26.2939 43.3992 31.3091 43.3992 31.3091L37.1334 39.9614L36.8053 35.5527L31.7629 37.4817Z" fill="#F7A491"/>
<path d="M39.9079 25.137L37.5806 22.8223C37.5806 22.8223 32.9261 25.5228 32.5382 28.2232C32.1503 30.9237 30.2109 39.411 30.2109 39.411L37.3867 39.9897L39.7139 36.5176L39.9079 25.137Z" fill="#CFCCE0"/>
<path d="M150.154 19.6489C149.862 18.7908 146.198 15.8737 148.443 15.3834L150.285 17.8254L158.75 9.4054L159.602 10.2523L150.154 19.6489Z" fill="#0086DA"/>
<path d="M150.154 48.2804C149.862 47.4222 146.198 44.5051 148.443 44.0148L150.285 46.4568L158.75 38.0369L159.602 38.8837L150.154 48.2804Z" fill="#0086DA"/>
<path d="M150.154 77.3207C149.862 76.4625 146.198 73.5454 148.443 73.0551L150.285 75.4971L158.75 67.0771L159.602 67.924L150.154 77.3207Z" fill="#0086DA"/>
<path d="M175.798 18.7654C177.241 18.7654 178.41 17.6021 178.41 16.1671C178.41 14.7321 177.241 13.5688 175.798 13.5688C174.355 13.5688 173.186 14.7321 173.186 16.1671C173.186 17.6021 174.355 18.7654 175.798 18.7654Z" fill="#5A6872"/>
<path d="M227.653 15.9072H185.594V16.4269H227.653V15.9072Z" fill="#5A6872"/>
<path d="M175.798 47.3972C177.241 47.3972 178.41 46.2339 178.41 44.799C178.41 43.364 177.241 42.2007 175.798 42.2007C174.355 42.2007 173.186 43.364 173.186 44.799C173.186 46.2339 174.355 47.3972 175.798 47.3972Z" fill="#5A6872"/>
<path d="M227.653 44.5389H185.594V45.0586H227.653V44.5389Z" fill="#5A6872"/>
<path d="M175.798 76.4374C177.241 76.4374 178.41 75.2741 178.41 73.8391C178.41 72.4041 177.241 71.2408 175.798 71.2408C174.355 71.2408 173.186 72.4041 173.186 73.8391C173.186 75.2741 174.355 76.4374 175.798 76.4374Z" fill="#5A6872"/>
<path d="M227.653 73.5792H185.594V74.0989H227.653V73.5792Z" fill="#5A6872"/>
<path d="M156.753 81.1921H143.691V67.9409H152.573V68.4606H144.214V80.6725H156.231V74.6964H156.753V81.1921Z" fill="#5A6872"/>
<path d="M156.753 52.0914H143.691V38.8402H152.573V39.3599H144.214V51.5718H156.231V45.5957H156.753V52.0914Z" fill="#5A6872"/>
<path d="M156.753 22.4712H143.691V9.21997H152.573V9.73963H144.214V21.9515H156.231V15.9755H156.753V22.4712Z" fill="#5A6872"/>
</g>
<defs>
<clipPath id="clip0">
<rect width="232" height="139" fill="white"/>
</clipPath>
</defs>
</svg>
