<svg width="24" height="24" viewBox="0 0 24 24" fill="none" xmlns="http://www.w3.org/2000/svg">
<circle cx="12" cy="12" r="11.5" fill="white" stroke="#8C9BA5"/>
<path d="M10.5519 7.33333L9.21859 8.66667H6.66659V16.6667H17.3333V8.66667H14.7813L13.4479 7.33333H10.5519ZM9.99992 6H13.9999L15.3333 7.33333H17.9999C18.1767 7.33333 18.3463 7.40357 18.4713 7.5286C18.5963 7.65362 18.6666 7.82319 18.6666 8V17.3333C18.6666 17.5101 18.5963 17.6797 18.4713 17.8047C18.3463 17.9298 18.1767 18 17.9999 18H5.99992C5.82311 18 5.65354 17.9298 5.52851 17.8047C5.40349 17.6797 5.33325 17.5101 5.33325 17.3333V8C5.33325 7.82319 5.40349 7.65362 5.52851 7.5286C5.65354 7.40357 5.82311 7.33333 5.99992 7.33333H8.66659L9.99992 6ZM11.9999 16C11.0275 16 10.0948 15.6137 9.40719 14.9261C8.71956 14.2384 8.33325 13.3058 8.33325 12.3333C8.33325 11.3609 8.71956 10.4282 9.40719 9.74061C10.0948 9.05297 11.0275 8.66667 11.9999 8.66667C12.9724 8.66667 13.905 9.05297 14.5926 9.74061C15.2803 10.4282 15.6666 11.3609 15.6666 12.3333C15.6666 13.3058 15.2803 14.2384 14.5926 14.9261C13.905 15.6137 12.9724 16 11.9999 16ZM11.9999 14.6667C12.6188 14.6667 13.2122 14.4208 13.6498 13.9832C14.0874 13.5457 14.3333 12.9522 14.3333 12.3333C14.3333 11.7145 14.0874 11.121 13.6498 10.6834C13.2122 10.2458 12.6188 10 11.9999 10C11.3811 10 10.7876 10.2458 10.35 10.6834C9.91242 11.121 9.66659 11.7145 9.66659 12.3333C9.66659 12.9522 9.91242 13.5457 10.35 13.9832C10.7876 14.4208 11.3811 14.6667 11.9999 14.6667Z" fill="#8C9BA5"/>
</svg>
