<svg width="41" height="38" viewBox="0 0 41 38" fill="none" xmlns="http://www.w3.org/2000/svg">
<path d="M20.2337 17.0333C20.2059 16.9979 20.1704 16.9692 20.1299 16.9494C20.0894 16.9297 20.045 16.9194 19.9999 16.9194C19.9548 16.9194 19.9104 16.9297 19.8699 16.9494C19.8294 16.9692 19.7939 16.9979 19.7661 17.0333L15.6099 22.2917C15.5756 22.3355 15.5543 22.388 15.5485 22.4433C15.5427 22.4985 15.5525 22.5543 15.5769 22.6043C15.6013 22.6542 15.6392 22.6963 15.6864 22.7257C15.7336 22.755 15.7881 22.7706 15.8436 22.7704H18.586V31.7658C18.586 31.929 18.7196 32.0626 18.8829 32.0626H21.1095C21.2727 32.0626 21.4063 31.929 21.4063 31.7658V22.7742H24.1561C24.4048 22.7742 24.5421 22.4884 24.3899 22.2954L20.2337 17.0333Z" fill="#0086DA"/>
<path d="M31.1105 13.608C29.4109 9.1252 25.0803 5.9375 20.0074 5.9375C14.9346 5.9375 10.6039 9.12148 8.9043 13.6043C5.72402 14.4393 3.375 17.3375 3.375 20.7812C3.375 24.8818 6.69629 28.2031 10.7932 28.2031H12.2812C12.4445 28.2031 12.5781 28.0695 12.5781 27.9062V25.6797C12.5781 25.5164 12.4445 25.3828 12.2812 25.3828H10.7932C9.54258 25.3828 8.36621 24.8855 7.49043 23.9838C6.61836 23.0857 6.15449 21.876 6.19531 20.6217C6.22871 19.642 6.5627 18.7217 7.16758 17.9461C7.7873 17.1557 8.65566 16.5805 9.62051 16.3244L11.027 15.957L11.5428 14.5988C11.8619 13.7527 12.3072 12.9623 12.8676 12.2461C13.4208 11.5362 14.0761 10.9122 14.8121 10.3943C16.3373 9.32188 18.1334 8.7541 20.0074 8.7541C21.8814 8.7541 23.6775 9.32188 25.2027 10.3943C25.9412 10.9139 26.5943 11.5373 27.1473 12.2461C27.7076 12.9623 28.1529 13.7564 28.4721 14.5988L28.9842 15.9533L30.3869 16.3244C32.3982 16.8662 33.8047 18.6957 33.8047 20.7812C33.8047 22.0096 33.326 23.1674 32.4576 24.0357C32.0318 24.4641 31.5252 24.8037 30.9672 25.0349C30.4092 25.2662 29.8108 25.3844 29.2068 25.3828H27.7188C27.5555 25.3828 27.4219 25.5164 27.4219 25.6797V27.9062C27.4219 28.0695 27.5555 28.2031 27.7188 28.2031H29.2068C33.3037 28.2031 36.625 24.8818 36.625 20.7812C36.625 17.3412 34.2834 14.4467 31.1105 13.608Z" fill="#0086DA"/>
</svg>
