<svg width="36" height="26" viewBox="0 0 36 26" fill="none" xmlns="http://www.w3.org/2000/svg">
<path fill-rule="evenodd" clip-rule="evenodd" d="M18 0.5C15.0305 0.509312 12.1623 1.5803 9.9135 3.5195C8.19 5.0045 6.94125 6.9395 6.6195 8.88125C2.8485 9.71375 0 12.9987 0 16.9655C0 21.5735 3.843 25.25 8.50725 25.25H28.5457C32.6295 25.25 36 22.0325 36 17.9893C36 14.3082 33.2055 11.309 29.6235 10.8027C29.0768 4.99775 24.0525 0.5 18 0.5ZM23.2965 15.9215L18.7965 20.4215C18.692 20.5263 18.5679 20.6094 18.4312 20.6661C18.2945 20.7228 18.148 20.752 18 20.752C17.852 20.752 17.7055 20.7228 17.5688 20.6661C17.4321 20.6094 17.308 20.5263 17.2035 20.4215L12.7035 15.9215C12.5989 15.8169 12.5159 15.6927 12.4593 15.5561C12.4027 15.4194 12.3736 15.2729 12.3736 15.125C12.3736 14.9771 12.4027 14.8306 12.4593 14.6939C12.5159 14.5573 12.5989 14.4331 12.7035 14.3285C12.9147 14.1173 13.2013 13.9986 13.5 13.9986C13.6479 13.9986 13.7944 14.0277 13.9311 14.0843C14.0677 14.1409 14.1919 14.2239 14.2965 14.3285L16.875 16.9093V8.375C16.875 8.07663 16.9935 7.79048 17.2045 7.5795C17.4155 7.36853 17.7016 7.25 18 7.25C18.2984 7.25 18.5845 7.36853 18.7955 7.5795C19.0065 7.79048 19.125 8.07663 19.125 8.375V16.9093L21.7035 14.3285C21.9147 14.1173 22.2013 13.9986 22.5 13.9986C22.7987 13.9986 23.0853 14.1173 23.2965 14.3285C23.5077 14.5397 23.6264 14.8263 23.6264 15.125C23.6264 15.4237 23.5077 15.7103 23.2965 15.9215Z" fill="#5A6872"/>
</svg>
