<svg width="18" height="5" viewBox="0 0 18 5" fill="none" xmlns="http://www.w3.org/2000/svg">
<path d="M2 0.5C3.10457 0.5 4 1.39543 4 2.5C4 3.60457 3.10457 4.5 2 4.5C0.89543 4.5 -3.91405e-08 3.60457 -8.74228e-08 2.5C-1.35705e-07 1.39543 0.89543 0.5 2 0.5Z" fill="#0086DA"/>
<path d="M9 0.5C10.1046 0.5 11 1.39543 11 2.5C11 3.60457 10.1046 4.5 9 4.5C7.89543 4.5 7 3.60457 7 2.5C7 1.39543 7.89543 0.5 9 0.5Z" fill="#0086DA"/>
<path d="M16 0.499999C17.1046 0.499999 18 1.39543 18 2.5C18 3.60457 17.1046 4.5 16 4.5C14.8954 4.5 14 3.60457 14 2.5C14 1.39543 14.8954 0.499999 16 0.499999Z" fill="#0086DA"/>
</svg>
