<svg width="12" height="12" viewBox="0 0 12 12" fill="none" xmlns="http://www.w3.org/2000/svg">
<circle cx="6" cy="6" r="6" fill="#E71D32"/>
<path d="M6.67871 7.11475H5.76025L5.65918 2.60156H6.78418L6.67871 7.11475ZM5.62842 8.49463C5.62842 8.32764 5.68262 8.18994 5.79102 8.08154C5.89941 7.97021 6.04736 7.91455 6.23486 7.91455C6.42236 7.91455 6.57031 7.97021 6.67871 8.08154C6.78711 8.18994 6.84131 8.32764 6.84131 8.49463C6.84131 8.65576 6.78857 8.79053 6.68311 8.89893C6.57764 9.00732 6.42822 9.06152 6.23486 9.06152C6.0415 9.06152 5.89209 9.00732 5.78662 8.89893C5.68115 8.79053 5.62842 8.65576 5.62842 8.49463Z" fill="white"/>
</svg>
