<svg width="30" height="30" viewBox="0 0 30 30" fill="none" xmlns="http://www.w3.org/2000/svg">
<circle cx="15" cy="15" r="14.5" fill="#E71D32" stroke="#E71D32"/>
<path d="M4.81934 5H24.6686V25H4.81934V5Z" fill="#E71D32"/>
<path d="M21.2372 18.9246C21.1445 18.8995 21.0489 18.8868 20.9529 18.8868C20.272 18.9422 19.7099 19.4456 19.5755 20.1205C19.4689 20.4995 19.4898 20.9034 19.6349 21.2692C19.7687 21.6213 20.0591 21.8894 20.4188 21.9931L21.5808 22.3078C20.5212 22.944 19.1504 22.5942 18.5191 21.5267C18.2226 21.0253 18.131 20.4275 18.2637 19.8593C18.2874 19.7536 18.2556 19.6431 18.1793 19.5666L11.1391 12.4666C11.0392 12.372 10.8897 12.3541 10.7705 12.4225C10.448 12.594 10.0889 12.6837 9.72419 12.6838C8.78447 12.6846 7.94508 12.0918 7.62524 11.2014L8.33739 11.6011C8.5034 11.6948 8.69061 11.7436 8.88087 11.7428C9.45917 11.7092 9.97641 11.3689 10.2396 10.849C10.6643 10.0842 10.4988 9.17466 9.87412 8.82218L8.9652 8.30289C10.1267 7.88483 11.4046 8.49471 11.8195 9.66503C11.9635 10.0712 11.9886 10.5106 11.8919 10.9308C11.8681 11.0364 11.8999 11.147 11.9762 11.2235L19.032 18.3298C19.1285 18.4271 19.2764 18.45 19.3975 18.3864C19.72 18.2151 20.0792 18.1254 20.4438 18.1252C21.2348 18.1246 21.9669 18.5461 22.3679 19.233L21.2372 18.9246Z" fill="white"/>
<path d="M8.5123 22.6225L7.44096 21.5493L11.1547 17.8168L11.692 18.3581L12.2042 18.8931L8.5123 22.6225Z" fill="white"/>
<path fill-rule="evenodd" clip-rule="evenodd" d="M23.1893 19.5446C23.0515 19.0888 22.8036 18.6747 22.4678 18.3392C21.933 17.7974 21.2053 17.4937 20.4469 17.4958C20.0594 17.496 19.6758 17.5752 19.3194 17.7287L16.5083 14.8962L20.2408 11.1637L21.1247 11.1385C21.2317 11.1352 21.3295 11.077 21.384 10.9843L22.649 8.84106C22.7225 8.71738 22.7032 8.55915 22.6021 8.4571L21.5089 7.35559C21.4076 7.25378 21.2506 7.23431 21.1279 7.30839L19.0008 8.58299C18.9088 8.63791 18.851 8.73645 18.8477 8.84421L18.8228 9.73171L15.0996 13.4768L12.5447 10.9025C12.8129 9.3352 11.7695 7.84557 10.214 7.57527C9.49333 7.45001 8.75238 7.60792 8.14373 8.0165C8.00084 8.11387 7.96332 8.3095 8.05995 8.45348C8.08712 8.49397 8.12328 8.52752 8.1656 8.55152L9.58364 9.34775C9.89598 9.52714 9.95845 10.0622 9.70545 10.5154C9.45245 10.9685 8.96832 11.2014 8.65285 11.0252L7.33789 10.3076C7.18675 10.2238 6.99681 10.2794 6.91369 10.4317C6.88503 10.4841 6.87183 10.5437 6.87566 10.6035C6.97448 12.1908 8.33165 13.3967 9.90695 13.2972C10.2324 13.2766 10.552 13.2 10.8518 13.0709L13.1756 15.4124L12.1699 16.4257L11.9419 16.1991C11.6895 15.9558 11.2916 15.9558 11.0392 16.1991L10.7269 16.5139C10.4889 16.7473 10.4738 17.1275 10.6925 17.3793L6.99747 21.0961C6.74822 21.3365 6.73952 21.7349 6.97803 21.9861C6.98435 21.9928 6.99084 21.9993 6.99747 22.0057L8.05319 23.0694C8.29171 23.3206 8.68717 23.3293 8.93642 23.089C8.94306 23.0826 8.94954 23.0761 8.95587 23.0694L12.654 19.3463C12.9039 19.5667 13.2813 19.5515 13.513 19.3117L13.8253 18.997C14.0746 18.7567 14.0833 18.3582 13.8447 18.107C13.8384 18.1004 13.8319 18.0938 13.8253 18.0874L13.5973 17.8577L14.5968 16.8286L17.6265 19.8813C17.3648 21.4497 18.4144 22.9349 19.971 23.1987C20.8929 23.3549 21.8324 23.0468 22.4866 22.3739C22.6013 22.2441 22.5899 22.0452 22.4611 21.9296C22.4278 21.8997 22.3886 21.8774 22.346 21.8641L20.5875 21.3888C20.4152 21.333 20.2788 21.1991 20.219 21.0269C20.1276 20.7896 20.1166 20.5285 20.1877 20.2842C20.3189 19.7901 20.7343 19.4376 21.0842 19.532L22.8239 20.0041C22.8519 20.0082 22.8803 20.0082 22.9083 20.0041C23.0807 20.0062 23.2223 19.867 23.2243 19.6932C23.2249 19.6415 23.2129 19.5905 23.1893 19.5446ZM19.435 9.86704C19.433 9.94741 19.4006 10.024 19.3444 10.081L15.54 13.9206L16.0773 14.4619L19.8879 10.6255C19.9445 10.5689 20.0205 10.5362 20.1002 10.5342L20.9498 10.5028L21.9806 8.72147L21.2309 7.96615L19.4599 9.02674L19.435 9.86704ZM7.44096 21.5493L8.5123 22.6225L12.2042 18.8931L11.692 18.3581L11.1547 17.8168L7.44096 21.5493ZM12.6696 18.4273L13.0819 18.8459L13.3849 18.5343L11.5108 16.6209L11.1985 16.9356L12.5103 18.2668L12.6696 18.4273ZM12.604 16.8695L13.1412 17.4108L14.147 16.3974L13.6097 15.8561L12.604 16.8695ZM20.9529 18.8868C21.0489 18.8868 21.1445 18.8995 21.2372 18.9246L22.3679 19.233C21.9669 18.5461 21.2348 18.1246 20.4438 18.1252C20.0792 18.1254 19.72 18.2151 19.3975 18.3864C19.2764 18.45 19.1285 18.4271 19.032 18.3298L11.9762 11.2235C11.8999 11.147 11.8681 11.0364 11.8919 10.9308C11.9886 10.5106 11.9635 10.0712 11.8195 9.66503C11.4046 8.49471 10.1267 7.88483 8.9652 8.30289L9.87412 8.82218C10.4988 9.17466 10.6643 10.0842 10.2396 10.849C9.97641 11.3689 9.45917 11.7092 8.88087 11.7428C8.69061 11.7436 8.5034 11.6948 8.33739 11.6011L7.62524 11.2014C7.94508 12.0918 8.78447 12.6846 9.72419 12.6838C10.0889 12.6837 10.448 12.594 10.7705 12.4225C10.8897 12.3541 11.0392 12.372 11.1391 12.4666L18.1793 19.5666C18.2556 19.6431 18.2874 19.7536 18.2637 19.8593C18.131 20.4275 18.2226 21.0253 18.5191 21.5267C19.1504 22.5942 20.5212 22.944 21.5808 22.3078L20.4188 21.9931C20.0591 21.8894 19.7687 21.6213 19.6349 21.2692C19.4898 20.9034 19.4689 20.4995 19.5755 20.1205C19.7099 19.4456 20.272 18.9422 20.9529 18.8868Z" fill="white"/>
<path d="M13.1412 17.4108L12.604 16.8695L13.6097 15.8561L14.147 16.3974L13.1412 17.4108Z" fill="white"/>
<path d="M19.3444 10.081C19.4006 10.024 19.433 9.94741 19.435 9.86704L19.4599 9.02674L21.2309 7.96615L21.9806 8.72147L20.9498 10.5028L20.1002 10.5342C20.0205 10.5362 19.9445 10.5689 19.8879 10.6255L16.0773 14.4619L15.54 13.9206L19.3444 10.081Z" fill="white"/>
<path d="M13.0819 18.8459L12.6696 18.4273L12.5103 18.2668L11.1985 16.9356L11.5108 16.6209L13.3849 18.5343L13.0819 18.8459Z" fill="white"/>
</svg>
