<svg width="32" height="32" viewBox="0 0 32 32" fill="none" xmlns="http://www.w3.org/2000/svg">
<circle cx="16" cy="16" r="16" fill="#619BC7"/>
<path d="M12.0185 5.99638C11.9497 6.02591 11.8416 6.09474 11.7825 6.15359C11.527 6.39449 11.527 6.37474 11.527 8.6408V10.7545L10.2243 10.7692C8.95604 10.7839 8.92163 10.7888 8.8135 10.892C8.71514 10.9952 8.71026 11.015 8.77908 11.1476C8.84323 11.2854 12.2348 14.6426 12.3036 14.6426C12.3234 14.6377 13.1294 13.861 14.0977 12.9074C15.2578 11.7621 15.8524 11.1427 15.8524 11.0789C15.8475 10.7987 15.6705 10.7643 14.2451 10.7594H13.1047L13.0901 8.63103C13.0754 6.51749 13.0754 6.50751 12.9624 6.32566C12.7754 6.02102 12.338 5.8687 12.0185 5.99638Z" fill="white"/>
<path d="M17.971 10.2281C17.8482 10.2921 17.7057 10.4051 17.6515 10.4788C17.5483 10.6165 17.5483 10.6755 17.5336 13.7622L17.5238 16.9031H12.6331H7.74217V15.34C7.74217 14.3617 7.72242 13.7081 7.688 13.5853C7.57987 13.2018 7.1276 12.9167 6.74435 12.9905C6.48879 13.0395 6.25766 13.2165 6.13487 13.4623L6.02185 13.6787V17.2866V20.8944L6.1644 21.0369L6.30694 21.1795H7.0492H7.78656L7.81609 20.9976C7.94397 20.167 8.15026 19.7294 8.64184 19.2429C9.05481 18.835 9.35945 18.6581 9.88544 18.5253C10.844 18.2795 11.7976 18.5448 12.5103 19.2627C12.9724 19.7247 13.2968 20.4423 13.2968 20.993V21.1797H15.8772H18.4577V20.9683C18.4577 20.3932 18.7626 19.7396 19.2688 19.238C20.3501 18.1567 22.0262 18.1567 23.1029 19.238C23.6042 19.7394 23.9139 20.403 23.9139 20.9781V21.1797H24.8036H25.6931L25.8357 21.0371L25.9782 20.8946V20.1033C25.9782 19.6314 25.9585 19.2677 25.9242 19.1989C25.8652 19.071 25.6931 18.968 25.5359 18.968C25.4376 18.968 25.4376 18.9138 25.4327 16.4219C25.4327 14.151 25.4229 13.8561 25.3492 13.6743C25.2313 13.3745 22.9259 10.3662 22.7243 10.2434C22.572 10.1499 22.4639 10.145 20.3748 10.1304L18.1875 10.1155L17.971 10.2281ZM21.6035 11.6929C21.7018 11.7175 21.8493 11.8108 21.9328 11.8994C22.0851 12.0566 23.4712 13.9343 23.4712 13.9785C23.4712 13.9932 22.5423 14.0031 21.4068 14.0031H19.3425V12.8235V11.6438H20.3894C20.9596 11.6438 21.5102 11.6682 21.6035 11.6929Z" fill="white"/>
<path d="M10.0525 19.2833C9.07442 19.5684 8.45495 20.5269 8.62703 21.4854C8.86304 22.7781 10.2048 23.4957 11.36 22.955C11.7828 22.7583 12.1318 22.4193 12.3283 22.0212C12.4758 21.7165 12.4855 21.6624 12.4855 21.1806C12.4855 20.6939 12.4758 20.6399 12.3234 20.3351C12.1169 19.9172 11.6893 19.5093 11.2961 19.3619C10.9471 19.2291 10.3671 19.1898 10.0525 19.2833ZM10.8931 20.6203C11.0356 20.6892 11.2273 21.0136 11.2324 21.1759C11.2324 21.3233 11.0308 21.6526 10.8931 21.7363C10.5489 21.9379 10.0869 21.7707 9.95433 21.3872C9.89039 21.2054 9.89039 21.1561 9.95433 20.9743C10.0869 20.5957 10.5294 20.4285 10.8931 20.6203Z" fill="white"/>
<path d="M20.6057 19.3075C20.0699 19.4844 19.6669 19.8335 19.4211 20.3446C19.2786 20.6395 19.2688 20.7034 19.2688 21.1801C19.2688 21.6373 19.2835 21.7257 19.4016 21.9812C19.6769 22.5661 20.252 23.0037 20.8959 23.1118C21.7167 23.2544 22.6015 22.7728 22.9701 21.9812C23.088 21.7257 23.1029 21.6371 23.1029 21.1801C23.1029 20.7132 23.0882 20.6346 22.9603 20.3544C22.7736 19.9514 22.3115 19.5138 21.9134 19.3614C21.5151 19.2042 20.9745 19.1845 20.6057 19.3075ZM21.5347 20.6346C21.6919 20.7329 21.8493 20.9983 21.8493 21.1801C21.8493 21.2392 21.81 21.3669 21.7658 21.4603C21.5398 21.9372 20.8319 21.9372 20.6059 21.4603C20.5026 21.2441 20.5026 21.1162 20.6059 20.8999C20.7091 20.6788 20.9352 20.5411 21.1858 20.5411C21.294 20.5411 21.4512 20.5853 21.5347 20.6346Z" fill="white"/>
</svg>
