<svg width="30" height="30" viewBox="0 0 30 30" fill="none" xmlns="http://www.w3.org/2000/svg">
<circle cx="15" cy="15" r="14.5" fill="white" stroke="#2FA8CE" stroke-dasharray="2 1.5"/>
<path fill-rule="evenodd" clip-rule="evenodd" d="M15.5056 5.14434L15.2556 5L15.0056 5.14434L14.0823 5.6774L14.5823 6.54342L15.2556 6.1547L15.9289 6.54342L16.4289 5.6774L15.5056 5.14434ZM13.3437 6.10385L11.4971 7.16997L11.9971 8.03599L13.8437 6.96987L13.3437 6.10385ZM19.0141 7.16997L17.1675 6.10385L16.6675 6.96987L18.0822 7.78663L17.8576 7.91632L18.3576 8.78235L19.2809 8.24929L18.8359 7.47861L19.0141 7.16997ZM10.7585 7.59641L8.91192 8.66253L9.41192 9.52856L11.2585 8.46244L10.7585 7.59641ZM21.5993 8.66253L19.7527 7.59641L19.2527 8.46244L21.0993 9.52856L21.5993 8.66253ZM8.17329 9.08898L7.25 9.62204L7 9.76638V10.0551V11.1212H8V10.9213L8.17304 11.0212L8.67304 10.1552L8.49982 10.0552L8.67329 9.95501L8.17329 9.08898ZM23.2612 9.62204L22.3379 9.08898L21.8379 9.95501L22.0112 10.055L21.8377 10.1552L22.3377 11.0212L22.5112 10.921V11.1212H23.5112V10.0551V9.76638L23.2612 9.62204ZM7 11.9741V14.1063H8V11.9741H7ZM23.5112 14.1063V11.9741H22.5112V14.1063H23.5112ZM7 14.9592V17.0914H8V14.9592H7ZM23.5112 17.0914V14.9592H22.5112V17.0914H23.5112ZM7 17.9443V19.0105V19.2991L7.25 19.4435L8.17329 19.9765L8.67329 19.1105L8 18.7218V17.9443H7ZM23.5112 19.0105V17.9443H22.5112V18.7218L21.8379 19.1105L22.3379 19.9765L23.2612 19.4435L23.5112 19.2991V19.0105ZM8.91192 20.403L10.7585 21.4691L11.2585 20.6031L9.41192 19.537L8.91192 20.403ZM19.7527 21.4691L21.5993 20.403L21.0993 19.537L19.2527 20.6031L19.7527 21.4691ZM11.4971 21.8955L13.3437 22.9617L13.8437 22.0956L11.9971 21.0295L11.4971 21.8955ZM17.1675 22.9617L19.0141 21.8955L18.5141 21.0295L16.6675 22.0956L17.1675 22.9617ZM14.0823 23.3881L15.0056 23.9212L15.2556 24.0655L15.5056 23.9212L16.4289 23.3881L15.9289 22.5221L15.7554 22.6222V22.5465H14.7554V22.622L14.5823 22.5221L14.0823 23.3881ZM14.0821 14.4328L14.7554 14.8215V15.7234H15.7554V14.8215L16.4287 14.4328L15.9287 13.5667L15.2554 13.9555L14.5821 13.5667L14.0821 14.4328ZM16.6673 13.1403L18.5139 12.0742L19.0139 12.9402L17.1673 14.0063L16.6673 13.1403ZM12.3264 12.2644L13.8434 13.1403L13.3434 14.0063L11.4969 12.9402L11.6673 12.645L11.5252 12.727L11.0802 11.9561L10.7582 12.5138L8.91167 11.4476L9.41167 10.5816L11.2582 11.6477L11.1901 11.7658L11.9485 11.3279L12.4485 12.1939L12.3264 12.2644ZM19.2525 11.6477L21.0991 10.5816L21.5991 11.4476L19.7525 12.5138L19.2525 11.6477ZM14.7554 18.7085V16.5763H15.7554V18.7085H14.7554ZM14.7554 21.6936V19.5614H15.7554V21.6936H14.7554ZM17.1189 8.34277L15.2724 9.40889L15.7724 10.2749L17.6189 9.2088L17.1189 8.34277ZM14.5337 9.83534L12.6872 10.9015L13.1872 11.7675L15.0337 10.7014L14.5337 9.83534Z" fill="#2FA8CE"/>
</svg>
