<svg width="25" height="30" viewBox="0 0 25 30" fill="none" xmlns="http://www.w3.org/2000/svg">
<path d="M15.875 25.7625V25.1547H23H23.75V24.4047V23.0468V22.7436L23.5393 22.5256L21.125 20.0279V13.5418C21.125 9.3346 19.0351 5.62081 15.2188 4.39349V4.03679C15.2188 2.51977 14.0274 1.25 12.5 1.25C10.9726 1.25 9.78125 2.51977 9.78125 4.03679V4.39287C5.95302 5.61866 3.875 9.32186 3.875 13.5418V20.0279L1.46074 22.5256L1.25 22.7436V23.0468V24.4047V25.1547H2H9.125V25.7625C9.125 27.6437 10.6027 29.2283 12.5 29.2283C14.3818 29.2283 15.875 27.6462 15.875 25.7625Z" stroke="#69767F" stroke-width="1.5"/>
</svg>
