<svg width="12" height="14" viewBox="0 0 12 14" fill="none" xmlns="http://www.w3.org/2000/svg">
<path d="M11.6786 4.375H0.321429C0.144643 4.375 0 4.22734 0 4.04688V3.0625C0 2.33789 0.575893 1.75 1.28571 1.75H2.57143V0.328125C2.57143 0.147656 2.71607 0 2.89286 0H3.96429C4.14107 0 4.28571 0.147656 4.28571 0.328125V1.75H7.71429V0.328125C7.71429 0.147656 7.85893 0 8.03571 0H9.10714C9.28393 0 9.42857 0.147656 9.42857 0.328125V1.75H10.7143C11.4241 1.75 12 2.33789 12 3.0625V4.04688C12 4.22734 11.8554 4.375 11.6786 4.375ZM0.321429 5.25H11.6786C11.8554 5.25 12 5.39766 12 5.57812V12.6875C12 13.4121 11.4241 14 10.7143 14H1.28571C0.575893 14 0 13.4121 0 12.6875V5.57812C0 5.39766 0.144643 5.25 0.321429 5.25ZM3.42857 10.8281C3.42857 10.6477 3.28393 10.5 3.10714 10.5H2.03571C1.85893 10.5 1.71429 10.6477 1.71429 10.8281V11.9219C1.71429 12.1023 1.85893 12.25 2.03571 12.25H3.10714C3.28393 12.25 3.42857 12.1023 3.42857 11.9219V10.8281ZM3.42857 7.32812C3.42857 7.14766 3.28393 7 3.10714 7H2.03571C1.85893 7 1.71429 7.14766 1.71429 7.32812V8.42188C1.71429 8.60234 1.85893 8.75 2.03571 8.75H3.10714C3.28393 8.75 3.42857 8.60234 3.42857 8.42188V7.32812ZM6.85714 10.8281C6.85714 10.6477 6.7125 10.5 6.53571 10.5H5.46429C5.2875 10.5 5.14286 10.6477 5.14286 10.8281V11.9219C5.14286 12.1023 5.2875 12.25 5.46429 12.25H6.53571C6.7125 12.25 6.85714 12.1023 6.85714 11.9219V10.8281ZM6.85714 7.32812C6.85714 7.14766 6.7125 7 6.53571 7H5.46429C5.2875 7 5.14286 7.14766 5.14286 7.32812V8.42188C5.14286 8.60234 5.2875 8.75 5.46429 8.75H6.53571C6.7125 8.75 6.85714 8.60234 6.85714 8.42188V7.32812ZM10.2857 10.8281C10.2857 10.6477 10.1411 10.5 9.96429 10.5H8.89286C8.71607 10.5 8.57143 10.6477 8.57143 10.8281V11.9219C8.57143 12.1023 8.71607 12.25 8.89286 12.25H9.96429C10.1411 12.25 10.2857 12.1023 10.2857 11.9219V10.8281ZM10.2857 7.32812C10.2857 7.14766 10.1411 7 9.96429 7H8.89286C8.71607 7 8.57143 7.14766 8.57143 7.32812V8.42188C8.57143 8.60234 8.71607 8.75 8.89286 8.75H9.96429C10.1411 8.75 10.2857 8.60234 10.2857 8.42188V7.32812Z" fill="#0086DA"/>
</svg>
