<svg width="30" height="30" viewBox="0 0 30 30" fill="none" xmlns="http://www.w3.org/2000/svg">
<circle cx="15" cy="15" r="14.5" fill="white" stroke="#55C082"/>
<path d="M23.5965 19.4462L20.8167 16.8146C20.263 16.2925 19.346 16.3084 18.7731 16.851L17.3726 18.1764C17.2841 18.1302 17.1925 18.082 17.0962 18.0308C16.2118 17.567 15.0014 16.9312 13.7277 15.7246C12.4502 14.5155 11.7779 13.3679 11.2864 12.5303C11.2345 12.4415 11.1848 12.3559 11.1357 12.2747L12.0756 11.3863L12.5378 10.9483C13.1116 10.405 13.1274 9.53728 12.575 9.01375L9.79522 6.38183C9.24282 5.85904 8.32549 5.8749 7.75163 6.41825L6.96818 7.16411L6.98959 7.18423C6.72689 7.50153 6.50737 7.86748 6.34401 8.26212C6.19342 8.63777 6.09967 8.99623 6.0568 9.35543C5.68974 12.2359 7.0803 14.8684 10.8541 18.4406C16.0706 23.3782 20.2744 23.0052 20.4558 22.987C20.8508 22.9423 21.2293 22.8529 21.614 22.7115C22.0273 22.5587 22.4136 22.3512 22.7486 22.1031L22.7658 22.1175L23.5594 21.3818C24.1321 20.8385 24.1486 19.9705 23.5965 19.4462Z" fill="#55C182"/>
</svg>
