<svg width="24" height="25" viewBox="0 0 24 25" fill="none" xmlns="http://www.w3.org/2000/svg">
<circle cx="12" cy="12.5" r="12" fill="#5AA700"/>
<path d="M18.0075 15.035C17.085 15.035 16.1925 14.885 15.36 14.615C15.0975 14.525 14.805 14.5925 14.6025 14.795L13.425 16.2725C11.3025 15.26 9.315 13.3475 8.2575 11.15L9.72 9.905C9.9225 9.695 9.9825 9.4025 9.9 9.14C9.6225 8.3075 9.48 7.415 9.48 6.4925C9.48 6.0875 9.1425 5.75 8.7375 5.75H6.1425C5.7375 5.75 5.25 5.93 5.25 6.4925C5.25 13.46 11.0475 19.25 18.0075 19.25C18.54 19.25 18.75 18.7775 18.75 18.365V15.7775C18.75 15.3725 18.4125 15.035 18.0075 15.035Z" fill="white"/>
</svg>
