<svg width="20" height="18" viewBox="0 0 20 18" fill="none" xmlns="http://www.w3.org/2000/svg">
<path d="M18.6316 14.2371L15.6882 11.4507C15.102 10.898 14.1311 10.9148 13.5244 11.4893L12.0416 12.8926C11.9479 12.8437 11.8509 12.7927 11.749 12.7385C10.8125 12.2474 9.53089 11.5742 8.18223 10.2967C6.82957 9.01641 6.11776 7.80136 5.59732 6.91439C5.5424 6.82043 5.48978 6.72983 5.43782 6.64379L6.43304 5.70313L6.92232 5.23941C7.52994 4.66409 7.54669 3.74536 6.9618 3.19103L4.01847 0.404295C3.43358 -0.149249 2.46228 -0.132456 1.85467 0.442856L1.02514 1.23259L1.0478 1.25389C0.769651 1.58985 0.537217 1.97733 0.364247 2.39519C0.204802 2.79293 0.105531 3.17248 0.0601397 3.55281C-0.328509 6.60269 1.14384 9.39005 5.13962 13.1724C10.663 18.4004 15.1141 18.0055 15.3061 17.9862C15.7244 17.9389 16.1252 17.8443 16.5325 17.6946C16.9701 17.5327 17.3792 17.313 17.7339 17.0503L17.752 17.0655L18.5924 16.2866C19.1987 15.7114 19.2162 14.7923 18.6316 14.2371Z" fill="#23EF78"/>
</svg>
