<svg width="24" height="24" viewBox="0 0 24 24" fill="none" xmlns="http://www.w3.org/2000/svg">
<circle cx="12" cy="12" r="11.5" stroke="#0086DA"/>
<path fill-rule="evenodd" clip-rule="evenodd" d="M13.7195 4.18685C13.518 4.14238 13.3162 4.10595 13.1146 4.07739C12.5678 3.99994 12.0617 4.38045 11.9842 4.92727C11.9068 5.4741 12.2873 5.98018 12.8341 6.05763C12.9484 6.07381 13.0629 6.09339 13.1775 6.11644C13.1822 6.11746 13.1869 6.11844 13.1916 6.1194C13.2242 6.126 13.2567 6.13287 13.2892 6.14001C13.3941 6.16318 13.4991 6.18929 13.6041 6.21838C13.6936 6.2432 13.7821 6.26991 13.8694 6.29843C14.5258 6.51353 15.1418 6.84092 15.6894 7.26768C16.4219 7.83859 17.0118 8.57175 17.4128 9.40943C17.8138 10.2471 18.0149 11.1664 18.0002 12.095C17.9855 13.0236 17.7554 13.9362 17.3281 14.7607C16.9008 15.5853 16.2879 16.2994 15.5377 16.8469C14.7875 17.3943 13.9205 17.7601 13.0048 17.9155C12.0892 18.0709 11.15 18.0116 10.2612 17.7423C10.2553 17.7405 10.2494 17.7388 10.2435 17.7371C10.0417 17.6754 9.84564 17.604 9.65575 17.5237C9.14709 17.3086 8.56034 17.5466 8.34521 18.0552C8.13008 18.5639 8.36804 19.1506 8.8767 19.3658C9.19436 19.5001 9.52394 19.6153 9.86434 19.7096C10.2047 19.804 10.5466 19.8749 10.8881 19.9233C10.9046 19.9256 10.921 19.9276 10.9374 19.9291C11.7332 20.0358 12.543 20.0225 13.3395 19.8873C13.8961 19.7928 14.4392 19.6401 14.9603 19.4326C14.9735 19.4279 14.9867 19.4229 14.9998 19.4176C15.6472 19.1554 16.2582 18.8096 16.8163 18.3895C16.828 18.3807 16.8394 18.3717 16.8506 18.3625C17.79 17.6465 18.5598 16.7309 19.1039 15.6809C19.1899 15.5149 19.27 15.3461 19.344 15.175C19.352 15.1586 19.3596 15.142 19.3667 15.125C19.5011 14.8073 19.6163 14.4777 19.7106 14.1373C19.805 13.7969 19.8759 13.4551 19.9243 13.1136C19.9268 13.0957 19.9289 13.0778 19.9304 13.06C19.9717 12.7513 19.995 12.4397 20 12.1267C20.0167 11.0678 19.823 10.0179 19.4322 9.03744C19.4279 9.02555 19.4233 9.0137 19.4185 9.00189C19.1563 8.35448 18.8105 7.74345 18.3905 7.18537C18.3836 7.17616 18.3765 7.16711 18.3693 7.1582C17.9526 6.6101 17.4655 6.11627 16.9188 5.69021C16.3787 5.26925 15.7886 4.9208 15.1638 4.65185C15.1514 4.64598 15.1387 4.64034 15.126 4.63494C14.9194 4.54756 14.7077 4.46829 14.4913 4.39759C14.2383 4.31468 13.9807 4.2443 13.7195 4.18685ZM9.75362 6.43689C10.2655 6.22958 10.5124 5.64654 10.3051 5.13464C10.0978 4.62275 9.51476 4.37584 9.00286 4.58315C8.35545 4.84535 7.74443 5.19114 7.18635 5.61117C6.74507 5.94328 6.65658 6.57023 6.98869 7.01151C7.32081 7.45278 7.94776 7.54127 8.38903 7.20916C8.80823 6.89366 9.26733 6.63384 9.75362 6.43689ZM6.47794 9.65477C6.69307 9.14611 6.45512 8.55936 5.94645 8.34423C5.43779 8.1291 4.85104 8.36706 4.63591 8.87572C4.50156 9.19338 4.38639 9.52296 4.29203 9.86336C4.19767 10.2038 4.12673 10.5456 4.07837 10.8871C4.00092 11.4339 4.38142 11.94 4.92825 12.0175C5.47508 12.0949 5.98115 11.7144 6.0586 11.1676C6.09487 10.9115 6.14816 10.6544 6.21935 10.3976C6.29054 10.1408 6.3772 9.89297 6.47794 9.65477ZM6.43787 14.2481C6.23056 13.7362 5.64752 13.4893 5.13562 13.6966C4.62372 13.9039 4.37681 14.4869 4.58413 14.9988C4.84632 15.6462 5.19212 16.2572 5.61215 16.8153C5.94426 17.2566 6.57121 17.3451 7.01248 17.013C7.45375 16.6809 7.54225 16.0539 7.21013 15.6126C6.89464 15.1935 6.63482 14.7344 6.43787 14.2481Z" fill="#0086DA"/>
</svg>
