<svg width="17" height="12" viewBox="0 0 17 12" fill="none" xmlns="http://www.w3.org/2000/svg">
<path d="M0.5965 7.99538V0.730926C0.5965 0.327255 0.922306 0 1.32425 0H8.55342C8.95533 0 9.28114 0.327255 9.28114 0.730926V7.99541C9.28114 8.12996 9.17256 8.23905 9.03856 8.23905H0.839083C0.705083 8.23905 0.5965 8.12996 0.5965 7.99538ZM6.43428 10.484C6.43428 11.3213 5.75847 12 4.92489 12C4.09131 12 3.4155 11.3213 3.4155 10.484C3.4155 9.64675 4.09131 8.96805 4.92489 8.96805C5.75847 8.96805 6.43428 9.64675 6.43428 10.484ZM5.67956 10.484C5.67956 10.0654 5.34167 9.72604 4.92486 9.72604C4.50806 9.72604 4.17014 10.0654 4.17014 10.484C4.17014 10.9026 4.50806 11.242 4.92486 11.242C5.34167 11.242 5.67956 10.9026 5.67956 10.484ZM3.62486 8.96802H0.242583C0.108611 8.96802 0 9.07711 0 9.21166V9.95085C0 10.0854 0.108611 10.1945 0.242583 10.1945H2.95364C3.02442 9.7067 3.26956 9.27583 3.62486 8.96802ZM14.3316 10.484C14.3316 11.3213 13.6558 12 12.8222 12C11.9886 12 11.3128 11.3213 11.3128 10.484C11.3128 9.64675 11.9886 8.96805 12.8222 8.96805C13.6558 8.96802 14.3316 9.64675 14.3316 10.484ZM13.5769 10.484C13.5769 10.0654 13.239 9.72604 12.8222 9.72604C12.4054 9.72604 12.0675 10.0654 12.0675 10.484C12.0675 10.9026 12.4054 11.242 12.8222 11.242C13.239 11.242 13.5769 10.9026 13.5769 10.484ZM17 9.21166V9.95085C17 10.0854 16.8914 10.1945 16.7574 10.1945H14.7934C14.6529 9.22687 13.8238 8.48074 12.8223 8.48074C11.8206 8.48074 10.9914 9.2269 10.8509 10.1945H6.89614C6.82533 9.70673 6.58022 9.27583 6.22492 8.96802H9.97475V1.9991C9.97475 1.72999 10.192 1.51182 10.4599 1.51182H12.7501C13.3949 1.51182 13.9976 1.83352 14.3584 2.37027L15.8348 4.56651C16.0513 4.88866 16.1671 5.26847 16.1671 5.65719V8.96802H16.7574C16.8914 8.96802 17 9.07711 17 9.21166ZM14.5391 4.62275L13.3585 2.93785C13.3131 2.87301 13.2391 2.83443 13.1601 2.83443H11.3186C11.1847 2.83443 11.076 2.94351 11.076 3.07807V4.76297C11.076 4.89756 11.1846 5.00662 11.3186 5.00662H14.3408C14.5373 5.00662 14.6522 4.78418 14.5391 4.62275Z" fill="#0086DA"/>
</svg>
