<svg width="30" height="16" viewBox="0 0 30 16" fill="none" xmlns="http://www.w3.org/2000/svg">
<path fill-rule="evenodd" clip-rule="evenodd" d="M8 0C3.58172 0 0 3.58172 0 8C0 12.4183 3.58172 16 8 16H22C26.4183 16 30 12.4183 30 8C30 3.58172 26.4183 0 22 0H8ZM22 1H8C6.44761 1 5.01324 1.50534 3.85243 2.36049L8.69333 4.72944C9.06314 4.58559 9.47721 4.51367 9.93555 4.51367C10.3955 4.51367 10.8071 4.5957 11.1704 4.75977C11.5366 4.92383 11.8208 5.1582 12.0229 5.46289C12.2251 5.76465 12.3262 6.11035 12.3262 6.5H12.3114L13.2227 6.94592V4.60156H14.7607V7.6986L15.833 8.22332V4.60156H17.8589L19.2871 9.05322L20.7109 4.60156H22.7412V11H21.5071L26.4385 13.4132C28.0023 12.1294 29 10.1812 29 8C29 4.13401 25.866 1 22 1ZM25.4965 14.0656L19.232 11H18.7773L18.6865 10.733L17.3755 10.0915V11H15.833V9.33664L14.7607 8.81192V11H13.2227V8.05923L9.08625 6.03504C9.03428 6.12036 9.0083 6.21676 9.0083 6.32422C9.0083 6.48828 9.09619 6.6377 9.27197 6.77246C9.44775 6.9043 9.75684 7.04199 10.1992 7.18555C10.6416 7.32617 11.0049 7.47852 11.2891 7.64258C11.9805 8.04102 12.3262 8.59033 12.3262 9.29053C12.3262 9.8501 12.1152 10.2896 11.6934 10.6089C11.2715 10.9282 10.6929 11.0879 9.95752 11.0879C9.43896 11.0879 8.96875 10.9956 8.54688 10.811C8.12793 10.6235 7.81152 10.3687 7.59766 10.0464C7.38672 9.72119 7.28125 9.34766 7.28125 8.92578H8.82812C8.82812 9.26855 8.91602 9.52197 9.0918 9.68604C9.27051 9.84717 9.55908 9.92773 9.95752 9.92773C10.2124 9.92773 10.4131 9.87354 10.5596 9.76514C10.709 9.65381 10.7837 9.49854 10.7837 9.29932C10.7837 9.07373 10.7031 8.89795 10.542 8.77197C10.3838 8.646 10.104 8.51562 9.70264 8.38086C9.30127 8.24609 8.97314 8.11572 8.71826 7.98975C7.88916 7.58252 7.47461 7.02295 7.47461 6.31104C7.47461 5.96354 7.57314 5.65687 7.7702 5.39101L3.0295 3.07109C1.77495 4.33616 1 6.07758 1 8C1 11.866 4.13401 15 8 15H22C23.2735 15 24.4677 14.6599 25.4965 14.0656ZM17.3491 8.96525L18.2317 9.39717L17.2261 6.44287L17.3491 8.96525ZM20.0407 10.2824L21.1943 10.847V9.50586L21.3438 6.44727L20.0407 10.2824Z" fill="#E71D1D"/>
</svg>
