<svg width="16" height="17" viewBox="0 0 16 17" fill="none" xmlns="http://www.w3.org/2000/svg">
<path d="M11.5982 7.38416C11.5162 7.20292 11.336 7.0875 11.1375 7.0875H9.11251V0.50625C9.11251 0.2268 8.88571 0 8.60626 0H6.58126C6.30181 0 6.07501 0.2268 6.07501 0.50625V7.0875H4.05001C3.85156 7.0875 3.67134 7.20393 3.58933 7.38416C3.5063 7.5654 3.5387 7.77701 3.66931 7.92686L7.21306 11.9769C7.30925 12.0872 7.44796 12.15 7.59376 12.15C7.73956 12.15 7.87827 12.0862 7.97446 11.9769L11.5182 7.92686C11.6498 7.77802 11.6802 7.5654 11.5982 7.38416Z" fill="white"/>
<path d="M13.1625 11.1375V14.1749H2.025V11.1375H0V15.1874C0 15.7474 0.4536 16.1999 1.0125 16.1999H14.175C14.7349 16.1999 15.1875 15.7474 15.1875 15.1874V11.1375H13.1625Z" fill="white"/>
</svg>
