<svg width="20" height="20" viewBox="0 0 20 20" fill="none" xmlns="http://www.w3.org/2000/svg">
<path fill-rule="evenodd" clip-rule="evenodd" d="M4.29114 5.08517L4.88738 4.99454C5.46559 4.90638 6.02711 5.09257 6.41436 5.44893C6.54589 5.53093 6.66007 5.65485 6.73952 5.82563C7.28502 6.99951 8.46948 7.78251 9.81085 8.02789C10.4271 8.14071 11.5562 8.17154 12.0182 7.68201C12.8067 6.84969 14.1795 7.95822 13.3909 8.79054C12.4489 9.78871 10.7857 9.92681 9.46098 9.68451C8.71786 9.54888 8.00811 9.29178 7.37248 8.93049L7.49333 9.60621L4.6617 13.6538C4.24173 13.4158 3.93059 13.0181 3.84446 12.5366L2.84428 6.95019C2.6867 6.06978 3.33769 5.23067 4.29114 5.08517ZM5.48428 0C6.71081 0 7.70499 0.918019 7.70499 2.05059C7.70499 3.18316 6.71081 4.10118 5.48428 4.10118C4.25775 4.10118 3.26358 3.18316 3.26358 2.05059C3.26358 0.918019 4.25775 0 5.48428 0ZM0.0173196 7.66352C-0.194335 6.5741 1.59972 6.27693 1.81138 7.36696C1.81338 7.3756 2.34752 10.1629 2.84361 12.5033C3.1207 13.8104 3.8478 14.4442 4.82929 14.708C5.98037 15.0175 7.52271 14.901 9.14985 14.7068C10.3397 14.5681 10.568 16.2377 9.37886 16.377C7.54875 16.5959 5.78741 16.7192 4.32185 16.3252C2.6867 15.8856 1.48421 14.8751 1.05022 12.827C0.715045 11.2468 0.0199904 7.67338 0.0179873 7.66413L0.0173196 7.66352ZM15.3666 4.26641C15.5809 3.40203 17.0051 3.7029 16.7901 4.56728L16.0997 7.34539L19.8821 12.9873C20.3856 13.7401 19.1443 14.4479 18.6409 13.6951L15.6357 9.21225L15.189 11.0094C14.9747 11.8738 13.5505 11.573 13.7655 10.7086L15.3666 4.26641ZM7.83385 11.1691H11.7451C12.4555 11.1691 13.0471 11.6358 13.1806 12.2555L15.0902 18.2889C15.6243 19.9905 12.8221 20.7402 12.2879 19.0386L10.6528 13.872H6.01976L7.83251 11.1685L7.83385 11.1691Z" fill="#5A6872"/>
</svg>
