<svg width="16" height="16" viewBox="0 0 16 16" fill="none" xmlns="http://www.w3.org/2000/svg">
<circle cx="8" cy="8" r="7.5" stroke="#55C082"/>
<path d="M6.16336 10.9882C6.16336 11.547 5.72607 12 5.18669 12C4.64732 12 4.21003 11.547 4.21003 10.9882C4.21003 10.4294 4.64732 9.97642 5.18669 9.97642C5.72607 9.97642 6.16336 10.4294 6.16336 10.9882ZM5.67501 10.9882C5.67501 10.7088 5.45637 10.4823 5.18668 10.4823C4.91698 10.4823 4.69833 10.7088 4.69833 10.9882C4.69833 11.2676 4.91698 11.4941 5.18668 11.4941C5.45637 11.4941 5.67501 11.2676 5.67501 10.9882ZM4.3455 9.9764H2.15697C2.07028 9.9764 2 10.0492 2 10.139V10.6324C2 10.7222 2.07028 10.795 2.15697 10.795H3.91118C3.95698 10.4694 4.11559 10.1818 4.3455 9.9764ZM11.2734 10.9882C11.2734 11.547 10.8361 12 10.2967 12C9.75734 12 9.32007 11.547 9.32007 10.9882C9.32007 10.4294 9.75734 9.97642 10.2967 9.97642C10.8361 9.9764 11.2734 10.4294 11.2734 10.9882ZM10.7851 10.9882C10.7851 10.7088 10.5664 10.4823 10.2967 10.4823C10.027 10.4823 9.8084 10.7088 9.8084 10.9882C9.8084 11.2676 10.027 11.4941 10.2967 11.4941C10.5664 11.4941 10.7851 11.2676 10.7851 10.9882ZM13 10.139V10.6324C13 10.7222 12.9297 10.795 12.843 10.795H11.5722C11.4813 10.1492 10.9448 9.65118 10.2968 9.65118C9.6486 9.65118 9.11208 10.1492 9.02118 10.795H6.46221C6.41639 10.4694 6.25779 10.1818 6.02789 9.9764H8.45425V5.32522C8.45425 5.14561 8.59481 5 8.76818 5H10.25C10.6673 5 11.0573 5.21471 11.2907 5.57295L12.246 7.03875C12.3862 7.25376 12.461 7.50726 12.461 7.7667V9.9764H12.843C12.9297 9.9764 13 10.0492 13 10.139ZM11.4077 7.07629L10.6438 5.95176C10.6143 5.90848 10.5665 5.88273 10.5154 5.88273H9.32381C9.23714 5.88273 9.16684 5.95554 9.16684 6.04534V7.16988C9.16684 7.2597 9.23712 7.33249 9.32381 7.33249H11.2793C11.4065 7.33249 11.4809 7.18403 11.4077 7.07629Z" fill="#55C082"/>
</svg>
