<svg width="102" height="24" viewBox="0 0 102 24" fill="none" xmlns="http://www.w3.org/2000/svg">
<circle cx="51" cy="12" r="12" fill="#EEEEEE"/>
<path d="M45.261 14.0124H56.7392V12.6708H45.261V14.0124ZM45.261 16.6956H56.7392V15.354H45.261V16.6956ZM45.261 11.3292H56.7392V9.98755H45.261V11.3292ZM45.261 7.30432V8.64594H56.7392V7.30432H45.261Z" fill="#B5BEC4"/>
<circle cx="90" cy="12" r="12" fill="#EEEEEE"/>
<line x1="90.5" y1="5" x2="90.5" y2="18" stroke="#B5BEC4"/>
<line x1="88" y1="5.5" x2="93" y2="5.5" stroke="#B5BEC4"/>
<line x1="89" y1="11.5" x2="92" y2="11.5" stroke="#B5BEC4"/>
<line x1="88" y1="17.5" x2="93" y2="17.5" stroke="#B5BEC4"/>
<circle cx="12" cy="12" r="12" fill="#EEEEEE"/>
<path d="M16.6667 6H7.33333C6.59333 6 6 6.6 6 7.33333V16.6667C6 17.4 6.59333 18 7.33333 18H16.6667C17.4067 18 18 17.4 18 16.6667V7.33333C18 6.6 17.4067 6 16.6667 6ZM10.6667 15.3333L7.33333 12L8.27333 11.06L10.6667 13.4467L15.7267 8.38667L16.6667 9.33333L10.6667 15.3333Z" fill="#B5BEC4"/>
</svg>
