<svg width="30" height="16" viewBox="0 0 30 16" fill="none" xmlns="http://www.w3.org/2000/svg">
<path d="M15.1714 7.63818H14.1606V5.79248H15.189C15.4673 5.79541 15.687 5.88623 15.8481 6.06494C16.0093 6.24365 16.0898 6.48242 16.0898 6.78125C16.0898 7.05371 16.0107 7.26465 15.8525 7.41406C15.6973 7.56348 15.4702 7.63818 15.1714 7.63818Z" fill="#5AA700"/>
<path fill-rule="evenodd" clip-rule="evenodd" d="M8 0C3.58172 0 0 3.58172 0 8C0 12.4183 3.58172 16 8 16H22C26.4183 16 30 12.4183 30 8C30 3.58172 26.4183 0 22 0H8ZM10.6802 10.8462C11.1372 10.6851 11.4844 10.4727 11.7217 10.209V7.58105H9.10693V8.64014H10.1792V9.6333C9.98291 9.81201 9.68408 9.90137 9.28271 9.90137C8.81396 9.90137 8.46973 9.7417 8.25 9.42236C8.0332 9.1001 7.9248 8.61963 7.9248 7.98096V7.59424C7.92773 6.98486 8.03467 6.51611 8.24561 6.18799C8.45654 5.85986 8.75537 5.6958 9.14209 5.6958C9.46436 5.6958 9.71338 5.77197 9.88916 5.92432C10.0649 6.07666 10.1792 6.33154 10.2319 6.68896H11.7173C11.644 5.96533 11.3862 5.42188 10.9438 5.05859C10.5044 4.69238 9.88623 4.50928 9.08936 4.50928C8.54443 4.50928 8.06396 4.63672 7.64795 4.8916C7.23486 5.14355 6.91699 5.50537 6.69434 5.97705C6.47168 6.4458 6.36035 6.99512 6.36035 7.625L6.36475 8.17871C6.3999 9.09277 6.66797 9.80615 7.16895 10.3188C7.66992 10.8315 8.33936 11.0879 9.17725 11.0879C9.72217 11.0879 10.2231 11.0073 10.6802 10.8462ZM14.1606 11V8.8291H15.145C15.9243 8.8291 16.5366 8.64307 16.9819 8.271C17.4302 7.896 17.6543 7.39648 17.6543 6.77246C17.6543 6.35059 17.5503 5.97412 17.3423 5.64307C17.1372 5.30908 16.8457 5.05273 16.4678 4.87402C16.0928 4.69238 15.6606 4.60156 15.1714 4.60156H12.6182V11H14.1606ZM21.5391 8.77197C21.7002 8.89795 21.7808 9.07373 21.7808 9.29932C21.7808 9.49854 21.7061 9.65381 21.5566 9.76514C21.4102 9.87354 21.2095 9.92773 20.9546 9.92773C20.5562 9.92773 20.2676 9.84717 20.0889 9.68604C19.9131 9.52197 19.8252 9.26855 19.8252 8.92578H18.2783C18.2783 9.34766 18.3838 9.72119 18.5947 10.0464C18.8086 10.3687 19.125 10.6235 19.5439 10.811C19.9658 10.9956 20.436 11.0879 20.9546 11.0879C21.6899 11.0879 22.2686 10.9282 22.6904 10.6089C23.1123 10.2896 23.3232 9.8501 23.3232 9.29053C23.3232 8.59033 22.9775 8.04102 22.2861 7.64258C22.002 7.47852 21.6387 7.32617 21.1963 7.18555C20.7539 7.04199 20.4448 6.9043 20.269 6.77246C20.0933 6.6377 20.0054 6.48828 20.0054 6.32422C20.0054 6.13672 20.0845 5.98291 20.2427 5.86279C20.4038 5.73975 20.6221 5.67822 20.8975 5.67822C21.1699 5.67822 21.3853 5.75 21.5435 5.89355C21.7046 6.03711 21.7852 6.23926 21.7852 6.5H23.3232C23.3232 6.11035 23.2222 5.76465 23.02 5.46289C22.8179 5.1582 22.5337 4.92383 22.1675 4.75977C21.8042 4.5957 21.3926 4.51367 20.9326 4.51367C20.4609 4.51367 20.0361 4.58984 19.6582 4.74219C19.2803 4.8916 18.9873 5.10254 18.7793 5.375C18.5742 5.64453 18.4717 5.95654 18.4717 6.31104C18.4717 7.02295 18.8862 7.58252 19.7153 7.98975C19.9702 8.11572 20.2983 8.24609 20.6997 8.38086C21.1011 8.51562 21.3809 8.646 21.5391 8.77197Z" fill="#5AA700"/>
</svg>
