<svg width="14" height="14" viewBox="0 0 14 14" fill="none" xmlns="http://www.w3.org/2000/svg">
<path d="M7.00065 4.95801C5.87511 4.95801 4.95898 5.87384 4.95898 6.99967C4.95898 8.12551 5.87511 9.04134 7.00065 9.04134C8.12619 9.04134 9.04232 8.12551 9.04232 6.99967C9.04232 5.87384 8.12619 4.95801 7.00065 4.95801ZM7.00065 7.87467C6.51823 7.87467 6.12565 7.48209 6.12565 6.99967C6.12565 6.51726 6.51823 6.12467 7.00065 6.12467C7.48307 6.12467 7.87565 6.51726 7.87565 6.99967C7.87565 7.48209 7.48307 7.87467 7.00065 7.87467Z" fill="#DFE3E6"/>
<path d="M13.4167 6.41667H12.2156C11.9455 3.98737 10.0126 2.0545 7.58333 1.78442V0.583333C7.58333 0.261333 7.322 0 7 0C6.678 0 6.41667 0.261333 6.41667 0.583333V1.78442C3.98737 2.0545 2.0545 3.98737 1.78442 6.41667H0.583333C0.261333 6.41667 0 6.678 0 7C0 7.322 0.261333 7.58333 0.583333 7.58333H1.78442C2.0545 10.0126 3.98737 11.9455 6.41667 12.2156V13.4167C6.41667 13.7387 6.678 14 7 14C7.322 14 7.58333 13.7387 7.58333 13.4167V12.2156C10.0126 11.9455 11.9455 10.0126 12.2156 7.58333H13.4167C13.7387 7.58333 14 7.322 14 7C14 6.678 13.7387 6.41667 13.4167 6.41667ZM7 11.0833C4.74833 11.0833 2.91667 9.25167 2.91667 7C2.91667 4.74833 4.74833 2.91667 7 2.91667C9.25167 2.91667 11.0833 4.74833 11.0833 7C11.0833 9.25167 9.25167 11.0833 7 11.0833Z" fill="#DFE3E6"/>
</svg>
