<svg width="20" height="20" viewBox="0 0 20 20" fill="none" xmlns="http://www.w3.org/2000/svg">
<path d="M10.0002 7.08301C8.39225 7.08301 7.0835 8.39134 7.0835 9.99967C7.0835 11.608 8.39225 12.9163 10.0002 12.9163C11.6081 12.9163 12.9168 11.608 12.9168 9.99967C12.9168 8.39134 11.6081 7.08301 10.0002 7.08301ZM10.0002 11.2497C9.311 11.2497 8.75016 10.6888 8.75016 9.99967C8.75016 9.31051 9.311 8.74967 10.0002 8.74967C10.6893 8.74967 11.2502 9.31051 11.2502 9.99967C11.2502 10.6888 10.6893 11.2497 10.0002 11.2497Z" fill="#0086DA"/>
<path d="M19.1667 9.16667H17.4508C17.065 5.69625 14.3038 2.935 10.8333 2.54917V0.833333C10.8333 0.373333 10.46 0 10 0C9.54 0 9.16667 0.373333 9.16667 0.833333V2.54917C5.69625 2.935 2.935 5.69625 2.54917 9.16667H0.833333C0.373333 9.16667 0 9.54 0 10C0 10.46 0.373333 10.8333 0.833333 10.8333H2.54917C2.935 14.3038 5.69625 17.065 9.16667 17.4508V19.1667C9.16667 19.6267 9.54 20 10 20C10.46 20 10.8333 19.6267 10.8333 19.1667V17.4508C14.3038 17.065 17.065 14.3038 17.4508 10.8333H19.1667C19.6267 10.8333 20 10.46 20 10C20 9.54 19.6267 9.16667 19.1667 9.16667ZM10 15.8333C6.78333 15.8333 4.16667 13.2167 4.16667 10C4.16667 6.78333 6.78333 4.16667 10 4.16667C13.2167 4.16667 15.8333 6.78333 15.8333 10C15.8333 13.2167 13.2167 15.8333 10 15.8333Z" fill="#0086DA"/>
</svg>
