<svg width="30" height="30" viewBox="0 0 30 30" fill="none" xmlns="http://www.w3.org/2000/svg">
<circle cx="15" cy="15" r="14.5" fill="white" stroke="#CDCDCD"/>
<path d="M12.6367 20.6818C12.6366 20.6869 12.6364 20.6919 12.6364 20.697C12.6364 21.9689 13.5013 23 14.5682 23C15.6351 23 16.5 21.9689 16.5 20.697C16.5 20.6919 16.4997 20.6869 16.4997 20.6818H12.6367Z" fill="#CDCDCD"/>
<path d="M20.9781 19.1674L19.1713 16.3494C19.1713 15.4868 19.1713 13.379 19.1713 12.8337C19.1713 10.4627 17.5808 8.4863 15.4708 8.04092V6.95829C15.4708 6.42907 15.0667 6 14.5682 6C14.0697 6 13.6656 6.42907 13.6656 6.95829V8.04095C11.5556 8.48638 9.96513 10.4628 9.96513 12.8337C9.96513 13.7619 9.96513 15.8115 9.96513 16.3495L8.15824 19.1675C7.96792 19.4643 7.94779 19.8485 8.10593 20.1659C8.26408 20.4833 8.57455 20.6818 8.91277 20.6818H20.2236C20.5618 20.6818 20.8723 20.4833 21.0304 20.1659C21.1886 19.8485 21.1684 19.4642 20.9781 19.1674Z" fill="#CDCDCD"/>
</svg>
