<svg width="12" height="13" viewBox="0 0 12 13" fill="none" xmlns="http://www.w3.org/2000/svg">
<circle cx="6" cy="7" r="6" fill="#C4C4C4"/>
<path d="M5.3252 9.62207C5.4248 9.62207 5.51855 9.61621 5.60645 9.60449C5.69727 9.58984 5.77637 9.56201 5.84375 9.521C5.91113 9.47998 5.96387 9.41992 6.00195 9.34082C6.04297 9.25879 6.06348 9.15186 6.06348 9.02002V6.16797C6.06348 6.03613 6.04297 5.93066 6.00195 5.85156C5.96387 5.76953 5.91113 5.70654 5.84375 5.6626C5.77637 5.61865 5.69727 5.58936 5.60645 5.57471C5.51855 5.56006 5.4248 5.55273 5.3252 5.55273H5.29883V5.1748H6.90723V8.97607C6.90723 9.1167 6.92627 9.22949 6.96436 9.31445C7.00537 9.39941 7.05811 9.46533 7.12256 9.51221C7.18994 9.55615 7.26904 9.58545 7.35986 9.6001C7.45068 9.61475 7.5459 9.62207 7.64551 9.62207H7.76416V10H5.20654V9.62207H5.3252ZM5.93604 3.71582C5.93604 3.61035 5.94922 3.52246 5.97559 3.45215C6.00195 3.38184 6.03857 3.32471 6.08545 3.28076C6.13232 3.23682 6.18652 3.20605 6.24805 3.18848C6.30957 3.1709 6.37695 3.16211 6.4502 3.16211C6.52051 3.16211 6.58643 3.1709 6.64795 3.18848C6.70947 3.20605 6.76221 3.23682 6.80615 3.28076C6.85303 3.32471 6.88965 3.38184 6.91602 3.45215C6.94531 3.52246 6.95996 3.61035 6.95996 3.71582C6.95996 3.82129 6.94531 3.90918 6.91602 3.97949C6.88965 4.0498 6.85303 4.10693 6.80615 4.15088C6.76221 4.19482 6.70947 4.22705 6.64795 4.24756C6.58643 4.26514 6.52051 4.27393 6.4502 4.27393C6.37695 4.27393 6.30957 4.26514 6.24805 4.24756C6.18652 4.22705 6.13232 4.19482 6.08545 4.15088C6.03857 4.10693 6.00195 4.0498 5.97559 3.97949C5.94922 3.90918 5.93604 3.82129 5.93604 3.71582Z" fill="white"/>
</svg>
