<svg width="15" height="11" viewBox="0 0 15 11" fill="none" xmlns="http://www.w3.org/2000/svg">
<path d="M7.47588 3.38679V9.89107L12.3969 8.90836V5.73927C12.3969 5.6066 12.5067 5.50356 12.632 5.51867L13.2374 5.61725C13.3439 5.63012 13.4243 5.725 13.4243 5.83784V9.51945C13.4243 9.62411 13.3549 9.71453 13.2576 9.73653L7.87071 10.9554C7.61039 11.0142 7.3412 11.0149 7.08064 10.9572L1.75152 9.77767C1.65588 9.75652 1.58656 9.66898 1.58402 9.56616L1.49196 5.82714C1.48907 5.70986 1.57338 5.61049 1.68441 5.60023L6.21117 5.18166C6.28968 5.17442 6.35779 5.1217 6.38782 5.04505L7.06978 3.30228C7.15777 3.07738 7.47588 3.14361 7.47588 3.38679ZM1.44076 1.25723L0.0202167 4.45237C-0.0491951 4.60851 0.0695795 4.78469 0.232545 4.76736L5.56737 4.20014C5.64277 4.19212 5.70828 4.14219 5.73902 4.0693L7.45556 0L1.59377 1.13295C1.52669 1.14592 1.46968 1.19221 1.44076 1.25723ZM7.45559 0L9.27191 4.1965C9.30365 4.26985 9.37066 4.31932 9.44703 4.32579L14.7718 4.77638C14.9323 4.78995 15.0475 4.61705 14.9807 4.46292L13.592 1.25937C13.5633 1.19312 13.5055 1.14592 13.4374 1.133L7.45559 0Z" fill="#0086DA"/>
</svg>
