<svg width="30" height="30" viewBox="0 0 30 30" fill="none" xmlns="http://www.w3.org/2000/svg">
<circle cx="15" cy="15" r="14.5" stroke="#E71D32"/>
<path d="M21.5422 18.9246C21.4488 18.8995 21.3525 18.8868 21.2558 18.8868C20.5697 18.9422 20.0033 19.4456 19.8679 20.1205C19.7605 20.4995 19.7815 20.9034 19.9277 21.2692C20.0626 21.6213 20.3552 21.8894 20.7176 21.9931L21.8884 22.3078C20.8208 22.944 19.4396 22.5942 18.8034 21.5267C18.5047 21.0253 18.4124 20.4274 18.5461 19.8593C18.57 19.7536 18.5379 19.6431 18.4611 19.5666L11.3674 12.4666C11.2667 12.372 11.116 12.3541 10.996 12.4225C10.671 12.594 10.3091 12.6837 9.9417 12.6838C8.99483 12.6846 8.14907 12.0918 7.82679 11.2014L8.54435 11.6011C8.71162 11.6948 8.90026 11.7436 9.09196 11.7428C9.67466 11.7092 10.1958 11.3689 10.461 10.849C10.889 10.0842 10.7222 9.17466 10.0928 8.82218L9.17693 8.30289C10.3473 7.88483 11.6349 8.49471 12.053 9.66503C12.1981 10.0712 12.2234 10.5106 12.1258 10.9308C12.1019 11.0364 12.134 11.147 12.2108 11.2235L19.3203 18.3298C19.4175 18.4271 19.5666 18.45 19.6885 18.3864C20.0135 18.2151 20.3754 18.1254 20.7428 18.1252C21.5398 18.1246 22.2774 18.5461 22.6815 19.233L21.5422 18.9246Z" fill="#E71D32"/>
<path d="M8.72059 22.6225L7.64111 21.5493L11.3831 17.8168L11.9244 18.3581L12.4406 18.8931L8.72059 22.6225Z" fill="#E71D32"/>
<path fill-rule="evenodd" clip-rule="evenodd" d="M23.5092 19.5446C23.3703 19.0888 23.1205 18.6747 22.7822 18.3392C22.2433 17.7974 21.5101 17.4937 20.746 17.4958C20.3554 17.496 19.969 17.5752 19.6098 17.7287L16.7774 14.8962L20.5382 11.1637L21.4289 11.1385C21.5366 11.1352 21.6352 11.077 21.6901 10.9843L22.9647 8.84106C23.0388 8.71738 23.0193 8.55915 22.9175 8.4571L21.816 7.35559C21.714 7.25378 21.5557 7.23431 21.432 7.30839L19.2888 8.58299C19.1961 8.63791 19.1379 8.73645 19.1346 8.84421L19.1094 9.73171L15.358 13.4768L12.7836 10.9025C13.0539 9.3352 12.0025 7.84557 10.4353 7.57527C9.70908 7.45001 8.96249 7.60792 8.34923 8.0165C8.20524 8.11387 8.16744 8.3095 8.2648 8.45348C8.29218 8.49397 8.32861 8.52752 8.37126 8.55152L9.80007 9.34775C10.1148 9.52714 10.1777 10.0622 9.92281 10.5154C9.66789 10.9685 9.18008 11.2014 8.86222 11.0252L7.53725 10.3076C7.38497 10.2238 7.19358 10.2794 7.10983 10.4317C7.08095 10.4841 7.06766 10.5437 7.07151 10.6035C7.17108 12.1908 8.53857 13.3967 10.1258 13.2972C10.4538 13.2766 10.7758 13.2 11.0779 13.0709L13.4194 15.4124L12.406 16.4257L12.1762 16.1991C11.9219 15.9558 11.521 15.9558 11.2667 16.1991L10.952 16.5139C10.7122 16.7473 10.697 17.1275 10.9174 17.3793L7.19425 21.0961C6.94311 21.3365 6.93433 21.7349 7.17466 21.9861C7.18103 21.9928 7.18756 21.9993 7.19425 22.0057L8.258 23.0694C8.49832 23.3206 8.8968 23.3293 9.14794 23.089C9.15463 23.0826 9.16116 23.0761 9.16753 23.0694L12.8938 19.3463C13.1456 19.5667 13.5258 19.5515 13.7593 19.3117L14.074 18.997C14.3251 18.7567 14.3339 18.3582 14.0936 18.107C14.0872 18.1004 14.0807 18.0938 14.074 18.0874L13.8442 17.8577L14.8513 16.8286L17.9041 19.8813C17.6404 21.4497 18.698 22.9349 20.2664 23.1987C21.1953 23.3549 22.142 23.0468 22.8011 22.3739C22.9167 22.2441 22.9052 22.0452 22.7754 21.9296C22.7419 21.8997 22.7023 21.8774 22.6595 21.8641L20.8876 21.3888C20.714 21.333 20.5765 21.1991 20.5163 21.0269C20.4242 20.7896 20.4131 20.5285 20.4848 20.2842C20.617 19.7901 21.0355 19.4376 21.388 19.532L23.141 20.0041C23.1692 20.0082 23.1978 20.0082 23.226 20.0041C23.3998 20.0062 23.5424 19.867 23.5445 19.6932C23.5451 19.6415 23.533 19.5905 23.5092 19.5446ZM19.7263 9.86704C19.7243 9.94741 19.6917 10.024 19.635 10.081L15.8017 13.9206L16.3431 14.4619L20.1826 10.6255C20.2397 10.5689 20.3163 10.5362 20.3966 10.5342L21.2527 10.5028L22.2912 8.72147L21.5359 7.96615L19.7515 9.02674L19.7263 9.86704ZM7.64111 21.5493L8.72059 22.6225L12.4406 18.8931L11.9244 18.3581L11.3831 17.8168L7.64111 21.5493ZM12.9095 18.4273L13.3249 18.8459L13.6302 18.5343L11.7419 16.6209L11.4272 16.9356L12.749 18.2668L12.9095 18.4273ZM12.8434 16.8695L13.3847 17.4108L14.3981 16.3974L13.8568 15.8561L12.8434 16.8695ZM21.2558 18.8868C21.3525 18.8868 21.4488 18.8995 21.5422 18.9246L22.6815 19.233C22.2774 18.5461 21.5398 18.1246 20.7428 18.1252C20.3754 18.1254 20.0135 18.2151 19.6885 18.3864C19.5666 18.45 19.4175 18.4271 19.3203 18.3298L12.2108 11.2235C12.134 11.147 12.1019 11.0364 12.1258 10.9308C12.2234 10.5106 12.1981 10.0712 12.053 9.66503C11.6349 8.49471 10.3473 7.88483 9.17693 8.30289L10.0928 8.82218C10.7222 9.17466 10.889 10.0842 10.461 10.849C10.1958 11.3689 9.67466 11.7092 9.09196 11.7428C8.90026 11.7436 8.71162 11.6948 8.54435 11.6011L7.82679 11.2014C8.14907 12.0918 8.99483 12.6846 9.9417 12.6838C10.3091 12.6837 10.671 12.594 10.996 12.4225C11.116 12.3541 11.2667 12.372 11.3674 12.4666L18.4611 19.5666C18.5379 19.6431 18.57 19.7536 18.5461 19.8593C18.4124 20.4274 18.5047 21.0253 18.8034 21.5267C19.4396 22.5942 20.8208 22.944 21.8884 22.3078L20.7176 21.9931C20.3552 21.8894 20.0626 21.6213 19.9277 21.2692C19.7815 20.9034 19.7605 20.4995 19.8679 20.1205C20.0033 19.4456 20.5697 18.9422 21.2558 18.8868Z" fill="#E71D32"/>
<path d="M13.3847 17.4108L12.8434 16.8695L13.8568 15.8561L14.3981 16.3974L13.3847 17.4108Z" fill="#E71D32"/>
<path d="M19.635 10.081C19.6917 10.024 19.7243 9.94741 19.7263 9.86704L19.7515 9.02674L21.5359 7.96615L22.2912 8.72147L21.2527 10.5028L20.3966 10.5342C20.3163 10.5362 20.2397 10.5689 20.1826 10.6255L16.3431 14.4619L15.8017 13.9206L19.635 10.081Z" fill="#E71D32"/>
<path d="M13.3249 18.8459L12.9095 18.4273L12.749 18.2668L11.4272 16.9356L11.7419 16.6209L13.6302 18.5343L13.3249 18.8459Z" fill="#E71D32"/>
</svg>
