<svg width="30" height="15" viewBox="0 0 30 15" fill="none" xmlns="http://www.w3.org/2000/svg">
<rect x="0.5" y="0.5" width="29" height="14" rx="7" fill="white" stroke="#7D7D7D"/>
<path d="M27.5 2.5L2.5 12.5" stroke="#7D7D7D"/>
<path d="M10.7617 9.67578H8.55859L8.09766 11H7.07031L9.21875 5.3125H10.1055L12.2578 11H11.2266L10.7617 9.67578ZM8.83594 8.87891H10.4844L9.66016 6.51953L8.83594 8.87891ZM13.8945 8.88672V11H12.9062V5.3125H15.082C15.7174 5.3125 16.2214 5.47786 16.5938 5.80859C16.9688 6.13932 17.1562 6.57682 17.1562 7.12109C17.1562 7.67839 16.9727 8.11198 16.6055 8.42188C16.2409 8.73177 15.7292 8.88672 15.0703 8.88672H13.8945ZM13.8945 8.09375H15.082C15.4336 8.09375 15.7018 8.01172 15.8867 7.84766C16.0716 7.68099 16.1641 7.44141 16.1641 7.12891C16.1641 6.82161 16.0703 6.57682 15.8828 6.39453C15.6953 6.20964 15.4375 6.11458 15.1094 6.10938H13.8945V8.09375ZM19.0117 8.88672V11H18.0234V5.3125H20.1992C20.8346 5.3125 21.3385 5.47786 21.7109 5.80859C22.0859 6.13932 22.2734 6.57682 22.2734 7.12109C22.2734 7.67839 22.0898 8.11198 21.7227 8.42188C21.3581 8.73177 20.8464 8.88672 20.1875 8.88672H19.0117ZM19.0117 8.09375H20.1992C20.5508 8.09375 20.819 8.01172 21.0039 7.84766C21.1888 7.68099 21.2812 7.44141 21.2812 7.12891C21.2812 6.82161 21.1875 6.57682 21 6.39453C20.8125 6.20964 20.5547 6.11458 20.2266 6.10938H19.0117V8.09375Z" fill="#7D7D7D"/>
</svg>
