<svg width="30" height="15" viewBox="0 0 30 15" fill="none" xmlns="http://www.w3.org/2000/svg">
<rect x="0.5" y="0.5" width="29" height="14" rx="7" fill="white" stroke="#7D7D7D"/>
<path d="M27.5 2.5L2.5 12.5" stroke="#7D7D7D"/>
<path d="M11.9375 10.2617C11.7318 10.5299 11.4466 10.7331 11.082 10.8711C10.7174 11.0091 10.3034 11.0781 9.83984 11.0781C9.36328 11.0781 8.94141 10.9701 8.57422 10.7539C8.20703 10.5378 7.92318 10.2292 7.72266 9.82812C7.52474 9.42448 7.42188 8.95443 7.41406 8.41797V7.97266C7.41406 7.11328 7.61979 6.44271 8.03125 5.96094C8.44271 5.47656 9.01693 5.23438 9.75391 5.23438C10.3867 5.23438 10.8893 5.39062 11.2617 5.70312C11.6341 6.01562 11.8581 6.46615 11.9336 7.05469H10.9648C10.8555 6.36979 10.4583 6.02734 9.77344 6.02734C9.33073 6.02734 8.99349 6.1875 8.76172 6.50781C8.53255 6.82552 8.41406 7.29297 8.40625 7.91016V8.34766C8.40625 8.96224 8.53516 9.4401 8.79297 9.78125C9.05339 10.1198 9.41406 10.2891 9.875 10.2891C10.3802 10.2891 10.7396 10.1745 10.9531 9.94531V8.83203H9.78125V8.08203H11.9375V10.2617ZM14.0117 8.88672V11H13.0234V5.3125H15.1992C15.8346 5.3125 16.3385 5.47786 16.7109 5.80859C17.0859 6.13932 17.2734 6.57682 17.2734 7.12109C17.2734 7.67839 17.0898 8.11198 16.7227 8.42188C16.3581 8.73177 15.8464 8.88672 15.1875 8.88672H14.0117ZM14.0117 8.09375H15.1992C15.5508 8.09375 15.819 8.01172 16.0039 7.84766C16.1888 7.68099 16.2812 7.44141 16.2812 7.12891C16.2812 6.82161 16.1875 6.57682 16 6.39453C15.8125 6.20964 15.5547 6.11458 15.2266 6.10938H14.0117V8.09375ZM21.1133 9.53516C21.1133 9.28516 21.0247 9.09245 20.8477 8.95703C20.6732 8.82161 20.3568 8.6849 19.8984 8.54688C19.4401 8.40885 19.0755 8.25521 18.8047 8.08594C18.2865 7.76042 18.0273 7.33594 18.0273 6.8125C18.0273 6.35417 18.2135 5.97656 18.5859 5.67969C18.9609 5.38281 19.4466 5.23438 20.043 5.23438C20.4388 5.23438 20.7917 5.30729 21.1016 5.45312C21.4115 5.59896 21.6549 5.80729 21.832 6.07812C22.0091 6.34635 22.0977 6.64453 22.0977 6.97266H21.1133C21.1133 6.67578 21.0195 6.44401 20.832 6.27734C20.6471 6.10807 20.3815 6.02344 20.0352 6.02344C19.7122 6.02344 19.4609 6.09245 19.2812 6.23047C19.1042 6.36849 19.0156 6.5612 19.0156 6.80859C19.0156 7.01693 19.112 7.19141 19.3047 7.33203C19.4974 7.47005 19.8151 7.60547 20.2578 7.73828C20.7005 7.86849 21.056 8.01823 21.3242 8.1875C21.5924 8.35417 21.7891 8.54688 21.9141 8.76562C22.0391 8.98177 22.1016 9.23568 22.1016 9.52734C22.1016 10.0013 21.9193 10.3789 21.5547 10.6602C21.1927 10.9388 20.7005 11.0781 20.0781 11.0781C19.6667 11.0781 19.2878 11.0026 18.9414 10.8516C18.5977 10.6979 18.3294 10.487 18.1367 10.2188C17.9466 9.95052 17.8516 9.63802 17.8516 9.28125H18.8398C18.8398 9.60417 18.9466 9.85417 19.1602 10.0312C19.3737 10.2083 19.6797 10.2969 20.0781 10.2969C20.4219 10.2969 20.6797 10.2279 20.8516 10.0898C21.026 9.94922 21.1133 9.76432 21.1133 9.53516Z" fill="#7D7D7D"/>
</svg>
