<svg width="30" height="30" viewBox="0 0 30 30" fill="none" xmlns="http://www.w3.org/2000/svg">
<circle cx="15" cy="15" r="14.5" stroke="#575C60"/>
<path d="M7.5 12.5H8.5V12V7.5C8.5 7.22383 8.72383 7 9 7H20C20.2762 7 20.5 7.22383 20.5 7.5V12V12.5H21.5C21.7753 12.5 22 12.7247 22 13V15C22 15.2753 21.7753 15.5 21.5 15.5H20.5V16V19V19.5V20V22.5C20.5 22.7762 20.2762 23 20 23H18.5C18.2238 23 18 22.7762 18 22.5V21.3323C16.7475 21.5 15.3257 21.5 14.5 21.5C13.6743 21.5 12.2525 21.5 11 21.3323V22.5C11 22.7762 10.7762 23 10.5 23H9C8.72383 23 8.5 22.7762 8.5 22.5V20V19.5V19V16V15.5H7.5C7.22467 15.5 7 15.2753 7 15V13C7 12.7247 7.22467 12.5 7.5 12.5ZM12.25 20C12.112 20 12 20.112 12 20.25C12 20.388 12.112 20.5 12.25 20.5H16.75C16.888 20.5 17 20.388 17 20.25C17 20.112 16.888 20 16.75 20H12.25ZM12.25 19C12.112 19 12 19.112 12 19.25C12 19.388 12.112 19.5 12.25 19.5H16.75C16.888 19.5 17 19.388 17 19.25C17 19.112 16.888 19 16.75 19H12.25ZM12.25 18C12.112 18 12 18.112 12 18.25C12 18.388 12.112 18.5 12.25 18.5H16.75C16.888 18.5 17 18.388 17 18.25C17 18.112 16.888 18 16.75 18H12.25ZM12.25 17C12.112 17 12 17.112 12 17.25C12 17.388 12.112 17.5 12.25 17.5H16.75C16.888 17.5 17 17.388 17 17.25C17 17.112 16.888 17 16.75 17H12.25ZM18 17C17.7247 17 17.5 17.2247 17.5 17.5V19.5C17.5 19.7753 17.7247 20 18 20H19C19.2753 20 19.5 19.7753 19.5 19.5V17.5C19.5 17.2247 19.2753 17 19 17H18ZM10 17C9.72467 17 9.5 17.2247 9.5 17.5V19.5C9.5 19.7753 9.72467 20 10 20H11C11.2753 20 11.5 19.7753 11.5 19.5V17.5C11.5 17.2247 11.2753 17 11 17H10ZM19.3175 10.5337L19.0257 9.658C18.9263 9.36017 18.7152 8.78617 18.45 8.58733C18.3197 8.48967 18.1553 8.5 18 8.5H11C10.8447 8.5 10.6803 8.48983 10.55 8.5875C10.2848 8.78633 10.0737 9.36017 9.97433 9.65817L9.6825 10.5338C9.78483 10.5117 9.891 10.5 10 10.5H13.5H15.5H19C19.109 10.5 19.2152 10.5117 19.3175 10.5337ZM19 11H16V11.5C16 11.7752 15.7752 12 15.5 12H13.5C13.2248 12 13 11.7753 13 11.5V11H10C9.44767 11 9 11.4478 9 12V13V15V15.5H20V15V13V12C20 11.4477 19.5522 11 19 11Z" fill="#575C60"/>
</svg>
