<svg width="10" height="9" viewBox="0 0 10 9" fill="none" xmlns="http://www.w3.org/2000/svg">
<path d="M9.77582 7.11857L8.23147 5.72535C7.92387 5.449 7.41447 5.45739 7.09615 5.74463L6.3181 6.44631C6.26895 6.42187 6.21807 6.39634 6.16457 6.36926C5.67324 6.12369 5.00078 5.78711 4.29315 5.14833C3.58342 4.5082 3.20994 3.90068 2.93686 3.4572C2.90805 3.41021 2.88044 3.36491 2.85318 3.32189L3.37536 2.85156L3.63208 2.6197C3.95089 2.33205 3.95968 1.87268 3.6528 1.59552L2.10845 0.202147C1.80157 -0.0746245 1.29194 -0.0662281 0.973129 0.221428L0.53788 0.616294L0.549774 0.626945C0.403829 0.794926 0.281873 0.988667 0.191117 1.19759C0.107458 1.39646 0.0553714 1.58624 0.0315548 1.7764C-0.172366 3.30134 0.600165 4.69503 2.69672 6.58622C5.59478 9.20021 7.93025 9.00274 8.031 8.9931C8.25044 8.96944 8.46073 8.92214 8.67445 8.84728C8.90406 8.76637 9.11869 8.65652 9.3048 8.52515L9.31431 8.53277L9.75525 8.1433C10.0734 7.85569 10.0826 7.39617 9.77582 7.11857Z" fill="#23EF78"/>
</svg>
