<svg width="8" height="10" viewBox="0 0 8 10" fill="none" xmlns="http://www.w3.org/2000/svg">
<path d="M4.8621 0H0V9.9H7.05V2.40669L4.8621 0ZM1.65 2.31H3.15C3.2328 2.31 3.3 2.38376 3.3 2.475C3.3 2.56625 3.2328 2.64 3.15 2.64H1.65C1.5672 2.64 1.5 2.56625 1.5 2.475C1.5 2.38376 1.5672 2.31 1.65 2.31ZM5.4 7.92H1.65C1.5672 7.92 1.5 7.84625 1.5 7.755C1.5 7.66376 1.5672 7.59 1.65 7.59H5.4C5.4828 7.59 5.55 7.66376 5.55 7.755C5.55 7.84625 5.4828 7.92 5.4 7.92ZM5.4 6.6H1.65C1.5672 6.6 1.5 6.52625 1.5 6.435C1.5 6.34376 1.5672 6.27 1.65 6.27H5.4C5.4828 6.27 5.55 6.34376 5.55 6.435C5.55 6.52625 5.4828 6.6 5.4 6.6ZM5.4 5.28H1.65C1.5672 5.28 1.5 5.20625 1.5 5.115C1.5 5.02376 1.5672 4.95 1.65 4.95H5.4C5.4828 4.95 5.55 5.02376 5.55 5.115C5.55 5.20625 5.4828 5.28 5.4 5.28ZM5.4 3.96H1.65C1.5672 3.96 1.5 3.88625 1.5 3.795C1.5 3.70376 1.5672 3.63 1.65 3.63H5.4C5.4828 3.63 5.55 3.70376 5.55 3.795C5.55 3.88625 5.4828 3.96 5.4 3.96ZM4.65 2.64V0.33L6.75 2.64H4.65Z" fill="#152935"/>
</svg>
