<svg width="15" height="15" viewBox="0 0 15 15" fill="none" xmlns="http://www.w3.org/2000/svg">
<path d="M12.3788 4.51575C10.931 4.51575 9.75754 5.85112 9.75754 7.49887C9.75754 9.14643 10.931 10.4816 12.3788 10.4816C13.8265 10.4816 15 9.14643 15 7.49887C15 5.85112 13.8265 4.51575 12.3788 4.51575Z" fill="#5A6872"/>
<path d="M2.62139 4.56702C1.17364 4.56702 0 5.90239 0 7.55014C0 9.19789 1.17364 10.5333 2.62139 10.5333C4.06915 10.5333 5.24246 9.19789 5.24246 7.55014C5.24246 5.90239 4.06932 4.56702 2.62139 4.56702Z" fill="#5A6872"/>
<path d="M5.09628 15C3.39105 15 2.00395 13.1904 2.00395 10.9661H3.33319C3.33319 12.3561 4.12408 13.4871 5.09628 13.4871C6.05876 13.4871 6.8719 12.3249 6.8719 10.9494V4.01662C6.8719 1.80188 8.25356 0 9.95121 0C11.6566 0 13.0435 1.80956 13.0435 4.0335H11.7146C11.7146 2.64356 10.9239 1.51256 9.95138 1.51256C8.98642 1.51256 8.20164 2.63588 8.20164 4.01644V10.9494C8.20147 13.1826 6.80811 15 5.09628 15Z" fill="#5A6872"/>
</svg>
