<svg width="30" height="15" viewBox="0 0 30 15" fill="none" xmlns="http://www.w3.org/2000/svg">
<rect x="0.5" y="0.5" width="29" height="14" rx="7" fill="white" stroke="#BB6BD9"/>
<path d="M10.5508 9.53516C10.5508 9.28516 10.4622 9.09245 10.2852 8.95703C10.1107 8.82161 9.79427 8.6849 9.33594 8.54688C8.8776 8.40885 8.51302 8.25521 8.24219 8.08594C7.72396 7.76042 7.46484 7.33594 7.46484 6.8125C7.46484 6.35417 7.65104 5.97656 8.02344 5.67969C8.39844 5.38281 8.88411 5.23438 9.48047 5.23438C9.8763 5.23438 10.2292 5.30729 10.5391 5.45312C10.849 5.59896 11.0924 5.80729 11.2695 6.07812C11.4466 6.34635 11.5352 6.64453 11.5352 6.97266H10.5508C10.5508 6.67578 10.457 6.44401 10.2695 6.27734C10.0846 6.10807 9.81901 6.02344 9.47266 6.02344C9.14974 6.02344 8.89844 6.09245 8.71875 6.23047C8.54167 6.36849 8.45312 6.5612 8.45312 6.80859C8.45312 7.01693 8.54948 7.19141 8.74219 7.33203C8.9349 7.47005 9.2526 7.60547 9.69531 7.73828C10.138 7.86849 10.4935 8.01823 10.7617 8.1875C11.0299 8.35417 11.2266 8.54688 11.3516 8.76562C11.4766 8.98177 11.5391 9.23568 11.5391 9.52734C11.5391 10.0013 11.3568 10.3789 10.9922 10.6602C10.6302 10.9388 10.138 11.0781 9.51562 11.0781C9.10417 11.0781 8.72526 11.0026 8.37891 10.8516C8.03516 10.6979 7.76693 10.487 7.57422 10.2188C7.38411 9.95052 7.28906 9.63802 7.28906 9.28125H8.27734C8.27734 9.60417 8.38411 9.85417 8.59766 10.0312C8.8112 10.2083 9.11719 10.2969 9.51562 10.2969C9.85938 10.2969 10.1172 10.2279 10.2891 10.0898C10.4635 9.94922 10.5508 9.76432 10.5508 9.53516ZM13.4492 11H12.4648V5.3125H13.4492V11ZM15.9453 5.3125L17.5859 9.67188L19.2227 5.3125H20.5V11H19.5156V9.125L19.6133 6.61719L17.9336 11H17.2266L15.5508 6.62109L15.6484 9.125V11H14.6641V5.3125H15.9453Z" fill="#BB6BD9"/>
</svg>
