<svg width="142" height="83" viewBox="0 0 142 83" fill="none" xmlns="http://www.w3.org/2000/svg">
<rect opacity="0.5" x="0.5" y="0.5" width="141" height="82" rx="4.5" fill="white" stroke="#C1CCD4"/>
<path opacity="0.5" d="M0.5 5C0.5 2.51472 2.51472 0.5 5 0.5H137C139.485 0.5 141.5 2.51472 141.5 5V13.5H0.5V5Z" fill="white" stroke="#C1CCD4"/>
<line opacity="0.5" x1="41.5" y1="2.18557e-08" x2="41.5" y2="83" stroke="#C1CCD4"/>
<line opacity="0.5" x1="14.5" y1="2.18557e-08" x2="14.5" y2="83" stroke="#C1CCD4"/>
<line opacity="0.5" x1="105.5" y1="2.18557e-08" x2="105.5" y2="83" stroke="#C1CCD4"/>
<line opacity="0.5" x1="79.5" y1="2.18557e-08" x2="79.5" y2="83" stroke="#C1CCD4"/>
<line opacity="0.5" y1="21.5" x2="142" y2="21.5" stroke="#C1CCD4"/>
<line opacity="0.5" y1="29.5" x2="142" y2="29.5" stroke="#C1CCD4"/>
<line opacity="0.5" y1="37.5" x2="142" y2="37.5" stroke="#C1CCD4"/>
<line opacity="0.5" y1="45.5" x2="142" y2="45.5" stroke="#C1CCD4"/>
<line opacity="0.5" y1="53.5" x2="142" y2="53.5" stroke="#C1CCD4"/>
<line opacity="0.5" y1="61.5" x2="142" y2="61.5" stroke="#C1CCD4"/>
<line opacity="0.5" y1="69.5" x2="142" y2="69.5" stroke="#C1CCD4"/>
<line opacity="0.5" y1="77.5" x2="142" y2="77.5" stroke="#C1CCD4"/>
</svg>
