<svg width="393" height="95" viewBox="0 0 393 95" fill="none" xmlns="http://www.w3.org/2000/svg">
<circle cx="345.5" cy="47.5" r="47.5" fill="#DFE3E6"/>
<path d="M322 56.6513V32.4364C322 31.0909 323.092 30 324.44 30H348.679C350.027 30 351.119 31.0909 351.119 32.4364V56.6514C351.119 57.0999 350.755 57.4635 350.306 57.4635H322.813C322.364 57.4635 322 57.0999 322 56.6513ZM341.574 64.9468C341.574 67.7376 339.308 70 336.513 70C333.718 70 331.452 67.7376 331.452 64.9468C331.452 62.1558 333.718 59.8935 336.513 59.8935C339.308 59.8935 341.574 62.1558 341.574 64.9468ZM339.043 64.9468C339.043 63.5513 337.91 62.4201 336.513 62.4201C335.115 62.4201 333.982 63.5513 333.982 64.9468C333.982 66.3422 335.115 67.4735 336.513 67.4735C337.91 67.4735 339.043 66.3422 339.043 64.9468ZM332.154 59.8934H320.813C320.364 59.8934 320 60.257 320 60.7055V63.1695C320 63.618 320.364 63.9816 320.813 63.9816H329.903C330.141 62.3557 330.963 60.9194 332.154 59.8934ZM368.053 64.9468C368.053 67.7376 365.787 70 362.992 70C360.197 70 357.931 67.7376 357.931 64.9468C357.931 62.1558 360.197 59.8935 362.992 59.8935C365.787 59.8934 368.053 62.1558 368.053 64.9468ZM365.523 64.9468C365.523 63.5513 364.39 62.4201 362.992 62.4201C361.595 62.4201 360.462 63.5513 360.462 64.9468C360.462 66.3422 361.595 67.4735 362.992 67.4735C364.39 67.4735 365.523 66.3422 365.523 64.9468ZM377 60.7055V63.1695C377 63.618 376.636 63.9816 376.187 63.9816H369.601C369.13 60.7562 366.35 58.2691 362.992 58.2691C359.634 58.2691 356.853 60.7563 356.382 63.9816H343.122C342.885 62.3558 342.063 60.9194 340.872 59.8934H353.445V36.6637C353.445 35.7666 354.173 35.0394 355.071 35.0394H362.75C364.912 35.0394 366.933 36.1117 368.143 37.9009L373.093 45.2217C373.819 46.2955 374.207 47.5616 374.207 48.8573V59.8934H376.187C376.636 59.8934 377 60.257 377 60.7055ZM368.749 45.4092L364.79 39.7928C364.638 39.5767 364.39 39.4481 364.125 39.4481H357.951C357.502 39.4481 357.137 39.8117 357.137 40.2602V45.8766C357.137 46.3252 357.501 46.6887 357.951 46.6887H368.084C368.743 46.6887 369.128 45.9473 368.749 45.4092Z" fill="#152935"/>
<circle cx="47.5" cy="47.5" r="47.5" fill="#DFE3E6"/>
<path d="M28.1085 34.5483C28.1085 30.3105 29.4108 26.2518 31.8774 22.8093L29.3487 21C26.5042 24.9722 25 29.6578 25 34.5483C25 40.1051 26.996 45.4919 30.6206 49.7161L32.9793 47.6913C29.8389 44.0317 28.1085 39.3629 28.1085 34.5483Z" fill="#152935"/>
<path d="M67.2801 21L64.7514 22.8093C67.2179 26.2518 68.5202 30.3105 68.5202 34.5483C68.5202 39.3629 66.7899 44.0317 63.6494 47.6913L66.0082 49.7161C69.6327 45.4919 71.6287 40.1051 71.6287 34.5483C71.6287 29.6578 70.1245 24.9722 67.2801 21Z" fill="#152935"/>
<path d="M34.3258 34.5484C34.3258 31.6144 35.2274 28.8048 36.9335 26.4218L34.4078 24.6125C32.3207 27.5254 31.2173 30.9618 31.2173 34.5484C31.2173 38.6238 32.682 42.5732 35.3397 45.6712L37.6985 43.6464C35.5235 41.113 34.3258 37.8816 34.3258 34.5484Z" fill="#152935"/>
<path d="M62.2209 24.6125L59.6952 26.4218C61.4013 28.8048 62.3029 31.6144 62.3029 34.5484C62.3029 37.8816 61.1052 41.113 58.9302 43.6464L61.2889 45.6712C63.9467 42.5732 65.4114 38.6238 65.4114 34.5484C65.4114 30.9618 64.308 27.5254 62.2209 24.6125Z" fill="#152935"/>
<path d="M40.5426 34.5484C40.5426 32.9197 41.0435 31.3579 41.9921 30.0344L39.4634 28.2251C38.1354 30.0799 37.4341 32.267 37.4341 34.5484C37.4341 37.1439 38.366 39.6575 40.057 41.6276L42.4157 39.6028C41.2074 38.1958 40.5426 36.4017 40.5426 34.5484Z" fill="#152935"/>
<path d="M57.1646 28.2251L54.6359 30.0344C55.5845 31.3579 56.0854 32.9197 56.0854 34.5484C56.0854 36.4017 55.4206 38.1958 54.2124 39.6028L56.5712 41.6276C58.262 39.6575 59.194 37.1439 59.194 34.5484C59.194 32.267 58.4927 30.0799 57.1646 28.2251Z" fill="#152935"/>
<path d="M64.8928 70.944L51.432 37.9906C52.3738 37.137 52.9768 35.9167 52.9768 34.5483C52.9768 31.9771 50.8851 29.8855 48.314 29.8855C45.7428 29.8855 43.6511 31.9771 43.6511 34.5483C43.6511 35.9167 44.2541 37.137 45.1959 37.9906L31.7351 70.944H28.1084V74.0526C42.9015 74.0526 53.7092 74.0526 68.5195 74.0526V70.944H64.8928ZM57.4964 61.0669L50.8033 55.7126L54.1499 53.0353L57.4964 61.0669ZM56.8337 64.5197H39.7943L48.314 57.704L56.8337 64.5197ZM48.0652 39.1859C48.1492 39.1904 48.2287 39.2111 48.314 39.2111C48.3992 39.2111 48.4786 39.1904 48.5627 39.1859L51.1637 45.8684H45.4641L48.0652 39.1859ZM44.1691 48.977H52.4588L52.9052 50.0482L48.314 53.7212L43.7226 50.0483L44.1691 48.977ZM42.4781 53.0353L45.8247 55.7126L39.1316 61.0669L42.4781 53.0353ZM35.1027 70.944L36.398 67.7319H60.2301L61.5254 70.944H35.1027Z" fill="#152935"/>
<circle cx="196.5" cy="47.5" r="47.5" fill="#DFE3E6"/>
<path d="M219.232 28.7312C218.913 28.4119 218.397 28.4119 218.077 28.7312C217.758 29.0505 217.758 29.5666 218.077 29.886C221.128 32.937 221.128 37.9015 218.077 40.9534C217.758 41.2727 217.758 41.7889 218.077 42.1082C218.237 42.2674 218.446 42.3475 218.655 42.3475C218.864 42.3475 219.073 42.2674 219.232 42.1082C222.92 38.4209 222.92 32.4193 219.232 28.7312Z" fill="#152935"/>
<path d="M215.794 30.5901C215.474 30.2708 214.958 30.2708 214.639 30.5901C214.32 30.9094 214.32 31.4255 214.639 31.7448C215.649 32.7551 216.205 34.1009 216.205 35.5334C216.205 36.9658 215.649 38.3108 214.639 39.3211C214.32 39.6404 214.32 40.1565 214.639 40.4758C214.798 40.6351 215.007 40.7151 215.216 40.7151C215.425 40.7151 215.634 40.6351 215.794 40.4758C217.113 39.1577 217.839 37.4019 217.839 35.5334C217.839 33.6648 217.113 31.9082 215.794 30.5901Z" fill="#152935"/>
<path d="M176.921 29.886C177.24 29.5666 177.24 29.0505 176.921 28.7312C176.601 28.4119 176.085 28.4119 175.766 28.7312C172.078 32.4193 172.078 38.4201 175.766 42.1082C175.925 42.2674 176.134 42.3475 176.343 42.3475C176.552 42.3475 176.762 42.2674 176.921 42.1082C177.24 41.7889 177.24 41.2727 176.921 40.9534C173.869 37.9024 173.869 32.9378 176.921 29.886Z" fill="#152935"/>
<path d="M180.36 30.3645C180.041 30.0452 179.524 30.0452 179.205 30.3645C177.886 31.6826 177.16 33.4384 177.16 35.307C177.16 37.1755 177.886 38.9313 179.205 40.2502C179.364 40.4095 179.573 40.4895 179.782 40.4895C179.992 40.4895 180.201 40.4095 180.36 40.2502C180.679 39.9309 180.679 39.4148 180.36 39.0955C179.35 38.0853 178.793 36.7394 178.793 35.307C178.793 33.8745 179.349 32.5295 180.36 31.5193C180.678 31.2008 180.678 30.6838 180.36 30.3645Z" fill="#152935"/>
<path d="M197.499 69.9166C198.401 69.9166 199.132 69.1853 199.132 68.2832C199.132 67.3812 198.401 66.6499 197.499 66.6499C196.597 66.6499 195.866 67.3812 195.866 68.2832C195.866 69.1853 196.597 69.9166 197.499 69.9166Z" fill="#152935"/>
<path d="M207.785 25H187.213C185.229 25 183.616 26.6146 183.616 28.5974V70.4018C183.616 72.3855 185.229 74 187.213 74H207.784C209.769 74 211.382 72.3855 211.382 70.4026V28.5974C211.382 26.6146 209.769 25 207.785 25ZM199.949 27.45H200.766C201.217 27.45 201.582 27.8151 201.582 28.2667C201.582 28.7183 201.217 29.0833 200.766 29.0833H199.949C199.498 29.0833 199.132 28.7183 199.132 28.2667C199.132 27.8151 199.498 27.45 199.949 27.45ZM194.232 27.45H197.499C197.95 27.45 198.316 27.8151 198.316 28.2667C198.316 28.7183 197.95 29.0833 197.499 29.0833H194.232C193.782 29.0833 193.416 28.7183 193.416 28.2667C193.416 27.8151 193.782 27.45 194.232 27.45ZM197.499 71.55C195.697 71.55 194.232 70.0849 194.232 68.2833C194.232 66.4818 195.697 65.0167 197.499 65.0167C199.301 65.0167 200.766 66.4818 200.766 68.2833C200.766 70.0849 199.301 71.55 197.499 71.55ZM209.749 62.5667H185.249V31.5333H209.749V62.5667Z" fill="#152935"/>
</svg>
