<svg width="95" height="95" viewBox="0 0 95 95" fill="none" xmlns="http://www.w3.org/2000/svg">
<circle cx="47.5" cy="47.5" r="47.5" fill="#DFE3E6"/>
<path d="M70.2321 28.7313C69.9128 28.412 69.3967 28.412 69.0774 28.7313C68.7581 29.0506 68.7581 29.5668 69.0774 29.8861C72.1284 32.9371 72.1284 37.9017 69.0774 40.9535C68.7581 41.2729 68.7581 41.789 69.0774 42.1083C69.2366 42.2676 69.4457 42.3476 69.6548 42.3476C69.8638 42.3476 70.0729 42.2676 70.2321 42.1083C73.9202 38.4211 73.9202 32.4194 70.2321 28.7313Z" fill="#152935"/>
<path d="M66.7937 30.5901C66.4744 30.2708 65.9582 30.2708 65.6389 30.5901C65.3196 30.9094 65.3196 31.4255 65.6389 31.7448C66.6491 32.7551 67.2053 34.1009 67.2053 35.5334C67.2053 36.9658 66.6491 38.3108 65.6389 39.3211C65.3196 39.6404 65.3196 40.1565 65.6389 40.4758C65.7982 40.6351 66.0072 40.7151 66.2163 40.7151C66.4254 40.7151 66.6344 40.6351 66.7937 40.4758C68.1126 39.1577 68.8386 37.4019 68.8386 35.5334C68.8386 33.6648 68.1134 31.9082 66.7937 30.5901Z" fill="#152935"/>
<path d="M27.9208 29.8861C28.2401 29.5668 28.2401 29.0506 27.9208 28.7313C27.6015 28.412 27.0854 28.412 26.766 28.7313C23.078 32.4194 23.078 38.4202 26.766 42.1083C26.9253 42.2676 27.1344 42.3476 27.3434 42.3476C27.5525 42.3476 27.7616 42.2676 27.9208 42.1083C28.2401 41.789 28.2401 41.2729 27.9208 40.9535C24.8689 37.9025 24.8689 32.938 27.9208 29.8861Z" fill="#152935"/>
<path d="M31.3599 30.3646C31.0405 30.0453 30.5244 30.0453 30.2051 30.3646C28.8862 31.6827 28.1602 33.4385 28.1602 35.3071C28.1602 37.1756 28.8862 38.9314 30.2051 40.2504C30.3643 40.4096 30.5734 40.4896 30.7825 40.4896C30.9915 40.4896 31.2006 40.4096 31.3599 40.2504C31.6792 39.931 31.6792 39.4149 31.3599 39.0956C30.3496 38.0854 29.7935 36.7395 29.7935 35.3071C29.7935 33.8746 30.3488 32.5296 31.3599 31.5194C31.6784 31.2009 31.6784 30.6839 31.3599 30.3646Z" fill="#152935"/>
<path d="M48.4995 69.9167C49.4016 69.9167 50.1329 69.1854 50.1329 68.2834C50.1329 67.3813 49.4016 66.65 48.4995 66.65C47.5975 66.65 46.8662 67.3813 46.8662 68.2834C46.8662 69.1854 47.5975 69.9167 48.4995 69.9167Z" fill="#152935"/>
<path d="M58.7855 25H38.2136C36.2299 25 34.6162 26.6146 34.6162 28.5974V70.4018C34.6162 72.3855 36.2299 74 38.2136 74H58.7846C60.7691 74 62.3829 72.3855 62.3829 70.4026V28.5974C62.3829 26.6146 60.7691 25 58.7855 25ZM50.9495 27.45H51.7662C52.217 27.45 52.5829 27.8151 52.5829 28.2667C52.5829 28.7183 52.217 29.0833 51.7662 29.0833H50.9495C50.4987 29.0833 50.1329 28.7183 50.1329 28.2667C50.1329 27.8151 50.4987 27.45 50.9495 27.45ZM45.2329 27.45H48.4995C48.9503 27.45 49.3162 27.8151 49.3162 28.2667C49.3162 28.7183 48.9503 29.0833 48.4995 29.0833H45.2329C44.7821 29.0833 44.4162 28.7183 44.4162 28.2667C44.4162 27.8151 44.7821 27.45 45.2329 27.45ZM48.4995 71.55C46.698 71.55 45.2329 70.0849 45.2329 68.2833C45.2329 66.4818 46.698 65.0167 48.4995 65.0167C50.3011 65.0167 51.7662 66.4818 51.7662 68.2833C51.7662 70.0849 50.3011 71.55 48.4995 71.55ZM60.7495 62.5667H36.2495V31.5333H60.7495V62.5667Z" fill="#152935"/>
</svg>
