<svg width="16" height="16" viewBox="0 0 16 16" fill="none" xmlns="http://www.w3.org/2000/svg">
<path d="M15.0625 9.13281V1.4375C15.0625 1.17859 14.8527 0.96875 14.5938 0.96875H12.2188V0.46875C12.2188 0.209839 12.0089 0 11.75 0C11.4911 0 11.2812 0.209839 11.2812 0.46875V0.96875H9.40625V0.46875C9.40625 0.209839 9.19641 0 8.9375 0C8.67859 0 8.46875 0.209839 8.46875 0.46875V0.96875H6.59375V0.46875C6.59375 0.209839 6.38391 0 6.125 0C5.86609 0 5.65625 0.209839 5.65625 0.46875V0.96875H3.78125V0.46875C3.78125 0.209839 3.57141 0 3.3125 0C3.05359 0 2.84375 0.209839 2.84375 0.46875V0.96875H0.46875C0.209839 0.96875 0 1.17859 0 1.4375V13.6562C0 13.9152 0.209839 14.125 0.46875 14.125H8.27515C9.03296 15.2548 10.3217 16 11.7812 16C14.1074 16 16 14.1074 16 11.7812C16 10.7791 15.6484 9.85742 15.0625 9.13281ZM2.84375 1.90625V2.375C2.84375 2.63391 3.05359 2.84375 3.3125 2.84375C3.57141 2.84375 3.78125 2.63391 3.78125 2.375V1.90625H5.65625V2.375C5.65625 2.63391 5.86609 2.84375 6.125 2.84375C6.38391 2.84375 6.59375 2.63391 6.59375 2.375V1.90625H8.46875V2.375C8.46875 2.63391 8.67859 2.84375 8.9375 2.84375C9.19641 2.84375 9.40625 2.63391 9.40625 2.375V1.90625H11.2812V2.375C11.2812 2.63391 11.4911 2.84375 11.75 2.84375C12.0089 2.84375 12.2188 2.63391 12.2188 2.375V1.90625H14.125V3.78125H0.9375V1.90625H2.84375ZM0.9375 13.1875V4.71875H14.125V8.27515C13.4542 7.82532 12.6478 7.5625 11.7812 7.5625C10.3 7.5625 8.99487 8.32996 8.24194 9.48792C8.17859 9.45593 8.10718 9.4375 8.03125 9.4375H7.09375C6.83484 9.4375 6.625 9.64734 6.625 9.90625C6.625 10.1652 6.83484 10.375 7.09375 10.375H7.80383C7.698 10.6736 7.62476 10.9875 7.58875 11.3125H7.09375C6.83484 11.3125 6.625 11.5223 6.625 11.7812C6.625 12.0402 6.83484 12.25 7.09375 12.25H7.58875C7.62476 12.575 7.69788 12.8889 7.80383 13.1875H0.9375ZM11.7812 15.0625C9.97192 15.0625 8.5 13.5906 8.5 11.7812C8.5 9.97192 9.97192 8.5 11.7812 8.5C13.5906 8.5 15.0625 9.97192 15.0625 11.7812C15.0625 13.5906 13.5906 15.0625 11.7812 15.0625Z" fill="#5A6872"/>
<path d="M13.6562 11.3125H12.25V9.90625C12.25 9.64734 12.0402 9.4375 11.7812 9.4375C11.5223 9.4375 11.3125 9.64734 11.3125 9.90625V11.7812C11.3125 12.0402 11.5223 12.25 11.7812 12.25H13.6562C13.9152 12.25 14.125 12.0402 14.125 11.7812C14.125 11.5223 13.9152 11.3125 13.6562 11.3125Z" fill="#5A6872"/>
<path d="M4.25 5.6875H3.3125C3.05359 5.6875 2.84375 5.89734 2.84375 6.15625C2.84375 6.41516 3.05359 6.625 3.3125 6.625H4.25C4.50891 6.625 4.71875 6.41516 4.71875 6.15625C4.71875 5.89734 4.50891 5.6875 4.25 5.6875Z" fill="#5A6872"/>
<path d="M4.25 7.5625H3.3125C3.05359 7.5625 2.84375 7.77234 2.84375 8.03125C2.84375 8.29016 3.05359 8.5 3.3125 8.5H4.25C4.50891 8.5 4.71875 8.29016 4.71875 8.03125C4.71875 7.77234 4.50891 7.5625 4.25 7.5625Z" fill="#5A6872"/>
<path d="M4.25 9.4375H3.3125C3.05359 9.4375 2.84375 9.64734 2.84375 9.90625C2.84375 10.1652 3.05359 10.375 3.3125 10.375H4.25C4.50891 10.375 4.71875 10.1652 4.71875 9.90625C4.71875 9.64734 4.50891 9.4375 4.25 9.4375Z" fill="#5A6872"/>
<path d="M7.09375 6.625H8.03125C8.29016 6.625 8.5 6.41516 8.5 6.15625C8.5 5.89734 8.29016 5.6875 8.03125 5.6875H7.09375C6.83484 5.6875 6.625 5.89734 6.625 6.15625C6.625 6.41516 6.83484 6.625 7.09375 6.625Z" fill="#5A6872"/>
<path d="M7.09375 8.5H8.03125C8.29016 8.5 8.5 8.29016 8.5 8.03125C8.5 7.77234 8.29016 7.5625 8.03125 7.5625H7.09375C6.83484 7.5625 6.625 7.77234 6.625 8.03125C6.625 8.29016 6.83484 8.5 7.09375 8.5Z" fill="#5A6872"/>
<path d="M4.25 11.3125H3.3125C3.05359 11.3125 2.84375 11.5223 2.84375 11.7812C2.84375 12.0402 3.05359 12.25 3.3125 12.25H4.25C4.50891 12.25 4.71875 12.0402 4.71875 11.7812C4.71875 11.5223 4.50891 11.3125 4.25 11.3125Z" fill="#5A6872"/>
<path d="M10.8438 6.625H11.7812C12.0402 6.625 12.25 6.41516 12.25 6.15625C12.25 5.89734 12.0402 5.6875 11.7812 5.6875H10.8438C10.5848 5.6875 10.375 5.89734 10.375 6.15625C10.375 6.41516 10.5848 6.625 10.8438 6.625Z" fill="#5A6872"/>
</svg>
