<svg width="32" height="32" viewBox="0 0 32 32" fill="none" xmlns="http://www.w3.org/2000/svg">
<circle cx="16" cy="16" r="16" fill="#EFC100"/>
<path d="M16.3068 9.06873C12.9316 9.06873 10.17 9.45228 10.17 12.1371V19.4246C10.17 20.8821 11.3974 22.1094 12.8549 22.1094L11.7042 23.2601V23.6436H20.9094V23.2601L19.7588 22.1094C21.2163 22.1094 22.4436 20.8821 22.4436 19.4246V12.1371C22.4436 9.45228 19.6821 9.06873 16.3068 9.06873ZM12.8549 20.5752C12.2412 20.5752 11.7042 20.0383 11.7042 19.4246C11.7042 18.8109 12.2412 18.2739 12.8549 18.2739C13.4686 18.2739 14.0055 18.8109 14.0055 19.4246C14.0055 20.0383 13.4686 20.5752 12.8549 20.5752ZM15.5397 15.9726H11.7042V12.1371H15.5397V15.9726ZM19.7588 20.5752C19.1451 20.5752 18.6081 20.0383 18.6081 19.4246C18.6081 18.8109 19.1451 18.2739 19.7588 18.2739C20.3725 18.2739 20.9094 18.8109 20.9094 19.4246C20.9094 20.0383 20.3725 20.5752 19.7588 20.5752ZM20.9094 15.9726H17.0739V12.1371H20.9094V15.9726Z" fill="white"/>
</svg>
