<svg width="10" height="16" viewBox="0 0 10 16" fill="none" xmlns="http://www.w3.org/2000/svg">
<path d="M7.95647 4.89755L6.46922 11.7595C6.1834 13.0782 4.96599 13.9326 3.74874 13.6688C2.53149 13.4049 1.77706 12.1232 2.06287 10.8045L3.67945 3.34584C3.85792 2.5224 4.61965 1.98781 5.37975 2.15255C6.13984 2.31729 6.61188 3.11929 6.43341 3.94273L5.07549 10.208C5.00436 10.5362 4.69831 10.751 4.39537 10.6853C4.09243 10.6196 3.90277 10.2974 3.9739 9.96924L5.2025 4.30066L4.37631 4.1216L3.14771 9.79017C2.96924 10.6136 3.44129 11.4156 4.20138 11.5803C4.96148 11.7451 5.72321 11.2105 5.90168 10.3871L7.2596 4.12179C7.54541 2.8031 6.79099 1.52134 5.57374 1.25751C4.35648 0.993688 3.13907 1.84808 2.85326 3.16677L1.23668 10.6254C0.843533 12.4394 1.88034 14.2009 3.55475 14.5638C5.22916 14.9267 6.90225 13.7525 7.2954 11.9386L8.78266 5.07662L7.95647 4.89755Z" fill="#0086DA"/>
</svg>
