<svg width="12" height="9" viewBox="0 0 12 9" fill="none" xmlns="http://www.w3.org/2000/svg">
<path d="M0.421059 5.99653V0.548194C0.421059 0.245441 0.651039 0 0.934765 0H6.03771C6.32141 0 6.55139 0.245441 6.55139 0.548194V5.99655C6.55139 6.09747 6.47475 6.17929 6.38016 6.17929H0.592294C0.497706 6.17929 0.421059 6.09747 0.421059 5.99653ZM4.54184 7.86302C4.54184 8.49096 4.0648 9 3.47639 9C2.88798 9 2.41094 8.49096 2.41094 7.86302C2.41094 7.23506 2.88798 6.72604 3.47639 6.72604C4.0648 6.72604 4.54184 7.23506 4.54184 7.86302ZM4.0091 7.86302C4.0091 7.54905 3.77059 7.29453 3.47637 7.29453C3.18216 7.29453 2.94363 7.54905 2.94363 7.86302C2.94363 8.17699 3.18216 8.43153 3.47637 8.43153C3.77059 8.43153 4.0091 8.17699 4.0091 7.86302ZM2.55873 6.72602H0.171235C0.0766667 6.72602 0 6.80783 0 6.90875V7.46313C0 7.56405 0.0766667 7.64587 0.171235 7.64587H2.08492C2.13488 7.28003 2.30792 6.95687 2.55873 6.72602ZM10.1164 7.86302C10.1164 8.49096 9.63939 9 9.05098 9C8.46255 9 7.98553 8.49096 7.98553 7.86302C7.98553 7.23506 8.46255 6.72604 9.05098 6.72604C9.63939 6.72602 10.1164 7.23506 10.1164 7.86302ZM9.58373 7.86302C9.58373 7.54905 9.3452 7.29453 9.05098 7.29453C8.75675 7.29453 8.51826 7.54905 8.51826 7.86302C8.51826 8.17699 8.75677 8.43153 9.05098 8.43153C9.3452 8.43153 9.58373 8.17699 9.58373 7.86302ZM12 6.90875V7.46313C12 7.56405 11.9233 7.64587 11.8288 7.64587H10.4424C10.3433 6.92015 9.75798 6.36055 9.05102 6.36055C8.34392 6.36055 7.75863 6.92017 7.65947 7.64587H4.86786C4.81788 7.28005 4.64486 6.95687 4.39406 6.72602H7.041V1.49933C7.041 1.29749 7.19433 1.13386 7.38347 1.13386H9.00004C9.45522 1.13386 9.88065 1.37514 10.1353 1.7777L11.1775 3.42488C11.3304 3.66649 11.412 3.95136 11.412 4.24289V6.72602H11.8288C11.9233 6.72602 12 6.80783 12 6.90875ZM10.2629 3.46706L9.42955 2.20339C9.39747 2.15476 9.34524 2.12582 9.28951 2.12582H7.98961C7.89506 2.12582 7.81837 2.20763 7.81837 2.30855V3.57223C7.81837 3.67317 7.89504 3.75496 7.98961 3.75496H10.1229C10.2616 3.75496 10.3427 3.58813 10.2629 3.46706Z" fill="#152935"/>
</svg>
