<svg width="30" height="16" viewBox="0 0 30 16" fill="none" xmlns="http://www.w3.org/2000/svg">
<path d="M10.7837 9.29932C10.7837 9.07373 10.7031 8.89795 10.542 8.77197C10.3838 8.646 10.104 8.51562 9.70264 8.38086C9.30127 8.24609 8.97314 8.11572 8.71826 7.98975C7.88916 7.58252 7.47461 7.02295 7.47461 6.31104C7.47461 5.95654 7.57715 5.64453 7.78223 5.375C7.99023 5.10254 8.2832 4.8916 8.66113 4.74219C9.03906 4.58984 9.46387 4.51367 9.93555 4.51367C10.3955 4.51367 10.8071 4.5957 11.1704 4.75977C11.5366 4.92383 11.8208 5.1582 12.0229 5.46289C12.2251 5.76465 12.3262 6.11035 12.3262 6.5H10.7881C10.7881 6.23926 10.7075 6.03711 10.5464 5.89355C10.3882 5.75 10.1729 5.67822 9.90039 5.67822C9.625 5.67822 9.40674 5.73975 9.24561 5.86279C9.0874 5.98291 9.0083 6.13672 9.0083 6.32422C9.0083 6.48828 9.09619 6.6377 9.27197 6.77246C9.44775 6.9043 9.75684 7.04199 10.1992 7.18555C10.6416 7.32617 11.0049 7.47852 11.2891 7.64258C11.9805 8.04102 12.3262 8.59033 12.3262 9.29053C12.3262 9.8501 12.1152 10.2896 11.6934 10.6089C11.2715 10.9282 10.6929 11.0879 9.95752 11.0879C9.43896 11.0879 8.96875 10.9956 8.54688 10.811C8.12793 10.6235 7.81152 10.3687 7.59766 10.0464C7.38672 9.72119 7.28125 9.34766 7.28125 8.92578H8.82812C8.82812 9.26855 8.91602 9.52197 9.0918 9.68604C9.27051 9.84717 9.55908 9.92773 9.95752 9.92773C10.2124 9.92773 10.4131 9.87354 10.5596 9.76514C10.709 9.65381 10.7837 9.49854 10.7837 9.29932Z" fill="#B898C4"/>
<path d="M14.7607 11H13.2227V4.60156H14.7607V11Z" fill="#B898C4"/>
<path d="M19.2871 9.05322L17.8589 4.60156H15.833V11H17.3755V9.50586L17.2261 6.44287L18.7773 11H19.7969L21.3438 6.44727L21.1943 9.50586V11H22.7412V4.60156H20.7109L19.2871 9.05322Z" fill="#B898C4"/>
<path fill-rule="evenodd" clip-rule="evenodd" d="M0 8C0 3.58172 3.58172 0 8 0H22C26.4183 0 30 3.58172 30 8C30 12.4183 26.4183 16 22 16H8C3.58172 16 0 12.4183 0 8ZM8 1H22C25.866 1 29 4.13401 29 8C29 11.866 25.866 15 22 15H8C4.13401 15 1 11.866 1 8C1 4.13401 4.13401 1 8 1Z" fill="#B898C4"/>
</svg>
