<svg width="44" height="15" viewBox="0 0 44 15" fill="none" xmlns="http://www.w3.org/2000/svg">
<path d="M18.7499 0.876V2.35H16.2199V15H14.4819V11.04C13.8073 11.7293 12.9273 12.074 11.8419 12.074C10.8299 12.074 9.9646 11.7367 9.24593 11.062C8.52726 10.3873 8.16793 9.51467 8.16793 8.444C8.16793 7.31467 8.52726 6.42 9.24593 5.76C9.9646 5.08533 10.8446 4.748 11.8859 4.748C12.2526 4.748 12.6046 4.78467 12.9419 4.858V6.288C12.7073 6.21467 12.4286 6.178 12.1059 6.178C11.4753 6.178 10.9399 6.39067 10.4999 6.816C10.0746 7.24133 9.86193 7.79133 9.86193 8.466C9.86193 9.14067 10.0673 9.68333 10.4779 10.094C10.9033 10.49 11.4533 10.688 12.1279 10.688C12.7733 10.688 13.3233 10.468 13.7779 10.028C14.2473 9.57333 14.4819 8.98667 14.4819 8.268V2.35H7.68393V5.474C7.68393 6.51533 7.35393 7.32933 6.69393 7.916C6.0486 8.50267 5.18326 8.818 4.09793 8.862L3.83393 8.884L8.67393 15H6.53993L1.80993 8.862V7.432H3.28393C5.07326 7.432 5.96793 6.72067 5.96793 5.298V2.35H0.64393V0.876H18.7499ZM17.7885 2.35V0.876H24.6085V2.35H22.0565V15H20.3405V2.35H17.7885ZM37.5362 0.876V2.35H34.9842V15H33.2682V6.552H31.1782C28.5822 6.552 27.2842 7.696 27.2842 9.984C27.2842 11.0693 27.5482 11.9273 28.0762 12.558C28.6189 13.1887 29.4109 13.504 30.4522 13.504C30.7015 13.504 30.8702 13.4967 30.9582 13.482V14.956C30.7235 14.9853 30.5035 15 30.2982 15C28.8315 15 27.6729 14.5307 26.8222 13.592C25.9715 12.6533 25.5462 11.4433 25.5462 9.962C25.5462 8.49533 26.0082 7.31467 26.9322 6.42C27.8562 5.51067 29.2055 5.056 30.9802 5.056H33.2682V2.35H23.6322V0.876H37.5362ZM36.5443 2.35V0.876H43.3643V2.35H40.8123V15H39.0963V2.35H36.5443Z" fill="#152935"/>
</svg>
