<svg width="46" height="46" viewBox="0 0 46 46" fill="none" xmlns="http://www.w3.org/2000/svg">
<path d="M37.9141 0H8.08594C5.60895 0 3.59375 2.0152 3.59375 4.49219V41.5078C3.59375 43.9848 5.60895 46 8.08594 46H37.9141C40.3911 46 42.4062 43.9848 42.4062 41.5078V4.49219C42.4062 2.0152 40.3911 0 37.9141 0ZM8.08594 1.79688H37.9141C39.4003 1.79688 40.6094 3.00599 40.6094 4.49219V4.85156H27.043C26.5468 4.85156 26.1445 5.25388 26.1445 5.75C26.1445 6.24612 26.5468 6.64844 27.043 6.64844H40.6094V22.1016H5.39062V6.64844H18.957C19.4532 6.64844 19.8555 6.24612 19.8555 5.75C19.8555 5.25388 19.4532 4.85156 18.957 4.85156H5.39062V4.49219C5.39062 3.00599 6.59974 1.79688 8.08594 1.79688ZM37.9141 44.2031H8.08594C6.59974 44.2031 5.39062 42.994 5.39062 41.5078V23.8984H40.6094V41.5078C40.6094 42.994 39.4003 44.2031 37.9141 44.2031Z" fill="#077BC4"/>
<path d="M17.6094 9.70874V14.0212C17.6094 14.5174 18.0116 14.9197 18.5078 14.9197H37.1132C37.6094 14.9197 38.0116 14.5174 38.0116 14.0212V9.70874C38.0116 9.21262 37.6094 8.8103 37.1132 8.8103H18.5078C18.0116 8.8103 17.6094 9.21262 17.6094 9.70874ZM19.4063 10.6072H36.2148V13.1228H19.4063V10.6072Z" fill="#077BC4"/>
<path d="M37.1132 17.4353H18.5078C18.0116 17.4353 17.6094 17.8376 17.6094 18.3337C17.6094 18.8299 18.0116 19.2322 18.5078 19.2322H37.1132C37.6094 19.2322 38.0116 18.8299 38.0116 18.3337C38.0116 17.8376 37.6094 17.4353 37.1132 17.4353Z" fill="#077BC4"/>
<path d="M27.6417 35.3271H22.2212C21.725 35.3271 21.3228 35.7295 21.3228 36.2256C21.3228 36.7217 21.725 37.124 22.2212 37.124H27.6417C28.1379 37.124 28.5402 36.7217 28.5402 36.2256C28.5402 35.7295 28.1378 35.3271 27.6417 35.3271Z" fill="#077BC4"/>
<path d="M27.6417 31.0146H22.2212C21.725 31.0146 21.3228 31.417 21.3228 31.9131C21.3228 32.4092 21.725 32.8115 22.2212 32.8115H27.6417C28.1379 32.8115 28.5402 32.4092 28.5402 31.9131C28.5402 31.417 28.1378 31.0146 27.6417 31.0146Z" fill="#077BC4"/>
<path d="M27.6417 39.6396H22.2212C21.725 39.6396 21.3228 40.042 21.3228 40.5381C21.3228 41.0342 21.725 41.4365 22.2212 41.4365H27.6417C28.1379 41.4365 28.5402 41.0342 28.5402 40.5381C28.5402 40.042 28.1378 39.6396 27.6417 39.6396Z" fill="#077BC4"/>
<path d="M27.6417 26.7021H22.2212C21.725 26.7021 21.3228 27.1045 21.3228 27.6006C21.3228 28.0967 21.725 28.499 22.2212 28.499H27.6417C28.1379 28.499 28.5402 28.0967 28.5402 27.6006C28.5402 27.1045 28.1378 26.7021 27.6417 26.7021Z" fill="#077BC4"/>
<path d="M37.4384 35.3271H31.9541C31.4579 35.3271 31.0557 35.7295 31.0557 36.2256C31.0557 36.7217 31.4579 37.124 31.9541 37.124H37.4384C37.9346 37.124 38.3369 36.7217 38.3369 36.2256C38.3369 35.7295 37.9346 35.3271 37.4384 35.3271Z" fill="#077BC4"/>
<path d="M37.4384 31.0146H31.9541C31.4579 31.0146 31.0557 31.417 31.0557 31.9131C31.0557 32.4092 31.4579 32.8115 31.9541 32.8115H37.4384C37.9346 32.8115 38.3369 32.4092 38.3369 31.9131C38.3369 31.417 37.9346 31.0146 37.4384 31.0146Z" fill="#077BC4"/>
<path d="M37.4384 39.6396H31.9541C31.4579 39.6396 31.0557 40.042 31.0557 40.5381C31.0557 41.0342 31.4579 41.4365 31.9541 41.4365H37.4384C37.9346 41.4365 38.3369 41.0342 38.3369 40.5381C38.3369 40.042 37.9346 39.6396 37.4384 39.6396Z" fill="#077BC4"/>
<path d="M37.4384 26.7021H31.9541C31.4579 26.7021 31.0557 27.1045 31.0557 27.6006C31.0557 28.0967 31.4579 28.499 31.9541 28.499H37.4384C37.9346 28.499 38.3369 28.0967 38.3369 27.6006C38.3369 27.1045 37.9346 26.7021 37.4384 26.7021Z" fill="#077BC4"/>
<path d="M17.9088 35.3271H8.80469C8.30848 35.3271 7.90625 35.7295 7.90625 36.2256C7.90625 36.7217 8.30848 37.124 8.80469 37.124H17.9088C18.405 37.124 18.8073 36.7217 18.8073 36.2256C18.8073 35.7295 18.405 35.3271 17.9088 35.3271Z" fill="#077BC4"/>
<path d="M17.9088 31.0146H8.80469C8.30848 31.0146 7.90625 31.417 7.90625 31.9131C7.90625 32.4092 8.30848 32.8115 8.80469 32.8115H17.9088C18.405 32.8115 18.8073 32.4092 18.8073 31.9131C18.8073 31.417 18.405 31.0146 17.9088 31.0146Z" fill="#077BC4"/>
<path d="M17.9088 39.6396H8.80469C8.30848 39.6396 7.90625 40.042 7.90625 40.5381C7.90625 41.0342 8.30848 41.4365 8.80469 41.4365H17.9088C18.405 41.4365 18.8073 41.0342 18.8073 40.5381C18.8073 40.042 18.405 39.6396 17.9088 39.6396Z" fill="#077BC4"/>
<path d="M17.9088 26.7021H8.80469C8.30848 26.7021 7.90625 27.1045 7.90625 27.6006C7.90625 28.0967 8.30848 28.499 8.80469 28.499H17.9088C18.405 28.499 18.8073 28.0967 18.8073 27.6006C18.8073 27.1045 18.405 26.7021 17.9088 26.7021Z" fill="#077BC4"/>
<path d="M23 6.64844C23.2363 6.64844 23.4681 6.5523 23.6352 6.38511C23.8023 6.21809 23.8984 5.98629 23.8984 5.75C23.8984 5.51371 23.8023 5.28191 23.6352 5.1148C23.4681 4.9477 23.2363 4.85156 23 4.85156C22.7637 4.85156 22.5319 4.94761 22.3648 5.1148C22.1977 5.28191 22.1016 5.51371 22.1016 5.75C22.1016 5.98629 22.1977 6.21809 22.3648 6.38511C22.5319 6.5523 22.7637 6.64844 23 6.64844Z" fill="#077BC4"/>
<g clip-path="url(#clip0)">
<path d="M14.6625 11.4927C14.6195 11.4496 14.5643 11.4281 14.4973 11.4281H13.2683C13.1868 11.0305 13.0335 10.6854 12.8083 10.3931H14.4829C14.55 10.3931 14.605 10.3716 14.6483 10.3285C14.6912 10.2854 14.7127 10.2303 14.7127 10.1632V9.42994C14.7127 9.36283 14.6912 9.30777 14.6483 9.26462C14.605 9.22158 14.55 9.19995 14.4828 9.19995H8.50292C8.4358 9.19995 8.38075 9.22158 8.3376 9.2646C8.29457 9.30775 8.27295 9.3628 8.27295 9.42992V10.3858C8.27295 10.4481 8.29571 10.502 8.34122 10.5475C8.38674 10.593 8.44063 10.6158 8.50292 10.6158H9.5451C10.5561 10.6158 11.1982 10.8864 11.4713 11.4279H8.50292C8.4358 11.4279 8.38067 11.4495 8.3376 11.4926C8.29457 11.5358 8.27295 11.5908 8.27295 11.6579V12.3911C8.27295 12.4582 8.29447 12.5133 8.3376 12.5563C8.38075 12.5995 8.4359 12.621 8.50292 12.621H11.572C11.4666 13.014 11.221 13.3134 10.8352 13.5195C10.4494 13.7255 9.94044 13.8286 9.30791 13.8286H8.50292C8.44063 13.8286 8.38674 13.8513 8.34122 13.8968C8.29568 13.9424 8.27295 13.9963 8.27295 14.0585V14.9714C8.27295 15.0338 8.29447 15.0865 8.3376 15.1296C9.25754 16.107 10.4507 17.4749 11.9169 19.2336C11.9601 19.2912 12.02 19.3198 12.0966 19.3198H13.4981C13.5989 19.3198 13.6684 19.2769 13.7066 19.1904C13.7545 19.1042 13.7451 19.0227 13.6778 18.946C12.2789 17.2306 11.1791 15.9465 10.3789 15.0936C11.1935 14.9978 11.8547 14.7342 12.3627 14.303C12.8705 13.8718 13.1795 13.3111 13.2898 12.6211H14.4973C14.5643 12.6211 14.6195 12.5996 14.6625 12.5564C14.7057 12.5134 14.7273 12.4583 14.7273 12.3912V11.6581C14.7273 11.5909 14.7057 11.5359 14.6625 11.4927Z" fill="#077BC4"/>
</g>
<defs>
<clipPath id="clip0">
<rect width="10.12" height="10.12" fill="white" transform="translate(6.43994 9.19995)"/>
</clipPath>
</defs>
</svg>

