<svg width="71" height="15" viewBox="0 0 71 15" fill="none" xmlns="http://www.w3.org/2000/svg">
<path d="M4.2755 9.672H7.8115V5.8H4.7075V8.088C4.7075 8.76 4.5635 9.288 4.2755 9.672ZM10.8995 4.728V5.8H9.0595V15H7.8115V10.76H5.1235C3.9395 10.76 3.03283 10.712 2.4035 10.616L5.3475 15H3.8275L0.835501 10.488V9.496H1.8915C2.4995 9.496 2.91017 9.37867 3.1235 9.144C3.3475 8.89867 3.4595 8.51467 3.4595 7.992V5.8H0.0355007V4.728H10.8995ZM16.8218 9.448V4.728H19.9258V5.8H18.0698V15H16.8218V10.504H13.6858V12.696H12.5658L12.1818 11.8C11.8938 11.16 11.7498 10.6853 11.7498 10.376C11.7498 10.152 11.8084 9.96 11.9258 9.8C12.0538 9.64 12.2191 9.53867 12.4218 9.496V6.776C12.4218 6.41333 12.3684 6.152 12.2618 5.992C12.1551 5.82133 11.9631 5.736 11.6858 5.736C11.3444 5.736 11.0458 5.80533 10.7898 5.944V4.904C11.1098 4.744 11.4831 4.664 11.9098 4.664C13.0938 4.664 13.6858 5.29867 13.6858 6.568V9.448H16.8218ZM22.4548 4.728H24.3108V5.8H22.4708V15H21.2228V5.8H19.3667V4.728H21.1908V3.384C21.1908 2.86133 21.0468 2.46133 20.7588 2.184C20.4814 1.90667 20.1134 1.768 19.6547 1.768C19.1961 1.768 18.8334 1.90667 18.5667 2.184C18.3001 2.45067 18.1667 2.85067 18.1667 3.384V3.672H16.9187V3.352C16.9187 2.456 17.1801 1.784 17.7027 1.336C18.2147 0.888 18.8654 0.664 19.6547 0.664C20.4548 0.664 21.1214 0.888 21.6548 1.336C22.1881 1.784 22.4548 2.456 22.4548 3.352V4.728ZM32.5434 1.768C32.042 1.768 31.642 1.91733 31.3434 2.216C31.0554 2.504 30.9114 2.89867 30.9114 3.4V4.728H32.7514V5.8H30.9114V15H29.6634V5.8H27.8074V4.728H29.6634V3.384C29.6634 2.57333 29.9247 1.91733 30.4474 1.416C30.9807 0.904 31.6687 0.648 32.5114 0.648C33.0447 0.648 33.5994 0.738666 34.1754 0.919999C34.762 1.10133 35.242 1.288 35.6154 1.48C35.9994 1.672 36.5167 1.95467 37.1674 2.328V3.576C35.258 2.37067 33.7167 1.768 32.5434 1.768ZM33.0398 10.536V9.496H34.1118C35.4131 9.496 36.0638 8.984 36.0638 7.96V5.8H32.1918V4.728H38.9118V5.8H37.3118V8.072C37.3118 8.82933 37.0771 9.42667 36.6078 9.864C36.1384 10.2907 35.5091 10.5147 34.7198 10.536H34.5438L37.9358 15H36.4158L33.0398 10.536ZM53.5414 9.992V5.8H45.5094V8.088C46 7.576 46.624 7.32 47.3814 7.32C48.096 7.32 48.72 7.51733 49.2534 7.912C49.776 7.592 50.368 7.432 51.0294 7.432C51.424 7.432 51.76 7.47467 52.0374 7.56V8.664C51.7707 8.568 51.456 8.52 51.0934 8.52C50.528 8.52 50.0587 8.70133 49.6854 9.064C49.312 9.416 49.1254 9.88533 49.1254 10.472C49.1254 11.0907 49.312 11.5867 49.6854 11.96C50.0694 12.3333 50.544 12.52 51.1094 12.52C51.856 12.52 52.448 12.2693 52.8854 11.768C53.3227 11.2667 53.5414 10.6747 53.5414 9.992ZM56.6454 4.728V5.8H54.7894V15H53.5414V12.344C52.9867 13.144 52.1334 13.544 50.9814 13.544C50.128 13.544 49.392 13.272 48.7734 12.728C48.1654 12.1733 47.8614 11.4267 47.8614 10.488C47.8614 9.85867 48.032 9.27733 48.3734 8.744C48.064 8.488 47.6854 8.36 47.2374 8.36C46.768 8.36 46.3627 8.52533 46.0214 8.856C45.68 9.176 45.5094 9.58133 45.5094 10.072V15H44.2454V12.696C43.776 13.1867 43.1574 13.432 42.3894 13.432C41.5147 13.432 40.8054 13.1707 40.2614 12.648C39.7174 12.1147 39.4454 11.416 39.4454 10.552C39.4454 9.624 39.7494 8.88267 40.3574 8.328C40.9654 7.76267 41.7174 7.48 42.6134 7.48C42.784 7.48 42.9067 7.496 42.9814 7.528V8.584C42.928 8.57333 42.8267 8.568 42.6774 8.568C42.1014 8.568 41.6267 8.744 41.2534 9.096C40.88 9.448 40.6934 9.928 40.6934 10.536C40.6934 11.08 40.864 11.528 41.2054 11.88C41.5467 12.232 41.9894 12.408 42.5334 12.408C43.0027 12.408 43.4027 12.2427 43.7334 11.912C44.0747 11.5813 44.2454 11.1707 44.2454 10.68V5.8H38.3574V4.728H56.6454ZM49.9415 1.992V0.903999C50.3255 0.84 50.6135 0.808 50.8055 0.808C51.3495 0.808 51.8135 0.925333 52.1975 1.16C52.5815 1.384 52.9335 1.74667 53.2535 2.248L54.9655 4.84H53.5895L52.1975 2.728C51.8348 2.17333 51.3495 1.896 50.7415 1.896C50.5282 1.896 50.2615 1.928 49.9415 1.992ZM60.4755 9.672H63.8035C64.1022 9.064 64.5715 8.584 65.2115 8.232C65.8515 7.86933 66.5875 7.68267 67.4195 7.672C67.5902 7.672 67.7182 7.67733 67.8035 7.688V5.8H60.9075V8.088C60.9075 8.76 60.7635 9.288 60.4755 9.672ZM69.0515 5.8V8.776C68.7102 8.72267 68.3368 8.696 67.9315 8.696C66.9822 8.696 66.2142 8.91467 65.6275 9.352C65.0515 9.77867 64.7635 10.3973 64.7635 11.208C64.7635 11.9653 65.0195 12.552 65.5315 12.968C66.0542 13.384 66.7422 13.592 67.5955 13.592C68.4382 13.592 69.1955 13.3893 69.8675 12.984V14.136C69.2062 14.4773 68.4328 14.648 67.5475 14.648C66.3315 14.648 65.3448 14.344 64.5875 13.736C63.8408 13.1173 63.4675 12.2693 63.4675 11.192C63.4675 11.096 63.4782 10.952 63.4995 10.76H61.3235C60.1395 10.76 59.2328 10.712 58.6035 10.616L61.5475 15H60.0275L57.0355 10.488V9.496H58.0915C58.6995 9.496 59.1102 9.37867 59.3235 9.144C59.5475 8.89867 59.6595 8.51467 59.6595 7.992V5.8H56.2355V4.728H70.8275V5.8H69.0515Z" fill="#8C9BA5"/>
</svg>
