<svg width="50" height="50" viewBox="0 0 50 50" fill="none" xmlns="http://www.w3.org/2000/svg">
<path d="M49.1993 9.09311H41.5233V6.65781C41.5233 6.21571 41.1649 5.85718 40.7227 5.85718H35.2328C34.7907 5.85718 34.4322 6.21559 34.4322 6.65781V9.09311H15.5676V6.65781C15.5676 6.21571 15.2091 5.85718 14.7669 5.85718H9.2771C8.83499 5.85718 8.47646 6.21559 8.47646 6.65781V9.09311H0.800635C0.358527 9.09311 0 9.45153 0 9.89375V15.0043C0 15.4464 0.358415 15.805 0.800635 15.805H3.40006H46.5999H49.1994C49.6414 15.805 50 15.4466 50 15.0043V9.89375C49.9999 9.45164 49.6414 9.09311 49.1993 9.09311Z" fill="#5A6872"/>
<path d="M3.3999 43.1042C3.3999 43.6777 3.86475 44.1428 4.43828 44.1428H45.5614C46.1349 44.1428 46.5999 43.6778 46.5999 43.1042V18.5317H3.3999V43.1042ZM20.0844 32.493L22.5174 24.7173C22.5592 24.5838 22.683 24.4928 22.823 24.4928H26.6171C26.7195 24.4928 26.8155 24.5419 26.876 24.6247C26.9363 24.7074 26.9532 24.8141 26.9215 24.9116L25.4402 29.4872H29.61C29.7273 29.4872 29.835 29.5513 29.8912 29.6542C29.9472 29.757 29.9426 29.8822 29.8792 29.9806L24.3087 38.6244C24.2484 38.718 24.1459 38.7712 24.0396 38.7712C24.0012 38.7712 23.9624 38.7642 23.9248 38.7499C23.7833 38.6955 23.6993 38.549 23.7239 38.3993L24.6233 32.9088H20.39C20.2882 32.9088 20.1924 32.8602 20.1321 32.7782C20.0716 32.696 20.0539 32.5902 20.0844 32.493Z" fill="#5A6872"/>
</svg>
