<svg width="31" height="12" viewBox="0 0 31 12" fill="none" xmlns="http://www.w3.org/2000/svg">
<path d="M0.655812 0.728H9.19981V1.8H7.35981V11H6.09581V5.736H3.26381C3.07181 5.736 2.93848 5.784 2.86381 5.88C2.78915 5.976 2.75181 6.136 2.75181 6.36C2.75181 6.73333 2.82115 7.128 2.95981 7.544H1.90381C1.60515 6.94667 1.45581 6.392 1.45581 5.88C1.45581 5.08 1.91981 4.68 2.84781 4.68H6.09581V1.8H0.655812V0.728ZM21.5396 1.8H15.6516V4.088C16.1422 3.576 16.7662 3.32 17.5236 3.32C18.3982 3.32 19.1076 3.58667 19.6516 4.12C20.1956 4.65333 20.4676 5.352 20.4676 6.216C20.4676 7.144 20.1636 7.88533 19.5556 8.44C18.9476 8.99467 18.1902 9.272 17.2836 9.272C17.1662 9.272 17.0436 9.26133 16.9156 9.24V8.168C17.0222 8.18933 17.1289 8.2 17.2356 8.2C17.8009 8.2 18.2702 8.024 18.6436 7.672C19.0169 7.32 19.2036 6.83467 19.2036 6.216C19.2036 5.672 19.0329 5.22933 18.6916 4.888C18.3609 4.536 17.9236 4.36 17.3796 4.36C16.9102 4.36 16.5049 4.52533 16.1636 4.856C15.8222 5.176 15.6516 5.58133 15.6516 6.072V11H14.3876V8.696C13.9182 9.18667 13.2996 9.432 12.5316 9.432C11.6569 9.432 10.9476 9.17067 10.4036 8.648C9.85956 8.11467 9.58756 7.416 9.58756 6.552C9.58756 5.624 9.89156 4.88267 10.4996 4.328C11.1076 3.76267 11.8596 3.48 12.7556 3.48C12.9262 3.48 13.0489 3.496 13.1236 3.528V4.584C13.0702 4.57333 12.9689 4.568 12.8196 4.568C12.2436 4.568 11.7689 4.744 11.3956 5.096C11.0222 5.448 10.8356 5.928 10.8356 6.536C10.8356 7.08 11.0062 7.528 11.3476 7.88C11.6889 8.232 12.1316 8.408 12.6756 8.408C13.1449 8.408 13.5449 8.24267 13.8756 7.912C14.2169 7.58133 14.3876 7.17067 14.3876 6.68V1.8H8.49956V0.728H21.5396V1.8ZM20.8433 0.728H30.3473V1.8H28.4273V4.472H25.6113C24.886 4.472 24.3153 4.65867 23.8993 5.032C23.4833 5.40533 23.2753 5.928 23.2753 6.6C23.2753 7.29333 23.462 7.83733 23.8353 8.232C24.2086 8.62667 24.71 8.824 25.3393 8.824C25.9686 8.824 26.47 8.648 26.8433 8.296C27.2273 7.944 27.43 7.49067 27.4513 6.936H28.6513V11.16H27.4033V9.032C26.966 9.58667 26.246 9.864 25.2433 9.864C24.2513 9.864 23.4513 9.55467 22.8433 8.936C22.2353 8.31733 21.9313 7.55467 21.9313 6.648C21.9313 5.69867 22.246 4.92533 22.8753 4.328C23.5046 3.72 24.3846 3.416 25.5153 3.416H27.1793V1.8H20.8433V0.728Z" fill="#5A6872"/>
</svg>
