<svg width="47" height="14" viewBox="0 0 47 14" fill="none" xmlns="http://www.w3.org/2000/svg">
<path d="M0.434 9.094V8.184H1.372C2.51067 8.184 3.08 7.736 3.08 6.84V4.95H-0.308V4.012H5.572V4.95H4.172V6.938C4.172 7.60067 3.96667 8.12333 3.556 8.506C3.14533 8.87933 2.59467 9.07533 1.904 9.094H1.75L4.718 13H3.388L0.434 9.094ZM4.95567 4.95V4.012H9.29567V4.95H7.67167V13H6.57967V4.95H4.95567ZM11.2644 6.812H10.1864C10.0651 6.56 10.0044 6.26133 10.0044 5.916C10.0044 5.384 10.1864 4.93133 10.5504 4.558C10.9144 4.18467 11.4091 3.998 12.0344 3.998C12.7344 3.998 13.2944 4.236 13.7144 4.712C14.1344 5.17867 14.3444 5.748 14.3444 6.42C14.3444 7.36267 14.0271 8.1 13.3924 8.632C12.7671 9.15467 12.0298 9.416 11.1804 9.416H10.7184L13.9384 13H12.4964L9.40242 9.458V8.478H10.7884C11.5631 8.478 12.1651 8.30067 12.5944 7.946C13.0331 7.582 13.2524 7.08267 13.2524 6.448C13.2524 5.944 13.1404 5.57067 12.9164 5.328C12.7018 5.076 12.4078 4.95 12.0344 4.95C11.7078 4.95 11.4604 5.05267 11.2924 5.258C11.1338 5.454 11.0544 5.706 11.0544 6.014C11.0544 6.30333 11.1244 6.56933 11.2644 6.812ZM15.9124 4.012H18.6424V4.95H17.0184V13H15.9124V4.012ZM20.728 4.012H22.352V4.95H20.742V13H19.65V4.95H18.026V4.012H19.622V2.836C19.622 2.37867 19.496 2.02867 19.244 1.786C19.0013 1.54333 18.6793 1.422 18.278 1.422C17.8767 1.422 17.5593 1.54333 17.326 1.786C17.0927 2.01933 16.976 2.36933 16.976 2.836V3.088H15.884V2.808C15.884 2.024 16.1127 1.436 16.57 1.044C17.018 0.652 17.5873 0.456 18.278 0.456C18.978 0.456 19.5613 0.652 20.028 1.044C20.4947 1.436 20.728 2.024 20.728 2.808V4.012ZM31.043 7.064H28.607C28.271 7.064 27.991 7.134 27.767 7.274C27.543 7.414 27.431 7.638 27.431 7.946C27.431 8.26333 27.571 8.49667 27.851 8.646C28.131 8.786 28.621 8.87467 29.321 8.912C31.001 8.95867 31.841 9.60267 31.841 10.844C31.8317 11.488 31.5704 12.0107 31.057 12.412C30.553 12.8133 29.867 13.014 28.999 13.014C28.0004 13.014 27.1137 12.8087 26.339 12.398V11.32C27.1697 11.8333 28.0564 12.09 28.999 12.09C29.531 12.09 29.951 11.9827 30.259 11.768C30.567 11.5533 30.721 11.25 30.721 10.858C30.721 10.5127 30.581 10.2607 30.301 10.102C30.021 9.94333 29.5544 9.85 28.901 9.822C27.1837 9.74733 26.325 9.13133 26.325 7.974C26.325 7.37667 26.535 6.91933 26.955 6.602C27.375 6.28467 27.9117 6.126 28.565 6.126H29.951V4.95H25.149V4.012H33.059V4.95H31.043V7.064ZM32.4498 4.95V4.012H36.7898V4.95H35.1658V13H34.0738V4.95H32.4498ZM47.0606 4.012V4.95H45.4366V13H44.3306V7.456C44.0879 7.33467 43.8359 7.274 43.5746 7.274C42.5666 7.274 42.0626 7.86667 42.0626 9.052V10.06H40.9706V9.024C40.9706 7.91333 40.5646 7.358 39.7526 7.358C39.3419 7.358 39.0012 7.53067 38.7306 7.876C38.4692 8.212 38.3386 8.69733 38.3386 9.332C38.3386 10.1253 38.5439 10.7833 38.9546 11.306C39.3652 11.8193 39.9672 12.076 40.7606 12.076C40.9192 12.076 41.0452 12.0667 41.1386 12.048V12.958C40.9706 12.986 40.7932 13 40.6066 13C39.5986 13 38.7866 12.6547 38.1706 11.964C37.5546 11.264 37.2466 10.382 37.2466 9.318C37.2466 8.46867 37.4659 7.778 37.9046 7.246C38.3432 6.70467 38.9266 6.434 39.6546 6.434C40.1586 6.434 40.5739 6.55067 40.9006 6.784C41.2272 7.008 41.4372 7.33 41.5306 7.75C41.7452 6.83533 42.3986 6.378 43.4906 6.378C43.7986 6.378 44.0786 6.42933 44.3306 6.532V4.95H36.1686V4.012H47.0606ZM41.1158 1.618V0.665999C41.4518 0.61 41.7038 0.582 41.8718 0.582C42.3478 0.582 42.7538 0.684666 43.0898 0.889999C43.4258 1.086 43.7338 1.40333 44.0138 1.842L45.5118 4.11H44.3078L43.0898 2.262C42.7818 1.77667 42.3571 1.534 41.8158 1.534C41.6291 1.534 41.3958 1.562 41.1158 1.618ZM45.3578 2.514C45.2085 2.374 45.1338 2.19667 45.1338 1.982C45.1338 1.76733 45.2085 1.58533 45.3578 1.436C45.4978 1.28667 45.6751 1.212 45.8898 1.212C46.1045 1.212 46.2865 1.28667 46.4358 1.436C46.5851 1.58533 46.6598 1.76733 46.6598 1.982C46.6598 2.19667 46.5851 2.374 46.4358 2.514C46.2865 2.654 46.1045 2.724 45.8898 2.724C45.6751 2.724 45.4978 2.654 45.3578 2.514Z" fill="#152935"/>
</svg>
