<svg width="31" height="11" viewBox="0 0 31 11" fill="none" xmlns="http://www.w3.org/2000/svg">
<path d="M13.816 0.728V1.8H11.976V11H10.712V8.12C10.2213 8.62133 9.58133 8.872 8.792 8.872C8.056 8.872 7.42667 8.62667 6.904 8.136C6.38133 7.64533 6.12 7.01067 6.12 6.232C6.12 5.41067 6.38133 4.76 6.904 4.28C7.42667 3.78933 8.06667 3.544 8.824 3.544C9.09067 3.544 9.34667 3.57067 9.592 3.624V4.664C9.42133 4.61067 9.21867 4.584 8.984 4.584C8.52533 4.584 8.136 4.73867 7.816 5.048C7.50667 5.35733 7.352 5.75733 7.352 6.248C7.352 6.73867 7.50133 7.13333 7.8 7.432C8.10933 7.72 8.50933 7.864 9 7.864C9.46933 7.864 9.86933 7.704 10.2 7.384C10.5413 7.05333 10.712 6.62667 10.712 6.104V1.8H5.768V4.072C5.768 4.82933 5.528 5.42133 5.048 5.848C4.57867 6.27467 3.94933 6.504 3.16 6.536L2.968 6.552L6.488 11H4.936L1.496 6.536V5.496H2.568C3.86933 5.496 4.52 4.97867 4.52 3.944V1.8H0.648V0.728H13.816ZM13.1167 1.8V0.728H18.0768V1.8H16.2208V11H14.9728V1.8H13.1167ZM17.3667 0.728H25.9108V1.8H24.0708V11H22.8068V5.736H19.9748C19.7828 5.736 19.6494 5.784 19.5748 5.88C19.5001 5.976 19.4628 6.136 19.4628 6.36C19.4628 6.73333 19.5321 7.128 19.6708 7.544H18.6148C18.3161 6.94667 18.1668 6.392 18.1668 5.88C18.1668 5.08 18.6308 4.68 19.5588 4.68H22.8068V1.8H17.3667V0.728ZM25.2105 1.8V0.728H30.1705V1.8H28.3145V11H27.0665V1.8H25.2105Z" fill="#5A6872"/>
</svg>
