<svg width="50" height="32" viewBox="0 0 50 32" fill="none" xmlns="http://www.w3.org/2000/svg">
<path d="M18.9243 27.1311C18.9243 29.5829 16.9367 31.5705 14.485 31.5705C12.0333 31.5705 10.0456 29.5829 10.0456 27.1311C10.0456 24.6792 12.0333 22.6917 14.485 22.6917C16.9367 22.6917 18.9243 24.6792 18.9243 27.1311ZM16.7046 27.1311C16.7046 25.9052 15.7108 24.9114 14.4849 24.9114C13.259 24.9114 12.2651 25.9052 12.2651 27.1311C12.2651 28.357 13.259 29.3509 14.4849 29.3509C15.7108 29.3509 16.7046 28.357 16.7046 27.1311ZM10.6614 22.6916H0.71348C0.319444 22.6916 0 23.0111 0 23.4051V25.5697C0 25.9638 0.319444 26.2832 0.71348 26.2832H8.68717C8.89534 24.8548 9.61634 23.593 10.6614 22.6916ZM42.1518 27.1311C42.1518 29.5829 40.1641 31.5705 37.7124 31.5705C35.2606 31.5705 33.273 29.5829 33.273 27.1311C33.273 24.6792 35.2606 22.6917 37.7124 22.6917C40.1641 22.6916 42.1518 24.6792 42.1518 27.1311ZM39.9322 27.1311C39.9322 25.9052 38.9383 24.9114 37.7124 24.9114C36.4864 24.9114 35.4927 25.9052 35.4927 27.1311C35.4927 28.357 36.4865 29.3509 37.7124 29.3509C38.9383 29.3509 39.9322 28.357 39.9322 27.1311ZM50 23.4051V25.5697C50 25.9638 49.6806 26.2832 49.2865 26.2832H43.51C43.0969 23.4496 40.6583 21.2647 37.7126 21.2647C34.7663 21.2647 32.3276 23.4497 31.9145 26.2832H20.2828C20.0745 24.8549 19.3536 23.593 18.3086 22.6916H29.3375V2.28389C29.3375 1.49582 29.9764 0.856934 30.7645 0.856934H37.5002C39.3967 0.856934 41.1694 1.79901 42.2306 3.37082L46.5729 9.80227C47.2098 10.7456 47.5502 11.8579 47.5502 12.9962V22.6916H49.2865C49.6806 22.6916 50 23.0111 50 23.4051ZM42.7621 9.96698L39.2898 5.03291C39.1561 4.84304 38.9385 4.73005 38.7063 4.73005H33.29C32.8961 4.73005 32.5766 5.0495 32.5766 5.44353V10.3776C32.5766 10.7717 32.896 11.0911 33.29 11.0911H42.1788C42.7567 11.0911 43.0948 10.4397 42.7621 9.96698Z" fill="#5A6872"/>
</svg>
