<svg width="48" height="48" viewBox="0 0 48 48" fill="none" xmlns="http://www.w3.org/2000/svg">
<g clip-path="url(#clip0)">
<path d="M23.4316 46.9983C25.7616 46.9983 27.6504 45.1095 27.6504 42.7795C27.6504 40.4496 25.7616 38.5608 23.4316 38.5608C21.1017 38.5608 19.2129 40.4496 19.2129 42.7795C19.2129 45.1095 21.1017 46.9983 23.4316 46.9983Z" fill="#0086DA"/>
<path d="M28.0601 19.0312L30.7047 18.0691L31.6669 20.7138L29.0223 21.676L28.0601 19.0312Z" fill="#0086DA"/>
<path d="M8.46928 2.22312L0 5.35446L0.984281 7.99821L9.42562 4.83884C10.1849 4.58562 10.9725 4.97946 11.2255 5.68259L11.7037 7.00437L14.3475 6.04821L13.8693 4.72625C13.0537 2.50446 10.635 1.40759 8.46928 2.22312Z" fill="#0086DA"/>
<path d="M17.0472 8.07324L12.6597 9.64824L16.5128 20.2232L27.0878 16.3701L23.2347 5.82324L19.6909 7.11709L20.9848 10.6606L18.341 11.617L17.0472 8.07324Z" fill="#0086DA"/>
<path d="M29.828 3.41347L25.8853 4.84803L29.7332 15.4197L40.3045 11.5722L36.4571 1.00146L32.4703 2.45196L33.7984 6.10043L31.1562 7.06175L29.828 3.41347Z" fill="#0086DA"/>
<path d="M41.267 14.2141L33.3377 17.1001L35.2616 22.3862L27.3336 25.2715L25.4098 19.9856L17.4814 22.8715L22.2131 35.8716C22.6109 35.8015 23.0146 35.7483 23.432 35.7483C26.0868 35.7483 28.3747 37.2445 29.5712 39.422L48.0003 32.7147L41.267 14.2141ZM29.2576 30.5573L28.2963 27.915L36.2242 25.0298L37.1855 27.672L29.2576 30.5573Z" fill="#0086DA"/>
</g>
<defs>
<clipPath id="clip0">
<rect width="48" height="48" fill="white"/>
</clipPath>
</defs>
</svg>
