<svg width="46" height="46" viewBox="0 0 46 46" fill="none" xmlns="http://www.w3.org/2000/svg">
<path d="M14.0059 3.69201C13.8504 3.75871 13.6062 3.91418 13.4728 4.04712C12.8955 4.5913 12.8955 4.54669 12.8955 9.66557V14.4404L9.95283 14.4735C7.08795 14.5066 7.01021 14.5176 6.76595 14.7509C6.54377 14.9841 6.53273 15.0287 6.68821 15.3282C6.83311 15.6396 14.4944 23.2231 14.6499 23.2231C14.6945 23.2121 16.5152 21.4577 18.7025 19.3035C21.3231 16.7164 22.6663 15.3171 22.6663 15.1731C22.6553 14.5402 22.2555 14.4624 19.0355 14.4514H16.4595L16.4264 9.64349C16.3933 4.86915 16.3933 4.84661 16.138 4.43583C15.7157 3.74767 14.7276 3.40359 14.0059 3.69201Z" fill="#077BC4"/>
<path d="M27.4523 13.2522C27.1749 13.3966 26.8529 13.6519 26.7306 13.8184C26.4973 14.1294 26.4973 14.2628 26.4642 21.2355L26.4421 28.3305H15.3943H4.34604V24.7995C4.34604 22.5897 4.30142 21.1131 4.22368 20.8357C3.97942 19.9696 2.95776 19.3256 2.09204 19.4921C1.51474 19.6029 0.992641 20.0027 0.715261 20.5579L0.459961 21.0469V29.1967V37.3465L0.781961 37.6685L1.10396 37.9905H2.78066H4.44632L4.51302 37.5797C4.8019 35.7034 5.26788 34.7148 6.37832 33.6159C7.3112 32.6945 7.99936 32.2948 9.18754 31.9949C11.3528 31.4396 13.5069 32.039 15.1169 33.6605C16.1607 34.7043 16.8935 36.3253 16.8935 37.5691V37.991H22.7226H28.5517V37.5135C28.5517 36.2144 29.2403 34.7378 30.3839 33.6049C32.8265 31.1623 36.6127 31.1623 39.0448 33.6049C40.1773 34.7374 40.8769 36.2365 40.8769 37.5356V37.991H42.8867H44.896L45.218 37.669L45.54 37.347V35.5594C45.54 34.4936 45.4953 33.672 45.4181 33.5165C45.2847 33.2277 44.896 32.9949 44.5408 32.9949C44.3187 32.9949 44.3187 32.8725 44.3076 27.2435C44.3076 22.1136 44.2855 21.4475 44.119 21.0368C43.8527 20.3596 38.645 13.5641 38.1896 13.2867C37.8455 13.0755 37.6013 13.0645 32.8821 13.0314L27.9413 12.9978L27.4523 13.2522ZM35.6578 16.5609C35.88 16.6166 36.213 16.8273 36.4016 17.0274C36.7457 17.3825 39.8769 21.6242 39.8769 21.724C39.8769 21.7571 37.7784 21.7796 35.2134 21.7796H30.5504V19.1149V16.4501H32.9153C34.2033 16.4501 35.4471 16.5053 35.6578 16.5609Z" fill="#077BC4"/>
<path d="M9.56497 33.7048C7.35558 34.3488 5.95626 36.514 6.34496 38.6792C6.8781 41.5993 9.90904 43.2203 12.5186 41.999C13.4736 41.5547 14.262 40.7888 14.7059 39.8895C15.039 39.2013 15.061 39.0789 15.061 37.9906C15.061 36.8912 15.039 36.7693 14.6949 36.0807C14.2284 35.1367 13.2624 34.2154 12.3742 33.8823C11.5857 33.5824 10.2757 33.4936 9.56497 33.7048ZM11.4638 36.7251C11.7858 36.8806 12.2187 37.6134 12.2302 37.98C12.2302 38.313 11.7748 39.0569 11.4638 39.2459C10.6864 39.7013 9.6427 39.3237 9.34324 38.4575C9.1988 38.0467 9.1988 37.9354 9.34324 37.5246C9.6427 36.6695 10.6423 36.2918 11.4638 36.7251Z" fill="#077BC4"/>
<path d="M33.4037 33.7604C32.1934 34.1602 31.2831 34.9486 30.7279 36.1032C30.4059 36.7693 30.3838 36.9137 30.3838 37.9906C30.3838 39.0233 30.4169 39.2229 30.6837 39.8002C31.3056 41.1213 32.6047 42.1099 34.0592 42.3541C35.9135 42.6761 37.9122 41.5882 38.7448 39.8002C39.0111 39.2229 39.0447 39.0228 39.0447 37.9906C39.0447 36.9358 39.0116 36.7582 38.7227 36.1253C38.3009 35.2149 37.2571 34.2264 36.3578 33.8823C35.4581 33.5272 34.2368 33.4826 33.4037 33.7604ZM35.5022 36.7582C35.8573 36.9804 36.2129 37.5798 36.2129 37.9906C36.2129 38.124 36.1241 38.4124 36.0243 38.6235C35.5137 39.7009 33.9148 39.7009 33.4042 38.6235C33.1709 38.135 33.1709 37.8461 33.4042 37.3576C33.6374 36.8581 34.148 36.5471 34.7142 36.5471C34.9585 36.5471 35.3136 36.6469 35.5022 36.7582Z" fill="#077BC4"/>
</svg>

