<svg width="46" height="46" viewBox="0 0 46 46" fill="none" xmlns="http://www.w3.org/2000/svg">
<g clip-path="url(#clip0)">
<path d="M33.2298 25.1932L30.1626 28.2604L30.1625 28.2604L8.97552 7.07331L10.6038 5.44503L3.85213 0.00341797L0 3.85555L5.44161 10.6071L7.06998 8.97885L28.257 30.1659L25.1898 33.2332L29.5641 37.6075L37.604 29.5676L33.2298 25.1932Z" fill="#077BC4"/>
<path d="M39.5096 31.4712L31.4697 39.5111L36.2935 44.3349C37.3673 45.4086 38.795 46 40.3135 46C41.832 46 43.2597 45.4086 44.3335 44.3349C46.5501 42.1182 46.5501 38.5116 44.3335 36.295L39.5096 31.4712Z" fill="#077BC4"/>
<path d="M23.2812 28.9996L17.0012 22.7197L12.4035 27.3168C9.02637 26.2585 5.34107 27.1425 2.79946 29.685C0.994545 31.49 0 33.8895 0 36.4429C0 38.9953 0.994545 41.3959 2.79946 43.2008C4.66277 45.0641 7.11005 45.9958 9.55733 45.9958C12.0046 45.9958 14.4528 45.0641 16.3152 43.2008C18.8577 40.6592 19.7418 36.9739 18.6834 33.5967L23.2812 28.9996ZM11.745 38.6296C10.5366 39.8379 8.57806 39.8379 7.37059 38.6296C6.16223 37.4221 6.16223 35.4636 7.37059 34.2552C8.57806 33.0477 10.5366 33.0477 11.745 34.2552C12.9524 35.4636 12.9524 37.4222 11.745 38.6296Z" fill="#077BC4"/>
<path d="M45.3733 5.76454L44.6222 3.84643L39.8005 8.66822L37.8536 8.14624L37.3316 6.19938L42.1534 1.37848L40.2353 0.626511C36.8725 -0.690565 33.0507 0.107227 30.4983 2.65962C28.1606 4.9973 27.2945 8.40139 28.1786 11.5413L22.7183 17.0023L28.9982 23.2822L34.4585 17.8213C35.2688 18.0495 36.0954 18.1609 36.9174 18.1609C39.283 18.16 41.6054 17.2364 43.3402 15.5016C45.8926 12.9493 46.6904 9.1274 45.3733 5.76454Z" fill="#077BC4"/>
</g>
<defs>
<clipPath id="clip0">
<rect width="46" height="46" fill="white"/>
</clipPath>
</defs>
</svg>

