<svg width="53" height="18" viewBox="0 0 53 18" fill="none" xmlns="http://www.w3.org/2000/svg">
<path d="M0.52 6.6V5H13V6.6H10.78V18H8.88V12.52H4.98V15.16H3.32L2.76 13.88C2.38667 13.04 2.2 12.44 2.2 12.08C2.2 11.5067 2.49333 11.1467 3.08 11V6.6H0.52ZM8.88 6.6H4.98V10.92H8.88V6.6ZM4.47344 1.82V0.16C4.95344 0.079999 5.3601 0.0399988 5.69344 0.0399988C6.4001 0.0399988 7.00677 0.186666 7.51344 0.479999C8.00677 0.759999 8.4601 1.21333 8.87344 1.84L11.0334 5.14H8.95344L7.29344 2.66C6.86677 1.99333 6.28677 1.66 5.55344 1.66C5.15344 1.66 4.79344 1.71333 4.47344 1.82ZM10.8134 2.84C10.5734 2.6 10.4534 2.30667 10.4534 1.96C10.4534 1.61333 10.5734 1.32 10.8134 1.08C11.0534 0.826666 11.3468 0.699999 11.6934 0.699999C12.0401 0.699999 12.3401 0.826666 12.5934 1.08C12.8334 1.32 12.9534 1.61333 12.9534 1.96C12.9534 2.30667 12.8334 2.6 12.5934 2.84C12.3401 3.08 12.0401 3.2 11.6934 3.2C11.3468 3.2 11.0534 3.08 10.8134 2.84ZM21.2234 6.6V10.42C20.8501 10.34 20.3301 10.3 19.6634 10.3C18.5034 10.3 17.5768 10.5533 16.8834 11.06C16.2034 11.5667 15.8634 12.2867 15.8634 13.22C15.8634 14.1133 16.1768 14.8 16.8034 15.28C17.4301 15.76 18.2568 16 19.2834 16C19.7901 16 20.3101 15.92 20.8434 15.76C21.3901 15.6 21.8234 15.42 22.1434 15.22V16.98C21.2901 17.42 20.3034 17.64 19.1834 17.64C17.5701 17.64 16.2834 17.2467 15.3234 16.46C14.3634 15.66 13.8834 14.56 13.8834 13.16C13.8834 11.88 14.3434 10.8267 15.2634 10C16.1834 9.17333 17.3968 8.75333 18.9034 8.74H19.3034V6.6H12.3434V5H23.3434V6.6H21.2234ZM14.8702 1.82V0.16C15.3502 0.079999 15.7502 0.0399988 16.0702 0.0399988C16.7768 0.0399988 17.3835 0.186666 17.8902 0.479999C18.3968 0.759999 18.8568 1.21333 19.2702 1.84L21.4302 5.14H19.3302L17.6902 2.66C17.2502 1.99333 16.6702 1.66 15.9502 1.66C15.5502 1.66 15.1902 1.71333 14.8702 1.82ZM22.6825 5H33.6825V6.6H31.4625V18H29.5225V11.5H26.2825C26.0425 11.5 25.8692 11.5667 25.7625 11.7C25.6692 11.82 25.6225 12.0267 25.6225 12.32C25.6225 12.7333 25.7025 13.2133 25.8625 13.76H24.2825C23.8825 13.08 23.6825 12.3333 23.6825 11.52C23.6825 11.0267 23.8358 10.64 24.1425 10.36C24.4492 10.0667 24.9158 9.92 25.5425 9.92H29.5225V6.6H22.6825V5ZM25.1116 1.82V0.16C25.5916 0.079999 25.9916 0.0399988 26.3116 0.0399988C27.0182 0.0399988 27.6249 0.186666 28.1316 0.479999C28.6382 0.759999 29.0982 1.21333 29.5116 1.84L31.6716 5.14H29.5716L27.9316 2.66C27.4916 1.99333 26.9116 1.66 26.1916 1.66C25.7916 1.66 25.4316 1.71333 25.1116 1.82ZM44.6816 11.22H48.7816V6.6H45.1616V9.28C45.1616 10.08 45.0016 10.7267 44.6816 11.22ZM52.9216 5V6.6H50.7016V18H48.7816V12.82H45.5216C44.2416 12.82 43.1949 12.76 42.3816 12.64L46.0816 18H43.7416L39.9816 12.44C39.5149 11.8133 38.9149 11.5 38.1816 11.5H36.6216C36.3816 11.5 36.2082 11.5667 36.1016 11.7C36.0082 11.82 35.9616 12.0267 35.9616 12.32C35.9616 12.7333 36.0416 13.2133 36.2016 13.76H34.6216C34.2216 13.08 34.0216 12.3333 34.0216 11.52C34.0216 11.0267 34.1749 10.64 34.4816 10.36C34.7882 10.0667 35.2549 9.92 35.8816 9.92H38.3616C39.5482 9.92 40.4749 10.2733 41.1416 10.98H41.3216C42.0416 10.98 42.5416 10.8333 42.8216 10.54C43.1016 10.2467 43.2416 9.8 43.2416 9.2V6.6H33.0216V5H52.9216Z" fill="white"/>
</svg>
