<svg width="22" height="9" viewBox="0 0 22 9" fill="none" xmlns="http://www.w3.org/2000/svg">
<path d="M9.534 0.0119997V0.949999H7.91V9H6.818V5.36H4.886C4.89533 5.42533 4.9 5.528 4.9 5.668C4.9 6.35867 4.65267 6.91867 4.158 7.348C3.67267 7.77733 2.996 7.992 2.128 7.992C1.52133 7.992 0.952 7.88 0.42 7.656V6.62C0.998667 6.90933 1.56333 7.054 2.114 7.054C2.562 7.054 2.954 6.93733 3.29 6.704C3.63533 6.46133 3.808 6.08333 3.808 5.57C3.808 5.16867 3.66333 4.856 3.374 4.632C3.08467 4.408 2.646 4.296 2.058 4.296H1.582V3.316H2.03C2.52467 3.316 2.898 3.20867 3.15 2.994C3.402 2.77933 3.528 2.49 3.528 2.126C3.528 1.36067 3.08933 0.978 2.212 0.978C1.71733 0.978 1.26467 1.09 0.854 1.314V0.278C1.25533 0.11 1.71267 0.0259995 2.226 0.0259995C2.99133 0.0259995 3.57933 0.203333 3.99 0.557999C4.41 0.912666 4.62 1.39333 4.62 2C4.62 2.46667 4.49867 2.854 4.256 3.162C4.02267 3.47 3.71467 3.67533 3.332 3.778C3.808 3.84333 4.19067 4.05333 4.48 4.408H6.818V0.949999H5.544V0.0119997H9.534ZM18.9445 4.324V0.949999H16.3265C16.5598 1.30467 16.6765 1.73867 16.6765 2.252C16.6765 3.35333 15.9858 4.11867 14.6045 4.548C14.7165 5.06133 14.9685 5.486 15.3605 5.822C15.7525 6.14867 16.2238 6.312 16.7745 6.312C17.4278 6.312 17.9505 6.13467 18.3425 5.78C18.7438 5.416 18.9445 4.93067 18.9445 4.324ZM21.6465 0.0119997V0.949999H20.0365V9H18.9445V6.284C18.4685 6.928 17.7125 7.25 16.6765 7.25C15.9392 7.25 15.2858 7.03533 14.7165 6.606C14.1472 6.16733 13.7365 5.542 13.4845 4.73C13.2418 4.506 12.8732 4.394 12.3785 4.394H11.2025C11.0345 4.394 10.9178 4.436 10.8525 4.52C10.7872 4.604 10.7545 4.744 10.7545 4.94C10.7545 5.26667 10.8152 5.612 10.9365 5.976H10.0125C9.75118 5.45333 9.62052 4.968 9.62052 4.52C9.62052 3.82 10.0265 3.47 10.8385 3.47H12.3645C12.9525 3.47 13.4518 3.56333 13.8625 3.75C14.4225 3.61 14.8472 3.40467 15.1365 3.134C15.4352 2.86333 15.5845 2.55067 15.5845 2.196C15.5845 1.71067 15.4398 1.29533 15.1505 0.949999H8.92052V0.0119997H21.6465Z" fill="#5A6872"/>
</svg>
