<svg width="44" height="44" viewBox="0 0 44 44" fill="none" xmlns="http://www.w3.org/2000/svg">
<path d="M10.6562 16.7655C10.4174 17.2904 10.2138 17.8307 10.0469 18.3827L13.7734 18.5858L10.9922 16.1014C10.875 16.3202 10.7578 16.5389 10.6562 16.7655Z" fill="#5A6872"/>
<path d="M9.5 22C9.50096 22.694 9.56107 23.3866 9.67969 24.0703L15.9063 23.7266C16.0681 23.7193 16.2282 23.7619 16.3651 23.8485C16.502 23.9351 16.6091 24.0616 16.6719 24.2109C16.7349 24.3602 16.7499 24.5253 16.7149 24.6835C16.6799 24.8416 16.5966 24.985 16.4766 25.0938L12.9453 28.25H18.2578L18.9141 27.5234C19.0226 27.4034 19.1657 27.32 19.3237 27.2849C19.4816 27.2497 19.6466 27.2644 19.7958 27.327C19.945 27.3896 20.0711 27.497 20.1567 27.6343C20.2422 27.7717 20.283 27.9322 20.2734 28.0938L20.2656 28.25H23.7344L23.7266 28.0938C23.717 27.9322 23.7578 27.7717 23.8433 27.6343C23.9289 27.497 24.055 27.3896 24.2042 27.327C24.3534 27.2644 24.5184 27.2497 24.6763 27.2849C24.8343 27.32 24.9774 27.4034 25.0859 27.5234L25.7422 28.25H31.0547L27.5234 25.0938C27.404 24.9844 27.3213 24.8408 27.2864 24.6826C27.2516 24.5245 27.2663 24.3594 27.3286 24.21C27.391 24.0605 27.4979 23.9339 27.6348 23.8474C27.7717 23.7609 27.932 23.7187 28.0938 23.7266L34.3203 24.0703C34.4389 23.3866 34.499 22.694 34.5 22C34.4971 21.3058 34.4344 20.6131 34.3125 19.9297L28.0938 20.2734H28.0469C27.8923 20.274 27.7412 20.2282 27.613 20.1418C27.4848 20.0554 27.3856 19.9325 27.3281 19.7891C27.2651 19.6398 27.2501 19.4747 27.2851 19.3165C27.3201 19.1584 27.4034 19.015 27.5234 18.9063L32.1719 14.7578C31.3618 13.63 30.3721 12.643 29.2422 11.8359L25.0937 16.4766C25.0187 16.557 24.928 16.6214 24.8273 16.6657C24.7265 16.71 24.6179 16.7334 24.5078 16.7344C24.4017 16.7328 24.2969 16.71 24.1998 16.6672C24.1026 16.6244 24.015 16.5626 23.9422 16.4854C23.8694 16.4082 23.8127 16.3172 23.7757 16.2177C23.7387 16.1182 23.722 16.0123 23.7266 15.9063L24.0703 9.67969C23.875 9.64844 23.6719 9.60937 23.4688 9.58594C22.4931 9.46875 21.5069 9.46875 20.5313 9.58594C20.3281 9.60937 20.125 9.64844 19.9297 9.67969L20.2734 15.9063C20.278 16.0123 20.2613 16.1182 20.2243 16.2177C20.1873 16.3172 20.1306 16.4082 20.0578 16.4854C19.985 16.5626 19.8974 16.6244 19.8002 16.6672C19.7031 16.71 19.5983 16.7328 19.4922 16.7344C19.3821 16.7334 19.2735 16.71 19.1727 16.6657C19.072 16.6214 18.9813 16.557 18.9063 16.4766L14.7578 11.8359C13.6279 12.643 12.6382 13.63 11.8281 14.7578L16.4766 18.9063C16.5966 19.015 16.6799 19.1584 16.7149 19.3165C16.7499 19.4747 16.7349 19.6398 16.6719 19.7891C16.6144 19.9325 16.5152 20.0554 16.387 20.1418C16.2588 20.2282 16.1077 20.274 15.9531 20.2734H15.9063L9.6875 19.9297C9.56559 20.6131 9.50286 21.3058 9.5 22ZM22 18.0938C22.7726 18.0938 23.5278 18.3229 24.1702 18.7521C24.8126 19.1813 25.3132 19.7914 25.6089 20.5051C25.9046 21.2189 25.9819 22.0043 25.8312 22.7621C25.6805 23.5198 25.3084 24.2158 24.7621 24.7621C24.2158 25.3084 23.5198 25.6805 22.7621 25.8312C22.0043 25.9819 21.2189 25.9046 20.5051 25.6089C19.7914 25.3133 19.1813 24.8126 18.7521 24.1702C18.3228 23.5278 18.0938 22.7726 18.0938 22C18.095 20.9644 18.5069 19.9715 19.2392 19.2392C19.9715 18.5069 20.9644 18.095 22 18.0938Z" fill="#5A6872"/>
<path d="M36.8828 36.6875C36.7469 36.7908 36.5809 36.8467 36.4102 36.8467C36.2394 36.8467 36.0734 36.7908 35.9375 36.6875L32.2891 33.9219L28.6406 36.6875C28.5039 36.789 28.3382 36.8438 28.168 36.8438C27.9977 36.8438 27.832 36.789 27.6953 36.6875L24.0469 33.9219L20.4062 36.6875C20.2703 36.7908 20.1043 36.8467 19.9336 36.8467C19.7629 36.8467 19.5969 36.7908 19.4609 36.6875L15.8125 33.9219L12.1641 36.6875C12.0281 36.7908 11.8621 36.8467 11.6914 36.8467C11.5207 36.8467 11.3547 36.7908 11.2188 36.6875L7.57812 33.9219L3.9375 36.6875C3.80157 36.7908 3.63556 36.8467 3.46484 36.8467C3.29413 36.8467 3.12811 36.7908 2.99219 36.6875L0.125 34.5078V38.0156L3.46094 40.5469L7.10156 37.7813C7.23749 37.678 7.4035 37.6221 7.57422 37.6221C7.74493 37.6221 7.91095 37.678 8.04688 37.7813L11.6953 40.5469L15.3359 37.7813C15.4719 37.678 15.6379 37.6221 15.8086 37.6221C15.9793 37.6221 16.1453 37.678 16.2812 37.7813L19.9297 40.5469L23.5781 37.7813C23.7141 37.678 23.8801 37.6221 24.0508 37.6221C24.2215 37.6221 24.3875 37.678 24.5234 37.7813L28.1719 40.5469L31.8125 37.7813C31.9484 37.678 32.1144 37.6221 32.2852 37.6221C32.4559 37.6221 32.6219 37.678 32.7578 37.7813L36.4062 40.5547L40.0625 37.7813C40.1984 37.678 40.3644 37.6221 40.5352 37.6221C40.7059 37.6221 40.8719 37.678 41.0078 37.7813L43.875 39.9609V36.4531L40.5312 33.9141L36.8828 36.6875Z" fill="#5A6872"/>
<path d="M16.1016 10.9921L18.5859 13.7733L18.3828 10.0468C17.5934 10.2867 16.8293 10.6033 16.1016 10.9921Z" fill="#5A6872"/>
<path d="M39.9688 29.8125H4.03125C3.18105 29.816 2.35527 30.0972 1.6797 30.6134C1.00413 31.1296 0.515789 31.8525 0.289062 32.6719L3.46094 35.0781L7.10156 32.3125C7.23749 32.2092 7.4035 32.1533 7.57422 32.1533C7.74493 32.1533 7.91095 32.2092 8.04688 32.3125L11.6953 35.0781L15.3359 32.3125C15.4719 32.2092 15.6379 32.1533 15.8086 32.1533C15.9793 32.1533 16.1453 32.2092 16.2813 32.3125L19.9297 35.0781L23.5781 32.3125C23.7141 32.2092 23.8801 32.1533 24.0508 32.1533C24.2215 32.1533 24.3875 32.2092 24.5234 32.3125L28.1719 35.0781L31.8125 32.3125C31.9484 32.2092 32.1144 32.1533 32.2852 32.1533C32.4559 32.1533 32.6219 32.2092 32.7578 32.3125L36.4062 35.0859L40.0625 32.3125C40.1984 32.2092 40.3644 32.1533 40.5352 32.1533C40.7059 32.1533 40.8719 32.2092 41.0078 32.3125L43.875 34.4922V33.7188C43.875 32.6827 43.4635 31.6892 42.7309 30.9566C41.9983 30.2241 41.0048 29.8125 39.9688 29.8125Z" fill="#5A6872"/>
<path d="M22 24.3438C23.2944 24.3438 24.3438 23.2944 24.3438 22C24.3438 20.7056 23.2944 19.6562 22 19.6562C20.7056 19.6562 19.6562 20.7056 19.6562 22C19.6562 23.2944 20.7056 24.3438 22 24.3438Z" fill="#5A6872"/>
<path d="M25.4141 13.7733L27.8984 10.9921C27.1707 10.6033 26.4066 10.2867 25.6172 10.0468L25.4141 13.7733Z" fill="#5A6872"/>
<path d="M22.0005 0.125C18.5272 0.12575 15.104 0.953376 12.014 2.53943C8.92395 4.12548 6.25593 6.42439 4.23056 9.24601C2.20519 12.0676 0.880665 15.3309 0.366529 18.7659C-0.147607 22.2009 0.163421 25.709 1.27389 29C2.111 28.5113 3.0624 28.2526 4.0317 28.25H9.41452C8.44684 26.3084 7.94148 24.1693 7.93795 22C7.9372 21.0791 8.02881 20.1604 8.21139 19.2578C8.42202 18.1703 8.76575 17.1129 9.23483 16.1094C10.2497 13.9321 11.802 12.0489 13.7455 10.6371C15.689 9.22522 17.9598 8.33117 20.3442 8.03906C21.4444 7.90625 22.5565 7.90625 23.6567 8.03906C26.0411 8.33117 28.3119 9.22522 30.2554 10.6371C32.1989 12.0489 33.7512 13.9321 34.7661 16.1094C35.2363 17.1151 35.5801 18.1753 35.7895 19.2656C35.9725 20.1656 36.0641 21.0817 36.063 22C36.0594 24.1693 35.5541 26.3084 34.5864 28.25H39.9692C40.9385 28.2526 41.8899 28.5113 42.727 29C43.8375 25.709 44.1485 22.2009 43.6344 18.7659C43.1202 15.3309 41.7957 12.0676 39.7703 9.24601C37.745 6.42439 35.077 4.12548 31.9869 2.53943C28.8969 0.953376 25.4737 0.12575 22.0005 0.125Z" fill="#5A6872"/>
<path d="M10.9922 27.8984L13.7734 25.4141L10.0391 25.6172C10.2783 26.4081 10.5977 27.1724 10.9922 27.8984Z" fill="#5A6872"/>
<path d="M33.9609 25.6172L30.2266 25.4141L33.0078 27.8984C33.4023 27.1724 33.7217 26.4081 33.9609 25.6172Z" fill="#5A6872"/>
<path d="M33.3438 16.7655C33.2422 16.5389 33.125 16.3202 33.0078 16.1014L30.2266 18.5858L33.9531 18.3827C33.7862 17.8307 33.5826 17.2904 33.3438 16.7655Z" fill="#5A6872"/>
<path d="M36.8828 42.1562C36.7469 42.2595 36.5809 42.3154 36.4102 42.3154C36.2394 42.3154 36.0734 42.2595 35.9375 42.1562L32.2891 39.3906L28.6406 42.1562C28.5039 42.2577 28.3382 42.3125 28.168 42.3125C27.9977 42.3125 27.832 42.2577 27.6953 42.1562L24.0469 39.3906L20.4062 42.1562C20.2703 42.2595 20.1043 42.3154 19.9336 42.3154C19.7629 42.3154 19.5969 42.2595 19.4609 42.1562L15.8125 39.3906L12.1641 42.1562C12.0281 42.2595 11.8621 42.3154 11.6914 42.3154C11.5207 42.3154 11.3547 42.2595 11.2188 42.1562L7.57812 39.3906L3.9375 42.1562C3.80157 42.2595 3.63556 42.3154 3.46484 42.3154C3.29413 42.3154 3.12811 42.2595 2.99219 42.1562L0.125 39.9844C0.131386 41.017 0.545481 42.0052 1.27711 42.7339C2.00874 43.4626 2.99864 43.8728 4.03125 43.875H39.9688C40.709 43.873 41.4335 43.6604 42.0574 43.262C42.6813 42.8636 43.179 42.2958 43.4922 41.625L40.5312 39.3828L36.8828 42.1562Z" fill="#5A6872"/>
</svg>
