<svg width="8" height="12" viewBox="0 0 8 12" fill="none" xmlns="http://www.w3.org/2000/svg">
<path d="M7.57812 1.85938H5.73438C6.06771 2.28125 6.27865 2.79688 6.36719 3.40625H7.9375L7.57812 4.64062H6.39062C6.29688 5.56771 5.92969 6.26562 5.28906 6.73438C4.64844 7.20312 3.75781 7.4375 2.61719 7.4375L6.46875 11.9062V12H4.69531L0.554688 7.17969L0.546875 6.20312H2.49219C3.14323 6.19792 3.67188 6.05729 4.07812 5.78125C4.48438 5.5 4.74219 5.11979 4.85156 4.64062H0.328125L0.6875 3.40625H4.83594C4.58594 2.41667 3.82031 1.90104 2.53906 1.85938H0.34375L0.710938 0.625H7.9375L7.57812 1.85938Z" fill="#152935"/>
</svg>
