<svg width="94" height="16" viewBox="0 0 94 16" fill="none" xmlns="http://www.w3.org/2000/svg">
<path d="M10.536 4.728V5.8H8.68V15H7.432V12.344C6.87733 13.144 6.024 13.544 4.872 13.544C4.01867 13.544 3.28267 13.272 2.664 12.728C2.056 12.1733 1.752 11.4267 1.752 10.488C1.752 9.61333 2.04533 8.888 2.632 8.312C3.22933 7.72533 3.992 7.432 4.92 7.432C5.31467 7.432 5.65067 7.47467 5.928 7.56V8.664C5.66133 8.568 5.34667 8.52 4.984 8.52C4.41867 8.52 3.94933 8.70133 3.576 9.064C3.20267 9.416 3.016 9.88533 3.016 10.472C3.016 11.0907 3.20267 11.5867 3.576 11.96C3.96 12.3333 4.43467 12.52 5 12.52C5.74667 12.52 6.33867 12.2693 6.776 11.768C7.21333 11.2667 7.432 10.6747 7.432 9.992V5.8H0.648V4.728H10.536ZM9.8355 5.8V4.728H14.7955V5.8H12.9395V15H11.6915V5.8H9.8355ZM21.4775 8.312H17.6375C17.0402 8.312 16.7415 8.552 16.7415 9.032C16.7415 9.30933 16.8162 9.56 16.9655 9.784C17.1148 9.99733 17.2908 10.152 17.4935 10.248C17.9415 10.088 18.4588 10.008 19.0455 10.008C19.9202 10.008 20.5922 10.2213 21.0615 10.648C21.5308 11.064 21.7655 11.5653 21.7655 12.152C21.7655 12.504 21.7068 12.8027 21.5895 13.048H20.3575C20.5068 12.8453 20.5815 12.568 20.5815 12.216C20.5815 11.8747 20.4482 11.5973 20.1815 11.384C19.9255 11.16 19.5415 11.048 19.0295 11.048C18.3255 11.048 17.7762 11.2027 17.3815 11.512C16.9868 11.8213 16.7895 12.1947 16.7895 12.632C16.7895 13.1653 17.0188 13.6027 17.4775 13.944C17.9362 14.2747 18.6348 14.44 19.5735 14.44C20.2242 14.44 20.8908 14.344 21.5735 14.152V15.224C20.8375 15.4053 20.1388 15.496 19.4775 15.496C18.2188 15.496 17.2482 15.208 16.5655 14.632C15.8828 14.056 15.5415 13.384 15.5415 12.616C15.5415 11.8587 15.8775 11.2293 16.5495 10.728C15.8348 10.2587 15.4775 9.64 15.4775 8.872C15.4775 8.36 15.6588 7.96533 16.0215 7.688C16.3842 7.41067 16.8535 7.272 17.4295 7.272H20.2455V5.8H14.0855V4.728H23.2855V5.8H21.4775V8.312ZM22.5699 4.728H31.1139V5.8H29.2739V15H28.0099V9.736H25.1779C24.9859 9.736 24.8525 9.784 24.7779 9.88C24.7032 9.976 24.6659 10.136 24.6659 10.36C24.6659 10.7333 24.7352 11.128 24.8739 11.544H23.8179C23.5192 10.9467 23.3699 10.392 23.3699 9.88C23.3699 9.08 23.8339 8.68 24.7619 8.68H28.0099V5.8H22.5699V4.728ZM47.3599 5.8H41.4719V8.088C41.9625 7.576 42.5865 7.32 43.3439 7.32C44.2185 7.32 44.9279 7.58667 45.4719 8.12C46.0159 8.65333 46.2879 9.352 46.2879 10.216C46.2879 11.144 45.9839 11.8853 45.3759 12.44C44.7679 12.9947 44.0105 13.272 43.1039 13.272C42.9865 13.272 42.8639 13.2613 42.7359 13.24V12.168C42.8425 12.1893 42.9492 12.2 43.0559 12.2C43.6212 12.2 44.0905 12.024 44.4639 11.672C44.8372 11.32 45.0239 10.8347 45.0239 10.216C45.0239 9.672 44.8532 9.22933 44.5119 8.888C44.1812 8.536 43.7439 8.36 43.1999 8.36C42.7305 8.36 42.3252 8.52533 41.9839 8.856C41.6425 9.176 41.4719 9.58133 41.4719 10.072V15H40.2079V12.696C39.7385 13.1867 39.1199 13.432 38.3519 13.432C37.4772 13.432 36.7679 13.1707 36.2239 12.648C35.6799 12.1147 35.4079 11.416 35.4079 10.552C35.4079 9.624 35.7119 8.88267 36.3199 8.328C36.9279 7.76267 37.6799 7.48 38.5759 7.48C38.7465 7.48 38.8692 7.496 38.9439 7.528V8.584C38.8905 8.57333 38.7892 8.568 38.6399 8.568C38.0639 8.568 37.5892 8.744 37.2159 9.096C36.8425 9.448 36.6559 9.928 36.6559 10.536C36.6559 11.08 36.8265 11.528 37.1679 11.88C37.5092 12.232 37.9519 12.408 38.4959 12.408C38.9652 12.408 39.3652 12.2427 39.6959 11.912C40.0372 11.5813 40.2079 11.1707 40.2079 10.68V5.8H34.3199V4.728H47.3599V5.8ZM49.7516 4.728H51.6076V5.8H49.7676V15H48.5196V5.8H46.6636V4.728H48.4876V4.216C48.4876 3.48 48.189 2.888 47.5916 2.44C46.9943 1.992 46.0396 1.768 44.7276 1.768C43.629 1.768 42.813 1.944 42.2796 2.296C41.7356 2.648 41.4636 3.11733 41.4636 3.704V3.816H40.2156V3.672C40.2156 2.73333 40.6263 1.99733 41.4476 1.464C42.269 0.930666 43.3623 0.664 44.7276 0.664C46.349 0.664 47.5916 0.978666 48.4556 1.608C49.3196 2.22667 49.7516 3.112 49.7516 4.264V4.728ZM54.8042 5.8V4.728H64.6603V5.8H62.8203V15H61.5723V10.52H58.2123V12.696H57.1243L56.7243 11.8C56.4363 11.1173 56.2923 10.6373 56.2923 10.36C56.2923 10.1467 56.3509 9.96533 56.4683 9.816C56.5963 9.66667 56.7616 9.56533 56.9643 9.512V5.8H54.8042ZM61.5723 5.8H58.2123V9.464H61.5723V5.8ZM64.8085 10.536V9.496H65.8805C67.1818 9.496 67.8325 8.984 67.8325 7.96V5.8H63.9605V4.728H70.6805V5.8H69.0805V8.072C69.0805 8.82933 68.8458 9.42667 68.3765 9.864C67.9072 10.2907 67.2778 10.5147 66.4885 10.536H66.3125L69.7045 15H68.1845L64.8085 10.536ZM81.4161 9.464V5.8H78.0561V9.464H81.4161ZM73.3841 5.8V9.448H76.8081V5.8H73.3841ZM84.5041 4.728V5.8H82.6641V15H81.4161V10.52H78.0561V12.696H76.9681L76.5681 11.8C76.3228 11.224 76.1841 10.808 76.1521 10.552H73.3841V12.712H72.2961L71.8961 11.816C71.6081 11.1333 71.4641 10.6533 71.4641 10.376C71.4641 10.152 71.5228 9.96533 71.6401 9.816C71.7681 9.656 71.9335 9.54933 72.1361 9.496V5.8H69.9761V4.728H84.5041ZM93.9163 4.728V5.8H92.0603V15H90.8123V8.856H89.2923C87.4043 8.856 86.4603 9.688 86.4603 11.352C86.4603 12.1413 86.6523 12.7653 87.0363 13.224C87.4309 13.6827 88.0069 13.912 88.7643 13.912C88.9456 13.912 89.0683 13.9067 89.1323 13.896V14.968C88.9616 14.9893 88.8016 15 88.6523 15C87.5856 15 86.7429 14.6587 86.1243 13.976C85.5056 13.2933 85.1963 12.4133 85.1963 11.336C85.1963 10.2693 85.5323 9.41067 86.2043 8.76C86.8763 8.09867 87.8576 7.768 89.1483 7.768H90.8123V5.8H83.8042V4.728H93.9163Z" fill="#5A6872"/>
</svg>
