<svg width="48" height="48" viewBox="0 0 48 48" fill="none" xmlns="http://www.w3.org/2000/svg">
<g clip-path="url(#clip0)">
<path d="M47.6693 18.0133C47.3705 17.2344 46.8264 16.5516 46.1222 16.0715L26.5019 2.45781C24.9976 1.42292 23.0131 1.42292 21.5088 2.45781L1.88842 16.0715C1.19493 16.5516 0.650811 17.2238 0.33074 18.0133C0.117359 18.5467 0 19.1015 0 19.6776V41.9866C0.010669 44.3871 1.95243 46.3289 4.35297 46.3182C4.36364 46.3182 4.37431 46.3182 4.37431 46.3182H43.615C44.6286 46.3289 45.6208 45.9768 46.4103 45.3367V45.3473C47.4239 44.5152 48 43.2882 48 41.9759V19.6776C48 19.1122 47.8826 18.5467 47.6693 18.0133ZM3.10469 17.8319L22.725 4.20754C23.4932 3.66341 24.5174 3.66341 25.2856 4.20754L44.9166 17.8319C45.0767 17.9386 45.2154 18.0773 45.3434 18.2267L37.7684 27.3593V14.4498C37.7791 13.863 37.3096 13.3722 36.7228 13.3509H11.2878C10.701 13.3616 10.2316 13.8523 10.2423 14.4498V27.0606L2.67793 18.216C2.80596 18.0666 2.94465 17.9386 3.10469 17.8319ZM35.6453 29.9413L31.4523 35.009L26.1498 32.0217C24.8162 31.2749 23.1945 31.2749 21.8609 32.0217L16.8784 34.8277L12.3761 29.5572V15.4847H35.6346V29.9199C35.6346 29.9306 35.6453 29.9306 35.6453 29.9413ZM2.36853 42.9895C2.20849 42.6801 2.13381 42.3387 2.13381 41.9866V20.8619L10.4663 30.6241L14.9687 35.8839L2.36853 42.9895ZM4.50233 44.1844L22.9064 33.8568C23.5892 33.4834 24.4321 33.4834 25.1149 33.8675L31.3243 37.3456L43.5083 44.1844H4.50233ZM45.8769 41.9866C45.8769 42.3387 45.7915 42.6801 45.6421 42.9895L33.3514 36.0759L45.8769 20.9259V41.9866Z" fill="#077BC4"/>
<g clip-path="url(#clip1)">
<path d="M27.7499 20.7187C27.6988 20.6676 27.6335 20.642 27.554 20.642H26.0967C26 20.1706 25.8182 19.7614 25.5512 19.4148H27.5369C27.6165 19.4148 27.6817 19.3893 27.733 19.3382C27.7839 19.2871 27.8094 19.2217 27.8094 19.1422V18.2727C27.8094 18.1931 27.7839 18.1279 27.733 18.0767C27.6817 18.0256 27.6165 18 27.5368 18H20.446C20.3664 18 20.3012 18.0256 20.25 18.0767C20.199 18.1278 20.1733 18.1931 20.1733 18.2727V19.4062C20.1733 19.48 20.2003 19.5439 20.2543 19.5979C20.3083 19.6519 20.3722 19.6789 20.446 19.6789H21.6818C22.8806 19.6789 23.642 19.9998 23.9658 20.6419H20.446C20.3664 20.6419 20.3011 20.6674 20.25 20.7186C20.199 20.7697 20.1733 20.835 20.1733 20.9146V21.784C20.1733 21.8635 20.1989 21.9289 20.25 21.9799C20.3012 22.0311 20.3666 22.0565 20.446 22.0565H24.0853C23.9603 22.5226 23.6691 22.8776 23.2116 23.1219C22.7542 23.3663 22.1506 23.4885 21.4006 23.4885H20.446C20.3722 23.4885 20.3083 23.5155 20.2543 23.5694C20.2003 23.6234 20.1733 23.6874 20.1733 23.7612V24.8436C20.1733 24.9176 20.1989 24.9801 20.25 25.0312C21.3408 26.1902 22.7557 27.8122 24.4943 29.8976C24.5455 29.9659 24.6164 29.9999 24.7074 29.9999H26.3692C26.4887 29.9999 26.5711 29.9489 26.6164 29.8464C26.6732 29.7441 26.6621 29.6476 26.5823 29.5566C24.9234 27.5225 23.6194 25.9998 22.6705 24.9885C23.6364 24.8749 24.4205 24.5623 25.0228 24.051C25.625 23.5397 25.9914 22.8748 26.1222 22.0567H27.554C27.6335 22.0567 27.6989 22.0312 27.7499 21.98C27.8011 21.929 27.8267 21.8636 27.8267 21.7841V20.9148C27.8267 20.8351 27.8011 20.7699 27.7499 20.7187Z" fill="#077BC4"/>
</g>
</g>
<defs>
<clipPath id="clip0">
<rect width="48" height="48" fill="white"/>
</clipPath>
<clipPath id="clip1">
<rect width="12" height="12" fill="white" transform="translate(18 18)"/>
</clipPath>
</defs>
</svg>