<svg width="76" height="18" viewBox="0 0 76 18" fill="none" xmlns="http://www.w3.org/2000/svg">
<path d="M5.93335 10.898H9.62335V6.74H6.36535V9.152C6.36535 9.872 6.22135 10.454 5.93335 10.898ZM13.3494 5.3V6.74H11.3514V17H9.62335V12.338H6.68935C5.53735 12.338 4.59535 12.284 3.86335 12.176L7.19335 17H5.08735L1.70335 11.996V10.682H2.90935C3.55735 10.682 4.00735 10.55 4.25935 10.286C4.51135 10.022 4.63735 9.62 4.63735 9.08V6.74H0.803352V5.3H13.3494ZM5.5448 2.438V0.944C5.9768 0.871999 6.3428 0.835999 6.6428 0.835999C7.2788 0.835999 7.8248 0.967999 8.2808 1.232C8.7248 1.484 9.1328 1.892 9.5048 2.456L11.4488 5.426H9.5768L8.0828 3.194C7.6988 2.594 7.1768 2.294 6.5168 2.294C6.1568 2.294 5.8328 2.342 5.5448 2.438ZM11.2508 3.356C11.0348 3.14 10.9268 2.876 10.9268 2.564C10.9268 2.252 11.0348 1.988 11.2508 1.772C11.4668 1.544 11.7308 1.43 12.0428 1.43C12.3548 1.43 12.6248 1.544 12.8528 1.772C13.0688 1.988 13.1768 2.252 13.1768 2.564C13.1768 2.876 13.0688 3.14 12.8528 3.356C12.6248 3.572 12.3548 3.68 12.0428 3.68C11.7308 3.68 11.4668 3.572 11.2508 3.356ZM20.2868 6.74V9.458V9.476H16.9748C16.0748 9.476 15.6248 9.812 15.6248 10.484C15.6248 10.856 15.7988 11.12 16.1468 11.276C16.5068 11.432 17.1128 11.522 17.9648 11.546C20.1848 11.606 21.2948 12.464 21.2948 14.12C21.2948 14.972 20.9468 15.668 20.2508 16.208C19.5668 16.748 18.6368 17.018 17.4608 17.018C16.1528 17.018 14.9708 16.742 13.9148 16.19V14.516C15.0188 15.212 16.2068 15.56 17.4788 15.56C18.1268 15.56 18.6308 15.44 18.9908 15.2C19.3628 14.948 19.5488 14.606 19.5488 14.174C19.5488 13.754 19.3808 13.46 19.0448 13.292C18.7088 13.124 18.1388 13.028 17.3348 13.004C15.0428 12.92 13.8968 12.092 13.8968 10.52C13.8968 9.704 14.1848 9.086 14.7608 8.666C15.3368 8.246 16.0628 8.036 16.9388 8.036H18.5588V6.74H12.4928V5.3H22.8068V6.74H20.2868ZM31.8339 2.186C31.2939 2.186 30.8679 2.342 30.5559 2.654C30.2439 2.954 30.0879 3.368 30.0879 3.896V5.3H32.0859V6.74H30.0879V17H28.3599V6.74H26.3619V5.3H28.3599V3.878C28.3599 2.93 28.6719 2.162 29.2959 1.574C29.9319 0.973999 30.7659 0.673999 31.7979 0.673999C32.3979 0.673999 33.0279 0.763999 33.6879 0.944C34.3479 1.124 34.9059 1.316 35.3619 1.52C35.8299 1.712 36.4599 2.006 37.2519 2.402V4.04C34.9599 2.804 33.1539 2.186 31.8339 2.186ZM32.2215 12.104V10.7H33.4815C34.8375 10.7 35.5155 10.154 35.5155 9.062V6.74H31.2135V5.3H39.0615V6.74H37.2435V9.206C37.2435 10.046 36.9975 10.718 36.5055 11.222C36.0135 11.714 35.3415 11.99 34.4895 12.05C34.4655 12.062 34.3935 12.068 34.2735 12.068L38.0715 17H35.9655L32.2215 12.104ZM55.49 11.474V6.74H46.544V9.134C47.084 8.594 47.762 8.324 48.578 8.324C49.358 8.324 50.042 8.522 50.63 8.918C51.254 8.522 51.968 8.324 52.772 8.324C53.204 8.324 53.6 8.366 53.96 8.45V9.98C53.636 9.872 53.282 9.818 52.898 9.818C52.322 9.818 51.836 10.004 51.44 10.376C51.044 10.748 50.846 11.24 50.846 11.852C50.846 12.5 51.044 13.016 51.44 13.4C51.836 13.784 52.346 13.976 52.97 13.976C53.702 13.976 54.302 13.73 54.77 13.238C55.25 12.746 55.49 12.158 55.49 11.474ZM59.234 5.3V6.74H57.218V17H55.49V14.21C54.842 15.002 53.918 15.398 52.718 15.398C51.71 15.398 50.852 15.086 50.144 14.462C49.436 13.826 49.082 12.962 49.082 11.87C49.082 11.222 49.226 10.646 49.514 10.142C49.202 9.866 48.806 9.728 48.326 9.728C47.834 9.728 47.414 9.908 47.066 10.268C46.718 10.616 46.544 11.054 46.544 11.582V17H44.798V14.534C44.234 15.074 43.55 15.344 42.746 15.344C41.738 15.344 40.922 15.038 40.298 14.426C39.674 13.802 39.362 12.998 39.362 12.014C39.362 10.946 39.71 10.094 40.406 9.458C41.114 8.822 41.996 8.504 43.052 8.504C43.244 8.504 43.382 8.516 43.466 8.54V9.98C43.346 9.956 43.232 9.944 43.124 9.944C42.536 9.944 42.05 10.13 41.666 10.502C41.294 10.874 41.108 11.372 41.108 11.996C41.108 12.56 41.282 13.028 41.63 13.4C41.978 13.76 42.434 13.94 42.998 13.94C43.49 13.94 43.91 13.766 44.258 13.418C44.618 13.058 44.798 12.614 44.798 12.086V6.74H38.192V5.3H59.234ZM51.3701 2.438V0.944C51.8021 0.871999 52.1621 0.835999 52.4501 0.835999C53.0861 0.835999 53.6321 0.967999 54.0881 1.232C54.5441 1.484 54.9581 1.892 55.3301 2.456L57.2741 5.426H55.3841L53.9081 3.194C53.5121 2.594 52.9901 2.294 52.3421 2.294C51.9821 2.294 51.6581 2.342 51.3701 2.438ZM63.4841 10.898H67.0841C67.4321 10.214 67.9661 9.674 68.6861 9.278C69.4061 8.882 70.2461 8.678 71.2061 8.666H71.5661V6.74H63.9161V9.152C63.9161 9.872 63.7721 10.454 63.4841 10.898ZM73.2941 6.74V10.178C72.9581 10.106 72.4901 10.07 71.8901 10.07C70.8461 10.07 70.0121 10.298 69.3881 10.754C68.7761 11.21 68.4701 11.858 68.4701 12.698C68.4701 13.502 68.7521 14.12 69.3161 14.552C69.8801 14.984 70.6241 15.2 71.5481 15.2C72.0041 15.2 72.4721 15.128 72.9521 14.984C73.4441 14.84 73.8341 14.678 74.1221 14.498V16.082C73.3541 16.478 72.4661 16.676 71.4581 16.676C70.0061 16.676 68.8481 16.322 67.9841 15.614C67.1201 14.894 66.6881 13.904 66.6881 12.644C66.6881 12.512 66.6941 12.41 66.7061 12.338H64.2401C63.0881 12.338 62.1461 12.284 61.4141 12.176L64.7441 17H62.6381L59.2541 11.996V10.682H60.4601C61.1081 10.682 61.5581 10.55 61.8101 10.286C62.0621 10.022 62.1881 9.62 62.1881 9.08V6.74H58.3541V5.3H75.2021V6.74H73.2941Z" fill="#8C9BA5"/>
</svg>
