<svg width="26" height="15" viewBox="0 0 26 15" fill="none" xmlns="http://www.w3.org/2000/svg">
<path d="M6.04 13.592C6.88267 13.592 7.64 13.3893 8.312 12.984V14.136C7.65067 14.4773 6.87733 14.648 5.992 14.648C4.776 14.648 3.78933 14.344 3.032 13.736C2.28533 13.1173 1.912 12.2693 1.912 11.192C1.912 10.1573 2.28 9.31467 3.016 8.664C3.752 8.01333 4.70133 7.68267 5.864 7.672C6.03467 7.672 6.16267 7.67733 6.248 7.688V5.8H0.648V4.728H9.272V5.8H7.496V8.776C7.15467 8.72267 6.78133 8.696 6.376 8.696C5.42667 8.696 4.65867 8.91467 4.072 9.352C3.496 9.77867 3.208 10.3973 3.208 11.208C3.208 11.9653 3.464 12.552 3.976 12.968C4.49867 13.384 5.18667 13.592 6.04 13.592ZM11.6259 4.728H13.5139V5.8H11.6579V15H10.4259V5.8H8.56987V4.728H10.2499L8.93788 2.728C8.57521 2.17333 8.08987 1.896 7.48187 1.896C7.26854 1.896 7.00187 1.928 6.68187 1.992V0.903999C7.06587 0.84 7.35387 0.808 7.54587 0.808C8.08987 0.808 8.55387 0.925333 8.93788 1.16C9.32188 1.384 9.67388 1.74667 9.99388 2.248L11.6259 4.728ZM25.2523 4.728V5.8H23.3963V15H22.1323V8.664C21.8549 8.52533 21.5669 8.456 21.2683 8.456C20.1163 8.456 19.5403 9.13333 19.5403 10.488V11.64H18.2923V10.456C18.2923 9.18667 17.8283 8.552 16.9003 8.552C16.4309 8.552 16.0416 8.74933 15.7323 9.144C15.4336 9.528 15.2843 10.0827 15.2843 10.808C15.2843 11.7147 15.5189 12.4667 15.9883 13.064C16.4576 13.6507 17.1456 13.944 18.0523 13.944C18.2336 13.944 18.3776 13.9333 18.4843 13.912V14.952C18.2923 14.984 18.0896 15 17.8763 15C16.7243 15 15.7963 14.6053 15.0923 13.816C14.3883 13.016 14.0363 12.008 14.0363 10.792C14.0363 9.82133 14.2869 9.032 14.7883 8.424C15.2896 7.80533 15.9563 7.496 16.7883 7.496C17.3643 7.496 17.8389 7.62933 18.2123 7.896C18.5856 8.152 18.8256 8.52 18.9323 9C19.1776 7.95467 19.9243 7.432 21.1723 7.432C21.5243 7.432 21.8443 7.49067 22.1323 7.608V5.8H12.8042V4.728H25.2523Z" fill="#5A6872"/>
</svg>
