<svg width="55" height="16" viewBox="0 0 55 16" fill="none" xmlns="http://www.w3.org/2000/svg">
<path d="M6.165 13.592C7.00767 13.592 7.765 13.3893 8.437 12.984V14.136C7.77567 14.4773 7.00233 14.648 6.117 14.648C4.901 14.648 3.91433 14.344 3.157 13.736C2.41033 13.1173 2.037 12.2693 2.037 11.192C2.037 10.1573 2.405 9.31467 3.141 8.664C3.877 8.01333 4.82633 7.68267 5.989 7.672C6.15967 7.672 6.28767 7.67733 6.373 7.688V5.8H0.773V4.728H9.397V5.8H7.621V8.776C7.27967 8.72267 6.90633 8.696 6.501 8.696C5.55167 8.696 4.78367 8.91467 4.197 9.352C3.621 9.77867 3.333 10.3973 3.333 11.208C3.333 11.9653 3.589 12.552 4.101 12.968C4.62367 13.384 5.31167 13.592 6.165 13.592ZM11.7509 4.728H13.6389V5.8H11.7829V15H10.5509V5.8H8.69487V4.728H10.3749L9.06288 2.728C8.70021 2.17333 8.21487 1.896 7.60687 1.896C7.39354 1.896 7.12687 1.928 6.80687 1.992V0.903999C7.19087 0.84 7.47887 0.808 7.67087 0.808C8.21487 0.808 8.67887 0.925333 9.06288 1.16C9.44688 1.384 9.79888 1.74667 10.1189 2.248L11.7509 4.728ZM25.3773 4.728V5.8H23.5213V15H22.2573V8.664C21.9799 8.52533 21.6919 8.456 21.3933 8.456C20.2413 8.456 19.6653 9.13333 19.6653 10.488V11.64H18.4173V10.456C18.4173 9.18667 17.9533 8.552 17.0253 8.552C16.5559 8.552 16.1666 8.74933 15.8573 9.144C15.5586 9.528 15.4093 10.0827 15.4093 10.808C15.4093 11.7147 15.6439 12.4667 16.1133 13.064C16.5826 13.6507 17.2706 13.944 18.1773 13.944C18.3586 13.944 18.5026 13.9333 18.6093 13.912V14.952C18.4173 14.984 18.2146 15 18.0013 15C16.8493 15 15.9213 14.6053 15.2173 13.816C14.5133 13.016 14.1613 12.008 14.1613 10.792C14.1613 9.82133 14.4119 9.032 14.9133 8.424C15.4146 7.80533 16.0813 7.496 16.9133 7.496C17.4893 7.496 17.9639 7.62933 18.3373 7.896C18.7106 8.152 18.9506 8.52 19.0573 9C19.3026 7.95467 20.0493 7.432 21.2973 7.432C21.6493 7.432 21.9693 7.49067 22.2573 7.608V5.8H12.9292V4.728H25.3773ZM41.6255 5.8H35.7375V8.088C36.2282 7.576 36.8522 7.32 37.6095 7.32C38.4842 7.32 39.1935 7.58667 39.7375 8.12C40.2815 8.65333 40.5535 9.352 40.5535 10.216C40.5535 11.144 40.2495 11.8853 39.6415 12.44C39.0335 12.9947 38.2762 13.272 37.3695 13.272C37.2522 13.272 37.1295 13.2613 37.0015 13.24V12.168C37.1082 12.1893 37.2148 12.2 37.3215 12.2C37.8868 12.2 38.3562 12.024 38.7295 11.672C39.1028 11.32 39.2895 10.8347 39.2895 10.216C39.2895 9.672 39.1188 9.22933 38.7775 8.888C38.4468 8.536 38.0095 8.36 37.4655 8.36C36.9962 8.36 36.5908 8.52533 36.2495 8.856C35.9082 9.176 35.7375 9.58133 35.7375 10.072V15H34.4735V12.696C34.0042 13.1867 33.3855 13.432 32.6175 13.432C31.7428 13.432 31.0335 13.1707 30.4895 12.648C29.9455 12.1147 29.6735 11.416 29.6735 10.552C29.6735 9.624 29.9775 8.88267 30.5855 8.328C31.1935 7.76267 31.9455 7.48 32.8415 7.48C33.0122 7.48 33.1348 7.496 33.2095 7.528V8.584C33.1562 8.57333 33.0548 8.568 32.9055 8.568C32.3295 8.568 31.8548 8.744 31.4815 9.096C31.1082 9.448 30.9215 9.928 30.9215 10.536C30.9215 11.08 31.0922 11.528 31.4335 11.88C31.7748 12.232 32.2175 12.408 32.7615 12.408C33.2308 12.408 33.6308 12.2427 33.9615 11.912C34.3028 11.5813 34.4735 11.1707 34.4735 10.68V5.8H28.5855V4.728H41.6255V5.8ZM40.9292 5.8V4.728H45.8893V5.8H44.0333V15H42.7853V5.8H40.9292ZM51.9153 8.216H49.1313C48.7473 8.216 48.4273 8.296 48.1713 8.456C47.9153 8.616 47.7873 8.872 47.7873 9.224C47.7873 9.58667 47.9473 9.85333 48.2673 10.024C48.5873 10.184 49.1473 10.2853 49.9473 10.328C51.8673 10.3813 52.8273 11.1173 52.8273 12.536C52.8166 13.272 52.5179 13.8693 51.9313 14.328C51.3553 14.7867 50.5713 15.016 49.5793 15.016C48.4379 15.016 47.4246 14.7813 46.5393 14.312V13.08C47.4886 13.6667 48.5019 13.96 49.5793 13.96C50.1873 13.96 50.6673 13.8373 51.0193 13.592C51.3713 13.3467 51.5473 13 51.5473 12.552C51.5473 12.1573 51.3873 11.8693 51.0673 11.688C50.7473 11.5067 50.2139 11.4 49.4673 11.368C47.5046 11.2827 46.5233 10.5787 46.5233 9.256C46.5233 8.57333 46.7633 8.05067 47.2433 7.688C47.7233 7.32533 48.3366 7.144 49.0833 7.144H50.6673V5.8H45.1792V4.728H54.2193V5.8H51.9153V8.216ZM52.4139 2.12C52.0512 2.12 51.7632 2.232 51.5499 2.456C51.3365 2.68 51.2299 2.97867 51.2299 3.352C51.2299 3.93867 51.4965 4.456 52.0299 4.904H50.6699C50.1899 4.52 49.9499 3.95467 49.9499 3.208C49.9499 2.58933 50.1632 2.06667 50.5899 1.64C51.0165 1.21333 51.5819 0.999999 52.2859 0.999999C52.7339 0.999999 53.1072 1.07467 53.4059 1.224V2.344C53.0859 2.19467 52.7552 2.12 52.4139 2.12Z" fill="#5A6872"/>
</svg>
