<svg width="50" height="31" viewBox="0 0 50 31" fill="none" xmlns="http://www.w3.org/2000/svg">
<path fill-rule="evenodd" clip-rule="evenodd" d="M44.6246 22.4468V17.0967L0 17.0968V22.4469C0 23.7816 1.08194 24.8634 2.41667 24.8633H5.65498C6.12214 21.6573 8.88521 19.1924 12.2121 19.1924C15.539 19.1924 18.302 21.6573 18.7692 24.8633H26.5C26.9672 21.6573 29.7302 19.1924 33.0571 19.1924C36.3919 19.1924 39.155 21.6573 39.6222 24.8633H42.208C43.5426 24.8633 44.6246 23.7815 44.6246 22.4468ZM28.0482 25.8189C28.0482 23.0507 30.2923 20.8066 33.0605 20.8066C35.8288 20.8066 38.0728 23.0507 38.0728 25.8189C38.0728 28.5871 35.8287 30.8312 33.0605 30.8312C30.2924 30.8312 28.0482 28.5871 28.0482 25.8189ZM30.5544 25.8189C30.5544 27.203 31.6765 28.3251 33.0605 28.3251C34.4446 28.3251 35.5667 27.203 35.5667 25.8189C35.5667 24.4347 34.4446 23.3129 33.0605 23.3129C31.6763 23.3129 30.5544 24.4347 30.5544 25.8189ZM7.19886 25.8189C7.19886 23.0507 9.44289 20.8066 12.2111 20.8066C14.9792 20.8066 17.2234 23.0507 17.2234 25.8189C17.2234 28.5871 14.9792 30.8312 12.2111 30.8312C9.44297 30.8312 7.19886 28.5871 7.19886 25.8189ZM9.7049 25.8189C9.7049 27.203 10.827 28.3251 12.2111 28.3251C13.5952 28.3251 14.7172 27.203 14.7172 25.8189C14.7172 24.4347 13.5952 23.3129 12.2111 23.3129C10.827 23.3129 9.7049 24.4347 9.7049 25.8189Z" fill="#5A6872"/>
<path fill-rule="evenodd" clip-rule="evenodd" d="M0 16H41V0H0V16Z" fill="#5A6872"/>
<path fill-rule="evenodd" clip-rule="evenodd" d="M45 20H50V18H45V20Z" fill="#5A6872"/>
</svg>
