
<svg width="40" height="14" viewBox="0 0 40 14" fill="none" xmlns="http://www.w3.org/2000/svg">
<path d="M9.744 3.9V5.02H8.176V13H6.832V9.472H5.012C5.02133 9.528 5.026 9.612 5.026 9.724C5.026 10.4333 4.77867 11.0073 4.284 11.446C3.78933 11.8847 3.08933 12.104 2.184 12.104C1.54933 12.104 0.961333 11.992 0.42 11.768V10.508C0.998667 10.8067 1.57267 10.956 2.142 10.956C2.57133 10.956 2.94 10.8487 3.248 10.634C3.556 10.41 3.71 10.0553 3.71 9.57C3.71 8.77667 3.16867 8.38 2.086 8.38H1.568V7.204H2.016C2.47333 7.204 2.81867 7.106 3.052 6.91C3.29467 6.714 3.416 6.44333 3.416 6.098C3.416 5.398 3.01 5.048 2.198 5.048C1.68467 5.048 1.22267 5.16 0.812 5.384V4.138C1.26 3.96067 1.74067 3.872 2.254 3.872C3.05667 3.872 3.67733 4.05867 4.116 4.432C4.55467 4.80533 4.774 5.30933 4.774 5.944C4.774 6.42 4.65267 6.81667 4.41 7.134C4.16733 7.45133 3.84067 7.666 3.43 7.778C3.88733 7.834 4.26067 8.02067 4.55 8.338H6.832V5.02H5.614V3.9H9.744ZM14.6566 7.68V5.02H11.6746V7.792C11.6746 8.38 11.7866 8.80467 12.0106 9.066C12.2346 9.32733 12.5752 9.458 13.0326 9.458C13.4899 9.458 13.8726 9.29933 14.1806 8.982C14.4979 8.66467 14.6566 8.23067 14.6566 7.68ZM17.5826 3.9V5.02H16.0146V13H14.6566V9.808C14.2086 10.3027 13.6112 10.5547 12.8646 10.564C11.1659 10.564 10.3166 9.626 10.3166 7.75V5.02H9.05658V3.9H17.5826ZM27.9506 3.9V5.02H26.3966V13H25.0386V7.512C24.8239 7.44667 24.6186 7.414 24.4226 7.414C23.4612 7.414 22.9806 7.96933 22.9806 9.08V10.06H21.6226V9.052C21.6226 8.02533 21.2586 7.512 20.5306 7.512C20.1572 7.512 19.8492 7.666 19.6066 7.974C19.3732 8.282 19.2566 8.73467 19.2566 9.332C19.2566 10.088 19.4526 10.6993 19.8446 11.166C20.2366 11.6327 20.8246 11.866 21.6086 11.866C21.7952 11.866 21.9399 11.8567 22.0426 11.838V12.944C21.8839 12.9813 21.6832 13 21.4406 13C20.3672 13 19.5086 12.6547 18.8646 11.964C18.2299 11.2733 17.9126 10.3867 17.9126 9.304C17.9126 8.436 18.1366 7.736 18.5846 7.204C19.0326 6.66267 19.6346 6.392 20.3906 6.392C20.9132 6.392 21.3426 6.50867 21.6786 6.742C22.0146 6.97533 22.2246 7.288 22.3086 7.68C22.5419 6.77467 23.2139 6.322 24.3246 6.322C24.5766 6.322 24.8146 6.35933 25.0386 6.434V5.02H16.8906V3.9H27.9506ZM30.1512 3.9H31.7332V5.02H30.1792V13H28.8352V5.02H27.2812V3.9H28.6812L27.6032 2.262C27.2952 1.79533 26.8892 1.562 26.3852 1.562C26.1052 1.562 25.8532 1.59933 25.6292 1.674V0.512C25.9652 0.455999 26.2452 0.427999 26.4692 0.427999C26.9639 0.427999 27.3885 0.530666 27.7432 0.735999C28.0979 0.932 28.4199 1.24933 28.7092 1.688L30.1512 3.9ZM37.103 5.02V7.134V7.148H34.527C33.827 7.148 33.477 7.40933 33.477 7.932C33.477 8.22133 33.6123 8.42667 33.883 8.548C34.163 8.66933 34.6343 8.73933 35.297 8.758C37.0236 8.80467 37.887 9.472 37.887 10.76C37.887 11.4227 37.6163 11.964 37.075 12.384C36.543 12.804 35.8196 13.014 34.905 13.014C33.8876 13.014 32.9683 12.7993 32.147 12.37V11.068C33.0056 11.6093 33.9296 11.88 34.919 11.88C35.423 11.88 35.815 11.7867 36.095 11.6C36.3843 11.404 36.529 11.138 36.529 10.802C36.529 10.4753 36.3983 10.2467 36.137 10.116C35.8756 9.98533 35.4323 9.91067 34.807 9.892C33.0243 9.82667 32.133 9.18267 32.133 7.96C32.133 7.32533 32.357 6.84467 32.805 6.518C33.253 6.19133 33.8176 6.028 34.499 6.028H35.759V5.02H31.041V3.9H39.063V5.02H37.103Z" fill="#0086DA"/>
</svg>
