<svg width="24" height="20" viewBox="0 0 24 20" fill="none" xmlns="http://www.w3.org/2000/svg">
<path d="M23.2015 3.49814C22.7224 2.99624 22.0608 2.69966 21.308 2.69966H17.5209V2.65404C17.5209 2.08369 17.2928 1.53616 16.9049 1.17115C16.5171 0.783313 15.9924 0.555176 15.4221 0.555176H8.57795C7.98479 0.555176 7.46008 0.783313 7.07224 1.17115C6.68441 1.55898 6.45627 2.08369 6.45627 2.65404V2.69966H2.69202C1.93916 2.69966 1.27757 2.99624 0.798479 3.49814C0.319392 3.97723 0 4.66164 0 5.39168V16.7529C0 17.5057 0.296578 18.1673 0.798479 18.6464C1.27757 19.1255 1.96198 19.4449 2.69202 19.4449H21.308C22.0608 19.4449 22.7224 19.1483 23.2015 18.6464C23.6806 18.1673 24 17.4829 24 16.7529V5.39168C24 4.63883 23.7034 3.97723 23.2015 3.49814ZM22.8137 16.7529H22.7909C22.7909 17.1635 22.6312 17.5286 22.3574 17.8023C22.0837 18.0761 21.7186 18.2358 21.308 18.2358H2.69202C2.28137 18.2358 1.91635 18.0761 1.64259 17.8023C1.36882 17.5286 1.20913 17.1635 1.20913 16.7529V5.39168C1.20913 4.98103 1.36882 4.61601 1.64259 4.34225C1.91635 4.06848 2.28137 3.90879 2.69202 3.90879H7.09506C7.43726 3.90879 7.71103 3.63502 7.71103 3.29282V2.63122C7.71103 2.38027 7.80228 2.15213 7.96198 1.99244C8.12167 1.83274 8.34981 1.74149 8.60076 1.74149H15.4221C15.673 1.74149 15.9011 1.83274 16.0608 1.99244C16.2205 2.15213 16.3118 2.38027 16.3118 2.63122V3.29282C16.3118 3.63502 16.5856 3.90879 16.9278 3.90879H21.3308C21.7414 3.90879 22.1065 4.06848 22.3802 4.34225C22.654 4.61601 22.8137 4.98103 22.8137 5.39168V16.7529Z" fill="#0086DA"/>
</svg>
