<svg width="95" height="16" viewBox="0 0 95 16" fill="none" xmlns="http://www.w3.org/2000/svg">
<path d="M10.7626 4.728V5.8H8.90656V15H7.65856V12.344C7.1039 13.144 6.25056 13.544 5.09856 13.544C4.24523 13.544 3.50923 13.272 2.89056 12.728C2.28256 12.1733 1.97856 11.4267 1.97856 10.488C1.97856 9.61333 2.2719 8.888 2.85856 8.312C3.4559 7.72533 4.21856 7.432 5.14656 7.432C5.54123 7.432 5.87723 7.47467 6.15456 7.56V8.664C5.8879 8.568 5.57323 8.52 5.21056 8.52C4.64523 8.52 4.1759 8.70133 3.80256 9.064C3.42923 9.416 3.24256 9.88533 3.24256 10.472C3.24256 11.0907 3.42923 11.5867 3.80256 11.96C4.18656 12.3333 4.66123 12.52 5.22656 12.52C5.97323 12.52 6.56523 12.2693 7.00256 11.768C7.4399 11.2667 7.65856 10.6747 7.65856 9.992V5.8H0.874562V4.728H10.7626ZM10.0621 5.8V4.728H15.0221V5.8H13.1661V15H11.9181V5.8H10.0621ZM21.7041 8.312H17.8641C17.2667 8.312 16.9681 8.552 16.9681 9.032C16.9681 9.30933 17.0427 9.56 17.1921 9.784C17.3414 9.99733 17.5174 10.152 17.7201 10.248C18.1681 10.088 18.6854 10.008 19.2721 10.008C20.1467 10.008 20.8187 10.2213 21.2881 10.648C21.7574 11.064 21.9921 11.5653 21.9921 12.152C21.9921 12.504 21.9334 12.8027 21.8161 13.048H20.5841C20.7334 12.8453 20.8081 12.568 20.8081 12.216C20.8081 11.8747 20.6747 11.5973 20.4081 11.384C20.1521 11.16 19.7681 11.048 19.2561 11.048C18.5521 11.048 18.0027 11.2027 17.6081 11.512C17.2134 11.8213 17.0161 12.1947 17.0161 12.632C17.0161 13.1653 17.2454 13.6027 17.7041 13.944C18.1627 14.2747 18.8614 14.44 19.8001 14.44C20.4507 14.44 21.1174 14.344 21.8001 14.152V15.224C21.0641 15.4053 20.3654 15.496 19.7041 15.496C18.4454 15.496 17.4747 15.208 16.7921 14.632C16.1094 14.056 15.7681 13.384 15.7681 12.616C15.7681 11.8587 16.1041 11.2293 16.7761 10.728C16.0614 10.2587 15.7041 9.64 15.7041 8.872C15.7041 8.36 15.8854 7.96533 16.2481 7.688C16.6107 7.41067 17.0801 7.272 17.6561 7.272H20.4721V5.8H14.3121V4.728H23.5121V5.8H21.7041V8.312ZM22.7964 4.728H31.3404V5.8H29.5004V15H28.2364V9.736H25.4044C25.2124 9.736 25.0791 9.784 25.0044 9.88C24.9298 9.976 24.8924 10.136 24.8924 10.36C24.8924 10.7333 24.9618 11.128 25.1004 11.544H24.0444C23.7458 10.9467 23.5964 10.392 23.5964 9.88C23.5964 9.08 24.0604 8.68 24.9884 8.68H28.2364V5.8H22.7964V4.728ZM47.5864 5.8H41.6984V8.088C42.1891 7.576 42.8131 7.32 43.5704 7.32C44.4451 7.32 45.1544 7.58667 45.6984 8.12C46.2424 8.65333 46.5144 9.352 46.5144 10.216C46.5144 11.144 46.2104 11.8853 45.6024 12.44C44.9944 12.9947 44.2371 13.272 43.3304 13.272C43.2131 13.272 43.0904 13.2613 42.9624 13.24V12.168C43.0691 12.1893 43.1758 12.2 43.2824 12.2C43.8478 12.2 44.3171 12.024 44.6904 11.672C45.0638 11.32 45.2504 10.8347 45.2504 10.216C45.2504 9.672 45.0798 9.22933 44.7384 8.888C44.4078 8.536 43.9704 8.36 43.4264 8.36C42.9571 8.36 42.5518 8.52533 42.2104 8.856C41.8691 9.176 41.6984 9.58133 41.6984 10.072V15H40.4344V12.696C39.9651 13.1867 39.3464 13.432 38.5784 13.432C37.7038 13.432 36.9944 13.1707 36.4504 12.648C35.9064 12.1147 35.6344 11.416 35.6344 10.552C35.6344 9.624 35.9384 8.88267 36.5464 8.328C37.1544 7.76267 37.9064 7.48 38.8024 7.48C38.9731 7.48 39.0958 7.496 39.1704 7.528V8.584C39.1171 8.57333 39.0158 8.568 38.8664 8.568C38.2904 8.568 37.8158 8.744 37.4424 9.096C37.0691 9.448 36.8824 9.928 36.8824 10.536C36.8824 11.08 37.0531 11.528 37.3944 11.88C37.7358 12.232 38.1784 12.408 38.7224 12.408C39.1918 12.408 39.5918 12.2427 39.9224 11.912C40.2638 11.5813 40.4344 11.1707 40.4344 10.68V5.8H34.5464V4.728H47.5864V5.8ZM49.9782 4.728H51.8342V5.8H49.9942V15H48.7462V5.8H46.8902V4.728H48.7142V4.216C48.7142 3.48 48.4155 2.888 47.8182 2.44C47.2209 1.992 46.2662 1.768 44.9542 1.768C43.8555 1.768 43.0395 1.944 42.5062 2.296C41.9622 2.648 41.6902 3.11733 41.6902 3.704V3.816H40.4422V3.672C40.4422 2.73333 40.8529 1.99733 41.6742 1.464C42.4955 0.930666 43.5889 0.664 44.9542 0.664C46.5755 0.664 47.8182 0.978666 48.6822 1.608C49.5462 2.22667 49.9782 3.112 49.9782 4.264V4.728ZM55.0308 5.8V4.728H64.8868V5.8H63.0468V15H61.7988V10.52H58.4388V12.696H57.3508L56.9508 11.8C56.6628 11.1173 56.5188 10.6373 56.5188 10.36C56.5188 10.1467 56.5775 9.96533 56.6948 9.816C56.8228 9.66667 56.9881 9.56533 57.1908 9.512V5.8H55.0308ZM61.7988 5.8H58.4388V9.464H61.7988V5.8ZM65.0351 10.536V9.496H66.1071C67.4084 9.496 68.0591 8.984 68.0591 7.96V5.8H64.1871V4.728H70.9071V5.8H69.3071V8.072C69.3071 8.82933 69.0724 9.42667 68.6031 9.864C68.1337 10.2907 67.5044 10.5147 66.7151 10.536H66.5391L69.9311 15H68.4111L65.0351 10.536ZM81.6427 9.464V5.8H78.2827V9.464H81.6427ZM73.6107 5.8V9.448H77.0347V5.8H73.6107ZM84.7307 4.728V5.8H82.8907V15H81.6427V10.52H78.2827V12.696H77.1947L76.7947 11.8C76.5494 11.224 76.4107 10.808 76.3787 10.552H73.6107V12.712H72.5227L72.1227 11.816C71.8347 11.1333 71.6907 10.6533 71.6907 10.376C71.6907 10.152 71.7494 9.96533 71.8667 9.816C71.9947 9.656 72.16 9.54933 72.3627 9.496V5.8H70.2027V4.728H84.7307ZM94.1428 4.728V5.8H92.2868V15H91.0388V8.856H89.5188C87.6308 8.856 86.6868 9.688 86.6868 11.352C86.6868 12.1413 86.8788 12.7653 87.2628 13.224C87.6575 13.6827 88.2335 13.912 88.9908 13.912C89.1721 13.912 89.2948 13.9067 89.3588 13.896V14.968C89.1881 14.9893 89.0281 15 88.8788 15C87.8121 15 86.9695 14.6587 86.3508 13.976C85.7321 13.2933 85.4228 12.4133 85.4228 11.336C85.4228 10.2693 85.7588 9.41067 86.4308 8.76C87.1028 8.09867 88.0841 7.768 89.3748 7.768H91.0388V5.8H84.0308V4.728H94.1428Z" fill="#152935"/>
</svg>
