<svg width="12" height="16" viewBox="0 0 12 16" fill="none" xmlns="http://www.w3.org/2000/svg">
<path d="M5.99995 2.00008C5.46952 2.00008 4.96081 2.21079 4.58574 2.58587C4.21067 2.96094 3.99995 3.46965 3.99995 4.00008V6.66675C3.99995 7.19718 4.21067 7.70589 4.58574 8.08096C4.96081 8.45603 5.46952 8.66675 5.99995 8.66675C6.53039 8.66675 7.03909 8.45603 7.41417 8.08096C7.78924 7.70589 7.99995 7.19718 7.99995 6.66675V4.00008C7.99995 3.46965 7.78924 2.96094 7.41417 2.58587C7.03909 2.21079 6.53039 2.00008 5.99995 2.00008ZM5.99995 0.666748C6.43769 0.666748 6.87115 0.752967 7.27556 0.920483C7.67998 1.088 8.04745 1.33353 8.35698 1.64306C8.6665 1.95259 8.91204 2.32005 9.07955 2.72447C9.24707 3.12889 9.33329 3.56234 9.33329 4.00008V6.66675C9.33329 7.5508 8.9821 8.39865 8.35698 9.02377C7.73185 9.64889 6.88401 10.0001 5.99995 10.0001C5.1159 10.0001 4.26805 9.64889 3.64293 9.02377C3.01781 8.39865 2.66662 7.5508 2.66662 6.66675V4.00008C2.66662 3.11603 3.01781 2.26818 3.64293 1.64306C4.26805 1.01794 5.1159 0.666748 5.99995 0.666748ZM0.0366211 7.33341H1.37995C1.54148 8.44327 2.0972 9.45787 2.94544 10.1916C3.79368 10.9253 4.87774 11.3291 5.99929 11.3291C7.12083 11.3291 8.20489 10.9253 9.05313 10.1916C9.90137 9.45787 10.4571 8.44327 10.6186 7.33341H11.9626C11.811 8.68589 11.2044 9.94671 10.2421 10.9091C9.27982 11.8715 8.01908 12.4783 6.66662 12.6301V15.3334H5.33329V12.6301C3.98071 12.4785 2.71981 11.8717 1.7574 10.9093C0.794999 9.94689 0.188229 8.68599 0.0366211 7.33341Z" fill="#8C9BA5"/>
</svg>
