<svg width="101" height="16" viewBox="0 0 101 16" fill="none" xmlns="http://www.w3.org/2000/svg">
<path d="M15.136 4.728V5.8H13.28V15H12.032V5.8H9.04V15H7.792V10.84H5.584C5.59467 10.9147 5.6 11.032 5.6 11.192C5.6 11.9813 5.31733 12.6213 4.752 13.112C4.19733 13.6027 3.424 13.848 2.432 13.848C1.73867 13.848 1.088 13.72 0.48 13.464V12.28C1.14133 12.6107 1.78667 12.776 2.416 12.776C2.928 12.776 3.376 12.6427 3.76 12.376C4.15467 12.0987 4.352 11.6667 4.352 11.08C4.352 10.6213 4.18667 10.264 3.856 10.008C3.52533 9.752 3.024 9.624 2.352 9.624H1.808V8.504H2.32C2.88533 8.504 3.312 8.38133 3.6 8.136C3.888 7.89067 4.032 7.56 4.032 7.144C4.032 6.26933 3.53067 5.832 2.528 5.832C1.96267 5.832 1.44533 5.96 0.976 6.216V5.032C1.43467 4.84 1.95733 4.744 2.544 4.744C3.41867 4.744 4.09067 4.94667 4.56 5.352C5.04 5.75733 5.28 6.30667 5.28 7C5.28 7.53333 5.14133 7.976 4.864 8.328C4.59733 8.68 4.24533 8.91467 3.808 9.032C4.352 9.10667 4.78933 9.34667 5.12 9.752H7.792V5.8H6.336V4.728H15.136ZM24.3173 4.728V5.8H22.4613V15H21.2133V12.344C20.6586 13.144 19.8053 13.544 18.6533 13.544C17.7999 13.544 17.0639 13.272 16.4453 12.728C15.8373 12.1733 15.5333 11.4267 15.5333 10.488C15.5333 9.61333 15.8266 8.888 16.4133 8.312C17.0106 7.72533 17.7733 7.432 18.7013 7.432C19.0959 7.432 19.4319 7.47467 19.7093 7.56V8.664C19.4426 8.568 19.1279 8.52 18.7653 8.52C18.1999 8.52 17.7306 8.70133 17.3573 9.064C16.9839 9.416 16.7973 9.88533 16.7973 10.472C16.7973 11.0907 16.9839 11.5867 17.3573 11.96C17.7413 12.3333 18.2159 12.52 18.7812 12.52C19.5279 12.52 20.1199 12.2693 20.5573 11.768C20.9946 11.2667 21.2133 10.6747 21.2133 9.992V5.8H14.4292V4.728H24.3173ZM23.6167 5.8V4.728H28.5768V5.8H26.7208V15H25.4728V5.8H23.6167ZM27.8667 4.728H38.9708V5.8H37.1148V15H35.8668V8.856H32.6508C33.4188 9.31467 33.8028 10.0667 33.8028 11.112C33.8028 11.976 33.5094 12.6747 32.9227 13.208C32.3468 13.7307 31.5788 13.992 30.6188 13.992C29.9148 13.992 29.2748 13.8747 28.6988 13.64V12.488C29.2748 12.7867 29.8721 12.936 30.4908 12.936C31.1094 12.936 31.6054 12.7707 31.9788 12.44C32.3628 12.0987 32.5548 11.6293 32.5548 11.032C32.5548 10.3173 32.3041 9.77867 31.8028 9.416C31.3121 9.04267 30.6294 8.856 29.7548 8.856V7.784H35.8668V5.8H27.8667V4.728ZM46.9153 1.768C46.4139 1.768 46.0139 1.91733 45.7153 2.216C45.4273 2.504 45.2833 2.89867 45.2833 3.4V4.728H47.1233V5.8H45.2833V15H44.0353V5.8H42.1792V4.728H44.0353V3.384C44.0353 2.57333 44.2966 1.91733 44.8193 1.416C45.3526 0.904 46.0406 0.648 46.8833 0.648C47.4166 0.648 47.9713 0.738666 48.5473 0.919999C49.1339 1.10133 49.6139 1.288 49.9873 1.48C50.3713 1.672 50.8886 1.95467 51.5393 2.328V3.576C49.6299 2.37067 48.0886 1.768 46.9153 1.768ZM47.2616 10.536V9.496H48.3336C49.635 9.496 50.2856 8.984 50.2856 7.96V5.8H46.4136V4.728H53.1336V5.8H51.5336V8.072C51.5336 8.82933 51.299 9.42667 50.8296 9.864C50.3603 10.2907 49.731 10.5147 48.9416 10.536H48.7656L52.1576 15H50.6376L47.2616 10.536ZM65.4693 5.8H59.5813V8.088C60.0719 7.576 60.6959 7.32 61.4533 7.32C62.3279 7.32 63.0373 7.58667 63.5813 8.12C64.1253 8.65333 64.3973 9.352 64.3973 10.216C64.3973 11.144 64.0933 11.8853 63.4853 12.44C62.8773 12.9947 62.1199 13.272 61.2133 13.272C61.0959 13.272 60.9733 13.2613 60.8453 13.24V12.168C60.9519 12.1893 61.0586 12.2 61.1653 12.2C61.7306 12.2 62.1999 12.024 62.5733 11.672C62.9466 11.32 63.1333 10.8347 63.1333 10.216C63.1333 9.672 62.9626 9.22933 62.6213 8.888C62.2906 8.536 61.8533 8.36 61.3093 8.36C60.8399 8.36 60.4346 8.52533 60.0933 8.856C59.7519 9.176 59.5813 9.58133 59.5813 10.072V15H58.3173V12.696C57.8479 13.1867 57.2293 13.432 56.4613 13.432C55.5866 13.432 54.8773 13.1707 54.3333 12.648C53.7893 12.1147 53.5173 11.416 53.5173 10.552C53.5173 9.624 53.8213 8.88267 54.4293 8.328C55.0373 7.76267 55.7893 7.48 56.6853 7.48C56.8559 7.48 56.9786 7.496 57.0533 7.528V8.584C56.9999 8.57333 56.8986 8.568 56.7493 8.568C56.1733 8.568 55.6986 8.744 55.3253 9.096C54.9519 9.448 54.7653 9.928 54.7653 10.536C54.7653 11.08 54.9359 11.528 55.2773 11.88C55.6186 12.232 56.0613 12.408 56.6053 12.408C57.0746 12.408 57.4746 12.2427 57.8053 11.912C58.1466 11.5813 58.3173 11.1707 58.3173 10.68V5.8H52.4292V4.728H65.4693V5.8ZM64.773 5.8V4.728H69.733V5.8H67.877V15H66.629V5.8H64.773ZM67.205 3.176C66.3837 3.176 65.701 2.96267 65.157 2.536C64.6237 2.10933 64.357 1.48533 64.357 0.664H65.589C65.589 1.10133 65.7277 1.464 66.005 1.752C66.293 2.04 66.693 2.184 67.205 2.184C67.717 2.184 68.1117 2.04533 68.389 1.768C68.6663 1.48 68.805 1.112 68.805 0.664H70.053C70.053 1.464 69.7757 2.08267 69.221 2.52C68.677 2.95733 68.005 3.176 67.205 3.176ZM75.759 8.216H72.975C72.591 8.216 72.271 8.296 72.015 8.456C71.759 8.616 71.631 8.872 71.631 9.224C71.631 9.58667 71.791 9.85333 72.111 10.024C72.431 10.184 72.991 10.2853 73.791 10.328C75.711 10.3813 76.671 11.1173 76.671 12.536C76.6603 13.272 76.3617 13.8693 75.775 14.328C75.199 14.7867 74.415 15.016 73.423 15.016C72.2817 15.016 71.2683 14.7813 70.383 14.312V13.08C71.3323 13.6667 72.3457 13.96 73.423 13.96C74.031 13.96 74.511 13.8373 74.863 13.592C75.215 13.3467 75.391 13 75.391 12.552C75.391 12.1573 75.231 11.8693 74.911 11.688C74.591 11.5067 74.0577 11.4 73.311 11.368C71.3483 11.2827 70.367 10.5787 70.367 9.256C70.367 8.57333 70.607 8.05067 71.087 7.688C71.567 7.32533 72.1803 7.144 72.927 7.144H74.511V5.8H69.023V4.728H78.063V5.8H75.759V8.216ZM76.2576 2.12C75.895 2.12 75.607 2.232 75.3936 2.456C75.1803 2.68 75.0736 2.97867 75.0736 3.352C75.0736 3.93867 75.3403 4.456 75.8736 4.904H74.5136C74.0336 4.52 73.7936 3.95467 73.7936 3.208C73.7936 2.58933 74.007 2.06667 74.4336 1.64C74.8603 1.21333 75.4256 0.999999 76.1296 0.999999C76.5776 0.999999 76.951 1.07467 77.2496 1.224V2.344C76.9296 2.19467 76.599 2.12 76.2576 2.12ZM94.313 5.8H88.425V8.088C88.9157 7.576 89.5397 7.32 90.297 7.32C91.1717 7.32 91.881 7.58667 92.425 8.12C92.969 8.65333 93.241 9.352 93.241 10.216C93.241 11.144 92.937 11.8853 92.329 12.44C91.721 12.9947 90.9637 13.272 90.057 13.272C89.9397 13.272 89.817 13.2613 89.689 13.24V12.168C89.7957 12.1893 89.9023 12.2 90.009 12.2C90.5743 12.2 91.0437 12.024 91.417 11.672C91.7903 11.32 91.977 10.8347 91.977 10.216C91.977 9.672 91.8063 9.22933 91.465 8.888C91.1343 8.536 90.697 8.36 90.153 8.36C89.6837 8.36 89.2783 8.52533 88.937 8.856C88.5957 9.176 88.425 9.58133 88.425 10.072V15H87.161V12.696C86.6917 13.1867 86.073 13.432 85.305 13.432C84.4303 13.432 83.721 13.1707 83.177 12.648C82.633 12.1147 82.361 11.416 82.361 10.552C82.361 9.624 82.665 8.88267 83.273 8.328C83.881 7.76267 84.633 7.48 85.529 7.48C85.6997 7.48 85.8223 7.496 85.897 7.528V8.584C85.8437 8.57333 85.7423 8.568 85.593 8.568C85.017 8.568 84.5423 8.744 84.169 9.096C83.7957 9.448 83.609 9.928 83.609 10.536C83.609 11.08 83.7797 11.528 84.121 11.88C84.4623 12.232 84.905 12.408 85.449 12.408C85.9183 12.408 86.3183 12.2427 86.649 11.912C86.9903 11.5813 87.161 11.1707 87.161 10.68V5.8H81.273V4.728H94.313V5.8ZM94.4648 10.536V9.496H95.5368C96.8381 9.496 97.4888 8.984 97.4888 7.96V5.8H93.6167V4.728H100.337V5.8H98.7368V8.072C98.7368 8.82933 98.5021 9.42667 98.0328 9.864C97.5634 10.2907 96.9341 10.5147 96.1448 10.536H95.9688L99.3608 15H97.8408L94.4648 10.536ZM93.7864 1.992V0.903999C94.1704 0.84 94.4584 0.808 94.6504 0.808C95.1944 0.808 95.6584 0.925333 96.0424 1.16C96.4264 1.384 96.7784 1.74667 97.0984 2.248L98.8104 4.84H97.4344L96.0424 2.728C95.6904 2.17333 95.205 1.896 94.5864 1.896C94.373 1.896 94.1064 1.928 93.7864 1.992ZM98.6344 3.016C98.4637 2.856 98.3784 2.65333 98.3784 2.408C98.3784 2.16267 98.4637 1.95467 98.6344 1.784C98.7944 1.61333 98.997 1.528 99.2424 1.528C99.4877 1.528 99.6957 1.61333 99.8664 1.784C100.037 1.95467 100.122 2.16267 100.122 2.408C100.122 2.65333 100.037 2.856 99.8664 3.016C99.6957 3.176 99.4877 3.256 99.2424 3.256C98.997 3.256 98.7944 3.176 98.6344 3.016Z" fill="#0086DA"/>
</svg>
