<svg width="15" height="15" viewBox="0 0 15 15" fill="none" xmlns="http://www.w3.org/2000/svg">
<path d="M8.20832 3.95834H6.79166V6.79167H3.95832V8.20834H6.79166V11.0417H8.20832V8.20834H11.0417V6.79167H8.20832V3.95834ZM7.49999 0.416672C3.58999 0.416672 0.416656 3.59001 0.416656 7.50001C0.416656 11.41 3.58999 14.5833 7.49999 14.5833C11.41 14.5833 14.5833 11.41 14.5833 7.50001C14.5833 3.59001 11.41 0.416672 7.49999 0.416672ZM7.49999 13.1667C4.37624 13.1667 1.83332 10.6238 1.83332 7.50001C1.83332 4.37626 4.37624 1.83334 7.49999 1.83334C10.6237 1.83334 13.1667 4.37626 13.1667 7.50001C13.1667 10.6238 10.6237 13.1667 7.49999 13.1667Z" fill="#5A6872"/>
</svg>
