<svg width="22" height="22" viewBox="0 0 22 22" fill="none" xmlns="http://www.w3.org/2000/svg">
<circle cx="11" cy="11" r="11" fill="#47B02D"/>
<path fill-rule="evenodd" clip-rule="evenodd" d="M2.93311 8.06706C2.93311 6.05039 4.58311 4.40039 6.59977 4.40039C8.61644 4.40039 10.2664 6.05039 10.2664 8.06706C10.2664 10.0837 8.61644 11.7337 6.59977 11.7337C4.58311 11.7337 2.93311 10.0837 2.93311 8.06706ZM4.76644 9.53372V10.2671H8.4331V9.53372H4.76644ZM4.76644 7.59039L5.97644 8.80039L8.4331 6.34372L7.91977 5.83039L5.97644 7.77372L5.27977 7.07706L4.76644 7.59039ZM10.9998 8.06797C10.9998 10.498 9.02985 12.468 6.5998 12.468C6.50036 12.468 6.40169 12.4647 6.3039 12.4582V13.1959C6.3039 13.2946 6.38353 13.3746 6.48179 13.3746H12.4947C12.593 13.3746 12.6726 13.2946 12.6726 13.1959V7.86863C12.6726 7.5726 12.4337 7.33262 12.139 7.33262H10.9386C10.9789 7.57174 10.9998 7.81741 10.9998 8.06797ZM10.5849 15.0209C10.5849 15.6349 10.0893 16.1326 9.47805 16.1326C8.86675 16.1326 8.37116 15.6349 8.37116 15.0209C8.37116 14.4069 8.86675 13.9092 9.47805 13.9092C10.0893 13.9092 10.5849 14.4069 10.5849 15.0209ZM10.0315 15.0209C10.0315 14.7139 9.78369 14.465 9.47803 14.465C9.17237 14.465 8.92457 14.7139 8.92457 15.0209C8.92457 15.3279 9.17237 15.5768 9.47803 15.5768C9.78369 15.5768 10.0315 15.3279 10.0315 15.0209ZM8.5247 13.9092H6.04436C5.94611 13.9092 5.86646 13.9892 5.86646 14.0878V14.6299C5.86646 14.7286 5.94611 14.8086 6.04436 14.8086H8.03247C8.08437 14.4509 8.26414 14.1349 8.5247 13.9092ZM16.3763 15.0209C16.3763 15.6349 15.8807 16.1326 15.2694 16.1326C14.6581 16.1326 14.1625 15.6349 14.1625 15.0209C14.1625 14.4069 14.6581 13.9092 15.2694 13.9092C15.8807 13.9092 16.3763 14.4069 16.3763 15.0209ZM15.8229 15.0209C15.8229 14.7139 15.5751 14.465 15.2694 14.465C14.9637 14.465 14.716 14.7139 14.716 15.0209C14.716 15.3279 14.9638 15.5768 15.2694 15.5768C15.5751 15.5768 15.8229 15.3279 15.8229 15.0209ZM18.3331 14.0878V14.6299C18.3331 14.7286 18.2535 14.8086 18.1552 14.8086H16.715C16.612 14.099 16.0039 13.5518 15.2695 13.5518C14.5349 13.5518 13.9268 14.099 13.8238 14.8086H10.9236C10.8717 14.4509 10.692 14.1349 10.4314 13.9092H13.1813V8.79863C13.1813 8.60128 13.3406 8.44128 13.5371 8.44128H15.2165C15.6894 8.44128 16.1314 8.6772 16.3959 9.07082L17.4786 10.6814C17.6374 10.9176 17.7223 11.1962 17.7223 11.4812V13.9092H18.1552C18.2535 13.9092 18.3331 13.9892 18.3331 14.0878ZM16.5285 10.7226L15.6627 9.48704C15.6294 9.43949 15.5751 9.4112 15.5172 9.4112H14.1668C14.0686 9.4112 13.9889 9.49119 13.9889 9.58987V10.8255C13.9889 10.9242 14.0685 11.0041 14.1668 11.0041H16.383C16.5271 11.0041 16.6114 10.841 16.5285 10.7226Z" fill="white"/>
</svg>
