<svg width="26" height="25" viewBox="0 0 26 25" fill="none" xmlns="http://www.w3.org/2000/svg">
<g clip-path="url(#clip0)">
<path d="M9.72224 9.01771C12.2124 9.01771 14.2311 6.99903 14.2311 4.50886C14.2311 2.01868 12.2124 0 9.72224 0C7.23206 0 5.21338 2.01868 5.21338 4.50886C5.21338 6.99903 7.23206 9.01771 9.72224 9.01771Z" fill="#3FBD74"/>
<path d="M9.72211 11.2734C5.20867 11.2734 1.5498 14.9323 1.5498 19.4457H17.8944C17.8944 14.9323 14.2355 11.2734 9.72211 11.2734Z" fill="#3FBD74"/>
</g>
<circle cx="18.0553" cy="18.0558" r="5.94444" fill="#3FBD74" stroke="white" stroke-width="2"/>
<path d="M18.993 18.1239L17.0833 16.0753L19.2361 18.1239C19.1666 18.1934 19.0624 18.1934 18.993 18.1239ZM18.993 18.1239L19.1166 18.0087L19.1188 18.0067L19.2856 17.8512L19.1174 17.6707M18.993 18.1239L19.1123 18.0046L18.9481 17.8463L19.1174 17.6707M19.1174 17.6707L17.3759 15.8026L17.376 15.8024L17.3661 15.7925L17.3314 15.7577L17.0486 16.0406M19.1174 17.6707L23.6009 13.0199L23.7188 12.8975H23.7907M17.0486 16.0406L23.8888 13.2628L23.6407 13.0147C23.687 12.9684 23.7375 12.9293 23.7907 12.8975M17.0486 16.0406L17.3314 15.7577C17.0363 15.4626 16.5747 15.4626 16.2796 15.7577L16.5624 16.0406L16.2796 15.7577L15.7935 16.2439C15.6441 16.3932 15.5722 16.6014 15.5722 16.7697C15.5722 16.9254 15.6336 17.115 15.7609 17.2607L15.813 17.3389L15.8308 17.3656L15.8527 17.3892L18.561 20.3058L18.566 20.3112L18.5713 20.3165C18.6296 20.3748 18.7038 20.4345 18.8002 20.4773C18.8982 20.5209 18.9984 20.5378 19.0972 20.5378C19.1959 20.5378 19.2961 20.5209 19.3942 20.4773C19.4905 20.4345 19.5647 20.3748 19.6231 20.3165L19.6231 20.3165L19.6282 20.3112L25.1817 14.5495M17.0486 16.0406L25.1817 14.5495M23.7907 12.8975C24.0766 12.7269 24.4437 12.7659 24.6925 13.0147L25.1786 13.5008C25.4727 13.7949 25.4737 14.2543 25.1817 14.5495M23.7907 12.8975L25.1817 14.5495M19.2758 17.8411L19.1145 18.0024L18.9532 17.8411C18.9911 17.8032 19.0485 17.776 19.1145 17.776C19.1806 17.776 19.2379 17.8032 19.2758 17.8411Z" fill="#3FBD74" stroke="white" stroke-width="0.8"/>
<defs>
<clipPath id="clip0">
<rect width="19.4444" height="19.4444" fill="white"/>
</clipPath>
</defs>
</svg>
