<svg width="9" height="15" viewBox="0 0 9 15" fill="none" xmlns="http://www.w3.org/2000/svg">
<path d="M7.43108 4.11752L5.94382 10.9795C5.65801 12.2982 4.4406 13.1526 3.22335 12.8887C2.0061 12.6249 1.25167 11.3431 1.53748 10.0245L3.15406 2.56581C3.33253 1.74237 4.09426 1.20778 4.85436 1.37252C5.61445 1.53726 6.08649 2.33926 5.90802 3.1627L4.5501 9.42796C4.47897 9.75614 4.17292 9.97094 3.86998 9.90528C3.56704 9.83962 3.37738 9.51739 3.44851 9.18921L4.67711 3.52063L3.85092 3.34157L2.62232 9.01014C2.44385 9.83358 2.9159 10.6356 3.67599 10.8003C4.43608 10.9651 5.19782 10.4305 5.37629 9.60703L6.73421 3.34176C7.02002 2.02308 6.2656 0.74131 5.04835 0.477485C3.83109 0.213659 2.61368 1.06805 2.32787 2.38674L0.711294 9.84539C0.318142 11.6593 1.35495 13.4209 3.02936 13.7838C4.70377 14.1467 6.37686 12.9725 6.77001 11.1585L8.25726 4.29659L7.43108 4.11752Z" fill="#8C9BA5"/>
</svg>
