<svg width="28" height="28" viewBox="0 0 28 28" fill="none" xmlns="http://www.w3.org/2000/svg">
<path d="M18.9219 8.25781H18.1016V13.1797H18.9219C19.3745 13.1797 19.7422 12.812 19.7422 12.3594V9.07812C19.7422 8.62546 19.3745 8.25781 18.9219 8.25781Z" fill="#5AA700"/>
<path d="M9.07812 11.5391H8.25781V13.1797H9.07812C9.53079 13.1797 9.89844 12.812 9.89844 12.3594C9.89844 11.9067 9.53079 11.5391 9.07812 11.5391Z" fill="#5AA700"/>
<path d="M9.07812 8.25781H8.25781V9.89844H9.07812C9.53079 9.89844 9.89844 9.53079 9.89844 9.07812C9.89844 8.62546 9.53079 8.25781 9.07812 8.25781Z" fill="#5AA700"/>
<path d="M24.6641 15.9803V5.45721L19.2615 0H8.73846L3.33594 5.45721V15.9803L8.73846 21.3828H19.2615L24.6641 15.9803ZM11.5391 12.3594C11.5391 13.7163 10.4351 14.8203 9.07812 14.8203H6.61719V6.61719H9.07812C10.4351 6.61719 11.5391 7.72119 11.5391 9.07812C11.5391 9.71066 11.2925 10.2823 10.899 10.7188C11.2925 11.1552 11.5391 11.7268 11.5391 12.3594ZM14.8203 14.8203H13.1797V6.61719H14.8203V14.8203ZM16.4609 14.8203V6.61719H18.9219C20.2788 6.61719 21.3828 7.72119 21.3828 9.07812V12.3594C21.3828 13.7163 20.2788 14.8203 18.9219 14.8203H16.4609Z" fill="#5AA700"/>
<path d="M12.3594 23.0234H15.6406V28H12.3594V23.0234Z" fill="#5AA700"/>
</svg>
