<svg width="10" height="12" viewBox="0 0 10 12" fill="none" xmlns="http://www.w3.org/2000/svg">
<path d="M9.73214 3.69318H0.267857C0.120536 3.69318 0 3.56854 0 3.41619V2.58523C0 1.97354 0.479911 1.47727 1.07143 1.47727H2.14286V0.276989C2.14286 0.124645 2.26339 0 2.41071 0H3.30357C3.45089 0 3.57143 0.124645 3.57143 0.276989V1.47727H6.42857V0.276989C6.42857 0.124645 6.54911 0 6.69643 0H7.58929C7.73661 0 7.85714 0.124645 7.85714 0.276989V1.47727H8.92857C9.52009 1.47727 10 1.97354 10 2.58523V3.41619C10 3.56854 9.87946 3.69318 9.73214 3.69318ZM0.267857 4.43182H9.73214C9.87946 4.43182 10 4.55646 10 4.70881V10.7102C10 11.3219 9.52009 11.8182 8.92857 11.8182H1.07143C0.479911 11.8182 0 11.3219 0 10.7102V4.70881C0 4.55646 0.120536 4.43182 0.267857 4.43182ZM2.85714 9.14062C2.85714 8.98828 2.73661 8.86364 2.58929 8.86364H1.69643C1.54911 8.86364 1.42857 8.98828 1.42857 9.14062V10.0639C1.42857 10.2163 1.54911 10.3409 1.69643 10.3409H2.58929C2.73661 10.3409 2.85714 10.2163 2.85714 10.0639V9.14062ZM2.85714 6.18608C2.85714 6.03374 2.73661 5.90909 2.58929 5.90909H1.69643C1.54911 5.90909 1.42857 6.03374 1.42857 6.18608V7.10937C1.42857 7.26172 1.54911 7.38636 1.69643 7.38636H2.58929C2.73661 7.38636 2.85714 7.26172 2.85714 7.10937V6.18608ZM5.71429 9.14062C5.71429 8.98828 5.59375 8.86364 5.44643 8.86364H4.55357C4.40625 8.86364 4.28571 8.98828 4.28571 9.14062V10.0639C4.28571 10.2163 4.40625 10.3409 4.55357 10.3409H5.44643C5.59375 10.3409 5.71429 10.2163 5.71429 10.0639V9.14062ZM5.71429 6.18608C5.71429 6.03374 5.59375 5.90909 5.44643 5.90909H4.55357C4.40625 5.90909 4.28571 6.03374 4.28571 6.18608V7.10937C4.28571 7.26172 4.40625 7.38636 4.55357 7.38636H5.44643C5.59375 7.38636 5.71429 7.26172 5.71429 7.10937V6.18608ZM8.57143 9.14062C8.57143 8.98828 8.45089 8.86364 8.30357 8.86364H7.41071C7.26339 8.86364 7.14286 8.98828 7.14286 9.14062V10.0639C7.14286 10.2163 7.26339 10.3409 7.41071 10.3409H8.30357C8.45089 10.3409 8.57143 10.2163 8.57143 10.0639V9.14062ZM8.57143 6.18608C8.57143 6.03374 8.45089 5.90909 8.30357 5.90909H7.41071C7.26339 5.90909 7.14286 6.03374 7.14286 6.18608V7.10937C7.14286 7.26172 7.26339 7.38636 7.41071 7.38636H8.30357C8.45089 7.38636 8.57143 7.26172 8.57143 7.10937V6.18608Z" fill="#5A6872"/>
</svg>
