<svg width="24" height="17" viewBox="0 0 24 17" fill="none" xmlns="http://www.w3.org/2000/svg">
<path d="M20.5641 16.3816C21.0129 16.3816 21.3767 16.0177 21.3767 15.569C21.3767 15.1202 21.0129 14.7563 20.5641 14.7563C20.1153 14.7563 19.7515 15.1202 19.7515 15.569C19.7515 16.0177 20.1153 16.3816 20.5641 16.3816Z" fill="white"/>
<path d="M17.4107 16.383C17.8595 16.383 18.2234 16.0192 18.2234 15.5704C18.2234 15.1216 17.8595 14.7578 17.4107 14.7578C16.962 14.7578 16.5981 15.1216 16.5981 15.5704C16.5981 16.0192 16.962 16.383 17.4107 16.383Z" fill="white"/>
<path d="M6.21348 16.3845C6.66227 16.3845 7.02609 16.0207 7.02609 15.5719C7.02609 15.1231 6.66227 14.7593 6.21348 14.7593C5.76469 14.7593 5.40088 15.1231 5.40088 15.5719C5.40088 16.0207 5.76469 16.3845 6.21348 16.3845Z" fill="white"/>
<path d="M3.06016 16.3825C3.50895 16.3825 3.87277 16.0187 3.87277 15.5699C3.87277 15.1211 3.50895 14.7573 3.06016 14.7573C2.61137 14.7573 2.24756 15.1211 2.24756 15.5699C2.24756 16.0187 2.61137 16.3825 3.06016 16.3825Z" fill="white"/>
<path d="M22.9566 13.5703H0.67271C0.301779 13.5703 0 13.8721 0 14.243V14.9246C0 15.2955 0.301779 15.5973 0.67271 15.5973H1.6064C1.67686 15.5973 1.73545 15.5429 1.74056 15.4726C1.79105 14.7851 2.37069 14.2465 3.06033 14.2465C3.74996 14.2465 4.3297 14.7851 4.38014 15.4726C4.3853 15.5429 4.44384 15.5973 4.51434 15.5973H4.7597C4.83016 15.5973 4.88875 15.5429 4.89386 15.4726C4.9443 14.7851 5.52404 14.2465 6.21372 14.2465C6.90331 14.2465 7.483 14.7851 7.53344 15.4726C7.5386 15.5429 7.59714 15.5973 7.66764 15.5973C9.74002 15.5973 13.8847 15.5973 15.957 15.5973C16.0275 15.5973 16.086 15.5429 16.0912 15.4726C16.1416 14.7851 16.7213 14.2465 17.4109 14.2465C18.1005 14.2465 18.6803 14.7851 18.7308 15.4726C18.7359 15.5429 18.7945 15.5973 18.8649 15.5973H19.1103C19.1808 15.5973 19.2393 15.5429 19.2445 15.4726C19.2949 14.7851 19.8747 14.2465 20.5643 14.2465C21.2539 14.2465 21.8336 14.7851 21.8841 15.4726C21.8892 15.5429 21.9478 15.5973 22.0182 15.5973H22.9564C23.3273 15.5973 23.6291 15.2955 23.6291 14.9246V14.243C23.6292 13.8721 23.3275 13.5703 22.9566 13.5703Z" fill="white"/>
<path d="M22.2256 0H1.39924C0.626464 0 0 0.626416 0 1.39919V10.7092C0 11.4819 0.626464 12.1084 1.39924 12.1084H22.2256C22.9983 12.1084 23.6249 11.482 23.6249 10.7092V1.39919C23.6248 0.626416 22.9983 0 22.2256 0ZM4.41809 9.27482C4.41809 9.84481 3.93576 10.3069 3.34084 10.3069C2.74586 10.3069 2.26358 9.84481 2.26358 9.27482V2.83358C2.26358 2.26359 2.74586 1.80151 3.34084 1.80151C3.93576 1.80151 4.41809 2.26359 4.41809 2.83358V9.27482ZM8.65385 9.27482C8.65385 9.84481 8.17162 10.3069 7.57664 10.3069C6.98167 10.3069 6.49934 9.84481 6.49934 9.27482V2.83358C6.49934 2.26359 6.98167 1.80151 7.57664 1.80151C8.17162 1.80151 8.65385 2.26359 8.65385 2.83358V9.27482ZM12.8897 9.27482C12.8897 9.84481 12.4073 10.3069 11.8124 10.3069C11.2175 10.3069 10.7352 9.84481 10.7352 9.27482V2.83358C10.7352 2.26359 11.2175 1.80151 11.8124 1.80151C12.4073 1.80151 12.8897 2.26359 12.8897 2.83358V9.27482ZM17.1255 9.27482C17.1255 9.84481 16.6431 10.3069 16.0483 10.3069C15.4532 10.3069 14.971 9.84481 14.971 9.27482V2.83358C14.971 2.26359 15.4532 1.80151 16.0483 1.80151C16.6431 1.80151 17.1255 2.26359 17.1255 2.83358V9.27482ZM21.3612 9.27482C21.3612 9.84481 20.879 10.3069 20.2841 10.3069C19.689 10.3069 19.2067 9.84481 19.2067 9.27482V2.83358C19.2067 2.26359 19.689 1.80151 20.2841 1.80151C20.879 1.80151 21.3612 2.26359 21.3612 2.83358V9.27482Z" fill="white"/>
</svg>
