<svg width="22" height="17" viewBox="0 0 22 17" fill="none" xmlns="http://www.w3.org/2000/svg">
<path d="M21.3692 0H19.2102H17.9032H17.0512H15.7442H14.8922H13.5852H12.7332H11.4262H10.5742H9.26719H8.41515H7.10814H6.25623H4.94923H4.09723H2.79022H0.631265V11.769H0V14.9356H1.26554C1.24831 15.0309 1.23881 15.129 1.23881 15.2292C1.23881 16.1235 1.95473 16.8511 2.8347 16.8511C3.71467 16.8511 4.43059 16.1235 4.43059 15.2292C4.43059 15.1289 4.42113 15.0309 4.40386 14.9356H4.89302C4.87579 15.0309 4.8663 15.129 4.8663 15.2292C4.8663 16.1235 5.58221 16.8511 6.46218 16.8511C7.34216 16.8511 8.05807 16.1235 8.05807 15.2292C8.05807 15.1289 8.04862 15.0309 8.03134 14.9356H13.9686C13.9513 15.0309 13.9418 15.129 13.9418 15.2292C13.9418 16.1235 14.6578 16.8511 15.5378 16.8511C16.4177 16.8511 17.1337 16.1235 17.1337 15.2292C17.1337 15.1289 17.1242 15.0309 17.1069 14.9356H17.5961C17.5789 15.0309 17.5694 15.129 17.5694 15.2292C17.5694 16.1235 18.2854 16.8511 19.1653 16.8511C20.0453 16.8511 20.7612 16.1235 20.7612 15.2292C20.7612 15.1289 20.7518 15.0309 20.7345 14.9356H22V11.769H21.3692V0ZM19.2102 1.32829H20.0622V11.7691H19.2102V1.32829ZM17.0512 1.32829H17.9032V11.7691H17.0512V1.32829ZM14.8922 1.32829H15.7442V11.7691H14.8922V1.32829ZM12.7332 1.32829H13.5852V11.7691H12.7332V1.32829ZM10.5742 1.32829H11.4262V11.7691H10.5742V1.32829ZM8.41519 1.32829H9.26719V11.7691H8.41519V1.32829ZM6.25623 1.32829H7.10819V11.7691H6.25623V1.32829ZM4.09723 1.32829H4.94923V11.7691H4.09723V1.32829ZM1.93827 1.32829H2.79027V11.7691H1.93827V1.32829ZM2.83478 15.5228C2.67545 15.5228 2.5459 15.3911 2.5459 15.2292C2.5459 15.0673 2.6755 14.9356 2.83478 14.9356C2.99407 14.9356 3.12367 15.0673 3.12367 15.2292C3.12367 15.3911 2.99407 15.5228 2.83478 15.5228ZM6.4624 15.5228C6.30311 15.5228 6.17351 15.3911 6.17351 15.2292C6.17351 15.0673 6.30311 14.9356 6.4624 14.9356C6.62169 14.9356 6.75128 15.0673 6.75128 15.2292C6.75128 15.3911 6.62169 15.5228 6.4624 15.5228ZM15.538 15.5228C15.3787 15.5228 15.2491 15.3911 15.2491 15.2292C15.2491 15.0673 15.3787 14.9356 15.538 14.9356C15.6973 14.9356 15.8269 15.0673 15.8269 15.2292C15.8269 15.3911 15.6973 15.5228 15.538 15.5228ZM19.1656 15.5228C19.0063 15.5228 18.8767 15.3911 18.8767 15.2292C18.8767 15.0673 19.0063 14.9356 19.1656 14.9356C19.325 14.9356 19.4545 15.0673 19.4545 15.2292C19.4545 15.3911 19.3249 15.5228 19.1656 15.5228ZM20.6934 13.6074H1.307V13.0973H2.79018H4.09719H4.94918H6.25619H7.10814H8.41515H9.26715H10.5742H11.4261H12.7331H13.5851H14.8921H15.7441H17.0511H17.9031H19.2101H20.6933V13.6074H20.6934Z" fill="white"/>
</svg>
