<svg width="20" height="20" viewBox="0 0 20 20" fill="none" xmlns="http://www.w3.org/2000/svg">
<circle cx="10" cy="10" r="10" fill="#EFC100"/>
<path d="M4.42106 11.6438V6.51595C4.42106 6.231 4.65104 6 4.93476 6H10.0377C10.3214 6 10.5514 6.231 10.5514 6.51595V11.6438C10.5514 11.7388 10.4747 11.8158 10.3802 11.8158H4.59229C4.49771 11.8158 4.42106 11.7388 4.42106 11.6438ZM8.54184 13.4005C8.54184 13.9915 8.0648 14.4706 7.47639 14.4706C6.88798 14.4706 6.41094 13.9915 6.41094 13.4005C6.41094 12.8095 6.88798 12.3304 7.47639 12.3304C8.0648 12.3304 8.54184 12.8095 8.54184 13.4005ZM8.0091 13.4005C8.0091 13.105 7.77059 12.8654 7.47637 12.8654C7.18216 12.8654 6.94363 13.105 6.94363 13.4005C6.94363 13.696 7.18216 13.9356 7.47637 13.9356C7.77059 13.9356 8.0091 13.696 8.0091 13.4005ZM6.55873 12.3304H4.17124C4.07667 12.3304 4 12.4074 4 12.5024V13.0241C4 13.1191 4.07667 13.1961 4.17124 13.1961H6.08492C6.13488 12.8518 6.30792 12.5476 6.55873 12.3304ZM14.1164 13.4005C14.1164 13.9915 13.6394 14.4706 13.051 14.4706C12.4626 14.4706 11.9855 13.9915 11.9855 13.4005C11.9855 12.8095 12.4626 12.3304 13.051 12.3304C13.6394 12.3304 14.1164 12.8095 14.1164 13.4005ZM13.5837 13.4005C13.5837 13.105 13.3452 12.8654 13.051 12.8654C12.7567 12.8654 12.5183 13.105 12.5183 13.4005C12.5183 13.696 12.7568 13.9356 13.051 13.9356C13.3452 13.9356 13.5837 13.696 13.5837 13.4005ZM16 12.5024V13.0241C16 13.1191 15.9233 13.1961 15.8288 13.1961H14.4424C14.3433 12.5131 13.758 11.9864 13.051 11.9864C12.3439 11.9864 11.7586 12.5131 11.6595 13.1961H8.86786C8.81788 12.8518 8.64486 12.5476 8.39406 12.3304H11.041V7.41113C11.041 7.22117 11.1943 7.06717 11.3835 7.06717H13C13.4552 7.06717 13.8806 7.29425 14.1353 7.67313L15.1775 9.22342C15.3304 9.45082 15.412 9.71892 15.412 9.99331V12.3304H15.8288C15.9233 12.3304 16 12.4074 16 12.5024ZM14.2629 9.26312L13.4296 8.07378C13.3975 8.02801 13.3452 8.00077 13.2895 8.00077H11.9896C11.8951 8.00077 11.8184 8.07777 11.8184 8.17275V9.3621C11.8184 9.4571 11.895 9.53408 11.9896 9.53408H14.1229C14.2616 9.53408 14.3427 9.37707 14.2629 9.26312Z" fill="white"/>
</svg>
