<svg width="12" height="15" viewBox="0 0 12 15" fill="none" xmlns="http://www.w3.org/2000/svg">
<path d="M0.856771 12.8936C0.856771 13.9982 1.7522 14.8936 2.85677 14.8936H8.85677C9.96134 14.8936 10.8568 13.9982 10.8568 12.8936V5.30969C10.8568 4.20512 9.96134 3.30969 8.85677 3.30969H2.85677C1.7522 3.30969 0.856771 4.20512 0.856771 5.30969V12.8936ZM11.6901 1.65485C11.6901 1.19787 11.3197 0.827423 10.8627 0.827423H9.36061C8.98451 0.827423 8.62366 0.678708 8.35677 0.413712C8.08988 0.148715 7.72904 0 7.35293 0H4.36061C3.98451 0 3.62366 0.148715 3.35677 0.413712C3.08988 0.678708 2.72904 0.827423 2.35293 0.827423H0.850861C0.393888 0.827423 0.0234375 1.19787 0.0234375 1.65485C0.0234375 2.11182 0.393888 2.48227 0.850861 2.48227H10.8627C11.3197 2.48227 11.6901 2.11182 11.6901 1.65485Z" fill="#7B868E"/>
</svg>
