<svg width="20" height="23" viewBox="0 0 20 23" fill="none" xmlns="http://www.w3.org/2000/svg">
<path d="M13.25 0.0833435H6.75V2.25001H13.25V0.0833435ZM8.91667 14.1667H11.0833V7.66668H8.91667V14.1667ZM17.6158 7.00584L19.1542 5.46751C18.6883 4.91501 18.1792 4.39501 17.6267 3.94001L16.0883 5.47834C14.4092 4.13501 12.2967 3.33334 10 3.33334C4.61583 3.33334 0.25 7.69918 0.25 13.0833C0.25 18.4675 4.605 22.8333 10 22.8333C15.395 22.8333 19.75 18.4675 19.75 13.0833C19.75 10.7867 18.9483 8.67418 17.6158 7.00584ZM10 20.6667C5.8075 20.6667 2.41667 17.2758 2.41667 13.0833C2.41667 8.89084 5.8075 5.50001 10 5.50001C14.1925 5.50001 17.5833 8.89084 17.5833 13.0833C17.5833 17.2758 14.1925 20.6667 10 20.6667Z" fill="#8C9BA5"/>
</svg>
