<svg width="13" height="13" viewBox="0 0 13 13" fill="none" xmlns="http://www.w3.org/2000/svg">
<path d="M8.70013 3.09805C8.48183 3.09805 8.30489 2.92111 8.30489 2.70281V0H5.00679C4.78849 0 4.61145 0.176941 4.61145 0.39534V2.22128H5.68777C5.7941 2.22128 5.89467 2.26433 5.96767 2.33723L9.06572 5.43538C9.13525 5.50481 9.18166 5.60518 9.18166 5.71468V10.6111H11.0076C11.226 10.6111 11.4029 10.4341 11.4029 10.2158V3.09805H8.70013Z" fill="#5D5D5E"/>
<path d="M9.09546 0.55896V2.30744H10.8439L9.09546 0.55896Z" fill="#5D5D5E"/>
<path d="M5.29276 5.71465V3.01184H1.99495C1.77655 3.01184 1.59961 3.18888 1.59961 3.40718V12.6046C1.59961 12.823 1.77655 13 1.99495 13H7.99577C8.21407 13 8.39111 12.823 8.39111 12.6046V6.10999H5.688C5.4698 6.10999 5.29276 5.93315 5.29276 5.71465Z" fill="#5D5D5E"/>
<path d="M6.08337 5.31935H7.83186L6.08337 3.57117V5.31935Z" fill="#5D5D5E"/>
</svg>
