<svg width="21" height="21" viewBox="0 0 21 21" fill="none" xmlns="http://www.w3.org/2000/svg">
<path d="M13.5 0.875H8.25V2.625H13.5V0.875ZM17.0263 6.46625L18.2688 5.22375C17.8925 4.7775 17.4813 4.3575 17.035 3.99L15.7925 5.2325C14.4363 4.1475 12.73 3.5 10.875 3.5C6.52625 3.5 3 7.02625 3 11.375C3 15.7238 6.5175 19.25 10.875 19.25C15.2325 19.25 18.75 15.7238 18.75 11.375C18.75 9.52 18.1025 7.81375 17.0263 6.46625ZM10.875 17.5C7.48875 17.5 4.75 14.7613 4.75 11.375C4.75 7.98875 7.48875 5.25 10.875 5.25C14.2612 5.25 17 7.98875 17 11.375C17 14.7613 14.2612 17.5 10.875 17.5Z" fill="#0086DA"/>
<path d="M11.5801 10.6611H14.3555V11.8574H11.5801V15.002H10.3086V11.8574H7.5332V10.6611H10.3086V7.75586H11.5801V10.6611Z" fill="#0086DA"/>
</svg>
