<svg width="16" height="20" viewBox="0 0 16 20" fill="none" xmlns="http://www.w3.org/2000/svg">
<path d="M2.25391 0.5H10.2376L15.1344 5.63666V17.7513C15.1344 18.7073 14.3396 19.5 13.3807 19.5H2.25391C1.29501 19.5 0.5 18.7072 0.5 17.7513V2.24866C0.5 1.29279 1.29501 0.5 2.25391 0.5Z" fill="white" stroke="#8C9BA5"/>
<path d="M10.9771 3.71582V1.26621L14.4737 4.94153H12.2029C11.5248 4.94153 10.9771 4.39386 10.9771 3.71582Z" fill="white" stroke="#8C9BA5"/>
<path d="M5.21832 10.528L7.30963 8.2793V13.8223C7.30963 14.1016 7.53802 14.33 7.81719 14.33C8.09637 14.33 8.32489 14.1016 8.32489 13.8223V8.27905L10.4162 10.528C10.5176 10.6344 10.6496 10.6903 10.7867 10.6903C10.9086 10.6903 11.0353 10.6447 11.132 10.5532C11.3349 10.3604 11.3502 10.0405 11.1573 9.83752L8.1878 6.64453C8.09136 6.54309 7.95941 6.48218 7.81732 6.48218C7.6751 6.48218 7.54315 6.54309 7.44671 6.64453L4.47723 9.83752C4.28435 10.0405 4.29961 10.3655 4.50249 10.5532C4.70562 10.7461 5.02532 10.7308 5.21832 10.528Z" fill="#8C9BA5"/>
<path d="M11.9949 15.9899H3.63953C3.36047 15.9899 3.13208 16.2183 3.13208 16.4974C3.13208 16.7767 3.36047 17.0051 3.63953 17.0051H12C12.2792 17.0051 12.5076 16.7767 12.5076 16.4974C12.5076 16.2183 12.2792 15.9899 11.9949 15.9899Z" fill="#8C9BA5"/>
</svg>
