<svg width="14" height="14" viewBox="0 0 14 14" fill="none" xmlns="http://www.w3.org/2000/svg">
<path fill-rule="evenodd" clip-rule="evenodd" d="M0.318417 0C0.259649 1.07038e-05 0.202029 0.0162462 0.151937 0.0469216C0.101844 0.0775971 0.0612313 0.121511 0.0345939 0.1738C0.00795644 0.22609 -0.00366691 0.284717 0.00101042 0.343192C0.00568775 0.401667 0.0264833 0.457708 0.0610953 0.505116L5.24506 7.60226V11.3939C5.24506 11.4416 5.25583 11.4888 5.27656 11.5318C5.29729 11.5748 5.32746 11.6126 5.36482 11.6423L8.23632 13.9306C8.28318 13.9679 8.33964 13.9913 8.39921 13.998C8.45878 14.0047 8.51903 13.9945 8.57305 13.9685C8.62706 13.9426 8.67264 13.9019 8.70455 13.8513C8.73645 13.8006 8.75338 13.742 8.7534 13.6822V7.60226L13.9389 0.505116C13.9735 0.457712 13.9943 0.401673 13.999 0.343202C14.0037 0.284731 13.992 0.226107 13.9654 0.17382C13.9388 0.121532 13.8982 0.0776201 13.8481 0.046941C13.798 0.016262 13.7404 1.97845e-05 13.6816 0H0.318417Z" fill="#0086DA"/>
</svg>
