<svg width="12" height="8" viewBox="0 0 12 8" fill="none" xmlns="http://www.w3.org/2000/svg">
<path d="M8.18182 3.27273C9.08727 3.27273 9.81273 2.54182 9.81273 1.63636C9.81273 0.730909 9.08727 0 8.18182 0C7.27636 0 6.54545 0.730909 6.54545 1.63636C6.54545 2.54182 7.27636 3.27273 8.18182 3.27273ZM3.81818 3.27273C4.72364 3.27273 5.44909 2.54182 5.44909 1.63636C5.44909 0.730909 4.72364 0 3.81818 0C2.91273 0 2.18182 0.730909 2.18182 1.63636C2.18182 2.54182 2.91273 3.27273 3.81818 3.27273ZM3.81818 4.36364C2.54727 4.36364 0 5.00182 0 6.27273V7.63636H7.63636V6.27273C7.63636 5.00182 5.08909 4.36364 3.81818 4.36364ZM8.18182 4.36364C8.02364 4.36364 7.84364 4.37455 7.65273 4.39091C8.28545 4.84909 8.72727 5.46545 8.72727 6.27273V7.63636H12V6.27273C12 5.00182 9.45273 4.36364 8.18182 4.36364Z" fill="#0086DA"/>
</svg>
