<svg width="18" height="18" viewBox="0 0 18 18" fill="none" xmlns="http://www.w3.org/2000/svg">
<path d="M0.00576541 6.5055L0.211415 5.20367C0.227961 5.07847 0.292183 4.96448 0.390698 4.88547C0.489213 4.80645 0.61442 4.7685 0.740228 4.77952L1.8052 4.8548C1.9243 4.55627 2.06929 4.26873 2.23853 3.99548L1.55732 3.18757C1.47695 3.09268 1.43533 2.97096 1.44077 2.84672C1.44622 2.72248 1.49833 2.60487 1.5867 2.51737L2.51946 1.58461C2.60759 1.49739 2.72502 1.44608 2.84889 1.44065C2.97277 1.43522 3.09423 1.47606 3.18966 1.55523L4.00308 2.24011C4.27633 2.07088 4.56386 1.92588 4.8624 1.80678L4.77977 0.739976C4.77045 0.616062 4.80817 0.493188 4.88543 0.395856C4.96268 0.298524 5.07378 0.233887 5.19658 0.214836L6.50576 0.00551375C6.6268 -0.012758 6.75031 0.0147434 6.85217 0.0826477C6.95402 0.150552 7.02691 0.253983 7.0566 0.372745L7.31366 1.41201C7.63376 1.43333 7.95139 1.48248 8.26296 1.5589L8.82666 0.653677C8.89106 0.546856 8.99362 0.468478 9.1136 0.434391C9.23359 0.400305 9.36204 0.413054 9.47298 0.470061L10.6555 1.0815C10.7668 1.13708 10.8529 1.23275 10.8965 1.34926C10.9401 1.46577 10.938 1.59447 10.8905 1.70947L10.4902 2.69915C10.6206 2.80749 10.7381 2.91582 10.8464 3.02232C10.9548 3.12881 11.0613 3.24816 11.1696 3.37853L12.1593 2.97825C12.2743 2.93079 12.403 2.92865 12.5195 2.97226C12.636 3.01587 12.7317 3.10198 12.7872 3.21328L13.3858 4.38842C13.4424 4.49944 13.4549 4.62775 13.4209 4.74761C13.3868 4.86747 13.3087 4.97004 13.2022 5.03474L12.308 5.59477H11.7939C11.4139 5.59275 11.0472 5.73486 10.7678 5.99245C10.4884 6.25004 10.317 6.60397 10.2882 6.9829L10.2772 7.1096L10.0844 7.19039L9.98711 7.1096C9.71533 6.88027 9.37138 6.75414 9.01578 6.75339H8.9662C8.93209 6.3667 8.78846 5.99776 8.55214 5.6898C8.31582 5.38184 7.99661 5.14762 7.63193 5.01461C7.26725 4.8816 6.8722 4.8553 6.49311 4.9388C6.11401 5.02229 5.76657 5.21213 5.49152 5.48605C5.21646 5.75996 5.02519 6.10662 4.94012 6.48536C4.85506 6.86411 4.87972 7.25926 5.01122 7.62449C5.14272 7.98972 5.37561 8.3099 5.68259 8.54749C5.98957 8.78508 6.35792 8.93024 6.74446 8.96595C6.73264 9.33776 6.85888 9.70077 7.09883 9.98502L7.18146 10.0842C7.15331 10.1478 7.12638 10.2121 7.10067 10.277L6.98316 10.288C6.60538 10.3181 6.25301 10.4901 5.99686 10.7694C5.74071 11.0488 5.59977 11.4147 5.60237 11.7936V12.3078L5.0405 13.2093C4.9761 13.3161 4.87354 13.3945 4.75355 13.4286C4.63357 13.4627 4.50512 13.4499 4.39418 13.3929L3.21904 12.7943C3.10774 12.7388 3.02163 12.6431 2.97802 12.5266C2.93441 12.4101 2.93655 12.2814 2.98401 12.1664L3.38429 11.1785C3.25209 11.0684 3.13457 10.9619 3.02808 10.8554C2.92158 10.7489 2.81325 10.6295 2.70491 10.4991L1.71706 10.8994C1.6001 10.9484 1.46874 10.9504 1.35038 10.9049C1.23201 10.8594 1.13578 10.7699 1.08175 10.6552L0.483166 9.48191C0.426159 9.37097 0.41341 9.24252 0.447496 9.12253C0.481583 9.00255 0.559961 8.89999 0.666781 8.83559L1.56833 8.26821C1.49192 7.95664 1.44277 7.63901 1.42144 7.31892L0.382177 7.06186C0.260843 7.03368 0.154637 6.96069 0.0848352 6.85752C0.0150336 6.75435 -0.0132088 6.62862 0.00576541 6.5055ZM17.5888 11.353C17.7005 11.3604 17.8052 11.4101 17.8816 11.492C17.958 11.5738 18.0003 11.6817 18.0001 11.7936V12.8678C18.0009 12.9792 17.9595 13.0867 17.8842 13.1688C17.8089 13.2509 17.7053 13.3015 17.5943 13.3103L16.7588 13.3819C16.6483 13.8536 16.4623 14.3044 16.208 14.7168L16.7478 15.3594C16.8194 15.4451 16.8558 15.5547 16.8496 15.6662C16.8435 15.7776 16.7953 15.8826 16.7148 15.9599L15.9601 16.7145C15.9187 16.7562 15.8694 16.7893 15.8151 16.8118C15.7621 16.8337 15.7053 16.8449 15.648 16.8449C15.5431 16.8449 15.4417 16.8078 15.3615 16.7402L14.7189 16.2004C14.3064 16.4545 13.8557 16.6405 13.384 16.7513L13.3124 17.5867C13.3048 17.7008 13.2534 17.8076 13.1688 17.8846C13.0843 17.9616 12.9732 18.0029 12.8589 17.9998H11.7939C11.6825 18.0007 11.5749 17.9592 11.4928 17.884C11.4107 17.8087 11.3602 17.7051 11.3514 17.594L11.2798 16.7586C10.808 16.6481 10.3573 16.4621 9.94487 16.2078L9.30222 16.7476C9.21656 16.8191 9.10694 16.8555 8.99549 16.8494C8.88405 16.8432 8.77909 16.795 8.7018 16.7145L7.94163 15.9544C7.86307 15.876 7.81682 15.7709 7.81206 15.6601C7.8073 15.5492 7.84437 15.4406 7.91592 15.3558L8.45208 14.7168C8.19789 14.3043 8.01189 13.8536 7.90123 13.3819L7.06578 13.3103C6.95474 13.3015 6.85115 13.2509 6.77587 13.1688C6.70058 13.0867 6.65918 12.9792 6.65999 12.8678V11.7936C6.65918 11.6822 6.70058 11.5747 6.77587 11.4926C6.85115 11.4105 6.95474 11.3599 7.06578 11.3511L7.90123 11.2795C8.01177 10.8078 8.19778 10.357 8.45208 9.94462L7.91225 9.30197C7.8407 9.21714 7.80363 9.10853 7.80839 8.99766C7.81315 8.88679 7.8594 8.78176 7.93796 8.70338L8.69812 7.94321C8.77629 7.86427 8.88138 7.81775 8.99238 7.81299C9.10337 7.80822 9.21207 7.84555 9.29671 7.91751L9.94487 8.45183C10.3573 8.19759 10.8081 8.01158 11.2798 7.90098L11.3514 7.06553C11.3602 6.95481 11.4104 6.85148 11.4922 6.77624C11.5739 6.701 11.681 6.65939 11.792 6.65974H12.868C12.9794 6.65893 13.087 6.70033 13.1691 6.77562C13.2512 6.8509 13.3017 6.95449 13.3105 7.06553L13.3822 7.90098C13.8539 8.01145 14.3047 8.19747 14.717 8.45183L15.3597 7.912C15.4443 7.84004 15.553 7.80271 15.664 7.80748C15.775 7.81224 15.8801 7.85876 15.9583 7.93771L16.7148 8.70155C16.7937 8.77971 16.8402 8.88481 16.845 8.9958C16.8498 9.10679 16.8124 9.21549 16.7405 9.30013L16.2007 9.94279C16.4549 10.3552 16.6409 10.806 16.7515 11.2777L17.5888 11.353ZM14.5316 12.3316C14.532 11.8217 14.3556 11.3275 14.0324 10.9331C13.7092 10.5387 13.2592 10.2686 12.7592 10.1689C12.2591 10.0691 11.74 10.1459 11.2902 10.3861C10.8404 10.6263 10.4879 11.0151 10.2927 11.4862C10.0975 11.9572 10.0717 12.4814 10.2197 12.9693C10.3677 13.4573 10.6804 13.8788 11.1044 14.162C11.5285 14.4452 12.0376 14.5726 12.545 14.5224C13.0524 14.4722 13.5267 14.2476 13.8871 13.8868C14.2993 13.4742 14.5311 12.9149 14.5316 12.3316ZM12.33 11.2061C12.1056 11.2061 11.8862 11.2726 11.6996 11.3973C11.513 11.522 11.3676 11.6992 11.2817 11.9066C11.1958 12.1139 11.1733 12.3421 11.2171 12.5622C11.2609 12.7823 11.369 12.9845 11.5277 13.1432C11.6864 13.3019 11.8885 13.41 12.1087 13.4537C12.3288 13.4975 12.5569 13.4751 12.7643 13.3892C12.9716 13.3033 13.1489 13.1578 13.2735 12.9712C13.3982 12.7846 13.4648 12.5652 13.4648 12.3408C13.4655 12.1916 13.4367 12.0437 13.3799 11.9057C13.3231 11.7677 13.2396 11.6423 13.1341 11.5368C13.0285 11.4313 12.9032 11.3477 12.7652 11.291C12.6271 11.2342 12.4793 11.2053 12.33 11.2061Z" fill="#5A6872"/>
</svg>
