<svg width="24" height="24" viewBox="0 0 24 24" fill="none" xmlns="http://www.w3.org/2000/svg">
<path d="M8.89264 8.25H11.4695C11.5565 8.25 11.6399 8.21543 11.7015 8.15389C11.763 8.09236 11.7976 8.0089 11.7976 7.92188C11.7976 7.83485 11.763 7.75139 11.7015 7.68986C11.6399 7.62832 11.5565 7.59375 11.4695 7.59375H8.89264C8.80562 7.59375 8.72215 7.62832 8.66062 7.68986C8.59908 7.75139 8.56451 7.83485 8.56451 7.92188C8.56451 8.0089 8.59908 8.09236 8.66062 8.15389C8.72215 8.21543 8.80562 8.25 8.89264 8.25V8.25Z" fill="#3D4042"/>
<path d="M6.92389 10.3125H5.33014C5.24312 10.3125 5.15966 10.3471 5.09812 10.4086C5.03658 10.4701 5.00201 10.5536 5.00201 10.6406V12.2344C5.00201 12.3214 5.03658 12.4049 5.09812 12.4664C5.15966 12.5279 5.24312 12.5625 5.33014 12.5625H6.92389C7.01091 12.5625 7.09437 12.5279 7.15591 12.4664C7.21744 12.4049 7.25201 12.3214 7.25201 12.2344V10.6406C7.25201 10.5536 7.21744 10.4701 7.15591 10.4086C7.09437 10.3471 7.01091 10.3125 6.92389 10.3125V10.3125ZM6.59576 11.9062H5.65826V10.9688H6.59576V11.9062Z" fill="#3D4042"/>
<path d="M8.89264 11.766H13.7677C13.8547 11.766 13.9381 11.7314 13.9997 11.6699C14.0612 11.6084 14.0958 11.5249 14.0958 11.4379C14.0958 11.3508 14.0612 11.2674 13.9997 11.2058C13.9381 11.1443 13.8547 11.1097 13.7677 11.1097H8.89264C8.80562 11.1097 8.72216 11.1443 8.66062 11.2058C8.59908 11.2674 8.56451 11.3508 8.56451 11.4379C8.56451 11.5249 8.59908 11.6084 8.66062 11.6699C8.72216 11.7314 8.80562 11.766 8.89264 11.766V11.766Z" fill="#3D4042"/>
<path d="M6.92389 13.8289H5.33014C5.24312 13.8289 5.15966 13.8634 5.09812 13.925C5.03658 13.9865 5.00201 14.07 5.00201 14.157V15.75C5.00201 15.837 5.03658 15.9205 5.09812 15.982C5.15966 16.0435 5.24312 16.0781 5.33014 16.0781H6.92389C7.01091 16.0781 7.09437 16.0435 7.15591 15.982C7.21744 15.9205 7.25201 15.837 7.25201 15.75V14.1562C7.25182 14.0693 7.21716 13.9861 7.15564 13.9247C7.09413 13.8633 7.01078 13.8289 6.92389 13.8289V13.8289ZM6.59576 15.4226H5.65826V14.4851H6.59576V15.4226Z" fill="#3D4042"/>
<path d="M8.89264 15.2812H11.4695C11.5565 15.2812 11.6399 15.2467 11.7015 15.1851C11.763 15.1236 11.7976 15.0401 11.7976 14.9531C11.7976 14.8661 11.763 14.7826 11.7015 14.7211C11.6399 14.6596 11.5565 14.625 11.4695 14.625H8.89264C8.80562 14.625 8.72215 14.6596 8.66062 14.7211C8.59908 14.7826 8.56451 14.8661 8.56451 14.9531C8.56451 15.0401 8.59908 15.1236 8.66062 15.1851C8.72215 15.2467 8.80562 15.2812 8.89264 15.2812Z" fill="#3D4042"/>
<path d="M6.92389 17.345H5.33014C5.24312 17.345 5.15966 17.3795 5.09812 17.4411C5.03658 17.5026 5.00201 17.5861 5.00201 17.6731V19.2668C5.00201 19.3539 5.03658 19.4373 5.09812 19.4989C5.15966 19.5604 5.24312 19.595 5.33014 19.595H6.92389C7.01091 19.595 7.09437 19.5604 7.15591 19.4989C7.21744 19.4373 7.25201 19.3539 7.25201 19.2668V17.6731C7.25201 17.5861 7.21744 17.5026 7.15591 17.4411C7.09437 17.3795 7.01091 17.345 6.92389 17.345V17.345ZM6.59576 18.9387H5.65826V18.0012H6.59576V18.9387Z" fill="#3D4042"/>
<path d="M22.9002 6.63799C22.7832 6.34036 22.5686 6.07991 22.2834 5.88957C21.9982 5.69923 21.6552 5.58753 21.2979 5.56861C20.9405 5.54969 20.5848 5.62439 20.2757 5.78326C19.9666 5.94213 19.718 6.17805 19.5613 6.46119L18.7785 7.87653L17.916 9.43616V5.0137C17.9159 4.92894 17.8776 4.84767 17.8094 4.78776L14.7463 2.0937C14.6782 2.03375 14.5858 2.00004 14.4895 2H3.36337C3.267 2 3.17458 2.03368 3.10643 2.09362C3.03828 2.15356 3 2.23486 3 2.31963V21.6804C3 21.7651 3.03828 21.8464 3.10643 21.9064C3.17458 21.9663 3.267 22 3.36337 22H17.5522C17.6485 22 17.741 21.9663 17.8091 21.9064C17.8773 21.8464 17.9155 21.7651 17.9155 21.6804V16.7162L22.8159 7.85461C22.9208 7.66681 22.9822 7.46258 22.9967 7.25373C23.0111 7.04489 22.9784 6.8356 22.9002 6.63799V6.63799ZM17.2706 16.421L15.3732 17.6732L15.3219 15.587L19.2725 8.44365L21.2224 9.27854L17.2706 16.421ZM14.8528 3.09132L16.6751 4.69406H14.8528V3.09132ZM3.72675 21.3607V2.63927H14.1261V5.0137C14.1261 5.09847 14.1644 5.17977 14.2325 5.23971C14.3007 5.29966 14.3931 5.33333 14.4895 5.33333H17.1888V10.7503L14.63 15.3768C14.6048 15.4223 14.5922 15.4723 14.5933 15.5229L14.6537 17.9821H9.55795C9.46158 17.9821 9.36916 18.0158 9.30101 18.0757C9.23286 18.1357 9.19458 18.217 9.19458 18.3017C9.19458 18.3865 9.23286 18.4678 9.30101 18.5278C9.36916 18.5877 9.46158 18.6214 9.55795 18.6214H14.9566C14.9688 18.6208 14.9809 18.6197 14.993 18.6181C15.0038 18.6181 15.0137 18.6214 15.0252 18.6214C15.1038 18.6214 15.1804 18.5989 15.2432 18.5573L17.1888 17.2732V21.3607H3.72675ZM22.1635 7.57479L21.5395 8.70301L19.5904 7.86904L20.2133 6.74082C20.2756 6.62825 20.3624 6.52756 20.4689 6.4445C20.5754 6.36145 20.6994 6.29766 20.834 6.25678C20.9685 6.2159 21.1108 6.19872 21.2529 6.20623C21.3949 6.21374 21.5339 6.24579 21.6619 6.30055C21.7899 6.35531 21.9044 6.4317 21.9988 6.52538C22.0932 6.61905 22.1657 6.72816 22.2122 6.84649C22.2587 6.96481 22.2782 7.09003 22.2697 7.21499C22.2611 7.33996 22.2247 7.46222 22.1624 7.57479H22.1635Z" fill="#3D4042"/>
<path d="M7.19085 7.32034C7.1216 7.26764 7.03424 7.24459 6.948 7.25626C6.86175 7.26794 6.78367 7.31338 6.73092 7.38259L6.09323 8.2211L5.79023 7.91809C5.72881 7.85633 5.64538 7.8215 5.55828 7.82125C5.47118 7.821 5.38755 7.85537 5.32579 7.91678C5.26403 7.9782 5.22919 8.06163 5.22894 8.14873C5.2287 8.23583 5.26306 8.31946 5.32448 8.38122L5.89298 8.94991C5.95448 9.01145 6.03791 9.04605 6.12491 9.04609H6.14685C6.19356 9.04289 6.23904 9.02976 6.28027 9.00758C6.32149 8.9854 6.35751 8.95468 6.38592 8.91747L7.2531 7.78122C7.27932 7.74689 7.29851 7.70772 7.30957 7.66597C7.32064 7.62421 7.32336 7.58068 7.31757 7.53787C7.31179 7.49506 7.29762 7.45381 7.27588 7.41649C7.25413 7.37916 7.22524 7.34649 7.19085 7.32034V7.32034Z" fill="#3D4042"/>
</svg>
