<svg width="16" height="16" viewBox="0 0 16 16" fill="none" xmlns="http://www.w3.org/2000/svg">
<path fill-rule="evenodd" clip-rule="evenodd" d="M1.6 3.95999C0.687104 3.77468 0 2.96758 0 2C0 0.895431 0.895431 0 2 0C2.96758 0 3.77468 0.687104 3.95999 1.6H12.04C12.2253 0.687104 13.0324 0 14 0C15.1046 0 16 0.895431 16 2C16 2.96758 15.3129 3.77468 14.4 3.95999V12.04C15.3129 12.2253 16 13.0324 16 14C16 15.1046 15.1046 16 14 16C13.0324 16 12.2253 15.3129 12.04 14.4H3.95999C3.77468 15.3129 2.96758 16 2 16C0.895431 16 0 15.1046 0 14C0 13.0324 0.687104 12.2253 1.6 12.04V3.95999ZM13.4 3.90844V12.0916C12.778 12.2869 12.2869 12.778 12.0916 13.4H3.90844C3.71308 12.778 3.22201 12.2869 2.6 12.0916V3.90844C3.22201 3.71308 3.71308 3.22201 3.90844 2.6H12.0916C12.2869 3.22201 12.778 3.71308 13.4 3.90844ZM7.25 11.2V8.75H4.8V7.25H7.25V4.8H8.75V7.25H11.2V8.75H8.75V11.2H7.25Z" fill="#5A6872"/>
</svg>
