<svg width="24" height="24" viewBox="0 0 24 24" fill="none" xmlns="http://www.w3.org/2000/svg">
<path d="M13.7899 2.94647C12.7672 2.85613 11.7975 3.149 11.0227 3.70575C10.0499 3.25204 8.85653 3.39291 8.01178 4.15702C7.19773 4.89335 6.90077 6.04341 7.25534 7.08692C7.26347 7.11081 7.27304 7.13376 7.28356 7.15608C7.11379 7.26908 6.9516 7.39492 6.79854 7.53337C5.11142 9.05943 4.98038 11.6736 6.50644 13.3607C6.7492 13.6291 7.02267 13.8621 7.32278 14.0565L7.23552 19.4031L9.35608 21.7475L12.2561 19.1244L11.2362 17.9968L12.3421 16.9965L11.3195 15.866L12.0522 15.2033L12.0595 13.8803C12.154 13.8085 12.2457 13.7325 12.3338 13.6528C13.0526 13.0026 13.515 12.1295 13.6504 11.1759C13.8138 11.1671 13.9762 11.1492 14.1372 11.1211L17.7147 15.0818L20.7891 15.4675L21.1338 11.5642L19.6194 11.4304L19.752 9.92844L18.2336 9.79434L18.3349 8.64658L17.5072 7.73721C17.5166 7.65752 17.5231 7.58031 17.5294 7.50416C17.5317 7.47635 17.5341 7.44807 17.5366 7.41916C17.6335 6.32142 17.2972 5.25158 16.5895 4.40686C15.8819 3.56209 14.8876 3.04343 13.7899 2.94647ZM11.4446 12.6697C11.3209 12.7816 11.1873 12.8826 11.0474 12.9701L10.7379 13.1635L10.7299 14.612L9.4473 15.7722L10.4699 16.9026L9.36395 17.903L10.3838 19.0305L9.4499 19.8752L8.56942 18.9018L8.66116 13.2756L8.2929 13.0878C7.98988 12.9332 7.71957 12.7258 7.48946 12.4714C6.45368 11.3263 6.54264 9.5521 7.68771 8.51635C8.09315 8.14962 8.59138 7.91121 9.12851 7.82683C9.20748 7.8144 9.28723 7.80625 9.36718 7.80059C9.43778 8.18914 9.56445 8.56472 9.74361 8.91762C9.54818 8.87278 9.33496 8.91601 9.1694 9.05476C8.88883 9.28983 8.85189 9.70782 9.08696 9.98839C9.32201 10.269 9.74003 10.3059 10.0206 10.0709C10.1435 9.96801 10.2196 9.83007 10.2467 9.68394C10.2526 9.6911 10.2583 9.69837 10.2643 9.70549C10.8104 10.3574 11.5274 10.8149 12.3307 11.0345C12.2307 11.6637 11.9209 12.2389 11.4446 12.6697ZM8.49384 6.60853C8.3362 6.08036 8.4929 5.50922 8.901 5.14009C9.20821 4.86221 9.60438 4.7436 9.98753 4.77875C9.65744 5.2754 9.4312 5.8498 9.34259 6.47339C9.20192 6.48096 9.06166 6.49562 8.92281 6.51744C8.77769 6.54018 8.63457 6.57078 8.49384 6.60853ZM15.5734 5.25808C16.0538 5.83146 16.282 6.55753 16.2162 7.3026C16.2135 7.33373 16.211 7.36416 16.2085 7.39413C16.1957 7.54793 16.1863 7.65908 16.1569 7.76764L16.0618 8.1184L16.9634 9.10896L16.7965 10.9981L18.3149 11.1322L18.1823 12.6342L19.6967 12.7679L19.5896 13.9811L18.3682 13.8279L14.585 9.63932L14.1888 9.75146C13.8615 9.84408 13.5223 9.87574 13.1806 9.84554C12.4355 9.77972 11.7607 9.42772 11.2804 8.85436C10.8001 8.28101 10.5718 7.55491 10.6376 6.80984C10.6808 6.32069 10.8482 5.86225 11.1197 5.46882L12.3808 6.86299C12.3869 6.86972 12.3936 6.87562 12.3999 6.88205C12.4031 6.88602 12.4057 6.89024 12.409 6.89417C12.6441 7.17476 13.0621 7.21168 13.3427 6.97666C13.6233 6.74161 13.6602 6.32359 13.4252 6.043C13.4123 6.02769 13.3987 6.01339 13.3849 5.99956C13.3779 5.99098 13.3714 5.9821 13.3639 5.9738L12.1081 4.58554C12.5837 4.33046 13.1232 4.21829 13.6732 4.26688C14.4183 4.33269 15.0932 4.68467 15.5734 5.25808Z" fill="#575757"/>
</svg>
