<svg width="26" height="16" viewBox="0 0 26 16" fill="none" xmlns="http://www.w3.org/2000/svg">
<path d="M0.257916 7.35319L1.75804 6.48647L2.61508 2.8429C2.84324 1.8731 3.70164 1.19581 4.70254 1.19581H9.0134V0.515342C9.0134 0.230714 9.24532 0 9.53132 0H25.4821C25.7681 0 26 0.230714 26 0.515342V12.7994C26 13.0841 25.7681 13.3148 25.4821 13.3148H23.8175C23.5768 14.4917 22.5287 15.3802 21.2759 15.3802C20.0231 15.3802 18.9749 14.4917 18.7342 13.3148H8.24909V13.3148C8.00839 14.4918 6.96027 15.3803 5.70744 15.3803C4.45462 15.3803 3.40645 14.4918 3.16575 13.3148H0.517916C0.231916 13.3148 0 13.0841 0 12.7995V7.79885C5.07813e-05 7.61523 0.0982605 7.44546 0.257916 7.35319ZM21.2759 14.3496C22.1348 14.3496 22.8337 13.6542 22.8337 12.7995C22.8337 11.9448 22.1348 11.2494 21.2759 11.2494C20.4169 11.2494 19.718 11.9448 19.718 12.7995C19.718 13.6543 20.4169 14.3496 21.2759 14.3496ZM10.0492 10.4361H14.7207C15.0067 10.4361 15.2387 10.6668 15.2387 10.9514C15.2387 11.2361 15.0067 11.4668 14.7207 11.4668H10.0492V12.2841H18.7342C18.9749 11.1072 20.0231 10.2187 21.2759 10.2187C22.5287 10.2187 23.5768 11.1071 23.8175 12.2841H24.9642V9.61875H10.0492V10.4361V10.4361ZM10.0492 1.71121V8.58806H24.9642V1.03074H10.0492V1.71121V1.71121ZM6.00893 2.2266H4.70244C4.18513 2.22655 3.74145 2.57661 3.62364 3.0778L2.86451 6.30517H6.00888V2.2266H6.00893ZM5.70744 14.3496C6.53152 14.3496 7.20782 13.7095 7.26145 12.9028C7.25459 12.8694 7.25104 12.8349 7.25104 12.7995C7.25104 12.7642 7.25464 12.7296 7.26145 12.6963C7.20782 11.8896 6.53152 11.2494 5.70744 11.2494C4.84843 11.2494 4.14958 11.9448 4.14958 12.7995C4.14958 13.6543 4.84843 14.3496 5.70744 14.3496ZM1.03588 9.83824H2.02119V9.29268H1.03588V9.83824ZM1.03588 8.262H2.53911C2.82511 8.262 3.05702 8.49271 3.05702 8.77734V10.3536C3.05702 10.6382 2.82511 10.8689 2.53911 10.8689H1.03588V12.2841H3.16575C3.40645 11.1072 4.45462 10.2187 5.70744 10.2187C6.96027 10.2187 8.00839 11.1071 8.24909 12.2841H9.01335V2.22655H7.04477V6.82052C7.04477 7.10515 6.81285 7.33586 6.52685 7.33586H2.35086L1.03593 8.09566V8.262H1.03588Z" fill="#0086DA"/>
<path d="M16.6277 10.6197H17.0623C17.3467 10.6197 17.5774 10.7836 17.5774 10.9859C17.5774 11.1881 17.3468 11.3521 17.0623 11.3521H16.6277C16.3433 11.3521 16.1126 11.1881 16.1126 10.9859C16.1126 10.7836 16.3433 10.6197 16.6277 10.6197Z" fill="#0086DA"/>
</svg>
