<svg width="18" height="18" viewBox="0 0 18 18" fill="none" xmlns="http://www.w3.org/2000/svg">
<path d="M14.8275 5.4225L14.835 5.415L12.045 2.625L11.25 3.42L12.8325 5.0025C12.1275 5.2725 11.625 5.9475 11.625 6.75C11.625 7.785 12.465 8.625 13.5 8.625C13.77 8.625 14.0175 8.565 14.25 8.4675V13.875C14.25 14.2875 13.9125 14.625 13.5 14.625C13.0875 14.625 12.75 14.2875 12.75 13.875V10.5C12.75 9.675 12.075 9 11.25 9H10.5V3.75C10.5 2.925 9.825 2.25 9 2.25H4.5C3.675 2.25 3 2.925 3 3.75V15.75H10.5V10.125H11.625V13.875C11.625 14.91 12.465 15.75 13.5 15.75C14.535 15.75 15.375 14.91 15.375 13.875V6.75C15.375 6.2325 15.165 5.76 14.8275 5.4225ZM9 7.5H4.5V3.75H9V7.5ZM13.5 7.5C13.0875 7.5 12.75 7.1625 12.75 6.75C12.75 6.3375 13.0875 6 13.5 6C13.9125 6 14.25 6.3375 14.25 6.75C14.25 7.1625 13.9125 7.5 13.5 7.5Z" fill="#5A6872"/>
</svg>
