<svg width="42" height="42" viewBox="0 0 42 42" fill="none" xmlns="http://www.w3.org/2000/svg">
<circle cx="21" cy="21" r="21" fill="#FFD84F"/>
<path d="M19.4105 5.15614C20.3581 4.4669 21.6419 4.4669 22.5895 5.15614V5.15614C23.263 5.64602 24.1248 5.79798 24.9253 5.56799V5.56799C26.0515 5.24442 27.2579 5.68351 27.9126 6.65529V6.65529C28.3779 7.34598 29.1358 7.78352 29.9666 7.84118V7.84118C31.1355 7.92229 32.119 8.74752 32.4019 9.88462V9.88462C32.6029 10.6928 33.1654 11.3632 33.9264 11.7015V11.7015C34.9971 12.1775 35.639 13.2894 35.5159 14.4546V14.4546C35.4285 15.2829 35.7277 16.1052 36.3271 16.6834V16.6834C37.1705 17.4969 37.3934 18.7612 36.8792 19.8141V19.8141C36.5137 20.5625 36.5137 21.4375 36.8792 22.1859V22.1859C37.3934 23.2388 37.1705 24.5031 36.3271 25.3166V25.3166C35.7277 25.8948 35.4285 26.7171 35.5159 27.5454V27.5454C35.639 28.7106 34.9971 29.8225 33.9264 30.2985V30.2985C33.1654 30.6368 32.6029 31.3072 32.4019 32.1154V32.1154C32.119 33.2525 31.1355 34.0777 29.9666 34.1588V34.1588C29.1358 34.2165 28.3779 34.654 27.9126 35.3447V35.3447C27.2579 36.3165 26.0515 36.7556 24.9253 36.432V36.432C24.1248 36.202 23.263 36.354 22.5895 36.8439V36.8439C21.6419 37.5331 20.3581 37.5331 19.4105 36.8439V36.8439C18.737 36.354 17.8752 36.202 17.0747 36.432V36.432C15.9485 36.7556 14.7421 36.3165 14.0874 35.3447V35.3447C13.6221 34.654 12.8642 34.2165 12.0334 34.1588V34.1588C10.8645 34.0777 9.88099 33.2525 9.59812 32.1154V32.1154C9.39707 31.3072 8.83458 30.6368 8.07357 30.2985V30.2985C7.00287 29.8225 6.36096 28.7106 6.48406 27.5454V27.5454C6.57155 26.7171 6.27226 25.8948 5.67286 25.3166V25.3166C4.82954 24.5031 4.60661 23.2388 5.12083 22.1859V22.1859C5.48631 21.4375 5.48631 20.5625 5.12083 19.8141V19.8141C4.60661 18.7612 4.82954 17.4969 5.67286 16.6834V16.6834C6.27226 16.1052 6.57155 15.2829 6.48406 14.4546V14.4546C6.36096 13.2894 7.00287 12.1775 8.07357 11.7015V11.7015C8.83458 11.3632 9.39707 10.6928 9.59812 9.88462V9.88462C9.88099 8.74752 10.8645 7.92229 12.0334 7.84118V7.84118C12.8642 7.78352 13.6221 7.34598 14.0874 6.65529V6.65529C14.7421 5.68351 15.9485 5.24442 17.0747 5.56799V5.56799C17.8752 5.79798 18.737 5.64602 19.4105 5.15614V5.15614Z" fill="#3A70A5"/>
</svg>
