<svg width="16" height="21" viewBox="0 0 16 21" fill="none" xmlns="http://www.w3.org/2000/svg">
<circle cx="8" cy="8" r="8" fill="#E71D32"/>
<path d="M8.4248 10.2769H7.09814L6.95215 3.75781H8.57715L8.4248 10.2769ZM6.90771 12.27C6.90771 12.0288 6.986 11.8299 7.14258 11.6733C7.29915 11.5125 7.51286 11.4321 7.78369 11.4321C8.05452 11.4321 8.26823 11.5125 8.4248 11.6733C8.58138 11.8299 8.65967 12.0288 8.65967 12.27C8.65967 12.5028 8.5835 12.6974 8.43115 12.854C8.27881 13.0106 8.06299 13.0889 7.78369 13.0889C7.50439 13.0889 7.28857 13.0106 7.13623 12.854C6.98389 12.6974 6.90771 12.5028 6.90771 12.27Z" fill="white"/>
</svg>
