<svg width="16" height="17" viewBox="0 0 16 17" fill="none" xmlns="http://www.w3.org/2000/svg">
<path fill-rule="evenodd" clip-rule="evenodd" d="M12.4928 7.79425C12.8972 5.77268 11.6902 3.74483 10.0293 2.5369C8.27898 1.26393 5.77621 0.667464 3.04766 1.57698L3.44294 2.76282C5.77272 1.98623 7.85654 2.50232 9.29409 3.54782C10.7167 4.58247 11.5429 6.17046 11.2671 7.54905C11.098 8.39463 10.3299 8.80905 9.43963 9.05188C8.7063 9.25192 7.80625 9.3577 6.90001 9.46421L6.89979 9.46423C6.69362 9.48847 6.48713 9.51273 6.28221 9.53816C5.15816 9.67762 4.07392 9.85213 3.24208 10.2273C2.42351 10.5965 1.88102 11.1435 1.77008 12.031C1.70673 12.5378 1.79586 12.9439 1.98927 13.2722C2.18426 13.6031 2.49671 13.8741 2.9104 14.0874C3.74441 14.5176 4.94729 14.6912 6.24629 14.6642C7.53925 14.6373 8.89675 14.4124 10.02 14.0723C10.5815 13.9023 11.0791 13.705 11.4785 13.4926C11.8821 13.2779 12.1664 13.0575 12.322 12.85L11.322 12.1C11.3223 12.0996 11.322 12.0999 11.321 12.101C11.3091 12.1132 11.2005 12.2246 10.8914 12.389C10.5823 12.5535 10.1644 12.7225 9.6577 12.8759C8.6429 13.1832 7.39851 13.3899 6.22031 13.4144C5.00594 13.4397 4.04718 13.2673 3.48336 12.9765C3.22138 12.8414 3.11228 12.7158 3.06622 12.6376C3.02962 12.5755 2.97704 12.4532 3.01043 12.1861C3.05105 11.8611 3.19815 11.6184 3.75599 11.3668C4.39349 11.0793 5.29964 10.9197 6.43612 10.7786C6.61836 10.756 6.80897 10.7338 7.00492 10.7108L7.00494 10.7108C7.91275 10.6047 8.93498 10.4852 9.76859 10.2578C10.7221 9.99773 12.1714 9.4009 12.4928 7.79425ZM12.722 13.15L13.722 13.9C13.3433 14.4049 12.8006 14.7714 12.3004 15.0375C11.7748 15.3172 11.1654 15.5539 10.5271 15.7472C9.25214 16.1333 7.73628 16.3836 6.28265 16.4138C4.86519 16.4432 3.32054 16.268 2.10824 15.6428C1.48217 15.3199 0.885037 14.8454 0.48154 14.1606C0.0685943 13.4597 -0.0716945 12.6563 0.0335936 11.814C0.242975 10.1389 1.33901 9.16584 2.5226 8.63204C3.62652 8.13416 4.96008 7.93878 6.06673 7.80148C6.30746 7.77161 6.53792 7.74433 6.75849 7.71823L6.7585 7.71823C7.65262 7.61241 8.38426 7.52583 8.9791 7.36357C9.33528 7.26641 9.49656 7.18103 9.56195 7.13542C9.61766 6.63674 9.30292 5.71811 8.26479 4.96311C7.26511 4.23607 5.76783 3.83253 3.99634 4.42303L3.60106 3.23716C5.77132 2.51375 7.68756 2.99767 9 3.95218C10.3274 4.91753 11.0012 6.32957 10.7768 7.45097C10.6686 7.99213 10.173 8.33358 9.30805 8.56951C8.61452 8.75869 7.7629 8.85898 6.85886 8.96545L6.85883 8.96545L6.85864 8.96548C6.64837 8.99024 6.43526 9.01534 6.22065 9.04196C5.10156 9.18081 3.94609 9.36128 3.03651 9.77151C2.11365 10.1877 1.413 10.8565 1.27394 11.969C1.19861 12.5716 1.30235 13.0913 1.55849 13.526C1.81305 13.958 2.20684 14.2872 2.68121 14.5318C3.62331 15.0177 4.92384 15.1918 6.25668 15.1641C7.59554 15.1362 8.99829 14.9041 10.1649 14.5508C10.7483 14.3742 11.2779 14.1656 11.7133 13.934C12.1445 13.7046 12.5026 13.4425 12.722 13.15ZM9.60082 7.10034C9.60208 7.1007 9.59784 7.1071 9.58432 7.11846C9.59279 7.10567 9.59955 7.09998 9.60082 7.10034Z" fill="#0086DA"/>
<circle cx="4.02197" cy="3" r="3" fill="#0086DA"/>
<circle cx="12.022" cy="14" r="3" fill="#0086DA"/>
</svg>
