<svg width="28" height="28" viewBox="0 0 28 28" fill="none" xmlns="http://www.w3.org/2000/svg">
<path d="M26.5668 11.0607L24.6015 10.7273C24.3968 10.0664 24.1335 9.42881 23.8118 8.8205L24.97 7.20029C25.4613 6.51009 25.3853 5.56838 24.7828 4.97177L23.0398 3.22872C22.7122 2.90117 22.2794 2.71985 21.8173 2.71985C21.4546 2.71985 21.1095 2.83098 20.8171 3.04155L19.191 4.19968C18.5593 3.86628 17.8984 3.59137 17.214 3.38665L16.8865 1.44474C16.7461 0.60831 16.0266 0 15.1785 0H12.716C11.8679 0 11.1485 0.60831 11.0081 1.44474L10.6688 3.43344C10.0137 3.63816 9.37617 3.90722 8.76786 4.23478L7.15935 3.07665C6.86689 2.86608 6.51594 2.75494 6.15329 2.75494C5.69121 2.75494 5.25253 2.93627 4.93082 3.26382L3.18193 5.00686C2.58532 5.60347 2.50343 6.54519 2.99476 7.23538L4.16459 8.87899C3.84288 9.49315 3.58552 10.1307 3.38665 10.7917L1.44474 11.1192C0.60831 11.2596 0 11.979 0 12.8272V15.2896C0 16.1378 0.60831 16.8572 1.44474 16.9976L3.43344 17.3368C3.63816 17.9919 3.90722 18.6295 4.23478 19.2378L3.0825 20.8405C2.59117 21.5307 2.66721 22.4724 3.26967 23.069L5.01271 24.812C5.34026 25.1396 5.7731 25.3209 6.23518 25.3209C6.59783 25.3209 6.94293 25.2098 7.23538 24.9992L8.87899 23.8294C9.46976 24.1394 10.0898 24.3909 10.7273 24.5898L11.0549 26.5551C11.1953 27.3915 11.9147 27.9998 12.7628 27.9998H15.2312C16.0793 27.9998 16.7987 27.3915 16.9391 26.5551L17.2725 24.5898C17.9335 24.3851 18.571 24.1218 19.1793 23.8001L20.7995 24.9583C21.092 25.1688 21.4429 25.28 21.8056 25.28C22.2677 25.28 22.7005 25.0986 23.0281 24.7711L24.7711 23.0281C25.3677 22.4314 25.4496 21.4897 24.9583 20.7995L23.8001 19.1735C24.1218 18.5593 24.3909 17.9218 24.5898 17.2667L26.5551 16.9391C27.3915 16.7987 27.9998 16.0793 27.9998 15.2312V12.7687C28.0115 11.9205 27.4032 11.2011 26.5668 11.0607ZM26.4323 15.2312C26.4323 15.3072 26.3796 15.3715 26.3036 15.3832L23.8469 15.7927C23.5369 15.8453 23.2913 16.0734 23.2152 16.3717C22.993 17.2316 22.6537 18.0563 22.1975 18.8225C22.0396 19.0916 22.0513 19.425 22.2326 19.6823L23.6773 21.7178C23.7183 21.7763 23.7124 21.8641 23.6598 21.9167L21.9167 23.6598C21.8758 23.7007 21.8348 23.7066 21.8056 23.7066C21.7705 23.7066 21.7412 23.6949 21.7178 23.6773L19.6882 22.2326C19.4367 22.0513 19.0974 22.0396 18.8284 22.1975C18.0621 22.6537 17.2374 22.993 16.3776 23.2152C16.0734 23.2913 15.8453 23.5428 15.7985 23.8469L15.3832 26.3036C15.3715 26.3796 15.3072 26.4323 15.2312 26.4323H12.7687C12.6926 26.4323 12.6283 26.3796 12.6166 26.3036L12.2072 23.8469C12.1545 23.5369 11.9264 23.2913 11.6281 23.2152C10.7917 22.9988 9.98448 22.6654 9.22994 22.2326C9.10711 22.1624 8.96673 22.1273 8.8322 22.1273C8.67427 22.1273 8.5105 22.1741 8.37597 22.2735L6.32877 23.73C6.29952 23.7475 6.27028 23.7592 6.24103 23.7592C6.21763 23.7592 6.17084 23.7533 6.1299 23.7124L4.38685 21.9694C4.33421 21.9167 4.32836 21.8348 4.36931 21.7705L5.80819 19.7525C5.98952 19.4952 6.00122 19.1559 5.84329 18.8869C5.38706 18.1265 5.03611 17.3018 4.81384 16.4419C4.73195 16.1436 4.48629 15.9155 4.18213 15.8629L1.70795 15.4417C1.63191 15.43 1.57927 15.3657 1.57927 15.2896V12.8272C1.57927 12.7511 1.63191 12.6868 1.70795 12.6751L4.14704 12.2656C4.45704 12.213 4.70856 11.9849 4.7846 11.6807C5.00101 10.8209 5.33441 9.99033 5.7848 9.22409C5.94272 8.95503 5.92518 8.62163 5.74385 8.37012L4.28742 6.32292C4.24647 6.26443 4.25232 6.17669 4.30497 6.12405L6.04801 4.381C6.08895 4.34006 6.1299 4.33421 6.15914 4.33421C6.19424 4.33421 6.22348 4.34591 6.24688 4.36346L8.26483 5.80234C8.52219 5.98367 8.86145 5.99537 9.13051 5.83744C9.89089 5.38121 10.7156 5.03026 11.5754 4.80799C11.8738 4.7261 12.1019 4.48044 12.1545 4.17628L12.5756 1.7021C12.5873 1.62606 12.6517 1.57342 12.7277 1.57342H15.1902C15.2663 1.57342 15.3306 1.62606 15.3423 1.7021L15.7517 4.14119C15.8044 4.45119 16.0325 4.70271 16.3366 4.77875C17.2199 5.00101 18.0621 5.34611 18.8459 5.80819C19.115 5.96612 19.4484 5.95442 19.7057 5.7731L21.7237 4.32251C21.7529 4.30497 21.7822 4.29327 21.8114 4.29327C21.8348 4.29327 21.8816 4.29912 21.9226 4.34006L23.6656 6.0831C23.7183 6.13575 23.7241 6.21763 23.6832 6.28197L22.2384 8.31162C22.0571 8.56314 22.0454 8.90239 22.2033 9.17145C22.6596 9.93769 22.9988 10.7624 23.2211 11.6222C23.2971 11.9264 23.5486 12.1545 23.8528 12.2013L26.3094 12.6166C26.3855 12.6283 26.4381 12.6926 26.4381 12.7687V15.2312H26.4323Z" fill="#5A6872"/>
<path d="M14.0028 7.95391C10.6687 7.95391 7.96059 10.6621 7.96059 13.9961C7.96059 17.3301 10.6687 20.0382 14.0028 20.0382C17.3368 20.0382 20.0449 17.3301 20.0449 13.9961C20.0449 10.6621 17.3368 7.95391 14.0028 7.95391ZM14.0028 18.459C11.5403 18.459 9.53986 16.4586 9.53986 13.9961C9.53986 11.5336 11.5403 9.53318 14.0028 9.53318C16.4652 9.53318 18.4656 11.5336 18.4656 13.9961C18.4656 16.4586 16.4652 18.459 14.0028 18.459Z" fill="#5A6872"/>
</svg>
