<svg width="30" height="20" viewBox="0 0 30 20" fill="none" xmlns="http://www.w3.org/2000/svg">
<path d="M17.5473 15.6617V7.79184C17.5473 7.35453 17.1988 7 16.7688 7H9.03558C8.60563 7 8.25711 7.35453 8.25711 7.79184V15.6617C8.25711 15.8075 8.37327 15.9256 8.51661 15.9256H17.2878C17.4311 15.9256 17.5473 15.8075 17.5473 15.6617ZM11.3025 18.3577C11.3025 19.2647 12.0254 20 12.9171 20C13.8088 20 14.5317 19.2647 14.5317 18.3577C14.5317 17.4506 13.8088 16.7154 12.9171 16.7154C12.0254 16.7154 11.3025 17.4506 11.3025 18.3577ZM12.1098 18.3577C12.1098 17.9042 12.4713 17.5365 12.9171 17.5365C13.363 17.5365 13.7245 17.9042 13.7245 18.3577C13.7245 18.8112 13.363 19.1789 12.9171 19.1789C12.4713 19.1789 12.1098 18.8112 12.1098 18.3577ZM14.3078 16.7154H17.9259C18.0692 16.7154 18.1854 16.8335 18.1854 16.9793V17.7801C18.1854 17.9259 18.0692 18.044 17.9259 18.044H15.0258C14.9501 17.5156 14.6879 17.0488 14.3078 16.7154ZM2.85449 18.3577C2.85449 19.2647 3.57741 20 4.46912 20C5.36086 20 6.08375 19.2647 6.08375 18.3577C6.08375 17.4506 5.36086 16.7154 4.46912 16.7154C3.57741 16.7154 2.85449 17.4506 2.85449 18.3577ZM3.66177 18.3577C3.66177 17.9042 4.02325 17.5365 4.46912 17.5365C4.91502 17.5365 5.27644 17.9042 5.27644 18.3577C5.27644 18.8112 4.91499 19.1789 4.46912 19.1789C4.02325 19.1789 3.66177 18.8112 3.66177 18.3577ZM4.00543e-05 16.9793V17.7801C4.00543e-05 17.9259 0.116224 18.044 0.259537 18.044H2.36048C2.51075 16.9958 3.3977 16.1875 4.46906 16.1875C5.54063 16.1875 6.42761 16.9958 6.57788 18.044H10.8084C10.8842 17.5156 11.1464 17.0488 11.5264 16.7154H7.51514V9.16569C7.51514 8.87415 7.28277 8.6378 6.99614 8.6378H4.54632C3.85652 8.6378 3.21181 8.98632 2.82584 9.56779L1.24651 11.947C1.01485 12.296 0.891064 12.7075 0.891064 13.1286V16.7154H0.259537C0.116224 16.7154 4.00543e-05 16.8335 4.00543e-05 16.9793ZM2.63252 12.008L3.89542 10.1827C3.94403 10.1124 4.02319 10.0706 4.10764 10.0706H6.07757C6.22086 10.0706 6.33707 10.1888 6.33707 10.3346V12.1599C6.33707 12.3057 6.22089 12.4238 6.07757 12.4238H2.84468C2.63448 12.4238 2.51152 12.1829 2.63252 12.008Z" fill="#5A6872"/>
<path d="M24.2663 11.5036C24.8178 11.0369 25.5282 10.753 26.3065 10.753C28.0784 10.753 29.5 12.2111 29.4997 13.9927L24.2663 11.5036ZM24.2663 11.5036L19.154 8.95718C19.1556 8.91923 19.1564 8.88072 19.1564 8.84169C19.1564 8.80686 19.1557 8.77244 19.1545 8.73846L24.2574 6.22136C24.8101 6.69221 25.5239 6.97942 26.3065 6.97942C28.0785 6.97942 29.5 5.52081 29.5 3.73971C29.5 1.95825 28.0785 0.5 26.3065 0.5C24.5345 0.5 23.113 1.95825 23.113 3.73971C23.113 3.77456 23.1136 3.80899 23.1149 3.84296L18.0126 6.36004C17.4599 5.88919 16.7462 5.60198 15.9635 5.60198C14.1912 5.60198 12.7697 7.06056 12.7697 8.84169C12.7697 10.6232 14.1912 12.0814 15.9632 12.0814C16.7415 12.0814 17.4517 11.7975 18.0032 11.3313L23.1151 13.8774C23.1135 13.9153 23.1126 13.9537 23.1126 13.9927C23.1126 15.7745 24.5342 17.2324 26.3062 17.2324C28.0781 17.2324 29.4997 15.7746 29.4997 13.9928L24.2663 11.5036Z" fill="#5A6872" stroke="white"/>
</svg>
