<svg width="12" height="12" viewBox="0 0 12 12" fill="none" xmlns="http://www.w3.org/2000/svg">
<path d="M9.5 8.38C9.05667 8.38 8.66 8.555 8.35667 8.82916L4.1975 6.40833C4.22667 6.27416 4.25 6.14 4.25 6C4.25 5.86 4.22667 5.72583 4.1975 5.59166L8.31 3.19416C8.625 3.48583 9.03917 3.66666 9.5 3.66666C10.4683 3.66666 11.25 2.885 11.25 1.91666C11.25 0.948331 10.4683 0.166664 9.5 0.166664C8.53167 0.166664 7.75 0.948331 7.75 1.91666C7.75 2.05666 7.77333 2.19083 7.8025 2.325L3.69 4.7225C3.375 4.43083 2.96083 4.25 2.5 4.25C1.53167 4.25 0.75 5.03166 0.75 6C0.75 6.96833 1.53167 7.75 2.5 7.75C2.96083 7.75 3.375 7.56916 3.69 7.2775L7.84333 9.70416C7.81417 9.82666 7.79667 9.955 7.79667 10.0833C7.79667 11.0225 8.56083 11.7867 9.5 11.7867C10.4392 11.7867 11.2033 11.0225 11.2033 10.0833C11.2033 9.14416 10.4392 8.38 9.5 8.38Z" fill="#5A6872"/>
</svg>
 
