<svg width="20" height="12" viewBox="0 0 20 12" fill="none" xmlns="http://www.w3.org/2000/svg">
<path d="M13.3333 5.16667C14.7167 5.16667 15.825 4.05001 15.825 2.66667C15.825 1.28334 14.7167 0.166672 13.3333 0.166672C11.95 0.166672 10.8333 1.28334 10.8333 2.66667C10.8333 4.05001 11.95 5.16667 13.3333 5.16667ZM6.66668 5.16667C8.05001 5.16667 9.15834 4.05001 9.15834 2.66667C9.15834 1.28334 8.05001 0.166672 6.66668 0.166672C5.28334 0.166672 4.16668 1.28334 4.16668 2.66667C4.16668 4.05001 5.28334 5.16667 6.66668 5.16667ZM6.66668 6.83334C4.72501 6.83334 0.833344 7.80834 0.833344 9.75001V11.8333H12.5V9.75001C12.5 7.80834 8.60834 6.83334 6.66668 6.83334ZM13.3333 6.83334C13.0917 6.83334 12.8167 6.85001 12.525 6.87501C13.4917 7.57501 14.1667 8.51667 14.1667 9.75001V11.8333H19.1667V9.75001C19.1667 7.80834 15.275 6.83334 13.3333 6.83334Z" fill="#5A6872"/>
</svg>
