<svg width="20" height="15" viewBox="0 0 20 15" fill="none" xmlns="http://www.w3.org/2000/svg">
<path d="M9.96784 4.51572V13.1881L16.5292 11.8778V7.65235C16.5292 7.47546 16.6756 7.33808 16.8426 7.35823L17.6498 7.48966C17.7919 7.50682 17.8991 7.63334 17.8991 7.78378V12.6926C17.8991 12.8321 17.8065 12.9527 17.6769 12.982L10.4943 14.6071C10.1472 14.6857 9.78827 14.6865 9.44085 14.6096L2.33535 13.0369C2.20784 13.0087 2.11542 12.892 2.11202 12.7549L1.98928 7.76951C1.98542 7.61315 2.09784 7.48065 2.24588 7.46697L8.28156 6.90889C8.38624 6.89922 8.47705 6.82893 8.51709 6.72673L9.42637 4.40304C9.54369 4.10317 9.96784 4.19148 9.96784 4.51572ZM1.92101 1.67631L0.0269556 5.9365C-0.0655934 6.14468 0.0927726 6.37959 0.31006 6.35648L7.42317 5.60018C7.52369 5.58949 7.61104 5.52291 7.65202 5.42573L9.94075 0L2.12503 1.51059C2.03558 1.52789 1.95957 1.58962 1.92101 1.67631ZM9.94078 0L12.3625 5.59533C12.4049 5.69313 12.4942 5.75909 12.596 5.76772L19.6957 6.36851C19.9097 6.3866 20.0633 6.15606 19.9742 5.95056L18.1226 1.67916C18.0843 1.59082 18.0073 1.52789 17.9165 1.51066L9.94078 0Z" fill="#152935"/>
</svg>
