<svg width="18" height="14" viewBox="0 0 18 14" fill="none" xmlns="http://www.w3.org/2000/svg">
<path d="M8.97106 4.06415V11.8693L14.8763 10.69V6.88712C14.8763 6.72792 15.0081 6.60427 15.1583 6.62241L15.8849 6.7407C16.0127 6.75614 16.1092 6.87 16.1092 7.00541V11.4233C16.1092 11.5489 16.0259 11.6574 15.9092 11.6838L9.44485 13.1464C9.13247 13.2171 8.80944 13.2179 8.49676 13.1487L2.10182 11.7332C1.98705 11.7078 1.90388 11.6028 1.90082 11.4794L1.79035 6.99256C1.78688 6.85184 1.88805 6.73259 2.02129 6.72027L7.45341 6.218C7.54761 6.2093 7.62935 6.14604 7.66538 6.05406L8.48373 3.96273C8.58932 3.69286 8.97106 3.77233 8.97106 4.06415ZM1.72891 1.50868L0.0242601 5.34285C-0.0590341 5.53021 0.0834954 5.74163 0.279054 5.72083L6.68085 5.04016C6.77132 5.03054 6.84994 4.97062 6.88682 4.88316L8.94667 0L1.91253 1.35954C1.83203 1.3751 1.76361 1.43066 1.72891 1.50868ZM8.94667 0L11.1263 5.0358C11.1644 5.12382 11.2448 5.18318 11.3364 5.19095L17.7261 5.73166C17.9187 5.74794 18.057 5.54046 17.9768 5.35551L16.3104 1.51125C16.2759 1.43174 16.2066 1.3751 16.1249 1.3596L8.94667 0Z" fill="#5A6872"/>
</svg>
