<svg width="12" height="14" viewBox="0 0 12 14" fill="none" xmlns="http://www.w3.org/2000/svg">
<path d="M4.19154 10.9029C4.49742 10.9029 4.74769 10.6526 4.74769 10.3467V0.558468C4.74769 0.345265 4.6272 0.150612 4.44181 0.0579311C4.25641 -0.0347499 4.02469 -0.0162333 3.85785 0.113546L0.224312 2.83869C-0.0259559 3.02408 -0.0723128 3.36703 0.113082 3.6173C0.298477 3.86757 0.641426 3.91393 0.891694 3.72853L3.63539 1.67077V10.3467C3.63539 10.6526 3.88566 10.9029 4.19154 10.9029Z" fill="#152935"/>
<path d="M7.80664 2.8387C7.50076 2.8387 7.25049 3.08897 7.25049 3.39485V13.0904C7.25049 13.3036 7.37098 13.489 7.55637 13.591C7.63979 13.628 7.72322 13.6466 7.80664 13.6466C7.92713 13.6466 8.03836 13.6095 8.14033 13.5354L11.7739 10.8566C12.0241 10.6712 12.0705 10.3282 11.8944 10.078C11.709 9.82769 11.366 9.78134 11.1157 9.95747L8.36279 11.9874V3.39488C8.36279 3.08897 8.11252 2.8387 7.80664 2.8387Z" fill="#152935"/>
</svg>
