<svg width="14" height="14" viewBox="0 0 14 14" fill="none" xmlns="http://www.w3.org/2000/svg">
<path fill-rule="evenodd" clip-rule="evenodd" d="M12.1253 11.5113C12.176 11.3513 12.2033 11.1812 12.2033 11.0048C12.2033 10.1337 11.5366 9.41429 10.6832 9.32324L12.1253 11.5113ZM6.976 5.5155L5.1975 6.54497C5.22667 6.67819 5.25 6.8114 5.25 6.95041C5.25 7.08942 5.22667 7.22263 5.1975 7.35585L9.35667 9.75951C9.44291 9.68211 9.5367 9.61267 9.63696 9.55292L11.4971 12.3752C11.2166 12.577 10.872 12.696 10.5 12.696C9.56083 12.696 8.79667 11.9373 8.79667 11.0048C8.79667 10.8774 8.81417 10.7499 8.84333 10.6283L4.69 8.21884C4.375 8.50845 3.96083 8.688 3.5 8.688C2.53167 8.688 1.75 7.91188 1.75 6.95041C1.75 5.98894 2.53167 5.21281 3.5 5.21281C3.96083 5.21281 4.375 5.39236 4.69 5.68198L6.42414 4.67818L6.976 5.5155ZM7.84292 5.01369L9.31 4.16447C9.625 4.45407 10.0392 4.63362 10.5 4.63362C11.4683 4.63362 12.25 3.8575 12.25 2.89604C12.25 1.93457 11.4683 1.15845 10.5 1.15845C9.53167 1.15845 8.75 1.93457 8.75 2.89604C8.75 3.03505 8.77333 3.16826 8.8025 3.30147L7.29107 4.17636L7.84292 5.01369Z" fill="#5A6872"/>
<line x1="3.41106" y1="0.718523" x2="12.4111" y2="13.7154" stroke="#5A6872"/>
</svg>
