<svg width="14" height="14" viewBox="0 0 14 14" fill="none" xmlns="http://www.w3.org/2000/svg">
<path fill-rule="evenodd" clip-rule="evenodd" d="M7 14C10.866 14 14 10.866 14 7C14 3.13401 10.866 0 7 0C3.13401 0 0 3.13401 0 7C0 10.866 3.13401 14 7 14ZM2.04651 7C2.04651 6.35833 2.56976 5.83333 3.2093 5.83333C3.84884 5.83333 4.37209 6.35833 4.37209 7C4.37209 7.64167 3.84884 8.16667 3.2093 8.16667C2.56976 8.16667 2.04651 7.64167 2.04651 7ZM9.02326 7C9.02326 6.35833 9.54651 5.83333 10.186 5.83333C10.8256 5.83333 11.3488 6.35833 11.3488 7C11.3488 7.64167 10.8256 8.16667 10.186 8.16667C9.54651 8.16667 9.02326 7.64167 9.02326 7ZM5.53488 7C5.53488 6.35833 6.05814 5.83333 6.69767 5.83333C7.33721 5.83333 7.86047 6.35833 7.86047 7C7.86047 7.64167 7.33721 8.16667 6.69767 8.16667C6.05814 8.16667 5.53488 7.64167 5.53488 7Z" fill="#3D70B2"/>
</svg>
