<svg width="26" height="14" viewBox="0 0 26 14" fill="none" xmlns="http://www.w3.org/2000/svg">
<path d="M25.3757 9.63152H24.9239V0.633194C24.9239 0.283481 24.6443 0 24.2996 0H8.28392C7.93921 0 7.65967 0.283481 7.65967 0.633194V9.57751H6.81918V0.761606C6.81918 0.411893 6.53964 0.128412 6.19493 0.128412H4.54903C3.20084 0.128412 2.07956 1.1312 1.871 2.43995H0.62425C0.279539 2.43995 0 2.72343 0 3.07315V11.7592C0 12.109 0.279539 12.3924 0.62425 12.3924H1.48422C1.74802 13.2156 2.51117 13.8125 3.40959 13.8125C4.30801 13.8125 5.07115 13.2156 5.33496 12.3924H8.21481C8.47862 13.2156 9.24177 13.8125 10.1402 13.8125C10.9128 13.8125 11.5855 13.3709 11.9265 12.7237C12.2676 13.3709 12.9403 13.8125 13.713 13.8125C14.8292 13.8125 15.7373 12.8914 15.7373 11.7592C15.7373 11.2308 15.5394 10.7485 15.2149 10.3842H16.8577C16.5333 10.7485 16.3353 11.2308 16.3353 11.7592C16.3353 12.8914 17.2434 13.8125 18.3596 13.8125C19.1323 13.8125 19.805 13.3709 20.146 12.7237C20.4871 13.3709 21.1598 13.8125 21.9325 13.8125C23.0487 13.8125 23.9568 12.8914 23.9568 11.7592C23.9568 11.2308 23.7589 10.7485 23.4344 10.3842H23.6864C23.7415 10.6768 23.995 10.8979 24.2995 10.8979H25.3757C25.7205 10.8979 26 10.6144 26 10.2647C26 9.915 25.7205 9.63152 25.3757 9.63152ZM23.6754 1.26639V7.26457H8.90817V1.26639H23.6754ZM9.36437 11.7592C9.36437 11.3253 9.71239 10.9723 10.1402 10.9723C10.568 10.9723 10.9159 11.3253 10.9159 11.7592C10.9159 12.1932 10.568 12.5461 10.1402 12.5461C9.71239 12.5461 9.36437 12.1932 9.36437 11.7592ZM12.9371 11.7592C12.9371 11.3253 13.2852 10.9723 13.713 10.9723C14.1408 10.9723 14.4888 11.3253 14.4888 11.7592C14.4888 12.1932 14.1408 12.5461 13.713 12.5461C13.2852 12.5461 12.9371 12.1932 12.9371 11.7592ZM8.32886 10.8439C8.28423 10.9344 8.24596 11.0286 8.21475 11.126H6.81918V10.8439H8.32886ZM4.54903 1.3948H5.57068V2.43995H3.15003C3.33555 1.83519 3.89251 1.3948 4.54903 1.3948ZM1.2485 5.58389H3.30628V6.34138H1.2485V5.58389ZM1.2485 7.60776H3.93053C4.27524 7.60776 4.55478 7.32428 4.55478 6.97457V4.95069C4.55478 4.60098 4.27524 4.3175 3.93053 4.3175H1.2485V3.7064H5.57068V11.1261H5.33496C5.07115 10.3029 4.30801 9.70598 3.40959 9.70598C2.51117 9.70598 1.74802 10.3029 1.48422 11.1261H1.2485V7.60776ZM4.18541 11.7592C4.18541 12.1932 3.83739 12.5461 3.40959 12.5461C2.98179 12.5461 2.63377 12.1931 2.63377 11.7592C2.63377 11.3254 2.98179 10.9723 3.40959 10.9723C3.83739 10.9723 4.18541 11.3254 4.18541 11.7592ZM22.7083 11.7592C22.7083 12.1932 22.3603 12.5461 21.9325 12.5461C21.5047 12.5461 21.1567 12.1931 21.1567 11.7592C21.1567 11.3254 21.5047 10.9723 21.9325 10.9723C22.3603 10.9723 22.7083 11.3254 22.7083 11.7592ZM18.3596 12.5461C17.9318 12.5461 17.5838 12.1931 17.5838 11.7592C17.5838 11.3254 17.9318 10.9723 18.3596 10.9723C18.7874 10.9723 19.1354 11.3253 19.1354 11.7592C19.1354 12.1932 18.7874 12.5461 18.3596 12.5461ZM19.8616 10.3842H20.4305C20.32 10.5082 20.2243 10.6461 20.146 10.7948C20.0678 10.6461 19.9721 10.5083 19.8616 10.3842ZM8.90817 9.11781V8.53096H23.6754V9.11781H8.90817Z" fill="#0086DA"/>
</svg>
