<svg width="13" height="11" viewBox="0 0 13 11" fill="none" xmlns="http://www.w3.org/2000/svg">
<path d="M12.6826 3.39582L9.43267 0.302762C8.75527 -0.342069 7.58333 0.109511 7.58333 1.03194V2.2608C6.62525 2.3012 5.68682 2.40153 4.85784 2.64731C4.06408 2.88256 3.43439 3.23985 2.98661 3.70907C2.44246 4.27969 2.16666 4.99727 2.16666 5.84246C2.16666 7.16798 2.91547 8.25849 4.08213 8.95254C4.92952 9.45759 6.00613 8.68074 5.68501 7.755C5.33485 6.74268 5.29781 6.23127 7.58333 6.06289V7.21875C7.58333 8.14243 8.75622 8.59188 9.43267 7.94793L12.6826 4.85418C13.1058 4.45157 13.1058 3.79844 12.6826 3.39582ZM8.66666 7.21875V4.98781C5.76218 5.02911 3.75763 5.48604 4.6563 8.07813C3.99005 7.68174 3.25 6.96266 3.25 5.84246C3.25 3.49349 6.16461 3.28696 8.66666 3.26756V1.03125L11.9167 4.125L8.66666 7.21875ZM9.22503 9.03403C9.39181 8.98868 9.55114 8.92141 9.6984 8.83416C9.87841 8.72777 10.1111 8.85191 10.1111 9.0536V9.96875C10.1111 10.5383 9.62609 11 9.02777 11H1.08333C0.485017 11 0 10.5383 0 9.96875V2.40625C0 1.8367 0.485017 1.375 1.08333 1.375H4.0625C4.21206 1.375 4.33333 1.49044 4.33333 1.63282V1.7292C4.33333 1.83483 4.26591 1.93048 4.1625 1.96879C3.85326 2.08332 3.56676 2.21665 3.30374 2.36808C3.26104 2.39288 3.21202 2.40608 3.162 2.40625H1.21875C1.18283 2.40625 1.14839 2.41983 1.123 2.44401C1.0976 2.46818 1.08333 2.50097 1.08333 2.53516V9.83984C1.08333 9.87403 1.0976 9.90682 1.123 9.93099C1.14839 9.95517 1.18283 9.96875 1.21875 9.96875H8.89235C8.92827 9.96875 8.96271 9.95517 8.98811 9.93099C9.0135 9.90682 9.02777 9.87403 9.02777 9.83984V9.28198C9.02777 9.16661 9.10855 9.06587 9.22503 9.03403Z" fill="#5A6872"/>
</svg>
