<svg width="18" height="12" viewBox="0 0 18 12" fill="none" xmlns="http://www.w3.org/2000/svg">
<path d="M14.8966 8.3793C14.041 8.3793 13.3449 9.07558 13.3449 9.93102C13.3449 10.7866 14.041 11.4827 14.8966 11.4827C15.752 11.4827 16.4483 10.7866 16.4483 9.93102C16.4483 9.07558 15.752 8.3793 14.8966 8.3793ZM14.8966 10.3874C14.6449 10.3874 14.4402 10.1828 14.4402 9.93102C14.4402 9.67929 14.6449 9.47463 14.8966 9.47463C15.1483 9.47463 15.353 9.67929 15.353 9.93102C15.353 10.1828 15.1483 10.3874 14.8966 10.3874Z" fill="#152935"/>
<path d="M14.671 2.01725H12.0015C11.8006 2.01725 11.6379 2.17894 11.6379 2.37812V9.41501C11.6379 9.61419 11.8006 9.77587 12.0015 9.77587H12.387C12.567 9.77587 12.7264 9.64721 12.7497 9.47005C12.8923 8.38492 13.7643 7.71192 14.8192 7.71192C15.874 7.71192 16.746 8.38495 16.8886 9.47005C16.9119 9.64724 17.0711 9.77587 17.2513 9.77587H17.6364C17.8371 9.77587 18 9.61419 18 9.41501V5.89656C18 5.81177 17.97 5.72984 17.9153 5.66507L14.9498 2.14662C14.8808 2.06472 14.7786 2.01725 14.671 2.01725ZM12.365 4.90418V3.09985C12.365 2.90067 12.5277 2.73899 12.7286 2.73899H14.33C14.4378 2.73899 14.5401 2.78663 14.6092 2.86889L16.1239 4.67322C16.3211 4.90831 16.1528 5.26505 15.8445 5.26505H12.7286C12.5277 5.26505 12.365 5.10357 12.365 4.90418Z" fill="#152935"/>
<path d="M0.361221 9.77586H1.28614C1.46495 9.77586 1.62334 9.64677 1.64645 9.46902C1.78822 8.38027 2.65462 7.70503 3.70269 7.70503C4.75076 7.70503 5.61716 8.3803 5.75894 9.46902C5.78204 9.6468 5.94026 9.77586 6.11924 9.77586H10.656C10.8554 9.77586 11.0172 9.61364 11.0172 9.41379V0.362069C11.0172 0.162221 10.8554 0 10.656 0H0.361221C0.161635 0 0 0.162221 0 0.362069V9.41379C0 9.61367 0.161635 9.77586 0.361221 9.77586Z" fill="#152935"/>
<path d="M3.64658 8.3793C2.83373 8.3793 2.17244 9.07558 2.17244 9.93102C2.17244 10.7866 2.83373 11.4827 3.64658 11.4827C4.45925 11.4827 5.12072 10.7866 5.12072 9.93102C5.12072 9.07558 4.45925 8.3793 3.64658 8.3793ZM3.64658 10.3874C3.40743 10.3874 3.21301 10.1828 3.21301 9.93102C3.21301 9.67929 3.40743 9.47463 3.64658 9.47463C3.88572 9.47463 4.08015 9.67929 4.08015 9.93102C4.08015 10.1828 3.88572 10.3874 3.64658 10.3874Z" fill="#152935"/>
</svg>
