<svg width="30" height="30" viewBox="0 0 30 30" fill="none" xmlns="http://www.w3.org/2000/svg">
<g clip-path="url(#clip0)">
<path d="M22.8487 15.2279L22.4462 13.1797C22.336 12.6047 22.1458 12.1656 21.8646 11.8375C21.5022 11.4146 20.994 11.1911 20.3945 11.1911H18.7422V8.375C18.7422 7.98663 18.4274 7.67188 18.0391 7.67188H15.6836C15.2952 7.67188 14.9805 7.98663 14.9805 8.375C14.9805 8.76337 15.2952 9.07812 15.6836 9.07812H17.3359V15.1989H10.5156C10.1273 15.1989 9.8125 15.5136 9.8125 15.902C9.8125 16.2902 10.1273 16.6051 10.5156 16.6051H22.2227C22.2879 16.6051 22.3506 16.5955 22.4105 16.5789C23.0755 16.655 23.5938 17.2209 23.5938 17.9059V19.734H22.0665C21.7763 18.9156 20.9948 18.3278 20.0781 18.3278C19.1615 18.3278 18.3799 18.9156 18.0897 19.734H13.7345C13.4443 18.9156 12.6628 18.3278 11.7461 18.3278C10.83 18.3278 10.0488 18.915 9.75812 19.7327C9.00789 19.704 8.40625 19.0849 8.40625 18.3278V9.07812H10.0586C10.447 9.07812 10.7617 8.76337 10.7617 8.375C10.7617 7.98663 10.447 7.67188 10.0586 7.67188H7.70312C7.31476 7.67188 7 7.98663 7 8.375V18.3278C7 19.86 8.23184 21.1091 9.75716 21.1388C10.0471 21.9579 10.829 22.5465 11.7461 22.5465C12.6628 22.5465 13.4443 21.9586 13.7345 21.1403H18.0897C18.3799 21.9586 19.1615 22.5465 20.0781 22.5465C20.9948 22.5465 21.7763 21.9586 22.0665 21.1403H24.2969C24.6852 21.1403 25 20.8254 25 20.4372V17.9059C25 16.5966 24.0777 15.4988 22.8487 15.2279ZM18.7422 12.5973H20.3945C20.6092 12.5973 20.9031 12.5973 21.0654 13.4457C21.0655 13.4468 21.0658 13.4481 21.0661 13.4493L21.4099 15.1989H18.7422V12.5973ZM11.7461 21.1403C11.3584 21.1403 11.043 20.8248 11.043 20.4372C11.043 20.0493 11.3584 19.734 11.7461 19.734C12.1338 19.734 12.4492 20.0493 12.4492 20.4372C12.4492 20.8248 12.1338 21.1403 11.7461 21.1403ZM20.0781 21.1403C19.6904 21.1403 19.375 20.8248 19.375 20.4372C19.375 20.0493 19.6904 19.734 20.0781 19.734C20.4658 19.734 20.7812 20.0493 20.7812 20.4372C20.7812 20.8248 20.4658 21.1403 20.0781 21.1403ZM11.0871 10.8035L12.168 11.9015V6.125C12.168 5.73663 12.4827 5.42188 12.8711 5.42188C13.2595 5.42188 13.5742 5.73663 13.5742 6.125V11.866L14.6551 10.7681C14.9276 10.4912 15.3728 10.4878 15.6495 10.7603C15.9263 11.0327 15.9297 11.478 15.6574 11.7547L14.0948 13.3416C13.7639 13.6778 13.323 13.8629 12.8537 13.8629C12.3841 13.8629 11.9434 13.6778 11.6125 13.3416L10.0848 11.7901C9.81236 11.5134 9.81593 11.0682 10.0927 10.7957C10.3694 10.5232 10.8146 10.5267 11.0871 10.8035Z" fill="#0086DA"/>
</g>
<defs>
<clipPath id="clip0">
<rect x="7" y="5" width="18" height="18" fill="white"/>
</clipPath>
</defs>
</svg>
