<svg width="14" height="14" viewBox="0 0 14 14" fill="none" xmlns="http://www.w3.org/2000/svg">
<path fill-rule="evenodd" clip-rule="evenodd" d="M12.1253 11.5112C12.176 11.3512 12.2033 11.1811 12.2033 11.0047C12.2033 10.1337 11.5366 9.41423 10.6832 9.32319L12.1253 11.5112ZM6.976 5.51544L5.1975 6.54491C5.22667 6.67813 5.25 6.81134 5.25 6.95035C5.25 7.08936 5.22667 7.22257 5.1975 7.35579L9.35667 9.75945C9.44291 9.68205 9.5367 9.61261 9.63696 9.55287L11.4971 12.3752C11.2166 12.5769 10.872 12.696 10.5 12.696C9.56083 12.696 8.79667 11.9372 8.79667 11.0047C8.79667 10.8773 8.81417 10.7499 8.84333 10.6282L4.69 8.21879C4.375 8.50839 3.96083 8.68794 3.5 8.68794C2.53167 8.68794 1.75 7.91181 1.75 6.95035C1.75 5.98888 2.53167 5.21276 3.5 5.21276C3.96083 5.21276 4.375 5.39231 4.69 5.68191L6.42414 4.67811L6.976 5.51544ZM7.84292 5.01362L9.31 4.16441C9.625 4.45401 10.0392 4.63356 10.5 4.63356C11.4683 4.63356 12.25 3.85744 12.25 2.89597C12.25 1.93451 11.4683 1.15839 10.5 1.15839C9.53167 1.15839 8.75 1.93451 8.75 2.89597C8.75 3.03498 8.77333 3.1682 8.8025 3.30141L7.29106 4.1763L7.84292 5.01362Z" fill="#5A6872"/>
<line x1="3.41106" y1="0.718278" x2="12.4111" y2="13.7151" stroke="#5A6872"/>
</svg>
