<svg width="15" height="15" viewBox="0 0 15 15" fill="none" xmlns="http://www.w3.org/2000/svg">
<path d="M7.5 0C3.34091 0 0 3.34091 0 7.5C0 11.6591 3.34091 15 7.5 15C11.6591 15 15 11.6591 15 7.5C15 3.34091 11.6591 0 7.5 0ZM8.59091 7.63636L11.1477 10.1932C11.2159 10.2614 11.25 10.3636 11.25 10.4318C11.25 10.5 11.2159 10.6023 11.1477 10.6705L10.6705 11.1477C10.6023 11.2159 10.5 11.25 10.4318 11.25C10.3295 11.25 10.2614 11.2159 10.1932 11.1477L7.63636 8.59091C7.56818 8.52273 7.46591 8.52273 7.39773 8.59091L4.84091 11.1477C4.77273 11.2159 4.67045 11.25 4.60227 11.25C4.5 11.25 4.43182 11.2159 4.36364 11.1477L3.88636 10.6705C3.81818 10.6023 3.78409 10.5 3.78409 10.4318C3.78409 10.3636 3.81818 10.2614 3.88636 10.1932L6.44318 7.63636C6.51136 7.56818 6.51136 7.46591 6.44318 7.39773L3.88636 4.84091C3.81818 4.77273 3.78409 4.67045 3.78409 4.60227C3.78409 4.53409 3.81818 4.43182 3.88636 4.36364L4.36364 3.88636C4.43182 3.81818 4.53409 3.78409 4.60227 3.78409C4.67045 3.78409 4.77273 3.81818 4.84091 3.88636L7.39773 6.44318C7.46591 6.51136 7.56818 6.51136 7.63636 6.44318L10.1932 3.88636C10.2614 3.81818 10.3636 3.78409 10.4318 3.78409C10.5341 3.78409 10.6023 3.81818 10.6705 3.88636L11.1477 4.36364C11.2159 4.43182 11.25 4.53409 11.25 4.60227C11.25 4.67045 11.2159 4.77273 11.1477 4.84091L8.59091 7.39773C8.52273 7.43182 8.52273 7.56818 8.59091 7.63636Z" fill="#D80027"/>
</svg>
