<svg width="16" height="16" viewBox="0 0 16 16" fill="none" xmlns="http://www.w3.org/2000/svg">
<circle cx="8" cy="8" r="8" fill="#6FCF97"/>
<path d="M4.18408 9.89697L5.36182 6.24512H6.19238L4.4873 11H3.86768L2.14502 6.24512H2.97559L4.18408 9.89697ZM7.85791 11H7.04492V6.24512H7.85791V11ZM6.979 4.98389C6.979 4.85205 7.01855 4.74072 7.09766 4.6499C7.17969 4.55908 7.2998 4.51367 7.45801 4.51367C7.61621 4.51367 7.73633 4.55908 7.81836 4.6499C7.90039 4.74072 7.94141 4.85205 7.94141 4.98389C7.94141 5.11572 7.90039 5.22559 7.81836 5.31348C7.73633 5.40137 7.61621 5.44531 7.45801 5.44531C7.2998 5.44531 7.17969 5.40137 7.09766 5.31348C7.01855 5.22559 6.979 5.11572 6.979 4.98389ZM12.0986 11C12.0518 10.9062 12.0137 10.7393 11.9844 10.499C11.6064 10.8916 11.1553 11.0879 10.6309 11.0879C10.1621 11.0879 9.77686 10.9561 9.4751 10.6924C9.17627 10.4258 9.02686 10.0889 9.02686 9.68164C9.02686 9.18652 9.21436 8.80273 9.58936 8.53027C9.96729 8.25488 10.4976 8.11719 11.1802 8.11719H11.9712V7.74365C11.9712 7.45947 11.8862 7.23389 11.7163 7.06689C11.5464 6.89697 11.2959 6.81201 10.9648 6.81201C10.6748 6.81201 10.4316 6.88525 10.2354 7.03174C10.0391 7.17822 9.94092 7.35547 9.94092 7.56348H9.12354C9.12354 7.32617 9.20703 7.09766 9.37402 6.87793C9.54395 6.65527 9.77246 6.47949 10.0596 6.35059C10.3496 6.22168 10.6675 6.15723 11.0132 6.15723C11.561 6.15723 11.9902 6.29492 12.3008 6.57031C12.6113 6.84277 12.7725 7.21924 12.7842 7.69971V9.88818C12.7842 10.3247 12.8398 10.6719 12.9512 10.9297V11H12.0986ZM10.7495 10.3804C11.0044 10.3804 11.2461 10.3145 11.4746 10.1826C11.7031 10.0508 11.8687 9.87939 11.9712 9.66846V8.69287H11.334C10.3379 8.69287 9.83984 8.98438 9.83984 9.56738C9.83984 9.82227 9.9248 10.0215 10.0947 10.165C10.2646 10.3086 10.4829 10.3804 10.7495 10.3804Z" fill="white"/>
</svg>
