<svg width="50" height="46" viewBox="0 0 50 46" fill="none" xmlns="http://www.w3.org/2000/svg">
<path d="M24.9997 32.1196C23.6019 32.1196 22.4302 33.2913 22.4302 34.6892C22.4302 36.087 23.6019 37.2587 24.9997 37.2587C26.3462 37.2587 27.5693 36.087 27.5076 34.7508C27.5693 33.281 26.4079 32.1196 24.9997 32.1196Z" fill="#D80027"/>
<path d="M48.7833 41.2262C50.397 38.4407 50.4073 35.1209 48.8039 32.3457L32.7081 4.47105C31.115 1.66508 28.237 0 25.0097 0C21.7823 0 18.9044 1.67536 17.3112 4.46077L1.1949 32.3663C-0.408512 35.1723 -0.398234 38.5127 1.22573 41.2981C2.82914 44.0527 5.69678 45.7075 8.9036 45.7075H41.054C44.2711 45.7075 47.1593 44.0321 48.7833 41.2262ZM45.2887 39.2116C44.3945 40.7534 42.8116 41.6681 41.0438 41.6681H8.89333C7.14602 41.6681 5.57344 40.7739 4.69979 39.263C3.81586 37.7315 3.80558 35.902 4.68951 34.3603L20.8058 6.46503C21.6795 4.93357 23.2418 4.02908 25.0097 4.02908C26.7672 4.02908 28.3398 4.94385 29.2135 6.47531L45.3195 34.3705C46.1829 35.8712 46.1726 37.6801 45.2887 39.2116Z" fill="#D80027"/>
<path d="M24.3621 14.0812C23.139 14.4307 22.3784 15.5407 22.3784 16.8872C22.4401 17.6992 22.4915 18.5214 22.5531 19.3334C22.7279 22.4272 22.9026 25.4593 23.0773 28.553C23.139 29.6014 23.951 30.362 24.9994 30.362C26.0478 30.362 26.87 29.55 26.9214 28.4913C26.9214 27.8541 26.9214 27.2682 26.9831 26.6207C27.0961 24.637 27.2195 22.6533 27.3326 20.6696C27.3942 19.3848 27.5073 18.1 27.569 16.8152C27.569 16.3527 27.5073 15.9416 27.3326 15.5304C26.8084 14.3793 25.5852 13.7934 24.3621 14.0812Z" fill="#D80027"/>
</svg>
