<svg width="16" height="17" viewBox="0 0 16 17" fill="none" xmlns="http://www.w3.org/2000/svg">
<path d="M0.398514 15.67L1.47307 11.7487C0.80965 10.6009 0.462364 9.29897 0.462364 7.96589C0.463922 3.79379 3.85891 0.398804 8.03256 0.398804C10.0571 0.400361 11.957 1.18837 13.3867 2.618C14.8148 4.04764 15.6028 5.94914 15.6012 7.97056C15.5996 12.1442 12.2031 15.5376 8.03256 15.5376C8.03101 15.5376 8.03256 15.5376 8.03256 15.5376H8.02945C6.76178 15.5376 5.51747 15.2199 4.41176 14.6173L0.398514 15.67Z" fill="white"/>
<path d="M0.398551 15.8694C0.345601 15.8694 0.295767 15.8476 0.256833 15.8102C0.206999 15.7588 0.188311 15.6856 0.206999 15.6171L1.2582 11.7751C0.607233 10.6165 0.263063 9.30052 0.263063 7.96589C0.26462 3.68322 3.74993 0.199463 8.0326 0.199463C10.1085 0.20102 12.0599 1.00928 13.5269 2.47784C14.9939 3.94485 15.8021 5.89619 15.8006 7.97056C15.799 12.2532 12.3137 15.737 8.0326 15.737C6.76026 15.737 5.50349 15.424 4.38688 14.8291L0.449943 15.8616C0.432812 15.8662 0.415681 15.8694 0.398551 15.8694Z" fill="white"/>
<path d="M8.03268 0.398677C10.0572 0.400235 11.9572 1.18825 13.3868 2.61788C14.8149 4.04751 15.6029 5.94901 15.6013 7.97043C15.5998 12.1441 12.2032 15.5375 8.03268 15.5375H8.02956C6.76189 15.5375 5.51758 15.2198 4.41188 14.6171L0.398629 15.6699L1.47319 11.7485C0.809765 10.6008 0.46248 9.29884 0.46248 7.96576C0.464037 3.79366 3.85902 0.398677 8.03268 0.398677ZM8.03268 0C3.63944 0 0.0653597 3.57252 0.0638025 7.96576C0.0638025 9.30818 0.401744 10.6304 1.04492 11.8015L0.0139677 15.564C-0.0234083 15.7026 0.015525 15.849 0.115194 15.9502C0.191504 16.0265 0.294288 16.0686 0.398629 16.0686C0.43289 16.0686 0.467152 16.0639 0.499856 16.0546L4.36204 15.0423C5.48955 15.6278 6.75411 15.9362 8.02956 15.9378C12.4244 15.9378 15.9984 12.3637 16 7.97199C16.0016 5.84312 15.1731 3.84194 13.6687 2.336C12.1643 0.830059 10.1616 0.00155723 8.03268 0Z" fill="#E9F2F6"/>
<path d="M12.482 3.52101C11.2937 2.33276 9.71461 1.67712 8.03425 1.67712C4.56451 1.67712 1.74106 4.49746 1.7395 7.96564C1.7395 9.15388 2.07277 10.311 2.70193 11.3123L2.85144 11.5506L2.21605 13.871L4.59721 13.2466L4.8277 13.3836C5.79324 13.9567 6.90051 14.2604 8.02957 14.2604H8.03269C11.4993 14.2604 14.3212 11.4385 14.3228 7.97031C14.3243 6.28995 13.6702 4.70925 12.482 3.52101Z" fill="#40C351"/>
<path fill-rule="evenodd" clip-rule="evenodd" d="M6.14064 4.80272C5.99893 4.48658 5.84942 4.48035 5.71393 4.47568C5.60336 4.47101 5.47722 4.47101 5.35107 4.47101C5.22649 4.47101 5.02092 4.51773 4.84806 4.70772C4.67363 4.89616 4.18463 5.35402 4.18463 6.2853C4.18463 7.21503 4.86363 8.11517 4.95707 8.24131C5.05207 8.3659 6.26679 10.3375 8.18854 11.0959C9.78636 11.7251 10.1118 11.6005 10.4576 11.5693C10.8049 11.5366 11.5773 11.1115 11.7346 10.6692C11.8919 10.2285 11.8919 9.85004 11.8452 9.77062C11.7984 9.69119 11.6723 9.64447 11.4823 9.54947C11.2939 9.45448 10.3641 8.99818 10.1897 8.93433C10.0168 8.87203 9.8907 8.84089 9.76456 9.02932C9.63841 9.21776 9.27556 9.64447 9.16498 9.77062C9.05441 9.89676 8.9454 9.91233 8.75541 9.81889C8.56697 9.7239 7.95805 9.52456 7.23545 8.87982C6.67325 8.37836 6.29326 7.7601 6.18269 7.5701C6.07212 7.38167 6.17023 7.27888 6.26523 7.18388C6.35088 7.09979 6.45522 6.96274 6.55022 6.85217C6.64366 6.7416 6.67481 6.66373 6.73866 6.53759C6.80095 6.41145 6.76981 6.30088 6.72309 6.20588C6.67637 6.11088 6.30883 5.17648 6.14064 4.80272Z" fill="white"/>
</svg>
