<svg width="20" height="20" viewBox="0 0 20 20" fill="none" xmlns="http://www.w3.org/2000/svg">
<path d="M16.5675 9.28015C17.0946 8.89124 17.4436 8.24431 17.4436 7.51511C17.4436 6.32222 16.5247 5.35743 15.3886 5.35743C14.2525 5.35743 13.3336 6.32222 13.3336 7.51511C13.3336 8.24431 13.6791 8.89124 14.2097 9.28015C13.7574 9.44469 13.3443 9.69897 12.9953 10.028C12.5144 9.59801 11.9482 9.26893 11.3285 9.07448C12.0799 8.59582 12.5857 7.72453 12.5857 6.73356C12.5857 5.22281 11.4211 4 9.98219 4C8.54333 4 7.37871 5.22655 7.37871 6.73356C7.37871 7.72453 7.88089 8.59582 8.63593 9.07448C8.02335 9.26893 7.46419 9.59427 6.98694 10.0168C6.63791 9.69523 6.2319 9.44469 5.7867 9.28389C6.31381 8.89498 6.66284 8.24805 6.66284 7.51885C6.66284 6.32596 5.74397 5.36117 4.60784 5.36117C3.47171 5.36117 2.55283 6.32596 2.55283 7.51885C2.55283 8.24805 2.8983 8.89498 3.42897 9.28389C2.01504 9.7962 1 11.206 1 12.8626V13.1094C1 13.1169 1.00712 13.1243 1.01425 13.1243H5.37C5.34507 13.33 5.33083 13.5432 5.33083 13.7563V14.0106C5.33083 15.11 6.17847 16 7.22556 16H12.7459C13.793 16 14.6407 15.11 14.6407 14.0106V13.7563C14.6407 13.5432 14.6264 13.33 14.6015 13.1243H18.9858C18.9929 13.1243 19 13.1169 19 13.1094V12.8626C18.9929 11.2022 17.9814 9.79246 16.5675 9.28015ZM13.9034 7.51137C13.9034 6.65129 14.5695 5.95201 15.3886 5.95201C16.2078 5.95201 16.8738 6.65129 16.8738 7.51137C16.8738 8.36024 16.222 9.05204 15.4171 9.07074C15.4064 9.07074 15.3993 9.07074 15.3886 9.07074C15.3779 9.07074 15.3708 9.07074 15.3601 9.07074C14.5516 9.05578 13.9034 8.36398 13.9034 7.51137ZM7.94143 6.73356C7.94143 5.55563 8.85319 4.59832 9.97507 4.59832C11.097 4.59832 12.0087 5.55563 12.0087 6.73356C12.0087 7.87037 11.1575 8.8015 10.0926 8.86507C10.0534 8.86507 10.0142 8.86507 9.97507 8.86507C9.93589 8.86507 9.89672 8.86507 9.85754 8.86507C8.79264 8.8015 7.94143 7.87037 7.94143 6.73356ZM3.11199 7.51137C3.11199 6.65129 3.778 5.95201 4.59715 5.95201C5.4163 5.95201 6.08231 6.65129 6.08231 7.51137C6.08231 8.36024 5.43055 9.05204 4.62564 9.07074C4.61496 9.07074 4.60784 9.07074 4.59715 9.07074C4.58647 9.07074 4.57934 9.07074 4.56866 9.07074C3.76375 9.05578 3.11199 8.36398 3.11199 7.51137ZM5.46973 12.5223H1.57697C1.73724 10.9293 3.01939 9.68027 4.57578 9.66906C4.5829 9.66906 4.59003 9.66906 4.59715 9.66906C4.60427 9.66906 4.6114 9.66906 4.61852 9.66906C5.35932 9.6728 6.03601 9.96074 6.55956 10.4282C6.0467 11.0115 5.66561 11.7295 5.46973 12.5223ZM14.0637 14.0106C14.0637 14.7772 13.4689 15.4017 12.7388 15.4017H7.21844C6.48833 15.4017 5.89355 14.7772 5.89355 14.0106V13.7563C5.89355 11.4341 7.66007 9.53443 9.85754 9.46712C9.89672 9.47086 9.93945 9.47086 9.97863 9.47086C10.0178 9.47086 10.0605 9.47086 10.0997 9.46712C12.2972 9.53443 14.0637 11.4341 14.0637 13.7563V14.0106V14.0106ZM14.4875 12.5223C14.2917 11.7333 13.9177 11.0265 13.4084 10.4431C13.9355 9.96447 14.6193 9.67654 15.3672 9.66906C15.3744 9.66906 15.3815 9.66906 15.3886 9.66906C15.3957 9.66906 15.4028 9.66906 15.41 9.66906C16.9664 9.68027 18.2485 10.9293 18.4088 12.5223H14.4875Z" fill="#5A6872" stroke="#5A6872" stroke-width="0.4"/>
</svg>
