<?xml version="1.0" encoding="UTF-8"?>
<svg width="17px" height="17px" viewBox="0 0 17 17" version="1.1" xmlns="http://www.w3.org/2000/svg" xmlns:xlink="http://www.w3.org/1999/xlink">
    <!-- Generator: Sketch 49.2 (51160) - http://www.bohemiancoding.com/sketch -->
    <title>alert</title>
    <desc>Created with Sketch.</desc>
    <defs></defs>
    <g id="Symbols" stroke="none" stroke-width="1" fill="none" fill-rule="evenodd">
        <g id="organisms/navigation-drawer" transform="translate(-24.000000, -357.000000)" fill="#7D7D7D">
            <g id="navigation-drawer" transform="translate(0.000000, 0.500000)">
                <g id="nav-list" transform="translate(24.000000, 354.000000)">
                    <g id="list-item">
                        <g id="Alert" transform="translate(0.000000, 3.000000)">
                            <path d="M8.32,16.26 C7.853331,16.26 7.4566683,16.1000016 7.13,15.78 C6.8033317,15.4599984 6.64,15.0733356 6.64,14.62 L9.96,14.62 C9.96,15.1000024 9.8033349,15.4933318 9.49,15.8 C9.1766651,16.1066682 8.786669,16.26 8.32,16.26 Z M13.32,7.12 L13.32,11.26 L15,12.94 L15,13.76 L1.64,13.76 L1.64,12.94 L3.32,11.26 L3.32,7.12 C3.32,5.8133268 3.6466634,4.6866714 4.3,3.74 C4.96667,2.7666618 5.8933274,2.1333348 7.08,1.84 L7.08,1.26 C7.08,0.9133316 7.1999988,0.6166679 7.44,0.37 C7.6800012,0.1233321 7.9733316,0 8.32,0 C8.6666684,0 8.9633321,0.1233321 9.21,0.37 C9.4566679,0.6166679 9.58,0.9133316 9.58,1.26 L9.58,1.84 C10.7533392,2.1333348 11.67333,2.7733284 12.34,3.76 C12.9933366,4.7066714 13.32,5.8266602 13.32,7.12 Z M14.96,6.68 C14.9066664,5.5866612 14.613336,4.5666714 14.08,3.62 C13.5733308,2.7133288 12.8933376,1.9533364 12.04,1.34 L13.2,0.16 C14.2133384,0.9333372 15.019997,1.8799944 15.62,3 C16.2466698,4.1466724 16.5866664,5.3733268 16.64,6.68 L14.96,6.68 Z M4.64,1.34 C3.773329,1.9533364 3.0800026,2.7133288 2.56,3.62 C2.026664,4.5666714 1.7333336,5.5866612 1.68,6.68 L0,6.68 C0.0533336,5.3733268 0.3933302,4.1466724 1.02,3 C1.620003,1.8799944 2.4266616,0.9333372 3.44,0.16 L4.64,1.34 Z" id="alert"></path>
                        </g>
                    </g>
                </g>
            </g>
        </g>
    </g>
</svg>