<svg width="20" height="20" viewBox="0 0 20 20" fill="none" xmlns="http://www.w3.org/2000/svg">
<g clip-path="url(#clip0)">
<path d="M13.4892 5.87531H12.9055V9.37714H13.4892C13.8112 9.37714 14.0728 9.11556 14.0728 8.7935V6.45894C14.0728 6.13688 13.8112 5.87531 13.4892 5.87531Z" fill="#7D7D7D"/>
<path d="M6.48061 8.20984H5.89697V9.37712H6.48061C6.80268 9.37712 7.06425 9.11554 7.06425 8.79348C7.06425 8.47141 6.80268 8.20984 6.48061 8.20984Z" fill="#7D7D7D"/>
<path d="M6.48061 5.87531H5.89697V7.04258H6.48061C6.80268 7.04258 7.06425 6.78101 7.06425 6.45894C7.06425 6.13688 6.80268 5.87531 6.48061 5.87531Z" fill="#7D7D7D"/>
<path d="M17.5777 11.3697V3.88272L13.7312 0H6.23905L2.39258 3.88272V11.3697L6.23905 15.2135H13.7312L17.5777 11.3697ZM8.23302 8.79349C8.23302 9.75892 7.44699 10.5444 6.48089 10.5444H4.72875V4.70802H6.48089C7.44699 4.70802 8.23302 5.4935 8.23302 6.45893C8.23302 6.90897 8.0575 7.3157 7.77734 7.62621C8.0575 7.93673 8.23302 8.34345 8.23302 8.79349ZM10.5692 10.5444H9.4011V4.70802H10.5692V10.5444ZM11.7373 10.5444V4.70802H13.4894C14.4555 4.70802 15.2415 5.4935 15.2415 6.45893V8.79349C15.2415 9.75892 14.4555 10.5444 13.4894 10.5444H11.7373Z" fill="#7D7D7D"/>
<path d="M8.81714 16.3808H11.1533V19.9215H8.81714V16.3808Z" fill="#7D7D7D"/>
</g>
<defs>
<clipPath id="clip0">
<rect width="19.9354" height="19.9215" fill="white" transform="translate(0.0175781)"/>
</clipPath>
</defs>
</svg>
