<svg width="20" height="20" viewBox="0 0 20 20" fill="none" xmlns="http://www.w3.org/2000/svg">
<g clip-path="url(#clip0)">
<path d="M13.489 5.875H12.9054V9.37683H13.489C13.8111 9.37683 14.0727 9.11526 14.0727 8.79319V6.45864C14.0727 6.13657 13.8111 5.875 13.489 5.875Z" fill="#0086DA"/>
<path d="M6.48049 8.20996H5.89685V9.37724H6.48049C6.80255 9.37724 7.06413 9.11566 7.06413 8.7936C7.06413 8.47153 6.80255 8.20996 6.48049 8.20996Z" fill="#0086DA"/>
<path d="M6.48049 5.875H5.89685V7.04228H6.48049C6.80255 7.04228 7.06413 6.7807 7.06413 6.45864C7.06413 6.13657 6.80255 5.875 6.48049 5.875Z" fill="#0086DA"/>
<path d="M17.5777 11.3697V3.88272L13.7312 0H6.23905L2.39258 3.88272V11.3697L6.23905 15.2135H13.7312L17.5777 11.3697ZM8.23302 8.79349C8.23302 9.75892 7.44699 10.5444 6.48089 10.5444H4.72875V4.70802H6.48089C7.44699 4.70802 8.23302 5.4935 8.23302 6.45893C8.23302 6.90897 8.0575 7.3157 7.77734 7.62621C8.0575 7.93673 8.23302 8.34345 8.23302 8.79349ZM10.5692 10.5444H9.4011V4.70802H10.5692V10.5444ZM11.7373 10.5444V4.70802H13.4894C14.4555 4.70802 15.2415 5.4935 15.2415 6.45893V8.79349C15.2415 9.75892 14.4555 10.5444 13.4894 10.5444H11.7373Z" fill="#0086DA"/>
<path d="M8.81702 16.3809H11.1532V19.9216H8.81702V16.3809Z" fill="#0086DA"/>
</g>
<defs>
<clipPath id="clip0">
<rect width="19.9354" height="19.9215" fill="white" transform="translate(0.0174561)"/>
</clipPath>
</defs>
</svg>
