<svg width="23" height="14" viewBox="0 0 23 14" fill="none" xmlns="http://www.w3.org/2000/svg">
<path d="M10.3681 12.9924C10.2395 12.9924 10.0851 12.9666 9.98219 12.8637C9.77637 12.6836 9.75064 12.3492 9.93074 12.1433L10.9341 10.9856C11.1142 10.7798 11.4487 10.7541 11.6545 10.9342C11.8603 11.1142 11.886 11.4487 11.7059 11.6545L10.7026 12.8123C10.6254 12.9152 10.4967 12.9666 10.3681 12.9924Z" fill="#0086DA"/>
<path d="M8.79885 12.4005C8.61876 12.4263 8.46439 12.3748 8.31003 12.2462C8.05276 12.0146 8.02703 11.603 8.25857 11.3457L9.44204 9.98215C9.67358 9.72487 10.0852 9.69915 10.3425 9.93069C10.5998 10.1622 10.6255 10.5739 10.394 10.8312L9.21049 12.1947C9.10758 12.3233 8.95322 12.4005 8.79885 12.4005Z" fill="#0086DA"/>
<path d="M7.17798 11.4488C6.97216 11.4746 6.76634 11.3974 6.61198 11.2687C6.30325 10.9857 6.25179 10.4969 6.53479 10.1882L7.71826 8.82462C8.00126 8.51589 8.49008 8.46444 8.79881 8.74744C9.10754 9.03044 9.15899 9.51926 8.87599 9.82799L7.69253 11.1915C7.56389 11.3459 7.35807 11.4488 7.17798 11.4488Z" fill="#0086DA"/>
<path d="M5.29981 10.4968C5.09399 10.5226 4.88817 10.4454 4.7338 10.3167C4.42507 10.0337 4.37362 9.54492 4.65662 9.23619L6.02018 7.69254C6.30318 7.38381 6.792 7.33236 7.10073 7.61536C7.40946 7.89836 7.46091 8.38718 7.17791 8.69591L5.81436 10.2396C5.65999 10.3939 5.4799 10.4711 5.29981 10.4968Z" fill="#0086DA"/>
<path d="M0 4.83676L1.98101 6.04595C2.21256 6.20032 2.54702 6.12313 2.67565 5.86586L5.06831 1.90383C5.22267 1.67228 5.14549 1.33783 4.88822 1.20919L2.93293 0L0 4.83676Z" fill="#0086DA"/>
<path d="M16.6715 8.20702L12.5293 4.65663L12.2463 4.39935L10.4711 6.43182C10.2139 6.74055 9.85369 6.92064 9.44205 6.94637C9.39059 6.94637 9.33914 6.94637 9.31341 6.94637C8.9275 6.94637 8.56732 6.81773 8.31004 6.56046C7.66686 5.99446 7.6154 5.01681 8.15568 4.37363L9.6736 2.62416C8.49013 2.46979 6.97221 3.08725 5.40284 2.31543L3.16455 6.02018L4.91402 8.05265L5.58293 7.28083C5.81448 6.99783 6.17466 6.84346 6.56057 6.84346C6.8693 6.84346 7.17803 6.94637 7.40958 7.15219C7.69258 7.38374 7.82122 7.71819 7.84695 8.07838C7.97558 8.02692 8.12995 8.0012 8.28431 8.0012C8.59304 8.0012 8.90177 8.10411 9.13332 8.30993C9.41632 8.5672 9.57069 8.90166 9.57069 9.26184C9.6736 9.23611 9.80223 9.21039 9.90514 9.21039C10.1881 9.21039 10.4454 9.3133 10.677 9.49339C10.9085 9.69921 11.0372 9.98221 11.0629 10.2909C11.1401 10.2652 11.243 10.2395 11.3459 10.2395C11.6032 10.2395 11.8347 10.3167 12.0148 10.4968C12.2206 10.6769 12.3493 10.9341 12.375 11.1914C12.4007 11.4744 12.2978 11.7317 12.1177 11.9375L11.243 12.9409L11.6032 13.2239C11.7832 13.3268 11.9891 13.404 12.2206 13.3782C12.7866 13.3268 13.1983 12.838 13.1468 12.272V12.2462C13.224 12.272 13.3269 12.272 13.4041 12.272C13.9701 12.2205 14.3817 11.7317 14.3303 11.1657V11.1399C14.4074 11.1657 14.5104 11.1657 14.5875 11.1657C15.1535 11.1142 15.5652 10.6254 15.5137 10.0594C15.5137 10.0079 15.488 9.95648 15.488 9.90503C15.6424 9.98221 15.8225 10.0337 16.0283 10.0079C16.5943 9.95648 17.0059 9.46766 16.9545 8.90166C16.9802 8.61865 16.8516 8.38711 16.6715 8.20702Z" fill="#0086DA"/>
<path d="M22.3313 4.83676L20.3503 6.04595C20.1188 6.20032 19.7843 6.12313 19.6557 5.86586L17.263 1.90383C17.1087 1.67228 17.1859 1.33783 17.4431 1.20919L19.4241 0L22.3313 4.83676Z" fill="#0086DA"/>
<path d="M16.9542 2.41837C14.8188 3.19019 13.2752 2.4441 11.5514 2.10964C11.5257 2.10964 11.4228 2.08391 11.4228 2.08391C11.1141 2.05818 10.7796 2.16109 10.5481 2.41837L8.5156 4.73384C8.12969 5.17121 8.18114 5.81439 8.61851 6.17458C8.85005 6.35467 9.10733 6.45758 9.39033 6.43185C9.64761 6.40612 9.90488 6.30321 10.085 6.07167L12.1946 3.65329L17.0057 7.7954C17.1343 7.92404 17.1857 7.9755 17.2887 8.12986L19.141 5.99448L16.9542 2.41837Z" fill="#0086DA"/>
</svg>
