<?xml version="1.0" encoding="UTF-8"?>
<svg width="20px" height="13px" viewBox="0 0 20 13" version="1.1" xmlns="http://www.w3.org/2000/svg" xmlns:xlink="http://www.w3.org/1999/xlink">
    <!-- Generator: Sketch 50.2 (55047) - http://www.bohemiancoding.com/sketch -->
    <title>handshake-o - FontAwesome</title>
    <desc>Created with Sketch.</desc>
    <defs></defs>
    <g id="Page-2" stroke="none" stroke-width="1" fill="none" fill-rule="evenodd">
        <g id="Live-Tracking" transform="translate(-25.000000, -632.000000)" fill="#00A3DA">
            <g id="navigation-drawer" transform="translate(-1.000000, -0.500000)">
                <g id="nav-list" transform="translate(25.000000, 480.000000)">
                    <g id="list-item" transform="translate(1.000000, 147.000000)">
                        <path d="M1.66666667,13.5036256 C2.39583333,13.5036256 2.39583333,12.3602505 1.66666667,12.3602505 C0.9375,12.3602505 0.9375,13.5036256 1.66666667,13.5036256 Z M15.8333333,13.5036256 C15.78125,13.0391295 15.5815972,12.6103638 15.3125,12.2530591 C14.8871528,11.6903042 14.4704861,11.109684 14.0364583,10.5558617 C13.7152778,10.1628265 13.359375,9.77872394 13.0295139,9.38568876 C13.2118056,8.8050686 12.4826389,8.37630294 12.0833333,8.83186645 L10.4079861,10.7791771 C9.89583333,11.3687299 8.984375,11.3597973 8.48958333,10.7523793 C8.17708333,10.3593441 8.17708333,9.8055218 8.49826389,9.41248661 L10.3125,7.24186048 C10.625,6.86669053 11.09375,6.64337508 11.5798611,6.64337508 L13.0295139,6.64337508 C13.5850694,6.64337508 14.1319444,6.89348838 14.4965278,7.32225404 L15.859375,8.93012525 L16.6666667,8.93012525 L16.6666667,13.5036256 L15.8333333,13.5036256 Z M18.3333333,13.5036256 C19.0625,13.5036256 19.0625,12.3602505 18.3333333,12.3602505 C17.6041667,12.3602505 17.6041667,13.5036256 18.3333333,13.5036256 Z M20,8.35843771 L20,14.0753131 C20,14.3879547 19.7482639,14.6470007 19.4444444,14.6470007 L15.6770833,14.6470007 C15.3645833,15.4241384 14.6788194,15.9422302 13.8802083,16.0583543 C13.5069444,16.6211092 12.9340278,17.0498749 12.2916667,17.1927967 C11.8142361,17.81808 11.0416667,18.1932499 10.2690972,18.1396542 C8.83680556,18.9703877 7.22222222,18.2468456 6.15451389,17.1659989 L3.66319444,14.6470007 L0.555555556,14.6470007 C0.251736111,14.6470007 0,14.3879547 0,14.0753131 L0,8.07259394 C0,7.75995231 0.251736111,7.50090639 0.555555556,7.50090639 L4.21006944,7.50090639 C5.21701389,6.46472273 5.91145833,5.5 7.421875,5.5 L8.4375,5.5 C9.00173611,5.5 9.54861111,5.67865236 10.0086806,6.0002266 C10.46875,5.67865236 11.015625,5.5 11.5798611,5.5 L13.0295139,5.5 C14.6788194,5.5 15.3645833,6.60764461 16.3628472,7.78675017 L19.4444444,7.78675017 C19.7482639,7.78675017 20,8.04579608 20,8.35843771 Z" id="handshake-o---FontAwesome"></path>
                    </g>
                </g>
            </g>
        </g>
    </g>
</svg>