<svg width="21" height="23" viewBox="0 0 21 23" fill="none" xmlns="http://www.w3.org/2000/svg">
<path d="M16.6608 7.53946V10.9763L14.8618 11.8448V8.40792L16.6608 7.53946Z" fill="#0086DA"/>
<path d="M7.03747 2.37741L16.4408 6.9169L14.5149 7.84667L5.11545 3.30901L7.03747 2.37741Z" fill="#0086DA"/>
<path d="M10.5 0.692589L19.917 5.23869L17.1872 6.55653C17.1699 6.54336 17.1517 6.53119 17.1316 6.52152L7.77861 2.00636L10.5 0.692589Z" fill="#0086DA"/>
<path d="M20.3437 16.9584L10.8282 21.552V10.3552L13.0979 9.25946C13.2611 9.18065 13.3296 8.98449 13.2508 8.82124C13.172 8.65808 12.9758 8.58955 12.8125 8.6684L10.5 9.78483L9.59005 9.34552C9.4268 9.26663 9.23064 9.33515 9.15184 9.49836C9.07304 9.66157 9.14147 9.85777 9.30468 9.93658L10.1718 10.3552V21.552L0.656338 16.9583V5.76153L7.90231 9.25959C7.94829 9.28182 7.9969 9.29232 8.04473 9.29232C8.16672 9.29232 8.2839 9.22397 8.34048 9.10675C8.41928 8.94354 8.35085 8.74734 8.18764 8.66853L1.083 5.23869L4.34303 3.66488L14.201 8.42389L14.2055 8.42967V12.3677C14.2055 12.4806 14.2636 12.5856 14.3592 12.6456C14.4123 12.679 14.4729 12.6958 14.5337 12.6958C14.5824 12.6958 14.6312 12.685 14.6764 12.6632L17.1316 11.4779C17.2451 11.4231 17.3171 11.3083 17.3171 11.1823V7.22267L20.3437 5.76157V16.9584Z" fill="#0086DA"/>
<path d="M4.45312 17.7921L2.4777 16.8385C2.2616 16.7341 2.00208 16.8248 1.89779 17.0408C1.7935 17.2568 1.88407 17.5164 2.10005 17.6207L4.07546 18.5743C4.13632 18.6037 4.20065 18.6176 4.26394 18.6176C4.42538 18.6176 4.58045 18.5272 4.65532 18.372C4.75966 18.156 4.6691 17.8965 4.45312 17.7921Z" fill="#0086DA"/>
<path d="M6.27082 16.6101L2.48011 14.7801C2.26407 14.6758 2.00448 14.7664 1.90019 14.9824C1.79597 15.1984 1.88653 15.4581 2.10251 15.5623L5.89323 17.3924C5.95408 17.4217 6.01841 17.4357 6.0817 17.4357C6.24314 17.4357 6.39821 17.3452 6.47308 17.1901C6.57737 16.974 6.4868 16.7144 6.27082 16.6101Z" fill="#0086DA"/>
</svg>
