<?xml version="1.0" encoding="UTF-8"?>
<svg width="15px" height="18px" viewBox="0 0 15 18" version="1.1" xmlns="http://www.w3.org/2000/svg" xmlns:xlink="http://www.w3.org/1999/xlink">
    <!-- Generator: Sketch 50.2 (55047) - http://www.bohemiancoding.com/sketch -->
    <title>devices</title>
    <desc>Created with Sketch.</desc>
    <defs></defs>
    <g id="Page-2" stroke="none" stroke-width="1" fill="none" fill-rule="evenodd">
        <g id="Live-Tracking" transform="translate(-28.000000, -342.000000)">
            <g id="navigation-drawer" transform="translate(-1.000000, -0.500000)">
                <g id="nav-list" transform="translate(26.000000, 157.000000)">
                    <g id="list-item" transform="translate(2.000000, 183.000000)">
                        <g id="members">
                            <g id="devices" transform="translate(9.000000, 10.500000) scale(1, -1) translate(-9.000000, -10.500000) translate(1.000000, 0.000000)">
                                <g id="Group">
                                    <path d="M2.27343116,1.73333333 L11.6840961,1.73333333 C12.7444828,1.73333333 13.604096,2.5929466 13.604096,3.6533333 L13.604096,11.08 C13.604096,12.1403867 12.7444828,13 11.6840961,13 L2.27343116,13 C1.21304446,13 0.353431198,12.1403867 0.353431198,11.08 L0.353431198,3.6533333 C0.353431198,2.5929466 1.21304446,1.73333333 2.27343116,1.73333333 Z" id="Rectangle-21" fill="#7D7D7D"></path>
                                    <path d="M4,16.3104777 C4.58038297,16.3104777 5.11710077,16.4542872 5.61016949,16.7419106 C6.09296595,17.0243979 6.47560208,17.4070341 6.75808937,17.8898305 C7.04571279,18.3828992 7.18952234,18.919617 7.18952234,19.5 L6.27272727,19.5 C6.27272727,19.0891094 6.17000616,18.7090413 5.96456086,18.3597843 C5.75911556,18.0156634 5.48433659,17.7408844 5.14021572,17.5354391 C4.79095871,17.3299938 4.4108906,17.2272727 4,17.2272727 L4,16.3104777 Z M4,14.5 C4.67283336,14.5 5.31997635,14.6309694 5.94144838,14.8929122 C6.53723975,15.1497188 7.06625347,15.5092427 7.52850539,15.9714946 C7.99075732,16.4337465 8.3502812,16.9627602 8.60708783,17.5585516 C8.86903059,18.1800237 9,18.8271666 9,19.5 L8.09090909,19.5 C8.09090909,18.9452977 7.98305193,18.4137159 7.76733436,17.9052388 C7.56188906,17.4173062 7.27041791,16.9845936 6.89291217,16.6070878 C6.51540643,16.2295821 6.08269376,15.9381109 5.59476117,15.7326656 C5.08628405,15.5169481 4.55470231,15.4090909 4,15.4090909 L4,14.5 Z M4,18.7912173 C4,18.5960442 4.06933675,18.4316904 4.20801233,18.298151 C4.3466879,18.1646116 4.51360971,18.0978428 4.70878274,18.0978428 C4.90395578,18.0978428 5.06830955,18.1646116 5.201849,18.298151 C5.33538844,18.4316904 5.40215716,18.5960442 5.40215716,18.7912173 C5.40215716,18.9863903 5.33538844,19.1533121 5.201849,19.2919877 C5.06830955,19.4306633 4.90395578,19.5 4.70878274,19.5 C4.51360971,19.5 4.3466879,19.4306633 4.20801233,19.2919877 C4.06933675,19.1533121 4,18.9863903 4,18.7912173 Z" id="rss_feed---material" fill="#7D7D7D" transform="translate(6.500000, 17.000000) scale(1, -1) rotate(-45.000000) translate(-6.500000, -17.000000) "></path>
                                    <path d="M13.3521569,6.35555556 C13.222785,6.35555555 13.1179085,6.24058677 13.1179085,6.09876543 C13.1179085,6.09876543 13.1179085,6.09876543 13.1179085,6.09876543 L13.1179085,6.09880503 C13.1171682,5.39004374 12.5932461,4.815671 11.9467018,4.81481589 L2.10822361,4.81481589 C1.46167938,4.81564934 0.937743089,5.39000522 0.936981782,6.09876651 C0.936981782,6.24058784 0.832105275,6.35555663 0.702733416,6.35555663 C0.573361557,6.35555663 0.46848505,6.24058784 0.46848505,6.09876651 L0.468484997,6.09881888 C0.469473338,5.10653048 1.20299417,4.3023768 2.10817671,4.30123665 L11.9466549,4.30123665 C12.8518375,4.30234901 13.5853792,5.10647912 13.5863935,6.09876752 L13.5863935,6.09876737 C13.5863935,6.2405887 13.481517,6.35555749 13.3521454,6.35555749 L13.3521569,6.35555556 Z" id="Shape" fill="#7D7D7D" fill-rule="nonzero"></path>
                                    <path d="M13.3521569,11.4592593 L9.43786667,11.4592593 C9.3084948,11.4592593 9.20361829,11.3442905 9.20361829,11.2024691 C9.2036183,11.0606478 9.3084948,10.945679 9.43786666,10.945679 L13.3521569,10.945679 C13.4814591,10.9454951 13.5862375,10.830634 13.5864052,10.6888889 L13.5864052,4.01234568 L13.5864052,4.01234712 C13.5862382,3.87060205 13.4814603,3.75574034 13.3521582,3.75555443 L0.702746485,3.75555443 C0.573444187,3.75573834 0.468665829,3.87059948 0.468498108,4.01234455 L0.468498108,10.6888878 L0.468498106,10.6888863 C0.468665152,10.8306314 0.573443014,10.9454931 0.702745066,10.945679 L4.61703526,10.945679 C4.74640711,10.945679 4.85128362,11.0606478 4.85128362,11.2024691 C4.85128362,11.3442905 4.74640711,11.4592593 4.61703525,11.4592593 L0.702745056,11.4592593 C0.314806351,11.4587951 0.000423961571,11.114159 -2.79714958e-08,10.6888889 L-2.79714958e-08,4.01234569 L-2.77211756e-08,4.01234544 C0.000423551887,3.58707531 0.314806351,3.24243986 0.70274507,3.24197507 L13.3521568,3.24197507 C13.7400956,3.24243927 14.054478,3.58707531 14.0549019,4.01234544 L14.0549019,10.6888886 L14.0549019,10.6888889 C14.0544784,11.114159 13.7400956,11.4587944 13.3521568,11.4592592 Z" id="Shape" fill="#FFFFFF" fill-rule="nonzero"></path>
                                    <path d="M4.62640758,3.25023658 C4.49698139,3.25017803 4.39210301,3.13511346 4.39215688,2.99323332 C4.39216496,2.9717784 4.39462476,2.9504092 4.39947881,2.92962461 C4.59512593,2.09891195 4.74771304,1.32087741 5.66395957,0.982623706 C6.11947677,0.81445894 9.01656008,0.81445894 9.37028654,1.08070999 C9.9609499,1.5253042 10.1159636,2.15956744 10.2973256,2.92962451 C10.3294254,3.06707246 10.2538049,3.20702205 10.1284225,3.24221 C10.1094632,3.24753092 10.0899706,3.2502274 10.0703999,3.25023649 L4.62640758,3.25023658 Z" id="Shape" fill="#7D7D7D" fill-rule="nonzero"></path>
                                    <g id="a-link" transform="translate(-0.000000, 4.525926)" fill="#FFFFFF" fill-rule="nonzero">
                                        <path d="M0.936993464,0.486950131 L0.234248366,0.486950131 C0.104876497,0.486950125 -1.06618239e-08,0.377942692 -1.06618239e-08,0.243475066 C-5.00681063e-09,0.109007439 0.104876497,0 0.234248355,0 L0.936993453,0 C1.0663653,-5.8777559e-09 1.17124181,0.109007439 1.17124181,0.243475066 C1.17124181,0.377942692 1.0663653,0.486950131 0.936993443,0.486950131 Z" id="a"></path>
                                    </g>
                                    <g id="a-link" transform="translate(-0.000000, 5.553086)" fill="#FFFFFF" fill-rule="nonzero">
                                        <path d="M0.936993464,0.486950131 L0.234248366,0.486950131 C0.104876497,0.486950125 -1.06618239e-08,0.377942692 -1.06618239e-08,0.243475066 C-5.00681063e-09,0.109007439 0.104876497,0 0.234248355,0 L0.936993453,0 C1.0663653,-5.8777559e-09 1.17124181,0.109007439 1.17124181,0.243475066 C1.17124181,0.377942692 1.0663653,0.486950131 0.936993443,0.486950131 Z" id="a"></path>
                                    </g>
                                    <g id="a-link" transform="translate(-0.000000, 6.580247)" fill="#FFFFFF" fill-rule="nonzero">
                                        <path d="M0.936993464,0.486950131 L0.234248366,0.486950131 C0.104876497,0.486950125 -1.06618239e-08,0.377942692 -1.06618239e-08,0.243475066 C-5.00681063e-09,0.109007439 0.104876497,0 0.234248355,0 L0.936993453,0 C1.0663653,-5.8777559e-09 1.17124181,0.109007439 1.17124181,0.243475066 C1.17124181,0.377942692 1.0663653,0.486950131 0.936993443,0.486950131 Z" id="a"></path>
                                    </g>
                                    <g id="a-link" transform="translate(-0.000000, 7.607407)" fill="#FFFFFF" fill-rule="nonzero">
                                        <path d="M0.936993464,0.486950131 L0.234248366,0.486950131 C0.104876497,0.486950125 -1.06618239e-08,0.377942692 -1.06618239e-08,0.243475066 C-5.00681063e-09,0.109007439 0.104876497,0 0.234248355,0 L0.936993453,0 C1.0663653,-5.8777559e-09 1.17124181,0.109007439 1.17124181,0.243475066 C1.17124181,0.377942692 1.0663653,0.486950131 0.936993443,0.486950131 Z" id="a"></path>
                                    </g>
                                    <g id="a-link" transform="translate(-0.000000, 8.634568)" fill="#FFFFFF" fill-rule="nonzero">
                                        <path d="M0.936993464,0.486950131 L0.234248366,0.486950131 C0.104876497,0.486950125 -1.06618239e-08,0.377942692 -1.06618239e-08,0.243475066 C-5.00681063e-09,0.109007439 0.104876497,0 0.234248355,0 L0.936993453,0 C1.0663653,-5.8777559e-09 1.17124181,0.109007439 1.17124181,0.243475066 C1.17124181,0.377942692 1.0663653,0.486950131 0.936993443,0.486950131 Z" id="a"></path>
                                    </g>
                                    <g id="a-link" transform="translate(-0.000000, 9.661728)" fill="#FFFFFF" fill-rule="nonzero">
                                        <path d="M0.936993464,0.486950131 L0.234248366,0.486950131 C0.104876497,0.486950125 -1.06618239e-08,0.377942692 -1.06618239e-08,0.243475066 C-5.00681063e-09,0.109007439 0.104876497,0 0.234248355,0 L0.936993453,0 C1.0663653,-5.8777559e-09 1.17124181,0.109007439 1.17124181,0.243475066 C1.17124181,0.377942692 1.0663653,0.486950131 0.936993443,0.486950131 Z" id="a"></path>
                                    </g>
                                    <g id="a-link" transform="translate(12.883660, 4.525926)" fill="#FFFFFF" fill-rule="nonzero">
                                        <path d="M0.936993464,0.486950131 L0.234248366,0.486950131 C0.104876497,0.486950125 -1.06618239e-08,0.377942692 -1.06618239e-08,0.243475066 C-5.00681063e-09,0.109007439 0.104876497,0 0.234248355,0 L0.936993453,0 C1.0663653,-5.8777559e-09 1.17124181,0.109007439 1.17124181,0.243475066 C1.17124181,0.377942692 1.0663653,0.486950131 0.936993443,0.486950131 Z" id="a"></path>
                                    </g>
                                    <g id="a-link" transform="translate(12.883660, 5.553086)" fill="#FFFFFF" fill-rule="nonzero">
                                        <path d="M0.936993464,0.486950131 L0.234248366,0.486950131 C0.104876497,0.486950125 -1.0661695e-08,0.377942692 -1.0661695e-08,0.243475066 C-5.00668175e-09,0.109007439 0.104876497,0 0.234248355,0 L0.936993453,0 C1.0663653,-5.8777559e-09 1.17124181,0.109007439 1.17124181,0.243475066 C1.17124181,0.377942692 1.0663653,0.486950131 0.936993443,0.486950131 Z" id="a"></path>
                                    </g>
                                    <g id="a-link" transform="translate(12.883660, 6.580247)" fill="#FFFFFF" fill-rule="nonzero">
                                        <path d="M0.936993464,0.486950131 L0.234248366,0.486950131 C0.104876497,0.486950125 -1.0661695e-08,0.377942692 -1.0661695e-08,0.243475066 C-5.00668175e-09,0.109007439 0.104876497,0 0.234248355,0 L0.936993453,0 C1.0663653,-5.8777559e-09 1.17124181,0.109007439 1.17124181,0.243475066 C1.17124181,0.377942692 1.0663653,0.486950131 0.936993443,0.486950131 Z" id="a"></path>
                                    </g>
                                    <g id="a-link" transform="translate(12.883660, 7.607407)" fill="#FFFFFF" fill-rule="nonzero">
                                        <path d="M0.936993464,0.486950131 L0.234248366,0.486950131 C0.104876497,0.486950125 -1.0661695e-08,0.377942692 -1.0661695e-08,0.243475066 C-5.00668175e-09,0.109007439 0.104876497,0 0.234248355,0 L0.936993453,0 C1.0663653,-5.8777559e-09 1.17124181,0.109007439 1.17124181,0.243475066 C1.17124181,0.377942692 1.0663653,0.486950131 0.936993443,0.486950131 Z" id="a"></path>
                                    </g>
                                    <g id="a-link" transform="translate(12.883660, 8.634568)" fill="#FFFFFF" fill-rule="nonzero">
                                        <path d="M0.936993464,0.486950131 L0.234248366,0.486950131 C0.104876497,0.486950125 -1.0661695e-08,0.377942692 -1.0661695e-08,0.243475066 C-5.00668175e-09,0.109007439 0.104876497,0 0.234248355,0 L0.936993453,0 C1.0663653,-5.8777559e-09 1.17124181,0.109007439 1.17124181,0.243475066 C1.17124181,0.377942692 1.0663653,0.486950131 0.936993443,0.486950131 Z" id="a"></path>
                                    </g>
                                    <g id="a-link" transform="translate(12.883660, 9.661728)" fill="#FFFFFF" fill-rule="nonzero">
                                        <path d="M0.936993464,0.486950131 L0.234248366,0.486950131 C0.104876497,0.486950125 -1.0661695e-08,0.377942692 -1.0661695e-08,0.243475066 C-5.00668175e-09,0.109007439 0.104876497,0 0.234248355,0 L0.936993453,0 C1.0663653,-5.8777559e-09 1.17124181,0.109007439 1.17124181,0.243475066 C1.17124181,0.377942692 1.0663653,0.486950131 0.936993443,0.486950131 Z" id="a"></path>
                                    </g>
                                    <path d="M9.43798379,11.4593851 C9.34431653,11.4594367 9.25963832,11.3982757 9.22272125,11.3039064 L9.04235001,10.844252 C9.00477634,10.7502178 8.92016067,10.6893098 8.82651356,10.6888889 L5.22836496,10.6888889 C5.13419033,10.6894554 5.04925023,10.7510719 5.0119593,10.8458724 L4.83215728,11.3039012 C4.78152262,11.4343778 4.64398791,11.4951526 4.52496397,11.4396454 C4.40594097,11.3841381 4.35050118,11.2333684 4.40113584,11.1028908 C4.40137616,11.1022715 4.4016187,11.1016533 4.40186345,11.1010362 L4.58223469,10.6413818 C4.69393676,10.3590256 4.94761766,10.1760395 5.22836433,10.1753077 L8.82651293,10.1753077 C9.10672085,10.1758968 9.36006748,10.3581631 9.47205928,10.6397357 L9.65301615,11.1010361 C9.70402256,11.2315625 9.6488476,11.382704 9.52977925,11.4386175 C9.50076502,11.4522427 9.46954041,11.4593076 9.43797615,11.4593891 L9.43798379,11.4593851 Z" id="Shape" fill="#FFFFFF" fill-rule="nonzero"></path>
                                    <g id="b-link" transform="translate(5.856209, 11.202469)" fill="#FFFFFF" fill-rule="nonzero">
                                        <path d="M-1.0661695e-08,0.513580247 C-1.0661695e-08,0.513580247 -1.0661695e-08,0.427983539 -1.0661695e-08,0.256790124 C-3.01962962e-08,0.114968829 0.104876497,3.91667567e-08 0.234248355,3.91667567e-08 C0.363620214,1.7752335e-08 0.468496721,0.114968829 0.468496721,0.256790163 C0.468496721,0.256790163 0.468496721,0.34238687 0.468496721,0.513580286 C0.468496721,0.655401658 0.363620214,0.770370448 0.234248355,0.770370448 C0.104876497,0.770370365 -1.0661695e-08,0.655401581 -1.0661695e-08,0.513580247 Z" id="b"></path>
                                    </g>
                                    <g id="b-link" transform="translate(6.793203, 11.202469)" fill="#FFFFFF" fill-rule="nonzero">
                                        <path d="M0.213333319,0.770370371 C0.095512517,0.770370365 -1.0661695e-08,0.655401581 -1.0661695e-08,0.513580247 C-1.0661695e-08,0.513580247 -1.0661695e-08,0.513580247 -1.0661695e-08,0.513580247 L-1.0661695e-08,0.256790124 C-2.84521343e-08,0.114968829 0.095512517,3.91667567e-08 0.21333331,3.91667567e-08 C0.331154103,1.7752335e-08 0.426666631,0.114968829 0.426666631,0.256790163 C0.426666631,0.256790163 0.426666631,0.256790163 0.426666631,0.256790163 L0.426666631,0.513580286 C0.426666631,0.655401658 0.331154103,0.770370448 0.21333331,0.770370448 C0.213333299,0.770370448 0.213333289,0.770370448 0.213333278,0.770370448 Z" id="b"></path>
                                    </g>
                                    <path d="M7.9435294,11.9728395 C7.8257086,11.9728395 7.73019607,11.8578707 7.73019607,11.7160494 C7.73019607,11.7160494 7.73019607,11.7160494 7.73019607,11.7160494 L7.73019607,11.4592593 C7.73019605,11.317438 7.8257086,11.2024692 7.94352939,11.2024692 C8.06135018,11.2024692 8.15686271,11.317438 8.15686271,11.4592593 C8.15686271,11.4592593 8.15686271,11.4592593 8.15686271,11.4592593 L8.15686271,11.7160494 C8.15686271,11.8578708 8.06135018,11.9728396 7.94352939,11.9728396 C7.94352938,11.9728396 7.94352937,11.9728396 7.94352936,11.9728396 Z" id="Shape" fill="#FFFFFF" fill-rule="nonzero"></path>
                                </g>
                            </g>
                        </g>
                    </g>
                </g>
            </g>
        </g>
    </g>
</svg>