<svg width="28" height="20" viewBox="0 0 28 20" fill="none" xmlns="http://www.w3.org/2000/svg">
<path d="M26.655 7.77778C26.655 4.10767 23.6701 1.12274 20 1.12274V2.74709e-07C24.2886 -0.00113038 27.7778 3.48807 27.7778 7.77665L26.655 7.77778ZM25.8364 7.77665C25.8364 4.55767 23.219 1.94134 20 1.94134V3.06521C22.5982 3.06521 24.7126 5.17953 24.7126 7.77778L25.8364 7.77665ZM20 3.94599V5.06986C21.4925 5.0676 22.709 6.28192 22.709 7.77778H23.8318C23.8318 5.66458 22.1132 3.94712 20 3.94599Z" fill="#0086DA"/>
<path d="M19.7917 6.66675H1.31944C0.592431 6.66675 0 7.26408 0 8.00008L0.0953779 18.6667C0.0953779 19.4027 0.592431 20.0001 1.31944 20.0001H19.7917C20.5187 20.0001 21.1111 19.4027 21.1111 18.6667V8.00008C21.1111 7.26408 20.5187 6.66675 19.7917 6.66675Z" fill="#0086DA"/>
<path d="M11.2152 15.1496V13.3021L12.4885 15.6103L11.2152 15.1496Z" fill="white"/>
<path d="M9.89577 15.1496L8.6225 15.6103L9.89577 13.3021V15.1496Z" fill="white"/>
<path fill-rule="evenodd" clip-rule="evenodd" d="M14.4439 16.4826L11.1453 10.4997C11.14 10.4901 11.1268 10.4865 11.1202 10.477C11.0067 10.2963 10.8009 10.1694 10.5555 10.1694C10.3101 10.1694 10.1042 10.2963 9.99077 10.477C9.98417 10.4865 9.97097 10.4901 9.9657 10.4997L6.66708 16.4826C6.54438 16.7052 6.5866 16.9732 6.77132 17.1563C6.95472 17.337 7.24764 17.398 7.50229 17.3058L10.5555 16.1978L13.6087 17.3058C13.6892 17.3346 13.7723 17.3489 13.8541 17.3489C14.0349 17.3489 14.2117 17.2807 14.3397 17.1563C14.5244 16.9732 14.5666 16.7052 14.4439 16.4826ZM8.6225 15.6103L9.89577 15.1496V13.3021L8.6225 15.6103ZM11.2152 13.3021V15.1496L12.4885 15.6103L11.2152 13.3021Z" fill="white"/>
</svg>
