<svg width="20" height="18" viewBox="0 0 20 18" fill="none" xmlns="http://www.w3.org/2000/svg">
<path d="M18.8899 3.0412L16.781 0.395517C16.5819 0.145592 16.2797 0 15.96 0H5.06059C4.74101 0 4.43883 0.145592 4.23962 0.395485L2.13082 3.0412C1.91052 3.3176 1.73026 3.83293 1.73026 4.22195V6.15988C1.89776 5.89637 2.14257 5.69858 2.43615 5.5974C2.45258 5.37594 2.51971 5.16116 2.63454 4.96558C2.83347 4.62674 3.15258 4.3858 3.53293 4.28685C3.66929 4.25124 3.79414 4.2351 3.91896 4.2351C4.42187 4.2351 4.87759 4.49092 5.14444 4.8928C5.2239 4.87896 5.30409 4.87178 5.38459 4.87178C5.63152 4.87178 5.86487 4.93967 6.06814 5.05667L7.23625 4.75285C7.38263 4.71465 7.53305 4.69545 7.68378 4.69545C8.49167 4.69545 9.19785 5.24192 9.40138 6.02447L11.6906 14.8229C11.81 15.2819 11.7434 15.76 11.5035 16.1691C11.2633 16.5782 10.878 16.8691 10.419 16.9885L9.39731 17.2543H17.9781C18.7029 17.2543 19.2904 16.6667 19.2904 15.9419L19.2904 4.1864C19.2904 3.83293 19.1102 3.3176 18.8899 3.0412ZM2.81994 3.01882L3.51831 2.14265H8.2831L8.75329 1.36959H4.13453L4.65011 0.722729C4.75028 0.597057 4.8999 0.52497 5.06059 0.52497H15.9601C16.1208 0.52497 16.2704 0.597057 16.3705 0.722729L16.8861 1.36959H12.1851L12.4476 2.14265H17.5023L18.2007 3.01882H2.81994ZM3.03296 6.25148L2.7384 6.32811C2.42468 6.40974 2.2365 6.73024 2.31811 7.04396L2.3211 7.05544C2.40274 7.36919 2.72324 7.55733 3.03699 7.47573L5.53504 6.82584C5.84879 6.74424 6.03694 6.42374 5.95533 6.10995L5.95234 6.09848C5.8707 5.78476 5.5502 5.59658 5.23648 5.67819L4.94192 5.75482C4.78454 5.79576 4.62372 5.70136 4.58278 5.54398L4.58026 5.53439C4.48516 5.16889 4.1118 4.94966 3.74629 5.04476L3.73101 5.04873C3.3655 5.14383 3.14631 5.51718 3.24137 5.88269L3.24389 5.89228C3.28477 6.04975 3.19037 6.21054 3.03296 6.25148ZM3.83814 5.4294C3.9966 5.38817 4.15848 5.48324 4.19968 5.64166C4.24091 5.80011 4.14588 5.962 3.98739 6.0032C3.82894 6.04439 3.66708 5.94936 3.62585 5.79094C3.58466 5.63249 3.67969 5.4706 3.83814 5.4294ZM7.51965 14.4784C7.54714 14.5841 7.48378 14.692 7.37816 14.7194L3.7439 15.6649C3.63827 15.6923 3.53035 15.629 3.50286 15.5233L3.45309 15.3321C3.42561 15.2264 3.48896 15.1185 3.59462 15.0911L7.22884 14.1456C7.3345 14.1182 7.44239 14.1815 7.46988 14.2871L7.51965 14.4784ZM7.96289 10.6871L8.01266 10.8784C8.04014 10.9841 7.97679 11.092 7.87113 11.1194L2.89799 12.4132C2.79233 12.4407 2.68444 12.3773 2.65695 12.2717L2.60718 12.0804C2.5797 11.9748 2.64305 11.8669 2.74871 11.8394L7.72185 10.5457C7.82751 10.5182 7.9354 10.5815 7.96289 10.6871ZM7.42329 9.39799L2.45015 10.6917C2.34449 10.7192 2.2366 10.6558 2.20911 10.5502L2.15934 10.359C2.13186 10.2533 2.19521 10.1454 2.30087 10.1179L7.27401 8.8242C7.37967 8.79671 7.48756 8.86007 7.51505 8.96569L7.56482 9.15699C7.5923 9.26258 7.52895 9.37051 7.42329 9.39799ZM7.31285 12.8984L3.29606 13.9434C3.1904 13.9709 3.08251 13.9075 3.05502 13.8019L3.00525 13.6106C2.97777 13.505 3.04112 13.3971 3.14678 13.3696L7.16353 12.3247C7.26919 12.2972 7.37708 12.3606 7.40457 12.4662L7.45434 12.6574C7.48186 12.7631 7.4185 12.871 7.31285 12.8984ZM10.9283 15.0212L8.63941 6.22251C8.50201 5.69433 7.96242 5.37755 7.43423 5.51495L6.26785 5.81839C6.29543 5.87535 6.31832 5.93549 6.33487 5.99897C6.47422 6.53469 6.15873 7.07208 5.63448 7.20847L3.17316 7.84877C2.67073 7.97949 2.12974 7.72077 1.96108 7.22978C1.92931 7.1373 1.91213 7.04434 1.90721 6.95278L0.739637 7.25654C0.211451 7.39393 -0.105327 7.93353 0.0320696 8.46168L2.32101 17.2604C2.45844 17.7886 2.998 18.1053 3.52619 17.9679L10.2208 16.2263C10.749 16.0889 11.0658 15.5494 10.9283 15.0212ZM3.27737 17.0116L1.28699 9.36058L7.98161 7.61899L9.97202 15.27L3.27737 17.0116Z" fill="#7D7D7D"/>
</svg>
