<svg width="21" height="18" viewBox="0 0 21 18" fill="none" xmlns="http://www.w3.org/2000/svg">
<path d="M19.6845 3.0412L17.5757 0.395517C17.3765 0.145592 17.0744 0 16.7547 0H5.85527C5.53569 0 5.2335 0.145592 5.0343 0.395485L2.92549 3.0412C2.7052 3.3176 2.52493 3.83293 2.52493 4.22195V6.15988C2.69243 5.89637 2.93725 5.69858 3.23083 5.5974C3.24725 5.37594 3.31439 5.16116 3.42922 4.96558C3.62814 4.62674 3.94726 4.3858 4.32761 4.28685C4.46397 4.25124 4.58882 4.2351 4.71364 4.2351C5.21655 4.2351 5.67227 4.49092 5.93912 4.8928C6.01858 4.87896 6.09877 4.87178 6.17927 4.87178C6.4262 4.87178 6.65954 4.93967 6.86282 5.05667L8.03093 4.75285C8.17731 4.71465 8.32772 4.69545 8.47845 4.69545C9.28635 4.69545 9.99253 5.24192 10.1961 6.02447L12.4853 14.8229C12.6047 15.2819 12.5381 15.76 12.2981 16.1691C12.058 16.5782 11.6727 16.8691 11.2137 16.9885L10.192 17.2543H18.7727C19.4975 17.2543 20.0851 16.6667 20.0851 15.9419L20.0851 4.1864C20.0851 3.83293 19.9048 3.3176 19.6845 3.0412ZM3.61462 3.01882L4.31299 2.14265H9.07778L9.54797 1.36959H4.92921L5.44478 0.722729C5.54496 0.597057 5.69458 0.52497 5.85527 0.52497H16.7547C16.9155 0.52497 17.0651 0.597057 17.1652 0.722729L17.6808 1.36959H12.9798L13.2422 2.14265H18.297L18.9954 3.01882H3.61462ZM3.82764 6.25148L3.53308 6.32811C3.21936 6.40974 3.03118 6.73024 3.11279 7.04396L3.11578 7.05544C3.19742 7.36919 3.51792 7.55734 3.83167 7.47573L6.32972 6.82584C6.64347 6.74424 6.83161 6.42374 6.75001 6.10995L6.74701 6.09848C6.66538 5.78476 6.34488 5.59658 6.03116 5.67819L5.7366 5.75482C5.57922 5.79576 5.4184 5.70136 5.37746 5.54398L5.37494 5.53439C5.27984 5.16889 4.90648 4.94966 4.54097 5.04476L4.52568 5.04873C4.16018 5.14383 3.94098 5.51718 4.03605 5.88269L4.03857 5.89228C4.07945 6.04975 3.98505 6.21054 3.82764 6.25148ZM4.63282 5.4294C4.79127 5.38817 4.95316 5.48324 4.99436 5.64166C5.03559 5.80011 4.94055 5.962 4.78207 6.0032C4.62362 6.04439 4.46176 5.94936 4.42053 5.79094C4.37934 5.63249 4.47437 5.4706 4.63282 5.4294ZM8.31433 14.4784C8.34181 14.5841 8.27846 14.692 8.17283 14.7194L4.53858 15.6649C4.43295 15.6923 4.32503 15.629 4.29754 15.5233L4.24777 15.3321C4.22028 15.2264 4.28364 15.1185 4.3893 15.0911L8.02352 14.1456C8.12918 14.1182 8.23707 14.1815 8.26456 14.2871L8.31433 14.4784ZM8.75757 10.6871L8.80734 10.8784C8.83482 10.9841 8.77147 11.092 8.66581 11.1194L3.69267 12.4132C3.58701 12.4407 3.47912 12.3773 3.45163 12.2717L3.40186 12.0804C3.37437 11.9748 3.43773 11.8669 3.54339 11.8394L8.51653 10.5457C8.62219 10.5182 8.73008 10.5815 8.75757 10.6871ZM8.21797 9.39799L3.24483 10.6917C3.13917 10.7192 3.03128 10.6558 3.00379 10.5502L2.95402 10.359C2.92653 10.2533 2.98989 10.1454 3.09555 10.1179L8.06869 8.8242C8.17435 8.79671 8.28224 8.86007 8.30973 8.96569L8.3595 9.15699C8.38698 9.26258 8.32363 9.37051 8.21797 9.39799ZM8.10752 12.8984L4.09074 13.9434C3.98508 13.9709 3.87719 13.9075 3.8497 13.8019L3.79993 13.6106C3.77244 13.505 3.8358 13.3971 3.94146 13.3696L7.95821 12.3247C8.06387 12.2972 8.17176 12.3606 8.19925 12.4662L8.24902 12.6574C8.27653 12.7631 8.21318 12.871 8.10752 12.8984ZM11.723 15.0212L9.43409 6.22251C9.29669 5.69433 8.75709 5.37755 8.22891 5.51495L7.06253 5.81839C7.09011 5.87535 7.113 5.93549 7.12954 5.99897C7.26889 6.53469 6.95341 7.07208 6.42916 7.20847L3.96784 7.84877C3.4654 7.97949 2.92442 7.72077 2.75576 7.22978C2.72398 7.1373 2.70681 7.04434 2.70189 6.95278L1.53431 7.25654C1.00613 7.39393 0.68935 7.93353 0.826747 8.46168L3.11569 17.2604C3.25312 17.7886 3.79268 18.1053 4.32087 17.9679L11.0155 16.2263C11.5437 16.0889 11.8605 15.5494 11.723 15.0212ZM4.07204 17.0116L2.08166 9.36058L8.77629 7.61899L10.7667 15.27L4.07204 17.0116Z" fill="#0086DA"/>
</svg>
