<svg width="21" height="22" viewBox="0 0 21 22" fill="none" xmlns="http://www.w3.org/2000/svg">
<path d="M20.0804 17.8547C19.2744 13.0918 13.5589 11.5286 12.8018 11.3577C11.2141 12.6033 8.96703 12.6033 7.37939 11.3577C6.62222 11.5286 1.02887 13.0674 0.222841 17.8547C-0.192386 19.8576 -0.0702605 21.5674 0.955594 21.9093C1.56622 22.1047 2.56765 21.8605 3.64235 21.5185C3.66678 21.5185 3.66678 21.5185 3.6912 21.4941C3.6912 21.4941 3.69121 21.4941 3.71563 21.4941C4.37511 21.2743 4.83918 20.6636 4.83918 19.9553V19.882C4.83918 19.2714 4.49723 18.734 4.00873 18.4654C4.86361 15.9252 7.28169 14.1177 10.1394 14.1177C12.9727 14.1177 15.3908 15.9496 16.2946 18.4898C15.8061 18.7829 15.4641 19.2958 15.4641 19.9065V19.9797C15.4641 20.7125 15.9526 21.3231 16.6121 21.5429C17.7112 21.8605 18.6882 22.1291 19.2744 21.9337C20.3247 21.6162 20.4957 19.8576 20.0804 17.8547Z" fill="#0086DA"/>
<path d="M10.1635 11.1378C13.0908 11.1378 15.4638 8.64455 15.4638 5.56892C15.4638 2.49329 13.0908 0 10.1635 0C7.23628 0 4.86328 2.49329 4.86328 5.56892C4.86328 8.64455 7.23628 11.1378 10.1635 11.1378Z" fill="#0086DA"/>
<path d="M11.8252 19.6623C11.9962 19.9554 12.0939 20.2729 12.0939 20.6393C12.0939 21.0789 11.9474 21.4697 11.7031 21.7872C13.0465 21.714 14.17 21.543 15.1225 21.3232C15.147 21.1033 15.1714 20.8591 15.1714 20.6149C15.1714 19.4181 14.7562 18.3434 14.0723 17.4641L11.8252 19.6623Z" fill="#0086DA"/>
<path d="M8.45405 19.6621L6.23143 17.4883C5.52312 18.3431 5.10791 19.4422 5.10791 20.639C5.10791 20.8833 5.13233 21.1275 5.15676 21.3473C6.10931 21.5672 7.23283 21.7137 8.57617 21.787C8.33193 21.4695 8.18538 21.0542 8.18538 20.639C8.18538 20.2727 8.28308 19.9307 8.45405 19.6621Z" fill="#0086DA"/>
<path d="M10.1396 19.6621C9.60224 19.6621 9.1626 20.1017 9.1626 20.6391C9.1626 21.1764 9.60224 21.6161 10.1396 21.6161C10.6769 21.6161 11.1165 21.1764 11.1165 20.6391C11.1165 20.1017 10.6769 19.6621 10.1396 19.6621Z" fill="#0086DA"/>
<path d="M10.1391 15.6077C8.89342 15.6077 7.7699 16.0473 6.89062 16.8045L9.13767 18.9782C9.43076 18.8073 9.7727 18.7096 10.1391 18.7096C10.5054 18.7096 10.8718 18.8073 11.1649 19.0027L13.4119 16.8289C12.5082 16.0717 11.3847 15.6077 10.1391 15.6077Z" fill="#0086DA"/>
</svg>
