<?xml version="1.0" encoding="UTF-8"?>
<svg width="14px" height="17px" viewBox="0 0 14 17" version="1.1" xmlns="http://www.w3.org/2000/svg" xmlns:xlink="http://www.w3.org/1999/xlink">
    <!-- Generator: Sketch 49.2 (51160) - http://www.bohemiancoding.com/sketch -->
    <title>drivers</title>
    <desc>Created with Sketch.</desc>
    <defs></defs>
    <g id="Symbols" stroke="none" stroke-width="1" fill="none" fill-rule="evenodd">
        <g id="organisms/navigation-drawer" transform="translate(-28.000000, -232.000000)" fill="#7D7D7D">
            <g id="navigation-drawer" transform="translate(0.000000, 0.500000)">
                <g id="nav-list" transform="translate(25.000000, 91.000000)">
                    <g id="list-item" transform="translate(0.000000, 137.000000)">
                        <g id="driver" transform="translate(0.000000, 2.000000)">
                            <path d="M16.68,16.72 L15.46,17.94 L12.54,15 L8.32,15 C7.8799978,15 7.4666686,14.8866678 7.08,14.66 C6.6933314,14.4333322 6.3866678,14.1266686 6.16,13.74 C5.9333322,13.3533314 5.82,12.9400022 5.82,12.5 L5.82,7.7 C5.82,7.1933308 6.0066648,6.7533352 6.38,6.38 C6.7533352,6.0066648 7.1933308,5.82 7.7,5.82 L7.74,5.82 C8.2333358,5.82 8.6866646,6.0266646 9.1,6.44 L10.28,7.74 C10.7333356,8.2200024 11.326663,8.6199984 12.06,8.94 C12.793337,9.2600016 13.4999966,9.42 14.18,9.42 L14.18,11.24 C13.4199962,11.24 12.6000044,11.0533352 11.72,10.68 C10.9066626,10.346665 10.1933364,9.9266692 9.58,9.42 L9.58,12.5 L12.46,12.5 L16.68,16.72 Z M5,13.32 C5,13.7600022 5.1133322,14.1733314 5.34,14.56 C5.5666678,14.9466686 5.8733314,15.2533322 6.26,15.48 C6.6466686,15.7066678 7.0599978,15.82 7.5,15.82 L12.5,15.82 L12.5,17.5 L7.5,17.5 C6.7399962,17.5 6.0400032,17.3133352 5.4,16.94 C4.7599968,16.5666648 4.2533352,16.0600032 3.88,15.42 C3.5066648,14.7799968 3.32,14.0800038 3.32,13.32 L3.32,5.82 L5,5.82 L5,13.32 Z M6.32,4.5 C5.986665,4.1533316 5.82,3.7566689 5.82,3.31 C5.82,2.8633311 5.986665,2.473335 6.32,2.14 C6.653335,1.806665 7.0433311,1.64 7.49,1.64 C7.9366689,1.64 8.3299983,1.806665 8.67,2.14 C9.0100017,2.473335 9.18,2.8633311 9.18,3.31 C9.18,3.7566689 9.013335,4.1499983 8.68,4.49 C8.346665,4.8300017 7.9566689,5 7.51,5 C7.0633311,5 6.6666684,4.833335 6.32,4.5 Z" id="drivers"></path>
                        </g>
                    </g>
                </g>
            </g>
        </g>
    </g>
</svg>