<?xml version="1.0" encoding="UTF-8"?>
<svg width="14px" height="17px" viewBox="0 0 14 17" version="1.1" xmlns="http://www.w3.org/2000/svg" xmlns:xlink="http://www.w3.org/1999/xlink">
    <!-- Generator: Sketch 50.2 (55047) - http://www.bohemiancoding.com/sketch -->
    <title>airline_seat_recline_normal - material</title>
    <desc>Created with Sketch.</desc>
    <defs></defs>
    <g id="Page-2" stroke="none" stroke-width="1" fill="none" fill-rule="evenodd">
        <g id="Live-Tracking" transform="translate(-28.000000, -297.000000)" fill="#00A3DA">
            <g id="navigation-drawer" transform="translate(-1.000000, -0.500000)">
                <g id="nav-list" transform="translate(26.000000, 157.000000)">
                    <g id="list-item" transform="translate(3.000000, 137.000000)">
                        <g id="driver" transform="translate(0.000000, 3.000000)">
                            <path d="M13.68,15.72 L12.46,16.94 L9.54,14 L5.32,14 C4.8799978,14 4.4666686,13.8866678 4.08,13.66 C3.6933314,13.4333322 3.3866678,13.1266686 3.16,12.74 C2.9333322,12.3533314 2.82,11.9400022 2.82,11.5 L2.82,6.7 C2.82,6.1933308 3.0066648,5.7533352 3.38,5.38 C3.7533352,5.0066648 4.1933308,4.82 4.7,4.82 L4.74,4.82 C5.2333358,4.82 5.6866646,5.0266646 6.1,5.44 L7.28,6.74 C7.7333356,7.2200024 8.326663,7.6199984 9.06,7.94 C9.793337,8.2600016 10.4999966,8.42 11.18,8.42 L11.18,10.24 C10.4199962,10.24 9.6000044,10.0533352 8.72,9.68 C7.9066626,9.346665 7.1933364,8.9266692 6.58,8.42 L6.58,11.5 L9.46,11.5 L13.68,15.72 Z M2,12.32 C2,12.7600022 2.1133322,13.1733314 2.34,13.56 C2.5666678,13.9466686 2.8733314,14.2533322 3.26,14.48 C3.6466686,14.7066678 4.0599978,14.82 4.5,14.82 L9.5,14.82 L9.5,16.5 L4.5,16.5 C3.7399962,16.5 3.0400032,16.3133352 2.4,15.94 C1.7599968,15.5666648 1.2533352,15.0600032 0.88,14.42 C0.5066648,13.7799968 0.32,13.0800038 0.32,12.32 L0.32,4.82 L2,4.82 L2,12.32 Z M3.32,3.5 C2.986665,3.1533316 2.82,2.7566689 2.82,2.31 C2.82,1.8633311 2.986665,1.473335 3.32,1.14 C3.653335,0.806665 4.0433311,0.64 4.49,0.64 C4.9366689,0.64 5.3299983,0.806665 5.67,1.14 C6.0100017,1.473335 6.18,1.8633311 6.18,2.31 C6.18,2.7566689 6.013335,3.1499983 5.68,3.49 C5.346665,3.8300017 4.9566689,4 4.51,4 C4.0633311,4 3.6666684,3.833335 3.32,3.5 Z" id="airline_seat_recline_normal---material"></path>
                        </g>
                    </g>
                </g>
            </g>
        </g>
    </g>
</svg>