<svg width="28" height="20" viewBox="0 0 28 20" fill="none" xmlns="http://www.w3.org/2000/svg">
<path d="M0.701765 15.2887V6.74224C0.701765 6.26733 1.08507 5.88232 1.55794 5.88232H10.0628C10.5357 5.88232 10.919 6.26733 10.919 6.74224V15.2887C10.919 15.447 10.7912 15.5753 10.6336 15.5753H0.987157C0.82951 15.5753 0.701765 15.447 0.701765 15.2887ZM7.56974 18.2165C7.56974 19.2015 6.77467 20 5.79399 20C4.8133 20 4.01824 19.2015 4.01824 18.2165C4.01824 17.2314 4.8133 16.433 5.79399 16.433C6.77467 16.433 7.56974 17.2314 7.56974 18.2165ZM6.68183 18.2165C6.68183 17.724 6.28431 17.3247 5.79395 17.3247C5.3036 17.3247 4.90605 17.724 4.90605 18.2165C4.90605 18.709 5.3036 19.1083 5.79395 19.1083C6.28431 19.1083 6.68183 18.709 6.68183 18.2165ZM4.26454 16.4329H0.285392C0.127778 16.4329 0 16.5613 0 16.7196V17.5892C0 17.7475 0.127778 17.8758 0.285392 17.8758H3.47487C3.55814 17.302 3.84654 16.7951 4.26454 16.4329ZM16.8607 18.2165C16.8607 19.2015 16.0657 20 15.085 20C14.1043 20 13.3092 19.2015 13.3092 18.2165C13.3092 17.2314 14.1043 16.433 15.085 16.433C16.0657 16.4329 16.8607 17.2314 16.8607 18.2165ZM15.9729 18.2165C15.9729 17.724 15.5753 17.3247 15.085 17.3247C14.5946 17.3247 14.1971 17.724 14.1971 18.2165C14.1971 18.709 14.5946 19.1083 15.085 19.1083C15.5753 19.1083 15.9729 18.709 15.9729 18.2165ZM20 16.7196V17.5892C20 17.7475 19.8722 17.8758 19.7146 17.8758H17.404C17.2388 16.7375 16.2633 15.8597 15.085 15.8597C13.9065 15.8597 12.931 16.7375 12.7658 17.8758H8.1131C8.0298 17.302 7.74144 16.7951 7.32343 16.4329H11.735V8.23421C11.735 7.9176 11.9906 7.66093 12.3058 7.66093H15.0001C15.7587 7.66093 16.4677 8.03941 16.8922 8.67088L18.6292 11.2547C18.8839 11.6337 19.0201 12.0805 19.0201 12.5378V16.4329H19.7146C19.8722 16.4329 20 16.5613 20 16.7196ZM17.1048 11.3209L15.7159 9.33862C15.6625 9.26234 15.5754 9.21694 15.4825 9.21694H13.316C13.1584 9.21694 13.0306 9.34528 13.0306 9.50358V11.4858C13.0306 11.6442 13.1584 11.7725 13.316 11.7725H16.8715C17.1027 11.7725 17.2379 11.5108 17.1048 11.3209Z" fill="#7D7D7D"/>
<path d="M19.7888 8.23529C20.321 8.23529 20.77 7.80246 20.77 7.27022C20.77 6.73799 20.321 6.28906 19.7888 6.28906C19.2566 6.28906 18.8237 6.73799 18.8237 7.27022C18.8237 7.80246 19.2566 8.23529 19.7888 8.23529Z" fill="#7D7D7D"/>
<path d="M19.065 4.82543H19.5475C21.0132 4.82543 22.2337 6.04578 22.2337 7.51155V7.99408C22.2337 8.12735 22.3417 8.23535 22.4749 8.23535H22.9575C23.0907 8.23535 23.1987 8.12735 23.1987 7.99408V7.51155C23.1987 5.51279 21.5463 3.86035 19.5475 3.86035H19.065C18.9317 3.86035 18.8237 3.96836 18.8237 4.10162V4.58416C18.8237 4.71742 18.9317 4.82543 19.065 4.82543Z" fill="#7D7D7D"/>
<path d="M19.065 2.89525H19.5475C22.0793 2.89525 24.1638 4.97977 24.1638 7.51152V7.99405C24.1638 8.12732 24.2718 8.23532 24.4051 8.23532H24.8876C25.0209 8.23532 25.1289 8.12732 25.1289 7.99405V7.51152C25.1289 4.44678 22.6123 1.93018 19.5475 1.93018H19.065C18.9317 1.93018 18.8237 2.03818 18.8237 2.17144V2.65398C18.8237 2.78724 18.9317 2.89525 19.065 2.89525Z" fill="#7D7D7D"/>
<path d="M19.5475 0H19.065C18.9317 0 18.8237 0.108005 18.8237 0.241268V0.723805C18.8237 0.857068 18.9317 0.965074 19.065 0.965074H19.5475C23.1453 0.965074 26.094 3.91376 26.094 7.51149V7.99403C26.094 8.12729 26.202 8.23529 26.3352 8.23529H26.8178C26.951 8.23529 27.059 8.12729 27.059 7.99403V7.51149C27.059 3.38077 23.6783 0 19.5475 0Z" fill="#7D7D7D"/>
</svg>
