<svg width="23" height="14" viewBox="0 0 23 14" fill="none" xmlns="http://www.w3.org/2000/svg">
<path d="M9.26461 7.98968H11.7826C12.1813 7.98968 12.5057 7.66529 12.5057 7.26657V6.30855C12.5057 5.90983 12.1813 5.58545 11.7826 5.58545H9.26461C8.86589 5.58545 8.5415 5.90983 8.5415 6.30855V7.26657C8.5415 7.66529 8.86589 7.98968 9.26461 7.98968Z" fill="#0086DA"/>
<path d="M13.7473 5.58545C13.3486 5.58545 13.0242 5.90983 13.0242 6.30855V7.26657C13.0242 7.66529 13.3486 7.98968 13.7473 7.98968H16.2652C16.6639 7.98968 16.9883 7.66529 16.9883 7.26657V6.30855C16.9883 5.90983 16.6639 5.58545 16.2652 5.58545H13.7473V5.58545Z" fill="#0086DA"/>
<path d="M17.5066 6.30855V7.26657C17.5066 7.66529 17.831 7.98968 18.2297 7.98968H20.7476C21.1464 7.98968 21.4707 7.66529 21.4707 7.26657V6.30855C21.4707 5.90983 21.1464 5.58545 20.7476 5.58545H18.2297C17.8309 5.58545 17.5066 5.90979 17.5066 6.30855Z" fill="#0086DA"/>
<path d="M13.7473 2.40423H16.2652C16.6639 2.40423 16.9883 2.07984 16.9883 1.68112V0.723104C16.9883 0.324385 16.6639 0 16.2652 0H13.7473C13.3486 0 13.0242 0.324385 13.0242 0.723104V1.68112C13.0242 2.07984 13.3486 2.40423 13.7473 2.40423Z" fill="#0086DA"/>
<path d="M11.5061 5.19719H14.024C14.4227 5.19719 14.7471 4.87281 14.7471 4.47409V3.51607C14.7471 3.11735 14.4227 2.79297 14.024 2.79297H11.5061C11.1073 2.79297 10.783 3.11735 10.783 3.51607V4.47409C10.783 4.87286 11.1073 5.19719 11.5061 5.19719Z" fill="#0086DA"/>
<path d="M15.2654 3.51607V4.47409C15.2654 4.87281 15.5898 5.19719 15.9885 5.19719H18.5064C18.9052 5.19719 19.2295 4.87281 19.2295 4.47409V3.51607C19.2295 3.11735 18.9052 2.79297 18.5064 2.79297H15.9885C15.5897 2.79297 15.2654 3.11735 15.2654 3.51607Z" fill="#0086DA"/>
<path d="M21.2702 8.6954H8.14929C8.00669 8.6954 7.92826 8.66431 7.90242 8.63524C7.89403 8.62579 7.8908 8.61553 7.8895 8.60854V1.50331L7.88198 1.47395C7.79945 1.15111 7.50968 0.925599 7.17739 0.925599H6.80297C6.5373 0.925599 6.31988 0.9229 6.31627 0.922852H4.02162C3.33592 0.922852 3.03815 1.31535 2.8204 1.73577C2.53173 2.26995 0 6.98242 0 7.9388V9.7011C0 10.3454 0.524251 10.8696 1.16863 10.8696H2.16488C2.16362 10.8994 2.16261 10.9293 2.16261 10.9594C2.16261 12.1497 3.13095 13.1181 4.32118 13.1181C5.51141 13.1181 6.47974 12.1497 6.47974 10.9594C6.47974 10.9293 6.47868 10.8994 6.47747 10.8696H11.2008C11.1995 10.8994 11.1985 10.9293 11.1985 10.9594C11.1985 12.1497 12.1669 13.1181 13.3572 13.1181C14.5474 13.1181 15.5157 12.1497 15.5157 10.9594C15.5157 10.9293 15.5146 10.8994 15.5134 10.8696H15.5591C15.5578 10.8994 15.5568 10.9293 15.5568 10.9594C15.5568 12.1497 16.5252 13.1181 17.7155 13.1181C18.9057 13.1181 19.874 12.1497 19.874 10.9594C19.874 10.9293 19.8729 10.8994 19.8717 10.8696H21.2701C21.7608 10.8696 22.1451 10.5716 22.1451 10.1911V9.37392C22.1452 8.99342 21.7609 8.6954 21.2702 8.6954ZM4.32118 11.9944C3.74959 11.9944 3.28617 11.531 3.28617 10.9594C3.28617 10.3879 3.74959 9.92454 4.32118 9.92454C4.89277 9.92454 5.35618 10.3879 5.35618 10.9594C5.35618 11.531 4.89277 11.9944 4.32118 11.9944ZM6.62769 2.89823C6.62243 3.00154 6.61694 3.10831 6.61694 3.20781V5.42683C6.61694 5.70315 6.39219 5.92789 6.11592 5.92789H2.63229C2.52638 5.92789 2.47191 5.90456 2.45629 5.88267C2.43358 5.851 2.42635 5.75767 2.48049 5.59917C2.88186 4.42427 3.49549 2.9354 3.63644 2.64746C3.90799 2.09264 4.21734 2.04979 4.62473 2.04979H6.31637C6.4727 2.04979 6.52153 2.10113 6.53759 2.11805C6.66085 2.24777 6.64248 2.60846 6.62769 2.89823ZM13.3572 11.9944C12.7856 11.9944 12.3223 11.531 12.3223 10.9594C12.3223 10.3879 12.7857 9.92454 13.3572 9.92454C13.9288 9.92454 14.3922 10.3879 14.3922 10.9594C14.3922 11.531 13.9288 11.9944 13.3572 11.9944ZM17.7155 11.9944C17.1439 11.9944 16.6806 11.531 16.6806 10.9594C16.6806 10.3879 17.1439 9.92454 17.7155 9.92454C18.2871 9.92454 18.7504 10.3879 18.7504 10.9594C18.7504 11.531 18.2871 11.9944 17.7155 11.9944Z" fill="#0086DA"/>
</svg>
