<svg width="22" height="22" viewBox="0 0 22 22" fill="none" xmlns="http://www.w3.org/2000/svg">
<path d="M10.9704 4.25488C9.14578 4.25889 7.51132 5.38328 6.85522 7.08558H15.0858C14.4299 5.38297 12.7948 4.25843 10.9704 4.25488Z" fill="#0086DA"/>
<path d="M5.66703 5.21863C5.29357 5.79378 5.01217 6.42381 4.83299 7.08562H6.12283C6.80545 4.9858 8.76232 3.56413 10.9704 3.56413C13.1783 3.56413 15.1352 4.9858 15.8176 7.08562H17.109C16.9326 6.4232 16.651 5.79347 16.2747 5.22048C16.1906 5.09559 16.1997 4.92998 16.2969 4.81511L17.257 3.65711L15.9919 2.3773L14.8346 3.33484C14.719 3.43106 14.5542 3.44108 14.4276 3.35967C13.7809 2.93749 13.0634 2.63557 12.3091 2.46874C12.1626 2.43821 12.053 2.31608 12.0383 2.16713L11.8934 0.671143H10.0693L9.92433 2.16698C9.90953 2.31516 9.79959 2.43636 9.65372 2.46565C8.8994 2.62756 8.18194 2.92947 7.53895 3.35566C7.41189 3.4397 7.24505 3.43091 7.12787 3.33392L5.9691 2.37499L4.68481 3.65696L5.6439 4.81202C5.74074 4.92767 5.74999 5.09312 5.66703 5.21863Z" fill="#0086DA"/>
<path d="M8.00977 14.3882H13.9308V15.9178H8.00977V14.3882Z" fill="#0086DA"/>
<path d="M19.1611 11.6743H2.77954V21.296H19.1611V11.6743ZM14.5723 16.2631C14.5723 16.454 14.4177 16.6085 14.2269 16.6085H7.66441C7.47352 16.6085 7.31902 16.454 7.31902 16.2631V14.0427C7.31902 13.8518 7.47352 13.6973 7.66441 13.6973H14.2269C14.4177 13.6973 14.5723 13.8518 14.5723 14.0427V16.2631Z" fill="#0086DA"/>
<path d="M19.4984 10.9836H20.8883V7.77637H1.05273V10.9836H19.4984Z" fill="#0086DA"/>
</svg>
