<svg width="22" height="13" viewBox="0 0 22 13" fill="none" xmlns="http://www.w3.org/2000/svg">
<path d="M10.9541 5.525C12.2475 5.525 13.2838 4.29108 13.2838 2.7625C13.2838 1.23392 12.2475 0 10.9541 0C9.66072 0 8.61665 1.23392 8.61665 2.7625C8.61665 4.29108 9.66072 5.525 10.9541 5.525ZM10.9541 7.36667C9.13868 7.36667 5.5 8.44404 5.5 10.5896V12.8917H16.4083V10.5896C16.4083 8.44404 12.7696 7.36667 10.9541 7.36667Z" fill="#7D7D7D"/>
<path d="M4.61987 7.05724C3.52427 7.05724 2.64648 6.06181 2.64648 4.82867C2.64648 3.59553 3.52427 2.6001 4.61987 2.6001C5.71546 2.6001 6.59985 3.59553 6.59985 4.82867C6.59985 6.06181 5.71546 7.05724 4.61987 7.05724ZM4.61987 8.54296C4.81127 8.54296 5.02907 8.55781 5.26006 8.5801C4.49447 9.2041 3.95987 10.0435 3.95987 11.143V13.0001H-0.000100613V11.143C-0.000100613 9.4121 3.08208 8.54296 4.61987 8.54296Z" fill="#7D7D7D"/>
<path d="M17.3801 7.05724C18.4757 7.05724 19.3535 6.06181 19.3535 4.82867C19.3535 3.59553 18.4757 2.6001 17.3801 2.6001C16.2845 2.6001 15.4001 3.59553 15.4001 4.82867C15.4001 6.06181 16.2845 7.05724 17.3801 7.05724ZM17.3801 8.54296C17.1887 8.54296 16.9709 8.55781 16.7399 8.5801C17.5055 9.2041 18.0401 10.0435 18.0401 11.143V13.0001H22.0001V11.143C22.0001 9.4121 18.9179 8.54296 17.3801 8.54296Z" fill="#7D7D7D"/>
</svg>
