<svg width="22" height="17" viewBox="0 0 22 17" fill="none" xmlns="http://www.w3.org/2000/svg">
<path fill-rule="evenodd" clip-rule="evenodd" d="M16.0264 7.38228V0H10.8415H5.65649V17H21.2114V7.38228H16.0264ZM9.11313 15.0765H7.38481V13.1529H9.11313V15.0765ZM9.11313 11.2294H7.38481V9.30583H9.11313V11.2294ZM9.11313 7.38228H7.38481V5.45874H9.11313V7.38228ZM14.2981 15.0765H12.5698V13.1529H14.2981V15.0765ZM14.2981 11.2294H12.5698V9.30583H14.2981V11.2294ZM14.2981 7.38228H12.5698V5.45874H14.2981V7.38228ZM19.483 15.0765H17.7547V13.1529H19.483V15.0765ZM19.483 11.2294H17.7547V9.30583H19.483V11.2294ZM7.38481 3.5352H9.11313V1.59067H7.38481V3.5352ZM14.2981 3.5352H12.5698V1.59067H14.2981V3.5352Z" fill="#0086DA"/>
<path fill-rule="evenodd" clip-rule="evenodd" d="M5.18496 6.71683V3.53516H0V16.9689H5.18496V6.71683ZM3.45664 15.049H1.72832V13.1292H3.45664V15.049ZM3.45664 11.2093H1.72832V9.2894H3.45664V11.2093ZM3.45664 7.36952H1.72832V5.44964H3.45664V7.36952Z" fill="#0086DA"/>
<path d="M16.2622 0L16.2622 16.9689" stroke="white" stroke-width="0.75"/>
</svg>
