<svg width="22" height="22" viewBox="0 0 22 22" fill="none" xmlns="http://www.w3.org/2000/svg">
<path fill-rule="evenodd" clip-rule="evenodd" d="M7.1657 10.6868H5.51267L9.32396 13.8051C8.70895 12.9961 7.926 11.9078 7.1657 10.6868ZM11.4483 14.0779C12.0885 13.2495 12.9662 12.051 13.8157 10.6868H17.7463C17.9695 10.6868 18.1657 10.8348 18.227 11.0494L19.2891 14.7667H11.9333C11.8387 14.4937 11.6687 14.2558 11.4483 14.0779ZM18.5741 21.3734H20.5139C20.8461 21.3734 21.0859 21.0555 20.9946 20.7361L19.5748 15.7667H11.9333C11.9178 15.8112 11.9004 15.8548 11.8811 15.8973L18.5741 21.3734ZM3.93349 10.6868L9.02139 14.8496C8.98381 14.9822 8.9637 15.1221 8.9637 15.2667C8.9637 15.363 8.97261 15.4572 8.98965 15.5485L0 20.6855L2.75316 11.0494C2.81449 10.8348 3.01068 10.6868 3.23392 10.6868H3.93349ZM0.81165 21.3734L9.48607 16.4166C9.7545 16.6512 10.1058 16.7934 10.4904 16.7934C10.7426 16.7934 10.9805 16.7323 11.1901 16.624L16.995 21.3734H0.81165Z" fill="#7D7D7D"/>
<path d="M10.4904 0C7.95831 0 5.9104 2.15031 5.9104 4.80899C5.9104 8.41574 10.4904 13.74 10.4904 13.74C10.4904 13.74 15.0704 8.41574 15.0704 4.80899C15.0704 2.15031 13.0225 0 10.4904 0ZM10.4904 6.52649C9.58748 6.52649 8.85468 5.75705 8.85468 4.80899C8.85468 3.86094 9.58748 3.0915 10.4904 3.0915C11.3933 3.0915 12.1261 3.86094 12.1261 4.80899C12.1261 5.75705 11.3933 6.52649 10.4904 6.52649Z" fill="#7D7D7D"/>
</svg>
