<svg width="20" height="20" viewBox="0 0 20 20" fill="none" xmlns="http://www.w3.org/2000/svg">
<path d="M20 8.62337C20 12.305 17.584 15.4317 14.2546 16.5047L14.2544 15.3258C16.9589 14.2998 18.887 11.683 18.887 8.62337C18.887 4.67173 15.672 1.45673 11.7204 1.45673C7.76876 1.45673 4.55376 4.67173 4.55376 8.62337C4.55376 9.01978 4.58755 9.40831 4.64977 9.78743H3.52425C3.47046 9.40684 3.44078 9.01857 3.44078 8.62337C3.44078 4.05791 7.15494 0.34375 11.7204 0.34375C16.2859 0.34375 20 4.05791 20 8.62337ZM13.1637 14.523L10.615 12.0021C10.4537 11.8407 10.2339 11.7516 10.0085 11.7516H8.72297V11.2703C8.72297 10.9113 8.43085 10.622 8.0719 10.622H0.648399C0.289477 10.622 9.80392e-05 10.9113 9.80392e-05 11.2703V15.6108H13.4197V15.1379C13.4197 14.907 13.3279 14.6844 13.1637 14.523ZM12.0535 14.6065H9.58552C9.52987 14.6065 9.48536 14.5619 9.48536 14.5063V12.6003C9.48536 12.5447 9.52984 12.5001 9.58552 12.5001H10.0558C10.0808 12.5001 10.1086 12.5113 10.1281 12.528L12.1231 14.434C12.1899 14.4951 12.1453 14.6065 12.0535 14.6065ZM13.42 15.9695V17.4054C13.42 17.7636 13.1296 18.0541 12.7714 18.0541H12.0774C11.952 17.1935 11.2104 16.532 10.3153 16.532C9.42232 16.532 8.68075 17.1935 8.55536 18.0541H5.03761C4.91222 17.1935 4.17062 16.532 3.27768 16.532C2.38474 16.532 1.64314 17.1935 1.51775 18.0541H0.648627C0.290392 18.054 0 17.7636 0 17.4055V15.9695H13.42ZM10.3173 16.9659C9.57441 16.9659 8.97062 17.5669 8.97062 18.3098C8.97062 19.0528 9.57441 19.6566 10.3173 19.6566C11.0602 19.6566 11.6612 19.0528 11.6612 18.3098C11.6612 17.5669 11.0602 16.9659 10.3173 16.9659ZM10.3173 18.9832C9.94448 18.9832 9.64396 18.6827 9.64396 18.3099C9.64396 17.9398 9.94445 17.6365 10.3173 17.6365C10.6874 17.6365 10.9879 17.9398 10.9879 18.3099C10.9879 18.6827 10.6874 18.9832 10.3173 18.9832ZM3.27778 16.9659C2.5349 16.9659 1.93108 17.5669 1.93108 18.3098C1.93108 19.0528 2.5349 19.6566 3.27778 19.6566C4.02069 19.6566 4.6217 19.0528 4.6217 18.3098C4.6217 17.5669 4.02069 16.9659 3.27778 16.9659ZM3.27778 18.9832C2.90493 18.9832 2.60444 18.6827 2.60444 18.3099C2.60444 17.9398 2.90493 17.6365 3.27778 17.6365C3.64784 17.6365 3.95111 17.9398 3.95111 18.3099C3.95111 18.6827 3.64784 18.9832 3.27778 18.9832Z" fill="#0086DA"/>
<path d="M14.21 5.02832H12.9424C13.1715 5.31836 13.3166 5.67285 13.3774 6.0918H14.457L14.21 6.94043H13.3936C13.3291 7.5778 13.0767 8.05762 12.6362 8.37988C12.1958 8.70215 11.5835 8.86328 10.7993 8.86328L13.4473 11.9355V12H12.228L9.38135 8.68604L9.37598 8.01465H10.7134C11.161 8.01107 11.5244 7.91439 11.8037 7.72461C12.083 7.53125 12.2603 7.26986 12.3354 6.94043H9.22559L9.47266 6.0918H12.3247C12.1528 5.41146 11.6265 5.05697 10.7456 5.02832H9.23633L9.48877 4.17969H14.457L14.21 5.02832Z" fill="#0086DA"/>
</svg>
