<svg width="20" height="20" viewBox="0 0 20 20" fill="none" xmlns="http://www.w3.org/2000/svg">
<path d="M20 8.62325C20 12.3049 17.584 15.4315 14.2546 16.5046L14.2544 15.3256C16.9589 14.2996 18.887 11.6829 18.887 8.62325C18.887 4.67161 15.672 1.4566 11.7204 1.4566C7.76876 1.4566 4.55376 4.67161 4.55376 8.62325C4.55376 9.01966 4.58755 9.40819 4.64977 9.7873H3.52425C3.47046 9.40671 3.44078 9.01845 3.44078 8.62325C3.44078 4.05778 7.15494 0.343628 11.7204 0.343628C16.2859 0.343628 20 4.05778 20 8.62325ZM13.1637 14.5229L10.615 12.002C10.4537 11.8406 10.2339 11.7515 10.0085 11.7515H8.72297V11.2702C8.72297 10.9112 8.43085 10.6219 8.0719 10.6219H0.648399C0.289477 10.6219 9.80392e-05 10.9112 9.80392e-05 11.2702V15.6107H13.4197V15.1377C13.4197 14.9069 13.3279 14.6842 13.1637 14.5229ZM12.0535 14.6064H9.58552C9.52987 14.6064 9.48536 14.5618 9.48536 14.5062V12.6002C9.48536 12.5446 9.52984 12.5 9.58552 12.5H10.0558C10.0808 12.5 10.1086 12.5112 10.1281 12.5279L12.1231 14.4339C12.1899 14.495 12.1453 14.6064 12.0535 14.6064ZM13.42 15.9693V17.4053C13.42 17.7635 13.1296 18.054 12.7714 18.054H12.0774C11.952 17.1934 11.2104 16.5319 10.3153 16.5319C9.42232 16.5319 8.68075 17.1934 8.55536 18.054H5.03761C4.91222 17.1934 4.17062 16.5319 3.27768 16.5319C2.38474 16.5319 1.64314 17.1934 1.51775 18.054H0.648627C0.290392 18.0539 0 17.7635 0 17.4054V15.9693H13.42ZM10.3173 16.9658C9.57441 16.9658 8.97062 17.5668 8.97062 18.3097C8.97062 19.0526 9.57441 19.6565 10.3173 19.6565C11.0602 19.6565 11.6612 19.0526 11.6612 18.3097C11.6612 17.5668 11.0602 16.9658 10.3173 16.9658ZM10.3173 18.9831C9.94448 18.9831 9.64396 18.6826 9.64396 18.3097C9.64396 17.9397 9.94445 17.6364 10.3173 17.6364C10.6874 17.6364 10.9879 17.9396 10.9879 18.3097C10.9879 18.6826 10.6874 18.9831 10.3173 18.9831ZM3.27778 16.9658C2.5349 16.9658 1.93108 17.5668 1.93108 18.3097C1.93108 19.0526 2.5349 19.6565 3.27778 19.6565C4.02069 19.6565 4.6217 19.0526 4.6217 18.3097C4.6217 17.5668 4.02069 16.9658 3.27778 16.9658ZM3.27778 18.9831C2.90493 18.9831 2.60444 18.6826 2.60444 18.3097C2.60444 17.9397 2.90493 17.6364 3.27778 17.6364C3.64784 17.6364 3.95111 17.9396 3.95111 18.3097C3.95111 18.6826 3.64784 18.9831 3.27778 18.9831Z" fill="#7D7D7D"/>
<path d="M14.21 5.02832H12.9424C13.1715 5.31836 13.3166 5.67285 13.3774 6.0918H14.457L14.21 6.94043H13.3936C13.3291 7.5778 13.0767 8.05762 12.6362 8.37988C12.1958 8.70215 11.5835 8.86328 10.7993 8.86328L13.4473 11.9355V12H12.228L9.38135 8.68604L9.37598 8.01465H10.7134C11.161 8.01107 11.5244 7.91439 11.8037 7.72461C12.083 7.53125 12.2603 7.26986 12.3354 6.94043H9.22559L9.47266 6.0918H12.3247C12.1528 5.41146 11.6265 5.05697 10.7456 5.02832H9.23633L9.48877 4.17969H14.457L14.21 5.02832Z" fill="#7D7D7D"/>
</svg>
