<svg width="19" height="20" viewBox="0 0 19 20" fill="none" xmlns="http://www.w3.org/2000/svg">
<path d="M4.875 13.2106H7.81918C7.92907 12.793 8.07549 12.3925 8.25421 12.0133H4.875C4.57581 12.0133 4.33333 11.7453 4.33333 11.4146C4.33333 11.084 4.57581 10.816 4.875 10.816H8.97939C9.32598 10.3603 9.72715 9.95693 10.1719 9.61862H4.875C4.57581 9.61862 4.33333 9.35063 4.33333 9.01996C4.33333 8.68928 4.57581 8.42129 4.875 8.42129H10.2917C10.6556 8.42129 10.9161 8.81073 10.8096 9.1955C11.4766 8.81354 12.2166 8.56706 13 8.48864V1.3969C13 0.626576 12.4331 0 11.7361 0H1.26389C0.566916 0 0 0.626576 0 1.3969V16.6031C0 17.3734 0.566916 18 1.26389 18H8.21725C7.71254 16.8932 7.50237 15.6543 7.6114 14.408H4.875C4.57581 14.408 4.33333 14.14 4.33333 13.8093C4.33333 13.4786 4.57581 13.2106 4.875 13.2106ZM4.875 3.63193H10.2917C10.5909 3.63193 10.8333 3.89993 10.8333 4.2306C10.8333 4.56127 10.5909 4.82927 10.2917 4.82927H4.875C4.57581 4.82927 4.33333 4.56127 4.33333 4.2306C4.33333 3.89993 4.57581 3.63193 4.875 3.63193ZM4.875 6.02661H10.2917C10.5909 6.02661 10.8333 6.29461 10.8333 6.62528C10.8333 6.95595 10.5909 7.22395 10.2917 7.22395H4.875C4.57581 7.22395 4.33333 6.95595 4.33333 6.62528C4.33333 6.29461 4.57581 6.02661 4.875 6.02661ZM2.70833 14.408C2.40915 14.408 2.16667 14.14 2.16667 13.8093C2.16667 13.4786 2.40915 13.2106 2.70833 13.2106C3.00752 13.2106 3.25 13.4786 3.25 13.8093C3.25 14.14 3.00752 14.408 2.70833 14.408ZM2.70833 12.0133C2.40915 12.0133 2.16667 11.7453 2.16667 11.4146C2.16667 11.084 2.40915 10.816 2.70833 10.816C3.00752 10.816 3.25 11.084 3.25 11.4146C3.25 11.7453 3.00752 12.0133 2.70833 12.0133ZM2.70833 9.61862C2.40915 9.61862 2.16667 9.35063 2.16667 9.01996C2.16667 8.68928 2.40915 8.42129 2.70833 8.42129C3.00752 8.42129 3.25 8.68928 3.25 9.01996C3.25 9.35063 3.00752 9.61862 2.70833 9.61862ZM2.70833 7.22395C2.40915 7.22395 2.16667 6.95595 2.16667 6.62528C2.16667 6.29461 2.40915 6.02661 2.70833 6.02661C3.00752 6.02661 3.25 6.29461 3.25 6.62528C3.25 6.95595 3.00752 7.22395 2.70833 7.22395ZM2.70833 4.82927C2.40915 4.82927 2.16667 4.56127 2.16667 4.2306C2.16667 3.89993 2.40915 3.63193 2.70833 3.63193C3.00752 3.63193 3.25 3.89993 3.25 4.2306C3.25 4.56127 3.00752 4.82927 2.70833 4.82927Z" fill="#7D7D7D"/>
<path fill-rule="evenodd" clip-rule="evenodd" d="M9.04761 15.0238C9.04761 12.28 11.28 10.0476 14.0238 10.0476C16.7676 10.0476 19 12.28 19 15.0238C19 17.7676 16.7676 20 14.0238 20C11.28 20 9.04761 17.7676 9.04761 15.0238ZM15.3459 12.7097H16.4982L16.7228 11.9382H12.2062L11.9767 12.7097H13.3488C14.1496 12.7358 14.6281 13.058 14.7844 13.6765H12.1916L11.967 14.448H14.7941C14.7258 14.7475 14.5646 14.9851 14.3107 15.1609C14.0568 15.3334 13.7264 15.4213 13.3195 15.4246H12.1037L12.1086 16.0349L14.6965 19.0476H15.8049V18.989L13.3976 16.196C14.1105 16.196 14.6672 16.0496 15.0676 15.7566C15.468 15.4636 15.6974 15.0274 15.756 14.448H16.4982L16.7228 13.6765H15.7414C15.6861 13.2957 15.5542 12.9734 15.3459 12.7097Z" fill="#7D7D7D"/>
</svg>
