<svg width="27" height="13" viewBox="0 0 27 13" fill="none" xmlns="http://www.w3.org/2000/svg">
<path d="M6.75902 8.66166V0.791836C6.75902 0.354526 7.14559 0 7.6225 0H16.2C16.6768 0 17.0634 0.354526 17.0634 0.791836V8.66169C17.0634 8.80746 16.9346 8.92564 16.7756 8.92564H7.04685C6.88786 8.92564 6.75902 8.80746 6.75902 8.66166ZM13.6856 11.3577C13.6856 12.2647 12.8837 13 11.8947 13C10.9056 13 10.1038 12.2647 10.1038 11.3577C10.1038 10.4506 10.9056 9.71539 11.8947 9.71539C12.8837 9.71539 13.6856 10.4506 13.6856 11.3577ZM12.7901 11.3577C12.7901 10.9042 12.3892 10.5365 11.8947 10.5365C11.4001 10.5365 10.9992 10.9042 10.9992 11.3577C10.9992 11.8112 11.4001 12.1789 11.8947 12.1789C12.3892 12.1789 12.7901 11.8112 12.7901 11.3577ZM10.3522 9.71536H6.3391C6.18014 9.71536 6.05127 9.83353 6.05127 9.9793V10.7801C6.05127 10.9259 6.18014 11.044 6.3391 11.044H9.55579C9.63976 10.5156 9.93062 10.0488 10.3522 9.71536ZM23.0558 11.3577C23.0558 12.2647 22.254 13 21.2649 13C20.2759 13 19.474 12.2647 19.474 11.3577C19.474 10.4506 20.2759 9.71539 21.2649 9.71539C22.254 9.71536 23.0558 10.4506 23.0558 11.3577ZM22.1604 11.3577C22.1604 10.9042 21.7595 10.5365 21.2649 10.5365C20.7704 10.5365 20.3695 10.9042 20.3695 11.3577C20.3695 11.8112 20.7704 12.1789 21.2649 12.1789C21.7595 12.1789 22.1604 11.8112 22.1604 11.3577ZM26.2219 9.9793V10.7801C26.2219 10.9259 26.093 11.044 25.9341 11.044H23.6038C23.4371 9.99577 22.4533 9.18746 21.265 9.18746C20.0765 9.18746 19.0926 9.9958 18.926 11.044H14.2336C14.1496 10.5156 13.8588 10.0488 13.4372 9.71536H17.8864V2.16569C17.8864 1.87415 18.1441 1.6378 18.462 1.6378H21.1793C21.9444 1.6378 22.6595 1.98632 23.0876 2.56779L24.8394 4.94705C25.0963 5.29605 25.2336 5.70751 25.2336 6.12862V9.71536H25.9341C26.093 9.71536 26.2219 9.83353 26.2219 9.9793ZM23.302 5.00798L21.9013 3.18267C21.8473 3.11243 21.7595 3.07063 21.6659 3.07063H19.4809C19.322 3.07063 19.1931 3.1888 19.1931 3.33457V5.15989C19.1931 5.30569 19.3219 5.42383 19.4809 5.42383H23.0667C23.2999 5.42383 23.4362 5.18286 23.302 5.00798Z" fill="#0086DA"/>
<path d="M10.5896 3.22292V0H13.1109V3.22292H10.5896Z" fill="white"/>
<path d="M5.54683 8.2876H2.52124" stroke="#0086DA"/>
<path d="M4.03413 9.6687H0" stroke="#0086DA"/>
<path d="M4.53865 11.05H1.00879" stroke="#0086DA"/>
</svg>
