<?xml version="1.0" encoding="UTF-8"?>
<svg width="20px" height="10px" viewBox="0 0 20 10" version="1.1" xmlns="http://www.w3.org/2000/svg" xmlns:xlink="http://www.w3.org/1999/xlink">
    <!-- Generator: Sketch 50.2 (55047) - http://www.bohemiancoding.com/sketch -->
    <title>timeline - material</title>
    <desc>Created with Sketch.</desc>
    <defs></defs>
    <g id="Page-2" stroke="none" stroke-width="1" fill="none" fill-rule="evenodd">
        <g id="Live-Tracking" transform="translate(-28.000000, -781.000000)" fill="#084cb4">
            <g id="navigation-drawer" transform="translate(-1.000000, -0.500000)">
                <g id="nav-list-2" transform="translate(2.000000, 618.000000)">
                    <g id="list-item" transform="translate(27.000000, 159.000000)">
                        <g id="members" transform="translate(0.000000, 4.000000)">
                            <path d="M19.18,2.18 C19.18,2.6333356 19.013335,3.0199984 18.68,3.34 C18.346665,3.6600016 17.9533356,3.82 17.5,3.82 C17.2866656,3.82 17.146667,3.8066668 17.08,3.78 L14.1,6.74 C14.1533336,6.9000008 14.18,7.046666 14.18,7.18 C14.18,7.6333356 14.013335,8.0199984 13.68,8.34 C13.346665,8.6600016 12.9533356,8.82 12.5,8.82 C12.0466644,8.82 11.653335,8.6600016 11.32,8.34 C10.986665,8.0199984 10.82,7.6333356 10.82,7.18 C10.82,7.046666 10.8466664,6.9000008 10.9,6.74 L8.76,4.6 C8.5999992,4.6533336 8.4500007,4.68 8.31,4.68 C8.1699993,4.68 8.033334,4.6533336 7.9,4.6 L4.1,8.38 C4.1533336,8.5400008 4.18,8.686666 4.18,8.82 C4.18,9.2733356 4.013335,9.666665 3.68,10 C3.346665,10.333335 2.9533356,10.5 2.5,10.5 C2.0466644,10.5 1.653335,10.333335 1.32,10 C0.986665,9.666665 0.82,9.2733356 0.82,8.82 C0.82,8.3666644 0.986665,7.9800016 1.32,7.66 C1.653335,7.3399984 2.0466644,7.18 2.5,7.18 C2.7133344,7.18 2.8599996,7.1933332 2.94,7.22 L6.72,3.42 C6.6933332,3.353333 6.68,3.2133344 6.68,3 C6.68,2.5466644 6.8399984,2.153335 7.16,1.82 C7.4800016,1.486665 7.8666644,1.32 8.32,1.32 C8.7733356,1.32 9.166665,1.486665 9.5,1.82 C9.833335,2.153335 10,2.5466644 10,3 C10,3.2133344 9.9866668,3.353333 9.96,3.42 L12.08,5.54 C12.146667,5.5133332 12.2866656,5.5 12.5,5.5 C12.7133344,5.5 12.8599996,5.5133332 12.94,5.54 L15.9,2.6 C15.8466664,2.466666 15.82,2.3266674 15.82,2.18 C15.82,1.7266644 15.986665,1.333335 16.32,1 C16.653335,0.666665 17.0466644,0.5 17.5,0.5 C17.9533356,0.5 18.346665,0.666665 18.68,1 C19.013335,1.333335 19.18,1.7266644 19.18,2.18 Z" id="timeline---material"></path>
                        </g>
                    </g>
                </g>
            </g>
        </g>
    </g>
</svg>