<?xml version="1.0" encoding="UTF-8"?>
<svg width="20px" height="10px" viewBox="0 0 20 10" version="1.1" xmlns="http://www.w3.org/2000/svg" xmlns:xlink="http://www.w3.org/1999/xlink">
    <!-- Generator: Sketch 49.2 (51160) - http://www.bohemiancoding.com/sketch -->
    <title>timeline - material</title>
    <desc>Created with Sketch.</desc>
    <defs></defs>
    <g id="Symbols" stroke="none" stroke-width="1" fill="none" fill-rule="evenodd">
        <g id="organisms/navigation-drawer" transform="translate(-28.000000, -656.000000)" fill="#7D7D7D">
            <g id="navigation-drawer" transform="translate(0.000000, 0.500000)">
                <g id="nav-list-2" transform="translate(1.000000, 492.000000)">
                    <g id="list-item" transform="translate(23.000000, 159.000000)">
                        <g id="members" transform="translate(0.000000, 4.000000)">
                            <path d="M23.18,2.18 C23.18,2.6333356 23.013335,3.0199984 22.68,3.34 C22.346665,3.6600016 21.9533356,3.82 21.5,3.82 C21.2866656,3.82 21.146667,3.8066668 21.08,3.78 L18.1,6.74 C18.1533336,6.9000008 18.18,7.046666 18.18,7.18 C18.18,7.6333356 18.013335,8.0199984 17.68,8.34 C17.346665,8.6600016 16.9533356,8.82 16.5,8.82 C16.0466644,8.82 15.653335,8.6600016 15.32,8.34 C14.986665,8.0199984 14.82,7.6333356 14.82,7.18 C14.82,7.046666 14.8466664,6.9000008 14.9,6.74 L12.76,4.6 C12.5999992,4.6533336 12.4500007,4.68 12.31,4.68 C12.1699993,4.68 12.033334,4.6533336 11.9,4.6 L8.1,8.38 C8.1533336,8.5400008 8.18,8.686666 8.18,8.82 C8.18,9.2733356 8.013335,9.666665 7.68,10 C7.346665,10.333335 6.9533356,10.5 6.5,10.5 C6.0466644,10.5 5.653335,10.333335 5.32,10 C4.986665,9.666665 4.82,9.2733356 4.82,8.82 C4.82,8.3666644 4.986665,7.9800016 5.32,7.66 C5.653335,7.3399984 6.0466644,7.18 6.5,7.18 C6.7133344,7.18 6.8599996,7.1933332 6.94,7.22 L10.72,3.42 C10.6933332,3.353333 10.68,3.2133344 10.68,3 C10.68,2.5466644 10.8399984,2.153335 11.16,1.82 C11.4800016,1.486665 11.8666644,1.32 12.32,1.32 C12.7733356,1.32 13.166665,1.486665 13.5,1.82 C13.833335,2.153335 14,2.5466644 14,3 C14,3.2133344 13.9866668,3.353333 13.96,3.42 L16.08,5.54 C16.146667,5.5133332 16.2866656,5.5 16.5,5.5 C16.7133344,5.5 16.8599996,5.5133332 16.94,5.54 L19.9,2.6 C19.8466664,2.466666 19.82,2.3266674 19.82,2.18 C19.82,1.7266644 19.986665,1.333335 20.32,1 C20.653335,0.666665 21.0466644,0.5 21.5,0.5 C21.9533356,0.5 22.346665,0.666665 22.68,1 C23.013335,1.333335 23.18,1.7266644 23.18,2.18 Z" id="timeline---material"></path>
                        </g>
                    </g>
                </g>
            </g>
        </g>
    </g>
</svg>