<?xml version="1.0" encoding="UTF-8"?>
<svg width="13px" height="19px" viewBox="0 0 13 19" version="1.1" xmlns="http://www.w3.org/2000/svg" xmlns:xlink="http://www.w3.org/1999/xlink">
    <!-- Generator: Sketch 49.2 (51160) - http://www.bohemiancoding.com/sketch -->
    <title>places</title>
    <desc>Created with Sketch.</desc>
    <defs></defs>
    <g id="Symbols" stroke="none" stroke-width="1" fill="none" fill-rule="evenodd">
        <g id="organisms/navigation-drawer" transform="translate(-26.000000, -454.000000)" fill="#7D7D7D">
            <g id="navigation-drawer" transform="translate(0.000000, 0.500000)">
                <g id="nav-list" transform="translate(24.000000, 354.000000)">
                    <g id="list-item" transform="translate(0.000000, 49.000000)">
                        <path d="M11.2027491,55.9759615 C11.2772054,55.9182689 11.314433,55.8425485 11.314433,55.7487981 C11.314433,55.6550476 11.2772054,55.5793272 11.2027491,55.5216346 L10.3316151,54.6778846 C10.2720501,54.6057689 10.1938722,54.5697115 10.097079,54.5697115 C10.0002859,54.5697115 9.92210797,54.6057689 9.86254296,54.6778846 L9.19243986,55.3052885 L10.5549828,56.625 L11.2027491,55.9759615 Z M7.07044674,60 L10.152921,56.9927885 L8.81271478,55.6947115 L5.70790378,58.6802885 L5.70790378,60 L7.07044674,60 Z M8.5,51 C9.67640909,51 10.7708999,51.2884587 11.7835052,51.8653846 C12.7514367,52.4278874 13.5257703,53.1778799 14.1065292,54.1153846 C14.7021794,55.0961588 15,56.1562443 15,57.2956731 C15,58.1754852 14.7766345,59.1850905 14.3298969,60.3245192 C13.9427243,61.2908702 13.4066472,62.3365328 12.7216495,63.4615385 C12.1557818,64.3557737 11.508022,65.2860529 10.7783505,66.2524038 C10.2720479,66.9302919 9.73597076,67.5937468 9.17010309,68.2427885 L8.5,69 L7.82989691,68.2427885 C7.26402924,67.5937468 6.72795213,66.9302919 6.22164948,66.2524038 C5.49197802,65.2860529 4.84421818,64.3557737 4.27835052,63.4615385 C3.59335282,62.3365328 3.0572757,61.2908702 2.67010309,60.3245192 C2.22336546,59.1850905 2,58.1754852 2,57.2956731 C2,56.1562443 2.29782062,55.0961588 2.89347079,54.1153846 C3.47422971,53.1778799 4.24856332,52.4278874 5.21649485,51.8653846 C6.22910014,51.2884587 7.32359091,51 8.5,51 Z" id="places"></path>
                    </g>
                </g>
            </g>
        </g>
    </g>
</svg>