<?xml version="1.0" encoding="UTF-8"?>
<svg width="13px" height="19px" viewBox="0 0 13 19" version="1.1" xmlns="http://www.w3.org/2000/svg" xmlns:xlink="http://www.w3.org/1999/xlink">
    <!-- Generator: Sketch 50.2 (55047) - http://www.bohemiancoding.com/sketch -->
    <title>edit_location - material</title>
    <desc>Created with Sketch.</desc>
    <defs></defs>
    <g id="Page-2" stroke="none" stroke-width="1" fill="none" fill-rule="evenodd">
        <g id="Live-Tracking" transform="translate(-26.000000, -529.000000)" fill="#00A3DA">
            <g id="navigation-drawer" transform="translate(-1.000000, -0.500000)">
                <g id="nav-list" transform="translate(25.000000, 480.000000)">
                    <g id="list-item" transform="translate(2.000000, 49.000000)">
                        <g id="trip-template" transform="translate(0.000000, 1.000000)">
                            <path d="M9.20274914,4.97596154 C9.27720541,4.91826894 9.31443299,4.84254855 9.31443299,4.74879808 C9.31443299,4.65504761 9.27720541,4.57932721 9.20274914,4.52163462 L8.33161512,3.67788462 C8.2720501,3.60576887 8.19387219,3.56971154 8.09707904,3.56971154 C8.00028588,3.56971154 7.92210797,3.60576887 7.86254296,3.67788462 L7.19243986,4.30528846 L8.55498282,5.625 L9.20274914,4.97596154 Z M5.07044674,9 L8.15292096,5.99278846 L6.81271478,4.69471154 L3.70790378,7.68028846 L3.70790378,9 L5.07044674,9 Z M6.5,0 C7.67640909,0 8.77089986,0.288458654 9.78350515,0.865384615 C10.7514367,1.42788743 11.5257703,2.17787993 12.1065292,3.11538462 C12.7021794,4.09615875 13,5.1562443 13,6.29567308 C13,7.17548517 12.7766345,8.18509046 12.3298969,9.32451923 C11.9427243,10.2908702 11.4066472,11.3365328 10.7216495,12.4615385 C10.1557818,13.3557737 9.50802198,14.2860529 8.77835052,15.2524038 C8.27204787,15.9302919 7.73597076,16.5937468 7.17010309,17.2427885 L6.5,18 L5.82989691,17.2427885 C5.26402924,16.5937468 4.72795213,15.9302919 4.22164948,15.2524038 C3.49197802,14.2860529 2.84421818,13.3557737 2.27835052,12.4615385 C1.59335282,11.3365328 1.0572757,10.2908702 0.670103093,9.32451923 C0.223365464,8.18509046 0,7.17548517 0,6.29567308 C0,5.1562443 0.297820619,4.09615875 0.89347079,3.11538462 C1.47422971,2.17787993 2.24856332,1.42788743 3.21649485,0.865384615 C4.22910014,0.288458654 5.32359091,0 6.5,0 Z" id="edit_location---material"></path>
                        </g>
                    </g>
                </g>
            </g>
        </g>
    </g>
</svg>