<svg width="18" height="22" viewBox="0 0 18 22" fill="none" xmlns="http://www.w3.org/2000/svg">
<path d="M4.66934 6.53198C3.73262 6.53198 2.96326 7.25857 2.88384 8.17839L2.65666 11.5707L0.399881 12.9332L0.405563 18.6675H1.41617L1.41049 20.5411C1.41049 21.3501 2.06333 22.0001 2.87248 22.0001C3.67863 22.0001 4.33148 21.3501 4.33148 20.5411V18.6675H14.0741L14.0684 20.5411C14.0684 21.3501 14.7213 22.0001 15.5302 22.0001C16.3365 22.0001 16.9894 21.3501 16.9894 20.5411V18.6675H17.9943L18 12.9332L15.7432 11.5707L15.516 8.17839C15.4423 7.25857 14.6729 6.53198 13.7305 6.53198H4.66934ZM15.5672 16.1354C14.8973 16.1354 14.3494 15.5932 14.3494 14.9146C14.3494 14.2362 14.8973 13.6883 15.5672 13.6883C16.2428 13.6883 16.7935 14.2362 16.7935 14.9146C16.7935 15.5932 16.2399 16.1354 15.5672 16.1354ZM5.18594 16.7484V13.6599C5.18594 13.3561 5.43586 13.1064 5.73947 13.1064H12.683C12.9811 13.1064 13.231 13.3561 13.231 13.6599V16.7484H5.18594ZM1.61494 14.9146C1.61494 14.239 2.15995 13.6883 2.83553 13.6883C3.51112 13.6883 4.05897 14.2362 4.05897 14.9146C4.05897 15.5932 3.51112 16.1354 2.83553 16.1354C2.15995 16.1354 1.61494 15.5903 1.61494 14.9146ZM3.52248 11.5366L3.74399 8.24374C3.78362 7.76678 4.18116 7.39497 4.66934 7.39497H13.7305C14.2189 7.39497 14.6163 7.76678 14.6616 8.24374L14.8774 11.5366H3.52248Z" fill="#7D7D7D"/>
<path d="M2.02086 0C1.12945 0 0.408403 0.721049 0.408403 1.60662V12.0049L1.89313 11.0993L2.08607 8.06196C2.21948 6.75327 3.32939 5.72846 4.67218 5.72846H13.7305C15.0789 5.72846 16.1804 6.75327 16.3138 8.06196L16.5096 11.0993L18 12.0049L17.9943 1.60662C17.9943 0.721049 17.2733 0 16.3875 0H2.02086Z" fill="#7D7D7D"/>
</svg>
