<?xml version="1.0" encoding="UTF-8"?>
<svg width="20px" height="15px" viewBox="0 0 20 15" version="1.1" xmlns="http://www.w3.org/2000/svg" xmlns:xlink="http://www.w3.org/1999/xlink">
    <!-- Generator: Sketch 50.2 (55047) - http://www.bohemiancoding.com/sketch -->
    <title>local_shipping - material</title>
    <desc>Created with Sketch.</desc>
    <defs></defs>
    <g id="Page-2" stroke="none" stroke-width="1" fill="none" fill-rule="evenodd">
        <g id="Live-Tracking" transform="translate(-25.000000, -248.000000)" fill="#00A3DA">
            <g id="navigation-drawer" transform="translate(-1.000000, -0.500000)">
                <g id="nav-list" transform="translate(26.000000, 157.000000)">
                    <g id="list-item" transform="translate(0.000000, 88.000000)">
                        <g id="Vehicle" transform="translate(0.000000, 4.000000)">
                            <path d="M15,12.42 C15.3466684,12.42 15.6433321,12.3000012 15.89,12.06 C16.1366679,11.8199988 16.26,11.5266684 16.26,11.18 C16.26,10.8333316 16.1366679,10.5366679 15.89,10.29 C15.6433321,10.0433321 15.3466684,9.92 15,9.92 C14.6533316,9.92 14.3600012,10.0433321 14.12,10.29 C13.8799988,10.5366679 13.76,10.8333316 13.76,11.18 C13.76,11.5266684 13.8799988,11.8199988 14.12,12.06 C14.3600012,12.3000012 14.6533316,12.42 15,12.42 Z M16.26,4.92 L14.18,4.92 L14.18,7 L17.9,7 L16.26,4.92 Z M5,12.42 C5.3466684,12.42 5.6433321,12.3000012 5.89,12.06 C6.1366679,11.8199988 6.26,11.5266684 6.26,11.18 C6.26,10.8333316 6.1366679,10.5366679 5.89,10.29 C5.6433321,10.0433321 5.3466684,9.92 5,9.92 C4.6533316,9.92 4.3600012,10.0433321 4.12,10.29 C3.8799988,10.5366679 3.76,10.8333316 3.76,11.18 C3.76,11.5266684 3.8799988,11.8199988 4.12,12.06 C4.3600012,12.3000012 4.6533316,12.42 5,12.42 Z M16.68,3.68 L19.18,7 L19.18,11.18 L17.5,11.18 C17.5,11.6200022 17.3866678,12.0333314 17.16,12.42 C16.9333322,12.8066686 16.6266686,13.1133322 16.24,13.34 C15.8533314,13.5666678 15.4400022,13.68 15,13.68 C14.5599978,13.68 14.1466686,13.5666678 13.76,13.34 C13.3733314,13.1133322 13.0666678,12.8066686 12.84,12.42 C12.6133322,12.0333314 12.5,11.6200022 12.5,11.18 L7.5,11.18 C7.5,11.6200022 7.3866678,12.0333314 7.16,12.42 C6.9333322,12.8066686 6.6266686,13.1133322 6.24,13.34 C5.8533314,13.5666678 5.4400022,13.68 5,13.68 C4.5599978,13.68 4.1466686,13.5666678 3.76,13.34 C3.3733314,13.1133322 3.0666678,12.8066686 2.84,12.42 C2.6133322,12.0333314 2.5,11.6200022 2.5,11.18 L0.82,11.18 L0.82,2 C0.82,1.5466644 0.986665,1.153335 1.32,0.82 C1.653335,0.486665 2.0466644,0.32 2.5,0.32 L14.18,0.32 L14.18,3.68 L16.68,3.68 Z" id="local_shipping---material"></path>
                        </g>
                    </g>
                </g>
            </g>
        </g>
    </g>
</svg>