<?xml version="1.0" encoding="UTF-8"?>
<svg width="19px" height="14px" viewBox="0 0 19 14" version="1.1" xmlns="http://www.w3.org/2000/svg" xmlns:xlink="http://www.w3.org/1999/xlink">
    <!-- Generator: Sketch 49.2 (51160) - http://www.bohemiancoding.com/sketch -->
    <title>local_shipping - material</title>
    <desc>Created with Sketch.</desc>
    <defs></defs>
    <g id="Symbols" stroke="none" stroke-width="1" fill="none" fill-rule="evenodd">
        <g id="organisms/navigation-drawer" transform="translate(-25.000000, -557.000000)" fill="#7D7D7D">
            <g id="navigation-drawer" transform="translate(0.000000, 0.500000)">
                <g id="nav-list-2" transform="translate(1.000000, 492.000000)">
                    <g id="list-item" transform="translate(24.000000, 61.000000)">
                        <g id="Vehicle" transform="translate(0.000000, 4.000000)">
                            <path d="M14.18,12.1 C14.5266684,12.1 14.8233321,11.9800012 15.07,11.74 C15.3166679,11.4999988 15.44,11.2066684 15.44,10.86 C15.44,10.5133316 15.3166679,10.2166679 15.07,9.97 C14.8233321,9.7233321 14.5266684,9.6 14.18,9.6 C13.8333316,9.6 13.5400012,9.7233321 13.3,9.97 C13.0599988,10.2166679 12.94,10.5133316 12.94,10.86 C12.94,11.2066684 13.0599988,11.4999988 13.3,11.74 C13.5400012,11.9800012 13.8333316,12.1 14.18,12.1 Z M15.44,4.6 L13.36,4.6 L13.36,6.68 L17.08,6.68 L15.44,4.6 Z M4.18,12.1 C4.5266684,12.1 4.8233321,11.9800012 5.07,11.74 C5.3166679,11.4999988 5.44,11.2066684 5.44,10.86 C5.44,10.5133316 5.3166679,10.2166679 5.07,9.97 C4.8233321,9.7233321 4.5266684,9.6 4.18,9.6 C3.8333316,9.6 3.5400012,9.7233321 3.3,9.97 C3.0599988,10.2166679 2.94,10.5133316 2.94,10.86 C2.94,11.2066684 3.0599988,11.4999988 3.3,11.74 C3.5400012,11.9800012 3.8333316,12.1 4.18,12.1 Z M15.86,3.36 L18.36,6.68 L18.36,10.86 L16.68,10.86 C16.68,11.3000022 16.5666678,11.7133314 16.34,12.1 C16.1133322,12.4866686 15.8066686,12.7933322 15.42,13.02 C15.0333314,13.2466678 14.6200022,13.36 14.18,13.36 C13.7399978,13.36 13.3266686,13.2466678 12.94,13.02 C12.5533314,12.7933322 12.2466678,12.4866686 12.02,12.1 C11.7933322,11.7133314 11.68,11.3000022 11.68,10.86 L6.68,10.86 C6.68,11.3000022 6.5666678,11.7133314 6.34,12.1 C6.1133322,12.4866686 5.8066686,12.7933322 5.42,13.02 C5.0333314,13.2466678 4.6200022,13.36 4.18,13.36 C3.7399978,13.36 3.3266686,13.2466678 2.94,13.02 C2.5533314,12.7933322 2.2466678,12.4866686 2.02,12.1 C1.7933322,11.7133314 1.68,11.3000022 1.68,10.86 L0,10.86 L0,1.68 C0,1.2266644 0.166665,0.833335 0.5,0.5 C0.833335,0.166665 1.2266644,0 1.68,0 L13.36,0 L13.36,3.36 L15.86,3.36 Z M8.67231888,2.08800101 L9.77823872,3.19392085 L7.43967906,5.53248051 L5.52735934,3.62016078 L1.96767986,7.16832027 L2.64735976,7.84800017 L5.52735934,4.96800059 L7.43967906,6.88032031 L10.4463986,3.86208075 L11.5523185,4.96800059 L11.5523185,2.08800101 L8.67231888,2.08800101 Z" id="local_shipping---material"></path>
                        </g>
                    </g>
                </g>
            </g>
        </g>
    </g>
</svg>