<svg width="22" height="19" viewBox="0 0 22 19" fill="none" xmlns="http://www.w3.org/2000/svg">
<path d="M21.5628 4.19392L11.5508 0.104407C11.2074 -0.0358335 10.8225 -0.0347652 10.48 0.107434L0.638828 4.19253C0.376367 4.30151 0.205322 4.5577 0.205322 4.84188V6.3059C0.205322 6.69421 0.520098 7.00895 0.908376 7.00895H1.43568C1.53276 7.00895 1.61147 7.08762 1.61147 7.18473V16.5002C1.61147 17.3739 2.31968 18.0821 3.19336 18.0821H3.65279V9.62986H18.5525V18.0821H19.012C19.8856 18.0821 20.5939 17.3739 20.5939 16.5002V7.18473C20.5939 7.08765 20.6726 7.00895 20.7696 7.00895H21.2969C21.6853 7.00895 22 6.69418 22 6.3059V4.84477C21.9999 4.55916 21.8271 4.30193 21.5628 4.19392ZM7.23586 7.00895H3.72059V5.42706H7.23583L7.23586 7.00895ZM12.8602 7.00895H9.34499V5.42706H12.8602V7.00895ZM18.4847 7.00895H14.9694V5.42706H18.4847L18.4847 7.00895ZM8.15035 14.568H7.1499V15.9482H6.68252V14.568H5.67591C5.3121 14.568 5.01719 14.863 5.01719 15.2268V17.4233C5.01719 17.7871 5.31213 18.082 5.67591 18.082H8.15031C8.51412 18.082 8.80903 17.7871 8.80903 17.4233V15.2268C8.80906 14.863 8.51412 14.568 8.15035 14.568ZM12.3411 14.568H11.3407V15.9482H10.8733V14.568H9.86671C9.5029 14.568 9.20799 14.863 9.20799 15.2268V17.4233C9.20799 17.7871 9.50293 18.082 9.86671 18.082H12.3411C12.7049 18.082 12.9998 17.7871 12.9998 17.4233V15.2268C12.9999 14.863 12.7049 14.568 12.3411 14.568ZM16.6098 14.568H15.6093V15.9482H15.1419V14.568H14.1354C13.7715 14.568 13.4766 14.863 13.4766 15.2268V17.4233C13.4766 17.7871 13.7715 18.082 14.1354 18.082H16.6097C16.9735 18.082 17.2684 17.7871 17.2684 17.4233V15.2268C17.2685 14.863 16.9735 14.568 16.6098 14.568ZM10.2544 10.6042H9.25397V11.9845H8.78659V10.6042H7.78002C7.4162 10.6042 7.1213 10.8992 7.1213 11.263V13.4595C7.1213 13.8233 7.41624 14.1182 7.78002 14.1182H10.2544C10.6182 14.1182 10.9131 13.8233 10.9131 13.4595V11.263C10.9132 10.8992 10.6182 10.6042 10.2544 10.6042ZM14.5475 10.6042H13.547V11.9845H13.0796V10.6042H12.0731C11.7092 10.6042 11.4143 10.8992 11.4143 11.263V13.4595C11.4143 13.8233 11.7093 14.1182 12.0731 14.1182H14.5475C14.9113 14.1182 15.2061 13.8233 15.2061 13.4595V11.263C15.2062 10.8992 14.9113 10.6042 14.5475 10.6042Z" fill="#7D7D7D"/>
</svg>
