<svg width="22" height="19" viewBox="0 0 22 19" fill="none" xmlns="http://www.w3.org/2000/svg">
<path d="M21.3574 4.19392L11.3454 0.104407C11.0021 -0.0358335 10.6172 -0.0347652 10.2747 0.107434L0.433506 4.19253C0.171045 4.30151 0 4.5577 0 4.84188V6.3059C0 6.69421 0.314775 7.00895 0.703054 7.00895H1.23036C1.32744 7.00895 1.40614 7.08762 1.40614 7.18473V16.5002C1.40614 17.3739 2.11436 18.0821 2.98803 18.0821H3.44747V9.62986H18.3472V18.0821H18.8066C19.6803 18.0821 20.3885 17.3739 20.3885 16.5002V7.18473C20.3885 7.08765 20.4672 7.00895 20.5643 7.00895H21.0916C21.4799 7.00895 21.7947 6.69418 21.7947 6.3059V4.84477C21.7946 4.55916 21.6218 4.30193 21.3574 4.19392ZM7.03054 7.00895H3.51527V5.42706H7.03051L7.03054 7.00895ZM12.6549 7.00895H9.13967V5.42706H12.6549V7.00895ZM18.2794 7.00895H14.7641V5.42706H18.2793L18.2794 7.00895ZM7.94502 14.568H6.94457V15.9482H6.4772V14.568H5.47059C5.10678 14.568 4.81187 14.863 4.81187 15.2268V17.4233C4.81187 17.7871 5.10681 18.082 5.47059 18.082H7.94499C8.3088 18.082 8.60371 17.7871 8.60371 17.4233V15.2268C8.60374 14.863 8.3088 14.568 7.94502 14.568ZM12.1358 14.568H11.1353V15.9482H10.668V14.568H9.66139C9.29757 14.568 9.00267 14.863 9.00267 15.2268V17.4233C9.00267 17.7871 9.29761 18.082 9.66139 18.082H12.1357C12.4996 18.082 12.7945 17.7871 12.7945 17.4233V15.2268C12.7945 14.863 12.4996 14.568 12.1358 14.568ZM16.4044 14.568H15.404V15.9482H14.9366V14.568H13.93C13.5662 14.568 13.2713 14.863 13.2713 15.2268V17.4233C13.2713 17.7871 13.5662 18.082 13.93 18.082H16.4044C16.7682 18.082 17.0631 17.7871 17.0631 17.4233V15.2268C17.0632 14.863 16.7682 14.568 16.4044 14.568ZM10.0491 10.6042H9.04864V11.9845H8.58127V10.6042H7.57469C7.21088 10.6042 6.91598 10.8992 6.91598 11.263V13.4595C6.91598 13.8233 7.21092 14.1182 7.57469 14.1182H10.0491C10.4129 14.1182 10.7078 13.8233 10.7078 13.4595V11.263C10.7078 10.8992 10.4129 10.6042 10.0491 10.6042ZM14.3421 10.6042H13.3416V11.9845H12.8743V10.6042H11.8677C11.5039 10.6042 11.209 10.8992 11.209 11.263V13.4595C11.209 13.8233 11.504 14.1182 11.8677 14.1182H14.3421C14.7059 14.1182 15.0008 13.8233 15.0008 13.4595V11.263C15.0009 10.8992 14.7059 10.6042 14.3421 10.6042Z" fill="#0086DA"/>
</svg>
