<svg width="276" height="17" viewBox="0 0 276 17" fill="none" xmlns="http://www.w3.org/2000/svg">
<path d="M7.592 5.88V8.28V8.296H4.84C4.456 8.296 4.14667 8.37067 3.912 8.52C3.688 8.66933 3.576 8.888 3.576 9.176C3.576 9.464 3.70933 9.67733 3.976 9.816C4.25333 9.944 4.70667 10.0293 5.336 10.072C6.392 10.1147 7.17067 10.328 7.672 10.712C8.184 11.096 8.44 11.672 8.44 12.44C8.44 13.144 8.17867 13.736 7.656 14.216C7.13333 14.696 6.46667 14.936 5.656 14.936C4.824 14.936 4.104 14.7173 3.496 14.28V16.008H1.976V12.248H3.384C3.55467 12.6853 3.832 13.0427 4.216 13.32C4.61067 13.5867 5.05333 13.72 5.544 13.72C5.93867 13.72 6.264 13.6027 6.52 13.368C6.776 13.1333 6.904 12.8347 6.904 12.472C6.904 12.1093 6.76533 11.8427 6.488 11.672C6.21067 11.5013 5.77867 11.4 5.192 11.368C4.584 11.3467 4.06133 11.2827 3.624 11.176C3.19733 11.0587 2.824 10.84 2.504 10.52C2.184 10.2 2.024 9.77333 2.024 9.24C2.024 8.52533 2.28 7.976 2.792 7.592C3.31467 7.208 3.99733 7.016 4.84 7.016H6.056V5.88H0.616V4.6H9.304V5.88H7.592ZM4.35437 3.016C4.16237 2.824 4.06637 2.58933 4.06637 2.312C4.06637 2.03467 4.16237 1.8 4.35437 1.608C4.53571 1.40533 4.76504 1.304 5.04237 1.304C5.33037 1.304 5.57037 1.40533 5.76237 1.608C5.95437 1.8 6.05037 2.03467 6.05037 2.312C6.05037 2.58933 5.95437 2.824 5.76237 3.016C5.57037 3.19733 5.33037 3.288 5.04237 3.288C4.76504 3.288 4.53571 3.19733 4.35437 3.016ZM8.53787 4.6H19.7539V5.88H17.9779V15H16.4259V9.016H13.4659C14.2019 9.45333 14.5699 10.168 14.5699 11.16C14.5699 12.024 14.2765 12.7173 13.6899 13.24C13.1032 13.7627 12.3299 14.024 11.3699 14.024C10.6445 14.024 9.98854 13.9067 9.40188 13.672V12.296C9.93521 12.5733 10.5165 12.712 11.1459 12.712C11.7325 12.712 12.1965 12.5627 12.5379 12.264C12.8899 11.9653 13.0659 11.544 13.0659 11C13.0659 10.36 12.8312 9.86933 12.3619 9.528C11.9032 9.18667 11.2579 9.016 10.4259 9.016V7.72H16.4259V5.88H8.53787V4.6ZM18.9754 4.6H27.7754V5.88H25.9994V15H24.4474V9.8H21.8554C21.6634 9.8 21.5247 9.85333 21.4394 9.96C21.3647 10.056 21.3274 10.2213 21.3274 10.456C21.3274 10.7867 21.3914 11.1707 21.5194 11.608H20.2554C19.9354 11.064 19.7754 10.4667 19.7754 9.816C19.7754 9.42133 19.898 9.112 20.1434 8.888C20.3887 8.65333 20.762 8.536 21.2634 8.536H24.4474V5.88H18.9754V4.6ZM43.7921 0.535999H45.3121C45.3121 1.37867 45.0188 2.03467 44.4321 2.504C43.8455 2.97333 43.1201 3.208 42.2561 3.208C41.3388 3.208 40.5921 2.984 40.0161 2.536C39.4508 2.07733 39.1681 1.41067 39.1681 0.535999H40.6881C40.6881 0.973333 40.8215 1.33067 41.0881 1.608C41.3655 1.88533 41.7548 2.024 42.2561 2.024C42.7468 2.024 43.1255 1.88533 43.3921 1.608C43.6588 1.33067 43.7921 0.973333 43.7921 0.535999ZM46.7841 4.6V5.88H45.0081V15H43.4561V5.88H40.6721V15H39.1361V10.968H37.0561C37.0668 11.032 37.0721 11.128 37.0721 11.256C37.0721 12.0667 36.7895 12.7227 36.2241 13.224C35.6588 13.7253 34.8588 13.976 33.8241 13.976C33.0988 13.976 32.4268 13.848 31.8081 13.592V12.152C32.4695 12.4933 33.1255 12.664 33.7761 12.664C34.2668 12.664 34.6881 12.5413 35.0401 12.296C35.3921 12.04 35.5681 11.6347 35.5681 11.08C35.5681 10.1733 34.9495 9.72 33.7121 9.72H33.1201V8.376H33.6321C34.1548 8.376 34.5495 8.264 34.8161 8.04C35.0935 7.816 35.2321 7.50667 35.2321 7.112C35.2321 6.312 34.7681 5.912 33.8401 5.912C33.2535 5.912 32.7255 6.04 32.2561 6.296V4.872C32.7681 4.66933 33.3175 4.568 33.9041 4.568C34.8215 4.568 35.5308 4.78133 36.0321 5.208C36.5335 5.63467 36.7841 6.21067 36.7841 6.936C36.7841 7.48 36.6455 7.93333 36.3681 8.296C36.0908 8.65867 35.7175 8.904 35.2481 9.032C35.7708 9.096 36.1975 9.30933 36.5281 9.672H39.1361V5.88H37.7441V4.6H46.7841ZM50.9826 13.096C49.9693 13.096 49.1 12.744 48.3746 12.04C47.66 11.336 47.2226 10.3547 47.0626 9.096C47.9053 8.968 48.54 8.73867 48.9666 8.408C49.404 8.07733 49.6226 7.69333 49.6226 7.256C49.6226 6.70133 49.4626 6.24267 49.1426 5.88H46.0066V4.6H56.8226V5.88H55.0466V15H53.5106V12.008C53.0093 12.7333 52.1666 13.096 50.9826 13.096ZM51.1746 11.752C51.8786 11.752 52.444 11.5547 52.8706 11.16C53.2973 10.7653 53.5106 10.2213 53.5106 9.528V5.88H50.7906C51.036 6.27467 51.1586 6.75467 51.1586 7.32C51.1586 8.57867 50.396 9.464 48.8706 9.976C48.9986 10.4987 49.2653 10.9253 49.6706 11.256C50.0866 11.5867 50.588 11.752 51.1746 11.752ZM68.6935 4.6V5.88H66.9175V15H65.3655V8.728C65.1202 8.65333 64.8855 8.616 64.6615 8.616C63.5628 8.616 63.0135 9.25067 63.0135 10.52V11.64H61.4615V10.488C61.4615 9.31467 61.0455 8.728 60.2135 8.728C59.7868 8.728 59.4348 8.904 59.1575 9.256C58.8908 9.608 58.7575 10.1253 58.7575 10.808C58.7575 11.672 58.9815 12.3707 59.4295 12.904C59.8775 13.4373 60.5495 13.704 61.4455 13.704C61.6588 13.704 61.8242 13.6933 61.9415 13.672V14.936C61.7602 14.9787 61.5308 15 61.2535 15C60.0268 15 59.0455 14.6053 58.3095 13.816C57.5842 13.0267 57.2215 12.0133 57.2215 10.776C57.2215 9.784 57.4775 8.984 57.9895 8.376C58.5015 7.75733 59.1895 7.448 60.0535 7.448C60.6508 7.448 61.1415 7.58133 61.5255 7.848C61.9095 8.11467 62.1495 8.472 62.2455 8.92C62.5122 7.88533 63.2802 7.368 64.5495 7.368C64.8375 7.368 65.1095 7.41067 65.3655 7.496V5.88H56.0535V4.6H68.6935ZM85.162 5.88H79.29V8.008C79.77 7.528 80.3727 7.288 81.098 7.288C82.0047 7.288 82.73 7.56 83.274 8.104C83.8287 8.648 84.106 9.36267 84.106 10.248C84.106 11.1973 83.7913 11.9547 83.162 12.52C82.5433 13.0853 81.7647 13.368 80.826 13.368C80.7087 13.368 80.586 13.3573 80.458 13.336V12.056C80.522 12.0667 80.6233 12.072 80.762 12.072C81.2953 12.072 81.7273 11.912 82.058 11.592C82.3887 11.2613 82.554 10.8187 82.554 10.264C82.554 9.76267 82.3993 9.352 82.09 9.032C81.7913 8.70133 81.386 8.536 80.874 8.536C80.4367 8.536 80.0633 8.696 79.754 9.016C79.4447 9.32533 79.29 9.71467 79.29 10.184V15H77.738V12.808C77.2367 13.288 76.6287 13.528 75.914 13.528C75.018 13.528 74.2927 13.256 73.738 12.712C73.1833 12.1573 72.906 11.4427 72.906 10.568C72.906 9.61867 73.2153 8.86133 73.834 8.296C74.4633 7.73067 75.2473 7.448 76.186 7.448C76.3567 7.448 76.4793 7.45867 76.554 7.48V8.76C76.4473 8.73867 76.346 8.728 76.25 8.728C75.7273 8.728 75.2953 8.89333 74.954 9.224C74.6233 9.55467 74.458 9.99733 74.458 10.552C74.458 11.0533 74.6127 11.4693 74.922 11.8C75.2313 12.12 75.6367 12.28 76.138 12.28C76.5753 12.28 76.9487 12.1253 77.258 11.816C77.578 11.496 77.738 11.1013 77.738 10.632V5.88H71.866V4.6H85.162V5.88ZM84.3816 5.88V4.6H94.3656V5.88H92.5896V15H91.0696V10.616H87.9496V12.728H86.6216L86.1736 11.704C85.875 11.032 85.7256 10.552 85.7256 10.264C85.7256 9.80533 85.9603 9.51733 86.4296 9.4V5.88H84.3816ZM91.0696 5.88H87.9496V9.336H91.0696V5.88ZM105.17 8.392H101.25C100.706 8.392 100.434 8.60533 100.434 9.032C100.434 9.50133 100.653 9.85867 101.09 10.104C101.538 9.976 102.039 9.912 102.594 9.912C103.49 9.912 104.194 10.1307 104.706 10.568C105.218 10.9947 105.474 11.512 105.474 12.12C105.474 12.4827 105.421 12.7867 105.314 13.032H103.794C103.933 12.808 104.002 12.536 104.002 12.216C104.002 11.9173 103.879 11.672 103.634 11.48C103.389 11.2773 103.031 11.176 102.562 11.176C101.901 11.176 101.389 11.32 101.026 11.608C100.663 11.8853 100.482 12.2267 100.482 12.632C100.482 13.1227 100.69 13.5227 101.106 13.832C101.533 14.1307 102.194 14.28 103.09 14.28C103.709 14.28 104.397 14.184 105.154 13.992V15.288C104.375 15.4587 103.655 15.544 102.994 15.544C101.693 15.544 100.69 15.2507 99.9859 14.664C99.2819 14.0773 98.9299 13.3947 98.9299 12.616C98.9299 11.816 99.2765 11.16 99.9699 10.648C99.2339 10.2107 98.8659 9.608 98.8659 8.84C98.8659 8.296 99.0579 7.88 99.4419 7.592C99.8365 7.29333 100.349 7.144 100.978 7.144H103.634V5.88H97.5379V4.6H106.898V5.88H105.17V8.392ZM103.474 1.864L105.266 4.712H103.314C102.738 4.30667 102.237 4.008 101.81 3.816C101.384 3.61333 100.936 3.512 100.466 3.512C100.114 3.512 99.8105 3.55467 99.5545 3.64V2.376C99.8532 2.29067 100.146 2.248 100.434 2.248C100.925 2.248 101.373 2.34933 101.778 2.552C102.184 2.75467 102.712 3.144 103.362 3.72L103.97 4.264L102.498 2.408C101.986 1.77867 101.336 1.464 100.546 1.464C100.141 1.464 99.8105 1.50667 99.5545 1.592V0.327999C99.8212 0.253333 100.184 0.216 100.642 0.216C101.837 0.216 102.781 0.765333 103.474 1.864ZM106.372 16.984L107.908 13.24H109.844L107.748 16.984H106.372ZM120.951 5.88V8.28V8.296H118.199C117.815 8.296 117.506 8.37067 117.271 8.52C117.047 8.66933 116.935 8.888 116.935 9.176C116.935 9.464 117.069 9.67733 117.335 9.816C117.613 9.944 118.066 10.0293 118.695 10.072C119.751 10.1147 120.53 10.328 121.031 10.712C121.543 11.096 121.799 11.672 121.799 12.44C121.799 13.144 121.538 13.736 121.015 14.216C120.493 14.696 119.826 14.936 119.015 14.936C118.183 14.936 117.463 14.7173 116.855 14.28V16.008H115.335V12.248H116.743C116.914 12.6853 117.191 13.0427 117.575 13.32C117.97 13.5867 118.413 13.72 118.903 13.72C119.298 13.72 119.623 13.6027 119.879 13.368C120.135 13.1333 120.263 12.8347 120.263 12.472C120.263 12.1093 120.125 11.8427 119.847 11.672C119.57 11.5013 119.138 11.4 118.551 11.368C117.943 11.3467 117.421 11.2827 116.983 11.176C116.557 11.0587 116.183 10.84 115.863 10.52C115.543 10.2 115.383 9.77333 115.383 9.24C115.383 8.52533 115.639 7.976 116.151 7.592C116.674 7.208 117.357 7.016 118.199 7.016H119.415V5.88H113.975V4.6H122.663V5.88H120.951ZM126.457 9.576H129.737V5.88H126.841V8.024C126.841 8.664 126.713 9.18133 126.457 9.576ZM133.049 4.6V5.88H131.273V15H129.737V10.856H127.129C126.105 10.856 125.268 10.808 124.617 10.712L127.577 15H125.705L122.697 10.552V9.384H123.769C124.345 9.384 124.745 9.26667 124.969 9.032C125.193 8.79733 125.305 8.44 125.305 7.96V5.88H121.897V4.6H133.049ZM126.08 2.056V0.728C126.464 0.663999 126.784 0.631999 127.04 0.631999C127.605 0.631999 128.091 0.749332 128.496 0.983999C128.901 1.208 129.269 1.57067 129.6 2.072L131.328 4.712H129.648L128.336 2.728C127.984 2.19467 127.52 1.928 126.944 1.928C126.624 1.928 126.336 1.97067 126.08 2.056ZM141.185 0.487999C142.476 0.487999 143.676 0.621332 144.785 0.888C145.905 1.144 147.105 1.52267 148.385 2.024V3.48C145.836 2.38133 143.447 1.832 141.217 1.832C140.684 1.832 140.268 1.97067 139.969 2.248C139.681 2.51467 139.537 2.89333 139.537 3.384V4.6H141.313V5.88H139.537V15H138.001V5.88H136.225V4.6H138.001V3.368C138.001 2.51467 138.289 1.82133 138.865 1.288C139.441 0.754666 140.215 0.487999 141.185 0.487999ZM146.938 8.92V5.88H143.53V9.048C143.53 9.72 143.658 10.2 143.914 10.488C144.17 10.776 144.559 10.92 145.082 10.92C145.605 10.92 146.042 10.744 146.394 10.392C146.757 10.04 146.938 9.54933 146.938 8.92ZM154.218 5.88H148.49V7.912C148.981 7.42133 149.615 7.176 150.394 7.176C151.279 7.176 151.983 7.45333 152.506 8.008C153.039 8.56267 153.306 9.272 153.306 10.136C153.306 11.1173 152.991 11.8853 152.362 12.44C151.743 12.984 150.97 13.256 150.042 13.256C149.935 13.256 149.807 13.2453 149.658 13.224V11.944C149.786 11.9653 149.887 11.976 149.962 11.976C150.506 11.976 150.943 11.816 151.274 11.496C151.605 11.176 151.77 10.7227 151.77 10.136C151.77 9.64533 151.621 9.24 151.322 8.92C151.023 8.6 150.634 8.44 150.154 8.44C149.685 8.44 149.29 8.59467 148.97 8.904C148.65 9.21333 148.49 9.61333 148.49 10.104V15H146.938V11.336C146.437 11.8907 145.754 12.168 144.89 12.168C143.93 12.168 143.205 11.9227 142.714 11.432C142.223 10.9413 141.978 10.1467 141.978 9.048V5.88H140.538V4.6H154.218V5.88ZM154.325 10.648V9.4H155.445C156.65 9.4 157.253 8.91467 157.253 7.944V5.88H153.428V4.6H160.405V5.88H158.789V8.072C158.789 8.81867 158.57 9.416 158.133 9.864C157.695 10.3013 157.098 10.5467 156.341 10.6C156.319 10.6107 156.255 10.616 156.149 10.616L159.525 15H157.653L154.325 10.648ZM168.129 9.576H171.409V5.88H168.513V8.024C168.513 8.664 168.385 9.18133 168.129 9.576ZM174.721 4.6V5.88H172.945V15H171.409V10.856H168.801C167.777 10.856 166.94 10.808 166.289 10.712L169.249 15H167.377L164.369 10.552V9.384H165.441C166.017 9.384 166.417 9.26667 166.641 9.032C166.865 8.79733 166.977 8.44 166.977 7.96V5.88H163.569V4.6H174.721ZM167.752 2.056V0.728C168.136 0.663999 168.456 0.631999 168.712 0.631999C169.277 0.631999 169.762 0.749332 170.168 0.983999C170.573 1.208 170.941 1.57067 171.272 2.072L173 4.712H171.32L170.008 2.728C169.656 2.19467 169.192 1.928 168.616 1.928C168.296 1.928 168.008 1.97067 167.752 2.056ZM184.409 9.304V4.6H187.721V5.88H185.929V15H184.409V10.568H181.465V12.712H180.121L179.673 11.72C179.385 11.112 179.241 10.6373 179.241 10.296C179.241 10.0613 179.305 9.85867 179.433 9.688C179.561 9.51733 179.727 9.41067 179.929 9.368V6.776C179.929 6.136 179.684 5.816 179.193 5.816C178.863 5.816 178.569 5.89067 178.313 6.04V4.792C178.644 4.61067 179.039 4.52 179.497 4.52C180.809 4.52 181.465 5.19733 181.465 6.552V9.304H184.409ZM187.84 10.648V9.4H188.96C190.165 9.4 190.768 8.91467 190.768 7.944V5.88H186.944V4.6H193.92V5.88H192.304V8.072C192.304 8.81867 192.085 9.416 191.648 9.864C191.211 10.3013 190.613 10.5467 189.856 10.6C189.835 10.6107 189.771 10.616 189.664 10.616L193.04 15H191.168L187.84 10.648ZM193.147 4.6H201.947V5.88H200.171V15H198.619V9.8H196.027C195.835 9.8 195.697 9.85333 195.611 9.96C195.537 10.056 195.499 10.2213 195.499 10.456C195.499 10.7867 195.563 11.1707 195.691 11.608H194.427C194.107 11.064 193.947 10.4667 193.947 9.816C193.947 9.42133 194.07 9.112 194.315 8.888C194.561 8.65333 194.934 8.536 195.435 8.536H198.619V5.88H193.147V4.6ZM194.97 2.056V0.728C195.354 0.663999 195.674 0.631999 195.93 0.631999C196.496 0.631999 196.981 0.749332 197.386 0.983999C197.792 1.208 198.16 1.57067 198.49 2.072L200.218 4.712H198.538L197.226 2.728C196.874 2.19467 196.41 1.928 195.834 1.928C195.514 1.928 195.226 1.97067 194.97 2.056ZM218.412 5.88H212.54V8.008C213.02 7.528 213.623 7.288 214.348 7.288C215.255 7.288 215.98 7.56 216.524 8.104C217.079 8.648 217.356 9.36267 217.356 10.248C217.356 11.1973 217.041 11.9547 216.412 12.52C215.793 13.0853 215.015 13.368 214.076 13.368C213.959 13.368 213.836 13.3573 213.708 13.336V12.056C213.772 12.0667 213.873 12.072 214.012 12.072C214.545 12.072 214.977 11.912 215.308 11.592C215.639 11.2613 215.804 10.8187 215.804 10.264C215.804 9.76267 215.649 9.352 215.34 9.032C215.041 8.70133 214.636 8.536 214.124 8.536C213.687 8.536 213.313 8.696 213.004 9.016C212.695 9.32533 212.54 9.71467 212.54 10.184V15H210.988V12.808C210.487 13.288 209.879 13.528 209.164 13.528C208.268 13.528 207.543 13.256 206.988 12.712C206.433 12.1573 206.156 11.4427 206.156 10.568C206.156 9.61867 206.465 8.86133 207.084 8.296C207.713 7.73067 208.497 7.448 209.436 7.448C209.607 7.448 209.729 7.45867 209.804 7.48V8.76C209.697 8.73867 209.596 8.728 209.5 8.728C208.977 8.728 208.545 8.89333 208.204 9.224C207.873 9.55467 207.708 9.99733 207.708 10.552C207.708 11.0533 207.863 11.4693 208.172 11.8C208.481 12.12 208.887 12.28 209.388 12.28C209.825 12.28 210.199 12.1253 210.508 11.816C210.828 11.496 210.988 11.1013 210.988 10.632V5.88H205.116V4.6H218.412V5.88ZM220.928 4.6H222.72V5.88H220.944V15H219.408V5.88H217.632V4.6H219.392V4.088C219.392 2.60533 218.16 1.864 215.696 1.864C214.618 1.864 213.818 2.024 213.296 2.344C212.773 2.664 212.512 3.096 212.512 3.64V3.784H210.976V3.592C210.976 2.632 211.408 1.88 212.272 1.336C213.125 0.791999 214.266 0.52 215.696 0.52C217.392 0.52 218.688 0.829333 219.584 1.448C220.48 2.056 220.928 2.94133 220.928 4.104V4.6ZM225.882 4.6H237.098V5.88H235.322V15H233.77V9.016H230.81C231.546 9.45333 231.914 10.168 231.914 11.16C231.914 12.024 231.62 12.7173 231.034 13.24C230.447 13.7627 229.674 14.024 228.714 14.024C227.988 14.024 227.332 13.9067 226.746 13.672V12.296C227.279 12.5733 227.86 12.712 228.49 12.712C229.076 12.712 229.54 12.5627 229.882 12.264C230.234 11.9653 230.41 11.544 230.41 11C230.41 10.36 230.175 9.86933 229.706 9.528C229.247 9.18667 228.602 9.016 227.77 9.016V7.72H233.77V5.88H225.882V4.6ZM241.951 5.88V8.072V8.184C242.452 7.59733 243.124 7.304 243.967 7.304C244.884 7.304 245.599 7.58667 246.111 8.152C246.623 8.70667 246.879 9.38933 246.879 10.2C246.879 11.1387 246.607 11.896 246.063 12.472C245.53 13.0373 244.847 13.32 244.015 13.32C243.524 13.32 243.156 13.272 242.911 13.176V11.848C243.231 11.9333 243.519 11.976 243.775 11.976C244.255 11.976 244.634 11.8267 244.911 11.528C245.188 11.2187 245.327 10.792 245.327 10.248C245.327 9.78933 245.204 9.41067 244.959 9.112C244.724 8.81333 244.394 8.664 243.967 8.664C243.572 8.664 243.258 8.78667 243.023 9.032C242.788 9.27733 242.671 9.61333 242.671 10.04V10.888H241.327V10.04V9.816C240.858 10.3387 240.234 10.6053 239.455 10.616H239.311L242.671 15H240.815L237.487 10.648V9.4H238.607C239.812 9.4 240.415 8.91467 240.415 7.944V5.88H236.319V4.6H247.631V5.88H241.951ZM247.746 10.648V9.4H248.866C250.072 9.4 250.674 8.91467 250.674 7.944V5.88H246.85V4.6H253.826V5.88H252.21V8.072C252.21 8.81867 251.992 9.416 251.554 9.864C251.117 10.3013 250.52 10.5467 249.762 10.6C249.741 10.6107 249.677 10.616 249.57 10.616L252.946 15H251.074L247.746 10.648ZM263.326 4.6V5.88H261.55V15H259.998V8.968H258.606C256.835 8.968 255.95 9.74667 255.95 11.304C255.95 12.04 256.126 12.6213 256.478 13.048C256.83 13.464 257.358 13.672 258.062 13.672C258.232 13.672 258.344 13.6667 258.398 13.656V14.968C258.206 14.9893 258.03 15 257.87 15C256.792 15 255.939 14.6533 255.31 13.96C254.691 13.2667 254.382 12.376 254.382 11.288C254.382 10.1893 254.728 9.31467 255.422 8.664C256.115 8.00267 257.134 7.672 258.478 7.672H259.998V5.88H253.053V4.6H263.326ZM274.107 8.392H270.187C269.643 8.392 269.371 8.60533 269.371 9.032C269.371 9.50133 269.59 9.85867 270.027 10.104C270.475 9.976 270.977 9.912 271.531 9.912C272.427 9.912 273.131 10.1307 273.643 10.568C274.155 10.9947 274.411 11.512 274.411 12.12C274.411 12.4827 274.358 12.7867 274.251 13.032H272.731C272.87 12.808 272.939 12.536 272.939 12.216C272.939 11.9173 272.817 11.672 272.571 11.48C272.326 11.2773 271.969 11.176 271.499 11.176C270.838 11.176 270.326 11.32 269.963 11.608C269.601 11.8853 269.419 12.2267 269.419 12.632C269.419 13.1227 269.627 13.5227 270.043 13.832C270.47 14.1307 271.131 14.28 272.027 14.28C272.646 14.28 273.334 14.184 274.091 13.992V15.288C273.313 15.4587 272.593 15.544 271.931 15.544C270.63 15.544 269.627 15.2507 268.923 14.664C268.219 14.0773 267.867 13.3947 267.867 12.616C267.867 11.816 268.214 11.16 268.907 10.648C268.171 10.2107 267.803 9.608 267.803 8.84C267.803 8.296 267.995 7.88 268.379 7.592C268.774 7.29333 269.286 7.144 269.915 7.144H272.571V5.88H266.475V4.6H275.835V5.88H274.107V8.392ZM272.412 1.864L274.204 4.712H272.252C271.676 4.30667 271.175 4.008 270.748 3.816C270.321 3.61333 269.873 3.512 269.404 3.512C269.052 3.512 268.748 3.55467 268.492 3.64V2.376C268.791 2.29067 269.084 2.248 269.372 2.248C269.863 2.248 270.311 2.34933 270.716 2.552C271.121 2.75467 271.649 3.144 272.3 3.72L272.908 4.264L271.436 2.408C270.924 1.77867 270.273 1.464 269.484 1.464C269.079 1.464 268.748 1.50667 268.492 1.592V0.327999C268.759 0.253333 269.121 0.216 269.58 0.216C270.775 0.216 271.719 0.765333 272.412 1.864Z" fill="#152935"/>
</svg>
