<svg width="39" height="13" viewBox="0 0 39 13" fill="none" xmlns="http://www.w3.org/2000/svg">
<path d="M4.892 0.442C5.86267 0.442 6.75867 0.568 7.58 0.819999C8.41067 1.072 9.32067 1.436 10.31 1.912V3.004C8.35933 1.94933 6.56267 1.422 4.92 1.422C4.444 1.422 4.07067 1.55267 3.8 1.814C3.53867 2.066 3.408 2.416 3.408 2.864V4.012H5.018V4.95H3.408V13H2.316V4.95H0.692V4.012H2.316V2.85C2.316 2.13133 2.554 1.55267 3.03 1.114C3.506 0.666 4.12667 0.442 4.892 0.442ZM9.11508 11.768C9.85241 11.768 10.5151 11.5907 11.1031 11.236V12.244C10.5244 12.5427 9.84774 12.692 9.07308 12.692C8.00908 12.692 7.14574 12.426 6.48308 11.894C5.82974 11.3527 5.50308 10.6107 5.50308 9.668C5.50308 8.76267 5.82508 8.02533 6.46908 7.456C7.11308 6.88667 7.94374 6.59733 8.96108 6.588C9.11041 6.588 9.22241 6.59267 9.29708 6.602V4.95H4.39708V4.012H11.9431V4.95H10.3891V7.554C10.0904 7.50733 9.76375 7.484 9.40908 7.484C8.57841 7.484 7.90641 7.67533 7.39308 8.058C6.88908 8.43133 6.63708 8.97267 6.63708 9.682C6.63708 10.3447 6.86108 10.858 7.30908 11.222C7.76641 11.586 8.36841 11.768 9.11508 11.768ZM21.3247 7.652V4.95H18.0487V7.764C18.0487 8.42667 18.1701 8.90733 18.4127 9.206C18.6554 9.49533 19.0287 9.64 19.5327 9.64C20.0274 9.64 20.4474 9.46267 20.7927 9.108C21.1474 8.744 21.3247 8.25867 21.3247 7.652ZM13.6947 4.95V7.764C13.6947 8.42667 13.8161 8.90733 14.0587 9.206C14.3014 9.49533 14.6747 9.64 15.1787 9.64C15.9347 9.64 16.5507 9.30867 17.0267 8.646C16.9707 8.38467 16.9427 8.086 16.9427 7.75V4.95H13.6947ZM24.0407 4.012V4.95H22.4307V13H21.3247V9.668C20.8954 10.2373 20.2747 10.5267 19.4627 10.536C18.4641 10.536 17.7641 10.214 17.3627 9.57C16.7374 10.214 15.9861 10.536 15.1087 10.536C13.4287 10.536 12.5887 9.60733 12.5887 7.75V4.95H11.3287V4.012H24.0407ZM28.3703 8.128V4.95H25.8083V8.128C25.8083 9.14533 26.2237 9.654 27.0543 9.654C27.9317 9.654 28.3703 9.14533 28.3703 8.128ZM34.4463 4.012V4.95H32.8223V13H31.7303V4.95H29.4623V8.1C29.4623 8.90267 29.2523 9.51867 28.8323 9.948C28.4217 10.368 27.8243 10.578 27.0403 10.578C25.491 10.578 24.7163 9.752 24.7163 8.1V4.95H23.4283V4.012H34.4463ZM36.5346 4.012H38.1586V4.95H36.5486V13H35.4566V4.95H33.8326V4.012H35.4286V2.836C35.4286 2.37867 35.3026 2.02867 35.0506 1.786C34.808 1.54333 34.486 1.422 34.0846 1.422C33.6833 1.422 33.366 1.54333 33.1326 1.786C32.8993 2.01933 32.7826 2.36933 32.7826 2.836V3.088H31.6906V2.808C31.6906 2.024 31.9193 1.436 32.3766 1.044C32.8246 0.652 33.394 0.456 34.0846 0.456C34.7846 0.456 35.368 0.652 35.8346 1.044C36.3013 1.436 36.5346 2.024 36.5346 2.808V4.012Z" fill="#5A6872"/>
</svg>
