<svg width="199" height="24" viewBox="0 0 199 24" fill="none" xmlns="http://www.w3.org/2000/svg">
<path d="M0.32 8.96V6.86L3.58 4.92H5.36V18H3.42V7.06L0.32 8.96ZM10.3669 16.3H16.0469V18H7.66688V16.38C9.34688 15.1533 10.7602 13.8867 11.9069 12.58C13.0669 11.26 13.6469 10.06 13.6469 8.98C13.6469 8.22 13.4269 7.64 12.9869 7.24C12.5469 6.82667 11.9402 6.62 11.1669 6.62C10.1002 6.62 9.05354 7.02 8.02688 7.82V5.88C8.98688 5.14667 10.1269 4.78 11.4469 4.78C12.6735 4.78 13.6869 5.12667 14.4869 5.82C15.2869 6.5 15.6869 7.47333 15.6869 8.74C15.6869 11.0867 13.9135 13.6067 10.3669 16.3ZM21.7606 5H35.7806V6.6H33.5606V18H31.6206V10.52H27.9206C28.8406 11.0667 29.3006 11.96 29.3006 13.2C29.3006 14.28 28.934 15.1467 28.2006 15.8C27.4673 16.4533 26.5006 16.78 25.3006 16.78C24.394 16.78 23.574 16.6333 22.8406 16.34V14.62C23.5073 14.9667 24.234 15.14 25.0206 15.14C25.754 15.14 26.334 14.9533 26.7606 14.58C27.2006 14.2067 27.4206 13.68 27.4206 13C27.4206 12.2 27.1273 11.5867 26.5406 11.16C25.9673 10.7333 25.1606 10.52 24.1206 10.52V8.9H31.6206V6.6H21.7606V5ZM33.5975 21.66V23.16C33.3442 23.2533 33.0242 23.3 32.6375 23.3C31.7308 23.3 30.9842 23.0533 30.3975 22.56C29.7975 22.08 29.4975 21.38 29.4975 20.46C29.4975 19.7 29.7908 19.0533 30.3775 18.52C30.9508 17.9867 31.6975 17.72 32.6175 17.72C33.4842 17.72 34.2508 17.9133 34.9175 18.3C35.5708 18.7 36.0775 19.2067 36.4375 19.82C36.7975 20.4467 37.0642 21.0933 37.2375 21.76C37.4242 22.4267 37.5175 23.0867 37.5175 23.74H35.7175C35.7175 22.54 35.4508 21.5 34.9175 20.62C34.3842 19.74 33.6442 19.3 32.6975 19.3C32.2975 19.3 31.9775 19.4133 31.7375 19.64C31.4842 19.8667 31.3575 20.16 31.3575 20.52C31.3575 20.92 31.4975 21.2267 31.7775 21.44C32.0575 21.6667 32.4108 21.78 32.8375 21.78C33.1042 21.78 33.3575 21.74 33.5975 21.66ZM35.1075 5H46.1075V6.6H43.8875V18H41.9475V11.5H38.7075C38.4675 11.5 38.2942 11.5667 38.1875 11.7C38.0942 11.82 38.0475 12.0267 38.0475 12.32C38.0475 12.7333 38.1275 13.2133 38.2875 13.76H36.7075C36.3075 13.08 36.1075 12.3333 36.1075 11.52C36.1075 11.0267 36.2608 10.64 36.5675 10.36C36.8742 10.0667 37.3408 9.92 37.9675 9.92H41.9475V6.6H35.1075V5ZM45.6166 20.48L47.5366 15.8H49.9566L47.3366 20.48H45.6166ZM59.4208 9.18H57.5608C57.3608 8.74 57.2608 8.29333 57.2608 7.84C57.2608 7.04 57.5408 6.36 58.1008 5.8C58.6741 5.22667 59.4341 4.94 60.3808 4.94C61.4474 4.94 62.3008 5.28667 62.9408 5.98C63.5808 6.67333 63.9008 7.53333 63.9008 8.56C63.9008 9.96 63.4274 11.0467 62.4808 11.82C61.5341 12.5933 60.4274 12.98 59.1608 12.98H58.8208L63.4408 18H60.9208L56.5008 13.06V11.38H58.5408C59.6341 11.38 60.4808 11.1333 61.0808 10.64C61.6808 10.1467 61.9808 9.45333 61.9808 8.56C61.9808 7.24 61.4541 6.58 60.4008 6.58C59.9741 6.58 59.6541 6.72 59.4408 7C59.2274 7.26667 59.1208 7.6 59.1208 8C59.1208 8.38667 59.2208 8.78 59.4208 9.18ZM65.8808 5H70.0408V6.6H67.8208V18H65.8808V5ZM61.1431 21.3V19.14C61.7431 19.8067 62.5565 20.4333 63.5831 21.02C64.5965 21.62 65.5565 21.92 66.4631 21.92C67.0365 21.92 67.4831 21.7933 67.8031 21.54C68.1098 21.2867 68.2631 20.9533 68.2631 20.54C68.2631 20.18 68.1298 19.8933 67.8631 19.68C67.5965 19.4667 67.2431 19.36 66.8031 19.36C66.2831 19.36 65.6098 19.5667 64.7831 19.98V18.26C64.8098 18.2467 64.9031 18.2067 65.0631 18.14C65.2231 18.0867 65.3765 18.04 65.5231 18C65.6698 17.9467 65.8698 17.9 66.1231 17.86C66.3631 17.8067 66.5965 17.78 66.8231 17.78C67.9031 17.78 68.7298 18.0267 69.3031 18.52C69.8631 19.0267 70.1431 19.7 70.1431 20.54C70.1431 21.42 69.8165 22.1333 69.1631 22.68C68.5098 23.24 67.6298 23.52 66.5231 23.52C65.5498 23.52 64.5631 23.2867 63.5631 22.82C62.5631 22.3667 61.7565 21.86 61.1431 21.3ZM86.1731 6.6H78.8531V9.26C79.4531 8.66 80.2065 8.36 81.1131 8.36C82.2331 8.36 83.1398 8.7 83.8331 9.38C84.5265 10.06 84.8731 10.9533 84.8731 12.06C84.8731 13.2467 84.4798 14.1933 83.6931 14.9C82.9198 15.6067 81.9465 15.96 80.7731 15.96C80.6265 15.96 80.4731 15.9467 80.3131 15.92V14.32C80.3798 14.3333 80.5065 14.34 80.6931 14.34C81.3598 14.34 81.8998 14.14 82.3131 13.74C82.7265 13.3267 82.9331 12.7733 82.9331 12.08C82.9331 11.4533 82.7398 10.94 82.3531 10.54C81.9798 10.1267 81.4731 9.92 80.8331 9.92C80.2865 9.92 79.8198 10.12 79.4331 10.52C79.0465 10.9067 78.8531 11.3933 78.8531 11.98V18H76.8931V15.24L73.5731 18.9H71.2531L73.9331 16.06C73.0131 15.9267 72.2731 15.54 71.7131 14.9C71.1531 14.2467 70.8731 13.4333 70.8731 12.46C70.8731 11.2733 71.2598 10.3267 72.0331 9.62C72.8198 8.91333 73.7998 8.56 74.9731 8.56C75.1865 8.56 75.3398 8.57333 75.4331 8.6V10.2C75.2731 10.1733 75.1465 10.16 75.0531 10.16C74.3998 10.16 73.8598 10.3667 73.4331 10.78C73.0198 11.1933 72.8131 11.7467 72.8131 12.44C72.8131 13.0667 72.9998 13.5867 73.3731 14C73.7598 14.4 74.2731 14.6 74.9131 14.6C75.4598 14.6 75.9265 14.4067 76.3131 14.02C76.6998 13.62 76.8931 13.1267 76.8931 12.54V6.6H69.3731V5H86.1731V6.6ZM97.983 5V6.6H95.743V18H93.823V14.9C93.103 15.78 92.0763 16.22 90.743 16.22C89.623 16.22 88.6696 15.8733 87.883 15.18C87.0963 14.4733 86.703 13.5133 86.703 12.3C86.703 11.1667 87.083 10.2267 87.843 9.48C88.603 8.73333 89.5896 8.36 90.803 8.36C91.283 8.36 91.723 8.40667 92.123 8.5V10.2C91.763 10.08 91.3696 10.02 90.943 10.02C90.303 10.02 89.763 10.2267 89.323 10.64C88.883 11.0533 88.663 11.6 88.663 12.28C88.663 13 88.883 13.5733 89.323 14C89.763 14.4267 90.3296 14.64 91.023 14.64C91.8363 14.64 92.503 14.3667 93.023 13.82C93.5563 13.2733 93.823 12.62 93.823 11.86V6.6H85.363V5H97.983ZM97.1536 6.6V5H103.534V6.6H101.314V18H99.3736V6.6H97.1536ZM103.814 12.56V11H105.214C106.721 11 107.474 10.3933 107.474 9.18V6.6H102.694V5H111.414V6.6H109.394V9.34C109.394 10.2733 109.121 11.02 108.574 11.58C108.028 12.1267 107.281 12.4333 106.334 12.5C106.308 12.5133 106.228 12.52 106.094 12.52L110.314 18H107.974L103.814 12.56ZM110.918 20.48L112.838 15.8H115.258L112.638 20.48H110.918ZM122.022 11.42C122.022 9.36667 122.429 7.74 123.242 6.54C124.069 5.32667 125.196 4.72 126.622 4.72C128.076 4.72 129.216 5.32 130.042 6.52C130.869 7.72 131.282 9.35333 131.282 11.42C131.282 13.46 130.876 15.0933 130.062 16.32C129.262 17.5467 128.116 18.16 126.622 18.16C125.196 18.16 124.069 17.5467 123.242 16.32C122.429 15.0933 122.022 13.46 122.022 11.42ZM124.762 7.82C124.269 8.66 124.022 9.86 124.022 11.42C124.022 12.98 124.262 14.1933 124.742 15.06C125.236 15.9133 125.862 16.34 126.622 16.34C127.449 16.34 128.096 15.9133 128.562 15.06C129.029 14.2067 129.262 12.9933 129.262 11.42C129.262 9.83333 129.016 8.62667 128.522 7.8C128.042 6.96 127.409 6.54 126.622 6.54C125.876 6.54 125.256 6.96667 124.762 7.82ZM137.591 16.5C138.404 16.5 139.024 16.3 139.451 15.9C139.891 15.5 140.111 15.0067 140.111 14.42C140.111 13.8333 139.897 13.34 139.471 12.94C139.044 12.54 138.417 12.34 137.591 12.34C136.791 12.3533 136.184 12.5733 135.771 13C135.371 13.4133 135.171 13.9267 135.171 14.54C135.171 15.1 135.377 15.5667 135.791 15.94C136.204 16.3133 136.804 16.5 137.591 16.5ZM137.571 6.42C136.891 6.42 136.357 6.62 135.971 7.02C135.584 7.42 135.391 7.90667 135.391 8.48C135.391 9.16 135.597 9.68 136.011 10.04C136.437 10.3867 136.984 10.56 137.651 10.56C138.277 10.56 138.791 10.38 139.191 10.02C139.604 9.64667 139.811 9.12667 139.811 8.46C139.811 7.87333 139.624 7.38667 139.251 7C138.891 6.61333 138.331 6.42 137.571 6.42ZM139.851 11.42C141.344 11.9267 142.091 12.96 142.091 14.52C142.091 15.6267 141.664 16.5133 140.811 17.18C139.957 17.8467 138.877 18.18 137.571 18.18C136.291 18.18 135.237 17.86 134.411 17.22C133.584 16.5667 133.171 15.7 133.171 14.62C133.171 13.0733 133.911 12.0133 135.391 11.44C134.764 11.1733 134.271 10.7867 133.911 10.28C133.564 9.77333 133.391 9.18 133.391 8.5C133.391 7.32667 133.797 6.40667 134.611 5.74C135.424 5.07333 136.411 4.74 137.571 4.74C138.771 4.74 139.777 5.06667 140.591 5.72C141.404 6.36 141.811 7.29333 141.811 8.52C141.811 9.84 141.157 10.8067 139.851 11.42ZM144.323 10.18C144.323 9.80667 144.449 9.49333 144.703 9.24C144.969 8.97333 145.289 8.84 145.663 8.84C146.036 8.84 146.349 8.97333 146.603 9.24C146.869 9.49333 147.003 9.80667 147.003 10.18C147.003 10.5533 146.869 10.8733 146.603 11.14C146.349 11.3933 146.036 11.52 145.663 11.52C145.276 11.52 144.956 11.3933 144.703 11.14C144.449 10.8867 144.323 10.5667 144.323 10.18ZM144.703 17.64C144.449 17.3733 144.323 17.0533 144.323 16.68C144.323 16.3067 144.449 15.9933 144.703 15.74C144.969 15.4733 145.289 15.34 145.663 15.34C146.036 15.34 146.349 15.4733 146.603 15.74C146.869 15.9933 147.003 16.3067 147.003 16.68C147.003 17.0533 146.869 17.3733 146.603 17.64C146.349 17.8933 146.036 18.02 145.663 18.02C145.276 18.02 144.956 17.8933 144.703 17.64ZM149.453 7.4V5.5C150.279 5.02 151.199 4.78 152.213 4.78C153.546 4.78 154.586 5.11333 155.333 5.78C156.093 6.43333 156.473 7.26 156.473 8.26C156.473 8.98 156.293 9.61333 155.933 10.16C155.586 10.6933 155.066 11.1 154.373 11.38C155.133 11.5667 155.726 11.92 156.153 12.44C156.579 12.96 156.793 13.6133 156.793 14.4C156.793 15.48 156.406 16.3733 155.633 17.08C154.859 17.7733 153.773 18.12 152.373 18.12C151.053 18.12 149.939 17.8933 149.033 17.44V15.52C150.019 16.0533 151.099 16.32 152.273 16.32C153.059 16.32 153.673 16.1267 154.113 15.74C154.566 15.34 154.793 14.8333 154.793 14.22C154.793 13.58 154.546 13.0867 154.053 12.74C153.559 12.3933 152.819 12.22 151.833 12.22H151.033V10.54H151.833C152.566 10.54 153.179 10.36 153.673 10C154.179 9.62667 154.433 9.12 154.433 8.48C154.433 7.84 154.226 7.36 153.813 7.04C153.413 6.72 152.859 6.56 152.153 6.56C151.246 6.56 150.346 6.84 149.453 7.4ZM158.157 4.92H166.777V6.62L161.457 18H159.357L164.697 6.62H158.157V4.92ZM179.658 14.34L175.658 10.62C175.338 11.0733 175.178 11.62 175.178 12.26C175.178 13.0333 175.418 13.66 175.898 14.14C176.391 14.62 177.018 14.86 177.778 14.86C178.498 14.86 179.125 14.6867 179.658 14.34ZM185.178 5V6.6H182.938V18H181.018V14.94C180.165 15.9267 179.018 16.42 177.578 16.42C176.391 16.42 175.371 16.0267 174.518 15.24C173.678 14.4533 173.258 13.4467 173.258 12.22C173.258 10.9933 173.671 9.98667 174.498 9.2C175.338 8.4 176.411 8 177.718 8C178.251 8 178.798 8.06667 179.358 8.2V9.88C178.838 9.72 178.338 9.64 177.858 9.64C177.351 9.64 176.898 9.73333 176.498 9.92L180.478 13.6C180.838 13.1067 181.018 12.56 181.018 11.96V6.6H171.798V5H185.178ZM184.35 5H198.37V6.6H196.15V18H194.21V10.52H190.51C191.43 11.0667 191.89 11.96 191.89 13.2C191.89 14.28 191.524 15.1467 190.79 15.8C190.057 16.4533 189.09 16.78 187.89 16.78C186.984 16.78 186.164 16.6333 185.43 16.34V14.62C186.097 14.9667 186.824 15.14 187.61 15.14C188.344 15.14 188.924 14.9533 189.35 14.58C189.79 14.2067 190.01 13.68 190.01 13C190.01 12.2 189.717 11.5867 189.13 11.16C188.557 10.7333 187.75 10.52 186.71 10.52V8.9H194.21V6.6H184.35V5ZM189.787 1.82V0.16C190.267 0.079999 190.667 0.0399988 190.987 0.0399988C191.694 0.0399988 192.301 0.186666 192.807 0.479999C193.314 0.759999 193.774 1.21333 194.187 1.84L196.347 5.14H194.247L192.607 2.66C192.167 1.99333 191.587 1.66 190.867 1.66C190.467 1.66 190.107 1.71333 189.787 1.82Z" fill="white"/>
</svg>
