<svg width="45" height="16" viewBox="0 0 45 16" fill="none" xmlns="http://www.w3.org/2000/svg">
<path d="M5.2255 9.672H8.7615V5.8H5.6575V8.088C5.6575 8.76 5.5135 9.288 5.2255 9.672ZM11.8495 4.728V5.8H10.0095V15H8.7615V10.76H6.0735C4.8895 10.76 3.98283 10.712 3.3535 10.616L6.2975 15H4.7775L1.7855 10.488V9.496H2.8415C3.4495 9.496 3.86017 9.37867 4.0735 9.144C4.2975 8.89867 4.4095 8.51467 4.4095 7.992V5.8H0.985501V4.728H11.8495ZM18.6838 8.312H14.8438C14.2464 8.312 13.9478 8.552 13.9478 9.032C13.9478 9.30933 14.0224 9.56 14.1718 9.784C14.3211 9.99733 14.4971 10.152 14.6998 10.248C15.1478 10.088 15.6651 10.008 16.2518 10.008C17.1264 10.008 17.7984 10.2213 18.2678 10.648C18.7371 11.064 18.9718 11.5653 18.9718 12.152C18.9718 12.504 18.9131 12.8027 18.7958 13.048H17.5638C17.7131 12.8453 17.7878 12.568 17.7878 12.216C17.7878 11.8747 17.6544 11.5973 17.3878 11.384C17.1318 11.16 16.7478 11.048 16.2358 11.048C15.5318 11.048 14.9824 11.2027 14.5878 11.512C14.1931 11.8213 13.9958 12.1947 13.9958 12.632C13.9958 13.1653 14.2251 13.6027 14.6838 13.944C15.1424 14.2747 15.8411 14.44 16.7798 14.44C17.4304 14.44 18.0971 14.344 18.7798 14.152V15.224C18.0438 15.4053 17.3451 15.496 16.6838 15.496C15.4251 15.496 14.4544 15.208 13.7718 14.632C13.0891 14.056 12.7478 13.384 12.7478 12.616C12.7478 11.8587 13.0838 11.2293 13.7558 10.728C13.0411 10.2587 12.6838 9.64 12.6838 8.872C12.6838 8.36 12.8651 7.96533 13.2278 7.688C13.5904 7.41067 14.0598 7.272 14.6358 7.272H17.4518V5.8H11.2918V4.728H20.4918V5.8H18.6838V8.312ZM24.9501 13C23.9581 13 23.1048 12.664 22.3901 11.992C21.6861 11.3093 21.2541 10.3547 21.0941 9.128C21.9475 9 22.5928 8.76533 23.0301 8.424C23.4781 8.08267 23.7021 7.68267 23.7021 7.224C23.7021 6.66933 23.5368 6.19467 23.2061 5.8H19.9261V4.728H30.6301V5.8H28.7901V15H27.5421V11.896C26.9981 12.632 26.1341 13 24.9501 13ZM25.0621 11.928C25.8088 11.928 26.4061 11.7253 26.8541 11.32C27.3128 10.904 27.5421 10.3493 27.5421 9.656V5.8H24.5501C24.8168 6.20533 24.9501 6.70133 24.9501 7.288C24.9501 8.54667 24.1608 9.42133 22.5821 9.912C22.7101 10.4987 22.9981 10.984 23.4461 11.368C23.8941 11.7413 24.4328 11.928 25.0621 11.928ZM33.1321 4.728H35.0201V5.8H33.1641V15H31.9321V5.8H30.0761V4.728H31.7561L30.4441 2.728C30.0815 2.17333 29.5961 1.896 28.9881 1.896C28.7748 1.896 28.5081 1.928 28.1881 1.992V0.903999C28.5721 0.84 28.8601 0.808 29.0521 0.808C29.5961 0.808 30.0601 0.925333 30.4441 1.16C30.8281 1.384 31.1801 1.74667 31.5001 2.248L33.1321 4.728ZM34.4605 4.728H44.3485V5.8H42.4925V15H41.2605V5.8H38.4605V9.544C38.4605 10.216 38.2898 10.7387 37.9485 11.112C37.6072 11.4747 37.1112 11.656 36.4605 11.656C36.0232 11.656 35.6338 11.5867 35.2925 11.448V10.344C35.6125 10.4933 35.9378 10.568 36.2685 10.568C36.9085 10.568 37.2285 10.2107 37.2285 9.496V5.8H34.4605V4.728Z" fill="white" fill-opacity="0.8"/>
</svg>
