<svg width="77" height="14" viewBox="0 0 77 14" fill="none" xmlns="http://www.w3.org/2000/svg">
<path d="M4.836 1.422C4.39733 1.422 4.04733 1.55267 3.786 1.814C3.534 2.066 3.408 2.41133 3.408 2.85V4.012H5.018V4.95H3.408V13H2.316V4.95H0.692V4.012H2.316V2.836C2.316 2.12667 2.54467 1.55267 3.002 1.114C3.46867 0.666 4.07067 0.442 4.808 0.442C5.27467 0.442 5.76 0.521333 6.264 0.679999C6.77733 0.838666 7.19733 1.002 7.524 1.17C7.86 1.338 8.31267 1.58533 8.882 1.912V3.004C7.21133 1.94933 5.86267 1.422 4.836 1.422ZM5.13908 9.094V8.184H6.07708C7.21574 8.184 7.78508 7.736 7.78508 6.84V4.95H4.39708V4.012H10.2771V4.95H8.87708V6.938C8.87708 7.60067 8.67174 8.12333 8.26108 8.506C7.85041 8.87933 7.29974 9.07533 6.60908 9.094H6.45508L9.42308 13H8.09308L5.13908 9.094ZM21.0708 4.95H15.9188V6.952C16.3481 6.504 16.8941 6.28 17.5568 6.28C18.3221 6.28 18.9428 6.51333 19.4188 6.98C19.8948 7.44667 20.1328 8.058 20.1328 8.814C20.1328 9.626 19.8668 10.2747 19.3348 10.76C18.8028 11.2453 18.1401 11.488 17.3468 11.488C17.2441 11.488 17.1368 11.4787 17.0248 11.46V10.522C17.1181 10.5407 17.2114 10.55 17.3048 10.55C17.7994 10.55 18.2101 10.396 18.5368 10.088C18.8634 9.78 19.0268 9.35533 19.0268 8.814C19.0268 8.338 18.8774 7.95067 18.5788 7.652C18.2894 7.344 17.9068 7.19 17.4308 7.19C17.0201 7.19 16.6654 7.33467 16.3668 7.624C16.0681 7.904 15.9188 8.25867 15.9188 8.688V13H14.8128V10.984C14.4021 11.4133 13.8608 11.628 13.1888 11.628C12.4234 11.628 11.8028 11.3993 11.3268 10.942C10.8508 10.4753 10.6128 9.864 10.6128 9.108C10.6128 8.296 10.8788 7.64733 11.4108 7.162C11.9428 6.66733 12.6008 6.42 13.3848 6.42C13.5341 6.42 13.6414 6.434 13.7068 6.462V7.386C13.6601 7.37667 13.5714 7.372 13.4408 7.372C12.9368 7.372 12.5214 7.526 12.1948 7.834C11.8681 8.142 11.7048 8.562 11.7048 9.094C11.7048 9.57 11.8541 9.962 12.1528 10.27C12.4514 10.578 12.8388 10.732 13.3148 10.732C13.7254 10.732 14.0754 10.5873 14.3648 10.298C14.6634 10.0087 14.8128 9.64933 14.8128 9.22V4.95H9.66075V4.012H21.0708V4.95ZM20.4615 4.95V4.012H24.8015V4.95H23.1775V13H22.0855V4.95H20.4615ZM30.0743 7.064H27.6383C27.3023 7.064 27.0223 7.134 26.7983 7.274C26.5743 7.414 26.4623 7.638 26.4623 7.946C26.4623 8.26333 26.6023 8.49667 26.8823 8.646C27.1623 8.786 27.6523 8.87467 28.3523 8.912C30.0323 8.95867 30.8723 9.60267 30.8723 10.844C30.8629 11.488 30.6016 12.0107 30.0883 12.412C29.5843 12.8133 28.8983 13.014 28.0303 13.014C27.0316 13.014 26.1449 12.8087 25.3703 12.398V11.32C26.2009 11.8333 27.0876 12.09 28.0303 12.09C28.5623 12.09 28.9823 11.9827 29.2903 11.768C29.5983 11.5533 29.7523 11.25 29.7523 10.858C29.7523 10.5127 29.6123 10.2607 29.3323 10.102C29.0523 9.94333 28.5856 9.85 27.9323 9.822C26.2149 9.74733 25.3563 9.13133 25.3563 7.974C25.3563 7.37667 25.5663 6.91933 25.9863 6.602C26.4063 6.28467 26.9429 6.126 27.5963 6.126H28.9823V4.95H24.1803V4.012H32.0903V4.95H30.0743V7.064ZM28.5506 1.842L28.7886 2.234C28.8446 1.814 29.0359 1.46867 29.3626 1.198C29.6799 0.927333 30.0766 0.791999 30.5526 0.791999C30.9166 0.791999 31.2199 0.848 31.4626 0.96V1.968C31.1826 1.828 30.8839 1.758 30.5666 1.758C30.2492 1.758 30.0019 1.856 29.8246 2.052C29.6379 2.23867 29.5446 2.5 29.5446 2.836C29.5446 3.09733 29.6146 3.35867 29.7546 3.62C29.8852 3.872 30.0299 4.06333 30.1886 4.194H29.3486L29.2926 4.11H28.9006L27.6826 2.262C27.3652 1.77667 26.9406 1.534 26.4086 1.534C26.2219 1.534 25.9886 1.562 25.7086 1.618V0.665999C26.0446 0.61 26.2966 0.582 26.4646 0.582C26.9312 0.582 27.3279 0.68 27.6546 0.875999C27.9719 1.072 28.2706 1.394 28.5506 1.842ZM37.3751 7.064H34.9391C34.6031 7.064 34.3231 7.134 34.0991 7.274C33.8751 7.414 33.7631 7.638 33.7631 7.946C33.7631 8.26333 33.9031 8.49667 34.1831 8.646C34.4631 8.786 34.9531 8.87467 35.6531 8.912C37.3331 8.95867 38.1731 9.60267 38.1731 10.844C38.1637 11.488 37.9024 12.0107 37.3891 12.412C36.8851 12.8133 36.1991 13.014 35.3311 13.014C34.3324 13.014 33.4457 12.8087 32.6711 12.398V11.32C33.5017 11.8333 34.3884 12.09 35.3311 12.09C35.8631 12.09 36.2831 11.9827 36.5911 11.768C36.8991 11.5533 37.0531 11.25 37.0531 10.858C37.0531 10.5127 36.9131 10.2607 36.6331 10.102C36.3531 9.94333 35.8864 9.85 35.2331 9.822C33.5157 9.74733 32.6571 9.13133 32.6571 7.974C32.6571 7.37667 32.8671 6.91933 33.2871 6.602C33.7071 6.28467 34.2437 6.126 34.8971 6.126H36.2831V4.95H31.4811V4.012H39.3911V4.95H37.3751V7.064ZM55.7518 4.012V4.95H54.1278V13H53.0358V4.95H50.4178V13H49.3258V9.36H47.3938C47.4031 9.42533 47.4078 9.528 47.4078 9.668C47.4078 10.3587 47.1605 10.9187 46.6658 11.348C46.1805 11.7773 45.5038 11.992 44.6358 11.992C44.0291 11.992 43.4598 11.88 42.9278 11.656V10.62C43.5065 10.9093 44.0711 11.054 44.6218 11.054C45.0698 11.054 45.4618 10.9373 45.7978 10.704C46.1431 10.4613 46.3158 10.0833 46.3158 9.57C46.3158 9.16867 46.1711 8.856 45.8818 8.632C45.5925 8.408 45.1538 8.296 44.5658 8.296H44.0898V7.316H44.5378C45.0325 7.316 45.4058 7.20867 45.6578 6.994C45.9098 6.77933 46.0358 6.49 46.0358 6.126C46.0358 5.36067 45.5971 4.978 44.7198 4.978C44.2251 4.978 43.7725 5.09 43.3618 5.314V4.278C43.7631 4.11 44.2205 4.026 44.7338 4.026C45.4991 4.026 46.0871 4.20333 46.4978 4.558C46.9178 4.91267 47.1278 5.39333 47.1278 6C47.1278 6.46667 47.0065 6.854 46.7638 7.162C46.5305 7.47 46.2225 7.67533 45.8398 7.778C46.3158 7.84333 46.6985 8.05333 46.9878 8.408H49.3258V4.95H48.0518V4.012H55.7518ZM63.7854 4.012V4.95H62.1614V13H61.0694V10.676C60.5841 11.376 59.8374 11.726 58.8294 11.726C58.0827 11.726 57.4387 11.488 56.8974 11.012C56.3654 10.5267 56.0994 9.87333 56.0994 9.052C56.0994 8.28667 56.3561 7.652 56.8694 7.148C57.3921 6.63467 58.0594 6.378 58.8714 6.378C59.2167 6.378 59.5107 6.41533 59.7534 6.49V7.456C59.5201 7.372 59.2447 7.33 58.9274 7.33C58.4327 7.33 58.0221 7.48867 57.6954 7.806C57.3687 8.114 57.2054 8.52467 57.2054 9.038C57.2054 9.57933 57.3687 10.0133 57.6954 10.34C58.0314 10.6667 58.4467 10.83 58.9414 10.83C59.5947 10.83 60.1127 10.6107 60.4954 10.172C60.8781 9.73333 61.0694 9.21533 61.0694 8.618V4.95H55.1334V4.012H63.7854ZM63.1725 4.95V4.012H67.5125V4.95H65.8885V13H64.7965V4.95H63.1725ZM66.8912 4.012H76.6072V4.95H74.9832V13H73.8912V7.624H71.0772C71.7492 8.02533 72.0852 8.68333 72.0852 9.598C72.0852 10.354 71.8286 10.9653 71.3152 11.432C70.8112 11.8893 70.1392 12.118 69.2992 12.118C68.6832 12.118 68.1232 12.0153 67.6192 11.81V10.802C68.1232 11.0633 68.6459 11.194 69.1872 11.194C69.7286 11.194 70.1626 11.0493 70.4892 10.76C70.8252 10.4613 70.9932 10.0507 70.9932 9.528C70.9932 8.90267 70.7739 8.43133 70.3352 8.114C69.9059 7.78733 69.3086 7.624 68.5432 7.624V6.686H73.8912V4.95H66.8912V4.012Z" fill="#5A6872"/>
</svg>

