<svg width="84" height="14" viewBox="0 0 84 14" fill="none" xmlns="http://www.w3.org/2000/svg">
<path d="M5.032 0.442C6.46933 0.442 7.762 0.572666 8.91 0.834C10.058 1.086 11.2387 1.44533 12.452 1.912V3.004C10.0347 1.94933 7.566 1.422 5.046 1.422C4.52333 1.422 4.11733 1.55267 3.828 1.814C3.548 2.066 3.408 2.42533 3.408 2.892V4.012H5.018V4.95H3.408V13H2.316V4.95H0.692V4.012H2.316V2.878C2.316 2.15 2.55867 1.562 3.044 1.114C3.53867 0.666 4.20133 0.442 5.032 0.442ZM8.10708 8.338H11.2011V4.95H8.48508V6.952C8.48508 7.54 8.35908 8.002 8.10708 8.338ZM13.9031 4.012V4.95H12.2931V13H11.2011V9.29H8.84908C7.81308 9.29 7.01974 9.248 6.46908 9.164L9.04508 13H7.71508L5.09708 9.052V8.184H6.02108C6.55308 8.184 6.91241 8.08133 7.09908 7.876C7.29508 7.66133 7.39308 7.32533 7.39308 6.868V4.95H4.39708V4.012H13.9031ZM24.1758 4.012V4.95H22.5518V13H21.4458V7.456C21.2031 7.33467 20.9511 7.274 20.6898 7.274C19.6818 7.274 19.1778 7.86667 19.1778 9.052V10.06H18.0858V9.024C18.0858 7.91333 17.6798 7.358 16.8678 7.358C16.4571 7.358 16.1165 7.53067 15.8458 7.876C15.5845 8.212 15.4538 8.69733 15.4538 9.332C15.4538 10.1253 15.6591 10.7833 16.0698 11.306C16.4805 11.8193 17.0825 12.076 17.8758 12.076C18.0345 12.076 18.1605 12.0667 18.2538 12.048V12.958C18.0858 12.986 17.9085 13 17.7218 13C16.7138 13 15.9018 12.6547 15.2858 11.964C14.6698 11.264 14.3618 10.382 14.3618 9.318C14.3618 8.46867 14.5811 7.778 15.0198 7.246C15.4585 6.70467 16.0418 6.434 16.7698 6.434C17.2738 6.434 17.6891 6.55067 18.0158 6.784C18.3425 7.008 18.5525 7.33 18.6458 7.75C18.8605 6.83533 19.5138 6.378 20.6058 6.378C20.9138 6.378 21.1938 6.42933 21.4458 6.532V4.95H13.2838V4.012H24.1758ZM18.189 1.618V0.665999C18.525 0.61 18.777 0.582 18.945 0.582C19.421 0.582 19.827 0.684666 20.163 0.889999C20.499 1.086 20.807 1.40333 21.087 1.842L22.585 4.11H21.381L20.163 2.262C19.8457 1.77667 19.421 1.534 18.889 1.534C18.7024 1.534 18.469 1.562 18.189 1.618ZM29.823 4.95V6.952C30.2524 6.504 30.7984 6.28 31.461 6.28C32.2637 6.28 32.903 6.546 33.379 7.078C33.9577 6.75133 34.611 6.588 35.339 6.588C35.4884 6.588 35.6004 6.59267 35.675 6.602V4.95H29.823ZM36.767 4.95V7.554C36.4684 7.50733 36.1417 7.484 35.787 7.484C34.9564 7.484 34.2844 7.67533 33.771 8.058C33.267 8.43133 33.015 8.97267 33.015 9.682C33.015 10.3447 33.239 10.858 33.687 11.222C34.1444 11.586 34.7464 11.768 35.493 11.768C36.2304 11.768 36.893 11.5907 37.481 11.236V12.244C36.9024 12.5427 36.2257 12.692 35.451 12.692C34.387 12.692 33.5237 12.426 32.861 11.894C32.2077 11.3527 31.881 10.6107 31.881 9.668C31.881 8.92133 32.1097 8.27733 32.567 7.736C32.259 7.372 31.8484 7.19 31.335 7.19C30.9244 7.19 30.5697 7.33467 30.271 7.624C29.9724 7.904 29.823 8.25867 29.823 8.688V13H28.717V10.984C28.3064 11.4133 27.765 11.628 27.093 11.628C26.3277 11.628 25.707 11.3993 25.231 10.942C24.755 10.4753 24.517 9.864 24.517 9.108C24.517 8.296 24.783 7.64733 25.315 7.162C25.847 6.66733 26.505 6.42 27.289 6.42C27.4384 6.42 27.5457 6.434 27.611 6.462V7.386C27.5644 7.37667 27.4757 7.372 27.345 7.372C26.841 7.372 26.4257 7.526 26.099 7.834C25.7724 8.142 25.609 8.562 25.609 9.094C25.609 9.57 25.7584 9.962 26.057 10.27C26.3557 10.578 26.743 10.732 27.219 10.732C27.6297 10.732 27.9797 10.5873 28.269 10.298C28.5677 10.0087 28.717 9.64933 28.717 9.22V4.95H23.565V4.012H38.321V4.95H36.767ZM32.3941 1.618V0.665999C32.7301 0.61 32.9821 0.582 33.1501 0.582C33.6261 0.582 34.0321 0.684666 34.3681 0.889999C34.7041 1.086 35.0121 1.40333 35.2921 1.842L36.7901 4.11H35.5861L34.3681 2.262C34.0508 1.77667 33.6261 1.534 33.0941 1.534C32.9075 1.534 32.6741 1.562 32.3941 1.618ZM43.5821 7.064H41.1461C40.8101 7.064 40.5301 7.134 40.3061 7.274C40.0821 7.414 39.9701 7.638 39.9701 7.946C39.9701 8.26333 40.1101 8.49667 40.3901 8.646C40.6701 8.786 41.1601 8.87467 41.8601 8.912C43.5401 8.95867 44.3801 9.60267 44.3801 10.844C44.3708 11.488 44.1094 12.0107 43.5961 12.412C43.0921 12.8133 42.4061 13.014 41.5381 13.014C40.5394 13.014 39.6528 12.8087 38.8781 12.398V11.32C39.7088 11.8333 40.5954 12.09 41.5381 12.09C42.0701 12.09 42.4901 11.9827 42.7981 11.768C43.1061 11.5533 43.2601 11.25 43.2601 10.858C43.2601 10.5127 43.1201 10.2607 42.8401 10.102C42.5601 9.94333 42.0934 9.85 41.4401 9.822C39.7228 9.74733 38.8641 9.13133 38.8641 7.974C38.8641 7.37667 39.0741 6.91933 39.4941 6.602C39.9141 6.28467 40.4508 6.126 41.1041 6.126H42.4901V4.95H37.6881V4.012H45.5981V4.95H43.5821V7.064ZM61.9588 4.012V4.95H60.3348V13H59.2428V4.95H56.6248V13H55.5328V9.36H53.6008C53.6102 9.42533 53.6148 9.528 53.6148 9.668C53.6148 10.3587 53.3675 10.9187 52.8728 11.348C52.3875 11.7773 51.7108 11.992 50.8428 11.992C50.2362 11.992 49.6668 11.88 49.1348 11.656V10.62C49.7135 10.9093 50.2782 11.054 50.8288 11.054C51.2768 11.054 51.6688 10.9373 52.0048 10.704C52.3502 10.4613 52.5228 10.0833 52.5228 9.57C52.5228 9.16867 52.3782 8.856 52.0888 8.632C51.7995 8.408 51.3608 8.296 50.7728 8.296H50.2968V7.316H50.7448C51.2395 7.316 51.6128 7.20867 51.8648 6.994C52.1168 6.77933 52.2428 6.49 52.2428 6.126C52.2428 5.36067 51.8042 4.978 50.9268 4.978C50.4322 4.978 49.9795 5.09 49.5688 5.314V4.278C49.9702 4.11 50.4275 4.026 50.9408 4.026C51.7062 4.026 52.2942 4.20333 52.7048 4.558C53.1248 4.91267 53.3348 5.39333 53.3348 6C53.3348 6.46667 53.2135 6.854 52.9708 7.162C52.7375 7.47 52.4295 7.67533 52.0468 7.778C52.5228 7.84333 52.9055 8.05333 53.1948 8.408H55.5328V4.95H54.2588V4.012H61.9588ZM67.1784 7.036H64.9384C64.5464 7.036 64.2384 7.11067 64.0144 7.26C63.7904 7.40933 63.6784 7.624 63.6784 7.904C63.6784 8.184 63.8138 8.394 64.0844 8.534C64.3551 8.66467 64.8031 8.75333 65.4284 8.8C67.1178 8.90267 67.9624 9.56533 67.9624 10.788C67.9624 11.3853 67.7384 11.8893 67.2904 12.3C66.8518 12.7107 66.2918 12.916 65.6104 12.916C64.8171 12.916 64.1638 12.6873 63.6504 12.23V13.84H62.5724V10.648H63.5664C63.7158 11.04 63.9724 11.3667 64.3364 11.628C64.7098 11.88 65.1204 12.006 65.5684 12.006C65.9511 12.006 66.2638 11.894 66.5064 11.67C66.7491 11.446 66.8704 11.1567 66.8704 10.802C66.8704 10.1487 66.3291 9.78933 65.2464 9.724C63.4638 9.64 62.5724 9.04267 62.5724 7.932C62.5724 7.36267 62.7871 6.91467 63.2164 6.588C63.6458 6.26133 64.2104 6.098 64.9104 6.098H66.0724V4.95H61.3404V4.012H68.6904V4.95H67.1784V7.036ZM72.7987 11.768C73.536 11.768 74.1987 11.5907 74.7867 11.236V12.244C74.208 12.5427 73.5313 12.692 72.7567 12.692C71.6927 12.692 70.8293 12.426 70.1667 11.894C69.5133 11.3527 69.1867 10.6107 69.1867 9.668C69.1867 8.76267 69.5087 8.02533 70.1527 7.456C70.7967 6.88667 71.6273 6.59733 72.6447 6.588C72.794 6.588 72.906 6.59267 72.9807 6.602V4.95H68.0807V4.012H75.6267V4.95H74.0727V7.554C73.774 7.50733 73.4473 7.484 73.0927 7.484C72.262 7.484 71.59 7.67533 71.0767 8.058C70.5727 8.43133 70.3207 8.97267 70.3207 9.682C70.3207 10.3447 70.5447 10.858 70.9927 11.222C71.45 11.586 72.052 11.768 72.7987 11.768ZM75.0123 4.95V4.012H83.6363V4.95H82.0263V13H80.9343V9.08H77.9943V10.984H77.0423L76.6923 10.2C76.4403 9.60267 76.3143 9.18267 76.3143 8.94C76.3143 8.75333 76.3656 8.59467 76.4683 8.464C76.5803 8.33333 76.725 8.24467 76.9023 8.198V4.95H75.0123ZM80.9343 4.95H77.9943V8.156H80.9343V4.95Z" fill="#5A6872"/>
</svg>
