<svg width="108" height="16" viewBox="0 0 108 16" fill="none" xmlns="http://www.w3.org/2000/svg">
<path d="M7.314 4.012V4.95H5.494C5.82067 5.30467 5.984 5.73867 5.984 6.252C5.984 7.25067 5.49867 7.88533 4.528 8.156C5.04133 8.20267 5.48933 8.41267 5.872 8.786C6.264 9.15933 6.46 9.64933 6.46 10.256C6.46 11.0027 6.18933 11.6047 5.648 12.062C5.10667 12.51 4.34133 12.734 3.352 12.734C2.708 12.734 2.064 12.6127 1.42 12.37V11.362C2.01733 11.6513 2.63333 11.796 3.268 11.796C3.90267 11.796 4.40667 11.6653 4.78 11.404C5.16267 11.1333 5.354 10.7273 5.354 10.186C5.354 9.70067 5.158 9.32267 4.766 9.052C4.374 8.78133 3.85133 8.646 3.198 8.646H2.554V7.694H3.198C4.318 7.694 4.878 7.21333 4.878 6.252C4.878 5.73867 4.682 5.30467 4.29 4.95H0.692V4.012H7.314ZM12.3223 7.652V4.95H9.04628V7.764C9.04628 8.42667 9.16761 8.90733 9.41028 9.206C9.65295 9.49533 10.0263 9.64 10.5303 9.64C11.0249 9.64 11.4449 9.46267 11.7903 9.108C12.1449 8.744 12.3223 8.25867 12.3223 7.652ZM15.0383 4.012V4.95H13.4283V13H12.3223V9.668C11.8929 10.2373 11.2723 10.5267 10.4603 10.536C8.78028 10.536 7.94028 9.60733 7.94028 7.75V4.95H6.68028V4.012H15.0383ZM25.3106 4.012V4.95H23.6866V13H22.5806V7.456C22.3379 7.33467 22.0859 7.274 21.8246 7.274C20.8166 7.274 20.3126 7.86667 20.3126 9.052V10.06H19.2206V9.024C19.2206 7.91333 18.8146 7.358 18.0026 7.358C17.5919 7.358 17.2512 7.53067 16.9806 7.876C16.7192 8.212 16.5886 8.69733 16.5886 9.332C16.5886 10.1253 16.7939 10.7833 17.2046 11.306C17.6152 11.8193 18.2172 12.076 19.0106 12.076C19.1692 12.076 19.2952 12.0667 19.3886 12.048V12.958C19.2206 12.986 19.0432 13 18.8566 13C17.8486 13 17.0366 12.6547 16.4206 11.964C15.8046 11.264 15.4966 10.382 15.4966 9.318C15.4966 8.46867 15.7159 7.778 16.1546 7.246C16.5932 6.70467 17.1766 6.434 17.9046 6.434C18.4086 6.434 18.8239 6.55067 19.1506 6.784C19.4772 7.008 19.6872 7.33 19.7806 7.75C19.9952 6.83533 20.6486 6.378 21.7406 6.378C22.0486 6.378 22.3286 6.42933 22.5806 6.532V4.95H14.4186V4.012H25.3106ZM27.3738 4.012H29.0258V4.95H27.4018V13H26.3238V4.95H24.6998V4.012H26.1698L25.0218 2.262C24.7045 1.77667 24.2798 1.534 23.7478 1.534C23.5611 1.534 23.3278 1.562 23.0478 1.618V0.665999C23.3838 0.61 23.6358 0.582 23.8038 0.582C24.2798 0.582 24.6858 0.684666 25.0218 0.889999C25.3578 1.086 25.6658 1.40333 25.9458 1.842L27.3738 4.012ZM34.2989 7.064H31.8629C31.5269 7.064 31.2469 7.134 31.0229 7.274C30.7989 7.414 30.6869 7.638 30.6869 7.946C30.6869 8.26333 30.8269 8.49667 31.1069 8.646C31.3869 8.786 31.8769 8.87467 32.5769 8.912C34.2569 8.95867 35.0969 9.60267 35.0969 10.844C35.0876 11.488 34.8262 12.0107 34.3129 12.412C33.8089 12.8133 33.1229 13.014 32.2549 13.014C31.2562 13.014 30.3696 12.8087 29.5949 12.398V11.32C30.4256 11.8333 31.3122 12.09 32.2549 12.09C32.7869 12.09 33.2069 11.9827 33.5149 11.768C33.8229 11.5533 33.9769 11.25 33.9769 10.858C33.9769 10.5127 33.8369 10.2607 33.5569 10.102C33.2769 9.94333 32.8102 9.85 32.1569 9.822C30.4396 9.74733 29.5809 9.13133 29.5809 7.974C29.5809 7.37667 29.7909 6.91933 30.2109 6.602C30.6309 6.28467 31.1676 6.126 31.8209 6.126H33.2069V4.95H28.4049V4.012H36.3149V4.95H34.2989V7.064ZM50.5336 4.95H45.3816V6.952C45.811 6.504 46.357 6.28 47.0196 6.28C47.785 6.28 48.4056 6.51333 48.8816 6.98C49.3576 7.44667 49.5956 8.058 49.5956 8.814C49.5956 9.626 49.3296 10.2747 48.7976 10.76C48.2656 11.2453 47.603 11.488 46.8096 11.488C46.707 11.488 46.5996 11.4787 46.4876 11.46V10.522C46.581 10.5407 46.6743 10.55 46.7676 10.55C47.2623 10.55 47.673 10.396 47.9996 10.088C48.3263 9.78 48.4896 9.35533 48.4896 8.814C48.4896 8.338 48.3403 7.95067 48.0416 7.652C47.7523 7.344 47.3696 7.19 46.8936 7.19C46.483 7.19 46.1283 7.33467 45.8296 7.624C45.531 7.904 45.3816 8.25867 45.3816 8.688V13H44.2756V10.984C43.865 11.4133 43.3236 11.628 42.6516 11.628C41.8863 11.628 41.2656 11.3993 40.7896 10.942C40.3136 10.4753 40.0756 9.864 40.0756 9.108C40.0756 8.296 40.3416 7.64733 40.8736 7.162C41.4056 6.66733 42.0636 6.42 42.8476 6.42C42.997 6.42 43.1043 6.434 43.1696 6.462V7.386C43.123 7.37667 43.0343 7.372 42.9036 7.372C42.3996 7.372 41.9843 7.526 41.6576 7.834C41.331 8.142 41.1676 8.562 41.1676 9.094C41.1676 9.57 41.317 9.962 41.6156 10.27C41.9143 10.578 42.3016 10.732 42.7776 10.732C43.1883 10.732 43.5383 10.5873 43.8276 10.298C44.1263 10.0087 44.2756 9.64933 44.2756 9.22V4.95H39.1236V4.012H50.5336V4.95ZM52.6264 4.012H54.2504V4.95H52.6404V13H51.5484V4.95H49.9244V4.012H51.5204V3.564C51.5204 2.92 51.2591 2.402 50.7364 2.01C50.2138 1.618 49.3784 1.422 48.2304 1.422C47.2691 1.422 46.5551 1.576 46.0884 1.884C45.6124 2.192 45.3744 2.60267 45.3744 3.116V3.214H44.2824V3.088C44.2824 2.26667 44.6418 1.62267 45.3604 1.156C46.0791 0.689333 47.0358 0.456 48.2304 0.456C49.6491 0.456 50.7364 0.731333 51.4924 1.282C52.2484 1.82333 52.6264 2.598 52.6264 3.606V4.012ZM63.5155 7.148H60.1555C59.6328 7.148 59.3715 7.358 59.3715 7.778C59.3715 8.02067 59.4368 8.23067 59.5675 8.408C59.6981 8.58533 59.8521 8.716 60.0295 8.8C60.4215 8.66 60.8741 8.59 61.3875 8.59C62.1715 8.59 62.7595 8.77667 63.1515 9.15C63.5528 9.514 63.7535 9.95267 63.7535 10.466C63.7535 10.774 63.7068 11.0213 63.6135 11.208H62.5355C62.6661 11.0213 62.7315 10.7927 62.7315 10.522C62.7315 10.2233 62.6148 9.98067 62.3815 9.794C62.1575 9.598 61.8215 9.5 61.3735 9.5C60.7575 9.5 60.2768 9.64467 59.9315 9.934C59.5861 10.214 59.4135 10.5453 59.4135 10.928C59.4135 11.3573 59.5441 11.712 59.8055 11.992C60.0668 12.2627 60.4588 12.412 60.9815 12.44C61.3175 12.272 61.6675 12.188 62.0315 12.188C62.6288 12.188 63.1095 12.3467 63.4735 12.664C63.8375 12.972 64.0195 13.392 64.0195 13.924C64.0195 14.512 63.7955 14.9927 63.3475 15.366C62.9088 15.7393 62.3115 15.926 61.5555 15.926C61.0795 15.926 60.5941 15.8513 60.0995 15.702C59.6048 15.562 59.1941 15.3707 58.8675 15.128V14.022C59.2408 14.302 59.6701 14.5353 60.1555 14.722C60.6501 14.918 61.1028 15.016 61.5135 15.016C61.9708 15.016 62.3208 14.9133 62.5635 14.708C62.8155 14.512 62.9415 14.26 62.9415 13.952C62.9415 13.3827 62.5961 13.098 61.9055 13.098C61.5881 13.098 61.3128 13.1867 61.0795 13.364L60.8555 13.35C60.0715 13.2847 59.4508 13.028 58.9935 12.58C58.5455 12.132 58.3215 11.5767 58.3215 10.914C58.3215 10.2327 58.6155 9.67267 59.2035 9.234C58.5781 8.82333 58.2655 8.29133 58.2655 7.638C58.2655 7.19 58.4241 6.84467 58.7415 6.602C59.0588 6.35933 59.4695 6.238 59.9735 6.238H62.4375V4.95H57.0475V4.012H65.0975V4.95H63.5155V7.148ZM70.2813 7.036H68.0693C67.6773 7.036 67.3693 7.11067 67.1453 7.26C66.9213 7.40933 66.8093 7.624 66.8093 7.904C66.8093 8.184 66.9446 8.394 67.2153 8.534C67.486 8.66467 67.934 8.75333 68.5593 8.8C70.2486 8.90267 71.0933 9.56533 71.0933 10.788C71.0933 11.3853 70.8693 11.8893 70.4213 12.3C69.9826 12.7107 69.4226 12.916 68.7413 12.916C67.948 12.916 67.2946 12.6873 66.7813 12.23V13.84H65.7033V10.648H66.6973C66.8466 11.04 67.1033 11.3667 67.4673 11.628C67.8406 11.88 68.2513 12.006 68.6993 12.006C69.082 12.006 69.3946 11.894 69.6373 11.67C69.88 11.446 70.0013 11.1567 70.0013 10.802C70.0013 10.1487 69.46 9.78933 68.3773 9.724C66.5946 9.64 65.7033 9.04267 65.7033 7.932C65.7033 7.36267 65.918 6.91467 66.3473 6.588C66.7766 6.26133 67.3413 6.098 68.0413 6.098H69.1753V4.95H64.4713V4.012H68.8813C68.5733 3.648 68.4193 3.20467 68.4193 2.682C68.4193 2.14067 68.6013 1.68333 68.9653 1.31C69.3386 0.936666 69.8333 0.749999 70.4493 0.749999C70.832 0.749999 71.1633 0.815332 71.4433 0.945999V1.94C71.1446 1.8 70.832 1.73 70.5053 1.73C70.1973 1.73 69.9546 1.828 69.7773 2.024C69.6093 2.21067 69.5253 2.458 69.5253 2.766C69.5253 3.20467 69.7026 3.62 70.0573 4.012H71.8213V4.95H70.2813V7.036ZM80.4675 7.036H78.2275C77.8355 7.036 77.5275 7.11067 77.3035 7.26C77.0795 7.40933 76.9675 7.624 76.9675 7.904C76.9675 8.184 77.1028 8.394 77.3735 8.534C77.6442 8.66467 78.0922 8.75333 78.7175 8.8C80.4068 8.90267 81.2515 9.56533 81.2515 10.788C81.2515 11.3853 81.0275 11.8893 80.5795 12.3C80.1408 12.7107 79.5808 12.916 78.8995 12.916C78.1062 12.916 77.4528 12.6873 76.9395 12.23V13.84H75.8615V10.648H76.8555C77.0048 11.04 77.2615 11.3667 77.6255 11.628C77.9988 11.88 78.4095 12.006 78.8575 12.006C79.2402 12.006 79.5528 11.894 79.7955 11.67C80.0382 11.446 80.1595 11.1567 80.1595 10.802C80.1595 10.1487 79.6182 9.78933 78.5355 9.724C76.7528 9.64 75.8615 9.04267 75.8615 7.932C75.8615 7.36267 76.0762 6.91467 76.5055 6.588C76.9348 6.26133 77.4995 6.098 78.1995 6.098H79.3615V4.95H74.6295V4.012H81.9795V4.95H80.4675V7.036ZM81.3697 4.95V4.012H89.9937V4.95H88.3837V13H87.2917V9.08H84.3517V10.984H83.3997L83.0497 10.2C82.7977 9.60267 82.6717 9.18267 82.6717 8.94C82.6717 8.75333 82.7231 8.59467 82.8257 8.464C82.9377 8.33333 83.0824 8.24467 83.2597 8.198V4.95H81.3697ZM87.2917 4.95H84.3517V8.156H87.2917V4.95ZM84.0055 1.618V0.665999C84.3415 0.61 84.5935 0.582 84.7615 0.582C85.2375 0.582 85.6435 0.684666 85.9795 0.889999C86.3155 1.086 86.6235 1.40333 86.9035 1.842L88.4015 4.11H87.1975L85.9795 2.262C85.6621 1.77667 85.2375 1.534 84.7055 1.534C84.5188 1.534 84.2855 1.562 84.0055 1.618ZM89.3815 4.012H99.0975V4.95H97.4735V13H96.3815V7.624H93.5675C94.2395 8.02533 94.5755 8.68333 94.5755 9.598C94.5755 10.354 94.3188 10.9653 93.8055 11.432C93.3015 11.8893 92.6295 12.118 91.7895 12.118C91.1735 12.118 90.6135 12.0153 90.1095 11.81V10.802C90.6135 11.0633 91.1361 11.194 91.6775 11.194C92.2188 11.194 92.6528 11.0493 92.9795 10.76C93.3155 10.4613 93.4835 10.0507 93.4835 9.528C93.4835 8.90267 93.2641 8.43133 92.8255 8.114C92.3961 7.78733 91.7988 7.624 91.0335 7.624V6.686H96.3815V4.95H89.3815V4.012ZM93.1109 1.618V0.665999C93.4469 0.61 93.6989 0.582 93.8669 0.582C94.3429 0.582 94.7489 0.684666 95.0849 0.889999C95.4209 1.086 95.7289 1.40333 96.0089 1.842L97.5069 4.11H96.3029L95.0849 2.262C94.7676 1.77667 94.3429 1.534 93.8109 1.534C93.6243 1.534 93.3909 1.562 93.1109 1.618ZM102.197 8.338H105.291V4.95H102.575V6.952C102.575 7.54 102.449 8.002 102.197 8.338ZM107.993 4.012V4.95H106.383V13H105.291V9.29H102.939C101.903 9.29 101.11 9.248 100.559 9.164L103.135 13H101.805L99.1869 9.052V8.184H100.111C100.643 8.184 101.002 8.08133 101.189 7.876C101.385 7.66133 101.483 7.32533 101.483 6.868V4.95H98.4869V4.012H107.993Z" fill="#5A6872"/>
</svg>
