<svg width="95" height="19" viewBox="0 0 95 19" fill="none" xmlns="http://www.w3.org/2000/svg">
<path d="M0.52 6H11.52V7.6H9.3V19H7.36V12.5H4.12C3.88 12.5 3.70667 12.5667 3.6 12.7C3.50667 12.82 3.46 13.0267 3.46 13.32C3.46 13.7333 3.54 14.2133 3.7 14.76H2.12C1.72 14.08 1.52 13.3333 1.52 12.52C1.52 12.0267 1.67333 11.64 1.98 11.36C2.28667 11.0667 2.75333 10.92 3.38 10.92H7.36V7.6H0.52V6ZM14.8091 6H17.0691V7.6H14.8491V19H12.9291V7.6H10.7091V6H12.7091L11.1691 3.66C10.7291 2.99333 10.1491 2.66 9.42906 2.66C9.02906 2.66 8.66906 2.71333 8.34906 2.82V1.16C8.82906 1.08 9.22906 1.04 9.54906 1.04C10.2557 1.04 10.8624 1.18667 11.3691 1.48C11.8757 1.76 12.3357 2.21333 12.7491 2.84L14.8091 6ZM22.3702 0.859999C23.7702 0.859999 25.0768 1.02667 26.2902 1.36C27.5168 1.68 28.8902 2.15333 30.4102 2.78V4.6C27.4235 3.22667 24.7635 2.54 22.4302 2.54C21.7768 2.54 21.2702 2.71333 20.9102 3.06C20.5502 3.39333 20.3702 3.86 20.3702 4.46V6H22.5902V7.6H20.3702V19H18.4502V7.6H16.2302V6H18.4502V4.44C18.4502 3.37333 18.8035 2.51333 19.5102 1.86C20.2168 1.19333 21.1702 0.859999 22.3702 0.859999ZM30.6508 7.6V11.42C30.2774 11.34 29.7574 11.3 29.0908 11.3C27.9308 11.3 27.0041 11.5533 26.3108 12.06C25.6308 12.5667 25.2908 13.2867 25.2908 14.22C25.2908 15.1133 25.6041 15.8 26.2308 16.28C26.8574 16.76 27.6841 17 28.7108 17C29.2174 17 29.7374 16.92 30.2708 16.76C30.8174 16.6 31.2508 16.42 31.5708 16.22V17.98C30.7174 18.42 29.7308 18.64 28.6108 18.64C26.9974 18.64 25.7108 18.2467 24.7508 17.46C23.7908 16.66 23.3108 15.56 23.3108 14.16C23.3108 12.88 23.7708 11.8267 24.6908 11C25.6108 10.1733 26.8241 9.75333 28.3308 9.74H28.7308V7.6H21.7708V6H32.7708V7.6H30.6508ZM38.1598 0.859999C39.7732 0.859999 41.2732 1.02667 42.6598 1.36C44.0598 1.68 45.5598 2.15333 47.1598 2.78V4.6C43.9732 3.22667 40.9865 2.54 38.1998 2.54C37.5332 2.54 37.0132 2.71333 36.6398 3.06C36.2798 3.39333 36.0998 3.86667 36.0998 4.48V6H38.3198V7.6H36.0998V19H34.1798V7.6H31.9598V6H34.1798V4.46C34.1798 3.39333 34.5398 2.52667 35.2598 1.86C35.9798 1.19333 36.9465 0.859999 38.1598 0.859999ZM45.5005 11.4V7.6H41.2405V11.56C41.2405 12.4 41.4005 13 41.7205 13.36C42.0405 13.72 42.5271 13.9 43.1805 13.9C43.8338 13.9 44.3805 13.68 44.8205 13.24C45.2738 12.8 45.5005 12.1867 45.5005 11.4ZM54.6005 7.6H47.4405V10.14C48.0538 9.52667 48.8471 9.22 49.8205 9.22C50.9271 9.22 51.8071 9.56667 52.4605 10.26C53.1271 10.9533 53.4605 11.84 53.4605 12.92C53.4605 14.1467 53.0671 15.1067 52.2805 15.8C51.5071 16.48 50.5405 16.82 49.3805 16.82C49.2471 16.82 49.0871 16.8067 48.9005 16.78V15.18C49.0605 15.2067 49.1871 15.22 49.2805 15.22C49.9605 15.22 50.5071 15.02 50.9205 14.62C51.3338 14.22 51.5405 13.6533 51.5405 12.92C51.5405 12.3067 51.3538 11.8 50.9805 11.4C50.6071 11 50.1205 10.8 49.5205 10.8C48.9338 10.8 48.4405 10.9933 48.0405 11.38C47.6405 11.7667 47.4405 12.2667 47.4405 12.88V19H45.5005V14.42C44.8738 15.1133 44.0205 15.46 42.9405 15.46C41.7405 15.46 40.8338 15.1533 40.2205 14.54C39.6071 13.9267 39.3005 12.9333 39.3005 11.56V7.6H37.5005V6H54.6005V7.6ZM70.3838 7.6H63.0438V10.26C63.6438 9.66 64.3971 9.36 65.3038 9.36C66.4371 9.36 67.3438 9.7 68.0238 10.38C68.7171 11.06 69.0638 11.9533 69.0638 13.06C69.0638 14.2467 68.6704 15.1933 67.8838 15.9C67.1104 16.6067 66.1371 16.96 64.9638 16.96C64.8171 16.96 64.6638 16.9467 64.5038 16.92V15.32C64.5838 15.3333 64.7104 15.34 64.8838 15.34C65.5504 15.34 66.0904 15.14 66.5038 14.74C66.9171 14.3267 67.1238 13.7733 67.1238 13.08C67.1238 12.4533 66.9304 11.94 66.5438 11.54C66.1704 11.1267 65.6638 10.92 65.0238 10.92C64.4771 10.92 64.0104 11.12 63.6238 11.52C63.2371 11.9067 63.0438 12.3933 63.0438 12.98V19H61.1038V16.26C60.4771 16.86 59.7171 17.16 58.8238 17.16C57.7038 17.16 56.7971 16.82 56.1038 16.14C55.4104 15.4467 55.0638 14.5533 55.0638 13.46C55.0638 12.2733 55.4504 11.3267 56.2238 10.62C57.0104 9.91333 57.9904 9.56 59.1638 9.56C59.3771 9.56 59.5304 9.57333 59.6238 9.6V11.2C59.4904 11.1733 59.3638 11.16 59.2438 11.16C58.5904 11.16 58.0504 11.3667 57.6238 11.78C57.2104 12.1933 57.0038 12.7467 57.0038 13.44C57.0038 14.0667 57.1971 14.5867 57.5838 15C57.9704 15.4 58.4771 15.6 59.1038 15.6C59.6504 15.6 60.1171 15.4067 60.5038 15.02C60.9038 14.62 61.1038 14.1267 61.1038 13.54V7.6H53.7638V6H70.3838V7.6ZM56.7006 2.82V1.16C57.1806 1.08 57.5806 1.04 57.9006 1.04C58.6073 1.04 59.214 1.18667 59.7206 1.48C60.2273 1.76 60.6873 2.21333 61.1006 2.84L63.2606 6.14H61.1606L59.5206 3.66C59.0806 2.99333 58.5006 2.66 57.7806 2.66C57.3806 2.66 57.0206 2.71333 56.7006 2.82ZM73.7083 10.18H71.8483C71.6483 9.74 71.5483 9.29333 71.5483 8.84C71.5483 8.04 71.8283 7.36 72.3883 6.8C72.9616 6.22667 73.7216 5.94 74.6683 5.94C75.7349 5.94 76.5883 6.28667 77.2283 6.98C77.8683 7.67333 78.1883 8.53333 78.1883 9.56C78.1883 10.96 77.7149 12.0467 76.7683 12.82C75.8216 13.5933 74.7149 13.98 73.4483 13.98H73.1083L77.7283 19H75.2083L70.7883 14.06V12.38H72.8283C73.9216 12.38 74.7683 12.1333 75.3683 11.64C75.9683 11.1467 76.2683 10.4533 76.2683 9.56C76.2683 8.24 75.7416 7.58 74.6883 7.58C74.2616 7.58 73.9416 7.72 73.7283 8C73.5149 8.26667 73.4083 8.6 73.4083 9C73.4083 9.38667 73.5083 9.78 73.7083 10.18ZM80.1683 6H84.3283V7.6H82.1083V19H80.1683V6ZM83.5106 6H94.5106V7.6H92.2906V19H90.3506V12.5H87.1106C86.8706 12.5 86.6973 12.5667 86.5906 12.7C86.4973 12.82 86.4506 13.0267 86.4506 13.32C86.4506 13.7333 86.5306 14.2133 86.6906 14.76H85.1106C84.7106 14.08 84.5106 13.3333 84.5106 12.52C84.5106 12.0267 84.664 11.64 84.9706 11.36C85.2773 11.0667 85.744 10.92 86.3706 10.92H90.3506V7.6H83.5106V6Z" fill="white"/>
</svg>
