<svg xmlns="http://www.w3.org/2000/svg" xmlns:xlink="http://www.w3.org/1999/xlink" width="8" height="17" version="1.1"><rect id="backgroundrect" width="100%" height="100%" x="0" y="0" fill="none" stroke="none"/>
    <!-- Generator: Sketch 50.2 (55047) - http://www.bohemiancoding.com/sketch -->
    <title>battery_charging_full - material</title>
    <desc>Created with Sketch.</desc>
    <defs/>
    
<g class="currentLayer" style=""><title>Layer 1</title><g id="REVAMP-FILES" stroke="none" stroke-width="1" fill="#e84141" fill-rule="evenodd" class="selected" fill-opacity="1">
        <g id="Group-15" fill="#e84141" fill-opacity="1">
            <path d="M7.219999999999999,1.64 C7.5400016,1.64 7.8099989,1.7499988999999996 8.030000000000001,1.9699999999999998 C8.250001099999999,2.1900010999999995 8.36,2.4599983999999995 8.36,2.7799999999999994 L8.36,15.54 C8.36,15.8600016 8.250001099999999,16.1233323 8.030000000000001,16.330000000000002 C7.8099989,16.5366677 7.5400016,16.64 7.219999999999999,16.64 L1.1400000000000006,16.64 C0.8199983999999995,16.64 0.5500010999999994,16.5366677 0.33000000000000024,16.330000000000002 C0.10999889999999912,16.1233323 1.1102230328969627e-16,15.8600016 1.1102230328969627e-16,15.54 L1.1102230328969627e-16,2.7799999999999994 C1.1102230328969627e-16,2.4599983999999995 0.10999889999999912,2.1900010999999995 0.33000000000000024,1.9699999999999998 C0.5500010999999994,1.7499988999999996 0.8199983999999995,1.64 1.1400000000000006,1.64 L2.5,1.64 L2.5,-2.220446057522119e-16 L5.859999999999999,-2.220446057522119e-16 L5.859999999999999,1.64 L7.219999999999999,1.64 z" id="battery_charging_full---material" fill="#e84141" fill-opacity="1"/>
        </g>
    </g></g></svg>