<svg xmlns="http://www.w3.org/2000/svg" xmlns:xlink="http://www.w3.org/1999/xlink" width="8" height="17" version="1.1"><rect id="backgroundrect" width="100%" height="100%" x="0" y="0" fill="none" stroke="none"/>
    <!-- Generator: Sketch 50.2 (55047) - http://www.bohemiancoding.com/sketch -->
    <title>battery_charging_full - material</title>
    <desc>Created with Sketch.</desc>
    <defs/>
    
<g class="currentLayer" style=""><title>Layer 1</title><g id="REVAMP-FILES" stroke="none" stroke-width="1" fill="#e84141" fill-rule="evenodd" class="selected" fill-opacity="1">
        <g id="Live-Tracking" fill="#e84141" fill-opacity="1">
            <g id="Group-12" fill="#e84141" fill-opacity="1">
                <g id="Group-8" fill="#e84141" fill-opacity="1">
                    <g id="Group-18" fill="#e84141" fill-opacity="1">
                        <g id="Group-15" fill="#e84141" fill-opacity="1">
                            <path d="M3.3600000071525074,14.999999992847393 L6.680000007152557,8.739999992847402 L5.000000007152607,8.739999992847402 L5.000000007152607,4.139999992847493 L1.6800000071525574,10.379999992847388 L3.3600000071525074,10.379999992847388 L3.3600000071525074,14.999999992847393 zM7.220000007152521,1.6399999928474926 C7.54000160715259,1.6399999928474926 7.80999890715259,1.74999889284743 8.03000000715258,1.96999999284742 C8.25000110715257,2.1900010928474103 8.360000007152507,2.4599983928474103 8.360000007152507,2.779999992847479 L8.360000007152507,15.53999999284747 C8.360000007152507,15.860001592847425 8.25000110715257,16.123332292847408 8.03000000715258,16.329999992847434 C7.80999890715259,16.53666769284746 7.54000160715259,16.639999992847493 7.220000007152521,16.639999992847493 L1.1400000071525938,16.639999992847493 C0.819998407152525,16.639999992847493 0.5500011071525253,16.53666769284746 0.33000000715253464,16.329999992847434 C0.10999890715254435,16.123332292847408 7.1526073952554725e-9,15.860001592847425 7.1526073952554725e-9,15.53999999284747 L7.1526073952554725e-9,2.779999992847479 C7.1526073952554725e-9,2.4599983928474103 0.10999890715254435,2.1900010928474103 0.33000000715253464,1.96999999284742 C0.5500011071525253,1.74999889284743 0.819998407152525,1.6399999928474926 1.1400000071525938,1.6399999928474926 L2.5000000071526074,1.6399999928474926 L2.5000000071526074,-7.1526071732108676e-9 L5.860000007152507,-7.1526071732108676e-9 L5.860000007152507,1.6399999928474926 L7.220000007152521,1.6399999928474926 z" id="battery_charging_full---material" fill="#e84141" fill-opacity="1"/>
                        </g>
                    </g>
                </g>
            </g>
        </g>
    </g></g></svg>