<?xml version="1.0" encoding="UTF-8"?>
<svg width="24px" height="24px" viewBox="0 0 24 24" version="1.1" xmlns="http://www.w3.org/2000/svg" xmlns:xlink="http://www.w3.org/1999/xlink">
    <!-- Generator: Sketch 50.2 (55047) - http://www.bohemiancoding.com/sketch -->
    <title>Group 41</title>
    <desc>Created with Sketch.</desc>
    <defs></defs>
    <g id="REVAMP-FILES" stroke="none" stroke-width="1" fill="none" fill-rule="evenodd">
        <g id="Group-41" transform="translate(1.000000, 1.000000)">
            <path d="M18.4050699,12.3793467 L18.3813441,12.3561644 C18.3101668,12.1938883 18.2152636,12.0084299 18.1203605,11.8461538 L12.0228331,0 L5.90157992,11.8461538 C5.80667677,12.0084299 5.71177362,12.170706 5.64059626,12.3561644 L5.61687047,12.3793467 C5.23725787,13.2370917 5,14.1643836 5,15.1612223 C5,18.9399368 8.13180394,22 11.9991073,22 C15.8664106,22 18.9982146,18.9399368 18.9982146,15.1612223 C19.0219404,14.1875659 18.8084083,13.2370917 18.4050699,12.3793467 Z M7.32512717,16.0421496 C6.7082567,16.0421496 6.18628937,15.5553214 6.18628937,14.9293994 C6.18628937,14.3034773 6.68453091,13.8166491 7.32512717,13.8166491 C7.96572343,13.8166491 8.46396497,14.3034773 8.46396497,14.9293994 C8.46396497,15.5553214 7.96572343,16.0421496 7.32512717,16.0421496 Z M10.5518343,20.516333 C9.43672225,20.516333 8.51141654,19.6354057 8.51141654,18.5226554 C8.51141654,17.4099052 9.41299646,16.5289779 10.5518343,16.5289779 C11.6906721,16.5289779 12.592252,17.4099052 12.592252,18.5226554 C12.592252,19.6354057 11.6669463,20.516333 10.5518343,20.516333 Z" id="Shape" fill="#BCBCBC" fill-rule="nonzero"></path>
            <g id="Group-39" stroke="#ADADAD" stroke-width="1.62909085">
                <circle id="Oval" cx="11" cy="11" r="11"></circle>
                <path d="M2.78571429,15.7857143 L20.0714286,4.78571429" id="Line" stroke-linecap="square"></path>
            </g>
        </g>
    </g>
</svg>