<?xml version="1.0" encoding="UTF-8"?>
<svg width="14px" height="22px" viewBox="0 0 14 22" version="1.1" xmlns="http://www.w3.org/2000/svg" xmlns:xlink="http://www.w3.org/1999/xlink">
    <!-- Generator: Sketch 50.2 (55047) - http://www.bohemiancoding.com/sketch -->
    <title>Shape</title>
    <desc>Created with Sketch.</desc>
    <defs></defs>
    <g id="REVAMP-FILES" stroke="none" stroke-width="1" fill="none" fill-rule="evenodd">
        <path d="M13.4050699,12.3793467 C13.3101668,12.1938883 13.2152636,12.0084299 13.1203605,11.8461538 L7.02283308,0 L0.901579923,11.8461538 C0.806676773,12.0084299 0.711773623,12.170706 0.640596261,12.3561644 C0.237257874,13.2370917 0,14.1643836 0,15.1612223 C0,18.9399368 3.13180394,22 6.99910729,22 C10.8664106,22 13.9982146,18.9399368 13.9982146,15.1612223 C14.0219404,14.1875659 13.8084083,13.2370917 13.4050699,12.3793467 Z M2.32512717,16.0421496 C1.7082567,16.0421496 1.18628937,15.5553214 1.18628937,14.9293994 C1.18628937,14.3034773 1.68453091,13.8166491 2.32512717,13.8166491 C2.96572343,13.8166491 3.46396497,14.3034773 3.46396497,14.9293994 C3.46396497,15.5553214 2.96572343,16.0421496 2.32512717,16.0421496 Z M5.55183426,20.516333 C4.43672225,20.516333 3.51141654,19.6354057 3.51141654,18.5226554 C3.51141654,17.4099052 4.41299646,16.5289779 5.55183426,16.5289779 C6.69067206,16.5289779 7.59225198,17.4099052 7.59225198,18.5226554 C7.59225198,19.6354057 6.66694627,20.516333 5.55183426,20.516333 Z" id="Shape" fill="#29C16B" fill-rule="nonzero"></path>
    </g>
</svg>