<?xml version="1.0" encoding="UTF-8"?>
<svg width="14px" height="22px" viewBox="0 0 14 22" version="1.1" xmlns="http://www.w3.org/2000/svg" xmlns:xlink="http://www.w3.org/1999/xlink">
    <!-- Generator: Sketch 50.2 (55047) - http://www.bohemiancoding.com/sketch -->
    <title>Shape</title>
    <desc>Created with Sketch.</desc>
    <defs></defs>
    <g id="REVAMP-FILES" stroke="none" stroke-width="1" fill="none" fill-rule="evenodd">
        <g id="Live-Tracking" transform="translate(-1090.000000, -653.000000)" fill="#7D7D7D" fill-rule="nonzero">
            <g id="Group-12" transform="translate(627.000000, 476.000000)">
                <g id="Group-8" transform="translate(2.000000, 156.000000)">
                    <g id="Group-18" transform="translate(28.000000, 14.000000)">
                        <g id="Group-11" transform="translate(412.000000, 7.000000)">
                            <g id="Group-10">
                                <path d="M34.4050699,12.3793467 L34.3813441,12.3561644 C34.3101668,12.1938883 34.2152636,12.0084299 34.1203605,11.8461538 L28.0228331,0 L21.9015799,11.8461538 C21.8066768,12.0084299 21.7117736,12.170706 21.6405963,12.3561644 L21.6168705,12.3793467 C21.2372579,13.2370917 21,14.1643836 21,15.1612223 C21,18.9399368 24.1318039,22 27.9991073,22 C31.8664106,22 34.9982146,18.9399368 34.9982146,15.1612223 C35.0219404,14.1875659 34.8084083,13.2370917 34.4050699,12.3793467 Z M23.3251272,16.0421496 C22.7082567,16.0421496 22.1862894,15.5553214 22.1862894,14.9293994 C22.1862894,14.3034773 22.6845309,13.8166491 23.3251272,13.8166491 C23.9657234,13.8166491 24.463965,14.3034773 24.463965,14.9293994 C24.463965,15.5553214 23.9657234,16.0421496 23.3251272,16.0421496 Z M26.5518343,20.516333 C25.4367223,20.516333 24.5114165,19.6354057 24.5114165,18.5226554 C24.5114165,17.4099052 25.4129965,16.5289779 26.5518343,16.5289779 C27.6906721,16.5289779 28.592252,17.4099052 28.592252,18.5226554 C28.592252,19.6354057 27.6669463,20.516333 26.5518343,20.516333 Z" id="Shape"></path>
                            </g>
                        </g>
                    </g>
                </g>
            </g>
        </g>
    </g>
</svg>