<?xml version="1.0" encoding="UTF-8"?>
<svg width="18px" height="19px" viewBox="0 0 18 19" version="1.1" xmlns="http://www.w3.org/2000/svg" xmlns:xlink="http://www.w3.org/1999/xlink">
    <!-- Generator: Sketch 50.2 (55047) - http://www.bohemiancoding.com/sketch -->
    <title>power-off - FontAwesome</title>
    <desc>Created with Sketch.</desc>
    <defs></defs>
    <g id="REVAMP-FILES" stroke="none" stroke-width="1" fill="none" fill-rule="evenodd">
        <g id="Live-Tracking" transform="translate(-681.000000, -649.000000)" fill="#26B756">
            <g id="Group-12" transform="translate(627.000000, 476.000000)">
                <g id="Group-8" transform="translate(2.000000, 156.000000)">
                    <g id="Group-18" transform="translate(28.000000, 14.000000)">
                        <g id="Group-14" transform="translate(0.000000, 3.000000)">
                            <path d="M42,10.2678231 C42,15.0773424 37.9570312,19 33,19 C28.0429688,19 24,15.0773424 24,10.2678231 C24,7.50490769 25.3125,4.95802275 27.5976562,3.29799952 C28.265625,2.80908858 29.203125,2.93415882 29.6953125,3.58225008 C30.1992188,4.21897131 30.0585938,5.1399431 29.4023438,5.61748403 C27.8789062,6.73174619 27,8.42587948 27,10.2678231 C27,13.4741693 29.6953125,16.0892744 33,16.0892744 C36.3046875,16.0892744 39,13.4741693 39,10.2678231 C39,8.42587948 38.1210938,6.73174619 36.5976562,5.61748403 C35.9414062,5.1399431 35.8007812,4.21897131 36.3046875,3.58225008 C36.796875,2.93415882 37.7460938,2.80908858 38.4023438,3.29799952 C40.6875,4.95802275 42,7.50490769 42,10.2678231 Z M34,1.42857143 L34,8.57142857 C34,9.35267857 33.3203125,10 32.5,10 C31.6796875,10 31,9.35267857 31,8.57142857 L31,1.42857143 C31,0.647321429 31.6796875,0 32.5,0 C33.3203125,0 34,0.647321429 34,1.42857143 Z" id="power-off---FontAwesome"></path>
                        </g>
                    </g>
                </g>
            </g>
        </g>
    </g>
</svg>