<?xml version="1.0" encoding="UTF-8"?>
<svg width="18px" height="19px" viewBox="0 0 18 19" version="1.1" xmlns="http://www.w3.org/2000/svg" xmlns:xlink="http://www.w3.org/1999/xlink">
    <!-- Generator: Sketch 50.2 (55047) - http://www.bohemiancoding.com/sketch -->
    <title>Group 14</title>
    <desc>Created with Sketch.</desc>
    <defs></defs>
    <g id="REVAMP-FILES" stroke="none" stroke-width="1" fill="none" fill-rule="evenodd">
        <g id="Group-12" transform="translate(-154.000000, -103.000000)">
            <g id="Group-8" transform="translate(0.000000, 87.000000)">
                <g id="Group-18" transform="translate(0.000000, 13.000000)">
                    <g id="Group-14" transform="translate(154.000000, 3.000000)">
                        <path d="M18,10.2307692 C18,15.0606971 13.9570312,19 9,19 C4.04296875,19 0,15.0606971 0,10.2307692 C0,7.45612981 1.3125,4.8984375 3.59765625,3.23137019 C4.265625,2.74038462 5.203125,2.86598558 5.6953125,3.51682692 C6.19921875,4.15625 6.05859375,5.08112981 5.40234375,5.56069712 C3.87890625,6.6796875 3,8.38100962 3,10.2307692 C3,13.4507212 5.6953125,16.0769231 9,16.0769231 C12.3046875,16.0769231 15,13.4507212 15,10.2307692 C15,8.38100962 14.1210938,6.6796875 12.5976562,5.56069712 C11.9414062,5.08112981 11.8007812,4.15625 12.3046875,3.51682692 C12.796875,2.86598558 13.7460938,2.74038462 14.4023438,3.23137019 C16.6875,4.8984375 18,7.45612981 18,10.2307692 Z M10.5,1.46153846 L10.5,8.76923077 C10.5,9.56850962 9.8203125,10.2307692 9,10.2307692 C8.1796875,10.2307692 7.5,9.56850962 7.5,8.76923077 L7.5,1.46153846 C7.5,0.662259615 8.1796875,0 9,0 C9.8203125,0 10.5,0.662259615 10.5,1.46153846 Z" id="power-off---FontAwesome" fill="#7D7D7D"></path>
                        <circle id="Oval" stroke="#F14040" stroke-width="1.14285714" cx="9" cy="10" r="8"></circle>
                        <path d="M2.71428571,14 L15.2857143,6" id="Line" stroke="#F14040" stroke-width="1.14285714" stroke-linecap="square"></path>
                    </g>
                </g>
            </g>
        </g>
    </g>
</svg>