<?xml version="1.0" encoding="UTF-8"?>
<svg width="24px" height="12px" viewBox="0 0 24 12" version="1.1" xmlns="http://www.w3.org/2000/svg" xmlns:xlink="http://www.w3.org/1999/xlink">
    <!-- Generator: Sketch 50.2 (55047) - http://www.bohemiancoding.com/sketch -->
    <title>art_track - material</title>
    <desc>Created with Sketch.</desc>
    <defs></defs>
    <g id="Page-2" stroke="none" stroke-width="1" fill="none" fill-rule="evenodd">
        <g id="Fr3" transform="translate(-29.000000, -464.000000)" fill="#00A3DA">
            <g id="Group-13" transform="translate(23.000000, 254.000000)">
                <g id="Group-23" transform="translate(6.000000, 194.000000)">
                    <path d="M12,17.4545455 L12,24.7272727 C12,25.2528409 11.4583333,25.1818182 11.1111111,25.1818182 C11.1111111,26.1832386 10.3125,27 9.33333333,27 C8.35416667,27 7.55555556,26.1832386 7.55555556,25.1818182 L4.88888889,25.1818182 C4.88888889,26.1832386 4.09027778,27 3.11111111,27 C2.13194444,27 1.33333333,26.1832386 1.33333333,25.1818182 L0.888888889,25.1818182 C0.541666667,25.1818182 0,25.2528409 0,24.7272727 C0,24.4786932 0.201388889,24.2727273 0.444444444,24.2727273 L0.444444444,22 C0.444444444,21.4957386 0.375,20.9346591 0.756944444,20.5440341 L2.13194444,19.1377841 C2.30555556,18.9602273 2.63888889,18.8181818 2.88888889,18.8181818 L4,18.8181818 L4,17.4545455 C4,17.2059659 4.20138889,17 4.44444444,17 L11.5555556,17 C11.7986111,17 12,17.2059659 12,17.4545455 Z M13.9999998,26.5279998 L13.9999998,26.5279998 C13.9999998,25.878513 14.5265129,25.3519998 15.1759997,25.3519998 L22.1199996,25.3519998 C22.7694865,25.3519998 23.2959996,25.878513 23.2959996,26.5279998 L23.2959996,26.5279998 C23.2959996,27.1774867 22.7694865,27.7039998 22.1199996,27.7039998 L15.1759997,27.7039998 C14.5265129,27.7039998 13.9999998,27.1774867 13.9999998,26.5279998 Z M23.2959996,17.176 L23.2959996,17.176 C23.2959996,17.8254868 22.7694865,18.352 22.1199996,18.352 L15.1759997,18.352 C14.5265129,18.352 13.9999998,17.8254868 13.9999998,17.176 L13.9999998,17.176 C13.9999998,16.5265131 14.5265129,16 15.1759997,16 L22.1199996,16 C22.7694865,16 23.2959996,16.5265131 23.2959996,17.176 Z M22.1479999,23.296 L15.148,23.296 C14.5139771,23.296 14,22.7820229 14,22.148 L14,22.148 C14,21.5139771 14.5139771,21 15.148,21 L22.1479999,21 C22.7820227,21 23.2959998,21.5139771 23.2959998,22.148 L23.2959998,22.148 C23.2959998,22.7820229 22.7820227,23.296 22.1479999,23.296 Z" id="art_track---material"></path>
                </g>
            </g>
        </g>
    </g>
</svg>