<svg width="26" height="26" viewBox="0 0 26 26" fill="none" xmlns="http://www.w3.org/2000/svg">
<path d="M15.1609 10.3999H16.0275C16.2672 10.3999 16.4609 10.2062 16.4609 9.96654C16.4609 9.7269 16.2672 9.5332 16.0275 9.5332H15.1609C14.9212 9.5332 14.7275 9.7269 14.7275 9.96654C14.7275 10.2062 14.9212 10.3999 15.1609 10.3999Z" fill="#B6B6B6"/>
<path d="M13.645 13.4336C13.4574 13.4331 13.2749 13.3998 13.1025 13.3339C12.8806 13.2494 12.6288 13.3608 12.543 13.5844C12.4581 13.808 12.5703 14.0584 12.7935 14.1438C13.0648 14.2469 13.3503 14.2998 13.6441 14.3002H13.7988C14.0385 14.3002 14.2322 14.1065 14.2322 13.8669C14.2322 13.6273 14.0385 13.4336 13.7988 13.4336H13.645V13.4336Z" fill="#B6B6B6"/>
<path d="M12.6157 10.693C12.6941 10.693 12.773 10.6718 12.8445 10.6276C13.0365 10.508 13.2488 10.4348 13.4746 10.4096C13.7125 10.3832 13.8841 10.1691 13.8581 9.93122C13.8321 9.69332 13.6193 9.52345 13.3797 9.54772C13.0235 9.58715 12.6889 9.70242 12.3856 9.89178C12.1824 10.0183 12.1208 10.2857 12.2474 10.4889C12.3297 10.6207 12.471 10.693 12.6157 10.693Z" fill="#B6B6B6"/>
<path d="M15.3775 17.3335C15.3402 17.3335 15.3034 17.3344 15.2666 17.3361C15.0274 17.3456 14.8419 17.5476 14.8514 17.7868C14.8605 18.0199 15.0529 18.2023 15.2839 18.2023C15.29 18.2023 15.296 18.2023 15.3021 18.2019L16.151 18.2002C16.3906 18.2002 16.5843 18.0065 16.5843 17.7668C16.5843 17.5272 16.3906 17.3335 16.151 17.3335H15.3775Z" fill="#B6B6B6"/>
<path d="M18.6276 10.3999C18.8673 10.3999 19.061 10.2062 19.061 9.96654C19.061 9.7269 18.8673 9.5332 18.6276 9.5332H17.761C17.5213 9.5332 17.3276 9.7269 17.3276 9.96654C17.3276 10.2062 17.5213 10.3999 17.761 10.3999H18.6276Z" fill="#B6B6B6"/>
<path d="M20.4841 17.3335C20.2445 17.3335 20.0508 17.5272 20.0508 17.7668C20.0508 18.0065 20.2445 18.2002 20.4841 18.2002H21.3508C21.5904 18.2002 21.7841 18.0065 21.7841 17.7668C21.7841 17.5272 21.5904 17.3335 21.3508 17.3335H20.4841Z" fill="#B6B6B6"/>
<path d="M22.0322 13.8667C22.0322 13.6271 21.8385 13.4333 21.5988 13.4333H20.7322C20.4925 13.4333 20.2988 13.6271 20.2988 13.8667C20.2988 14.1063 20.4925 14.3 20.7322 14.3H21.5988C21.838 14.3 22.0322 14.1063 22.0322 13.8667Z" fill="#B6B6B6"/>
<path d="M17.8845 18.2002H18.7512C18.9908 18.2002 19.1845 18.0065 19.1845 17.7668C19.1845 17.5272 18.9908 17.3335 18.7512 17.3335H17.8845C17.6449 17.3335 17.4512 17.5272 17.4512 17.7668C17.4512 18.0065 17.6453 18.2002 17.8845 18.2002Z" fill="#B6B6B6"/>
<path d="M19.4326 13.8667C19.4326 13.6271 19.2389 13.4333 18.9992 13.4333H18.1326C17.8929 13.4333 17.6992 13.6271 17.6992 13.8667C17.6992 14.1063 17.8929 14.3 18.1326 14.3H18.9992C19.2384 14.3 19.4326 14.1063 19.4326 13.8667Z" fill="#B6B6B6"/>
<path d="M15.5329 13.4333C15.2933 13.4333 15.0996 13.6271 15.0996 13.8667C15.0996 14.1063 15.2933 14.3 15.5329 14.3H16.3996C16.6392 14.3 16.8329 14.1063 16.8329 13.8667C16.8329 13.6271 16.6392 13.4333 16.3996 13.4333H15.5329Z" fill="#B6B6B6"/>
<path d="M10.2082 25.1335H9.34154C9.1019 25.1335 8.9082 25.3272 8.9082 25.5669C8.9082 25.8065 9.1019 26.0002 9.34154 26.0002H10.2082C10.4478 26.0002 10.6415 25.8065 10.6415 25.5669C10.6415 25.3272 10.4474 25.1335 10.2082 25.1335Z" fill="#B6B6B6"/>
<path d="M7.6086 25.1335H6.74193C6.50229 25.1335 6.30859 25.3272 6.30859 25.5669C6.30859 25.8065 6.50229 26.0002 6.74193 26.0002H7.6086C7.84823 26.0002 8.04193 25.8065 8.04193 25.5669C8.04193 25.3272 7.8478 25.1335 7.6086 25.1335Z" fill="#B6B6B6"/>
<path d="M22.5756 23.6242C22.3421 23.5717 22.1102 23.7182 22.0578 23.9518C22.008 24.1728 21.9113 24.376 21.7705 24.555C21.6227 24.743 21.6548 25.0156 21.8433 25.1634C21.923 25.2258 22.0171 25.2561 22.1107 25.2561C22.2394 25.2561 22.3663 25.1993 22.4517 25.0906C22.6701 24.8132 22.8261 24.4856 22.9032 24.1424C22.9557 23.9084 22.8092 23.6766 22.5756 23.6242Z" fill="#B6B6B6"/>
<path d="M22.1103 22.8452C22.2039 22.8452 22.2988 22.8148 22.3777 22.7524C22.5662 22.6042 22.5983 22.3317 22.4505 22.144C22.2325 21.8671 21.9513 21.6383 21.6363 21.4819C21.4209 21.3748 21.1618 21.4628 21.0552 21.6769C20.9486 21.8914 21.0361 22.1514 21.2502 22.258C21.4508 22.3572 21.6302 22.5033 21.7689 22.6801C21.8547 22.7884 21.9816 22.8452 22.1103 22.8452Z" fill="#B6B6B6"/>
<path d="M20.1752 21.6667C20.1752 21.4271 19.9815 21.2334 19.7419 21.2334H18.8752C18.6356 21.2334 18.4419 21.4271 18.4419 21.6667C18.4419 21.9064 18.6356 22.1001 18.8752 22.1001H19.7419C19.9811 22.1001 20.1752 21.9064 20.1752 21.6667Z" fill="#B6B6B6"/>
<path d="M20.5778 25.1335H19.7414C19.5018 25.1335 19.3081 25.3272 19.3081 25.5669C19.3081 25.8065 19.5018 26.0002 19.7414 26.0002L20.5955 25.9998L20.6081 25.5664V25.9998C20.8477 25.9998 21.0263 25.8061 21.0263 25.5664C21.0263 25.3272 20.8174 25.1335 20.5778 25.1335Z" fill="#B6B6B6"/>
<path d="M25.532 15.4405C25.4938 15.2039 25.2707 15.0422 25.0354 15.0812C24.7988 15.1189 24.638 15.3417 24.6761 15.5778C24.6883 15.655 24.6952 15.7334 24.6943 15.817C24.6943 15.9626 24.6735 16.1065 24.6328 16.2452C24.5656 16.4749 24.6969 16.7158 24.927 16.783C24.9678 16.7947 25.0085 16.8003 25.0488 16.8003C25.2364 16.8003 25.4093 16.6781 25.4648 16.4887C25.5285 16.2707 25.561 16.045 25.561 15.8201C25.5619 15.6953 25.5523 15.5674 25.532 15.4405Z" fill="#B6B6B6"/>
<path d="M11.9263 12.9371C12.1534 12.8622 12.2773 12.6173 12.2028 12.3898C12.153 12.2377 12.1274 12.0787 12.1274 11.9183C12.1278 11.8529 12.1317 11.7875 12.1395 11.7238C12.1694 11.4863 12.0013 11.2692 11.7638 11.2397C11.519 11.2124 11.3093 11.3788 11.2798 11.6154C11.2677 11.7134 11.2612 11.813 11.2607 11.9162C11.2607 12.171 11.3006 12.4215 11.379 12.6607C11.4393 12.8431 11.6087 12.9588 11.7907 12.9588C11.8358 12.9588 11.8817 12.9523 11.9263 12.9371Z" fill="#B6B6B6"/>
<path d="M24.3701 13.7533C24.0607 13.5739 23.7227 13.4686 23.3661 13.4404C23.1282 13.4231 22.9189 13.5994 22.9003 13.8386C22.8816 14.0774 23.0597 14.2858 23.2985 14.3045C23.5247 14.3222 23.7392 14.389 23.9355 14.5029C24.004 14.5428 24.0789 14.5614 24.1526 14.5614C24.3021 14.5614 24.4477 14.4839 24.5279 14.3456C24.6479 14.1389 24.5773 13.8737 24.3701 13.7533Z" fill="#B6B6B6"/>
<path d="M23.7633 17.216C23.5774 17.294 23.3806 17.3335 23.1774 17.3335H23.0842C22.8446 17.3335 22.6509 17.5272 22.6509 17.7668C22.6509 18.0064 22.8446 18.2001 23.0842 18.2001H23.1774C23.4963 18.2001 23.8062 18.1378 24.0982 18.0151C24.3192 17.9224 24.4228 17.6684 24.3301 17.4479C24.2378 17.2273 23.9821 17.1233 23.7633 17.216Z" fill="#B6B6B6"/>
<path d="M13.8877 19.4301C13.9306 19.2074 14.0207 19.0015 14.1559 18.8178C14.2976 18.6254 14.2564 18.3541 14.0636 18.212C13.8708 18.0707 13.5999 18.1115 13.4578 18.3043C13.2459 18.5929 13.1038 18.9166 13.0362 19.2672C12.9911 19.502 13.1449 19.7291 13.3802 19.7746C13.4075 19.7798 13.4353 19.7824 13.4621 19.7824C13.6658 19.7815 13.8474 19.6372 13.8877 19.4301Z" fill="#B6B6B6"/>
<path d="M14.5669 21.9241C14.7315 21.9241 14.8884 21.8301 14.9612 21.671C15.0604 21.4531 14.9651 21.1961 14.7476 21.0969C14.5443 21.0037 14.3602 20.8637 14.2154 20.6913C14.0611 20.508 13.7881 20.4841 13.6048 20.6384C13.4215 20.7922 13.3977 21.0657 13.552 21.249C13.779 21.5189 14.0676 21.7391 14.387 21.8847C14.4455 21.9111 14.5066 21.9241 14.5669 21.9241Z" fill="#B6B6B6"/>
<path d="M12.8078 25.1335H11.9411C11.7015 25.1335 11.5078 25.3272 11.5078 25.5669C11.5078 25.8065 11.7015 26.0002 11.9411 26.0002H12.8078C13.0475 26.0002 13.2412 25.8065 13.2412 25.5669C13.2412 25.3272 13.047 25.1335 12.8078 25.1335Z" fill="#B6B6B6"/>
<path d="M15.4079 25.1335H14.5412C14.3016 25.1335 14.1079 25.3272 14.1079 25.5669C14.1079 25.8065 14.3016 26.0002 14.5412 26.0002H15.4079C15.6475 26.0002 15.8413 25.8065 15.8413 25.5669C15.8413 25.3272 15.6471 25.1335 15.4079 25.1335Z" fill="#B6B6B6"/>
<path d="M17.5751 21.6667C17.5751 21.4271 17.3814 21.2334 17.1418 21.2334H16.2751C16.0355 21.2334 15.8418 21.4271 15.8418 21.6667C15.8418 21.9064 16.0355 22.1001 16.2751 22.1001H17.1418C17.381 22.1001 17.5751 21.9064 17.5751 21.6667Z" fill="#B6B6B6"/>
<path d="M18.008 25.1335H17.1413C16.9017 25.1335 16.708 25.3272 16.708 25.5669C16.708 25.8065 16.9017 26.0002 17.1413 26.0002H18.008C18.2476 26.0002 18.4413 25.8065 18.4413 25.5669C18.4413 25.3272 18.2472 25.1335 18.008 25.1335Z" fill="#B6B6B6"/>
<path d="M8.88944 12.5569C7.90533 11.4454 6.59319 10.8335 5.19396 10.8335C3.79472 10.8335 2.48258 11.4454 1.49891 12.5569C-0.499635 14.815 -0.499635 18.4884 1.49891 20.7465L5.19396 24.9208L8.889 20.7465C10.888 18.4884 10.888 14.815 8.88944 12.5569ZM5.19396 18.6335C3.76005 18.6335 2.59394 17.4674 2.59394 16.0335C2.59394 14.5996 3.76005 13.4335 5.19396 13.4335C6.62786 13.4335 7.79397 14.5996 7.79397 16.0335C7.79397 17.4674 6.62786 18.6335 5.19396 18.6335Z" fill="#B6B6B6"/>
<path d="M20.9042 10.6197L23.7053 7.46246C25.2124 5.76379 25.2124 3.00085 23.7053 1.30217C22.9599 0.462369 21.965 0 20.9038 0C19.843 0 18.848 0.462369 18.1027 1.30217C16.596 3.00085 16.596 5.76379 18.1027 7.46246L20.9042 10.6197ZM21.0108 1.73334C22.3247 1.73334 23.3941 2.80281 23.3941 4.11668C23.3941 5.43056 22.3247 6.50003 21.0108 6.50003C19.6969 6.50003 18.6275 5.43056 18.6275 4.11668C18.6275 2.80281 19.6969 1.73334 21.0108 1.73334Z" fill="#B6B6B6"/>
</svg>
