<svg width="19" height="9" viewBox="0 0 19 9" fill="none" xmlns="http://www.w3.org/2000/svg">
<path d="M14.4645 3.66667C15.4765 3.66667 16.2872 2.84778 16.2872 1.83333C16.2872 0.818889 15.4765 0 14.4645 0C13.4526 0 12.6357 0.818889 12.6357 1.83333C12.6357 2.84778 13.4526 3.66667 14.4645 3.66667ZM9.58767 3.66667C10.5996 3.66667 11.4104 2.84778 11.4104 1.83333C11.4104 0.818889 10.5996 0 9.58767 0C8.57572 0 7.75885 0.818889 7.75885 1.83333C7.75885 2.84778 8.57572 3.66667 9.58767 3.66667ZM9.58767 4.88889C8.16729 4.88889 5.32043 5.60389 5.32043 7.02778V8.55555H13.8549V7.02778C13.8549 5.60389 11.0081 4.88889 9.58767 4.88889ZM14.4645 4.88889C14.2877 4.88889 14.0866 4.90111 13.8732 4.91944C14.5803 5.43278 15.0741 6.12333 15.0741 7.02778V8.55555H18.7318V7.02778C18.7318 5.60389 15.8849 4.88889 14.4645 4.88889Z" fill="#152935"/>
<path d="M13.8732 4.91944C14.0866 4.90111 14.2877 4.88889 14.4645 4.88889C15.8849 4.88889 18.7318 5.60389 18.7318 7.02778V8.55555H15.0741V7.02778C15.0741 6.12333 14.5803 5.43278 13.8732 4.91944Z" fill="#152935"/>
<path d="M5.32047 4.91944C5.10711 4.90111 4.90594 4.88888 4.72916 4.88888C3.30877 4.88888 0.461914 5.60388 0.461914 7.02777V8.55555H4.11955V7.02777C4.11955 6.12333 4.61333 5.43277 5.32047 4.91944Z" fill="#152935"/>
<path d="M16.2872 1.83333C16.2872 2.84778 15.4765 3.66667 14.4645 3.66667C13.4526 3.66667 12.6357 2.84778 12.6357 1.83333C12.6357 0.818889 13.4526 0 14.4645 0C15.4765 0 16.2872 0.818889 16.2872 1.83333Z" fill="#152935"/>
<path d="M6.3118 1.83333C6.3118 2.84778 5.50102 3.66667 4.48908 3.66667C3.47713 3.66667 2.66026 2.84778 2.66026 1.83333C2.66026 0.818889 3.47713 0 4.48908 0C5.50102 0 6.3118 0.818889 6.3118 1.83333Z" fill="#152935"/>
</svg>
