<svg width="15" height="15" viewBox="0 0 15 15" fill="none" xmlns="http://www.w3.org/2000/svg">
<path d="M12.2417 9.53346C11.3659 9.53346 10.5933 9.94719 10.0886 10.5808L5.40716 8.20694C5.46844 7.98029 5.51249 7.74611 5.51249 7.49965C5.51249 7.23135 5.46018 6.97875 5.38717 6.73296L10.048 4.37009C10.5499 5.03234 11.3424 5.46518 12.2424 5.46518C13.7668 5.46518 15 4.24244 15 2.73226C15 1.22344 13.7668 0 12.2424 0C10.7214 0 9.48684 1.22343 9.48684 2.73223C9.48684 2.97938 9.53092 3.21423 9.59288 3.44157L4.9121 5.81539C4.40671 5.18116 3.63276 4.76606 2.75556 4.76606C1.23248 4.76606 0 5.99016 0 7.49965C0 9.00914 1.23251 10.2326 2.75556 10.2326C3.65686 10.2326 4.44871 9.79837 4.9527 9.13546L9.61142 11.4983C9.53842 11.7434 9.48543 11.9981 9.48543 12.2671C9.48543 13.7766 10.72 15 12.241 15C13.7654 15 14.9986 13.7766 14.9986 12.2671C14.9993 10.7562 13.7661 9.53346 12.2417 9.53346Z" fill="#152935"/>
</svg>
