<svg width="16" height="15" viewBox="0 0 16 15" fill="none" xmlns="http://www.w3.org/2000/svg">
<g clip-path="url(#clip0)">
<path d="M7.78564 5.64844C6.76468 5.64844 5.93408 6.47903 5.93408 7.49997C5.93408 8.3695 6.53675 9.10058 7.34619 9.29842V14.5605C7.34619 14.8032 7.54295 15 7.78564 15C8.02834 15 8.2251 14.8032 8.2251 14.5605V9.29842C9.03454 9.10058 9.6372 8.36953 9.6372 7.49997C9.6372 6.47903 8.80661 5.64844 7.78564 5.64844Z" fill="black"/>
<path d="M7.78565 2.82422C5.2074 2.82422 3.10986 4.92176 3.10986 7.49997C3.10986 8.82832 3.67787 10.0986 4.66819 10.9851C4.84901 11.1469 5.12681 11.1316 5.28873 10.9507C5.45057 10.7699 5.43521 10.4921 5.25437 10.3302C4.45008 9.61022 3.98877 8.57865 3.98877 7.49997C3.98877 5.40639 5.69206 3.70312 7.78565 3.70312C9.87926 3.70312 11.5826 5.40639 11.5826 7.49997C11.5826 8.57865 11.1212 9.61025 10.3168 10.3302C10.136 10.4921 10.1206 10.7699 10.2825 10.9507C10.3693 11.0477 10.4894 11.0971 10.6101 11.0971C10.7144 11.0971 10.8192 11.0602 10.903 10.9851C11.8934 10.0986 12.4615 8.82832 12.4615 7.49997C12.4615 4.92176 10.3639 2.82422 7.78565 2.82422Z" fill="black"/>
<path d="M13.089 2.19671C11.6724 0.780146 9.78899 0 7.78564 0C5.7823 0 3.89889 0.780146 2.48229 2.19671C1.06579 3.6133 0.285645 5.49668 0.285645 7.49997C0.285645 10.4826 2.05195 13.1815 4.78553 14.3758C5.00801 14.4729 5.26699 14.3714 5.36414 14.149C5.46129 13.9266 5.3598 13.6676 5.13738 13.5704C2.72399 12.516 1.16455 10.1332 1.16455 7.49997C1.16455 3.84911 4.13476 0.878906 7.78564 0.878906C11.4365 0.878906 14.4067 3.84911 14.4067 7.49997C14.4067 10.1332 12.8473 12.5159 10.434 13.5704C10.2116 13.6676 10.1101 13.9267 10.2072 14.149C10.2794 14.3142 10.4408 14.4127 10.6102 14.4127C10.6689 14.4127 10.7286 14.4008 10.7859 14.3758C13.5194 13.1815 15.2856 10.4825 15.2856 7.49997C15.2856 5.49668 14.5055 3.6133 13.089 2.19671Z" fill="black"/>
</g>
<defs>
<clipPath id="clip0">
<rect width="15" height="15" fill="white" transform="translate(0.285645)"/>
</clipPath>
</defs>
</svg>
