<svg width="40" height="26" viewBox="0 0 40 26" fill="none" xmlns="http://www.w3.org/2000/svg">
<path d="M33.1058 18.6216C31.2042 18.6216 29.6572 20.169 29.6572 22.0701C29.6572 23.9717 31.2042 25.5187 33.1058 25.5187C35.0069 25.5187 36.5544 23.9717 36.5544 22.0701C36.5544 20.169 35.0069 18.6216 33.1058 18.6216ZM33.1058 23.0844C32.5463 23.0844 32.0915 22.6296 32.0915 22.0701C32.0915 21.5107 32.5463 21.0559 33.1058 21.0559C33.6652 21.0559 34.1201 21.5107 34.1201 22.0701C34.1201 22.6296 33.6652 23.0844 33.1058 23.0844Z" fill="#B6B6B6"/>
<path d="M32.6016 4.48242H26.6688C26.2224 4.48242 25.8608 4.84174 25.8608 5.28441V20.9232C25.8608 21.3659 26.2224 21.7252 26.6688 21.7252H27.5257C27.9256 21.7252 28.2799 21.4393 28.3316 21.0456C28.6487 18.634 30.5866 17.1383 32.9308 17.1383C35.2751 17.1383 37.213 18.634 37.5301 21.0456C37.5818 21.4394 37.9356 21.7252 38.336 21.7252H39.192C39.638 21.7252 39.9999 21.3659 39.9999 20.9232V13.1038C39.9999 12.9154 39.9333 12.7333 39.8117 12.5893L33.2212 4.76993C33.0678 4.58791 32.8407 4.48242 32.6016 4.48242ZM27.4767 10.8984V6.8884C27.4767 6.44573 27.8383 6.0864 28.2847 6.0864H31.8437C32.0833 6.0864 32.3107 6.19229 32.4642 6.3751L35.8305 10.3851C36.2688 10.9075 35.8948 11.7003 35.2097 11.7003H28.2847C27.8383 11.7003 27.4767 11.3415 27.4767 10.8984Z" fill="#B6B6B6"/>
<path d="M0.80278 21.7259H2.85833C3.25572 21.7259 3.60772 21.4391 3.65908 21.044C3.97415 18.6244 5.89965 17.1237 8.22889 17.1237C10.5581 17.1237 12.4836 18.6244 12.7987 21.044C12.8501 21.4391 13.2017 21.7259 13.5994 21.7259H23.682C24.1252 21.7259 24.4848 21.3654 24.4848 20.9213V0.804665C24.4848 0.360521 24.1251 0 23.682 0H0.80278C0.359218 0 0 0.360521 0 0.804665V20.9213C0 21.3655 0.359218 21.7259 0.80278 21.7259Z" fill="#B6B6B6"/>
<path d="M8.10231 18.6216C6.29583 18.6216 4.82617 20.169 4.82617 22.0701C4.82617 23.9717 6.29583 25.5187 8.10231 25.5187C9.9084 25.5187 11.3784 23.9717 11.3784 22.0701C11.3784 20.169 9.9084 18.6216 8.10231 18.6216ZM8.10231 23.0844C7.57083 23.0844 7.13874 22.6296 7.13874 22.0701C7.13874 21.5107 7.57083 21.0559 8.10231 21.0559C8.63378 21.0559 9.06588 21.5107 9.06588 22.0701C9.06588 22.6296 8.63378 23.0844 8.10231 23.0844Z" fill="#B6B6B6"/>
</svg>
