<svg width="22" height="11" viewBox="0 0 22 11" fill="none" xmlns="http://www.w3.org/2000/svg">
<path d="M4.888 5.672H8.424V1.8H5.32V4.088C5.32 4.76 5.176 5.288 4.888 5.672ZM11.512 0.728V1.8H9.672V11H8.424V6.76H5.736C4.552 6.76 3.64533 6.712 3.016 6.616L5.96 11H4.44L1.448 6.488V5.496H2.504C3.112 5.496 3.52267 5.37867 3.736 5.144C3.96 4.89867 4.072 4.51467 4.072 3.992V1.8H0.648V0.728H11.512ZM17.2582 8.232L13.8662 4.936C13.5569 5.33067 13.4022 5.82667 13.4022 6.424C13.4022 7.08533 13.6102 7.62933 14.0262 8.056C14.4529 8.472 14.9969 8.68 15.6582 8.68C16.2982 8.68 16.8316 8.53067 17.2582 8.232ZM21.5142 0.728V1.8H19.6582V11H18.4103V8.392C18.1223 8.776 17.7276 9.09067 17.2262 9.336C16.7249 9.58133 16.1649 9.704 15.5462 9.704C14.6182 9.704 13.8236 9.4 13.1622 8.792C12.5116 8.17333 12.1862 7.37867 12.1862 6.408C12.1862 5.43733 12.5116 4.64267 13.1622 4.024C13.8236 3.39467 14.6662 3.08 15.6902 3.08C16.1169 3.08 16.5596 3.13333 17.0182 3.24V4.344C16.5916 4.20533 16.1756 4.136 15.7702 4.136C15.2796 4.136 14.8636 4.22667 14.5222 4.408L17.8663 7.688C18.2289 7.22933 18.4103 6.70133 18.4103 6.104V1.8H10.9542V0.728H21.5142Z" fill="#152935"/>
</svg>
