<svg width="80" height="16" viewBox="0 0 80 16" fill="none" xmlns="http://www.w3.org/2000/svg">
<path d="M15.286 4.728V5.8H13.43V15H12.182V5.8H9.19V15H7.942V10.84H5.734C5.74467 10.9147 5.75 11.032 5.75 11.192C5.75 11.9813 5.46733 12.6213 4.902 13.112C4.34733 13.6027 3.574 13.848 2.582 13.848C1.88867 13.848 1.238 13.72 0.63 13.464V12.28C1.29133 12.6107 1.93667 12.776 2.566 12.776C3.078 12.776 3.526 12.6427 3.91 12.376C4.30467 12.0987 4.502 11.6667 4.502 11.08C4.502 10.6213 4.33667 10.264 4.006 10.008C3.67533 9.752 3.174 9.624 2.502 9.624H1.958V8.504H2.47C3.03533 8.504 3.462 8.38133 3.75 8.136C4.038 7.89067 4.182 7.56 4.182 7.144C4.182 6.26933 3.68067 5.832 2.678 5.832C2.11267 5.832 1.59533 5.96 1.126 6.216V5.032C1.58467 4.84 2.10733 4.744 2.694 4.744C3.56867 4.744 4.24067 4.94667 4.71 5.352C5.19 5.75733 5.43 6.30667 5.43 7C5.43 7.53333 5.29133 7.976 5.014 8.328C4.74733 8.68 4.39533 8.91467 3.958 9.032C4.502 9.10667 4.93933 9.34667 5.27 9.752H7.942V5.8H6.486V4.728H15.286ZM19.8173 0.648C22.0039 0.648 23.9399 0.797333 25.6253 1.096C27.3106 1.384 28.9746 1.8 30.6173 2.344V3.576C27.3639 2.37067 23.7746 1.768 19.8493 1.768C18.5053 1.768 17.8333 2.33867 17.8333 3.48V4.728H19.6733V5.8H17.8333V15H16.5853V5.8H14.7293V4.728H16.5853V3.464C16.5853 2.6 16.8733 1.91733 17.4493 1.416C18.0253 0.904 18.8146 0.648 19.8173 0.648ZM32.2816 4.728V5.8H30.4416V15H29.1776V12.12C28.687 12.6213 28.047 12.872 27.2576 12.872C26.5216 12.872 25.8923 12.6267 25.3696 12.136C24.847 11.6453 24.5856 11.0107 24.5856 10.232C24.5856 9.41067 24.847 8.76 25.3696 8.28C25.8923 7.78933 26.5323 7.544 27.2896 7.544C27.5563 7.544 27.8123 7.57067 28.0576 7.624V8.664C27.887 8.61067 27.6843 8.584 27.4496 8.584C26.991 8.584 26.6016 8.73867 26.2816 9.048C25.9723 9.35733 25.8176 9.75733 25.8176 10.248C25.8176 10.7387 25.967 11.1333 26.2656 11.432C26.575 11.72 26.975 11.864 27.4656 11.864C27.935 11.864 28.335 11.704 28.6656 11.384C29.007 11.0533 29.1776 10.6267 29.1776 10.104V5.8H24.2336V8.072C24.2336 8.82933 23.9936 9.42133 23.5136 9.848C23.0443 10.2747 22.415 10.504 21.6256 10.536L21.4336 10.552L24.9536 15H23.4016L19.9616 10.536V9.496H21.0336C22.335 9.496 22.9856 8.97867 22.9856 7.944V5.8H19.1136V4.728H32.2816ZM32.5804 10.536V9.496H33.6524C34.9537 9.496 35.6044 8.984 35.6044 7.96V5.8H31.7324V4.728H38.4524V5.8H36.8524V8.072C36.8524 8.82933 36.6177 9.42667 36.1484 9.864C35.679 10.2907 35.0497 10.5147 34.2604 10.536H34.0844L37.4764 15H35.9564L32.5804 10.536ZM40.986 4.728H42.842V5.8H41.002V15H39.754V5.8H37.898V4.728H39.722V3.384C39.722 2.86133 39.578 2.46133 39.29 2.184C39.0127 1.90667 38.6447 1.768 38.186 1.768C37.7273 1.768 37.3647 1.90667 37.098 2.184C36.8313 2.45067 36.698 2.85067 36.698 3.384V3.672H35.45V3.352C35.45 2.456 35.7113 1.784 36.234 1.336C36.746 0.888 37.3967 0.664 38.186 0.664C38.986 0.664 39.6527 0.888 40.186 1.336C40.7193 1.784 40.986 2.456 40.986 3.352V4.728ZM46.8826 4.536H53.7146V5.64L49.3786 15H48.0346L52.3706 5.64H46.8826V4.536ZM62.6116 0.648C63.9023 0.648 65.081 0.791999 66.1476 1.08C67.2143 1.368 68.3556 1.784 69.5716 2.328V3.576C67.161 2.37067 64.8516 1.768 62.6436 1.768C62.0783 1.768 61.641 1.91733 61.3316 2.216C61.0223 2.504 60.8676 2.90933 60.8676 3.432V4.728H62.7076V5.8H60.8676V15H59.6196V5.8H57.7636V4.728H59.6196V3.4C59.6196 2.57867 59.8916 1.91733 60.4356 1.416C60.9903 0.904 61.7156 0.648 62.6116 0.648ZM62.148 4.728H71.652V5.8H69.732V8.472H66.916C66.1907 8.472 65.62 8.65867 65.204 9.032C64.788 9.40533 64.58 9.928 64.58 10.6C64.58 11.2933 64.7667 11.8373 65.14 12.232C65.5133 12.6267 66.0147 12.824 66.644 12.824C67.2733 12.824 67.7747 12.648 68.148 12.296C68.532 11.944 68.7347 11.4907 68.756 10.936H69.956V15.16H68.708V13.032C68.2707 13.5867 67.5507 13.864 66.548 13.864C65.556 13.864 64.756 13.5547 64.148 12.936C63.54 12.3173 63.236 11.5547 63.236 10.648C63.236 9.69867 63.5507 8.92533 64.18 8.328C64.8093 7.72 65.6893 7.416 66.82 7.416H68.484V5.8H62.148V4.728ZM71.0949 4.728H79.6389V5.8H77.7989V15H76.5349V9.736H73.7029C73.5109 9.736 73.3775 9.784 73.3029 9.88C73.2282 9.976 73.1909 10.136 73.1909 10.36C73.1909 10.7333 73.2602 11.128 73.3989 11.544H72.3429C72.0442 10.9467 71.8949 10.392 71.8949 9.88C71.8949 9.08 72.3589 8.68 73.2869 8.68H76.5349V5.8H71.0949V4.728Z" fill="#152935"/>
</svg>
