<svg width="74" height="16" viewBox="0 0 74 16" fill="none" xmlns="http://www.w3.org/2000/svg">
<path d="M5.496 0.648C6.78667 0.648 7.96533 0.791999 9.032 1.08C10.0987 1.368 11.24 1.784 12.456 2.328V3.576C10.0453 2.37067 7.736 1.768 5.528 1.768C4.96267 1.768 4.52533 1.91733 4.216 2.216C3.90667 2.504 3.752 2.90933 3.752 3.432V4.728H5.592V5.8H3.752V15H2.504V5.8H0.648V4.728H2.504V3.4C2.504 2.57867 2.776 1.91733 3.32 1.416C3.87467 0.904 4.6 0.648 5.496 0.648ZM11.4804 8.888V5.8H7.73638V9.016C7.73638 9.77333 7.87504 10.3227 8.15238 10.664C8.42971 10.9947 8.85638 11.16 9.43238 11.16C9.99771 11.16 10.4777 10.9573 10.8724 10.552C11.2777 10.136 11.4804 9.58133 11.4804 8.888ZM14.5844 4.728V5.8H12.7444V15H11.4804V11.192C10.9897 11.8427 10.2804 12.1733 9.35238 12.184C7.43238 12.184 6.47238 11.1227 6.47238 9V5.8H5.03238V4.728H14.5844ZM21.2101 7.304V5.8H17.9461C17.2848 6.16267 16.9541 6.70667 16.9541 7.432C16.9541 7.88 17.1088 8.23733 17.4181 8.504C17.7381 8.77067 18.1221 8.904 18.5701 8.904H19.0501V9.976H18.4421C17.8768 9.976 17.4395 10.104 17.1301 10.36C16.8315 10.6053 16.6821 10.9467 16.6821 11.384C16.6821 11.896 16.9115 12.3013 17.3701 12.6C17.8288 12.8987 18.4101 13.048 19.1141 13.048C20.0635 13.048 20.8368 12.7867 21.4341 12.264C22.0315 11.7307 22.3301 11 22.3301 10.072C22.3301 9.528 22.1755 9.10133 21.8661 8.792C21.5675 8.472 21.1248 8.312 20.5381 8.312C20.2501 8.312 20.0208 8.34933 19.8501 8.424V7.384C20.0315 7.30933 20.3248 7.272 20.7301 7.272C20.8368 7.272 20.9968 7.28267 21.2101 7.304ZM24.8261 5.8H22.3781V7.672C23.1888 8.13067 23.5941 8.92533 23.5941 10.056C23.5941 11.2187 23.1675 12.184 22.3141 12.952C21.4715 13.7093 20.4048 14.088 19.1141 14.088C18.0261 14.088 17.1355 13.848 16.4421 13.368C15.7595 12.888 15.4181 12.232 15.4181 11.4C15.4181 10.8347 15.5835 10.3707 15.9141 10.008C16.2555 9.63467 16.6928 9.42133 17.2261 9.368C16.8421 9.304 16.4901 9.10133 16.1701 8.76C15.8608 8.408 15.7061 7.96533 15.7061 7.432C15.7061 6.74933 15.9461 6.20533 16.4261 5.8H14.0261V4.728H24.8261V5.8ZM36.7179 4.728V5.8H34.8619V15H33.5979V8.664C33.3205 8.52533 33.0325 8.456 32.7339 8.456C31.5819 8.456 31.0059 9.13333 31.0059 10.488V11.64H29.7579V10.456C29.7579 9.18667 29.2939 8.552 28.3659 8.552C27.8965 8.552 27.5072 8.74933 27.1979 9.144C26.8992 9.528 26.7499 10.0827 26.7499 10.808C26.7499 11.7147 26.9845 12.4667 27.4539 13.064C27.9232 13.6507 28.6112 13.944 29.5179 13.944C29.6992 13.944 29.8432 13.9333 29.9499 13.912V14.952C29.7579 14.984 29.5552 15 29.3419 15C28.1899 15 27.2619 14.6053 26.5579 13.816C25.8539 13.016 25.5019 12.008 25.5019 10.792C25.5019 9.82133 25.7525 9.032 26.2539 8.424C26.7552 7.80533 27.4219 7.496 28.2539 7.496C28.8299 7.496 29.3045 7.62933 29.6779 7.896C30.0512 8.152 30.2912 8.52 30.3979 9C30.6432 7.95467 31.3899 7.432 32.6379 7.432C32.9899 7.432 33.3099 7.49067 33.5979 7.608V5.8H24.2699V4.728H36.7179ZM30.0259 1.992V0.903999C30.4099 0.84 30.6979 0.808 30.8899 0.808C31.4339 0.808 31.8979 0.925333 32.2819 1.16C32.6659 1.384 33.0179 1.74667 33.3379 2.248L35.0499 4.84H33.6739L32.2819 2.728C31.9192 2.17333 31.4339 1.896 30.8259 1.896C30.6125 1.896 30.3459 1.928 30.0259 1.992ZM44.6161 9.672H48.1521V5.8H45.0481V8.088C45.0481 8.76 44.9041 9.288 44.6161 9.672ZM51.2401 4.728V5.8H49.4001V15H48.1521V10.76H45.4641C44.2801 10.76 43.3735 10.712 42.7441 10.616L45.6881 15H44.1681L41.1761 10.488V9.496H42.2321C42.8401 9.496 43.2508 9.37867 43.4641 9.144C43.6881 8.89867 43.8001 8.51467 43.8001 7.992V5.8H40.3761V4.728H51.2401ZM57.3544 9.384V5.8H53.5464V7.576C53.5464 8.25867 53.685 8.73333 53.9624 9C54.2504 9.256 54.7037 9.384 55.3224 9.384H57.3544ZM60.4744 4.728V5.8H58.6184V15H57.3544V10.456H55.6584C54.1757 10.456 53.4344 11.0587 53.4344 12.264C53.4344 12.7867 53.6157 13.2027 53.9784 13.512C54.341 13.8107 54.8157 13.96 55.4024 13.96C55.733 13.96 55.9677 13.944 56.1064 13.912V14.952C55.893 14.9947 55.6477 15.016 55.3704 15.016C54.3997 15.016 53.621 14.7813 53.0344 14.312C52.4584 13.832 52.1704 13.1493 52.1704 12.264C52.1704 11.7307 52.2984 11.256 52.5544 10.84C52.821 10.4133 53.189 10.12 53.6584 9.96C52.741 9.62933 52.2824 8.856 52.2824 7.64V5.8H50.6824V4.728H60.4744ZM59.9105 5.8V4.728H64.8705V5.8H63.0145V15H61.7665V5.8H59.9105ZM71.7025 8.312H67.8625C67.2652 8.312 66.9665 8.552 66.9665 9.032C66.9665 9.30933 67.0412 9.56 67.1905 9.784C67.3398 9.99733 67.5158 10.152 67.7185 10.248C68.1665 10.088 68.6838 10.008 69.2705 10.008C70.1452 10.008 70.8172 10.2213 71.2865 10.648C71.7558 11.064 71.9905 11.5653 71.9905 12.152C71.9905 12.504 71.9318 12.8027 71.8145 13.048H70.5825C70.7318 12.8453 70.8065 12.568 70.8065 12.216C70.8065 11.8747 70.6732 11.5973 70.4065 11.384C70.1505 11.16 69.7665 11.048 69.2545 11.048C68.5505 11.048 68.0012 11.2027 67.6065 11.512C67.2118 11.8213 67.0145 12.1947 67.0145 12.632C67.0145 13.1653 67.2438 13.6027 67.7025 13.944C68.1612 14.2747 68.8598 14.44 69.7985 14.44C70.4492 14.44 71.1158 14.344 71.7985 14.152V15.224C71.0625 15.4053 70.3638 15.496 69.7025 15.496C68.4438 15.496 67.4732 15.208 66.7905 14.632C66.1078 14.056 65.7665 13.384 65.7665 12.616C65.7665 11.8587 66.1025 11.2293 66.7745 10.728C66.0598 10.2587 65.7025 9.64 65.7025 8.872C65.7025 8.36 65.8838 7.96533 66.2465 7.688C66.6092 7.41067 67.0785 7.272 67.6545 7.272H70.4705V5.8H64.3105V4.728H73.5105V5.8H71.7025V8.312Z" fill="#152935"/>
</svg>
