<svg width="81" height="16" viewBox="0 0 81 16" fill="none" xmlns="http://www.w3.org/2000/svg">
<path d="M5.496 0.648C6.78667 0.648 7.96533 0.791999 9.032 1.08C10.0987 1.368 11.24 1.784 12.456 2.328V3.576C10.0453 2.37067 7.736 1.768 5.528 1.768C4.96267 1.768 4.52533 1.91733 4.216 2.216C3.90667 2.504 3.752 2.90933 3.752 3.432V4.728H5.592V5.8H3.752V15H2.504V5.8H0.648V4.728H2.504V3.4C2.504 2.57867 2.776 1.91733 3.32 1.416C3.87467 0.904 4.6 0.648 5.496 0.648ZM11.4804 8.888V5.8H7.73638V9.016C7.73638 9.77333 7.87504 10.3227 8.15238 10.664C8.42971 10.9947 8.85638 11.16 9.43238 11.16C9.99771 11.16 10.4777 10.9573 10.8724 10.552C11.2777 10.136 11.4804 9.58133 11.4804 8.888ZM14.5844 4.728V5.8H12.7444V15H11.4804V11.192C10.9897 11.8427 10.2804 12.1733 9.35238 12.184C7.43238 12.184 6.47238 11.1227 6.47238 9V5.8H5.03238V4.728H14.5844ZM21.2101 7.304V5.8H17.9461C17.2848 6.16267 16.9541 6.70667 16.9541 7.432C16.9541 7.88 17.1088 8.23733 17.4181 8.504C17.7381 8.77067 18.1221 8.904 18.5701 8.904H19.0501V9.976H18.4421C17.8768 9.976 17.4395 10.104 17.1301 10.36C16.8315 10.6053 16.6821 10.9467 16.6821 11.384C16.6821 11.896 16.9115 12.3013 17.3701 12.6C17.8288 12.8987 18.4101 13.048 19.1141 13.048C20.0635 13.048 20.8368 12.7867 21.4341 12.264C22.0315 11.7307 22.3301 11 22.3301 10.072C22.3301 9.528 22.1755 9.10133 21.8661 8.792C21.5675 8.472 21.1248 8.312 20.5381 8.312C20.2501 8.312 20.0208 8.34933 19.8501 8.424V7.384C20.0315 7.30933 20.3248 7.272 20.7301 7.272C20.8368 7.272 20.9968 7.28267 21.2101 7.304ZM24.8261 5.8H22.3781V7.672C23.1888 8.13067 23.5941 8.92533 23.5941 10.056C23.5941 11.2187 23.1675 12.184 22.3141 12.952C21.4715 13.7093 20.4048 14.088 19.1141 14.088C18.0261 14.088 17.1355 13.848 16.4421 13.368C15.7595 12.888 15.4181 12.232 15.4181 11.4C15.4181 10.8347 15.5835 10.3707 15.9141 10.008C16.2555 9.63467 16.6928 9.42133 17.2261 9.368C16.8421 9.304 16.4901 9.10133 16.1701 8.76C15.8608 8.408 15.7061 7.96533 15.7061 7.432C15.7061 6.74933 15.9461 6.20533 16.4261 5.8H14.0261V4.728H24.8261V5.8ZM36.7179 4.728V5.8H34.8619V15H33.5979V8.664C33.3205 8.52533 33.0325 8.456 32.7339 8.456C31.5819 8.456 31.0059 9.13333 31.0059 10.488V11.64H29.7579V10.456C29.7579 9.18667 29.2939 8.552 28.3659 8.552C27.8965 8.552 27.5072 8.74933 27.1979 9.144C26.8992 9.528 26.7499 10.0827 26.7499 10.808C26.7499 11.7147 26.9845 12.4667 27.4539 13.064C27.9232 13.6507 28.6112 13.944 29.5179 13.944C29.6992 13.944 29.8432 13.9333 29.9499 13.912V14.952C29.7579 14.984 29.5552 15 29.3419 15C28.1899 15 27.2619 14.6053 26.5579 13.816C25.8539 13.016 25.5019 12.008 25.5019 10.792C25.5019 9.82133 25.7525 9.032 26.2539 8.424C26.7552 7.80533 27.4219 7.496 28.2539 7.496C28.8299 7.496 29.3045 7.62933 29.6779 7.896C30.0512 8.152 30.2912 8.52 30.3979 9C30.6432 7.95467 31.3899 7.432 32.6379 7.432C32.9899 7.432 33.3099 7.49067 33.5979 7.608V5.8H24.2699V4.728H36.7179ZM30.0259 1.992V0.903999C30.4099 0.84 30.6979 0.808 30.8899 0.808C31.4339 0.808 31.8979 0.925333 32.2819 1.16C32.6659 1.384 33.0179 1.74667 33.3379 2.248L35.0499 4.84H33.6739L32.2819 2.728C31.9192 2.17333 31.4339 1.896 30.8259 1.896C30.6125 1.896 30.3459 1.928 30.0259 1.992ZM41.0161 7.4V6.04L43.4961 4.536H44.6801V15H43.4321V5.912L41.0161 7.4ZM49.7543 5.8V4.728H59.6103V5.8H57.7703V15H56.5223V10.52H53.1623V12.696H52.0743L51.6743 11.8C51.3863 11.1173 51.2423 10.6373 51.2423 10.36C51.2423 10.1467 51.3009 9.96533 51.4183 9.816C51.5463 9.66667 51.7116 9.56533 51.9143 9.512V5.8H49.7543ZM56.5223 5.8H53.1623V9.464H56.5223V5.8ZM66.4525 8.312H62.6125C62.0152 8.312 61.7165 8.552 61.7165 9.032C61.7165 9.30933 61.7912 9.56 61.9405 9.784C62.0898 9.99733 62.2658 10.152 62.4685 10.248C62.9165 10.088 63.4338 10.008 64.0205 10.008C64.8952 10.008 65.5672 10.2213 66.0365 10.648C66.5058 11.064 66.7405 11.5653 66.7405 12.152C66.7405 12.504 66.6818 12.8027 66.5645 13.048H65.3325C65.4818 12.8453 65.5565 12.568 65.5565 12.216C65.5565 11.8747 65.4232 11.5973 65.1565 11.384C64.9005 11.16 64.5165 11.048 64.0045 11.048C63.3005 11.048 62.7512 11.2027 62.3565 11.512C61.9618 11.8213 61.7645 12.1947 61.7645 12.632C61.7645 13.1653 61.9938 13.6027 62.4525 13.944C62.9112 14.2747 63.6098 14.44 64.5485 14.44C65.1992 14.44 65.8658 14.344 66.5485 14.152V15.224C65.8125 15.4053 65.1138 15.496 64.4525 15.496C63.1938 15.496 62.2232 15.208 61.5405 14.632C60.8578 14.056 60.5165 13.384 60.5165 12.616C60.5165 11.8587 60.8525 11.2293 61.5245 10.728C60.8098 10.2587 60.4525 9.64 60.4525 8.872C60.4525 8.36 60.6338 7.96533 60.9965 7.688C61.3592 7.41067 61.8285 7.272 62.4045 7.272H65.2205V5.8H59.0605V4.728H68.2605V5.8H66.4525V8.312ZM70.7829 4.728H72.6389V5.8H70.7989V15H69.5509V5.8H67.6949V4.728H69.5189V3.384C69.5189 2.86133 69.3749 2.46133 69.0869 2.184C68.8095 1.90667 68.4415 1.768 67.9829 1.768C67.5242 1.768 67.1615 1.90667 66.8949 2.184C66.6282 2.45067 66.4949 2.85067 66.4949 3.384V3.672H65.2469V3.352C65.2469 2.456 65.5082 1.784 66.0309 1.336C66.5429 0.888 67.1935 0.664 67.9829 0.664C68.7829 0.664 69.4495 0.888 69.9829 1.336C70.5162 1.784 70.7829 2.456 70.7829 3.352V4.728ZM72.0793 4.728H80.6233V5.8H78.7833V15H77.5193V9.736H74.6873C74.4953 9.736 74.3619 9.784 74.2873 9.88C74.2126 9.976 74.1753 10.136 74.1753 10.36C74.1753 10.7333 74.2446 11.128 74.3833 11.544H73.3273C73.0286 10.9467 72.8793 10.392 72.8793 9.88C72.8793 9.08 73.3433 8.68 74.2713 8.68H77.5193V5.8H72.0793V4.728ZM73.929 1.992V0.903999C74.313 0.84 74.601 0.808 74.793 0.808C75.337 0.808 75.801 0.925333 76.185 1.16C76.569 1.384 76.921 1.74667 77.241 2.248L78.953 4.84H77.577L76.185 2.728C75.8223 2.17333 75.337 1.896 74.729 1.896C74.5157 1.896 74.249 1.928 73.929 1.992Z" fill="#152935"/>
</svg>
