<svg width="80" height="17" viewBox="0 0 80 17" fill="none" xmlns="http://www.w3.org/2000/svg">
<path d="M7.096 9.888V6.8H3.352V10.016C3.352 10.7733 3.49067 11.3227 3.768 11.664C4.04533 11.9947 4.472 12.16 5.048 12.16C5.61333 12.16 6.09333 11.9573 6.488 11.552C6.89333 11.136 7.096 10.5813 7.096 9.888ZM10.2 5.728V6.8H8.36V16H7.096V12.192C6.60533 12.8427 5.896 13.1733 4.968 13.184C3.048 13.184 2.088 12.1227 2.088 10V6.8H0.648V5.728H10.2ZM3.54575 2.992V1.904C3.92975 1.84 4.21775 1.808 4.40975 1.808C4.95375 1.808 5.41775 1.92533 5.80175 2.16C6.18575 2.384 6.53775 2.74667 6.85775 3.248L8.56975 5.84H7.19375L5.80175 3.728C5.44975 3.17333 4.96442 2.896 4.34575 2.896C4.13242 2.896 3.86575 2.928 3.54575 2.992ZM8.39375 4.016C8.22308 3.856 8.13775 3.65333 8.13775 3.408C8.13775 3.16267 8.22308 2.95467 8.39375 2.784C8.55375 2.61333 8.75642 2.528 9.00175 2.528C9.24708 2.528 9.45508 2.61333 9.62575 2.784C9.79642 2.95467 9.88175 3.16267 9.88175 3.408C9.88175 3.65333 9.79642 3.856 9.62575 4.016C9.45508 4.176 9.24708 4.256 9.00175 4.256C8.75642 4.256 8.55375 4.176 8.39375 4.016ZM14.5918 1.648C15.7011 1.648 16.7251 1.792 17.6638 2.08C18.6131 2.368 19.6531 2.784 20.7838 3.328V4.576C18.5544 3.37067 16.5011 2.768 14.6238 2.768C14.0798 2.768 13.6531 2.91733 13.3438 3.216C13.0451 3.504 12.8958 3.904 12.8958 4.416V5.728H14.7358V6.8H12.8958V16H11.6478V6.8H9.79175V5.728H11.6478V4.4C11.6478 3.57867 11.9198 2.91733 12.4638 2.416C13.0078 1.904 13.7171 1.648 14.5918 1.648ZM20.9121 9.216H18.1281C17.7441 9.216 17.4241 9.296 17.1681 9.456C16.9121 9.616 16.7841 9.872 16.7841 10.224C16.7841 10.5867 16.9441 10.8533 17.2641 11.024C17.5841 11.184 18.1441 11.2853 18.9441 11.328C20.8641 11.3813 21.8241 12.1173 21.8241 13.536C21.8135 14.272 21.5148 14.8693 20.9281 15.328C20.3521 15.7867 19.5681 16.016 18.5761 16.016C17.4348 16.016 16.4215 15.7813 15.5361 15.312V14.08C16.4855 14.6667 17.4988 14.96 18.5761 14.96C19.1841 14.96 19.6641 14.8373 20.0161 14.592C20.3681 14.3467 20.5441 14 20.5441 13.552C20.5441 13.1573 20.3841 12.8693 20.0641 12.688C19.7441 12.5067 19.2108 12.4 18.4641 12.368C16.5015 12.2827 15.5201 11.5787 15.5201 10.256C15.5201 9.57333 15.7601 9.05067 16.2401 8.688C16.7201 8.32533 17.3335 8.144 18.0801 8.144H19.6641V6.8H14.1761V5.728H23.2161V6.8H20.9121V9.216ZM20.4604 2.416C20.2897 2.256 20.2044 2.05333 20.2044 1.808C20.2044 1.56267 20.2897 1.35467 20.4604 1.184C20.6204 1.01333 20.823 0.927999 21.0684 0.927999C21.3137 0.927999 21.5217 1.01333 21.6924 1.184C21.863 1.35467 21.9484 1.56267 21.9484 1.808C21.9484 2.05333 21.863 2.256 21.6924 2.416C21.5217 2.576 21.3137 2.656 21.0684 2.656C20.823 2.656 20.6204 2.576 20.4604 2.416ZM22.8199 5.728H32.7079V6.8H30.8519V16H29.6199V6.8H26.8199V10.544C26.8199 11.216 26.6492 11.7387 26.3079 12.112C25.9665 12.4747 25.4705 12.656 24.8199 12.656C24.3825 12.656 23.9932 12.5867 23.6519 12.448V11.344C23.9719 11.4933 24.2972 11.568 24.6279 11.568C25.2679 11.568 25.5879 11.2107 25.5879 10.496V6.8H22.8199V5.728ZM40.9496 2.768C40.4483 2.768 40.0483 2.91733 39.7496 3.216C39.4616 3.504 39.3176 3.89867 39.3176 4.4V5.728H41.1576V6.8H39.3176V16H38.0696V6.8H36.2136V5.728H38.0696V4.384C38.0696 3.57333 38.331 2.91733 38.8536 2.416C39.387 1.904 40.075 1.648 40.9176 1.648C41.451 1.648 42.0056 1.73867 42.5816 1.92C43.1683 2.10133 43.6483 2.288 44.0216 2.48C44.4056 2.672 44.923 2.95467 45.5736 3.328V4.576C43.6643 3.37067 42.123 2.768 40.9496 2.768ZM41.446 11.536V10.496H42.518C43.8193 10.496 44.47 9.984 44.47 8.96V6.8H40.598V5.728H47.318V6.8H45.718V9.072C45.718 9.82933 45.4833 10.4267 45.014 10.864C44.5447 11.2907 43.9153 11.5147 43.126 11.536H42.95L46.342 16H44.822L41.446 11.536ZM61.9476 10.992V6.8H53.9156V9.088C54.4063 8.576 55.0303 8.32 55.7876 8.32C56.5023 8.32 57.1263 8.51733 57.6596 8.912C58.1823 8.592 58.7743 8.432 59.4356 8.432C59.8303 8.432 60.1663 8.47467 60.4436 8.56V9.664C60.177 9.568 59.8623 9.52 59.4996 9.52C58.9343 9.52 58.465 9.70133 58.0916 10.064C57.7183 10.416 57.5316 10.8853 57.5316 11.472C57.5316 12.0907 57.7183 12.5867 58.0916 12.96C58.4756 13.3333 58.9503 13.52 59.5156 13.52C60.2623 13.52 60.8543 13.2693 61.2916 12.768C61.729 12.2667 61.9476 11.6747 61.9476 10.992ZM65.0516 5.728V6.8H63.1956V16H61.9476V13.344C61.393 14.144 60.5396 14.544 59.3876 14.544C58.5343 14.544 57.7983 14.272 57.1796 13.728C56.5716 13.1733 56.2676 12.4267 56.2676 11.488C56.2676 10.8587 56.4383 10.2773 56.7796 9.744C56.4703 9.488 56.0916 9.36 55.6436 9.36C55.1743 9.36 54.769 9.52533 54.4276 9.856C54.0863 10.176 53.9156 10.5813 53.9156 11.072V16H52.6516V13.696C52.1823 14.1867 51.5636 14.432 50.7956 14.432C49.921 14.432 49.2116 14.1707 48.6676 13.648C48.1236 13.1147 47.8516 12.416 47.8516 11.552C47.8516 10.624 48.1556 9.88267 48.7636 9.328C49.3716 8.76267 50.1236 8.48 51.0196 8.48C51.1903 8.48 51.313 8.496 51.3876 8.528V9.584C51.3343 9.57333 51.233 9.568 51.0836 9.568C50.5076 9.568 50.033 9.744 49.6596 10.096C49.2863 10.448 49.0996 10.928 49.0996 11.536C49.0996 12.08 49.2703 12.528 49.6116 12.88C49.953 13.232 50.3956 13.408 50.9396 13.408C51.409 13.408 51.809 13.2427 52.1396 12.912C52.481 12.5813 52.6516 12.1707 52.6516 11.68V6.8H46.7636V5.728H65.0516ZM58.3477 2.992V1.904C58.7317 1.84 59.0197 1.808 59.2117 1.808C59.7557 1.808 60.2197 1.92533 60.6037 2.16C60.9877 2.384 61.3397 2.74667 61.6597 3.248L63.3717 5.84H61.9957L60.6037 3.728C60.2411 3.17333 59.7557 2.896 59.1477 2.896C58.9344 2.896 58.6677 2.928 58.3477 2.992ZM68.8818 10.672H72.2098C72.5084 10.064 72.9778 9.584 73.6178 9.232C74.2578 8.86933 74.9938 8.68267 75.8258 8.672C75.9964 8.672 76.1244 8.67733 76.2098 8.688V6.8H69.3138V9.088C69.3138 9.76 69.1698 10.288 68.8818 10.672ZM77.4578 6.8V9.776C77.1164 9.72267 76.7431 9.696 76.3378 9.696C75.3884 9.696 74.6204 9.91467 74.0338 10.352C73.4578 10.7787 73.1698 11.3973 73.1698 12.208C73.1698 12.9653 73.4258 13.552 73.9378 13.968C74.4604 14.384 75.1484 14.592 76.0018 14.592C76.8444 14.592 77.6018 14.3893 78.2738 13.984V15.136C77.6124 15.4773 76.8391 15.648 75.9538 15.648C74.7378 15.648 73.7511 15.344 72.9938 14.736C72.2471 14.1173 71.8738 13.2693 71.8738 12.192C71.8738 12.096 71.8844 11.952 71.9058 11.76H69.7298C68.5458 11.76 67.6391 11.712 67.0098 11.616L69.9538 16H68.4338L65.4418 11.488V10.496H66.4978C67.1058 10.496 67.5164 10.3787 67.7298 10.144C67.9538 9.89867 68.0658 9.51467 68.0658 8.992V6.8H64.6418V5.728H79.2338V6.8H77.4578Z" fill="#152935"/>
</svg>
