<svg width="30" height="30" viewBox="0 0 30 30" fill="none" xmlns="http://www.w3.org/2000/svg">
<circle cx="15" cy="15" r="15" fill="#E8E9EB"/>
<path d="M13.7818 18.7532C13.7949 17.9529 13.8837 17.3208 14.0481 16.8568C14.2125 16.3927 14.5479 15.8783 15.0543 15.3134L16.3465 13.9516C16.8989 13.3127 17.1751 12.6268 17.1751 11.8937C17.1751 11.1876 16.9942 10.6362 16.6326 10.2394C16.2709 9.83591 15.7448 9.63416 15.0543 9.63416C14.3835 9.63416 13.8442 9.81574 13.4365 10.1789C13.0288 10.542 12.8249 11.0296 12.8249 11.6416H11C11.0132 10.5521 11.3913 9.67451 12.1344 9.00874C12.8841 8.33625 13.8574 8 15.0543 8C16.2972 8 17.2639 8.34297 17.9544 9.02892C18.6515 9.70814 19 10.6429 19 11.8332C19 13.0101 18.4673 14.1701 17.402 15.3134L16.3268 16.4028C15.8467 16.9475 15.6067 17.731 15.6067 18.7532H13.7818ZM13.7028 21.9509C13.7028 21.6483 13.7916 21.3961 13.9692 21.1944C14.1533 20.9859 14.4229 20.8816 14.7781 20.8816C15.1332 20.8816 15.4028 20.9859 15.5869 21.1944C15.7711 21.3961 15.8631 21.6483 15.8631 21.9509C15.8631 22.2535 15.7711 22.5057 15.5869 22.7075C15.4028 22.9025 15.1332 23 14.7781 23C14.4229 23 14.1533 22.9025 13.9692 22.7075C13.7916 22.5057 13.7028 22.2535 13.7028 21.9509Z" fill="#5A6872"/>
</svg>
