<svg width="30" height="30" viewBox="0 0 30 30" fill="none" xmlns="http://www.w3.org/2000/svg">
<circle cx="15" cy="15" r="15" fill="#D1D1D1"/>
<path d="M19.4441 15.8003C19.44 15.4653 19.3993 15.1308 19.3221 14.8029C19.1677 14.1474 18.8714 13.5352 18.4548 13.0112C18.0381 12.4872 17.5117 12.0646 16.9139 11.7743C16.3162 11.484 15.6623 11.3333 15 11.3333V15.8571L13.1877 19.9878C13.7924 20.2627 14.4499 20.3966 15.112 20.3796C15.7741 20.3627 16.424 20.1953 17.0144 19.8897C17.6048 19.5842 18.1206 19.1482 18.5241 18.6137C18.9277 18.0792 19.2087 17.4596 19.3468 16.8003C19.3956 16.5671 19.4261 16.3311 19.4383 16.0944C19.4434 15.9964 19.4453 15.8983 19.4441 15.8003Z" fill="white"/>
<path fill-rule="evenodd" clip-rule="evenodd" d="M14.5556 6.80952H12.3333V5H17.6667V6.80952H15.4444V7.72664C19.6556 7.96143 23 11.5123 23 15.8571C23 20.3538 19.4178 24 15 24C10.5733 24 7 20.3538 7 15.8571C7 11.5123 10.3444 7.96143 14.5556 7.72664V6.80952ZM15 22.1905C11.56 22.1905 8.77778 19.3586 8.77778 15.8571C8.77778 12.3557 11.56 9.52381 15 9.52381C18.44 9.52381 21.2222 12.3557 21.2222 15.8571C21.2222 19.3586 18.44 22.1905 15 22.1905Z" fill="white"/>
</svg>
