<svg width="30" height="30" viewBox="0 0 30 30" fill="none" xmlns="http://www.w3.org/2000/svg">
<circle cx="15" cy="15" r="15" fill="#EFC100"/>
<path d="M7.5965 16.9954V9.73093C7.5965 9.32726 7.92231 9 8.32425 9H15.5534C15.9553 9 16.2811 9.32726 16.2811 9.73093V16.9954C16.2811 17.13 16.1726 17.239 16.0386 17.239H7.83908C7.70508 17.239 7.5965 17.13 7.5965 16.9954ZM13.4343 19.484C13.4343 20.3213 12.7585 21 11.9249 21C11.0913 21 10.4155 20.3213 10.4155 19.484C10.4155 18.6467 11.0913 17.968 11.9249 17.968C12.7585 17.968 13.4343 18.6467 13.4343 19.484ZM12.6796 19.484C12.6796 19.0654 12.3417 18.726 11.9249 18.726C11.5081 18.726 11.1701 19.0654 11.1701 19.484C11.1701 19.9026 11.5081 20.242 11.9249 20.242C12.3417 20.242 12.6796 19.9026 12.6796 19.484ZM10.6249 17.968H7.24258C7.10861 17.968 7 18.0771 7 18.2117V18.9508C7 19.0854 7.10861 19.1945 7.24258 19.1945H9.95364C10.0244 18.7067 10.2696 18.2758 10.6249 17.968ZM21.3316 19.484C21.3316 20.3213 20.6558 21 19.8222 21C18.9886 21 18.3128 20.3213 18.3128 19.484C18.3128 18.6467 18.9886 17.968 19.8222 17.968C20.6558 17.968 21.3316 18.6467 21.3316 19.484ZM20.5769 19.484C20.5769 19.0654 20.239 18.726 19.8222 18.726C19.4054 18.726 19.0675 19.0654 19.0675 19.484C19.0675 19.9026 19.4054 20.242 19.8222 20.242C20.239 20.242 20.5769 19.9026 20.5769 19.484ZM24 18.2117V18.9508C24 19.0854 23.8914 19.1945 23.7574 19.1945H21.7934C21.6529 18.2269 20.8238 17.4807 19.8223 17.4807C18.8206 17.4807 17.9914 18.2269 17.8509 19.1945H13.8961C13.8253 18.7067 13.5802 18.2758 13.2249 17.968H16.9748V10.9991C16.9748 10.73 17.192 10.5118 17.4599 10.5118H19.7501C20.3949 10.5118 20.9976 10.8335 21.3584 11.3703L22.8348 13.5665C23.0513 13.8887 23.1671 14.2685 23.1671 14.6572V17.968H23.7574C23.8914 17.968 24 18.0771 24 18.2117ZM21.5391 13.6228L20.3585 11.9378C20.3131 11.873 20.2391 11.8344 20.1601 11.8344H18.3186C18.1847 11.8344 18.076 11.9435 18.076 12.0781V13.763C18.076 13.8976 18.1846 14.0066 18.3186 14.0066H21.3408C21.5373 14.0066 21.6522 13.7842 21.5391 13.6228Z" fill="white"/>
</svg>
