<svg width="30" height="30" viewBox="0 0 30 30" fill="none" xmlns="http://www.w3.org/2000/svg">
<circle cx="15" cy="15" r="15" fill="#47B02D"/>
<path fill-rule="evenodd" clip-rule="evenodd" d="M4 11C4 8.25 6.25 6 9 6C11.75 6 14 8.25 14 11C14 13.75 11.75 16 9 16C6.25 16 4 13.75 4 11ZM6.5 13V14H11.5V13H6.5ZM6.5 10.35L8.15 12L11.5 8.65L10.8 7.95L8.15 10.6L7.2 9.65L6.5 10.35ZM15 11C15 14.3137 12.3137 17 9 17C8.8644 17 8.72986 16.9955 8.5965 16.9866V17.9954C8.5965 18.13 8.70508 18.239 8.83908 18.239H17.0386C17.1726 18.239 17.2811 18.13 17.2811 17.9954V10.7309C17.2811 10.3273 16.9553 10 16.5534 10H14.917C14.9716 10.3252 15 10.6593 15 11ZM14.4343 20.484C14.4343 21.3213 13.7585 22 12.9249 22C12.0913 22 11.4155 21.3213 11.4155 20.484C11.4155 19.6467 12.0913 18.968 12.9249 18.968C13.7585 18.968 14.4343 19.6467 14.4343 20.484ZM13.6796 20.484C13.6796 20.0654 13.3417 19.726 12.9249 19.726C12.5081 19.726 12.1701 20.0654 12.1701 20.484C12.1701 20.9026 12.5081 21.242 12.9249 21.242C13.3417 21.242 13.6796 20.9026 13.6796 20.484ZM11.6249 18.968H8.24258C8.10861 18.968 8 19.0771 8 19.2117V19.9508C8 20.0854 8.10861 20.1945 8.24258 20.1945H10.9536C11.0244 19.7067 11.2696 19.2758 11.6249 18.968ZM22.3316 20.484C22.3316 21.3213 21.6558 22 20.8222 22C19.9886 22 19.3128 21.3213 19.3128 20.484C19.3128 19.6467 19.9886 18.968 20.8222 18.968C21.6558 18.968 22.3316 19.6467 22.3316 20.484ZM21.5769 20.484C21.5769 20.0654 21.239 19.726 20.8222 19.726C20.4054 19.726 20.0675 20.0654 20.0675 20.484C20.0675 20.9026 20.4054 21.242 20.8222 21.242C21.239 21.242 21.5769 20.9026 21.5769 20.484ZM25 19.2117V19.9508C25 20.0854 24.8914 20.1945 24.7574 20.1945H22.7934C22.6529 19.2269 21.8238 18.4807 20.8223 18.4807C19.8206 18.4807 18.9914 19.2269 18.8509 20.1945H14.8961C14.8253 19.7067 14.5802 19.2758 14.2249 18.968H17.9748V11.9991C17.9748 11.73 18.192 11.5118 18.4599 11.5118H20.7501C21.3949 11.5118 21.9976 11.8335 22.3584 12.3703L23.8348 14.5665C24.0513 14.8887 24.1671 15.2685 24.1671 15.6572V18.968H24.7574C24.8914 18.968 25 19.0771 25 19.2117ZM22.5391 14.6228L21.3585 12.9378C21.3131 12.873 21.2391 12.8344 21.1601 12.8344H19.3186C19.1847 12.8344 19.076 12.9435 19.076 13.0781V14.763C19.076 14.8976 19.1846 15.0066 19.3186 15.0066H22.3408C22.5373 15.0066 22.6522 14.7842 22.5391 14.6228Z" fill="white"/>
</svg>
