<svg width="30" height="30" viewBox="0 0 30 30" fill="none" xmlns="http://www.w3.org/2000/svg">
<circle cx="15" cy="15" r="15" fill="#EF7B10"/>
<path d="M14.5833 6.6665C10.675 6.6665 7.5 9.8415 7.5 13.7498C7.5 17.6582 10.675 20.8332 14.5833 20.8332H15V23.3332C19.05 21.3832 21.6667 17.4998 21.6667 13.7498C21.6667 9.8415 18.4917 6.6665 14.5833 6.6665ZM15.4167 18.7498H13.75V17.0832H15.4167V18.7498ZM15.4167 15.8332H13.75C13.75 13.1248 16.25 13.3332 16.25 11.6665C16.25 10.7498 15.5 9.99984 14.5833 9.99984C13.6667 9.99984 12.9167 10.7498 12.9167 11.6665H11.25C11.25 9.82484 12.7417 8.33317 14.5833 8.33317C16.425 8.33317 17.9167 9.82484 17.9167 11.6665C17.9167 13.7498 15.4167 13.9582 15.4167 15.8332Z" fill="white"/>
</svg>
